<?xml version="1.0" encoding="UTF-8" standalone="no"?>
<!-- Created with Inkscape (http://www.inkscape.org/) -->

<svg
   xmlns:dc="http://purl.org/dc/elements/1.1/"
   xmlns:cc="http://creativecommons.org/ns#"
   xmlns:rdf="http://www.w3.org/1999/02/22-rdf-syntax-ns#"
   xmlns:svg="http://www.w3.org/2000/svg"
   xmlns="http://www.w3.org/2000/svg"
   version="1.1"
   width="1920"
   height="1080"
   id="svg2">
  <defs
     id="defs4">
    <filter
       x="-0.1204878"
       y="-0.11951613"
       width="1.2409756"
       height="1.2390323"
       color-interpolation-filters="sRGB"
       id="filter3964">
      <feGaussianBlur
         id="feGaussianBlur3966"
         stdDeviation="1.5594231" />
    </filter>
    <filter
       color-interpolation-filters="sRGB"
       id="filter4024">
      <feGaussianBlur
         id="feGaussianBlur4026"
         stdDeviation="0.62376923" />
    </filter>
    <filter
       color-interpolation-filters="sRGB"
       id="filter4044">
      <feGaussianBlur
         id="feGaussianBlur4046"
         stdDeviation="0.62376923" />
    </filter>
    <filter
       color-interpolation-filters="sRGB"
       id="filter4195">
      <feGaussianBlur
         id="feGaussianBlur4197"
         stdDeviation="1.4979688" />
    </filter>
  </defs>
  <metadata
     id="metadata7">
    <rdf:RDF>
      <cc:Work
         rdf:about="">
        <dc:format>image/svg+xml</dc:format>
        <dc:type
           rdf:resource="http://purl.org/dc/dcmitype/StillImage" />
        <dc:title></dc:title>
      </cc:Work>
    </rdf:RDF>
  </metadata>
  <g
     id="layer1"
     style="display:inline">
    <path
       d="m -124.45079,-141.88052 2276.88379,0 0,1385.92932 -2276.88379,0 z"
       id="rect3387"
       style="fill:#787878;fill-opacity:1;stroke:none" />
    <path
       d="m -31.514719,51.005051 82,53.999999 88.178829,10.70125 -25.36876,41.80595 35.43046,-38.71905 19.63508,44.30142 -8.11825,-44.21089 41.93058,26.34599 -27.74951,-27.78007 56.06157,-66.444599 20,18 82,29.999999 101,-62.999999 39.9068,22.966044 -5.65804,63.856345 17.60143,-54.363326 71.14981,44.540936 90,-22 48,26 46,0 45.5,37 -13.5,63.5 -49.03479,29.13872 56.99395,-27.0087 23.02011,-58.45628 -29.99146,-45.80978 133.01219,-16.36396 18,36 62,-24 84.00002,26 36.0208,-36.72792 33.3762,-17.230449 62.603,35.958369 32.9947,96.89321 -31.4891,42.99163 -71.8312,-15.80177 79.9325,25.12993 38.029,-56.74177 -12.6428,-47.65688 18.3396,-19.04042 56.2731,78.55495 -53.6627,-92.35897 -25.2187,18.63669 -14.5785,-53.853458 181.1089,-9.037413 20.098,55.732471 -36.7706,54.14978 79.4976,48.57183 -40.8681,73.66113 51.0863,-75.10824 -71.4857,-49.29268 51.0345,-64.91139 98.1532,-2.51863 89.3289,65.97969 -32.2984,13.36732 32.6898,75.37815 -20.6114,-70.19808 38.0193,-12.40091 14.8718,-26.12617 80,2 26,-32 46,-18 30,8 108,48 0,-378 -2014.000019,16 z"
       id="path3313"
       style="fill:#383838;fill-opacity:1;stroke:#000000;stroke-width:1px;stroke-linecap:butt;stroke-linejoin:miter;stroke-opacity:1" />
    <path
       d="m 458,282 82,48 2,16 10,-17 109,-11 58,28 7,67 47,26 -60,-20 -9,-66 -48,-21 -90,13 -36,44 -10,68 -2,-70 10,-46 z"
       id="path3299"
       style="fill:#383838;fill-opacity:1;stroke:#000000;stroke-width:1px;stroke-linecap:butt;stroke-linejoin:miter;stroke-opacity:1" />
    <path
       d="m 94,270 112,134 50,10 6,-86 58,-12 -38,20 2,78 44,64 2,32 72,46 90,0 90,-48 -70,64 22,62 206,68 98,14 142,-38 -124,50 -20,46 58,24 96,-18 78,14 -86,4 -86,18 -18,18 52,102 -42,166 -62,0 44,-144 -62,-18 -68,-4 64,-10 66,-16 -42,-110 -28,-12 20,-46 -94,-26 -226,-74 -28,-68 -68,0 -34,8 -110,102 110,-124 -68,-48 -72,4 70,-16 -40,-66 -66,-14 z"
       id="path3301"
       style="fill:#383838;fill-opacity:1;stroke:#000000;stroke-width:1px;stroke-linecap:butt;stroke-linejoin:miter;stroke-opacity:1" />
    <path
       d="m 1036,404 36,56 132,6 50,-36 156,10 36,-18 -30,28 98,114 106,8 -20,-52 92,-22 -70,26 20,52 82,16 40,-8 -20,18 2,64 46,-6 -58.9289,25.05025 L 1710,752 1713.8995,676.80761 1604,674 1724.4853,663.29289 1720,607.53553 1610,588 l -112,-6 -56,22 44.2426,-34.58579 L 1396,456 l -132,-10 -50,40 -154,-8 z"
       id="path3303"
       style="fill:#383838;fill-opacity:1;stroke:#000000;stroke-width:1px;stroke-linecap:butt;stroke-linejoin:miter;stroke-opacity:1" />
    <path
       d="m 1220.6257,682.50548 77.7817,-15.55635 94.7524,50.91169 -77.9696,101.53437 -99.1274,15.35234 68.2025,4.73566 -28.2843,123.03658 195.1615,48.08333 100.4092,-26.87013 74.9533,39.59803 318.1981,80.6102 106.066,-49.4975 -216.3747,-14.1421 15.5563,-65.05391 -43.8406,-31.1127 11.3137,-41.01219 -25.4558,46.66905 32.5269,29.69848 -11.3137,56.56857 -161.2204,-36.7695 -76.3675,-32.52699 -39.598,-38.18377 53.7402,-14.14213 -76.3676,4.24264 28.2843,36.76955 -91.9239,36.7696 -168.2914,-41.01223 49.4974,-24.04163 -46.669,8.48528 22.6274,-87.68124 106.0661,-123.03659 38.1837,59.39697 67.8823,-22.62742 -65.0538,9.8995 -33.9412,-66.46804 -16.9705,-69.29646 -1.4143,55.15433 -106.066,-48.08327 z"
       id="path4169"
       style="fill:#383838;fill-opacity:1;stroke:#000000;stroke-width:1px;stroke-linecap:butt;stroke-linejoin:miter;stroke-opacity:1" />
    <path
       d="m 1061.9495,153.37136 -113.13709,38.18376 15.55635,49.49748 -43.84062,46.66905"
       id="path4172"
       style="fill:none;stroke:#000000;stroke-width:1px;stroke-linecap:butt;stroke-linejoin:miter;stroke-opacity:1" />
    <path
       d="m 1689.0807,374.42518 -87.6813,36.76955 -79.1959,-29.69848 -76.3676,43.84062"
       id="path4175"
       style="fill:none;stroke:#000000;stroke-width:1px;stroke-linecap:butt;stroke-linejoin:miter;stroke-opacity:1" />
    <path
       d="m 1219.2287,682.39784 -83.4386,25.45584 -74.9533,-41.01219 -76.36754,12.72792"
       id="path4177"
       style="fill:none;stroke:#000000;stroke-width:1px;stroke-linecap:butt;stroke-linejoin:miter;stroke-opacity:1" />
    <path
       d="m 1029.8389,401.63839 -43.8406,45.25483 -46.6691,-62.2254 -52.3259,18.38478"
       id="path4179"
       style="fill:none;stroke:#000000;stroke-width:1px;stroke-linecap:butt;stroke-linejoin:miter;stroke-opacity:1" />
    <path
       d="m 285.87215,216.05765 62.2254,-19.79899 14.14213,-28.28427 106.06602,-45.25484 -53.74012,39.59798 9.8995,14.14214 -2.82843,41.01219 24.04163,4.24264"
       id="path4181"
       style="fill:none;stroke:#000000;stroke-width:1px;stroke-linecap:butt;stroke-linejoin:miter;stroke-opacity:1" />
    <path
       d="m 682.88138,135.34697 -24.04163,14.14214 8.48529,12.72792 -56.56855,31.1127 -1.41421,11.31371 -56.56854,25.45584"
       id="path4183"
       style="fill:none;stroke:#000000;stroke-width:1px;stroke-linecap:butt;stroke-linejoin:miter;stroke-opacity:1" />
    <path
       d="m 1336.4318,177.73175 -8.4853,-39.59798 59.397,-42.426409 -4.2426,29.698489 -24.0417,18.38477 14.1422,9.8995"
       id="path4185"
       style="fill:none;stroke:#000000;stroke-width:1px;stroke-linecap:butt;stroke-linejoin:miter;stroke-opacity:1" />
    <path
       d="m 1794.235,141.83225 19.799,70.71068 41.0122,16.97056 -29.6985,39.59798 -22.6274,77.78175 19.799,26.87006"
       id="path4187"
       style="fill:none;stroke:#000000;stroke-width:1px;stroke-linecap:butt;stroke-linejoin:miter;stroke-opacity:1" />
    <path
       d="m 495.66104,664.91465 -162.63456,42.4264 -24.04163,59.39697 -94.75231,22.62742"
       id="path4189"
       style="fill:none;stroke:#000000;stroke-width:1px;stroke-linecap:butt;stroke-linejoin:miter;stroke-opacity:1" />
    <path
       d="m 221.00209,530.19683 -48.08326,42.4264 -70.71068,-1.41421 -42.426404,48.08326"
       id="path4191"
       style="fill:none;stroke:#000000;stroke-width:1px;stroke-linecap:butt;stroke-linejoin:miter;stroke-opacity:1" />
    <path
       d="m 1735.6421,788.04459 -70.7107,15.55635 -83.4386,-57.98276 -59.397,18.38478"
       id="path4193"
       style="fill:none;stroke:#000000;stroke-width:1px;stroke-linecap:butt;stroke-linejoin:miter;stroke-opacity:1" />
    <path
       d="m 511.55043,699.7847 -16.42641,40.36754 30.56855,11.95837 -18.38478,82.02438"
       id="path4195"
       style="fill:none;stroke:#000000;stroke-width:1px;stroke-linecap:butt;stroke-linejoin:miter;stroke-opacity:1" />
    <path
       d="m 766,456 -58,62 14,26 -36,42"
       id="path4197"
       style="fill:none;stroke:#000000;stroke-width:1px;stroke-linecap:butt;stroke-linejoin:miter;stroke-opacity:1" />
    <path
       d="m 928,570 -80,2 -20,84 -82,38 26,-58 -38,-34 56,-64"
       id="path4199"
       style="fill:none;stroke:#000000;stroke-width:1px;stroke-linecap:butt;stroke-linejoin:miter;stroke-opacity:1" />
    <path
       d="m 1060,662 58,-38 -10,-62 48,-20"
       id="path4201"
       style="fill:none;stroke:#000000;stroke-width:1px;stroke-linecap:butt;stroke-linejoin:miter;stroke-opacity:1" />
    <path
       d="m 1252,424 -40,-46 66,-40"
       id="path4203"
       style="fill:none;stroke:#000000;stroke-width:1px;stroke-linecap:butt;stroke-linejoin:miter;stroke-opacity:1" />
    <path
       d="m 1336,928 46,-4 36,-54 38,-2"
       id="path4205"
       style="fill:none;stroke:#000000;stroke-width:1px;stroke-linecap:butt;stroke-linejoin:miter;stroke-opacity:1" />
    <path
       d="m 1218,836 -82,32 -4,32 -62,34"
       id="path4207"
       style="fill:none;stroke:#000000;stroke-width:1px;stroke-linecap:butt;stroke-linejoin:miter;stroke-opacity:1" />
    <path
       d="m 730,934 -98,40 -86,-28 -104,22"
       id="path4209"
       style="fill:none;stroke:#000000;stroke-width:1px;stroke-linecap:butt;stroke-linejoin:miter;stroke-opacity:1" />
    <path
       d="M 114.5513,155.10433 57.982756,183.3886 56.568542,211.67287 21.213203,232.88608"
       id="path4214"
       style="fill:none;stroke:#000000;stroke-width:1px;stroke-linecap:butt;stroke-linejoin:miter;stroke-opacity:1" />
    <path
       d="m 132.93607,114.09214 -73.5391,19.79899 -35.355339,-4.24264"
       id="path4221"
       style="fill:none;stroke:#000000;stroke-width:1px;stroke-linecap:butt;stroke-linejoin:miter;stroke-opacity:1" />
  </g>
</svg>
