<?xml version="1.0" encoding="UTF-8" standalone="no"?>
<!-- Created with Inkscape (http://www.inkscape.org/) -->

<svg
   xmlns:dc="http://purl.org/dc/elements/1.1/"
   xmlns:cc="http://creativecommons.org/ns#"
   xmlns:rdf="http://www.w3.org/1999/02/22-rdf-syntax-ns#"
   xmlns:svg="http://www.w3.org/2000/svg"
   xmlns="http://www.w3.org/2000/svg"
   version="1.1"
   width="1920"
   height="1080"
   id="svg2">
  <defs
     id="defs4">
    <filter
       x="-0.1204878"
       y="-0.11951613"
       width="1.2409756"
       height="1.2390323"
       color-interpolation-filters="sRGB"
       id="filter3964">
      <feGaussianBlur
         id="feGaussianBlur3966"
         stdDeviation="1.5594231" />
    </filter>
    <filter
       color-interpolation-filters="sRGB"
       id="filter4024">
      <feGaussianBlur
         id="feGaussianBlur4026"
         stdDeviation="0.62376923" />
    </filter>
    <filter
       color-interpolation-filters="sRGB"
       id="filter4044">
      <feGaussianBlur
         id="feGaussianBlur4046"
         stdDeviation="0.62376923" />
    </filter>
    <filter
       color-interpolation-filters="sRGB"
       id="filter4195">
      <feGaussianBlur
         id="feGaussianBlur4197"
         stdDeviation="1.4979688" />
    </filter>
  </defs>
  <metadata
     id="metadata7">
    <rdf:RDF>
      <cc:Work
         rdf:about="">
        <dc:format>image/svg+xml</dc:format>
        <dc:type
           rdf:resource="http://purl.org/dc/dcmitype/StillImage" />
        <dc:title></dc:title>
      </cc:Work>
    </rdf:RDF>
  </metadata>
  <path
     d="M 796.92617,544.71881 553.63218,880.81146 -127.87258,778.18931 202.86162,473.23761 z"
     id="path3380"
     style="fill:#de8787;fill-opacity:1;stroke:#000000;stroke-width:1px;stroke-linecap:butt;stroke-linejoin:bevel;stroke-opacity:1" />
  <path
     d="m 201.90999,421.3115 c 0,0 -553.28088,-65.8619 -553.28088,-65.8619 0,0 322.40419,-218.4032 322.40419,-218.4032 0,0 504.02503,31.9279 504.02503,31.9279 0,0 -273.14834,252.3372 -273.14834,252.3372"
     id="path12528"
     style="fill:#bd6d19;fill-opacity:1;stroke:#f7dc1f;stroke-width:10;stroke-linejoin:bevel;stroke-miterlimit:4;stroke-opacity:1;stroke-dasharray:none" />
  <path
     d="m 104.52203,409.7175 c 0,0 145.48116,-32.8265 145.48116,-32.8265 0,0 13.08574,-12.0888 13.08574,-12.0888 0,0 -165.04117,37.4558 -165.04117,37.4558 0,0 -23.32361,-27.0777 -23.32361,-27.0777 0,0 -3.10751,-3.6382 -3.10751,-3.6382 0,0 -10.01348,2.1516 -10.01348,2.1516 0,0 -94.25723,19.6946 -94.25723,19.6946 0,0 26.50608,3.1552 26.50608,3.1552 0,0 63.95161,-13.4025 63.95161,-13.4025 0,0 20.19272,23.4189 20.19272,23.4189 0,0 26.52569,3.1576 26.52569,3.1576 0,0 0,0 0,0 m -221.33992,-26.348 c 0,0 -71.0947,-86.5417 -71.0947,-86.5417 0,0 158.98772,-32.5872 158.98772,-32.5872 0,0 10.01282,-2.152 10.01282,-2.152 0,0 -2.65814,-3.3331 -2.65814,-3.3331 0,0 -39.79944,-50.9729 -39.79944,-50.9729 0,0 63.23176,-13.9251 63.23176,-13.9251 0,0 18.19462,23.5708 18.19462,23.5708 0,0 2.53249,3.2421 2.53249,3.2421 0,0 9.89043,-2.2252 9.89043,-2.2252 0,0 153.65268,-36.2627 153.65268,-36.2627 0,0 89.8319,110.4597 89.8319,110.4597 0,0 2.99393,3.5755 2.99393,3.5755 0,0 9.6646,-2.3963 9.6646,-2.3963 0,0 70.6531,-17.8781 70.6531,-17.8781 0,0 13.08574,-12.0888 13.08574,-12.0888 0,0 -80.0817,20.437 -80.0817,20.437 0,0 -89.35607,-110.143 -89.35607,-110.143 0,0 -2.52584,-3.2419 -2.52584,-3.2419 0,0 -9.65127,2.4055 -9.65127,2.4055 0,0 -153.43077,36.4156 -153.43077,36.4156 0,0 -15.68705,-20.3304 -15.68705,-20.3304 0,0 72.25529,-16.7476 72.25529,-16.7476 0,0 9.78733,-2.3229 9.78733,-2.3229 0,0 -2.43265,-3.1622 -2.43265,-3.1622 0,0 -17.33839,-22.9654 -17.33839,-22.9654 0,0 -24.12872,-1.5285 -24.12872,-1.5285 0,0 19.51743,25.9639 19.51743,25.9639 0,0 -145.49247,32.8344 -145.49247,32.8344 0,0 -10.01243,2.1523 -10.01243,2.1523 0,0 -73.98937,15.5529 -73.98937,15.5529 0,0 -15.4455,10.4631 -15.4455,10.4631 0,0 84.249,-17.5505 84.249,-17.5505 0,0 37.16327,47.6594 37.16327,47.6594 0,0 -148.94973,30.4369 -148.94973,30.4369 0,0 -10.25996,1.9974 -10.25996,1.9974 0,0 -75.72359,14.3581 -75.72359,14.3581 0,0 -15.4455,10.4631 -15.4455,10.4631 0,0 86.21955,-16.1929 86.21955,-16.1929 0,0 65.09297,79.4078 65.09297,79.4078 0,0 26.48666,3.1529 26.48666,3.1529 0,0 0,0 0,0 M 413.89295,225.4872 c 0,0 13.08574,-12.0888 13.08574,-12.0888 0,0 -40.66061,-50.0422 -40.66061,-50.0422 0,0 -24.12872,-1.5284 -24.12872,-1.5284 0,0 51.70359,63.6594 51.70359,63.6594 0,0 0,0 0,0"
     id="path12530"
     style="fill:#f7dd1f;fill-opacity:1;stroke:none" />
  <path
     d="m 95.66057,408.6626 c 0,0 158.71738,-35.8131 158.71738,-35.8131 0,0 4.35549,-4.0236 4.35549,-4.0236 0,0 -165.2277,37.3539 -165.2277,37.3539 0,0 -25.44279,-29.5625 -25.44279,-29.5625 0,0 -1.03743,-1.2139 -1.03743,-1.2139 0,0 -3.35222,0.7147 -3.35222,0.7147 0,0 -87.48551,18.3227 -87.48551,18.3227 0,0 8.84185,1.0525 8.84185,1.0525 0,0 77.39461,-16.22 77.39461,-16.22 0,0 24.41395,28.3391 24.41395,28.3391 0,0 8.82237,1.0502 8.82237,1.0502 0,0 0,0 0,0 M -125.65981,382.317 c 0,0 -70.83952,-86.3771 -70.83952,-86.3771 0,0 165.80607,-33.9158 165.80607,-33.9158 0,0 3.33293,-0.7169 3.33293,-0.7169 0,0 -0.88185,-1.1067 -0.88185,-1.1067 0,0 -41.41829,-53.0908 -41.41829,-53.0908 0,0 76.48831,-16.8444 76.48831,-16.8444 0,0 19.82405,25.6806 19.82405,25.6806 0,0 0.84264,1.0796 0.84264,1.0796 0,0 3.29528,-0.7428 3.29528,-0.7428 0,0 160.10126,-37.8616 160.10126,-37.8616 0,0 91.51124,112.6304 91.51124,112.6304 0,0 0.99972,1.1879 0.99972,1.1879 0,0 3.21674,-0.7969 3.21674,-0.7969 0,0 77.0126,-19.5229 77.0126,-19.5229 0,0 4.35549,-4.0236 4.35549,-4.0236 0,0 -80.15079,20.3738 -80.15079,20.3738 0,0 -91.35578,-112.5233 -91.35578,-112.5233 0,0 -0.841,-1.0785 -0.841,-1.0785 0,0 -3.21518,0.798 -3.21518,0.798 0,0 -160.01343,37.9066 -160.01343,37.9066 0,0 -18.9758,-24.5926 -18.9758,-24.5926 0,0 78.84886,-18.2467 78.84886,-18.2467 0,0 3.25438,-0.771 3.25438,-0.771 0,0 -0.8033,-1.0526 -0.8033,-1.0526 0,0 -18.87129,-25.0197 -18.87129,-25.0197 0,0 -8.03697,-0.5091 -8.03697,-0.5091 0,0 19.59607,26.0182 19.59607,26.0182 0,0 -158.68826,35.8065 -158.68826,35.8065 0,0 -3.33292,0.7169 -3.33292,0.7169 0,0 -80.7588,16.942 -80.7588,16.942 0,0 -5.15229,3.4902 -5.15229,3.4902 0,0 84.17045,-17.6046 84.17045,-17.6046 0,0 40.54919,51.9775 40.54919,51.9775 0,0 -162.47158,33.2 -162.47158,33.2 0,0 -3.41147,0.6628 -3.41147,0.6628 0,0 -82.65081,15.6385 -82.65081,15.6385 0,0 -5.15229,3.4902 -5.15229,3.4902 0,0 86.1522,-16.2548 86.1522,-16.2548 0,0 68.84177,84.0025 68.84177,84.0025 0,0 8.82237,1.0502 8.82237,1.0502 0,0 0,0 0,0 M 418.24844,221.4636 c 0,0 4.36513,-4.0326 4.36513,-4.0326 0,0 -44.33246,-54.5839 -44.33246,-54.5839 0,0 -8.05478,-0.5102 -8.05478,-0.5102 0,0 48.02211,59.1267 48.02211,59.1267 0,0 0,0 0,0"
     id="path12532"
     style="fill:#d6870d;fill-opacity:1;stroke:none" />
  <path
     d="m 1551.0143,238.76403 -19.9976,-272.138761 83.647,-238.567919 21.2006,268.5738267 z"
     id="path3368"
     style="fill:#7d3f12;fill-opacity:1;stroke:#f7dc1f;stroke-width:10;stroke-linecap:butt;stroke-linejoin:bevel;stroke-miterlimit:4;stroke-opacity:1;stroke-dasharray:none" />
  <path
     d="m 195.67064,377.42966 7.19098,95.80795 593.43138,71.40501 -7.07471,-95.30082 z"
     id="path3384"
     style="fill:#8e5213;fill-opacity:1;stroke:#f7dc1f;stroke-width:10;stroke-linecap:butt;stroke-linejoin:bevel;stroke-miterlimit:4;stroke-opacity:1;stroke-dasharray:none" />
  <path
     d="M 549.91507,828.56461 793.56942,493.42316 1434.4239,571.47332 1305.0523,942.15247 z"
     id="path3376"
     style="fill:#ffd5d5;fill-opacity:1;stroke:#000000;stroke-width:1px;stroke-linecap:butt;stroke-linejoin:bevel;stroke-opacity:1" />
  <rect
     width="168.21263"
     height="123.42223"
     x="-94.557388"
     y="-83.553543"
     id="rect3836"
     style="fill:#bd6d19;fill-opacity:1;stroke:#f7dc1f;stroke-width:10;stroke-linecap:butt;stroke-linejoin:bevel;stroke-miterlimit:4;stroke-opacity:1;stroke-dasharray:none" />
  <path
     d="m -35.951957,40.223021 502.429587,32.62652 184.73629,-170.153472 -485.02264,0.0024 z"
     id="path3410"
     style="fill:#d48c20;fill-opacity:1;stroke:#f7dc1f;stroke-width:10;stroke-linecap:butt;stroke-linejoin:bevel;stroke-miterlimit:4;stroke-opacity:1;stroke-dasharray:none" />
  <path
     d="m 468.72389,95.109692 528.59957,34.012818 5.11374,73.8425 -527.96629,-34.10833 z"
     id="path3422"
     style="fill:#8e5213;fill-opacity:1;stroke:#f7dc1f;stroke-width:10;stroke-linecap:butt;stroke-linejoin:bevel;stroke-miterlimit:4;stroke-opacity:1;stroke-dasharray:none" />
  <path
     d="m 469.46587,94.93614 527.82683,34.22897 146.7772,-203.255252 -490.95848,0.468353 z"
     id="path3418"
     style="fill:#d48c20;fill-opacity:1;stroke:#f7dc1f;stroke-width:10;stroke-linecap:butt;stroke-linejoin:bevel;stroke-miterlimit:4;stroke-opacity:1;stroke-dasharray:none" />
  <path
     d="m 1530.9848,-33.81405 c 0,0 19.7245,271.98221 19.7245,271.98221 0,0 -549.045,-34.1327 -549.045,-34.1327 0,0 -19.22218,-273.07725 -19.22218,-273.07725 0,0 548.54268,35.22774 548.54268,35.22774 0,0 0,0 0,0"
     id="path15955"
     style="fill:#8e5213;fill-opacity:1;stroke:#f7dc1f;stroke-width:10;stroke-linejoin:bevel;stroke-miterlimit:4;stroke-opacity:1;stroke-dasharray:none" />
  <path
     d="m 1501.4165,-35.71294 c 0,0 31.7934,32.58098 31.7934,32.58098 0,0 1.9775,27.2685 1.9775,27.2685 0,0 -58.9901,-60.46933 -58.9901,-60.46933 0,0 -197.0244,207.62547 -197.0244,207.62547 0,0 -6.0954,6.4291 -6.0954,6.4291 0,0 -7.0537,-7.25152 -7.0537,-7.25152 0,0 -110.8412,-113.78329 -110.8412,-113.78329 0,0 -38.6593,40.78336 -38.6593,40.78336 0,0 51.8761,53.2827 51.8761,53.2827 0,0 7.0705,7.25822 7.0705,7.25822 0,0 -6.0991,6.4138 -6.0991,6.4138 0,0 -44.7553,47.23391 -44.7553,47.23391 0,0 -26.2834,-1.634 -26.2834,-1.634 0,0 50.8401,-53.65986 50.8401,-53.65986 0,0 -103.7328,-106.63072 -103.7328,-106.63072 0,0 -7.0641,-7.24906 -7.0641,-7.24906 0,0 -51.83897,-53.36338 -51.83897,-53.36338 0,0 -1.92718,-27.37828 -1.92718,-27.37828 0,0 58.89945,60.64357 58.89945,60.64357 0,0 78.1833,-82.48632 78.1833,-82.48632 0,0 26.2786,1.68763 26.2786,1.68763 0,0 -90.352,95.3164 -90.352,95.3164 0,0 44.8106,46.08002 44.8106,46.08002 0,0 44.7354,-47.21367 44.7354,-47.21367 0,0 6.0773,-6.40953 6.0773,-6.40953 0,0 7.0469,7.24301 7.0469,7.24301 0,0 110.8364,113.79361 110.8364,113.79361 0,0 179.7079,-189.35983 179.7079,-189.35983 0,0 50.5835,3.24851 50.5835,3.24851 0,0 0,0 0,0 m 40.0472,146.39384 c 0,0 1.9776,27.2685 1.9776,27.2685 0,0 -89.4027,94.18896 -89.4027,94.18896 0,0 -26.2834,-1.6339 -26.2834,-1.6339 0,0 113.7085,-119.82356 113.7085,-119.82356 0,0 0,0 0,0"
     id="path15957"
     style="fill:#f7dd1f;fill-opacity:1;stroke:none" />
  <path
     d="m 1492.6698,-36.27466 c 0,0 41.1983,42.21881 41.1983,42.21881 0,0 0.6582,9.07611 0.6582,9.07611 0,0 -50.6031,-51.85663 -50.6031,-51.85663 0,0 8.7466,0.56171 8.7466,0.56171 0,0 0,0 0,0 m -24.3435,-1.56336 c 0,0 -193.8743,204.30864 -193.8743,204.30864 0,0 -2.0258,2.13665 -2.0258,2.13665 0,0 -2.3507,-2.41053 -2.3507,-2.41053 0,0 -115.5394,-118.61146 -115.5394,-118.61146 0,0 -46.7641,49.33348 -46.7641,49.33348 0,0 56.5757,58.13101 56.5757,58.13101 0,0 2.3498,2.41236 2.3498,2.41236 0,0 -2.0266,2.13841 -2.0266,2.13841 0,0 -48.8101,51.51412 -48.8101,51.51412 0,0 -8.7547,-0.5442 -8.7547,-0.5442 0,0 50.8385,-53.65624 50.8385,-53.65624 0,0 -113.1483,-116.28884 -113.1483,-116.28884 0,0 -2.3482,-2.41602 -2.3482,-2.41602 0,0 -56.55464,-58.22023 -56.55464,-58.22023 0,0 -0.64286,-9.13282 -0.64286,-9.13282 0,0 58.9011,60.63992 58.9011,60.63992 0,0 86.3062,-91.03236 86.3062,-91.03236 0,0 8.7466,0.56172 8.7466,0.56172 0,0 -90.355,95.3229 -90.355,95.3229 0,0 54.2051,55.7406 54.2051,55.7406 0,0 48.8079,-51.48905 48.8079,-51.48905 0,0 2.0257,-2.13659 2.0257,-2.13659 0,0 2.349,2.41427 2.349,2.41427 0,0 115.5392,118.63517 115.5392,118.63517 0,0 187.8032,-197.91262 187.8032,-197.91262 0,0 8.7467,0.56171 8.7467,0.56171 0,0 0,0 0,0 m 73.7957,157.59503 c 0,0 0.6596,9.0962 0.6596,9.0962 0,0 -97.4977,102.74095 -97.4977,102.74095 0,0 -8.774,-0.5455 -8.774,-0.5455 0,0 105.6121,-111.29165 105.6121,-111.29165 0,0 0,0 0,0"
     id="path15959"
     style="fill:#d6870d;fill-opacity:1;stroke:none" />
  <path
     d="m 1541.8112,132.33121 21.7815,268.20597 -116.2153,333.05351 -22.2451,-268.22088 z"
     id="path3374"
     style="fill:#d35f5f;fill-opacity:1;stroke:#000000;stroke-width:1px;stroke-linecap:butt;stroke-linejoin:bevel;stroke-opacity:1" />
  <path
     d="m 469.46587,94.93614 -2.98824,-22.086599 92.31702,-85.029644 27.3068,0.063 z"
     id="path3420"
     style="fill:#7d3f12;fill-opacity:1;stroke:#f7dc1f;stroke-width:10;stroke-linecap:butt;stroke-linejoin:bevel;stroke-miterlimit:4;stroke-opacity:1;stroke-dasharray:none" />
  <path
     d="m -28.287795,137.45594 -8.05309,-96.987162 503.261815,31.972457 7.6691,96.422885 z"
     id="path3412"
     style="fill:#8e5213;fill-opacity:1;stroke:#f7dc1f;stroke-width:10;stroke-linecap:butt;stroke-linejoin:bevel;stroke-miterlimit:4;stroke-opacity:1;stroke-dasharray:none" />
  <path
     d="M 196.13048,376.52464 469.94999,124.45172 988.7909,157.27869 789.09242,449.53356 z"
     id="path3394"
     style="fill:#ffd5d5;fill-opacity:1;stroke:#000000;stroke-width:1px;stroke-linecap:butt;stroke-linejoin:bevel;stroke-opacity:1" />
  <path
     d="M 785.17264,387.73831 994.17515,98.31422 1542.9969,132.75933 1426.7624,465.56755 z"
     id="path3370"
     style="fill:#ffd5d5;fill-opacity:1;stroke:#000000;stroke-width:1px;stroke-linecap:butt;stroke-linejoin:bevel;stroke-opacity:1" />
  <path
     d="m 1547.5032,192.22743 470.8662,30.28963 -12.9049,-366.479 -364.4958,69.975827 z"
     id="path3424"
     style="fill:#d48c20;fill-opacity:1;stroke:#f7dc1f;stroke-width:10;stroke-linecap:butt;stroke-linejoin:bevel;stroke-miterlimit:4;stroke-opacity:1;stroke-dasharray:none" />
  <path
     d="M 1427.0155,464.84294 1450.276,777.3583"
     id="path3428"
     style="fill:none;stroke:#000000;stroke-width:1px;stroke-linecap:butt;stroke-linejoin:bevel;stroke-opacity:1" />
  <path
     d="m 1305.4841,965.20313 -57.1092,161.95347 723.3322,4.4708 21.3702,-63.4611 z"
     id="path3436"
     style="fill:#bd6d19;fill-opacity:1;stroke:#f8db37;stroke-width:10;stroke-linecap:butt;stroke-linejoin:bevel;stroke-miterlimit:4;stroke-opacity:1;stroke-dasharray:none" />
  <path
     d="m 1304.5846,942.64574 -55.549,158.01296 8.4004,0.8019 48.0128,-136.15744 z"
     id="path3440"
     style="fill:#d35f5f;fill-opacity:1;stroke:#f8db37;stroke-width:10;stroke-linecap:butt;stroke-linejoin:bevel;stroke-miterlimit:4;stroke-opacity:1;stroke-dasharray:none" />
  <path
     d="m 796.92249,544.72389 c 0,0 -243.28938,336.08628 -243.28938,336.08628 0,0 -681.50442,-102.62203 -681.50442,-102.62203 0,0 330.72793,-304.94592 330.72793,-304.94592 0,0 594.06587,71.48167 594.06587,71.48167"
     id="path7592"
     style="fill:#bd6d19;fill-opacity:1;stroke:#f7dc1f;stroke-width:10;stroke-linejoin:bevel;stroke-miterlimit:4;stroke-opacity:1;stroke-dasharray:none" />
  <path
     d="m 705.43225,671.10747 c 0,0 -99.24494,-113.36814 -99.24494,-113.36814 0,0 86.1599,-25.60405 86.1599,-25.60405 0,0 -28.45998,-3.42447 -28.45998,-3.42447 0,0 -65.68339,19.415 -65.68339,19.415 0,0 -24.68439,-30.28856 -24.68439,-30.28856 0,0 -28.45998,-3.42446 -28.45998,-3.42446 0,0 101.99433,121.12754 101.99433,121.12754 0,0 -156.66247,43.28785 -156.66247,43.28785 0,0 -154.48548,-189.58194 -154.48548,-189.58194 0,0 -28.45998,-3.42446 -28.45998,-3.42446 0,0 59.24035,77.6234 59.24035,77.6234 0,0 -69.6737,17.99389 -69.6737,17.99389 0,0 -26.93417,-34.46999 -26.93417,-34.46999 0,0 -3.55507,-4.64625 -3.55507,-4.64625 0,0 -11.04721,2.79649 -11.04721,2.79649 0,0 -176.980495,42.79762 -176.980495,42.79762 0,0 -15.832516,14.59835 -15.832516,14.59835 0,0 188.864791,-45.29593 188.864791,-45.29593 0,0 27.10777,34.5467 27.10777,34.5467 0,0 3.81119,4.73252 3.81119,4.73252 0,0 11.07226,-2.78756 11.07226,-2.78756 0,0 80.74287,-20.78755 80.74287,-20.78755 0,0 131.90156,153.25627 131.90156,153.25627 0,0 -174.08619,43.8283 -174.08619,43.8283 0,0 -11.2913,2.72449 -11.2913,2.72449 0,0 4.60075,5.0187 4.60075,5.0187 0,0 75.62451,80.07831 75.62451,80.07831 0,0 32.649,4.91635 32.649,4.91635 0,0 -81.05328,-85.4068 -81.05328,-85.4068 0,0 173.6598,-43.96032 173.6598,-43.96032 0,0 10.87008,-2.87945 10.87008,-2.87945 0,0 -4.64857,-5.03079 -4.64857,-5.03079 0,0 -33.27569,-36.72845 -33.27569,-36.72845 0,0 156.64947,-43.30244 156.64947,-43.30244 0,0 37.91486,41.77074 37.91486,41.77074 0,0 11.65531,-16.10091 11.65531,-16.10091 0,0 0,0 0,0 M 161.04834,821.69552 c 0,0 -112.483498,-128.23335 -112.483498,-128.23335 0,0 -3.985063,-4.80938 -3.985063,-4.80938 0,0 -11.686043,2.58391 -11.686043,2.58391 0,0 -86.693725,18.66321 -86.693725,18.66321 0,0 -15.832553,14.59839 -15.832553,14.59839 0,0 98.786954,-21.08727 98.786954,-21.08727 0,0 99.244928,113.36814 99.244928,113.36814 0,0 32.649,4.91635 32.649,4.91635 0,0 0,0 0,0"
     id="path7455"
     style="fill:#f7dc1f;fill-opacity:1;stroke:none" />
  <path
     d="m 701.54429,676.47839 c 0,0 -104.99038,-119.93116 -104.99038,-119.93116 0,0 86.32061,-25.55176 86.32061,-25.55176 0,0 -9.49364,-1.14233 -9.49364,-1.14233 0,0 -79.4842,23.4943 -79.4842,23.4943 0,0 -29.87087,-36.65252 -29.87087,-36.65252 0,0 -9.47269,-1.1398 -9.47269,-1.1398 0,0 102.4006,121.26228 102.4006,121.26228 0,0 -170.86959,47.23244 -170.86959,47.23244 0,0 -159.69288,-195.94845 -159.69288,-195.94845 0,0 -9.47269,-1.13981 -9.47269,-1.13981 0,0 59.53032,77.73662 59.53032,77.73662 0,0 -84.30248,21.76342 -84.30248,21.76342 0,0 -29.44115,-37.61622 -29.44115,-37.61622 0,0 -1.17676,-1.56072 -1.17676,-1.56072 0,0 -3.69625,0.94215 -3.69625,0.94215 0,0 -184.621936,44.56338 -184.621936,44.56338 0,0 -5.273622,4.86254 -5.273622,4.86254 0,0 188.585958,-45.39524 188.585958,-45.39524 0,0 29.49733,37.65112 29.49733,37.65112 0,0 1.28219,1.57844 1.28219,1.57844 0,0 3.68799,-0.9302 3.68799,-0.9302 0,0 87.97651,-22.70849 87.97651,-22.70849 0,0 137.5289,159.77228 137.5289,159.77228 0,0 -181.35391,45.7322 -181.35391,45.7322 0,0 -3.7675,0.91673 -3.7675,0.91673 0,0 1.53635,1.67391 1.53635,1.67391 0,0 78.96775,83.52241 78.96775,83.52241 0,0 10.91505,1.64361 10.91505,1.64361 0,0 -80.79782,-85.31087 -80.79782,-85.31087 0,0 181.19386,-45.78426 181.19386,-45.78426 0,0 3.61547,-0.95599 3.61547,-0.95599 0,0 -1.53913,-1.67489 -1.53913,-1.67489 0,0 -36.24542,-40.0346 -36.24542,-40.0346 0,0 170.88256,-47.21783 170.88256,-47.21783 0,0 37.76208,41.70639 37.76208,41.70639 0,0 3.87939,-5.35908 3.87939,-5.35908 0,0 0,0 0,0 M 150.18137,820.05915 c 0,0 -109.419915,-124.88395 -109.419915,-124.88395 0,0 -1.327245,-1.59938 -1.327245,-1.59938 0,0 -3.894322,0.85667 -3.894322,0.85667 0,0 -94.6135,20.32996 -94.6135,20.32996 0,0 -5.273622,4.86254 -5.273622,4.86254 0,0 98.647216,-21.13699 98.647216,-21.13699 0,0 104.990378,119.93116 104.990378,119.93116 0,0 10.89101,1.63999 10.89101,1.63999 0,0 0,0 0,0"
     id="path7589"
     style="fill:#d6870d;fill-opacity:1;stroke:none" />
  <path
     d="m 1447.2724,733.9592 c 0,0 677.2182,82.0032 677.2182,82.0032 0,0 13.2709,-378.1747 13.2709,-378.1747 0,0 -573.8595,-36.6544 -573.8595,-36.6544 0,0 -116.6296,332.8259 -116.6296,332.8259"
     id="path7466"
     style="fill:#bd6d19;fill-opacity:1;stroke:#f7dc1f;stroke-width:10;stroke-linejoin:bevel;stroke-miterlimit:4;stroke-opacity:1;stroke-dasharray:none" />
  <path
     d="m 1566.4773,748.3923 c 0,0 -98.6834,-73.0248 -98.6834,-73.0248 0,0 5.5875,-15.9447 5.5875,-15.9447 0,0 111.6164,82.7441 111.6164,82.7441 0,0 67.0584,-23.3193 67.0584,-23.3193 0,0 8.9846,-3.2231 8.9846,-3.2231 0,0 6.96,5.0657 6.96,5.0657 0,0 66.3806,48.0333 66.3806,48.0333 0,0 -32.4435,-3.9286 -32.4435,-3.9286 0,0 -44.9755,-32.5711 -44.9755,-32.5711 0,0 -58.0175,20.0999 -58.0175,20.0999 0,0 -32.4676,-3.9314 -32.4676,-3.9314 0,0 0,0 0,0 m 270.9209,32.8053 c 0,0 210.9909,-87.1662 210.9909,-87.1662 0,0 -112.9491,-81.3093 -112.9491,-81.3093 0,0 -6.9587,-5.0651 -6.9587,-5.0651 0,0 8.049,-3.6547 8.049,-3.6547 0,0 122.2698,-59.0001 122.2698,-59.0001 0,0 -43.4236,-31.8962 -43.4236,-31.8962 0,0 -56.3371,28.0294 -56.3371,28.0294 0,0 -7.778,3.7524 -7.778,3.7524 0,0 -6.719,-4.9675 -6.719,-4.9675 0,0 -101.7538,-76.3974 -101.7538,-76.3974 0,0 -268.4252,114.7082 -268.4252,114.7082 0,0 -8.7706,3.3304 -8.7706,3.3304 0,0 -6.2207,-4.7625 -6.2207,-4.7625 0,0 -44.9199,-34.5782 -44.9199,-34.5782 0,0 5.5874,-15.9447 5.5874,-15.9447 0,0 50.6455,39.1234 50.6455,39.1234 0,0 267.4437,-115.1312 267.4437,-115.1312 0,0 7.7713,-3.7765 7.7713,-3.7765 0,0 6.1927,4.7502 6.1927,4.7502 0,0 101.2883,76.1931 101.2883,76.1931 0,0 48.5871,-24.2511 48.5871,-24.2511 0,0 -48.3234,-36.0656 -48.3234,-36.0656 0,0 -6.4611,-4.8603 -6.4611,-4.8603 0,0 7.5514,-3.8595 7.5514,-3.8595 0,0 54.5161,-28.8147 54.5161,-28.8147 0,0 27.4719,1.7548 27.4719,1.7548 0,0 -61.5524,32.8926 -61.5524,32.8926 0,0 98.6828,73.038 98.6828,73.038 0,0 6.9578,5.0647 6.9578,5.0647 0,0 51.9622,37.6621 51.9622,37.6621 0,0 -0.6358,18.1173 -0.6358,18.1173 0,0 -59.4144,-42.9573 -59.4144,-42.9573 0,0 -114.2742,55.3432 -114.2742,55.3432 0,0 105.9618,76.2181 105.9618,76.2181 0,0 7.4529,5.2955 7.4529,5.2955 0,0 55.6013,39.2587 55.6013,39.2587 0,0 -0.6358,18.1173 -0.6358,18.1173 0,0 -63.5494,-44.7715 -63.5494,-44.7715 0,0 -193.4619,80.5058 -193.4619,80.5058 0,0 -32.4198,-3.9256 -32.4198,-3.9256 0,0 0,0 0,0 M 1537.7731,475.6709 c 0,0 5.5874,-15.9447 5.5874,-15.9447 0,0 121.5718,-52.1354 121.5718,-52.1354 0,0 27.4718,1.7547 27.4718,1.7547 0,0 -154.631,66.3254 -154.631,66.3254 0,0 0,0 0,0"
     id="path7468"
     style="fill:#f7dd1f;fill-opacity:1;stroke:none" />
  <path
     d="m 1577.3238,749.7057 c 0,0 -107.6619,-79.6687 -107.6619,-79.6687 0,0 1.8597,-5.3071 1.8597,-5.3071 0,0 111.9665,82.9037 111.9665,82.9037 0,0 73.1892,-25.4121 73.1892,-25.4121 0,0 2.9982,-1.073 2.9982,-1.073 0,0 2.3389,1.6919 2.3389,1.6919 0,0 61.5445,44.5726 61.5445,44.5726 0,0 -10.8224,-1.3105 -10.8224,-1.3105 0,0 -54.4294,-39.4177 -54.4294,-39.4177 0,0 -70.1847,24.3284 -70.1847,24.3284 0,0 -10.7986,-1.3075 -10.7986,-1.3075 0,0 0,0 0,0 m 270.897,32.8024 c 0,0 210.4724,-87.386 210.4724,-87.386 0,0 -117.8998,-84.8279 -117.8998,-84.8279 0,0 -2.3155,-1.6891 -2.3155,-1.6891 0,0 2.6718,-1.2161 2.6718,-1.2161 0,0 127.3166,-61.5836 127.3166,-61.5836 0,0 -52.5275,-38.5833 -52.5275,-38.5833 0,0 -61.382,30.6001 -61.382,30.6001 0,0 -2.5894,1.2523 -2.5894,1.2523 0,0 -2.2364,-1.6544 -2.2364,-1.6544 0,0 -105.9045,-79.5784 -105.9045,-79.5784 0,0 -273.616,117.2209 -273.616,117.2209 0,0 -2.919,1.1076 -2.919,1.1076 0,0 -2.0716,-1.5821 -2.0716,-1.5821 0,0 -48.908,-37.6744 -48.908,-37.6744 0,0 1.8598,-5.3071 1.8598,-5.3071 0,0 50.8147,39.1842 50.8147,39.1842 0,0 273.2897,-117.3641 273.2897,-117.3641 0,0 2.5861,-1.2537 2.5861,-1.2537 0,0 2.0683,1.5807 2.0683,1.5807 0,0 105.7445,79.4947 105.7445,79.4947 0,0 58.7734,-29.3353 58.7734,-29.3353 0,0 -52.7782,-39.38 -52.7782,-39.38 0,0 -2.1506,-1.6168 -2.1506,-1.6168 0,0 2.5069,-1.2884 2.5069,-1.2884 0,0 59.3753,-31.4595 59.3753,-31.4595 0,0 9.1505,0.5845 9.1505,0.5845 0,0 -61.7174,32.8202 -61.7174,32.8202 0,0 107.6421,79.654 107.6421,79.654 0,0 2.3155,1.6891 2.3155,1.6891 0,0 56.7689,41.1234 56.7689,41.1234 0,0 -0.2121,6.0436 -0.2121,6.0436 0,0 -59.2496,-42.885 -59.2496,-42.885 0,0 -124.6472,60.353 -124.6472,60.353 0,0 115.5811,83.1372 115.5811,83.1372 0,0 2.4803,1.7615 2.4803,1.7615 0,0 60.7391,42.8653 60.7391,42.8653 0,0 -0.2121,6.0435 -0.2121,6.0435 0,0 -63.3837,-44.7124 -63.3837,-44.7124 0,0 -204.6378,85.1694 -204.6378,85.1694 0,0 -10.7986,-1.3076 -10.7986,-1.3076 0,0 0,0 0,0 m -308.588,-312.1443 c 0,0 1.8639,-5.3188 1.8639,-5.3188 0,0 132.5861,-56.8697 132.5861,-56.8697 0,0 9.1708,0.5858 9.1708,0.5858 0,0 -143.6208,61.6027 -143.6208,61.6027 0,0 0,0 0,0"
     id="path7470"
     style="fill:#d6870d;fill-opacity:1;stroke:none" />
  <path
     d="m 196.1347,376.5208 c 0,0 273.8143,-252.0681 273.8143,-252.0681 0,0 518.8412,32.8271 518.8412,32.8271 0,0 -199.6947,292.2493 -199.6947,292.2493 0,0 -592.9608,-73.0083 -592.9608,-73.0083"
     id="path9222"
     style="fill:#d48c20;fill-opacity:1;stroke:#f7dc1f;stroke-width:10;stroke-linejoin:bevel;stroke-miterlimit:4;stroke-opacity:1;stroke-dasharray:none" />
  <path
     d="m 244.3338,332.1518 c 0,0 56.1816,57.2253 56.1816,57.2253 0,0 28.4071,3.4977 28.4071,3.4977 0,0 -64.1814,-65.2046 -64.1814,-65.2046 0,0 74.2661,-16.8728 74.2661,-16.8728 0,0 10.0008,-2.3394 10.0008,-2.3394 0,0 -3.6407,-3.8063 -3.6407,-3.8063 0,0 -33.1462,-34.9957 -33.1462,-34.9957 0,0 -13.1176,12.0758 -13.1176,12.0758 0,0 22.5721,23.7971 22.5721,23.7971 0,0 -64.2145,14.5381 -64.2145,14.5381 0,0 -13.1273,12.0848 -13.1273,12.0848 0,0 0,0 0,0 M 353.8731,231.3119 c 0,0 240.5539,-64.2789 240.5539,-64.2789 0,0 54.6014,58.1925 54.6014,58.1925 0,0 3.6417,3.8069 3.6417,3.8069 0,0 9.3403,-2.7203 9.3403,-2.7203 0,0 143.6272,-44.146 143.6272,-44.146 0,0 23.7105,24.4194 23.7105,24.4194 0,0 -66.6032,21.0217 -66.6032,21.0217 0,0 -9.1355,2.8084 -9.1355,2.8084 0,0 3.8061,3.8818 3.8061,3.8818 0,0 62.6296,62.5449 62.6296,62.5449 0,0 -307.9185,84.8931 -307.9185,84.8931 0,0 -9.8653,2.4216 -9.8653,2.4216 0,0 4.1813,4.0765 4.1813,4.0765 0,0 31.2872,30.3508 31.2872,30.3508 0,0 28.4071,3.4977 28.4071,3.4977 0,0 -35.8236,-34.6199 -35.8236,-34.6199 0,0 307.2222,-85.2565 307.2222,-85.2565 0,0 9.1412,-2.8282 9.1412,-2.8282 0,0 -4.2015,-4.0875 -4.2015,-4.0875 0,0 -62.9634,-62.7258 -62.9634,-62.7258 0,0 57.4697,-18.2033 57.4697,-18.2033 0,0 28.8211,29.0085 28.8211,29.0085 0,0 4.0164,4.0013 4.0164,4.0013 0,0 8.9656,-2.9147 8.9656,-2.9147 0,0 65.2793,-21.7305 65.2793,-21.7305 0,0 9.5599,-13.9905 9.5599,-13.9905 0,0 -73.8829,24.8274 -73.8829,24.8274 0,0 -56.2001,-57.2267 -56.2001,-57.2267 0,0 -3.6423,-3.8072 -3.6423,-3.8072 0,0 -26.2116,-27.5939 -26.2116,-27.5939 0,0 -24.8563,-1.5727 -24.8563,-1.5727 0,0 29.5174,31.21 29.5174,31.21 0,0 -134.3357,41.4223 -134.3357,41.4223 0,0 -50.9622,-54.396 -50.9622,-54.396 0,0 -3.3052,-3.6157 -3.3052,-3.6157 0,0 -23.602,-26.1792 -23.602,-26.1792 0,0 -24.8563,-1.5726 -24.8563,-1.5726 0,0 26.5521,29.6024 26.5521,29.6024 0,0 -220.8576,59.4119 -220.8576,59.4119 0,0 -13.108,12.067 -13.108,12.067 0,0 0,0 0,0 m 302.4221,201.8709 c 0,0 28.4071,3.4976 28.4071,3.4976 0,0 139.5434,-38.6044 139.5434,-38.6044 0,0 9.5598,-13.9905 9.5598,-13.9905 0,0 -177.5103,49.0973 -177.5103,49.0973 0,0 0,0 0,0"
     id="path9224"
     style="fill:#f7dd1f;fill-opacity:1;stroke:none" />
  <path
     d="m 248.7192,328.1146 c 0,0 61.2931,62.4318 61.2931,62.4318 0,0 9.4551,1.1642 9.4551,1.1642 0,0 -63.9558,-65.0876 -63.9558,-65.0876 0,0 81.0599,-18.3584 81.0599,-18.3584 0,0 3.336,-0.7785 3.336,-0.7785 0,0 -1.205,-1.2735 -1.205,-1.2735 0,0 -30.8572,-32.5284 -30.8572,-32.5284 0,0 -4.3757,4.0283 -4.3757,4.0283 0,0 27.3172,28.7995 27.3172,28.7995 0,0 -77.7014,17.5833 -77.7014,17.5833 0,0 -4.3662,4.0193 -4.3662,4.0193 0,0 0,0 0,0 m 109.5297,-100.831 c 0,0 240.1897,-64.4622 240.1897,-64.4622 0,0 56.8007,60.5972 56.8007,60.5972 0,0 1.2143,1.2645 1.2143,1.2645 0,0 3.1019,-0.9054 3.1019,-0.9054 0,0 149.6287,-46.0894 149.6287,-46.0894 0,0 28.681,29.5388 28.681,29.5388 0,0 -72.5852,22.9667 -72.5852,22.9667 0,0 -3.0429,0.9374 -3.0429,0.9374 0,0 1.2711,1.2953 1.2711,1.2953 0,0 65.4206,65.2614 65.4206,65.2614 0,0 -314.0308,86.7623 -314.0308,86.7623 0,0 -3.2792,0.8093 -3.2792,0.8093 0,0 1.3893,1.3593 1.3893,1.3593 0,0 34.1768,33.1297 34.1768,33.1297 0,0 9.4551,1.1642 9.4551,1.1642 0,0 -35.6843,-34.5531 -35.6843,-34.5531 0,0 313.7968,-86.8892 313.7968,-86.8892 0,0 3.0405,-0.9387 3.0405,-0.9387 0,0 -1.3916,-1.3606 -1.3916,-1.3606 0,0 -65.5174,-65.3226 -65.5174,-65.3226 0,0 69.5182,-22.0196 69.5182,-22.0196 0,0 31.394,31.607 31.394,31.607 0,0 1.3325,1.3286 1.3325,1.3286 0,0 2.9837,-0.9695 2.9837,-0.9695 0,0 71.1358,-23.7296 71.1358,-23.7296 0,0 3.1843,-4.6601 3.1843,-4.6601 0,0 -74.0013,24.7631 -74.0013,24.7631 0,0 -61.2818,-62.4203 -61.2818,-62.4203 0,0 -1.2144,-1.2645 -1.2144,-1.2645 0,0 -28.5397,-30.0737 -28.5397,-30.0737 0,0 -8.2915,-0.5246 -8.2915,-0.5246 0,0 29.6356,31.274 29.6356,31.274 0,0 -146.5106,45.1841 -146.5106,45.1841 0,0 -55.5887,-59.3341 -55.5887,-59.3341 0,0 -1.0962,-1.2004 -1.0962,-1.2004 0,0 -25.6926,-28.5303 -25.6926,-28.5303 0,0 -8.2915,-0.5246 -8.2915,-0.5246 0,0 26.6889,29.6678 26.6889,29.6678 0,0 -233.6337,62.8425 -233.6337,62.8425 0,0 -4.3661,4.0193 -4.3661,4.0193 0,0 0,0 0,0 M 665.7503,434.347 c 0,0 9.476,1.1667 9.476,1.1667 0,0 152.2037,-42.0978 152.2037,-42.0978 0,0 3.1913,-4.6703 3.1913,-4.6703 0,0 -164.871,45.6014 -164.871,45.6014 0,0 0,0 0,0"
     id="path9226"
     style="fill:#d6870d;fill-opacity:1;stroke:none" />
  <path
     d="m 792.75844,493.32556 -6.50006,-105.45554 641.65002,77.2392 6.8276,105.47347 z"
     id="path3372"
     style="fill:#8e5213;fill-opacity:1;stroke:#f7dc1f;stroke-width:10;stroke-linecap:butt;stroke-linejoin:bevel;stroke-miterlimit:4;stroke-opacity:1;stroke-dasharray:none" />
  <path
     d="m 785.17585,387.73392 c 0,0 208.99854,-289.4186 208.99854,-289.4186 0,0 548.82211,34.44527 548.82211,34.44527 0,0 -116.2323,332.80192 -116.2323,332.80192 0,0 -641.58835,-77.82859 -641.58835,-77.82859"
     id="path7602"
     style="fill:#d48c20;fill-opacity:1;stroke:#f7dc1f;stroke-width:10;stroke-linejoin:bevel;stroke-miterlimit:4;stroke-opacity:1;stroke-dasharray:none" />
  <path
     d="m 1541.8112,132.33123 c 0,0 21.7815,268.20597 21.7815,268.20597 0,0 -116.2153,333.0535 -116.2153,333.0535 0,0 -22.2451,-268.2209 -22.2451,-268.2209 0,0 116.6789,-333.03857 116.6789,-333.03857 0,0 0,0 0,0"
     id="path14198"
     style="fill:#7d3f12;fill-opacity:1;stroke:#f7dc1f;stroke-width:10;stroke-linejoin:bevel;stroke-miterlimit:4;stroke-opacity:1;stroke-dasharray:none" />
  <path
     d="m 1535.5218,150.28311 c 0,0 8.7466,12.30419 8.7466,12.30419 0,0 2.1837,26.8899 2.1837,26.8899 0,0 -16.2294,-22.8486 -16.2294,-22.8486 0,0 -27.4012,347.0216 -27.4012,347.0216 0,0 -0.8424,10.7272 -0.8424,10.7272 0,0 -1.9434,-2.7496 -1.9434,-2.7496 0,0 -30.5665,-42.9215 -30.5665,-42.9215 0,0 -5.3351,68.0236 -5.3351,68.0236 0,0 14.3169,20.092 14.3169,20.092 0,0 1.9498,2.738 1.9498,2.738 0,0 -0.842,10.7075 -0.842,10.7075 0,0 -6.1579,78.7198 -6.1579,78.7198 0,0 -5.5633,15.9436 -5.5633,15.9436 0,0 6.9911,-89.4157 6.9911,-89.4157 0,0 -28.6545,-40.2045 -28.6545,-40.2045 0,0 -1.9528,-2.7183 -1.9528,-2.7183 0,0 -14.351,-20.0931 -14.351,-20.0931 0,0 -2.2303,-26.8914 -2.2303,-26.8914 0,0 16.3102,22.8313 16.3102,22.8313 0,0 10.8014,-137.6125 10.8014,-137.6125 0,0 5.5897,-15.9546 5.5897,-15.9546 0,0 -12.4876,159.0353 -12.4876,159.0353 0,0 12.3872,17.3626 12.3872,17.3626 0,0 6.1734,-78.739 6.1734,-78.739 0,0 0.8401,-10.6957 0.8401,-10.6957 0,0 1.9467,2.73 1.9467,2.73 0,0 30.5709,42.9216 30.5709,42.9216 0,0 24.9903,-316.4928 24.9903,-316.4928 0,0 10.7594,-30.71089 10.7594,-30.71089 0,0 0,0 0,0 M 1553.383,274.82 c 0,0 2.1838,26.8899 2.1838,26.8899 0,0 -12.4375,157.4475 -12.4375,157.4475 0,0 -5.5633,15.9436 -5.5633,15.9436 0,0 15.817,-200.281 15.817,-200.281 0,0 0,0 0,0"
     id="path14200"
     style="fill:#f7dd1f;fill-opacity:1;stroke:none" />
  <path
     d="m 1533.6613,155.5935 c 0,0 11.3339,15.9439 11.3339,15.9439 0,0 0.7268,8.9501 0.7268,8.9501 0,0 -13.9211,-19.5836 -13.9211,-19.5836 0,0 1.8604,-5.3104 1.8604,-5.3104 0,0 0,0 0,0 m -5.178,14.7798 c 0,0 -26.9604,341.4687 -26.9604,341.4687 0,0 -0.28,3.5653 -0.28,3.5653 0,0 -0.6473,-0.91 -0.6473,-0.91 0,0 -31.8641,-44.7414 -31.8641,-44.7414 0,0 -6.4536,82.2845 -6.4536,82.2845 0,0 15.6161,21.9318 15.6161,21.9318 0,0 0.6481,0.91 0.6481,0.91 0,0 -0.2793,3.5652 -0.2793,3.5652 0,0 -6.715,85.8504 -6.715,85.8504 0,0 -1.8531,5.3106 -1.8531,5.3106 0,0 6.9927,-89.4156 6.9927,-89.4156 0,0 -31.2539,-43.8328 -31.2539,-43.8328 0,0 -0.6497,-0.91 -0.6497,-0.91 0,0 -15.6574,-21.9212 -15.6574,-21.9212 0,0 -0.744,-8.9704 -0.744,-8.9704 0,0 16.3086,22.8313 16.3086,22.8313 0,0 11.9253,-151.8852 11.9253,-151.8852 0,0 1.8605,-5.3104 1.8605,-5.3104 0,0 -12.4849,159.0354 -12.4849,159.0354 0,0 14.9842,21.0027 14.9842,21.0027 0,0 6.7361,-85.8814 6.7361,-85.8814 0,0 0.28,-3.5652 0.28,-3.5652 0,0 0.6489,0.91 0.6489,0.91 0,0 31.8672,44.7613 31.8672,44.7613 0,0 26.1145,-330.7732 26.1145,-330.7732 0,0 1.8605,-5.3104 1.8605,-5.3104 0,0 0,0 0,0 m 25.6265,113.3968 c 0,0 0.7285,8.9699 0.7285,8.9699 0,0 -13.5621,171.7281 -13.5621,171.7281 0,0 -1.8572,5.3223 -1.8572,5.3223 0,0 14.6908,-186.0203 14.6908,-186.0203 0,0 0,0 0,0"
     id="path14202"
     style="fill:#d6870d;fill-opacity:1;stroke:none" />
  <path
     d="m 863.77109,278.89946 c 0,0 116.85517,100.18056 116.85517,100.18056 0,0 -82.50829,22.35932 -82.50829,22.35932 0,0 30.73678,3.72858 30.73678,3.72858 0,0 62.57805,-17.08317 62.57805,-17.08317 0,0 35.0192,28.92238 35.0192,28.92238 0,0 30.7367,3.72858 30.7367,3.72858 0,0 -133.24308,-111.8013 -133.24308,-111.8013 0,0 139.95708,-41.82762 139.95708,-41.82762 0,0 219.1719,181.03044 219.1719,181.03044 0,0 30.7368,3.72858 30.7368,3.72858 0,0 -98.0897,-78.85939 -98.0897,-78.85939 0,0 58.3446,-19.063 58.3446,-19.063 0,0 42.2563,34.27949 42.2563,34.27949 0,0 5.8523,4.70947 5.8523,4.70947 0,0 9.0762,-3.04303 9.0762,-3.04303 0,0 139.2141,-49.47642 139.2141,-49.47642 0,0 5.5644,-15.93183 5.5644,-15.93183 0,0 -147.4022,52.93476 -147.4022,52.93476 0,0 -42.0557,-34.19931 -42.0557,-34.19931 0,0 -5.6255,-4.59553 -5.6255,-4.59553 0,0 -9.0496,3.05546 -9.0496,3.05546 0,0 -67.4424,22.1038 -67.4424,22.1038 0,0 -162.6644,-138.09416 -162.6644,-138.09416 0,0 142.2847,-48.04035 142.2847,-48.04035 0,0 8.8337,-3.1701 8.8337,-3.1701 0,0 -4.7429,-4.19066 -4.7429,-4.19066 0,0 -71.0832,-64.25692 -71.0832,-64.25692 0,0 -26.2925,-1.65017 -26.2925,-1.65017 0,0 74.9312,68.0427 74.9312,68.0427 0,0 -142.6757,47.83599 -142.6757,47.83599 0,0 -9.3255,2.94796 -9.3255,2.94796 0,0 4.737,4.18008 4.737,4.18008 0,0 35.5284,31.13311 35.5284,31.13311 0,0 -139.94243,41.84025 -139.94243,41.84025 0,0 -40.25898,-35.32377 -40.25898,-35.32377 0,0 -10.0125,13.86522 -10.0125,13.86522 0,0 0,0 0,0 M 1310.3264,118.15647 c 0,0 131.7104,113.05127 131.7104,113.05127 0,0 5.4245,4.51522 5.4245,4.51522 0,0 8.415,-3.36595 8.415,-3.36595 0,0 61.084,-25.06949 61.084,-25.06949 0,0 5.5644,-15.93186 5.5644,-15.93186 0,0 -69.0506,28.63154 -69.0506,28.63154 0,0 -116.8552,-100.18056 -116.8552,-100.18056 0,0 -26.2925,-1.65017 -26.2925,-1.65017 0,0 0,0 0,0"
     id="path7604"
     style="fill:#f7dc1f;fill-opacity:1;stroke:none" />
  <path
     d="m 867.11104,274.27432 c 0,0 123.62009,105.98014 123.62009,105.98014 0,0 -82.38266,22.42591 -82.38266,22.42591 0,0 10.25314,1.24378 10.25314,1.24378 0,0 75.72639,-20.67253 75.72639,-20.67253 0,0 42.3771,34.99929 42.3771,34.99929 0,0 10.2305,1.24103 10.2305,1.24103 0,0 -132.78367,-111.58064 -132.78367,-111.58064 0,0 152.64597,-45.63767 152.64597,-45.63767 0,0 226.5525,187.11012 226.5525,187.11012 0,0 10.2305,1.24103 10.2305,1.24103 0,0 -97.8105,-78.73461 -97.8105,-78.73461 0,0 70.5981,-23.05721 70.5981,-23.05721 0,0 46.0126,37.35119 46.0126,37.35119 0,0 1.9431,1.57987 1.9431,1.57987 0,0 3.0271,-1.02717 3.0271,-1.02717 0,0 144.9714,-51.64234 144.9714,-51.64234 0,0 1.8535,-5.3067 1.8535,-5.3067 0,0 -147.6981,52.79641 -147.6981,52.79641 0,0 -45.9365,-37.32926 -45.9365,-37.32926 0,0 -1.8925,-1.53477 -1.8925,-1.53477 0,0 -3.0195,1.01713 -3.0195,1.01713 0,0 -73.604,24.08648 -73.604,24.08648 0,0 -169.5994,-143.96547 -169.5994,-143.96547 0,0 148.4834,-50.00775 148.4834,-50.00775 0,0 2.9515,-1.0625 2.9515,-1.0625 0,0 -1.578,-1.39552 -1.578,-1.39552 0,0 -73.9523,-66.91372 -73.9523,-66.91372 0,0 -8.79,-0.55168 -8.79,-0.55168 0,0 75.2472,68.1826 75.2472,68.1826 0,0 -148.6084,49.94148 -148.6084,49.94148 0,0 -3.0964,0.98112 -3.0964,0.98112 0,0 1.5751,1.39414 1.5751,1.39414 0,0 38.8385,33.98836 38.8385,33.98836 0,0 -152.66051,45.625 -152.66051,45.625 0,0 -40.39265,-35.38048 -40.39265,-35.38048 0,0 -3.3326,4.61494 -3.3326,4.61494 0,0 0,0 0,0 M 1319.0776,118.70571 c 0,0 128.5895,110.26889 128.5895,110.26889 0,0 1.7999,1.49925 1.7999,1.49925 0,0 2.8006,-1.11948 2.8006,-1.11948 0,0 66.5461,-27.37355 66.5461,-27.37355 0,0 1.8534,-5.3067 1.8534,-5.3067 0,0 -69.1988,28.56219 -69.1988,28.56219 0,0 -123.6201,-105.98014 -123.6201,-105.98014 0,0 -8.7706,-0.55046 -8.7706,-0.55046 0,0 0,0 0,0"
     id="path7606"
     style="fill:#d6870d;fill-opacity:1;stroke:none" />
  <path
     d="m 793.5791,493.4244 c 0,0 640.8423,78.0486 640.8423,78.0486 0,0 -129.372,370.679 -129.372,370.679 0,0 -755.1229,-113.5857 -755.1229,-113.5857 0,0 243.6526,-335.1419 243.6526,-335.1419"
     id="path8408"
     style="fill:#d48c20;fill-opacity:1;stroke:#f7dc1f;stroke-width:10;stroke-linejoin:bevel;stroke-miterlimit:4;stroke-opacity:1;stroke-dasharray:none" />
  <path
     d="m 1034.5645,522.7755 c 0,0 -241.0091,71.9512 -241.0091,71.9512 0,0 -42.8788,-42.3053 -42.8788,-42.3053 0,0 -11.6728,16.0557 -11.6728,16.0557 0,0 32.8173,32.2376 32.8173,32.2376 0,0 -69.8815,18.7433 -69.8815,18.7433 0,0 -11.6728,16.0557 -11.6728,16.0557 0,0 269.6316,-75.816 269.6316,-75.816 0,0 81.9834,76.5023 81.9834,76.5023 0,0 -437.3989,117.3077 -437.3989,117.3077 0,0 -11.6728,16.0557 -11.6728,16.0557 0,0 191.1508,-46.9814 191.1508,-46.9814 0,0 38.0326,33.8595 38.0326,33.8595 0,0 -83.0017,21.0273 -83.0017,21.0273 0,0 -11.4142,2.8145 -11.4142,2.8145 0,0 6.1003,5.3614 6.1003,5.3614 0,0 100.212,85.6307 100.212,85.6307 0,0 36.1491,5.4376 36.1491,5.4376 0,0 -107.4063,-91.3323 -107.4063,-91.3323 0,0 82.7861,-21.0987 82.7861,-21.0987 0,0 11.1154,-2.9219 11.1154,-2.9219 0,0 -6.133,-5.3715 -6.133,-5.3715 0,0 -44.1257,-39.233 -44.1257,-39.233 0,0 332.5922,-96.6739 332.5922,-96.6739 0,0 96.4291,84.4545 96.4291,84.4545 0,0 6.4308,5.4597 6.4308,5.4597 0,0 10.0475,-3.2395 10.0475,-3.2395 0,0 153.6764,-52.2706 153.6764,-52.2706 0,0 6.1979,-17.7582 6.1979,-17.7582 0,0 -162.6532,55.8474 -162.6532,55.8474 0,0 -95.8964,-84.2786 -95.8964,-84.2786 0,0 -5.8442,-5.2919 -5.8442,-5.2919 0,0 -10.021,3.2623 -10.021,3.2623 0,0 -74.7135,23.6047 -74.7135,23.6047 0,0 -82.0137,-76.493 -82.0137,-76.493 0,0 84.758,-26.8639 84.758,-26.8639 0,0 -30.7009,-3.7391 -30.7009,-3.7391 0,0 0,0 0,0 m 325.3343,262.2292 c 0,0 -271.9357,81.4447 -271.9357,81.4447 0,0 -10.8996,2.9934 -10.8996,2.9934 0,0 6.9467,5.6202 6.9467,5.6202 0,0 51.9393,41.6482 51.9393,41.6482 0,0 36.1492,5.4375 36.1492,5.4375 0,0 -59.4068,-47.4346 -59.4068,-47.4346 0,0 241.0091,-71.9512 241.0091,-71.9512 0,0 6.1978,-17.7582 6.1978,-17.7582 0,0 0,0 0,0"
     id="path8410"
     style="fill:#f7dc1f;fill-opacity:1;stroke:none" />
  <path
     d="m 1044.8057,524.0228 c 0,0 -254.9614,76.1165 -254.9614,76.1165 0,0 -43.0529,-42.3739 -43.0529,-42.3739 0,0 -3.8938,5.3558 -3.8938,5.3558 0,0 39.7126,39.0112 39.7126,39.0112 0,0 -84.5644,22.6815 -84.5644,22.6815 0,0 -3.8852,5.344 -3.8852,5.344 0,0 269.0533,-75.9771 269.0533,-75.9771 0,0 89.4571,83.4369 89.4571,83.4369 0,0 -452.0905,121.2577 -452.0905,121.2577 0,0 -3.8852,5.344 -3.8852,5.344 0,0 190.8191,-47.1033 190.8191,-47.1033 0,0 45.9987,40.9702 45.9987,40.9702 0,0 -90.4322,22.9593 -90.4322,22.9593 0,0 -3.8269,0.9356 -3.8269,0.9356 0,0 2.0629,1.792 2.0629,1.792 0,0 104.6404,89.3174 104.6404,89.3174 0,0 12.0408,1.8112 12.0408,1.8112 0,0 -107.0418,-91.219 -107.0418,-91.219 0,0 90.3701,-22.9829 90.3701,-22.9829 0,0 3.7137,-0.981 3.7137,-0.981 0,0 -2.0408,-1.7894 -2.0408,-1.7894 0,0 -48.0684,-42.7498 -48.0684,-42.7498 0,0 346.7348,-100.7946 346.7348,-100.7946 0,0 100.3332,87.9925 100.3332,87.9925 0,0 2.156,1.821 2.156,1.821 0,0 3.3456,-1.081 3.3456,-1.081 0,0 160.0139,-54.5425 160.0139,-54.5425 0,0 2.0721,-5.9368 2.0721,-5.9368 0,0 -163.023,55.7469 -163.023,55.7469 0,0 -100.16,-87.9242 -100.16,-87.9242 0,0 -1.9459,-1.7599 -1.9459,-1.7599 0,0 -3.342,1.0821 -3.342,1.0821 0,0 -81.5751,25.7281 -81.5751,25.7281 0,0 -89.4266,-83.4462 -89.4266,-83.4462 0,0 84.9104,-26.7978 84.9104,-26.7978 0,0 -10.2186,-1.2445 -10.2186,-1.2445 0,0 0,0 0,0 m 313.0302,266.8926 c 0,0 -265.2687,79.2898 -265.2687,79.2898 0,0 -3.6188,0.996 -3.6188,0.996 0,0 2.3104,1.8732 2.3104,1.8732 0,0 56.7315,45.448 56.7315,45.448 0,0 12.0409,1.8111 12.0409,1.8111 0,0 -59.2242,-47.3778 -59.2242,-47.3778 0,0 254.9614,-76.1165 254.9614,-76.1165 0,0 2.0675,-5.9238 2.0675,-5.9238 0,0 0,0 0,0"
     id="path8412"
     style="fill:#d6870d;fill-opacity:1;stroke:none" />
  <path
     d="m 1303.1064,909.72236 2.4982,55.64038 659.1291,98.79956 -1.2218,-55.9361 z"
     id="path3434"
     style="fill:#8e5213;fill-opacity:1;stroke:#f8db37;stroke-width:10;stroke-linecap:butt;stroke-linejoin:bevel;stroke-miterlimit:4;stroke-opacity:1;stroke-dasharray:none" />
  <path
     d="m 202.77173,473.32049 c 0,0 -19.05922,-256.91642 -19.05922,-256.91642 0,0 -333.80667,304.35677 -333.80667,304.35677 0,0 22.2216,257.42845 22.2216,257.42845 0,0 330.64429,-304.8688 330.64429,-304.8688 0,0 0,0 0,0"
     id="path14206"
     style="fill:#7d3f12;fill-opacity:1;stroke:#f7dc1f;stroke-width:10;stroke-linejoin:bevel;stroke-miterlimit:4;stroke-opacity:1;stroke-dasharray:none" />
  <path
     d="m 117.17701,552.24265 c 0,0 75.38749,-216.68336 75.38749,-216.68336 0,0 -1.89114,-25.49266 -1.89114,-25.49266 0,0 -58.37177,167.3686 -58.37177,167.3686 0,0 -28.34202,-17.31539 -28.34202,-17.31539 0,0 25.62562,-73.67154 25.62562,-73.67154 0,0 3.48963,-10.00861 3.48963,-10.00861 0,0 -4.46327,-2.72371 -4.46327,-2.72371 0,0 -70.421024,-42.86403 -70.421024,-42.86403 0,0 -15.980215,14.57037 -15.980215,14.57037 0,0 74.946979,45.59791 74.946979,45.59791 0,0 -25.623531,73.68454 -25.623531,73.68454 0,0 -3.4706,10.03021 -3.4706,10.03021 0,0 4.465126,2.72404 4.465126,2.72404 0,0 32.806765,20.05788 32.806765,20.05788 0,0 -23.9869,69.32066 -23.9869,69.32066 0,0 15.82886,-14.59491 15.82886,-14.59491 m -247.75948,194.55338 c 0,0 89.549479,-261.31956 89.549479,-261.31956 0,0 3.468496,-10.04322 3.468496,-10.04322 0,0 -4.522025,-2.72059 -4.522025,-2.72059 0,0 -33.252685,-20.11157 -33.252685,-20.11157 0,0 -15.98025,14.57041 -15.98025,14.57041 0,0 37.79436,22.84791 37.79436,22.84791 0,0 -79.262325,231.23316 -79.262325,231.23316 0,0 2.20495,25.54346 2.20495,25.54346"
     id="path14208"
     style="fill:#f7dc1f;fill-opacity:1;stroke:none" />
  <path
     d="m 111.89295,557.11478 c 0,0 80.03931,-230.07807 80.03931,-230.07807 0,0 -0.62945,-8.48504 -0.62945,-8.48504 0,0 -58.36113,167.40151 -58.36113,167.40151 0,0 -34.285302,-20.96431 -34.285302,-20.96431 0,0 27.941782,-80.3456 27.941782,-80.3456 0,0 1.17473,-3.34698 1.17473,-3.34698 0,0 -1.4997,-0.89719 -1.4997,-0.89719 0,0 -73.41724,-44.68321 -73.41724,-44.68321 0,0 -5.322819,4.85321 -5.322819,4.85321 0,0 74.926099,45.59453 74.926099,45.59453 0,0 -27.94846,80.35715 -27.94846,80.35715 0,0 -1.156125,3.35592 -1.156125,3.35592 0,0 1.488192,0.90795 1.488192,0.90795 0,0 35.783493,21.84273 35.783493,21.84273 0,0 -24.00577,69.34879 -24.00577,69.34879 0,0 5.27239,-4.86139 5.27239,-4.86139 m -243.20932,181.17931 c 0,0 87.275225,-254.6573 87.275225,-254.6573 0,0 1.152538,-3.33791 1.152538,-3.33791 0,0 -1.503613,-0.9105 -1.503613,-0.9105 0,0 -36.269805,-21.93407 -36.269805,-21.93407 0,0 -5.32282,4.85322 -5.32282,4.85322 0,0 37.783861,22.84625 37.783861,22.84625 0,0 -83.850906,244.61955 -83.850906,244.61955 0,0 0.73552,8.52076 0.73552,8.52076"
     id="path14210"
     style="fill:#d6870d;fill-opacity:1;stroke:none" />
  <path
     d="m 548.1171,775.3323 c 0,0 -324.8513,449.6622 -324.8513,449.6622 0,0 -804.2641,-142.631 -804.2641,-142.631 0,0 447.4741,-410.2939 447.4741,-410.2939 0,0 681.6413,103.2627 681.6413,103.2627"
     id="path10053"
     style="fill:#d48c20;fill-opacity:1;stroke:#f8db37;stroke-width:10;stroke-linejoin:bevel;stroke-miterlimit:4;stroke-opacity:1;stroke-dasharray:none" />
  <path
     d="m 490.9339,854.4818 c 0,0 -62.8075,-97.3345 -62.8075,-97.3345 0,0 -32.6555,-4.947 -32.6555,-4.947 0,0 70.7665,110.3905 70.7665,110.3905 0,0 -91.9684,29.4242 -91.9684,29.4242 0,0 -12.6409,3.9487 -12.6409,3.9487 0,0 4.5307,6.7167 4.5307,6.7167 0,0 44.2339,63.2871 44.2339,63.2871 0,0 15.5627,-21.542 15.5627,-21.542 0,0 -29.9213,-42.9333 -29.9213,-42.9333 0,0 79.3256,-25.4524 79.3256,-25.4524 0,0 15.5742,-21.558 15.5742,-21.558 0,0 0,0 0,0 M 360.977,1034.3691 c 0,0 -334.1783,93.5736 -334.1783,93.5736 0,0 -76.0344,-106.8391 -76.0344,-106.8391 0,0 -4.529,-6.7162 -4.529,-6.7162 0,0 -13.8197,3.5939 -13.8197,3.5939 0,0 -221.2412,54.8437 -221.2412,54.8437 0,0 -28.0693,-42.3542 -28.0693,-42.3542 0,0 104.6771,-25.3285 104.6771,-25.3285 0,0 14.0723,-3.4892 14.0723,-3.4892 0,0 -4.2845,-6.6181 -4.2845,-6.6181 0,0 -62.7523,-102.575 -62.7523,-102.575 0,0 437.5645,-119.3321 437.5645,-119.3321 0,0 12.9236,-3.862 12.9236,-3.862 0,0 -3.7224,-6.4336 -3.7224,-6.4336 0,0 -26.1469,-46.995 -26.1469,-46.995 0,0 -32.6554,-4.947 -32.6554,-4.947 0,0 29.2817,53.24 29.2817,53.24 0,0 -438.689,118.9515 -438.689,118.9515 0,0 -14.149,3.4881 -14.149,3.4881 0,0 3.689,6.4229 3.689,6.4229 0,0 62.2001,102.3977 62.2001,102.3977 0,0 -90.5425,21.8553 -90.5425,21.8553 0,0 -30.1957,-48.2794 -30.1957,-48.2794 0,0 -3.9677,-6.5319 -3.9677,-6.5319 0,0 -14.381,3.4095 -14.381,3.4095 0,0 -106.8084,24.6402 -106.8084,24.6402 0,0 -21.4214,19.6416 -21.4214,19.6416 0,0 121.761,-27.8468 121.761,-27.8468 0,0 62.8354,97.3396 62.8354,97.3396 0,0 4.5281,6.7159 4.5281,6.7159 0,0 34.5126,49.6654 34.5126,49.6654 0,0 38.5301,6.833 38.5301,6.833 0,0 -39.6562,-56.5748 -39.6562,-56.5748 0,0 207.4272,-51.2717 207.4272,-51.2717 0,0 71.4422,100.1068 71.4422,100.1068 0,0 5.1443,6.9097 5.1443,6.9097 0,0 38.83,51.0515 38.83,51.0515 0,0 38.5301,6.8331 38.5301,6.8331 0,0 -44.5619,-58.1498 -44.5619,-58.1498 0,0 308.3056,-85.8424 308.3056,-85.8424 0,0 15.5513,-21.5262 15.5513,-21.5262 0,0 0,0 0,0 M 19.1397,695.1896 c 0,0 -32.6554,-4.947 -32.6554,-4.947 0,0 -198.7802,54.0632 -198.7802,54.0632 0,0 -21.4215,19.6416 -21.4215,19.6416 0,0 252.8571,-68.7578 252.8571,-68.7578 0,0 0,0 0,0"
     id="path10055"
     style="fill:#f7dd1f;fill-opacity:1;stroke:none" />
  <path
     d="m 485.731,861.6837 c 0,0 -68.5218,-106.1903 -68.5218,-106.1903 0,0 -10.8692,-1.6465 -10.8692,-1.6465 0,0 71.171,110.5358 71.171,110.5358 0,0 -100.2174,32.0984 -100.2174,32.0984 0,0 -4.2098,1.3175 -4.2098,1.3175 0,0 1.5062,2.2506 1.5062,2.2506 0,0 40.9941,58.7324 40.9941,58.7324 0,0 5.1914,-7.186 5.1914,-7.186 0,0 -36.2106,-51.9581 -36.2106,-51.9581 0,0 95.9862,-30.7837 95.9862,-30.7837 0,0 5.1799,-7.1701 5.1799,-7.1701 0,0 0,0 0,0 m -129.9454,179.8714 c 0,0 -334.7534,93.3694 -334.7534,93.3694 0,0 -79.4499,-111.4308 -79.4499,-111.4308 0,0 -1.5182,-2.2349 -1.5182,-2.2349 0,0 -4.5969,1.1931 -4.5969,1.1931 0,0 -230.8559,57.1186 -230.8559,57.1186 0,0 -33.9544,-51.2337 -33.9544,-51.2337 0,0 114.2651,-27.6079 114.2651,-27.6079 0,0 4.6947,-1.1618 4.6947,-1.1618 0,0 -1.4243,-2.2048 -1.4243,-2.2048 0,0 -65.2478,-106.8671 -65.2478,-106.8671 0,0 446.9684,-121.6551 446.9684,-121.6551 0,0 4.3036,-1.2873 4.3036,-1.2873 0,0 -1.2287,-2.1421 -1.2287,-2.1421 0,0 -28.4205,-51.22 -28.4205,-51.22 0,0 -10.8691,-1.6466 -10.8691,-1.6466 0,0 29.4537,53.2993 29.4537,53.2993 0,0 -447.3556,121.5308 -447.3556,121.5308 0,0 -4.6986,1.1605 -4.6986,1.1605 0,0 1.2248,2.1408 1.2248,2.1408 0,0 65.0291,106.801 65.0291,106.801 0,0 -109.5245,26.4372 -109.5245,26.4372 0,0 -33.0517,-52.6874 -33.0517,-52.6874 0,0 -1.3226,-2.1721 -1.3226,-2.1721 0,0 -4.7924,1.1304 -4.7924,1.1304 0,0 -116.5771,26.842 -116.5771,26.842 0,0 -7.1352,6.5423 -7.1352,6.5423 0,0 121.565,-27.9096 121.565,-27.9096 0,0 68.5093,106.1708 68.5093,106.1708 0,0 1.5181,2.2349 1.5181,2.2349 0,0 37.7465,54.2142 37.7465,54.2142 0,0 12.8528,2.2794 12.8528,2.2794 0,0 -39.4606,-56.512 -39.4606,-56.512 0,0 226.2272,-55.9316 226.2272,-55.9316 0,0 77.9279,109.1947 77.9279,109.1947 0,0 1.7137,2.2977 1.7137,2.2977 0,0 42.4567,55.7264 42.4567,55.7264 0,0 12.8528,2.2793 12.8528,2.2793 0,0 -44.3943,-58.0919 -44.3943,-58.0919 0,0 326.1423,-90.796 326.1423,-90.796 0,0 5.18,-7.1701 5.18,-7.1701 0,0 0,0 0,0 M 8.2706,693.543 c 0,0 -10.8932,-1.6502 -10.8932,-1.6502 0,0 -216.8085,58.9554 -216.8085,58.9554 0,0 -7.1511,6.5568 -7.1511,6.5568 0,0 234.8528,-63.862 234.8528,-63.862 0,0 0,0 0,0"
     id="path10057"
     style="fill:#d6870d;fill-opacity:1;stroke:none" />
  <path
     d="m -150.08913,520.7562 c 0,0 334.09324,-304.618 334.09324,-304.618 0,0 -551.00905,-66.928 -551.00905,-66.928 0,0 -409.83817,277.9036 -409.83817,277.9036 0,0 626.75398,93.6424 626.75398,93.6424"
     id="path10061"
     style="fill:#d48c20;fill-opacity:1;stroke:#f7dc1f;stroke-width:10;stroke-linejoin:bevel;stroke-miterlimit:4;stroke-opacity:1;stroke-dasharray:none" />
  <path
     d="m -91.28397,467.1368 c 0,0 -169.14401,37.1392 -169.14401,37.1392 0,0 -30.02609,-4.4862 -30.02609,-4.4862 0,0 192.52267,-42.0648 192.52267,-42.0648 0,0 -23.6676,-34.3313 -23.6676,-34.3313 0,0 -3.12679,-4.6312 -3.12679,-4.6312 0,0 11.33271,-2.5938 11.33271,-2.5938 0,0 104.94165,-24.5565 104.94165,-24.5565 0,0 -16.00546,14.5934 -16.00546,14.5934 0,0 -71.31946,16.6484 -71.31946,16.6484 0,0 20.50968,29.6786 20.50968,29.6786 0,0 -16.0173,14.6042 -16.0173,14.6042 0,0 0,0 0,0 M 42.37012,345.2744 c 0,0 -67.89123,-112.4578 -67.89123,-112.4578 0,0 -175.14203,41.619 -175.14203,41.619 0,0 -11.33371,2.5934 -11.33371,2.5934 0,0 -2.43095,-4.3962 -2.43095,-4.3962 0,0 -35.27355,-67.9026 -35.27355,-67.9026 0,0 -72.5051,16.2497 -72.5051,16.2497 0,0 15.85897,31.5578 15.85897,31.5578 0,0 2.24267,4.3194 2.24267,4.3194 0,0 -11.48007,2.5269 -11.48007,2.5269 0,0 -183.34643,38.7255 -183.34643,38.7255 0,0 84.5059,144.3015 84.5059,144.3015 0,0 2.98921,4.5782 2.98921,4.5782 0,0 -11.86431,2.3959 -11.86431,2.3959 0,0 -87.8609,17.4291 -87.8609,17.4291 0,0 -30.026,-4.4862 -30.026,-4.4862 0,0 100.088,-19.6969 100.088,-19.6969 0,0 -83.816,-144.0434 -83.816,-144.0434 0,0 -2.2275,-4.3244 -2.2275,-4.3244 0,0 11.8849,-2.3887 11.8849,-2.3887 0,0 183.68751,-38.6051 183.68751,-38.6051 0,0 -13.61785,-27.2434 -13.61785,-27.2434 0,0 -85.31826,18.3064 -85.31826,18.3064 0,0 -11.7174,2.4626 -11.7174,2.4626 0,0 -2.0473,-4.2654 -2.0473,-4.2654 0,0 -14.5055,-31.085 -14.5055,-31.085 0,0 19.6198,-13.3038 19.6198,-13.3038 0,0 16.2043,35.2126 16.2043,35.2126 0,0 169.16381,-37.1368 169.16381,-37.1368 0,0 11.33431,-2.5932 11.33431,-2.5932 0,0 82.65164,-19.2469 82.65164,-19.2469 0,0 26.3973,3.2063 26.3973,3.2063 0,0 -93.64274,21.9657 -93.64274,21.9657 0,0 32.87133,63.527 32.87133,63.527 0,0 163.81035,-39.0204 163.81035,-39.0204 0,0 10.9906,-2.719 10.9906,-2.719 0,0 79.98477,-20.1875 79.98477,-20.1875 0,0 26.3973,3.2064 26.3973,3.2064 0,0 -90.61245,23.0344 -90.61245,23.0344 0,0 61.97033,103.3022 61.97033,103.3022 0,0 -15.99372,14.5827 -15.99372,14.5827 0,0 0,0 0,0 m -678.85393,102.8155 c 0,0 -30.0261,-4.4862 -30.0261,-4.4862 0,0 -38.171,-65.4154 -38.171,-65.4154 0,0 19.6197,-13.3038 19.6197,-13.3038 0,0 48.5774,83.2054 48.5774,83.2054 0,0 0,0 0,0"
     id="path10063"
     style="fill:#f7dd1f;fill-opacity:1;stroke:none" />
  <path
     d="m -85.93305,462.258 c 0,0 -184.53311,40.5182 -184.53311,40.5182 0,0 -9.99396,-1.4932 -9.99396,-1.4932 0,0 192.3145,-42.1576 192.3145,-42.1576 0,0 -25.90389,-37.4529 -25.90389,-37.4529 0,0 -1.04466,-1.5446 -1.04466,-1.5446 0,0 3.78316,-0.8726 3.78316,-0.8726 0,0 97.5205,-22.7751 97.5205,-22.7751 0,0 -5.33907,4.8681 -5.33907,4.8681 0,0 -86.31166,20.148 -86.31166,20.148 0,0 24.83549,35.9044 24.83549,35.9044 0,0 -5.3273,4.8573 -5.3273,4.8573 0,0 0,0 0,0 M 47.70923,340.4063 c 0,0 -67.54069,-112.3192 -67.54069,-112.3192 0,0 -182.44999,43.4255 -182.44999,43.4255 0,0 -3.7711,0.8619 -3.7711,0.8619 0,0 -0.80555,-1.4603 -0.80555,-1.4603 0,0 -36.65683,-70.7532 -36.65683,-70.7532 0,0 -87.70537,19.6565 -87.70537,19.6565 0,0 17.22189,34.4057 17.22189,34.4057 0,0 0.74511,1.4389 0.74511,1.4389 0,0 -3.82912,0.8415 -3.82912,0.8415 0,0 -191.25969,40.3229 -191.25969,40.3229 0,0 86.0242,147.1848 86.0242,147.1848 0,0 0.9867,1.5241 0.9867,1.5241 0,0 -3.9499,0.7989 -3.9499,0.7989 0,0 -95.8742,18.9867 -95.8742,18.9867 0,0 -9.994,-1.4932 -9.994,-1.4932 0,0 99.9449,-19.743 99.9449,-19.743 0,0 -85.785,-147.1004 -85.785,-147.1004 0,0 -0.7427,-1.4381 -0.7427,-1.4381 0,0 3.9523,-0.798 3.9523,-0.798 0,0 191.35779,-40.2838 191.35779,-40.2838 0,0 -16.47279,-32.955 -16.47279,-32.955 0,0 -93.0088,19.9825 -93.0088,19.9825 0,0 -3.8919,0.8193 -3.8919,0.8193 0,0 -0.6848,-1.4177 -0.6848,-1.4177 0,0 -15.7614,-33.8802 -15.7614,-33.8802 0,0 6.5351,-4.4313 6.5351,-4.4313 0,0 16.3254,35.2552 16.3254,35.2552 0,0 184.49925,-40.5108 184.49925,-40.5108 0,0 3.77111,-0.8618 3.77111,-0.8618 0,0 90.11348,-21.0185 90.11348,-21.0185 0,0 8.80558,1.0695 8.80558,1.0695 0,0 -93.76353,21.9231 -93.76353,21.9231 0,0 35.83396,69.2913 35.83396,69.2913 0,0 178.68129,-42.5627 178.68129,-42.5627 0,0 3.65033,-0.9045 3.65033,-0.9045 0,0 87.20398,-22.0446 87.20398,-22.0446 0,0 8.80558,1.0696 8.80558,1.0696 0,0 -90.75295,22.9893 -90.75295,22.9893 0,0 65.56967,109.2718 65.56967,109.2718 0,0 -5.32731,4.8573 -5.32731,4.8573 0,0 0,0 0,0 m -694.18704,106.1904 c 0,0 -10.0161,-1.4965 -10.0161,-1.4965 0,0 -41.6519,-71.3432 -41.6519,-71.3432 0,0 6.5496,-4.4412 6.5496,-4.4412 0,0 45.1184,77.2809 45.1184,77.2809 0,0 0,0 0,0"
     id="path10065"
     style="fill:#d6870d;fill-opacity:1;stroke:none" />
  <path
     d="m 2023.7206,1017.2006 c 0,0 24.7176,-402.4639 24.7176,-402.4639 0,0 -615.7338,-76.3732 -615.7338,-76.3732 0,0 -129.6889,371.33939 -129.6889,371.33939 0,0 720.7051,107.49771 720.7051,107.49771"
     id="path11695"
     style="fill:#d48c20;fill-opacity:1;stroke:#f7dc1f;stroke-width:10;stroke-linejoin:bevel;stroke-miterlimit:4;stroke-opacity:1;stroke-dasharray:none" />
  <path
     d="m 2033.0131,865.8553 c 0,0 -202.8754,82.2842 -202.8754,82.2842 0,0 66.7095,50.1432 66.7095,50.1432 0,0 -34.5271,-5.14989 -34.5271,-5.14989 0,0 -50.5409,-38.07695 -50.5409,-38.07695 0,0 -59.0914,21.72456 -59.0914,21.72456 0,0 -34.527,-5.14994 -34.527,-5.14994 0,0 227.5586,-87.34338 227.5586,-87.34338 0,0 -111.4555,-86.4875 -111.4555,-86.4875 0,0 -369.8439,135.98376 -369.8439,135.98376 0,0 -34.5271,-5.14994 -34.5271,-5.14994 0,0 162.1762,-55.10622 162.1762,-55.10622 0,0 -45.7505,-36.6565 -45.7505,-36.6565 0,0 -70.3413,24.5597 -70.3413,24.5597 0,0 -9.6829,3.2997 -9.6829,3.2997 0,0 -7.0831,-5.7309 -7.0831,-5.7309 0,0 -107.4183,-88.9358 -107.4183,-88.9358 0,0 6.2084,-17.7767 6.2084,-17.7767 0,0 113.4964,94.3687 113.4964,94.3687 0,0 70.1235,-24.6388 70.1235,-24.6388 0,0 9.426,-3.3796 9.426,-3.3796 0,0 7.053,5.722 7.053,5.722 0,0 52.8579,42.391 52.8579,42.391 0,0 280.2975,-110.9151 280.2975,-110.9151 0,0 -110.8929,-89.966 -110.8929,-89.966 0,0 -6.7995,-5.6613 -6.7995,-5.6613 0,0 8.4275,-3.672 8.4275,-3.672 0,0 128.5559,-58.904 128.5559,-58.904 0,0 29.4981,3.6588 29.4981,3.6588 0,0 -135.98,62.888 -135.98,62.888 0,0 111.3448,90.0892 111.3448,90.0892 0,0 7.3558,5.8225 7.3558,5.8225 0,0 -8.4206,3.6778 -8.4206,3.6778 0,0 -62.7282,26.8171 -62.7282,26.8171 0,0 111.4299,86.4981 111.4299,86.4981 0,0 71.1508,-30.5086 71.1508,-30.5086 0,0 -1.1842,19.2808 -1.1842,19.2808 0,0 0,0 0,0 M 1693.7423,570.7401 c 0,0 -228.8758,93.1054 -228.8758,93.1054 0,0 -9.2078,3.4588 -9.2078,3.4588 0,0 -6.3256,-5.5208 -6.3256,-5.5208 0,0 -45.6632,-40.2614 -45.6632,-40.2614 0,0 6.2084,-17.7768 6.2084,-17.7768 0,0 51.4906,45.6201 51.4906,45.6201 0,0 202.8754,-82.2842 202.8754,-82.2842 0,0 29.498,3.6589 29.498,3.6589 0,0 0,0 0,0"
     id="path11697"
     style="fill:#f7dc1f;fill-opacity:1;stroke:none" />
  <path
     d="m 2033.4081,859.4237 c 0,0 -214.6201,87.04763 -214.6201,87.04763 0,0 66.5671,50.0973 66.5671,50.0973 0,0 -11.5175,-1.71791 -11.5175,-1.71791 0,0 -61.1601,-46.07732 -61.1601,-46.07732 0,0 -71.5072,26.28911 -71.5072,26.28911 0,0 -11.492,-1.71412 -11.492,-1.71412 0,0 227.0297,-87.48202 227.0297,-87.48202 0,0 -121.5458,-94.34937 -121.5458,-94.34937 0,0 -382.2851,140.54466 -382.2851,140.54466 0,0 -11.4921,-1.71412 -11.4921,-1.71412 0,0 161.8692,-55.21534 161.8692,-55.21534 0,0 -55.3663,-44.345 -55.3663,-44.345 0,0 -76.6322,26.8082 -76.6322,26.8082 0,0 -3.2281,1.1143 -3.2281,1.1143 0,0 -2.3538,-1.9227 -2.3538,-1.9227 0,0 -111.8083,-92.6579 -111.8083,-92.6579 0,0 2.0679,-5.9212 2.0679,-5.9212 0,0 113.8312,94.4679 113.8312,94.4679 0,0 76.5553,-26.8454 76.5553,-26.8454 0,0 3.1616,-1.1233 3.1616,-1.1233 0,0 2.3543,1.9083 2.3543,1.9083 0,0 57.6962,46.2643 57.6962,46.2643 0,0 292.2347,-115.6254 292.2347,-115.6254 0,0 -115.7822,-93.8324 -115.7822,-93.8324 0,0 -2.2683,-1.8972 -2.2683,-1.8972 0,0 2.8059,-1.225 2.8059,-1.225 0,0 133.8428,-61.4503 133.8428,-61.4503 0,0 9.8616,1.2232 9.8616,1.2232 0,0 -136.3371,62.7858 -136.3371,62.7858 0,0 115.9237,93.8781 115.9237,93.8781 0,0 2.4414,1.9342 2.4414,1.9342 0,0 -2.8025,1.226 -2.8025,1.226 0,0 -68.5141,29.2191 -68.5141,29.2191 0,0 121.5713,94.33863 121.5713,94.33863 0,0 71.293,-30.44833 71.293,-30.44833 0,0 -0.3941,6.4176 -0.3941,6.4176 0,0 0,0 0,0 m -349.484,-289.9014 c 0,0 -223.3037,90.6474 -223.3037,90.6474 0,0 -3.0569,1.1506 -3.0569,1.1506 0,0 -2.1066,-1.8349 -2.1066,-1.8349 0,0 -49.719,-43.8846 -49.719,-43.8846 0,0 2.0679,-5.9212 2.0679,-5.9212 0,0 51.6583,45.6698 51.6583,45.6698 0,0 214.6201,-87.0477 214.6201,-87.0477 0,0 9.8399,1.2206 9.8399,1.2206 0,0 0,0 0,0"
     id="path11699"
     style="fill:#d6870d;fill-opacity:1;stroke:none" />
  <path
     d="m 550.11421,829.3538 c 0,0 754.97699,112.6786 754.97699,112.6786 0,0 -160.768,448.2469 -160.768,448.2469 0,0 -885.60912,-155.8037 -885.60912,-155.8037 0,0 291.40013,-405.1218 291.40013,-405.1218"
     id="path12520"
     style="fill:#d48c20;fill-opacity:1;stroke:#f8db37;stroke-width:10;stroke-linejoin:bevel;stroke-miterlimit:4;stroke-opacity:1;stroke-dasharray:none" />
  <path
     d="m 834.01931,871.7276 c 0,0 -285.2451,81.919 -285.2451,81.919 0,0 -49.9698,-52.9771 -49.9698,-52.9771 0,0 -13.9602,19.4082 -13.9602,19.4082 0,0 38.2397,40.3673 38.2397,40.3673 0,0 -82.56718,21.2588 -82.56718,21.2588 0,0 -13.96026,19.4083 -13.96026,19.4083 0,0 318.81044,-86.1402 318.81044,-86.1402 0,0 95.3956,95.7215 95.3956,95.7215 0,0 -516.80063,133.0506 -516.80063,133.0506 0,0 -13.96026,19.4082 -13.96026,19.4082 0,0 225.56609,-53.1041 225.56609,-53.1041 0,0 44.2012,42.3353 44.2012,42.3353 0,0 -97.9871,23.7968 -97.9871,23.7968 0,0 -13.46987,3.1818 -13.46987,3.1818 0,0 7.08747,6.702 7.08747,6.702 0,0 116.3474,106.9956 116.3474,106.9956 0,0 42.3957,7.4586 42.3957,7.4586 0,0 -124.6854,-114.1105 -124.6854,-114.1105 0,0 97.7416,-23.8826 97.7416,-23.8826 0,0 13.1287,-3.3121 13.1287,-3.3121 0,0 -7.1249,-6.7144 -7.1249,-6.7144 0,0 -51.2799,-49.0521 -51.2799,-49.0521 0,0 393.464,-109.9664 393.464,-109.9664 0,0 112.02329,105.5681 112.02329,105.5681 0,0 7.4659,6.8222 7.4659,6.8222 0,0 11.9076,-3.6975 11.9076,-3.6975 0,0 182.3073,-59.7565 182.3073,-59.7565 0,0 7.7019,-21.4743 7.7019,-21.4743 0,0 -192.9916,63.8626 -192.9916,63.8626 0,0 -111.41399,-105.3541 -111.41399,-105.3541 0,0 -6.7951,-6.6184 -6.7951,-6.6184 0,0 -11.8778,3.7251 -11.8778,3.7251 0,0 -88.513,26.9244 -88.513,26.9244 0,0 -95.4315,-95.7108 -95.4315,-95.7108 0,0 100.4185,-30.6451 100.4185,-30.6451 0,0 -36.1688,-5.3982 -36.1688,-5.3982 0,0 0,0 0,0 m 378.46399,328.5199 c 0,0 -321.86549,92.7376 -321.86549,92.7376 0,0 -12.8828,3.3981 -12.8828,3.3981 0,0 8.0557,7.0168 8.0557,7.0168 0,0 60.212,51.9832 60.212,51.9832 0,0 42.3958,7.4586 42.3958,7.4586 0,0 -68.8623,-59.2011 -68.8623,-59.2011 0,0 285.24509,-81.9189 285.24509,-81.9189 0,0 7.702,-21.4743 7.702,-21.4743 0,0 0,0 0,0"
     id="path12522"
     style="fill:#f7dc1f;fill-opacity:1;stroke:none" />
  <path
     d="m 846.08451,873.5283 c 0,0 -301.7583,86.6614 -301.7583,86.6614 0,0 -50.1683,-53.0603 -50.1683,-53.0603 0,0 -4.6569,6.4741 -4.6569,6.4741 0,0 46.2743,48.849 46.2743,48.849 0,0 -99.91543,25.7255 -99.91543,25.7255 0,0 -4.64656,6.4599 -4.64656,6.4599 0,0 318.14809,-86.3363 318.14809,-86.3363 0,0 104.0926,104.3993 104.0926,104.3993 0,0 -534.15925,137.5315 -534.15925,137.5315 0,0 -4.64657,6.4599 -4.64657,6.4599 0,0 225.18822,-53.2513 225.18822,-53.2513 0,0 53.459,51.2256 53.459,51.2256 0,0 -106.7624,25.9855 -106.7624,25.9855 0,0 -4.5161,1.0567 -4.5161,1.0567 0,0 2.397,2.2406 2.397,2.2406 0,0 121.4856,111.6001 121.4856,111.6001 0,0 14.1215,2.4844 14.1215,2.4844 0,0 -124.2689,-113.973 -124.2689,-113.973 0,0 106.6923,-26.0135 106.6923,-26.0135 0,0 4.3864,-1.1125 4.3864,-1.1125 0,0 -2.3709,-2.2367 -2.3709,-2.2367 0,0 -55.8643,-53.4513 -55.8643,-53.4513 0,0 410.1953,-114.6545 410.1953,-114.6545 0,0 116.56159,109.9922 116.56159,109.9922 0,0 2.5034,2.2757 2.5034,2.2757 0,0 3.9651,-1.2338 3.9651,-1.2338 0,0 189.8332,-62.3577 189.8332,-62.3577 0,0 2.5749,-7.1791 2.5749,-7.1791 0,0 -193.4149,63.7405 -193.4149,63.7405 0,0 -116.36409,-109.9093 -116.36409,-109.9093 0,0 -2.2625,-2.201 -2.2625,-2.201 0,0 -3.9609,1.2352 -3.9609,1.2352 0,0 -96.6386,29.3454 -96.6386,29.3454 0,0 -104.0565,-104.4099 -104.0565,-104.4099 0,0 100.5914,-30.5655 100.5914,-30.5655 0,0 -12.0385,-1.7968 -12.0385,-1.7968 0,0 0,0 0,0 m 363.83519,333.8668 c 0,0 -313.96329,90.2783 -313.96329,90.2783 0,0 -4.2774,1.1308 -4.2774,1.1308 0,0 2.6791,2.3385 2.6791,2.3385 0,0 65.7661,56.7249 65.7661,56.7249 0,0 14.1215,2.4843 14.1215,2.4843 0,0 -68.6535,-59.1321 -68.6535,-59.1321 0,0 301.75829,-86.6613 301.75829,-86.6613 0,0 2.5692,-7.1634 2.5692,-7.1634 0,0 0,0 0,0"
     id="path12524"
     style="fill:#d6870d;fill-opacity:1;stroke:none" />
  <path
     d="m 548.12197,775.32551 1.86418,53.24979 -208.79217,290.0711 -14.00405,-37.377 z"
     id="path3392"
     style="fill:#7d3f12;fill-opacity:1;stroke:#f8db37;stroke-width:10;stroke-linecap:butt;stroke-linejoin:bevel;stroke-miterlimit:4;stroke-opacity:1;stroke-dasharray:none" />
  <path
     d="m 2137.7435,437.7866 c 0,0 -1.3538,-207.7509 -1.3538,-207.7509 0,0 -588.6393,-37.7924 -588.6393,-37.7924 0,0 15.9331,209.4883 15.9331,209.4883 0,0 574.06,36.055 574.06,36.055 0,0 0,0 0,0"
     id="path15947"
     style="fill:#8e5213;fill-opacity:1;stroke:#f7dc1f;stroke-width:10;stroke-linejoin:bevel;stroke-miterlimit:4;stroke-opacity:1;stroke-dasharray:none" />
  <path
     d="m 1989.1351,428.4529 c 0,0 147.9031,-102.0545 147.9031,-102.0545 0,0 -0.1343,-20.6141 -0.1343,-20.6141 0,0 -114.8923,78.7667 -114.8923,78.7667 0,0 -44.7555,-35.5748 -44.7555,-35.5748 0,0 50.2679,-34.7017 50.2679,-34.7017 0,0 6.8661,-4.7107 6.8661,-4.7107 0,0 -7.0689,-5.5974 -7.0689,-5.5974 0,0 -112.2787,-88.1418 -112.2787,-88.1418 0,0 -28.1797,-1.8092 -28.1797,-1.8092 0,0 119.6367,93.7736 119.6367,93.7736 0,0 -50.2248,34.708 -50.2248,34.708 0,0 -6.7848,4.7356 -6.7848,4.7356 0,0 7.0776,5.5984 7.0776,5.5984 0,0 51.8249,41.1874 51.8249,41.1874 0,0 -46.7391,32.7085 -46.7391,32.7085 0,0 27.4818,1.726 27.4818,1.726 m -427.3946,-52.2683 c 0,0 172.2859,-123.6934 172.2859,-123.6934 0,0 6.7415,-4.7418 6.7415,-4.7418 0,0 -7.3063,-5.6246 -7.3063,-5.6246 0,0 -53.8872,-41.418 -53.8872,-41.418 0,0 -28.1798,-1.8092 -28.1798,-1.8092 0,0 61.3174,47.0585 61.3174,47.0585 0,0 -152.5525,109.4419 -152.5525,109.4419 0,0 1.581,20.7866 1.581,20.7866"
     id="path15949"
     style="fill:#f7dc1f;fill-opacity:1;stroke:none" />
  <path
     d="m 1979.961,427.8767 c 0,0 157.0323,-108.3699 157.0323,-108.3699 0,0 -0.045,-6.8613 -0.045,-6.8613 0,0 -114.8161,78.7921 -114.8161,78.7921 0,0 -54.1388,-43.0481 -54.1388,-43.0481 0,0 54.7981,-37.8478 54.7981,-37.8478 0,0 2.3083,-1.5691 2.3083,-1.5691 0,0 -2.3778,-1.8672 -2.3778,-1.8672 0,0 -117.0868,-91.8848 -117.0868,-91.8848 0,0 -9.3864,-0.6026 -9.3864,-0.6026 0,0 119.5404,93.7622 119.5404,93.7622 0,0 -54.7954,37.8492 -54.7954,37.8492 0,0 -2.2623,1.5886 -2.2623,1.5886 0,0 2.3583,1.866 2.3583,1.866 0,0 56.5161,44.9002 56.5161,44.9002 0,0 -46.799,32.7176 -46.799,32.7176 0,0 9.1538,0.5749 9.1538,0.5749 m -418.7468,-58.6108 c 0,0 167.9553,-120.5387 167.9553,-120.5387 0,0 2.2395,-1.576 2.2395,-1.576 0,0 -2.4294,-1.8746 -2.4294,-1.8746 0,0 -58.7916,-45.1724 -58.7916,-45.1724 0,0 -9.3863,-0.6026 -9.3863,-0.6026 0,0 61.2691,47.0527 61.2691,47.0527 0,0 -161.3839,115.7777 -161.3839,115.7777 0,0 0.5273,6.9339 0.5273,6.9339"
     id="path15951"
     style="fill:#d6870d;fill-opacity:1;stroke:none" />
</svg>
