<?xml version="1.0" encoding="UTF-8" standalone="no"?>
<!-- Created with Inkscape (http://www.inkscape.org/) -->

<svg
   xmlns:dc="http://purl.org/dc/elements/1.1/"
   xmlns:cc="http://creativecommons.org/ns#"
   xmlns:rdf="http://www.w3.org/1999/02/22-rdf-syntax-ns#"
   xmlns:svg="http://www.w3.org/2000/svg"
   xmlns="http://www.w3.org/2000/svg"
   version="1.1"
   width="1920"
   height="1080"
   id="svg2">
  <defs
     id="defs4">
    <filter
       color-interpolation-filters="sRGB"
       id="filter4002">
      <feGaussianBlur
         id="feGaussianBlur4004"
         stdDeviation="1.1306803" />
    </filter>
    <filter
       color-interpolation-filters="sRGB"
       id="filter4026">
      <feGaussianBlur
         id="feGaussianBlur4028"
         stdDeviation="0.69921413" />
    </filter>
    <filter
       color-interpolation-filters="sRGB"
       id="filter4106">
      <feGaussianBlur
         id="feGaussianBlur4108"
         stdDeviation="0.90116185" />
    </filter>
    <filter
       x="-0.11075834"
       y="-0.035979878"
       width="1.2215167"
       height="1.0719599"
       color-interpolation-filters="sRGB"
       id="filter4130">
      <feGaussianBlur
         id="feGaussianBlur4132"
         stdDeviation="0.45190817" />
    </filter>
    <filter
       color-interpolation-filters="sRGB"
       id="filter4386">
      <feGaussianBlur
         id="feGaussianBlur4388"
         stdDeviation="6.4296876" />
    </filter>
    <filter
       color-interpolation-filters="sRGB"
       id="filter4414">
      <feGaussianBlur
         id="feGaussianBlur4416"
         stdDeviation="6.5901486" />
    </filter>
    <filter
       color-interpolation-filters="sRGB"
       id="filter4430">
      <feGaussianBlur
         id="feGaussianBlur4432"
         stdDeviation="6.1438628" />
    </filter>
    <filter
       color-interpolation-filters="sRGB"
       id="filter4446">
      <feGaussianBlur
         id="feGaussianBlur4448"
         stdDeviation="6.399302" />
    </filter>
    <filter
       color-interpolation-filters="sRGB"
       id="filter4465">
      <feGaussianBlur
         id="feGaussianBlur4467"
         stdDeviation="6.6398305" />
    </filter>
    <filter
       color-interpolation-filters="sRGB"
       id="filter4485">
      <feGaussianBlur
         id="feGaussianBlur4487"
         stdDeviation="6.8573812" />
    </filter>
    <filter
       color-interpolation-filters="sRGB"
       id="filter4501">
      <feGaussianBlur
         id="feGaussianBlur4503"
         stdDeviation="7.0277588" />
    </filter>
    <filter
       color-interpolation-filters="sRGB"
       id="filter4517">
      <feGaussianBlur
         id="feGaussianBlur4519"
         stdDeviation="6.9008854" />
    </filter>
    <filter
       color-interpolation-filters="sRGB"
       id="filter4529">
      <feGaussianBlur
         id="feGaussianBlur4531"
         stdDeviation="6.4781189" />
    </filter>
    <filter
       x="-0.065660752"
       y="-0.26668334"
       width="1.1313215"
       height="1.5333667"
       color-interpolation-filters="sRGB"
       id="filter4870">
      <feGaussianBlur
         stdDeviation="20.42836"
         id="feGaussianBlur4872" />
    </filter>
    <filter
       x="-0.24414144"
       y="-0.72225159"
       width="1.4882829"
       height="2.4445033"
       color-interpolation-filters="sRGB"
       id="filter4874">
      <feGaussianBlur
         stdDeviation="20.42836"
         id="feGaussianBlur4876" />
    </filter>
    <filter
       x="-0.087545656"
       y="-0.39395544"
       width="1.1750913"
       height="1.7879109"
       color-interpolation-filters="sRGB"
       id="filter4878">
      <feGaussianBlur
         stdDeviation="20.42836"
         id="feGaussianBlur4880" />
    </filter>
    <filter
       x="-0.24762912"
       y="-0.82543039"
       width="1.4952582"
       height="2.6508608"
       color-interpolation-filters="sRGB"
       id="filter4882">
      <feGaussianBlur
         stdDeviation="20.42836"
         id="feGaussianBlur4884" />
    </filter>
    <filter
       x="-0.24075052"
       y="-0.75365376"
       width="1.481501"
       height="2.5073075"
       color-interpolation-filters="sRGB"
       id="filter4886">
      <feGaussianBlur
         stdDeviation="20.42836"
         id="feGaussianBlur4888" />
    </filter>
    <filter
       x="-0.074716546"
       y="-0.30405"
       width="1.1494331"
       height="1.6081001"
       color-interpolation-filters="sRGB"
       id="filter4890">
      <feGaussianBlur
         stdDeviation="20.42836"
         id="feGaussianBlur4892" />
    </filter>
  </defs>
  <metadata
     id="metadata7">
    <rdf:RDF>
      <cc:Work
         rdf:about="">
        <dc:format>image/svg+xml</dc:format>
        <dc:type
           rdf:resource="http://purl.org/dc/dcmitype/StillImage" />
        <dc:title></dc:title>
      </cc:Work>
    </rdf:RDF>
  </metadata>
  <g
     id="layer3">
    <rect
       width="1920"
       height="1080"
       x="0"
       y="0"
       id="rect3842"
       style="fill:#a8a8a8;fill-opacity:1;stroke:none;display:inline" />
    <path
       d="m 138.60747,206.00143 c -162.458108,0 -294.15624,19.00604 -294.15624,42.4375 0,15.87674 60.502172,29.69475 150.0312423,36.96875 -30.4189503,8.39844 -48.2187503,18.55812 -48.2187503,29.5 0,28.8988 124.10198,52.34375 277.187498,52.34375 153.08552,0 277.1875,-23.44495 277.1875,-52.34375 0,-17.70116 -46.61244,-33.34342 -117.875,-42.8125 31.55839,-6.76036 50,-14.89349 50,-23.65625 0,-23.43146 -131.69814,-42.4375 -294.15625,-42.4375 z"
       id="path3892"
       style="fill:#ebebeb;fill-opacity:0.70472436;stroke:none;display:inline;filter:url(#filter4890)" />
    <path
       d="m 1878.0826,403.99776 c -164.0202,0 -297,20.25645 -297,45.25 0,6.39155 8.7197,12.4871 24.4063,18 -104.989,10.43107 -177.125,32.0181 -177.125,56.96875 0,35.14719 143.0768,63.625 319.5937,63.625 176.517,0 319.625,-28.47781 319.625,-63.625 0,-12.85358 -19.151,-24.8383 -52.0624,-34.84375 94.8077,-7.55821 159.5312,-22.69052 159.5312,-40.125 0,-24.99355 -132.9485,-45.25 -296.9688,-45.25 z"
       id="path3890"
       style="fill:#ebebeb;fill-opacity:0.70472436;stroke:none;display:inline;filter:url(#filter4870)" />
    <path
       d="m 1168.1405,22.168258 c 0,34.36614 -125.3666,62.22539 -280.01439,62.22539 -154.6476,0 -280.01426,-27.85925 -280.01426,-62.22539 0,-34.36614 125.36666,-62.225401 280.01426,-62.225401 154.64779,0 280.01439,27.859261 280.01439,62.225401 z"
       id="path3922"
       style="fill:#ebebeb;fill-opacity:0.70472436;stroke:none;display:inline;filter:url(#filter4878)" />
    <path
       d="m 274.35744,20.754049 c 0,17.96411 -45.58788,32.52691 -101.82338,32.52691 -56.2355,0 -101.823381,-14.5628 -101.823381,-32.52691 0,-17.9641197 45.587881,-32.52692 101.823381,-32.52692 56.2355,0 101.82338,14.5628003 101.82338,32.52692 z"
       id="path3918"
       style="fill:#ebebeb;fill-opacity:0.70472436;stroke:none;display:inline;filter:url(#filter4886)" />
    <path
       d="m 842.8713,348.85159 c 0,16.40202 -44.32155,29.69848 -98.99495,29.69848 -54.6734,0 -98.99495,-13.29646 -98.99495,-29.69848 0,-16.40202 44.32155,-29.69849 98.99495,-29.69849 54.6734,0 98.99495,13.29647 98.99495,29.69849 z"
       id="path3920"
       style="fill:#ebebeb;fill-opacity:0.70472436;stroke:none;display:inline;filter:url(#filter4882)" />
    <path
       d="m 1531.5932,248.44243 c 0,18.74516 -44.9547,33.94112 -100.4091,33.94112 -55.4545,0 -100.4091,-15.19596 -100.4091,-33.94112 0,-18.74517 44.9546,-33.94113 100.4091,-33.94113 55.4544,0 100.4091,15.19596 100.4091,33.94113 z"
       id="path3924"
       style="fill:#ebebeb;fill-opacity:0.70472436;stroke:none;display:inline;filter:url(#filter4874)" />
  </g>
  <g
     id="layer1"
     style="display:inline">
    <path
       d="m 240.78125,790.8125 c 7.49516,17.88871 19.32347,39.10226 11.90625,45.5625 -3.80871,3.20941 -9.47293,4.04953 -17.15625,0.3125 23.6921,25.39587 44.08845,94.3644 -2.125,58.46875 6.12647,13.8106 13.78934,20.99046 25.125,28.6875 5.22832,8.13836 5.48754,19.15475 3.96875,29.03125 -1.95772,-3.51904 -4.31896,-6.92718 -7.34375,-10.125 1.9108,7.00515 2.92113,13.25792 2.28125,18.15625 -9.25231,-9.9208 -18.66978,-19.16488 -26.3125,-36.0625 4.14125,-0.47426 8.98647,-0.3566 14.875,1.3125 -18.27706,-21.5666 -48.43973,-38.24852 -67.53125,-45.46875 8.30487,5.38804 21.1618,14.77052 27.4375,29.78125 18.00376,11.70354 26.28924,29.47552 31.03125,49.46875 -7.59498,0.69475 -10.83685,-2.55386 -15.1875,-4.8125 5.24034,7.3206 11.33809,14.53802 17.71875,21.75 1.99249,8.07547 5.45973,15.77035 9.5,22.34375 -7.63148,-3.69084 -16.49669,4.30165 -22.40625,-15.78125 -5.88994,7.90504 -8.86727,15.34224 -10.40625,22.5 -6.41509,-4.9669 -12.33074,-11.62371 -18.09375,-18.75 -1.74188,-1.76018 -3.12154,-3.7707 -0.90625,-8.53125 -0.32728,-0.2061 -0.64227,-0.38441 -0.96875,-0.5625 0.60245,-0.94038 1.36512,-1.87461 2.34375,-2.78125 -2.96534,-2.29432 -6.20811,-3.60966 -6.40625,-15.71875 -1.20941,-8.08648 -4.8173,-16.37226 1.875,-23.75 -7.86474,3.09275 -13.54556,-5.86163 -3.71875,-7.65625 -0.61963,-4.53659 0.95471,-7.97669 3.4375,-10.9375 -3.61272,-8.1828 -2.4065,-17.48806 -2.25,-26.5625 -3.6057,8.26906 -7.3129,16.18409 -11.90625,21.15625 2.70021,4.64604 3.43515,8.43135 2.375,11.4375 1.21663,2.79637 0.23036,8.65088 -5.34375,10.5 3.1807,3.11872 6.9202,5.8372 4.71875,12.875 6.27821,5.0431 0.44744,10.16418 -6.75,15.28125 1.61558,3.87712 2.81396,7.58182 3.34375,11.0625 -2.23937,-1.8931 -4.1248,-4.29222 -5.3125,-7.75 1.49758,-3.26581 0.47182,-5.95752 -0.90625,-8.5625 -9.59552,1.91847 -17.76702,-10.12693 -23.84375,-17.78125 -0.28184,-2.26895 -1.28939,-3.78654 0,-7.71875 -7.44339,-2.62415 -14.52885,-6.44858 -21.4375,-10.84375 3.76097,8.14964 5.6279,15.41519 7.03125,22.46875 3.66079,-0.25102 6.15134,0.1364 7.5,1.125 8.03417,4.74254 17.68262,17.80953 13.625,29.96875 4.54473,0.72669 7.4868,-0.0471 9.625,-1.59375 7.59715,2.48568 10.36108,7.07252 12.46875,11.9375 -0.50793,1.08026 -1.14801,2.11629 -1.9375,3.09375 l 0.78125,0.25 c -0.99593,2.98575 -1.01346,6.56829 0,10.8125 3.55999,-1.47322 6.94114,-3.47765 12.34375,0.0937 10.43606,7.35405 19.51283,15.42705 25.34375,25.25005 l 1.34375,-1.5313 c -0.18325,7.7238 0.0281,15.2687 -1.4375,22.9063 l 57,68.7811 c 5.97145,-11.9896 17.31604,-18.731 17.09375,-36.7811 -6.41128,-5.3159 -16.01502,-11.5052 -19.78125,-20.5 7.8285,-5.4037 16.65651,-10.3769 30.3125,-13.1562 6.31953,-7.6477 10.99404,-15.9481 9.625,-26.6876 4.05392,-8.4217 16.42899,-27.41351 29.0625,-13.0312 10.05243,-12.91439 21.56334,-22.94597 26.125,-46.81255 9.23339,-7.4869 18.30263,-13.63002 29.21875,-34.0625 -11.94272,6.43363 -20.50497,16.02569 -42.0625,13.59375 -1.59477,10.47319 -4.87286,18.75296 -9.3125,25.53125 -0.0245,-0.53596 -0.028,-1.11043 -0.0312,-1.71875 -0.80853,-5.84791 -3.32807,-11.88313 1.5625,-17.15625 -5.70279,2.17005 -9.73405,-4.31416 -2.625,-5.53125 -0.4111,-3.28026 0.74628,-5.75714 2.5625,-7.875 -2.54297,-5.93664 -1.59181,-12.66846 -1.40625,-19.21875 -2.66937,5.94126 -5.42526,11.63442 -8.78125,15.1875 1.91235,3.37592 2.41445,6.11926 1.625,8.28125 0.85606,2.02859 0.10165,6.27209 -3.9375,7.5625 2.27145,2.27715 4.9581,4.24891 3.3125,9.3125 4.4924,3.69115 0.23724,7.33184 -5,10.96875 1.7435,4.3182 2.73159,8.35767 2.4375,11.90625 -3.70543,3.24959 -7.71926,6.08207 -11.96875,8.625 -10.65781,24.7042 -31.06124,28.4721 -49.34375,36.7813 -1.21475,-2.1164 -1.87967,-4.4964 -2.9375,-6.6875 20.00468,-12.3742 36.85478,-28.05513 47.65625,-50.06255 -11.1582,5.55546 -22.25949,11.40006 -35.40625,5 -5.21048,-10.63641 -1.1859,-25.86224 8.3125,-39.0625 4.89944,-5.11608 12.29158,-10.89972 17.6875,-19.28125 4.30928,-15.78403 12.01631,-28.49039 6.09375,-53.5 -6.80019,31.79461 -17.76756,37.92833 -32.4375,32.75 -10.88301,-16.87331 -8.1582,-24.2852 -10.8125,-35.4375 6.08949,-6.15426 13.67169,-10.90988 13.875,-22.625 -4.97853,6.68586 -9.49052,9.56941 -15.75,5 -0.42974,-14.84968 -11.16572,-25.41736 -24.28125,-44.40625 z"
       id="path4846"
       style="fill:#808080;fill-opacity:1;stroke:none" />
    <path
       d="m 445.59375,928.40625 c -11.76605,19.83333 -26.45304,54.88373 -28.96875,87.21875 -2.42256,-7.5303 -2.86248,-15.5056 2.8125,-24.8125 -8.41039,-5.58676 -8.57623,-11.53836 -10.90625,-17.40625 -2.22651,10.54928 -0.86171,15.44285 0.1875,20.875 -5.51906,9.87085 -4.40385,16.88855 -4.6875,24.49995 8.8076,-1.3432 7.51395,9.129 6.4375,13.3438 -1.04863,0.9678 -1.83536,2.0213 -2.46875,3.125 -3.4427,-4.8359 -5.97148,-10.6775 -6.875,-18.375 -9.30956,-10.1733 -15.91446,-22.31834 -13.28125,-41.09375 -16.54711,-2.97887 -20.77874,-11.97832 -28.21875,-19.40625 3.57067,17.59477 8.93056,24.17263 14.125,31.78125 -1.90998,18.73435 4.43324,28.74195 9.03125,40.56255 12.57302,-7.8753 17.51524,8.9717 18.65625,16.125 -3.40025,7.6706 -1.74514,14.8874 1.25,21.9687 16.41142,8.7797 20.7641,19.1606 29.46875,28.9687 l 12.03125,-3.4687 14.625,-0.7813 c 1.02223,-17.1486 2.36307,-34.4885 2.21875,-50.875 1.49366,-1.0312 3.19865,-1.4213 4.875,-1.9374 -1.4531,-2.9578 -3.14701,-5.1558 -5.09375,-6.625 -0.0217,-0.4783 -0.0375,-0.9614 -0.0625,-1.4376 -0.16084,0.362 -0.29004,0.731 -0.4375,1.0938 -0.90299,-0.6116 -1.84338,-1.0883 -2.84375,-1.4062 -1.35599,-4.5414 -2.22313,-9.2409 1.59375,-15.2813 2.27994,-0.148 4.68142,-1.2574 7.3125,-4.25 -9.41648,-5.8731 -10.2119,-19.93406 -7.46875,-27.53125 0.35422,-1.40374 1.82543,-3.02243 4.40625,-4.875 -2.95588,-5.48018 -5.73097,-11.36268 -7.71875,-18.875 -2.18388,6.74436 -4.7946,13.20455 -8.3125,19.0625 3.02999,1.91197 3.18602,3.48698 4.25,5.15625 0.16949,8.45974 1.39772,21.0165 -6.0625,25.0312 0.51799,2.4983 1.3238,4.8351 4.125,6.1876 2.2644,6.0126 0.13316,10.7507 -1.65625,15.5624 -1.48713,0.2552 -2.74776,0.7973 -3.8125,1.5938 -6.27817,-17.7516 -8.34905,-35.97197 -1.96875,-55.1875 -5.35616,-18.7825 -0.31748,-37.25598 3.4375,-48.53125 z M 429.25,1009.2812 c 5.23608,20.5893 3.7631,35.8503 2.53125,51.3126 -0.19036,-1.2541 -0.34336,-2.5168 -0.375,-3.8126 -2.66222,-2.4657 -5.50221,-4.7363 -8.34375,-7 0.22509,-1.3358 0.57251,-2.6467 1.09375,-3.9374 -3.75039,-8.5014 -10.20016,-15.7453 -7.71875,-27.1563 -0.0535,0.9942 -0.0961,1.9813 -0.125,2.9687 4.27391,-5.9764 8.6973,-9.7179 12.9375,-12.375 z"
       id="path4836"
       style="fill:#808080;fill-opacity:1;stroke:none" />
    <path
       d="m 139.9375,887 c -5.06692,18.27088 -8.19245,37.65634 -20.28125,51.90625 3.21805,7.40325 4.30613,15.21708 0.375,23.9375 18.6212,9.4214 1.95222,23.98352 -11.96875,13.125 9.03172,18.74707 -3.09529,33.23695 -10.3125,48.71875 -0.0031,0.01 0.0031,0.021 0,0.031 -2.378458,1.2784 -4.68319,2.6549 -6.90625,4.125 -1.533793,-9.0175 -1.203743,-18.4475 4.78125,-29.12505 -1.659589,-14.57643 0.220366,-29.13493 14.21875,-43.65625 C 97.457179,943.15874 99.45264,932.79441 97.6875,921.75 89.768593,939.13091 90.281277,948.14057 90,957.9375 c -13.350031,14.93788 -14.136031,27.48037 -17.5625,40.53125 15.746621,1.07476 9.487014,18.69025 6,25.56245 -7.720496,4.4804 -10.81069,11.7187 -12.65625,19.6876 8.566307,17.6507 5.968569,29.2509 7.25,42.9687 -0.952223,1.8506 -1.933765,3.7034 -2.84375,5.5625 l 15.65625,-0.5625 3.1875,1.1563 c 0.02175,-0.4246 0.04316,-0.8559 0.0625,-1.2813 l 27.03125,-0.9687 c -4.4899,-10.8718 -2.39201,-22.1525 3.75,-33.6876 5.50121,-1.5966 10.88652,-3.2953 16.03125,-5.1874 -3.90644,-0.4641 -7.63296,-0.1096 -11.84375,-1.8438 2.21296,-3.3457 4.72184,-6.7148 7.46875,-10.0938 -0.61432,-0.7834 -1.21755,-1.5661 -1.8125,-2.3437 14.2252,-10.651 30.06379,-17.6448 49.15625,-17.25 15.33216,-9.9949 33.24129,-10.5838 44.375,-10.3437 -22.32722,-5.3583 -60.9505,-8.9094 -91.59375,-0.4063 6.53368,2.1717 11.10366,5.127 14.65625,8.1875 -8.22906,5.0333 -15.76224,8.2878 -22.96875,10.6875 -6.07036,-9.9139 -7.60259,-18.4722 3.75,-23.125 -0.2372,-15.4035 8.84173,-18.63824 17.0625,-23 -10.06985,-7.00905 -8.56404,-19.3385 -4.46875,-24.21875 -0.34133,-6.65077 3.39869,-13.82519 11.5625,-21.53125 C 144.99668,923.75376 142.25762,905.70253 139.9375,887 z"
       id="path4818"
       style="fill:#808080;fill-opacity:1;stroke:none" />
    <g
       transform="matrix(-0.430496,0.03079765,0.03079765,0.430496,1155.1911,571.88866)"
       id="g4824"
       style="fill:#808080;fill-opacity:1">
      <path
         d="m 391.81763,1107.85 c 15.79287,-25.9577 21.46364,-51.4434 55.25171,-78.2403 3.90269,-17.3819 4.65913,-34.48822 -6.26213,-50.57122 -0.35416,-16.77989 4.01025,-57.26167 35.9286,-44.50179 5.59898,-28.84858 15.87697,-54.23989 3.78217,-96.16222 8.69893,-19.49263 18.21202,-36.68703 19.08309,-78.27566 -13.89311,20.00847 -19.79941,42.2717 -56.29351,55.8997 13.76063,41.71709 3.7329,72.09156 -13.28821,99.13149 3.17297,50.75389 -29.77518,73.13938 -52.58153,103.4899 4.59259,29.4185 -10.6163,57.2943 -22.42333,85.4353 z"
         id="path4826"
         style="fill:#808080;fill-opacity:1;stroke:none" />
      <path
         d="m 292.0383,731.83736 c 37.20912,42.8793 89.05149,123.55495 105.32811,200.48223 -12.21314,-11.85974 -23.89372,-18.55258 -34.6585,-22.8583 -3.59525,51.4581 7.21969,86.52789 16.77507,123.03011 8.03285,-11.1475 13.85503,-27.7363 18.42446,-47.40882 11.1031,41.22582 -0.70901,77.75632 -4.38227,115.95452 l -64.21222,8.1774 c -11.3517,-46.6258 -23.93115,-93.7701 -29.56564,-137.98211 7.66983,11.27289 11.3442,23.54059 30.85552,31.86551 14.78326,-55.20781 17.99701,-109.67244 -10.63052,-162.0919 4.45098,-45.03415 -14.71471,-85.0142 -27.93401,-109.16864 z"
         id="path4828"
         style="fill:#808080;fill-opacity:1;stroke:none" />
      <path
         d="m 272.30452,853.14367 c 4.47474,-13.71521 8.36218,-28.24639 9.7902,-46.19461 7.76541,14.47381 16.40824,28.10399 26.8488,40.00574 -6.11796,5.61088 -5.83214,9.22605 -7.56817,13.47132 3.10884,19.35692 5.5272,48.48968 24.19413,54.56055 -0.14871,5.90993 -0.99789,11.61392 -6.8254,15.85462 -2.67833,14.6433 4.10624,24.5125 10.17389,34.7434 8.84804,-0.083 15.20951,4.5727 19.68465,12.82229 -8.55111,6.1499 -8.14281,11.0649 -6.82541,15.8546 4.33421,25.51632 10.05908,49.69552 22.35972,67.55242 l -31.80302,11.2186 c -0.54843,-22.9082 -8.53813,-45.9625 -19.56632,-69.0766 -5.94076,-11.55382 -13.79845,-11.34482 -21.47204,-12.26542 3.21894,-11.3061 8.5568,-18.72879 15.84028,-22.58609 1.21514,-10.9137 1.20932,-21.9534 -9.98824,-34.1475 -5.25908,0.6044 -11.18865,-0.9429 -18.42357,-6.6786 19.04162,-17.28009 15.02857,-49.63084 5.63572,-65.81788 -1.38752,-3.05395 -5.40594,-6.15956 -12.05522,-9.31684 z"
         id="path4830"
         style="fill:#808080;fill-opacity:1;stroke:none" />
      <path
         d="m 418.67417,1036.4534 c 2.5165,-18.0726 -0.43366,-33.4718 11.8015,-56.29712 -1.99276,-10.51109 -5.65397,-20.12019 -15.50788,-26.38139 -4.19554,-9.1644 -11.44085,-32.51796 9.19414,-33.0943 -3.79144,-17.23576 -4.17966,-33.68143 -20.84051,-53.90514 0.14767,-12.81795 1.29201,-24.56321 -8.14266,-47.69402 -2.88767,14.34057 -0.83559,28.01986 -17.70174,44.23167 17.53009,19.71345 19.24426,38.84609 16.30877,57.80804 13.84871,27.21855 1.02482,47.41205 -4.31016,69.57794 9.54478,15.12032 7.80745,34.11092 8.00841,52.43662 z"
         id="path4832"
         style="fill:#808080;fill-opacity:1;stroke:none" />
    </g>
    <path
       d="m 890.09375,785.59375 c 4.80771,10.52965 11.61137,27.87845 8.375,46.625 10.4081,22.8495 7.40928,45.58346 -0.46875,68.28125 -7.92743,-4.08416 -9.09592,-9.35263 -11.96875,-14.3125 0.51342,9.4421 1.72565,19.26065 3.25,29.21875 -4.80456,-7.44299 -8.68225,-16.274 -11.375,-25.8125 -1.48796,-10.94586 -1.38368,-25.55952 -6.375,-40.28125 -15.08069,-20.58131 -23.10255,-42.35691 -59.375,-59.40625 32.20289,39.16337 29.06052,58.52885 8.5,71.40625 -31.15767,-3.0972 -37.56244,-13.63238 -53.75,-21.21875 -1.59974,-13.4061 -0.0248,-27.2547 -14.125,-38.875 3.32705,12.56625 2.46556,20.82754 -9.1875,24.03125 -18.54065,-13.89047 -41.87438,-10.98013 -77.78125,-13.40625 29.1083,8.21759 66.47184,14.36391 67.15625,29.6875 0.21959,7.76396 -4.23067,15.43792 -16.25,21.1875 32.03854,-2.52942 81.67881,11.26786 98.21875,27.40625 -12.37598,-2.18375 -24.58061,-3.87076 -39.96875,-14.46875 -9.89206,0.75636 -19.12317,3.15564 -25.90625,11.59375 -8.87728,2.92489 -31.12077,7.20188 -29.53125,-11.875 -16.27447,1.72302 -31.493,0.37965 -51.84375,13.65625 -11.79812,-1.45336 -22.49386,-3.72433 -44.78125,2.59375 12.91974,4.13511 25.72959,3.66473 38.9375,20.875 19.96976,-14.13019 37.79479,-13.74787 54.96875,-9.09375 26.50841,-9.96602 43.77601,3.93024 63.65625,11.125 10.40274,-5.05126 21.99347,-4.84682 33.78125,-3.6875 -5.39001,4.08193 -14.49714,7.93777 -28.25,11.28125 22.8025,5.92925 38.97728,3.51923 59.375,-2.84375 16.34276,1.65433 31.20353,13.80552 42.09375,26.40625 -4.94223,-1.5547 -10.14029,-2.63086 -15.8125,-2.875 7.61308,4.50496 13.74827,9.11131 17.34375,13.9375 -16.50629,-0.82702 -32.57687,-0.92539 -53.59375,-9.21875 3.21911,-3.92758 7.55983,-7.93324 14.125,-11.46875 -34.27685,-3.35554 -74.80543,7.65045 -97.625,17.53125 11.83287,-2.33295 31.06027,-5.05289 49.28125,2.75 25.67132,-5.03755 47.98753,3.47652 69.09375,16.9375 -0.10449,0.12172 -0.20827,0.22624 -0.3125,0.34375 -3.00953,-0.92653 -6.02172,-1.89729 -9.03125,-2.71875 1.69978,2.13443 3.5169,4.15328 5.4375,6.0625 -4.59739,3.40328 -8.99964,3.65987 -13.46875,5 7.43648,1.34809 15.19288,2.32746 23.125,3.09375 15.40396,11.02427 34.58175,16.9405 52.0625,19.0625 -11.91267,5.7313 -10.75306,24.314 -41,12.0312 0.99708,3.7705 2.13914,7.2743 3.40625,10.5626 -7.75815,-1.9097 -15.68257,-4.5169 -23.6875,-7.375 -3.68675,-0.9133 -7.12891,-2.4664 -8.03125,-10.4688 -7.17507,-0.1017 -12.65181,2.4126 -15.90625,8.3438 -9.09184,0.2192 -18.20591,1.0446 -26.96875,-6.2188 -0.64804,-5.4722 -4.14594,-8.1903 -8.03125,-10.5 -0.93385,0.8616 -1.94227,1.5906 -3,2.1875 -1.99885,-1.4914 -3.50018,-3.51677 -3.84375,-6.84375 -2.67025,0.73309 -4.88707,2.06726 -12.125,-3.1875 -5.31126,-2.87308 -11.79993,-4.43184 -13.1875,-11.65625 -1.66263,6.01581 -9.48717,5.41103 -6.1875,-1.1875 -2.9536,-1.64656 -4.29061,-4.09556 -4.9375,-6.875 -6.43428,-1.49682 -11.39881,-6.35082 -16.6875,-10.46875 3.28301,5.79733 6.32054,11.51964 7.21875,16.4375 3.94115,0.46668 6.50778,1.6967 7.8125,3.65625 2.19087,0.52209 5.2246,3.70089 3.84375,7.8125 3.25251,-0.49453 6.5085,-1.48444 9.6875,2.9375 5.51032,-1.40548 6.13573,3.75206 6.03125,9.9063 -7.02509,-1.8743 -14.10147,-4.77963 -20.0625,-6.9688 -2.18147,-2.74561 -4.70318,-3.91531 -6.15625,-10.09375 -11.84174,2.51025 -24.16242,3.17322 -36.71875,2.9375 11.43435,7.6658 19.68422,15.69835 27.15625,23.81245 4.59249,-3.253 8.16325,-4.7795 10.71875,-4.5624 14.30743,-0.2088 37.38077,9.2137 41.78125,28.375 6.53094,-2.6791 9.77968,-6.0483 11.34375,-9.7813 10.50192,-2.4769 17.40324,0.1387 23.4375,4 -8.03335,0.8066 -16.07729,1.3227 -23.9375,5.75 5.3633,-0.1161 10.00956,0.2898 13.40625,1.625 -8.76694,4.857 -17.08249,9.9514 -30.5625,12.4063 0.40113,-3.0534 1.37495,-6.5152 3.625,-10.4376 -18.72967,9.2425 -36.09576,27.8881 -44.6875,40.2813 5.34828,-4.9889 14.36712,-12.5312 26.25,-14.3437 11.61079,-10.8112 25.85129,-13.5846 41.03125,-13.4063 -0.86096,5.5685 -3.78997,7.348 -6.1875,10.0625 9.79538,-3.8744 19.8232,-9.3192 29.84375,-14.6875 1.00747,1.2872 2.15521,2.5846 3.4375,3.875 3.48413,-4.7726 6.26095,-10.079 16.1875,-9.7187 14.70467,0.9722 28.72958,3.0824 41.375,7.5624 13.91751,17.3608 31.98293,26.8088 45.53125,42.5938 l 139.2813,-2.8125 c -8.8363,-18.9267 -6.036,-39.3121 -28.2813,-56.5625 -2.5592,0.5364 -5.3098,1.1957 -8.1563,1.875 -6.3766,-12.697 -9.7051,-28.2615 -12.2812,-44.53125 -0.9661,-3.67323 -1.2466,-7.43415 5.3438,-12.0625 -3.3506,-6.34553 -8.1722,-9.95595 -14.9376,-9.96875 -0.1567,-0.27126 -0.3109,-0.54172 -0.4687,-0.8125 2.8532,-4.30972 6.1014,-8.5899 12.5625,-12.6875 1.575,-4.65603 2.28,-9.33284 -0.25,-14.0625 0.3896,-4.61432 2.7375,-15.58317 11.125,-11.15625 2.3731,-7.75299 5.9462,-14.42778 3.8438,-26.28125 2.9521,-5.09603 6.0546,-9.55176 7.5,-20.9375 -4.3924,5.08692 -6.6541,11.03817 -17.0626,13.71875 2.5655,11.84546 -1.0766,19.88704 -6.5312,26.8125 -0.6017,14.01781 -10.2683,19.20903 -17.4062,26.875 0.072,1.46214 -0.047,2.87586 -0.2813,4.28125 -1.0588,-3.69893 -1.4071,-7.74302 -0.5,-12.40625 4.4917,-3.19211 5.1794,-7.54541 5.3437,-12.0625 -7.309,-2.46809 -11.2816,-9.55339 -13.7187,-17.875 l 1.9375,-1.21875 c -0.8723,-0.50004 -1.7767,-0.97606 -2.6562,-1.46875 -1.788,-7.17081 -2.6402,-14.94873 -3.5938,-21.34375 1.3637,-3.23075 1.1807,-6.01279 5.9062,-10.25 -7.88,-9.18884 -14.3748,-19.68018 -20.18745,-30.8125 -1.24581,13.70975 -4.33622,24.80273 -7.875,35.25 5.05648,2.47091 8.09041,4.87199 9.125,7.21875 1.73013,3.0602 3.19825,6.87245 4.21875,11.0625 -1.51679,-0.56372 -3.38948,-1.6557 -5.90625,-3.65625 -5.06496,-3.03274 -11.35924,-4.82222 -12.40625,-11.9375 -1.88061,5.80475 -9.47301,4.8353 -5.96875,-1.46875 -2.81455,-1.73422 -3.98675,-4.164 -4.5,-6.90625 -6.22053,-1.73642 -10.88515,-6.6899 -15.875,-10.9375 2.95925,5.80232 5.67622,11.50207 6.34375,16.34375 3.82943,0.62391 6.27796,1.96791 7.46875,3.9375 2.11754,0.60343 4.96166,3.82437 3.4375,7.78125 3.19785,-0.34426 6.42745,-1.17329 9.34375,3.28125 5.6913,-1.1898 5.85179,4.38933 5.40625,10.75 6.92628,2.09076 12.20215,5.17386 13.90625,10.34375 -0.8684,8.1268 -3.95121,16.01584 -10.34375,21.6875 5.4821,4.44718 10.00535,5.66696 14.03125,5.25 8.4562,9.41887 8.3664,17.854 7.3438,26.1875 -5.6015,2.88648 -9.7546,8.50878 -12.3126,17.125 5.8588,0.76964 11.8697,0.67836 16.3126,9.5625 6.3736,13.7538 11.3465,27.4742 13.375,41.0938 -11.7678,0.7223 -23.4314,-1.8246 -32.1563,-13.375 1.5174,-15.3935 2.9443,-25.86425 -3.53125,-40.31255 -15.52939,21.02605 -24.508,13.60472 -34.65625,11.3125 4.31691,-36.42709 1.53002,-72.20385 -14.84375,-106.75 -3.63796,17.07105 -6.96497,34.31965 -22.5,44.78125 2.84341,-12.65612 6.24628,-25.1445 3.5,-39.375 -2.51442,8.10927 -5.48031,14.88302 -9.1875,19.3125 -2.8958,-15.59533 -6.35426,-30.62775 -3.28125,-52.09375 4.38249,2.13279 9.08385,5.2809 13.84375,10.625 -4.48394,-32.74933 -23.76603,-68.13947 -38.0625,-87.25 z"
       id="path4758"
       style="fill:#808080;fill-opacity:1;stroke:none" />
    <path
       d="m 384.375,845.3125 c 15.95072,11.03439 37.33185,22.56175 34.5625,32 -1.48017,4.7556 -5.79488,8.47863 -14.28125,9.46875 33.64085,8.63479 87.95893,55.78736 29.6875,50.4375 12.60087,8.33573 22.92836,10.24606 36.625,10.625 8.78756,4.03997 14.95955,13.17445 19,22.3125 -3.5485,-1.91334 -7.34901,-3.49633 -11.625,-4.5625 5.38326,4.87276 9.55685,9.59086 11.65625,14.0625 -13.13921,-3.37472 -26.02132,-6.09887 -41.5625,-16.21875 3.23365,-2.63029 7.35843,-5.14061 13.21875,-6.90625 -27.01587,-8.32538 -61.43193,-6.13803 -81.40625,-1.9375 9.89937,0.0661 25.81444,1.04602 39.1875,10.3125 21.47282,0.1627 38.04776,10.67824 52.8125,24.96875 -6.02474,4.67643 -10.52408,3.68446 -15.40625,4.125 8.35945,3.34548 17.39439,6.1729 26.65625,8.8125 6.02378,5.7207 13.09492,10.3297 20.03125,13.6875 -8.41782,1.0011 -11.57829,12.4872 -27.375,-1.25 -0.70434,9.8329 0.78481,17.7342 3.34375,24.5938 -8.08185,-0.7287 -16.61653,-3.1621 -25.3125,-6.0626 -2.41571,-0.5448 -4.67714,-1.5145 -5.375,-6.7187 -0.38281,0 -0.75763,0.037 -1.125,0.062 0.002,-1.1134 0.1338,-2.3074 0.46875,-3.5938 -3.73422,-0.3356 -7.18542,0.3143 -13.875,-9.7812 -5.37478,-6.1617 -12.88313,-11.2104 -11.21875,-21.03125 -4.96033,6.84211 -14.56266,2.33653 -7.25,-4.46875 -2.96571,-3.48843 -3.49696,-7.23057 -3,-11.0625 -7.45153,-4.94822 -11.4626,-13.4265 -16.21875,-21.15625 1.41629,8.90913 2.56673,17.55534 1.375,24.21875 4.77761,2.45992 7.46142,5.27118 8.1875,8.375 2.53132,1.70067 4.85654,7.1583 1.15625,11.7188 4.35975,0.9143 8.97008,1.1971 10.90625,8.3124 8.00606,0.8672 5.83893,8.3119 2.53125,16.5 3.43514,2.3863 6.43283,4.8652 8.75,7.5 -2.8965,-0.3915 -5.7715,-1.3592 -8.625,-3.625 -0.4974,-3.5582 -2.81075,-5.2662 -5.375,-6.7187 -7.05108,6.7851 -20.4134,1.0195 -29.65625,-2.1563 -1.45965,-1.7598 -3.12449,-2.4924 -4.15625,-6.5 -7.68477,1.7986 -15.71805,2.3883 -23.90625,2.4063 7.55857,4.8404 13.04945,9.9694 18.03125,15.1563 2.9491,-2.1834 5.23745,-3.2316 6.90625,-3.125 9.3236,-0.3319 24.49402,5.5073 27.625,17.9374 4.22049,-1.8357 6.31287,-4.0763 7.28125,-6.5312 7.7381,-1.9976 12.51069,0.381 16.90625,3.3438 0.154,1.1839 0.20117,2.4072 0.0625,3.6562 l 0.78125,-0.1875 c 0.77865,3.0328 2.69209,6.0515 5.8125,9.0625 2.2058,-3.1589 3.96191,-6.6615 10.4375,-6.5625 12.75393,0.5745 24.7649,2.4899 34.96875,7.625 l 0.3125,-2 c 4.00353,6.6009 8.24782,12.8434 11.125,20.0625 l 85.0625,27.25 c -1.42718,-13.3181 4.50388,-25.0994 -5.40625,-40.1875 -8.26459,-1.0251 -19.70052,-1.0763 -27.71875,-6.625 3.68573,-8.7736 8.45551,-17.7041 18.46875,-27.4063 1.20486,-9.8474 0.68836,-19.3766 -6.25,-27.68745 -1.1209,-9.27922 -0.92236,-31.93727 17.46875,-26.625 1.51308,-16.29543 5.79381,-30.93462 -3.21875,-53.5 3.74651,-11.28152 8.05897,-21.34257 6.25,-44.4375 -6.59653,11.85351 -8.621,24.49938 -28.09375,34.0625 4.29298,9.67208 5.99146,18.43658 5.90625,26.53125 -0.30919,-0.43819 -0.63852,-0.8957 -0.96875,-1.40625 -3.83123,-4.49149 -9.18628,-8.20417 -7.90625,-15.28125 -3.63584,4.90016 -10.55272,1.57352 -5.21875,-3.28125 -2.1133,-2.54226 -2.45192,-5.23734 -2.0625,-8 -5.34033,-3.63199 -8.15923,-9.7875 -11.53125,-15.40625 0.95129,6.44354 1.69487,12.69871 0.78125,17.5 3.42966,1.81421 5.34432,3.84696 5.84375,6.09375 1.81397,1.24801 3.458,5.23708 0.75,8.5 3.14035,0.69503 6.44018,0.90989 7.78125,6.0625 5.77322,0.69003 4.17222,6.05225 1.71875,11.9375 3.78486,2.69185 6.80226,5.54923 8.46875,8.6875 -1.3721,4.74318 -3.25416,9.31039 -5.46875,13.75 4.32587,26.54453 -10.79195,40.72245 -21.71875,57.56255 -2.17238,-1.129 -4.01565,-2.7822 -6.09375,-4.0626 10.18903,-21.2012 15.91016,-43.48361 13.15625,-67.8437 -6.40859,10.69104 -12.60109,21.59188 -27.125,23.28125 -10.11933,-6.1548 -14.92349,-21.13706 -14.03125,-37.375 1.37211,-6.94953 4.46856,-15.81305 4.5,-25.78125 -4.87148,-15.61967 -5.22602,-30.49399 -23.6875,-48.375 11.39701,30.45074 5.46163,41.55458 -9.6875,45.09375 -18.25813,-8.354 -19.94393,-16.06491 -28.1875,-24.03125 1.81552,-8.46526 5.63912,-16.55143 -0.5,-26.53125 -0.59316,8.31473 -2.82739,13.13438 -10.5625,12.65625 -8.36093,-12.27977 -23.09635,-15.37862 -44.375,-24.3125 z"
       id="path4780"
       style="fill:#808080;fill-opacity:1;stroke:none" />
    <path
       d="m 42.875,922.4375 c -7.97207,9.10888 -15.91756,17.72733 -23.8125,22.21875 1.564565,7.03891 0.983922,12.18027 -1.59375,15.59375 0.419221,4.07051 -3.245179,11.1823 -11.125,11.28125 2.7999189,5.28114 6.488237,10.26984 0.8125,18.375 5.978718,9.00103 -3.5596596,13.16305 -14.84375,16.78125 0.9715637,11.1302 -0.016301,20.7636 -4.8125,27.4375 -3.741088,0.7063 -7.468026,1.4711 -11.15625,2.4062 -0.158094,0.2741 -0.337751,0.5424 -0.5,0.8126 -4.028391,-3.3159 -6.542001,-6.5727 -2.53125,-9.5938 -1.430339,-5.1284 1.321938,-7.0083 3.6875,-9.1875 -3.981113,-1.4598 -4.565994,-5.7281 -3.625,-7.7187 -0.697534,-2.1933 -0.05304,-4.8954 2,-8.1876 -3.203029,-3.69146 -5.708801,-9.51384 -8.125,-15.56245 -0.09107,6.55228 0.57253,13.33225 -2.21875,19.15625 1.725252,2.1926 2.767964,4.6775 2.21875,7.9375 7.051392,1.5161 2.762339,7.8776 -2.84375,5.4687 4.66366,5.4748 1.867222,11.379 0.8125,17.1876 -0.415322,8.7344 -2.777193,9.5984 -4.96875,11.1874 1.45444,1.4342 2.199917,2.9084 2.5625,4.4063 -11.962579,10.2103 -27.35573,17.1699 -41.84375,25 l 20.46875,20.3125 c 22.278583,-8.0356 38.199981,-20.7535 71.8125,-20.5 1.777799,-1.4139 3.480903,-2.8714 5.125,-4.375 15.611056,3.7842 31.162877,7.4567 45.9375,9.2812 -4.751543,-3.2057 -9.905948,-4.7489 -13.4375,-12.9374 23.183997,-6.305 46.073269,-7.7299 68.15625,4.2187 18.92413,-1.9447 35.7618,6.0449 45.9375,11.5625 -18.08648,-15.5718 -52.07218,-37.221 -84.4375,-43.9375 5.005574,5.1148 7.828516,10.0129 9.65625,14.5313 -21.626151,1.5954 -36.389571,-2.9178 -51.75,-6.875 4.673016,-3.3951 11.643714,-5.8594 19.90625,-7.8126 -7.15397,-1.8968 -13.963948,-2.1494 -20.625,-1.6874 9.81109,-10.9228 28.512495,-25.6319 40.03125,-5.1563 7.311847,-6.1717 14.802698,-11.6043 22.03125,-18.0937 4.70878,-0.9358 9.77591,-1.3735 15,-1.625 1.82194,-0.2722 3.64715,-0.2028 5.53125,3.2187 3.23615,-1.281 5.23133,-3.4262 5.59375,-6.6875 4.03627,-1.7792 7.9779,-3.8243 13.25,-2.1875 1.30232,2.334 3.36204,2.9013 5.53125,3.2187 3.06464,-6.6027 13.92275,-6.2156 21.1875,-6.5 1.48579,0.8279 2.79994,0.9045 4.59375,3.4063 4.84582,-3.3149 10.26361,-5.9093 15.9375,-8.125 -6.54446,-1.32337 -11.71194,-3.39927 -16.5625,-5.65625 -1.45797,2.30772 -2.78279,3.65612 -3.96875,4.03125 -6.37697,2.7387 -18.4843,2.7785 -24,-5 -2.43315,2.40874 -3.27005,4.5369 -3.28125,6.5 -4.98709,3.5806 -9.03599,3.0887 -13,2.1563 -1.09646,-2.853 -3.60559,-5.15623 -7.625,-6.8438 -0.67998,2.78423 -0.95103,5.67 -5.46875,7.3438 -0.2212,0.075 -0.43524,0.1455 -0.65625,0.2187 5.54119,-6.84758 10.704,-15.14329 15.21875,-25.90625 14.81126,-7.57953 28.98069,-13.36756 49.84375,-38.1875 -18.21649,5.35297 -32.68343,15.97688 -61.5,6.40625 -12.04378,32.05189 -32.978008,45.59558 -56.53125,53.6875 -12.849967,18.1672 -28.241299,25.3214 -44.34375,29.4063 -0.754942,-1.7391 -1.215575,-3.929 -1.03125,-7.0938 5.814571,-3.9332 12.266539,-6.7283 16.71875,-13.1562 -3.385493,1.7356 -6.481937,2.9246 -9.0625,3.125 4.088192,-5.8144 7.817229,-11.6331 15.65625,-17.37505 0.690012,2.07213 1.157912,4.58197 0.9375,7.78125 9.085393,-11.69835 14.389404,-28.99475 16.03125,-39.5625 -1.866445,4.83948 -5.293377,12.475 -12.3125,17.3125 -4.057833,10.49387 -12.292042,16.66116 -22.03125,21.25 -1.175823,-3.81912 0.155211,-5.83806 0.84375,-8.3125 -0.835339,0.91103 -1.681409,1.8478 -2.5,2.8125 1.275727,-5.66019 3.807723,-10.80856 10,-14.40625 -11.314495,0.75829 -14.921043,-13.01185 -1.625,-11.3125 1.051539,-6.0533 4.434018,-9.78533 8.8125,-12.5625 -1.293874,-11.93264 4.017758,-23.36541 7.90625,-34.90625 z"
       id="path4794"
       style="fill:#808080;fill-opacity:1;stroke:none" />
    <path
       d="m 613.8125,923.3125 c -3.7558,12.55456 -7.71415,20.15434 -5.34375,28.25 -2.57991,3.56495 -5.51434,2.80102 -9.375,0.0625 2.16295,6.29173 7.06998,7.52457 11.4375,9.78125 0.52093,6.4886 3.29576,10.01059 0.375,21.03125 -7.01574,5.36784 -14.00491,3.98056 -23.25,-12 1.18434,14.54572 7.56253,20.04273 12.65625,27.8125 4.3833,3.5812 9.39468,5.4079 12.9375,7.3125 7.44359,5.4648 12.29385,12.9983 11.34375,19.6563 -5.97894,5.7608 -12.99979,4.5449 -20,3.5 9.69087,9.9931 21.52672,15.5101 34.5,18.6874 -0.51362,3.7534 0.87117,7.763 -8.28125,10.375 4.10059,4.0525 7.83813,4.8964 13.28125,6.3438 0.005,0.01 -0.005,0.024 0,0.031 -1.5783,1.5377 -3.19559,3.0735 -4.75,4.625 l 6.6875,2.0313 c -0.13122,5.8048 -4.48239,11.1105 -7.125,15.2813 3.04337,9.7879 10.36102,11.4458 15.6875,16.875 l 10.46875,-26.375 3.28125,1 c 2.07523,6.3087 4.5265,12.4541 6.40625,18.8437 l 10.21875,-0.6563 c 0.0396,0.2496 0.0892,0.5006 0.125,0.75 l 2.0625,-0.9062 13.3125,-0.8438 c 0.081,-1.6665 0.16422,-3.3303 0.25,-5 L 705,1087.9375 c -1.39127,-1.581 -2.68125,-3.2268 -3.9375,-4.9375 0.78208,-15.1853 1.45654,-30.3114 0.5625,-44.375 -2.14964,4.9843 -2.65555,10.058 -9.65625,14.7812 -0.42896,-0.8837 -0.83876,-1.7702 -1.25,-2.6562 2.44361,-1.8631 5.11439,-3.6477 7.9375,-5.4062 -4.77625,-13.7697 -7.70531,-26.2315 5.5625,-27 3.77862,-11.5684 11.39466,-11.6653 18.65625,-12.8126 -5.72281,-7.82221 -1.43769,-16.62454 2.875,-19.2187 1.45301,-5.05619 6.10962,-9.43337 14.1875,-13.09375 -1.41433,-11.08148 1.18031,-25.2759 4.25,-39.84375 -8.47747,12.34827 -15.80943,26.02141 -28.5,33.5625 0.50282,6.3571 -0.66744,12.4636 -5.84375,17.96875 11.4917,11.82051 -4.73249,18.43705 -12.34375,6.75 1.66103,14.02905 -7.52669,21.67445 -16.09375,29.71875 -1.53204,-10.4056 -1.03428,-21.0771 2.5,-32.125 -5.13023,-17.26978 -0.63057,-34.34356 2.71875,-44.78125 -7.21896,12.47849 -15.59741,31.42279 -20.875,51.625 -15.81854,-0.80299 -27.41958,-17.18285 -29.96875,-28.59375 -0.67694,-2.04875 -0.10841,-5.26255 1.65625,-9.65625 -4.52035,-2.5276 -9.07474,-5.27935 -13.6875,-8.5625 0.28669,-0.73194 0.59246,-1.42187 0.90625,-2.09375 -0.6077,0.58511 -1.19319,1.04811 -1.78125,1.46875 -3.36713,-2.44427 -6.79097,-5.17944 -10.25,-8.375 0.81503,3.15059 1.57624,6.29039 2.21875,9.4375 -4.41713,-2.88588 -1.91113,-15.82951 -1.03125,-26.40625 z m 5.90625,47.71875 c 3.51074,0.43778 4.9216,1.89354 7.15625,2.9375 1.78783,2.6915 3.89116,5.65942 5.90625,8.78125 -9.55593,11.17801 -13.37353,1.36736 -13.0625,-11.71875 z m 14.875,14.6875 c 5.00205,8.28746 8.75171,17.28565 4.65625,24.59375 1.14333,1.1774 2.33592,2.2331 3.6875,3.0625 -0.2538,4.3979 -0.71013,8.7178 -5.53125,11.4062 -3.82892,-3.9657 -12.51265,-16.4745 -9.875,-26.49995 3.2382,-4.16783 5.5969,-7.92404 7.0625,-12.5625 z m 29,19.50005 c -0.58215,2.8022 -1.10077,5.599 -1.53125,8.4062 -0.42606,-1.872 -0.68104,-3.9332 -0.6875,-6.2812 0.79626,-0.582 1.54117,-1.2933 2.21875,-2.125 z m -18.40625,9.2187 c 1.23869,0.3927 2.60278,0.5604 4.1875,0.375 4.55548,3.4224 6.78844,7.5194 8.1875,11.8437 -0.72619,-0.6046 -1.51346,-1.2239 -2.34375,-1.8124 0.32793,11.8824 -5.83756,9.1378 -9.3125,12.4687 1.71282,-7.0806 2.03367,-15.542 -0.71875,-22.875 z m 27.1875,4.7813 c 0.74966,2.818 1.31839,5.5362 1.8125,8.1562 -0.88626,0.084 -1.77408,0.2437 -2.625,0.4688 -1.61239,-1.3982 -3.16299,-2.8604 -4.5625,-4.5 1.80041,-1.6407 3.61442,-2.9947 5.375,-4.125 z"
       id="path4808"
       style="fill:#808080;fill-opacity:1;stroke:none" />
    <path
       d="m 1178.2188,800.84375 c 7.4952,17.88871 19.3234,39.10226 11.9062,45.5625 -3.8087,3.20941 -9.4417,4.04953 -17.125,0.3125 23.6921,25.39587 44.0573,94.3644 -2.1562,58.46875 6.1265,13.8106 13.7892,20.99046 25.125,28.6875 5.2257,8.13437 5.5162,19.15846 4,29.03125 -1.9584,-3.52103 -4.3174,-6.9255 -7.3438,-10.125 1.9108,7.00515 2.8898,13.25792 2.25,18.15625 -9.2524,-9.9208 -18.6385,-19.16488 -26.2812,-36.0625 4.1413,-0.47426 8.9551,-0.3566 14.8437,1.3125 -18.2771,-21.5666 -48.4398,-38.24852 -67.5313,-45.46875 8.3049,5.38804 21.1931,14.77052 27.4688,29.78125 18.0037,11.70354 26.2893,29.47552 31.0312,49.46875 -7.595,0.69475 -10.8681,-2.55386 -15.2187,-4.8125 5.2384,7.31794 11.3406,14.57188 17.7187,21.78125 1.9937,8.06462 5.4959,15.7472 9.5313,22.3125 -7.6315,-3.6908 -16.4968,4.3016 -22.4063,-15.78125 -5.8899,7.90505 -8.8985,15.34225 -10.4374,22.50005 -6.4076,-4.9653 -12.3054,-11.5997 -18.0626,-18.7188 -1.7418,-1.76018 -3.1215,-3.80195 -0.9062,-8.5625 -0.3273,-0.2061 -0.6423,-0.38441 -0.9688,-0.5625 0.6019,-0.93802 1.3363,-1.87682 2.3126,-2.78125 -2.9655,-2.29432 -6.2081,-3.57841 -6.4063,-15.6875 -1.2094,-8.08648 -4.7861,-16.40351 1.9063,-23.78125 -7.8648,3.09275 -13.5456,-5.86163 -3.7188,-7.65625 -0.6196,-4.53659 0.9547,-7.97669 3.4375,-10.9375 -3.6127,-8.1828 -2.4377,-17.48806 -2.2813,-26.5625 -3.6057,8.26906 -7.3128,16.18409 -11.9062,21.15625 2.7002,4.64604 3.4664,8.43135 2.4062,11.4375 1.2167,2.79637 0.2304,8.65088 -5.3437,10.5 3.1807,3.11872 6.9202,5.86845 4.7187,12.90625 6.2782,5.0431 0.4475,10.13293 -6.75,15.25 1.607,3.85642 2.7787,7.56663 3.3126,11.03125 -2.225,-1.88867 -4.1308,-4.27812 -5.3126,-7.71875 1.4976,-3.26581 0.4718,-5.92627 -0.9062,-8.53125 -9.5956,1.91847 -17.7358,-10.15818 -23.8125,-17.8125 -0.2819,-2.26895 -1.2894,-3.78654 0,-7.71875 -7.4434,-2.62415 -14.5289,-6.41733 -21.4375,-10.8125 3.7609,8.14964 5.5967,15.41519 7,22.46875 3.6608,-0.25102 6.1825,0.10515 7.5312,1.09375 8.0343,4.74254 17.6827,17.80953 13.625,29.96875 4.5447,0.72669 7.4868,-0.0471 9.625,-1.59375 7.5972,2.48568 10.3612,7.07252 12.4688,11.9375 -0.5091,1.08585 -1.1443,2.11165 -1.9375,3.09375 l 0.7813,0.25 c -0.996,2.9857 -1.0135,6.5683 0,10.8125 3.56,-1.4733 6.9099,-3.4777 12.3124,0.094 10.4361,7.3541 19.5442,15.4271 25.375,25.25 l 1.3126,-1.5 c -0.182,7.7129 0.026,15.2791 -1.4376,22.9063 l 57.0313,68.75 c 5.9714,-11.9897 17.3161,-18.6998 17.0937,-36.75 -6.4112,-5.3159 -16.0462,-11.5363 -19.8124,-20.5313 7.8299,-5.4052 16.6842,-10.345 30.3437,-13.125 6.3195,-7.6477 10.994,-15.9791 9.625,-26.7187 4.0539,-8.4217 16.4289,-27.41345 29.0625,-13.0313 10.0524,-12.9143 21.5633,-22.91462 26.125,-46.7812 9.2334,-7.4869 18.2713,-13.63002 29.1875,-34.0625 -11.9428,6.43363 -20.4737,15.99444 -42.0313,13.5625 -1.5947,10.47319 -4.8728,18.75296 -9.3124,25.53125 -0.024,-0.53596 -0.028,-1.11043 -0.031,-1.71875 -0.8085,-5.84791 -3.3281,-11.85188 1.5625,-17.125 -5.7028,2.17005 -9.7341,-4.34541 -2.625,-5.5625 -0.4111,-3.28026 0.7463,-5.75714 2.5625,-7.875 -2.543,-5.93664 -1.6231,-12.63721 -1.4375,-19.1875 -2.6694,5.94126 -5.394,11.60317 -8.75,15.15625 1.9124,3.37592 2.4145,6.11926 1.625,8.28125 0.8561,2.02859 0.1016,6.27209 -3.9375,7.5625 2.2714,2.27715 4.9581,4.28016 3.3125,9.34375 4.4924,3.69115 0.2373,7.33184 -5,10.96875 1.7412,4.31252 2.7278,8.3298 2.4375,11.875 -3.7076,3.25259 -7.7474,6.08022 -12,8.625 -10.6582,24.7053 -31.0294,28.5027 -49.3125,36.8125 -1.2222,-2.1213 -1.8763,-4.5206 -2.9375,-6.7187 20.0046,-12.3742 36.8547,-28.05513 47.6563,-50.06255 -11.1583,5.55546 -22.2908,11.40006 -35.4376,5 -5.2103,-10.63641 -1.1546,-25.86224 8.3438,-39.0625 4.8995,-5.11608 12.2916,-10.89972 17.6875,-19.28125 4.3093,-15.78403 12.0163,-28.49039 6.0937,-53.5 -6.8001,31.79461 -17.7987,37.92833 -32.4687,32.75 -10.883,-16.87331 -8.1269,-24.2852 -10.7813,-35.4375 6.0896,-6.15426 13.6405,-10.90988 13.8438,-22.625 -4.9785,6.68586 -9.4592,9.56941 -15.7188,5 -0.4296,-14.84968 -11.1969,-25.41736 -24.3124,-44.40625 z"
       id="path4915"
       style="fill:#808080;fill-opacity:1;stroke:none" />
    <path
       d="m 1383.0625,938.4375 c -11.7699,19.8397 -26.46,54.90631 -28.9687,87.25 -2.4315,-7.5396 -2.8705,-15.4926 2.8124,-24.8125 -8.4103,-5.5868 -8.6075,-11.56961 -10.9374,-17.4375 -2.2266,10.54928 -0.8305,15.44284 0.2187,20.875 -5.519,9.8708 -4.4038,16.8885 -4.6875,24.5 8.8076,-1.3434 7.514,9.129 6.4375,13.3437 -1.0474,0.9667 -1.8669,2.0228 -2.5,3.125 -3.4351,-4.8317 -5.9728,-10.6886 -6.875,-18.375 -9.3095,-10.1732 -15.8833,-22.2871 -13.25,-41.06245 -16.5472,-2.97887 -20.7787,-11.97832 -28.2187,-19.40625 3.5707,17.59477 8.9304,24.14138 14.125,31.75 -1.91,18.7344 4.402,28.742 9,40.5625 12.573,-7.8754 17.5464,8.9717 18.6874,16.125 -3.4003,7.6706 -1.7452,14.8873 1.25,21.9688 16.4115,8.7796 20.7642,19.1605 29.4688,28.9687 l 11.9062,-3.4375 14.75,-0.7812 c 1.0223,-17.1487 2.3631,-34.5199 2.2188,-50.9063 1.4937,-1.0312 3.1986,-1.4214 4.875,-1.9375 -1.4521,-2.9557 -3.1487,-5.1557 -5.0938,-6.625 -0.021,-0.4678 -0.038,-0.9405 -0.062,-1.4062 -0.1582,0.3558 -0.2924,0.7058 -0.4376,1.0624 -0.907,-0.6161 -1.8696,-1.0866 -2.875,-1.4062 -1.3559,-4.5413 -2.1918,-9.2408 1.625,-15.2812 2.2799,-0.1482 4.6814,-1.2574 7.3126,-4.25 -9.4166,-5.8731 -10.2119,-19.9028 -7.4688,-27.50005 0.3543,-1.40374 1.8254,-3.05368 4.4062,-4.90625 -2.9558,-5.48018 -5.7309,-11.33143 -7.7187,-18.84375 -2.1839,6.74436 -4.7946,13.1733 -8.3125,19.03125 3.03,1.91197 3.186,3.48698 4.25,5.15625 0.1695,8.45975 1.3665,21.01645 -6.0938,25.03125 0.5181,2.4984 1.3239,4.8662 4.125,6.2187 2.2645,6.0126 0.1644,10.7195 -1.625,15.5313 -1.4859,0.2549 -2.7482,0.7983 -3.8124,1.5937 -6.2782,-17.7516 -8.3803,-35.9719 -2,-55.18745 -5.3562,-18.7825 -0.2863,-37.25598 3.4687,-48.53125 z m -16.3437,80.875 c 5.2478,20.6354 3.7647,35.9396 2.5312,51.4375 -0.2017,-1.2942 -0.3423,-2.5988 -0.375,-3.9375 -2.673,-2.4757 -5.522,-4.7584 -8.375,-7.0313 0.2253,-1.3256 0.5764,-2.625 1.0938,-3.9062 -3.7478,-8.4956 -10.1551,-15.7276 -7.6876,-27.125 -0.053,0.9838 -0.1276,1.9604 -0.1562,2.9375 4.2739,-5.9765 8.7285,-9.718 12.9688,-12.375 z"
       id="path4929"
       style="fill:#808080;fill-opacity:1;stroke:none" />
    <g
       transform="matrix(0.35377808,0.24721726,-0.24721726,0.35377808,849.19022,377.26663)"
       id="g4937"
       style="fill:#808080;fill-opacity:1">
      <path
         d="m 1263.1667,1166.6657 c -4.94,-31.6749 -4.5645,-65.67 -42.6101,-82.8927 10.0989,-15.0789 22.9722,-26.0756 5.3244,-81.9777 -6.8398,-38.98186 -3.0522,-82.60317 -45.0858,-106.22148 40.85,2.14737 53.1609,-47.67191 5.2914,-40.8519 -4.1073,-21.77925 -16.5231,-35.13769 -32.4602,-44.92722 4.0474,-43.10752 -15.7476,-84.06677 -30.3728,-125.49185 29.2277,32.44108 58.4001,63.09297 87.1099,78.88304 -5.2777,25.4702 -2.9128,44.05468 6.5621,56.23295 -1.301,14.70379 12.1947,40.13225 40.6217,40.0797 -9.8243,19.19422 -22.7668,37.39925 -1.8734,66.33907 -21.0976,32.77669 13.4705,47.31257 54.3595,59.77723 -3.7952,52.13296 3.9934,95.04706 38.2004,116.93566 z"
         id="path4939"
         style="fill:#808080;fill-opacity:1;stroke:none" />
      <path
         d="m 1261.7503,1153.0466 c -21.0224,-24.555 -31.3355,-50.3455 -71.3967,-72.704 -7.0707,-17.5838 -10.7907,-35.4164 -2.0739,-54.1719 -2.498,-17.6798 -14.0043,-59.43985 -45.337,-40.58276 -10.813,-29.334 -25.9478,-54.23744 -20.4181,-100.32542 -12.4679,-18.97985 -25.3976,-35.40733 -33.4251,-78.92719 18.0101,18.63316 28.0196,40.99977 68.6698,49.0679 -7.3139,46.15731 8.4103,76.33599 30.9075,101.81733 5.3488,53.83524 43.7735,71.70524 72.9116,99.67334 0.2092,31.6756 20.9464,58.3445 38.157,85.8736 z"
         id="path4941"
         style="fill:#808080;fill-opacity:1;stroke:none" />
      <path
         d="m 1444.5126,807.05003 c -49.5155,19.45543 -127.5916,63.94603 -174.5049,120.76391 15.2911,-4.54674 27.8967,-5.03391 38.7056,-3.93627 -19.3539,44.2941 -43.56,68.72257 -67.3418,94.88743 -1.8315,-12.7446 0.5352,-29.04836 5.281,-47.36911 -27.118,29.41581 -33.1677,64.88041 -46.7002,98.19661 l 49.7749,34.6674 c 29.6687,-33.7923 60.582,-67.482 84.4549,-101.7516 -11.2633,6.0319 -19.6404,14.6244 -39.4577,13.0674 11.6907,-52.26503 32.6665,-98.89032 79.1971,-129.99389 15.8543,-39.33082 49.127,-64.21178 70.5911,-78.53188 z"
         id="path4943"
         style="fill:#808080;fill-opacity:1;stroke:none" />
    </g>
    <path
       d="m 1785.375,928.5 c -13.8379,18.45835 -32.2126,51.73779 -38.1875,83.625 -1.6091,-7.762 -1.2197,-15.74703 5.4375,-24.40625 -7.7601,-6.45968 -7.284,-12.41538 -8.9688,-18.5 -3.3492,10.24828 -2.4895,15.26772 -2.0312,20.78125 -6.5496,9.21934 -6.2111,16.3383 -7.3125,23.875 8.901,-0.3874 6.4926,9.8631 4.9687,13.9375 -1.1388,0.8434 -2.0667,1.7915 -2.8124,2.8125 -2.8911,-5.1708 -4.8056,-11.2362 -4.875,-18.9688 -8.1603,-11.1163 -13.3892,-23.89837 -8.75,-42.2812 -16.1304,-4.74287 -19.3717,-14.12681 -25.9688,-22.3125 1.6558,17.87691 6.2798,24.97016 10.625,33.09375 -3.9157,18.41989 1.2949,29.03445 4.5938,41.28125 13.3477,-6.4761 16.4794,10.8279 16.8437,18.0625 -4.2062,7.26 -3.3717,14.6061 -1.1563,21.9688 15.3709,10.4952 18.6206,21.2804 26.2188,31.9687 l 12.2812,-2.1563 14.6563,0.8126 c 2.8623,-16.9389 6.0669,-34.0371 7.6875,-50.3438 1.5927,-0.8587 3.3448,-1.0745 5.0625,-1.4062 -1.1278,-3.1013 -2.5945,-5.4543 -4.375,-7.125 0.03,-0.478 0.067,-0.9614 0.094,-1.4376 -0.1976,0.3405 -0.3779,0.6886 -0.5624,1.0313 -0.8314,-0.7045 -1.728,-1.2953 -2.6876,-1.7187 -0.8592,-4.661 -1.1949,-9.4057 3.25,-15 2.2827,0.098 4.8122,-0.7456 7.75,-3.4376 -8.7294,-6.8526 -8.0137,-20.89846 -4.4687,-28.1562 0.5033,-1.35744 2.141,-2.81102 4.9063,-4.375 -2.3488,-5.76653 -4.4575,-11.9111 -5.625,-19.59375 -2.8973,6.47007 -6.2158,12.58605 -10.3438,18.03125 2.8065,2.22704 2.8094,3.78839 3.6875,5.5625 -0.7422,8.42882 -0.9009,21.0616 -8.75,24.25 0.246,2.5396 0.7981,4.9789 3.4375,6.625 1.604,6.2214 -1.0155,10.6587 -3.3125,15.25 -1.5142,0.094 -2.8201,0.5347 -3.9687,1.2188 -4.3348,-18.3301 -4.4457,-36.70225 3.9687,-55.12505 -3.3031,-19.24994 3.7405,-37.03824 8.6875,-47.84375 z m -24.9688,78.625 c 2.9959,21.0801 -0.1366,36.1315 -3.0312,51.4062 -0.06,-1.3012 -0.049,-2.6105 0.062,-3.9374 -2.3799,-2.7364 -4.9827,-5.289 -7.5625,-7.8438 0.3675,-1.3028 0.8434,-2.5864 1.5,-3.8125 -2.7931,-8.7919 -8.3485,-16.6415 -4.8125,-27.5937 -0.1443,0.8968 -0.2518,1.7941 -0.375,2.6874 4.8925,-5.4817 9.7172,-8.7211 14.2187,-10.9062 z"
       id="path4947"
       style="fill:#808080;fill-opacity:1;stroke:none" />
    <path
       d="m 1827.5312,795.625 c 4.8078,10.52965 11.6427,27.87845 8.4063,46.625 10.4081,22.8495 7.4093,45.58346 -0.4687,68.28125 -7.9275,-4.08416 -9.096,-9.35263 -11.9688,-14.3125 0.514,9.45321 1.7544,19.27983 3.2812,29.25 -4.8174,-7.45207 -8.7082,-16.28675 -11.4062,-25.84375 -1.488,-10.94586 -1.3837,-25.55952 -6.375,-40.28125 -15.0807,-20.58131 -23.1025,-42.35691 -59.375,-59.40625 32.2029,39.16337 29.0292,58.52885 8.4688,71.40625 -31.1577,-3.0972 -37.5312,-13.60113 -53.7188,-21.1875 -1.5997,-13.4061 -0.056,-27.28595 -14.1562,-38.90625 3.3269,12.56625 2.4654,20.85879 -9.1876,24.0625 -18.5407,-13.89047 -41.8431,-11.01138 -77.75,-13.4375 29.1084,8.21759 66.4719,14.36391 67.1563,29.6875 0.2196,7.76396 -4.2307,15.46917 -16.25,21.21875 32.028,-2.52859 81.6001,11.24344 98.1563,27.375 -12.3576,-2.17912 -24.5404,-3.88608 -39.9063,-14.46875 -9.892,0.75636 -19.1232,3.15564 -25.9063,11.59375 -8.8773,2.92489 -31.1519,7.20188 -29.5624,-11.875 -16.2745,1.72302 -31.4618,0.37965 -51.8126,13.65625 -11.798,-1.45336 -22.4938,-3.72433 -44.7812,2.59375 12.9198,4.13511 25.7296,3.66473 38.9375,20.875 19.9698,-14.13019 37.7635,-13.74787 54.9375,-9.09375 26.5084,-9.96602 43.8073,3.93024 63.6875,11.125 10.4119,-5.05569 22.014,-4.84952 33.8125,-3.6875 -5.3858,4.09117 -14.5006,7.93101 -28.2812,11.28125 22.8025,5.92925 38.9773,3.51923 59.375,-2.84375 16.3396,1.65402 31.1728,13.80809 42.0624,26.40625 -4.9349,-1.55055 -10.1496,-2.63126 -15.8124,-2.875 7.613,4.50496 13.7796,9.11131 17.375,13.9375 -16.5064,-0.82702 -32.5769,-0.92539 -53.5938,-9.21875 3.2191,-3.92758 7.5598,-7.93324 14.125,-11.46875 -34.2769,-3.35554 -74.8054,7.65045 -97.625,17.53125 11.8329,-2.33295 31.0603,-5.05289 49.2812,2.75 25.6714,-5.03755 47.9876,3.50777 69.0938,16.96875 -0.096,0.11168 -0.1856,0.20436 -0.2812,0.3125 -3.0222,-0.92994 -6.0404,-1.89386 -9.0626,-2.71875 1.6998,2.13443 3.5169,4.15328 5.4376,6.0625 -4.6011,3.41045 -8.9964,3.65889 -13.4688,5 7.4172,1.3446 15.1519,2.32839 23.0625,3.09375 15.4088,11.03745 34.6334,16.93915 52.125,19.06245 -11.9127,5.7312 -10.753,24.314 -41,12.0313 1,3.7815 2.1347,7.2971 3.4063,10.5937 -7.7667,-1.9103 -15.7047,-4.5135 -23.7188,-7.375 -3.6867,-0.913 -7.0977,-2.4974 -8,-10.5 -7.1751,-0.1016 -12.6831,2.4127 -15.9375,8.3438 -9.0919,0.2193 -18.206,1.0446 -26.9687,-6.2188 -0.6481,-5.4722 -4.1148,-8.1589 -8,-10.4687 -0.9327,0.8604 -1.9439,1.5598 -3,2.1563 -1.9989,-1.4914 -3.5315,-3.4855 -3.875,-6.8126 -2.6703,0.7332 -4.8558,2.0673 -12.0938,-3.1874 -5.3112,-2.87313 -11.8313,-4.43189 -13.2188,-11.6563 -1.6627,6.01581 -9.4559,5.37978 -6.1562,-1.21875 -2.9536,-1.64656 -4.2906,-4.09556 -4.9375,-6.875 -6.4343,-1.49682 -11.3988,-6.35082 -16.6875,-10.46875 3.2831,5.79733 6.2893,11.51964 7.1875,16.4375 3.9411,0.46668 6.539,1.6967 7.8437,3.65625 2.191,0.52209 5.2246,3.70093 3.8438,7.81245 3.2525,-0.49444 6.5085,-1.48439 9.6875,2.9376 5.507,-1.4047 6.1035,3.757 6,9.9062 -7.0149,-1.8745 -14.079,-4.7828 -20.0313,-6.9688 -2.1814,-2.7456 -4.7031,-3.9152 -6.1562,-10.0937 -11.8417,2.51025 -24.1625,3.17322 -36.7188,2.9375 11.4343,7.6658 19.6531,15.6984 27.125,23.8125 4.5925,-3.253 8.1946,-4.7796 10.75,-4.5625 14.3076,-0.2087 37.3808,9.2138 41.7813,28.375 6.5309,-2.6791 9.7796,-6.0483 11.3437,-9.7812 10.4938,-2.4751 17.3754,0.1747 23.4063,4.0312 -8.0224,0.8046 -16.0568,1.2975 -23.9063,5.7188 5.3634,-0.1162 10.0096,0.2898 13.4063,1.625 -8.767,4.857 -17.0825,9.9513 -30.5625,12.4062 0.4011,-3.0534 1.3437,-6.4839 3.5938,-10.4062 -18.7298,9.2422 -36.0958,27.888 -44.6876,40.2812 5.3484,-4.9889 14.3984,-12.5624 26.2813,-14.375 11.6108,-10.8112 25.82,-13.5533 41,-13.375 -0.861,5.5685 -3.7587,7.3167 -6.1563,10.0312 9.7875,-3.8712 19.8001,-9.3234 29.8126,-14.6874 1.0123,1.2958 2.1466,2.5758 3.4374,3.875 3.4843,-4.7727 6.2922,-10.079 16.2188,-9.7188 14.7046,0.9723 28.7296,3.0825 41.375,7.5625 13.9175,17.3608 31.9829,26.8088 45.5312,42.5937 l 139.25,-2.8124 c -8.8362,-18.9267 -6.0046,-39.3122 -28.25,-56.5626 -2.557,0.536 -5.3124,1.1964 -8.1562,1.875 -6.378,-12.6976 -9.7361,-28.2597 -12.3125,-44.5312 -0.9661,-3.67321 -1.2153,-7.43415 5.375,-12.0625 -3.3505,-6.34553 -8.1722,-9.95595 -14.9375,-9.96875 -0.1568,-0.27126 -0.311,-0.54172 -0.4688,-0.8125 2.8499,-4.30265 6.0807,-8.59656 12.5313,-12.6875 1.575,-4.65603 2.28,-9.33284 -0.25,-14.0625 0.3896,-4.61432 2.7688,-15.58317 11.1563,-11.15625 2.3731,-7.75299 5.9461,-14.42778 3.8437,-26.28125 2.9522,-5.09603 6.0546,-9.55176 7.5,-20.9375 -4.3924,5.08692 -6.654,11.03817 -17.0625,13.71875 2.5655,11.84546 -1.0767,19.88704 -6.5312,26.8125 -0.6017,14.01781 -10.2995,19.20903 -17.4376,26.875 0.072,1.45119 -0.02,2.85476 -0.25,4.25 -1.0523,-3.69105 -1.436,-7.69272 -0.5312,-12.34375 4.4917,-3.19211 5.2106,-7.57666 5.375,-12.09375 -7.309,-2.46809 -11.2817,-9.55339 -13.7188,-17.875 l 1.9376,-1.21875 c -0.8723,-0.50004 -1.7768,-0.97606 -2.6563,-1.46875 -1.788,-7.17102 -2.6401,-14.9485 -3.5937,-21.34375 1.3636,-3.23075 1.1807,-5.98154 5.9062,-10.21875 -7.88,-9.18884 -14.3748,-19.71143 -20.1875,-30.84375 -1.2458,13.70975 -4.3363,24.80273 -7.875,35.25 5.0564,2.47091 8.0904,4.87199 9.125,7.21875 1.7342,3.06737 3.198,6.89208 4.2187,11.09375 -1.517,-0.56355 -3.3886,-1.68629 -5.9062,-3.6875 -5.065,-3.03274 -11.3593,-4.82222 -12.4062,-11.9375 -1.8806,5.80475 -9.4731,4.86655 -5.9688,-1.4375 -2.8146,-1.73422 -4.0181,-4.19525 -4.5312,-6.9375 -6.2207,-1.73642 -10.854,-6.65865 -15.8438,-10.90625 2.9592,5.80232 5.6762,11.50207 6.3438,16.34375 3.8295,0.62391 6.2779,1.93666 7.4687,3.90625 2.1175,0.60343 4.9303,3.82437 3.4063,7.78125 3.1977,-0.34426 6.4275,-1.17329 9.3437,3.28125 5.6914,-1.1898 5.8831,4.42058 5.4375,10.78125 6.9264,2.09076 12.2022,5.14261 13.9062,10.3125 -0.8684,8.1268 -3.9511,16.01584 -10.3437,21.6875 5.4821,4.44718 10.0053,5.66696 14.0313,5.25 8.4561,9.41887 8.3664,17.854 7.3437,26.1875 -5.6015,2.88648 -9.7545,8.54003 -12.3125,17.15625 5.8588,0.76964 11.8697,0.67841 16.3125,9.5625 6.3739,13.7543 11.3468,27.4424 13.375,41.0625 -11.7679,0.7225 -23.4624,-1.8244 -32.1875,-13.375 1.5174,-15.3933 2.9443,-25.8642 -3.5312,-40.3125 -15.5294,21.0261 -24.4767,13.6047 -34.625,11.3125 4.3169,-36.42708 1.53,-72.20385 -14.8438,-106.75 -3.6395,17.07829 -6.9793,34.35222 -22.5312,44.8125 2.844,-12.6608 6.2472,-25.17062 3.5,-39.40625 -2.5145,8.10927 -5.4491,14.88302 -9.1563,19.3125 -2.8958,-15.59533 -6.3544,-30.62775 -3.2813,-52.09375 4.3824,2.13279 9.0526,5.2809 13.8126,10.625 -4.484,-32.74933 -23.7662,-68.13947 -38.0626,-87.25 z"
       id="path4957"
       style="fill:#808080;fill-opacity:1;stroke:none" />
    <path
       d="m 1321.8125,855.375 c 15.9507,11.03439 37.3631,22.5305 34.5937,31.96875 -1.4801,4.7556 -5.7949,8.47863 -14.2812,9.46875 33.6408,8.63479 87.9589,55.78736 29.6875,50.4375 12.6008,8.33573 22.9284,10.24606 36.625,10.625 8.7978,4.04466 14.9599,13.19511 19,22.34375 -3.55,-1.91461 -7.3781,-3.52706 -11.6563,-4.59375 5.3833,4.87276 9.5881,9.59086 11.6876,14.0625 -13.1393,-3.37472 -26.0526,-6.09887 -41.5938,-16.21875 3.2336,-2.63029 7.3897,-5.14061 13.25,-6.90625 -27.0159,-8.32538 -61.4319,-6.10678 -81.4062,-1.90625 9.8993,0.0661 25.8143,1.01477 39.1874,10.28125 21.4729,0.1627 38.0165,10.67824 52.7813,24.96875 -6.0248,4.67645 -10.524,3.68435 -15.4063,4.12495 8.3439,3.3393 17.3813,6.146 26.625,8.7813 6.0377,5.7489 13.1018,10.3491 20.0626,13.7187 -8.4179,1.0012 -11.5784,12.5184 -27.375,-1.2187 -0.7044,9.8328 0.7848,17.7029 3.3437,24.5625 -8.0724,-0.7322 -16.628,-3.1659 -25.3125,-6.0625 -2.4157,-0.5447 -4.6771,-1.5147 -5.375,-6.7187 -0.3899,0 -0.7511,0.036 -1.125,0.062 0,-1.1133 0.1338,-2.3073 0.4688,-3.5937 -3.7343,-0.3358 -7.1542,0.3142 -13.8438,-9.7813 -5.3748,-6.1616 -12.8832,-11.2104 -11.2188,-21.0312 -4.9602,6.8421 -14.5626,2.3366 -7.25,-4.46875 -2.9656,-3.48843 -3.4969,-7.19932 -3,-11.03125 -7.4516,-4.94822 -11.4625,-13.45775 -16.2187,-21.1875 1.4163,8.90913 2.5668,17.58659 1.375,24.25 4.7776,2.45992 7.4302,5.23993 8.1563,8.34375 2.5313,1.70065 4.8878,7.15825 1.1874,11.71875 4.3598,0.9143 8.9702,1.1971 10.9063,8.3125 8.0061,0.8671 5.8389,8.3118 2.5313,16.5 3.4351,2.3863 6.4015,4.8964 8.7187,7.5313 -2.8863,-0.3944 -5.7502,-1.3984 -8.5937,-3.6563 -0.4975,-3.5582 -2.8107,-5.2664 -5.375,-6.7187 -7.0511,6.785 -20.4447,1.0194 -29.6876,-2.1563 -1.4596,-1.7598 -3.1245,-2.4925 -4.1562,-6.5 -7.6848,1.7985 -15.6868,2.3882 -23.875,2.4063 7.5586,4.8404 13.0182,9.9694 18,15.1562 2.9491,-2.1834 5.2687,-3.2003 6.9375,-3.0938 9.3236,-0.332 24.494,5.4762 27.625,17.9063 4.2205,-1.8358 6.2816,-4.0765 7.25,-6.5313 7.7381,-1.9976 12.5419,0.3811 16.9375,3.3438 0.1555,1.1878 0.1704,2.403 0.031,3.6562 l 0.8126,-0.2187 c 0.7736,3.043 2.6815,6.0726 5.8124,9.0937 2.2058,-3.1588 3.962,-6.6614 10.4376,-6.5624 12.7539,0.5744 24.7648,2.4898 34.9687,7.625 l 0.2813,-1.9376 c 3.9991,6.5918 8.2514,12.8213 11.125,20.0313 l 85.0937,27.2187 c -1.4272,-13.3181 4.5039,-25.0995 -5.4063,-40.1874 -8.2702,-1.026 -19.7309,-1.065 -27.75,-6.625 3.6855,-8.7722 8.4886,-17.7058 18.5,-27.4063 1.2049,-9.8474 0.6883,-19.3766 -6.25,-27.6875 -1.1208,-9.2792 -0.9536,-31.93727 17.4376,-26.625 1.513,-16.29543 5.825,-30.93462 -3.1876,-53.5 3.7465,-11.28152 8.0591,-21.34257 6.25,-44.4375 -6.5965,11.85351 -8.6522,24.53063 -28.125,34.09375 4.293,9.67208 6.0228,18.40533 5.9376,26.5 -0.3092,-0.43819 -0.6386,-0.8957 -0.9688,-1.40625 -3.8312,-4.49149 -9.2175,-8.20417 -7.9375,-15.28125 -3.6358,4.90016 -10.5215,1.57352 -5.1875,-3.28125 -2.1133,-2.54226 -2.4519,-5.23734 -2.0625,-8 -5.3403,-3.63199 -8.1905,-9.7875 -11.5625,-15.40625 0.9513,6.44354 1.7261,12.69871 0.8125,17.5 3.4296,1.81421 5.313,3.84696 5.8125,6.09375 1.8139,1.24801 3.458,5.23708 0.75,8.5 3.1404,0.69503 6.4714,0.94114 7.8125,6.09375 5.7732,0.69003 4.1723,6.021 1.7187,11.90625 3.7902,2.69557 6.7725,5.57536 8.4376,8.71875 -1.3714,4.73115 -3.2282,9.28956 -5.4376,13.71875 4.3259,26.5446 -10.792,40.7225 -21.7187,57.5625 -2.1739,-1.129 -4.0457,-2.7814 -6.125,-4.0625 10.189,-21.2012 15.9414,-43.48366 13.1875,-67.84375 -6.4086,10.69104 -12.6323,21.59188 -27.1562,23.28125 -10.1194,-6.1548 -14.8923,-21.13706 -14,-37.375 1.3721,-6.94953 4.4686,-15.81305 4.5,-25.78125 -4.8715,-15.61967 -5.2261,-30.49399 -23.6876,-48.375 11.397,30.45074 5.4618,41.55458 -9.6874,45.09375 -18.2582,-8.354 -19.9441,-16.06491 -28.1876,-24.03125 1.8155,-8.46526 5.6393,-16.55143 -0.5,-26.53125 -0.5931,8.31473 -2.8273,13.16563 -10.5624,12.6875 -8.3611,-12.27977 -23.1277,-15.37862 -44.4063,-24.3125 z"
       id="path4979"
       style="fill:#808080;fill-opacity:1;stroke:none" />
    <path
       d="m 980.34375,932.46875 c -7.97207,9.10888 -15.94881,17.72733 -23.84375,22.21875 1.56457,7.03891 0.98392,12.18027 -1.59375,15.59375 0.41922,4.07051 -3.21393,11.1823 -11.09375,11.28125 2.79992,5.28114 6.45699,10.26984 0.78125,18.375 5.97872,9.0011 -3.52841,13.1631 -14.8125,16.7813 0.97156,11.13 -0.0163,20.7635 -4.8125,27.4374 -3.74109,0.7065 -7.46803,1.5023 -11.15625,2.4376 -0.16006,0.2773 -0.33568,0.5391 -0.5,0.8124 -4.04898,-3.3256 -6.55367,-6.5949 -2.53125,-9.625 -1.43034,-5.1283 1.32193,-7.0082 3.6875,-9.1874 -3.98112,-1.46 -4.56599,-5.7281 -3.625,-7.7188 -0.69753,-2.1933 -0.0843,-4.8953 1.96875,-8.1875 -3.20303,-3.6915 -5.67755,-9.4827 -8.09375,-15.53125 -0.0911,6.55225 0.54128,13.30115 -2.25,19.12495 1.72525,2.1926 2.79921,4.7088 2.25,7.9688 7.05139,1.5161 2.73109,7.8463 -2.875,5.4375 4.66366,5.4748 1.89847,11.379 0.84375,17.1875 -0.41532,8.7344 -2.77719,9.5984 -4.96875,11.1875 1.44703,1.4268 2.19749,2.9161 2.5625,4.4063 -11.96291,10.2112 -27.38603,17.1694 -41.875,25 l 20.5,20.3124 c 22.27858,-8.0354 38.16873,-20.7222 71.78125,-20.4687 1.78014,-1.4158 3.51019,-2.8693 5.15625,-4.375 15.60929,3.7837 31.16456,7.4257 45.93745,9.25 -4.75147,-3.2058 -9.9059,-4.7177 -13.43745,-12.9063 23.18395,-6.3048 46.07325,-7.7612 68.15625,4.1876 18.9241,-1.9449 35.7618,6.045 45.9375,11.5624 -18.0865,-15.5716 -52.1033,-37.221 -84.4687,-43.9374 5.0054,5.1147 7.8597,10.0129 9.6874,14.5312 -21.6261,1.5955 -36.38952,-2.8864 -51.74995,-6.8438 4.67301,-3.3949 11.61246,-5.8906 19.875,-7.8437 -7.14327,-1.894 -13.94221,-2.1152 -20.59375,-1.6563 9.80664,-10.9245 28.4747,-25.6745 40,-5.1874 7.3066,-6.1675 14.8387,-11.5792 22.0625,-18.0626 4.7064,-0.9344 9.7791,-1.4048 15,-1.6562 1.8219,-0.2722 3.6473,-0.2027 5.5312,3.2188 3.2364,-1.2811 5.2314,-3.395 5.5938,-6.6563 4.0363,-1.7792 7.9779,-3.8556 13.25,-2.2187 1.3023,2.334 3.3621,2.9013 5.5312,3.2187 3.0649,-6.6027 13.8915,-6.1844 21.1563,-6.4687 1.4857,0.8278 2.8312,0.873 4.625,3.375 4.8458,-3.315 10.2636,-5.8781 15.9375,-8.0938 -6.5445,-1.3234 -11.7431,-3.4306 -16.5938,-5.6875 -1.4578,2.3077 -2.7828,3.6562 -3.9687,4.0313 -6.377,2.7386 -18.4531,2.7784 -23.9687,-5 -2.4332,2.4088 -3.2703,4.5367 -3.2813,6.5 -4.9871,3.5806 -9.036,3.0886 -13,2.1562 -1.0965,-2.853 -3.6055,-5.1561 -7.625,-6.8438 -0.6799,2.7842 -0.9511,5.7013 -5.4687,7.375 -0.239,0.081 -0.4802,0.1399 -0.7188,0.2188 5.5516,-6.8541 10.7278,-15.15681 15.25,-25.9375 14.8113,-7.57953 29.012,-13.36756 49.875,-38.1875 -18.2164,5.35297 -32.6835,15.97688 -61.5,6.40625 -12.0438,32.05189 -33.0092,45.59545 -56.5625,53.68755 -12.8421,18.1559 -28.22077,25.3201 -44.3125,29.4062 -0.75499,-1.7392 -1.21567,-3.9286 -1.03125,-7.0938 5.8133,-3.9313 12.26778,-6.6988 16.71875,-13.125 -3.38549,1.7356 -6.48193,2.8934 -9.0625,3.0938 4.0882,-5.8143 7.81722,-11.6331 15.65625,-17.375 0.69001,2.0721 1.15791,4.5821 0.9375,7.7812 9.08539,-11.6982 14.35816,-28.96345 16,-39.5312 -1.86644,4.83948 -5.26212,12.44375 -12.28125,17.28125 -4.05783,10.49385 -12.29204,16.66125 -22.03125,21.24995 -1.17582,-3.8191 0.12396,-5.8379 0.8125,-8.3124 -0.83534,0.911 -1.65016,1.8477 -2.46875,2.8124 1.27573,-5.66009 3.77647,-10.80851 9.96875,-14.4062 -11.3145,0.75829 -14.92105,-12.9806 -1.625,-11.28125 1.05153,-6.0533 4.46527,-9.81658 8.84375,-12.59375 -1.29387,-11.93264 4.01776,-23.36541 7.90625,-34.90625 z"
       id="path4993"
       style="fill:#808080;fill-opacity:1;stroke:none" />
    <path
       d="m 1551.25,933.34375 c -3.7558,12.55456 -7.7142,20.15434 -5.3438,28.25 -2.5799,3.56495 -5.5143,2.80102 -9.375,0.0625 2.1631,6.29173 7.1013,7.52457 11.4688,9.78125 0.5209,6.4886 3.2958,10.01059 0.375,21.03125 -7.0157,5.36784 -14.0361,3.98056 -23.2812,-12 1.1842,14.54572 7.5938,20.04265 12.6874,27.81245 4.3833,3.5813 9.3947,5.4081 12.9376,7.3126 7.4434,5.4649 12.2938,12.9983 11.3437,19.6562 -5.979,5.7608 -13.0311,4.545 -20.0313,3.5 9.6909,9.9932 21.5581,15.5101 34.5313,18.6875 -0.5136,3.7533 0.8711,7.763 -8.2813,10.375 4.1006,4.0524 7.8382,4.8963 13.2813,6.3437 0.01,0.012 0.024,0.019 0.031,0.031 -1.5864,1.5462 -3.2185,3.065 -4.7813,4.625 l 6.6563,2.0313 c -0.1312,5.8047 -4.4512,11.1105 -7.0938,15.2812 3.0433,9.7879 10.3298,11.4459 15.6562,16.875 l 10.4688,-26.375 3.2812,1 c 2.0753,6.3087 4.5266,12.4541 6.4063,18.8438 l 10.2187,-0.6563 c 0.04,0.2495 0.089,0.5006 0.125,0.75 l 2.0313,-0.875 13.3437,-0.8437 c 0.081,-1.6731 0.1639,-3.355 0.25,-5.0313 l 4.3126,-1.8437 c -1.3845,-1.5733 -2.6868,-3.2046 -3.9376,-4.9063 0.7827,-15.1938 1.4571,-30.3348 0.5626,-44.4063 -2.1496,4.9843 -2.6868,10.0581 -9.6876,14.7813 -0.4283,-0.8825 -0.808,-1.7715 -1.2187,-2.6563 2.4436,-1.8631 5.1144,-3.6476 7.9375,-5.4062 -4.7762,-13.7696 -7.7366,-26.2314 5.5312,-27 3.7787,-11.5682 11.3947,-11.634 18.6563,-12.7812 -5.7228,-7.8224 -1.4064,-16.65589 2.9063,-19.25005 1.4529,-5.05619 6.0783,-9.43337 14.1562,-13.09375 -1.4144,-11.08148 1.1803,-25.2759 4.25,-39.84375 -8.4775,12.34827 -15.7783,26.02141 -28.4688,33.5625 0.5029,6.3571 -0.6986,12.4636 -5.875,17.96875 11.4918,11.8205 -4.7011,18.4371 -12.3124,6.75 1.6632,14.0477 -7.5484,21.7254 -16.125,29.7813 -1.5427,-10.4241 -1.0097,-21.119 2.5312,-32.18755 -5.1303,-17.26978 -0.6619,-34.34356 2.6875,-44.78125 -7.2218,12.48328 -15.5978,31.44534 -20.875,51.6562 -15.8039,-0.8212 -27.3899,-17.22091 -29.9375,-28.62495 -0.677,-2.04875 -0.1397,-5.26255 1.625,-9.65625 -4.5173,-2.52585 -9.0468,-5.2824 -13.6562,-8.5625 0.2864,-0.73128 0.5927,-1.42243 0.9062,-2.09375 -0.6106,0.58788 -1.2218,1.04687 -1.8125,1.46875 -3.3654,-2.44332 -6.7615,-5.18109 -10.2187,-8.375 0.8173,3.15952 1.5437,6.31273 2.1874,9.46875 -4.4339,-2.87001 -1.9119,-15.85104 -1.0312,-26.4375 z m 5.9062,47.71875 c 3.518,0.43629 4.9196,1.89257 7.1563,2.9375 1.7872,2.69048 3.8919,5.66071 5.9063,8.78125 -9.5559,11.17795 -13.3735,1.36724 -13.0626,-11.71875 z m 14.9063,14.6875 c 5.009,8.2938 8.7242,17.2788 4.625,24.5938 1.1508,1.1849 2.3563,2.2625 3.7187,3.0937 -0.2541,4.3871 -0.7528,8.6931 -5.5624,11.375 -3.8289,-3.9656 -12.5127,-16.4745 -9.875,-26.5 3.2381,-4.1679 5.6281,-7.924 7.0937,-12.5625 z m 29,19.5 c -0.584,2.8099 -1.0997,5.6227 -1.5313,8.4375 -0.4308,-1.8806 -0.681,-3.9505 -0.6874,-6.3125 0.7962,-0.582 1.5411,-1.2932 2.2187,-2.125 z m -18.4063,9.25 c 1.2327,0.3871 2.6129,0.528 4.1876,0.3438 4.5569,3.4235 6.7885,7.5177 8.1874,11.8437 -0.7261,-0.6046 -1.5134,-1.1927 -2.3437,-1.7813 0.3279,11.8825 -5.8689,9.1067 -9.3437,12.4376 1.7106,-7.0719 2.0538,-15.517 -0.6876,-22.8438 z m 27.1563,4.75 c 0.7497,2.8181 1.3496,5.5362 1.8437,8.1562 -0.897,0.084 -1.7641,0.2412 -2.625,0.4688 -1.6124,-1.3981 -3.1629,-2.8603 -4.5624,-4.5 1.8004,-1.6406 3.5831,-2.9947 5.3437,-4.125 z"
       id="path5007"
       style="fill:#808080;fill-opacity:1;stroke:none" />
  </g>
  <g
     id="layer2"
     style="display:inline">
    <g
       transform="matrix(1.1071222,0,0,1.1071222,-143.31795,-128.48891)"
       id="g3844"
       style="fill:#484848;fill-opacity:1">
      <path
         d="m 391.81763,1107.85 c 15.79287,-25.9577 21.46364,-51.4434 55.25171,-78.2403 3.90269,-17.3819 4.65913,-34.48822 -6.26213,-50.57122 -0.35416,-16.77989 4.01025,-57.26167 35.9286,-44.50179 5.59898,-28.84858 15.87697,-54.23989 3.78217,-96.16222 8.69893,-19.49263 18.21202,-36.68703 19.08309,-78.27566 -13.89311,20.00847 -19.79941,42.2717 -56.29351,55.8997 13.76063,41.71709 3.7329,72.09156 -13.28821,99.13149 3.17297,50.75389 -29.77518,73.13938 -52.58153,103.4899 4.59259,29.4185 -10.6163,57.2943 -22.42333,85.4353 z"
         id="path3846"
         style="fill:#484848;fill-opacity:1;stroke:none" />
      <path
         d="m 292.0383,731.83736 c 37.20912,42.8793 89.05149,123.55495 105.32811,200.48223 -12.21314,-11.85974 -23.89372,-18.55258 -34.6585,-22.8583 -3.59525,51.4581 7.21969,86.52789 16.77507,123.03011 8.03285,-11.1475 13.85503,-27.7363 18.42446,-47.40882 11.1031,41.22582 -0.70901,77.75632 -4.38227,115.95452 l -64.21222,8.1774 c -11.3517,-46.6258 -23.93115,-93.7701 -29.56564,-137.98211 7.66983,11.27289 11.3442,23.54059 30.85552,31.86551 14.78326,-55.20781 17.99701,-109.67244 -10.63052,-162.0919 4.45098,-45.03415 -14.71471,-85.0142 -27.93401,-109.16864 z"
         id="path3848"
         style="fill:#484848;fill-opacity:1;stroke:none" />
      <path
         d="m 272.30452,853.14367 c 4.47474,-13.71521 8.36218,-28.24639 9.7902,-46.19461 7.76541,14.47381 16.40824,28.10399 26.8488,40.00574 -6.11796,5.61088 -5.83214,9.22605 -7.56817,13.47132 3.10884,19.35692 5.5272,48.48968 24.19413,54.56055 -0.14871,5.90993 -0.99789,11.61392 -6.8254,15.85462 -2.67833,14.6433 4.10624,24.5125 10.17389,34.7434 8.84804,-0.083 15.20951,4.5727 19.68465,12.82229 -8.55111,6.1499 -8.14281,11.0649 -6.82541,15.8546 4.33421,25.51632 10.05908,49.69552 22.35972,67.55242 l -31.80302,11.2186 c -0.54843,-22.9082 -8.53813,-45.9625 -19.56632,-69.0766 -5.94076,-11.55382 -13.79845,-11.34482 -21.47204,-12.26542 3.21894,-11.3061 8.5568,-18.72879 15.84028,-22.58609 1.21514,-10.9137 1.20932,-21.9534 -9.98824,-34.1475 -5.25908,0.6044 -11.18865,-0.9429 -18.42357,-6.6786 19.04162,-17.28009 15.02857,-49.63084 5.63572,-65.81788 -1.38752,-3.05395 -5.40594,-6.15956 -12.05522,-9.31684 z"
         id="path3850"
         style="fill:#484848;fill-opacity:1;stroke:none" />
      <path
         d="m 418.67417,1036.4534 c 2.5165,-18.0726 -0.43366,-33.4718 11.8015,-56.29712 -1.99276,-10.51109 -5.65397,-20.12019 -15.50788,-26.38139 -4.19554,-9.1644 -11.44085,-32.51796 9.19414,-33.0943 -3.79144,-17.23576 -4.17966,-33.68143 -20.84051,-53.90514 0.14767,-12.81795 1.29201,-24.56321 -8.14266,-47.69402 -2.88767,14.34057 -0.83559,28.01986 -17.70174,44.23167 17.53009,19.71345 19.24426,38.84609 16.30877,57.80804 13.84871,27.21855 1.02482,47.41205 -4.31016,69.57794 9.54478,15.12032 7.80745,34.11092 8.00841,52.43662 z"
         id="path3852"
         style="fill:#484848;fill-opacity:1;stroke:none" />
    </g>
    <path
       d="m 1311.2812,665.3125 c -9.6343,32.20471 -19.7681,51.63943 -13.6874,72.40625 -6.618,9.14475 -14.1593,7.2123 -24.0626,0.1875 5.5483,16.13942 18.2029,19.30494 29.4063,25.09375 1.3363,16.64441 8.4611,25.66752 0.9687,53.9375 -17.9966,13.76947 -35.9721,10.21178 -59.6874,-30.78125 3.038,37.3124 19.4337,51.44415 32.5,71.375 11.2438,9.18643 24.0682,13.89574 33.1562,18.78125 19.0941,14.01824 31.531,33.29621 29.0938,50.375 -15.337,14.77745 -33.3558,11.68046 -51.3126,9 24.8589,25.63439 55.2525,39.78692 88.5313,47.9375 -1.3175,9.62797 2.2276,19.8934 -21.25,26.5938 10.5188,10.3951 20.1312,12.5683 34.0937,16.2812 0.021,0.033 0.042,0.061 0.063,0.094 -4.0616,3.958 -8.2179,7.8501 -12.2188,11.8437 l 17.125,5.2187 c -0.3374,14.8896 -11.5027,28.4893 -18.2812,39.1876 7.8068,25.1076 26.5241,29.3233 40.1874,43.25 l 26.9063,-67.625 8.3437,2.5312 c 5.326,16.1965 11.6119,31.9715 16.4376,48.375 l 26.25,-1.6562 c 0.099,0.6272 0.2226,1.2479 0.3124,1.875 l 5.1876,-2.2188 34.25,-2.1875 c 0.2077,-4.2731 0.4363,-8.5625 0.6562,-12.8437 l 11,-4.75 c -3.5562,-4.0413 -6.9127,-8.2534 -10.125,-12.625 2.0074,-38.9727 3.7633,-77.78139 1.4688,-113.87505 -5.5143,12.78548 -6.8545,25.82154 -24.8126,37.9375 -1.0933,-2.25253 -2.139,-4.52303 -3.1874,-6.78125 6.2829,-4.79362 13.1127,-9.41364 20.375,-13.9375 -12.252,-35.32144 -19.7845,-67.2473 14.25,-69.21875 9.6928,-29.67471 29.2164,-29.9007 47.8437,-32.84375 -14.68,-20.06547 -3.6565,-42.72051 7.4063,-49.375 3.7272,-12.97004 15.6538,-24.20423 36.375,-33.59375 -3.628,-28.42601 3.0007,-64.8496 10.875,-102.21875 -21.7464,31.67554 -40.4777,66.78075 -73.0313,86.125 1.2898,16.30712 -1.7532,31.97207 -15.0313,46.09375 29.4784,30.32176 -12.1007,47.26062 -31.625,17.28125 4.2643,36.01651 -19.3523,55.72145 -41.3437,76.375 -3.9523,-26.7312 -2.6113,-54.11663 6.4687,-82.5 -13.16,-44.3001 -1.654,-88.10045 6.9376,-114.875 -18.5247,32.02117 -40.0567,80.62535 -53.5938,132.46875 -40.5286,-2.12088 -70.2473,-44.15817 -76.7812,-73.40625 -1.7365,-5.25541 -0.3393,-13.51062 4.1874,-24.78125 -11.5849,-6.47789 -23.2409,-13.46336 -35.0624,-21.875 0.7405,-1.89311 1.5013,-3.73199 2.3124,-5.46875 -1.5463,1.48887 -3.0656,2.77017 -4.5624,3.84375 -8.6472,-6.27547 -17.3979,-13.32449 -26.2813,-21.53125 2.0942,8.09543 4.0062,16.16354 5.6563,24.25 -11.3949,-7.34231 -4.9477,-40.58173 -2.6876,-67.75 z m 15.1563,122.375 c 9.0636,1.11106 12.6262,4.84559 18.375,7.53125 4.5939,6.91598 9.9477,14.57071 15.125,22.59375 -24.4898,28.61726 -34.2966,3.42753 -33.5,-30.125 z m 38.2187,37.625 c 12.8562,21.2816 22.4254,44.35414 11.9063,63.125 2.9298,3.01705 5.9749,5.84185 9.4375,7.96875 -0.6524,11.24438 -1.8596,22.28189 -14.1875,29.15625 -9.8219,-10.17265 -32.0786,-42.28269 -25.3125,-68 8.3231,-10.71261 14.3985,-20.3185 18.1562,-32.25 z M 1439,875.46875 c -1.4892,7.17508 -2.8048,14.37499 -3.9062,21.5625 -1.0989,-4.81273 -1.7022,-10.1469 -1.7188,-16.1875 2.0242,-1.47938 3.8995,-3.26696 5.625,-5.375 z m -47.1875,23.625 c 3.1734,1.00363 6.6916,1.41244 10.75,0.9375 11.6834,8.77745 17.411,19.25343 21,30.34375 -1.8628,-1.55103 -3.8702,-3.0839 -6,-4.59375 0.8412,30.48075 -15.0236,23.39315 -23.9375,31.9375 4.3911,-18.15202 5.2342,-39.82233 -1.8125,-58.625 z m 69.7187,12.21875 c 1.9225,7.22679 3.4828,14.18721 4.75,20.90625 -2.3191,0.21325 -4.5875,0.59911 -6.8124,1.1875 -4.1394,-3.58925 -8.1266,-7.32114 -11.7188,-11.53125 4.6248,-4.21659 9.2587,-7.65901 13.7812,-10.5625 z"
       id="path3856"
       style="fill:#484848;fill-opacity:1;stroke:none" />
    <path
       d="m 1205,611.25 c -32.3586,35.91624 -64.6522,69.83096 -96.4375,87.3125 5.8431,28.19863 3.2398,48.79842 -7.25,62.28125 1.4403,16.27889 -13.5279,44.40193 -45,44.34375 10.8767,21.25035 25.2253,41.42883 2.0937,73.46875 17.046,26.48201 1.2402,42.19578 -26.125,54.125 -11.6325,-15.6393 -22.6819,-33.62807 -32.5937,-56.3125 11.9668,-1.21522 25.9146,-0.6588 42.8437,4.375 C 990.59248,817.93941 904.16346,768.66454 849.34375,747.125 c 23.76338,15.85411 60.57235,43.42473 78.125,86.96875 40.72411,27.2222 63.77008,65.17319 78.03125,108.46875 -2.4093,0.76612 -4.8219,1.50029 -7.28125,2.25 0.81178,11.15104 1.13906,21.92391 0.875,32.21875 -11.42261,-2.53565 -18.71982,-8.73096 -27.625,-13.5 8.06836,11.58217 16.86482,23.10976 26.125,34.59375 -4.05082,33.2165 -16.27545,59.9155 -41.65625,76.1562 l 55.4063,41.7813 c -0.582,0.9191 -1.1745,1.8294 -1.75,2.75 l 8.4062,2.2813 32.0938,24.1874 c 0.8192,-5.2526 1.5321,-10.5781 2.25,-15.875 22.8214,-26.9455 34.4561,-55.2072 78.375,-79.7187 7.828,-19.4674 11.9317,-39.2041 2.2812,-59.96875 2.7656,-19.5737 15.5295,-65.78335 50.2188,-44.90625 11.9712,-32.47632 28.7157,-60.06873 22.5937,-111.09375 13.8035,-21.01301 28.1125,-39.19319 37,-87.375 -19.9394,20.62919 -31.0265,45.38009 -76.0313,54.3125 8.0975,51.10178 -9.3115,84.53905 -34.2187,112.75 -3.105,31.25198 -16.2704,51.54087 -32.75,68.25 -2.5269,-6.39235 -5.2956,-12.69048 -8.4375,-18.90625 0,-0.0101 0,-0.0212 0,-0.0312 7.5652,-43.15 3.4121,-91.42026 49.9375,-117.5625 -45.2259,2.3774 -58.8724,-52.80058 -5.875,-45.25 4.5473,-24.11229 18.2932,-38.88054 35.9375,-49.71875 -4.481,-47.72529 17.4331,-93.07488 33.625,-138.9375 z"
       id="path3866"
       style="fill:#484848;fill-opacity:1;stroke:none" />
    <g
       transform="matrix(0.42300452,-0.52095662,0.52095662,0.42300452,1267.0511,662.16589)"
       id="g3872"
       style="fill:#484848;fill-opacity:1">
      <path
         d="m -29.484184,1072.1853 c -0.834457,-53.8201 13.369198,-97.8376 -14.200192,-169.08483 9.633714,-30.0526 23.826039,-56.86128 54.938158,-71.62978 C 26.849698,806.15696 56.503353,740.4049 -3.7004818,731.25854 13.630041,682.16859 20.711436,634.16164 76.799194,580.9763 c 4.201134,-37.5799 5.096631,-72.3797 41.079486,-136.68832 3.27024,43.02809 -7.68245,82.33456 35.83561,135.89408 C 95.266109,631.5593 83.331514,686.95354 85.071158,743.52872 34.687899,818.20905 64.932265,881.96423 72.538641,948.7869 39.129035,989.60354 37.350524,1045.8296 30.137766,1099.4085 z"
         id="path3874"
         style="fill:#484848;fill-opacity:1;stroke:none" />
      <path
         d="m 460.28935,587.34413 c -95.30877,32.11448 -246.88096,108.83433 -340.76295,211.73806 29.29625,-7.15812 53.14328,-6.90167 73.44971,-3.8205 -40.67659,81.82852 -88.66118,125.69471 -136.007003,172.87915 -2.268713,-24.23496 3.721389,-54.79832 14.391764,-88.94802 -53.94809,53.01135 -68.6802144,119.4099 -97.34077,181.05368 l 90.748092,70.1024 c 59.172677,-61.0367 120.685887,-121.7638 168.959777,-184.24284 -21.82988,10.33821 -38.44915,25.78058 -75.72204,20.99143 26.95099,-97.5941 70.90779,-183.67292 161.66753,-238.05953 33.60583,-72.78358 98.75183,-116.65805 140.61589,-141.69383 z"
         id="path3876"
         style="fill:#484848;fill-opacity:1;stroke:none" />
      <path
         d="m 381.59658,790.34605 c 5.4701,-24.96488 12.56941,-50.64923 26.49128,-79.34657 -24.84768,15.14177 -50.27873,28.20764 -76.90508,37.0204 4.31115,14.05974 0.63101,19.3255 -0.52605,27.36776 -22.11586,26.77865 -51.94791,69.10948 -85.90866,61.63478 -5.07524,9.16094 -8.89574,18.63576 -3.79889,30.34187 -9.04686,24.77085 -28.26506,33.75903 -46.71259,43.94281 -13.44122,-8.06489 -27.33531,-6.66112 -41.57277,1.92525 7.54427,17.06596 2.51083,24.20741 -3.79888,30.34183 -29.5138,35.08763 -59.952284,66.88532 -94.76287,83.12572 l 38.514029,45.6704 c 21.391051,-34.5005 54.279821,-62.5479 91.863511,-87.96037 19.44062,-12.31835 31.25588,-4.94925 43.80329,0.52932 5.22687,-20.15822 3.73297,-36.28573 -3.93187,-48.7125 7.93571,-17.7611 17.84942,-34.61915 45.89443,-43.1993 7.49096,5.64176 17.9367,8.59831 34.13416,6.32821 -13.58249,-43.47978 21.57266,-89.29541 50.44339,-105.59401 4.85946,-3.42005 13.784,-4.55857 26.77357,-3.4156 z"
         id="path3878"
         style="fill:#484848;fill-opacity:1;stroke:none" />
      <path
         d="M -6.4505979,939.03047 C 5.9202026,909.16654 24.242816,888.29095 26.032388,842.44767 38.506941,828.17973 52.720804,816.78653 73.390294,816.06349 88.021397,805.82896 120.04151,776.65673 89.038419,757.2626 c 21.255441,-22.92612 36.603551,-47.69876 80.197941,-63.64254 11.27473,-19.71206 20.06462,-38.67978 55.2292,-65.54753 -8.45545,24.4962 -23.86312,43.55034 -12.64516,83.44641 -44.46437,14.38448 -64.24863,42.07183 -76.77735,73.67015 C 89.468458,814.3406 90.93948,856.69194 79.201415,895.33719 51.055661,909.87003 36.67102,940.43711 19.92221,968.24953 z"
         id="path3880"
         style="fill:#484848;fill-opacity:1;stroke:none" />
    </g>
    <path
       d="m 583.40625,619.75 c 16.19188,45.86262 38.10596,91.21221 33.625,138.9375 17.64432,10.83821 31.39021,25.63771 35.9375,49.75 52.99738,-7.55058 39.38219,47.59615 -5.84375,45.21875 46.53633,26.14835 42.33376,74.43606 49.90625,117.59375 -3.13669,6.2059 -5.91406,12.52429 -8.4375,18.90625 -16.47231,-16.70612 -29.64594,-37.00788 -32.75,-68.25 C 630.9366,893.6953 613.52762,860.28928 621.625,809.1875 c -45.00473,-8.93241 -56.09186,-33.68331 -76.03125,-54.3125 8.88743,48.18181 23.19652,66.36199 37,87.375 -6.12205,51.02502 10.65368,78.58618 22.625,111.0625 34.68912,-20.8771 47.4219,25.3638 50.1875,44.9375 -9.65057,20.7646 -5.51563,40.5014 2.3125,59.9688 43.91215,24.5077 55.52932,52.7456 78.34375,79.6874 0.71936,5.3071 1.42922,10.6123 2.25,15.875 l 32.0625,-24.1562 8.4375,-2.2812 c -0.57331,-0.9171 -1.17034,-1.8346 -1.75,-2.75 L 832.5,1082.8125 c -25.38514,-16.2436 -37.60754,-42.9631 -41.65625,-76.1875 9.25056,-11.47323 18.033,-22.99126 26.09375,-34.5625 -8.904,4.76841 -16.17375,10.96372 -27.59375,13.5 -0.26406,-10.29484 0.0632,-21.06771 0.875,-32.21875 -2.46098,-0.75021 -4.90166,-1.51461 -7.3125,-2.28125 14.26158,-43.28841 37.31253,-81.25015 78.03125,-108.46875 17.55265,-43.54402 54.39287,-71.08339 78.15625,-86.9375 -54.81971,21.53954 -141.28,70.78316 -193.21875,133.6875 16.92912,-5.0338 30.90822,-5.55897 42.875,-4.34375 -9.90814,22.67617 -20.99714,40.64594 -32.625,56.28125 -27.36512,-11.92922 -43.13961,-27.64299 -26.09375,-54.125 -23.13155,-32.03992 -8.8142,-52.18715 2.0625,-73.4375 -31.47216,0.0582 -46.40912,-28.09611 -44.96875,-44.375 -10.48987,-13.48283 -13.12431,-34.05137 -7.28125,-62.25 -31.78526,-17.48154 -64.07887,-51.42751 -96.4375,-87.34375 z"
       id="path3884"
       style="fill:#484848;fill-opacity:1;stroke:none" />
    <path
       d="m 704.875,325.78125 c -36.67303,49.02198 -86.15412,139.8358 -97.65625,223.84375 12.21002,-13.70859 24.25815,-21.81025 35.5,-27.28125 7.88285,55.06415 -1.00925,93.62015 -8.4375,133.625 -9.5096,-11.36242 -17.08132,-28.76075 -23.53125,-49.5625 -7.05203,36.54168 1.7642,68.62521 9.0625,101.125 C 579.86107,680.70329 571.34125,636.39602 562,592.5625 c -42.00167,88.61712 -49.16741,180.40167 -38.09375,273.84375 -26.0321,5.87996 -49.00806,24.93563 -88.84375,-29 -16.61094,37.06249 -12.9547,63.8882 -9.0625,103.375 -22.3845,29.63362 -52.37131,36.16852 -82.5625,34.3125 5.20438,-34.93259 17.96482,-70.09828 34.3125,-105.375 11.39645,-22.78942 26.81491,-22.55698 41.84375,-24.53125 -6.56178,-22.10216 -17.19352,-36.53315 -31.5625,-43.9375 -2.62334,-21.37694 -2.84802,-43.02639 18.84375,-67.1875 10.32716,1.06959 21.9062,-2.09219 35.96875,-13.5 -16.41389,-14.5629 -24.31247,-34.81945 -26.53125,-55.6875 4.3904,-13.22877 17.94462,-21.05038 35.6875,-26.40625 -1.1429,-16.31625 -0.69298,-30.67704 13.90625,-27.625 7.48082,-11.42671 15.76569,-9.28936 23.96875,-8.40625 -3.90973,-10.15011 3.31811,-18.4521 8.75,-20 3.05459,-5.05236 9.39556,-8.43081 19.21875,-10.03125 1.71233,-12.41979 8.65901,-27.05351 16.25,-41.9375 -12.79986,10.89586 -24.73071,23.57701 -40.6875,28.03125 -1.31657,7.03437 -4.37392,13.30142 -11.59375,17.75 8.98907,16.17101 -10.51967,18.60899 -15.34375,3.71875 -2.68579,18.25198 -18.7887,22.84547 -31.78125,30.625 -6.46588,5.13965 -11.29366,7.96222 -15.1875,9.40625 2.61796,-10.76131 6.40112,-20.54822 10.84375,-28.40625 2.65391,-6.01985 10.46671,-12.19292 23.4375,-18.53125 -9.07762,-26.79913 -17.02302,-55.20701 -20.21875,-90.375 -14.91053,28.55642 -31.53643,55.49147 -51.75,79.0625 12.1218,10.86921 11.62691,17.96255 15.125,26.25 -2.44213,16.37787 -4.58522,36.28649 -9.15625,54.65625 -2.28685,1.28339 -4.60551,2.54273 -6.875,3.84375 l 4.96875,3.125 c -6.25086,21.35729 -16.43115,39.57267 -35.1875,45.90625 0.42177,11.58714 2.22797,22.74916 13.75,30.9375 2.32891,11.97195 1.37752,22.34891 -1.34375,31.84375 -0.60444,-3.61627 -0.84277,-7.29977 -0.65625,-11.0625 C 344.12727,727.5854 319.26214,714.30198 317.71875,678.34375 303.7267,660.57872 294.41908,639.94824 301,609.5625 c -26.69968,-6.87617 -32.51402,-22.10738 -43.78125,-35.15625 3.7077,29.20648 11.67697,40.58402 19.25,53.65625 -5.3932,30.40627 3.72514,47.51842 9.8125,67.40625 21.51568,-11.35586 27.5944,16.81969 28.59375,28.65625 -6.48999,12.13242 -4.69647,24.11894 -0.65625,36.0625 16.57388,10.51101 24.89976,21.50736 32.21875,32.5625 -0.40125,0.68865 -0.78875,1.37263 -1.1875,2.0625 -17.35423,0.0327 -29.74891,9.31635 -38.34375,25.59375 16.90544,11.87258 16.22819,21.51498 13.75,30.9375 -6.60709,41.72866 -15.14751,81.65138 -31.5,114.21875 -7.32019,-1.7467 -14.35737,-3.4645 -20.9375,-4.84375 -57.06317,44.25045 -49.89596,96.54345 -72.5625,145.09375 l 357.28125,7.25 c 34.76406,-40.5032 81.07607,-64.7853 116.78125,-109.3437 32.42326,-11.47849 68.42655,-16.85113 106.125,-19.3438 25.46339,-0.92389 32.65632,12.69483 41.59375,24.9375 3.28899,-3.3099 6.19709,-6.6046 8.78125,-9.90625 25.69248,13.76425 51.41615,27.69125 76.53125,37.62495 -6.15009,-6.9629 -13.63525,-11.4345 -15.84375,-25.7187 38.93932,-0.4573 75.435,6.5798 105.21875,34.3125 30.4817,4.6496 53.6557,24.0462 67.375,36.8438 -22.0393,-31.791 -66.58004,-79.6043 -114.625,-103.31255 5.77176,10.06156 8.22105,18.88621 9.25,26.71875 -34.57865,-6.29729 -55.8862,-19.35327 -78.375,-31.8125 8.71313,-3.42499 20.64842,-4.45419 34.40625,-4.15625 -20.14398,-11.34633 -40.78725,-12.65316 -61.375,-14.71875 15.47523,-9.89961 33.16356,-16.66419 60.09375,-10.3125 4.01211,9.57581 12.3407,18.25269 29.09375,25.125 11.288,-49.15205 70.45505,-73.34782 107.15625,-72.8125 6.5553,-0.5569 15.7507,3.34305 27.5312,11.6875 19.1671,-20.81425 40.2939,-41.39835 69.625,-61.0625 -32.2092,0.60466 -63.8425,-1.12327 -94.2187,-7.5625 -3.7274,15.8488 -10.1854,18.832 -15.7813,25.875 -15.2891,5.61484 -33.45041,13.12975 -51.4687,17.9375 -0.27101,-15.80195 1.35465,-29.04547 15.5,-25.4375 8.1547,-11.34307 16.5317,-8.79981 24.875,-7.53125 -3.5421,-10.54702 4.2239,-18.72325 9.8437,-20.0625 3.3469,-5.02661 9.9528,-8.17787 20.0626,-9.375 2.304,-12.6152 10.0472,-27.25381 18.4687,-42.125 -13.5665,10.56324 -26.3074,22.97289 -42.8125,26.8125 -1.6593,7.12976 -5.0797,13.40128 -12.6562,17.625 8.4641,16.92642 -11.5476,18.5254 -15.81255,3.09375 -3.55938,18.53191 -20.25064,22.53629 -33.875,29.90625 -18.56659,13.47941 -24.24407,10.06802 -31.09375,8.1875 -0.88028,8.5242 -4.78778,13.67566 -9.90625,17.5 -2.69745,-1.52648 -5.27336,-3.36405 -7.65625,-5.5625 -9.96654,5.9249 -18.90016,12.86905 -20.5625,26.90625 -22.47824,18.63192 -45.86528,16.50004 -69.1875,15.9375 -8.34822,-15.21438 -22.43839,-21.63588 -40.84375,-21.375 -2.31466,20.52777 -11.10534,24.53269 -20.5625,26.875 -20.53981,7.33383 -40.90618,13.97592 -60.8125,18.875 3.25096,-8.43614 6.19192,-17.45163 8.75,-27.125 C 634.9424,948.69491 637.9019,901.07668 607.34375,886.375 652.20871,880.92877 701.47549,865.7456 741,837.4375 c 20.31035,-1.96407 40.2073,-4.45417 59.25,-7.90625 -11.4817,-3.44296 -22.81218,-4.04403 -34.625,-12.8125 4.94227,-4.90985 9.6273,-10.10292 14,-15.59375 -7.73705,2.11184 -15.4817,4.61866 -23.21875,7 -0.25184,-0.28448 -0.49756,-0.54969 -0.75,-0.84375 54.14125,-34.52983 111.39842,-56.42222 177.25,-43.5 46.74008,-20.01582 96.05285,-13.01568 126.40625,-7.03125 -58.5363,-25.34603 -162.51119,-53.57632 -250.4375,-44.96875 16.84087,9.06921 27.96114,19.3313 36.21875,29.40625 -53.91209,21.27396 -95.12712,21.53479 -137.46875,23.65625 9.22307,-12.38006 25.00233,-24.22522 44.53125,-35.78125 -14.52449,0.62516 -27.87354,3.36713 -40.53125,7.34375 27.93161,-32.30598 66.00487,-63.41468 107.90625,-67.65625 52.32381,16.3222 93.85121,22.45961 152.34375,7.25 -35.33077,-8.58932 -58.74405,-18.44927 -72.5625,-28.9375 30.26696,-2.98121 59.97774,-3.50071 86.6875,9.46875 50.9964,-18.45586 95.3761,-54.0959 163.375,-28.53125 44.0543,-11.93865 89.7427,-12.934 140.9688,23.3125 33.8806,-44.14746 66.7648,-42.89271 99.9062,-53.5 -57.1711,-16.20702 -84.6419,-10.41564 -114.9062,-6.6875 -52.2033,-34.05688 -91.1905,-30.64263 -132.9376,-35.0625 4.0774,48.93566 -53.0407,37.97161 -75.8124,30.46875 -17.3999,-21.64527 -41.0939,-27.77855 -66.4688,-29.71875 -39.41013,27.1422 -70.64948,31.4427 -102.34375,37.03125 42.53595,-41.35245 169.69765,-76.67041 251.81255,-70.1875 -30.8318,-14.74871 -42.2821,-34.49029 -41.7188,-54.40625 1.7556,-39.30777 97.6133,-55.07665 172.2812,-76.15625 -92.1076,6.22344 -151.9086,-1.19407 -199.4687,34.4375 -29.8922,-8.2181 -32.1282,-29.42155 -23.5937,-61.65625 -36.1695,29.80816 -32.1465,65.36095 -36.25,99.75 C 979.3197,485.08542 962.92506,512.08639 883,520.03125 830.25857,486.99842 822.14379,437.33612 904.75,336.875 c -93.04538,43.73463 -113.6278,99.54899 -152.3125,152.34375 -12.80363,37.76389 -12.52686,75.26564 -16.34375,103.34375 -6.91889,24.50868 -16.89704,47.16866 -29.25,66.28125 3.9151,-25.56793 7.08806,-50.75759 8.40625,-75 -7.36934,12.72294 -10.35222,26.21088 -30.6875,36.6875 -20.20859,-58.22394 -27.91742,-116.54314 -1.21875,-175.15625 -8.30188,-48.08827 9.19862,-92.58329 21.53125,-119.59375 z"
       id="path3902"
       style="fill:#292929;fill-opacity:1;stroke:none" />
    <path
       d="m 1462.25,431.375 c 4.0711,59.05913 -0.6093,97.4079 22.2812,127.875 -5.244,19.17572 -18.853,20.63213 -39.5312,15.1875 19.1464,23.16793 41.9442,20.5547 64,23.15625 12.5154,26.61056 29.8357,37.09818 35,88.34375 -21.1364,33.84958 -52.9753,39.10296 -117.4688,-13.78125 28.1262,59.62782 63.9237,72.77057 97.8126,97.53125 24.2274,8.17753 48.3037,7.98319 66.3124,10.40625 40.1623,11.27906 72.5923,35.33533 79.1563,65 -16.1276,33.8633 -47.7371,39.91817 -79,46.625 56.8628,26.85673 115.7146,31.37009 175.625,24.1875 1.3829,6.08372 3.8626,11.90948 4.8125,18.09375 -49.9509,12.58101 -96.8658,37.64875 -157.75,5.15625 -12.6079,1.70002 -25.2277,2.50114 -37.875,1.90625 -6.2553,-6.64542 -10.6867,-16.3449 -14.0938,-27.78125 -16.3201,1.08358 -30.6675,0.58796 -27.5624,-14 -11.3995,-7.52241 -9.2254,-15.80014 -8.3126,-24 -10.1641,3.87291 -18.4407,-3.4063 -19.9687,-8.84375 -5.0414,-3.07293 -8.4038,-9.38979 -9.9687,-19.21875 -12.4134,-1.75741 -27.0187,-8.76129 -41.875,-16.40625 10.8495,12.83923 23.4789,24.8083 27.875,40.78125 7.0297,1.34209 13.2962,4.42041 17.7187,11.65625 16.2033,-8.93033 18.5637,10.57384 3.6563,15.34375 18.2419,2.7522 22.7988,18.88551 30.5312,31.90625 0.9618,1.219 1.8201,2.35976 2.625,3.46875 -19.73,-6.49455 -39.5654,-17.87476 -59.5,-36.3125 -39.3418,39.35879 -71.7592,33.86192 -106,40.0625 54.5736,23.51496 82.5391,21.31722 113.0312,21.5625 47.3232,40.56585 86.434,42.27435 127.25,52.09375 2.3308,-49.04981 57.5245,-30.74851 79.125,-20.34375 14.4326,23.72695 37.1253,32.89625 62.0313,38.12495 31.8397,-16.2737 57.4954,-20.503 81.8437,-22.1874 6.8482,24.0682 -2.5503,51.9211 -6.9062,72.8437 28.4259,36.5536 61.9408,31.8823 93.0938,46.375 l 4.3437,-229.09375 c -15.1365,-12.95607 -26.7343,-28.44705 -39.4375,-43.625 l 5,0.90625 c -4.0185,-29.02562 1.3031,-59.77823 10.4688,-91.21875 5.122,-15.80371 15.0979,-17.13521 24.5937,-19.875 -4.7418,-10.10139 -10.5037,-17.28934 -17.25,-21.6875 l 1.125,-1.75 c -3.1624,-0.70089 -6.1167,-1.72993 -8.875,-3.09375 -3.5564,-13.13 -5.3242,-26.73492 5.9375,-43.875 6.7619,-0.31845 13.9232,-3.49205 21.875,-12.21875 -27.5862,-17.89398 -29.151,-59.54466 -20.625,-81.90625 1.1233,-4.13977 5.5383,-8.89788 13.2812,-14.25 -8.468,-16.38997 -16.3504,-33.92209 -21.8437,-56.28125 -6.8245,19.86467 -14.9265,38.83161 -25.6563,56 8.8754,5.82328 9.2486,10.46774 12.3126,15.46875 0.057,25.06993 2.999,62.31156 -19.3126,73.8125 1.4031,7.42831 3.648,14.47111 11.875,18.625 3.1384,8.8042 3.1355,16.61215 1.6876,23.96875 -4.4876,-7.81446 -8.0465,-17.13775 -11,-27.46875 -22.6187,1.25064 -42.4613,0.3119 -37.9376,-19.84375 -15.6719,-10.5924 -12.5464,-22.0018 -11.1562,-33.34375 -14.1361,5.20768 -25.4983,-4.97735 -27.5312,-12.53125 -6.9346,-4.33285 -11.4837,-13.14499 -13.5,-26.78125 -17.1647,-2.62407 -37.2614,-12.55954 -57.7188,-23.375 14.8286,17.94765 32.1252,34.71772 37.9688,56.90625 9.7149,1.96635 18.3299,6.34865 24.3437,16.4375 22.5773,-12.11926 25.5314,14.90363 4.8125,21.28125 25.2216,4.09091 31.3034,26.50506 41.8125,44.65625 18.9715,24.60066 14.5582,32.40582 12.2813,41.75 3.3832,0.25066 6.3994,0.8722 9.0937,1.78125 -0.3732,0.88598 -0.7332,1.77439 -1.0625,2.71875 12.0572,6.00346 12.5527,12.30893 11.875,18.625 -0.1585,23.49793 -1.3357,46.2855 -6.25,66.5 -14.5415,-11.90477 -32.4309,-22.0632 -56.9062,-28.5 20.2718,49.72689 -10.2869,47.89161 -19.6876,67.5 -2.4126,-19.65114 -7.7299,-40.64438 -16.6562,-60.03125 1.2583,-24.65014 1.9183,-48.8917 0.7188,-71.9375 -5.1122,11.48848 -6.439,23.21365 -22.7813,33.96875 -22.47,-47.67962 -34.3224,-96.5759 -16.9375,-148.84375 -11.4247,-40.14083 -0.5676,-79.56718 7.4688,-103.65625 -26.7374,45.01687 -60.562,126.73426 -62.7188,199.21875 9.1392,-12.76608 18.624,-20.76456 27.6875,-26.4375 11.7013,46.11138 7.655,79.71169 4.9687,114.40625 -9.1181,-8.79967 -17.127,-22.89543 -24.5,-40 -0.9523,11.26715 -0.2392,21.86061 1.4688,32.0625 -18.8394,-17.37583 -35.9367,-39.94599 -38.4688,-64.625 10.4211,-33.56739 14.3356,-60.22337 4.5313,-97.71875 -35.2611,145.90505 -104.7349,-24.98727 -97.8437,-113.8125 -9.4308,19.78392 -22.0723,27.12533 -34.8438,26.78125 -25.2079,-1.09142 -35.4175,-62.54336 -49,-110.40625 z"
       id="path3894"
       style="fill:#292929;fill-opacity:1;stroke:none" />
    <path
       d="m 1248.5,566.5625 c 3.9953,29.42287 7.8837,77.08557 -13.9688,120.71875 8.6094,63.82944 -15.6622,117.4197 -51.8437,167.3125 -16.4371,-15.90914 -15.3746,-29.65816 -18.75,-43.96875 -9.0365,37.08184 -14.3716,77.69653 -19.4687,118.5625 -5.1208,2.58696 -10.1925,5.41366 -15.2188,8.40625 -29.9187,80.86755 -74.8015,107.47615 -114.3125,153.62505 l 30.0937,67.5937 c 31.9537,-27.6555 62.6566,-58.3255 98.0313,-77.75 3.2519,2.2295 6.0741,5.4412 8.1875,10.2187 5.8027,-3.8143 10.044,-8.7173 31.375,-1.7812 14.8929,2.7451 31.6014,1.4333 40.5,17.5938 -0.6873,-15.6368 18.4232,-20.1685 15.6562,-1.875 8.3197,1.6431 13.3693,6.4322 17.0626,12.5624 16.5071,-1.4069 32.1357,6.299 47.9374,12.0313 -12.3162,-11.2899 -23.9592,-22.557 -29.9062,-33.5937 -9.7627,1.9353 -16.8716,0.9778 -21.5,-2.6876 -5.6303,0.4495 -15.3011,-4.8109 -15.1875,-15.6874 -7.3763,3.6958 -14.4019,8.5891 -25.4063,0.5 -10.9151,6.8938 -16.4496,-2.1222 -20.75,-14.8438 0.7976,-0.1443 1.6031,-0.2756 2.4063,-0.4062 5.6112,-8.0247 10.8612,-16.2953 15.9687,-24.6563 20.3588,-5.4269 44.3531,1.0372 70.1563,13.4687 18.9286,-23.7845 37.5549,-42.8615 53.7187,-20.3437 24.5993,-6.2551 33.2483,7.0491 43.375,18.5625 7.394,-18.814 27.7406,-21.0776 37.125,-16.375 10.53,-3.0838 23.4407,0.1977 38.9063,10.3438 17.9452,-14.861 45.8448,-26.1476 74.9375,-37 -31.2183,-1.153 -63.4859,1.2538 -90.9375,-12.68755 -10.639,7.98185 -22.7105,12.69365 -38.1875,9.71875 -7.9987,33.4408 -37.72,12.2988 -25.625,-14.15625 -14.275,11.60445 -28.9286,12.96795 -43.6875,10.87505 3.0796,-1.09466 6.1292,-2.22159 9.0937,-3.4063 -6.5615,-0.59547 -12.6244,0.72687 -20.7187,-5.5625 19.8539,-19.19699 42.1083,-33.32698 70.9687,-33.53125 17.9801,-12.44562 39.3825,-13.73009 52.6876,-13.8125 -26.8434,-5.65883 -73.0903,-8.64039 -109.4063,2.53125 7.8753,2.3768 13.4367,5.74398 17.7813,9.28125 -20.8947,13.59113 -38.2445,17.25421 -55.9063,21.78125 2.8246,-6.00878 8.4491,-12.36064 15.6875,-18.90625 -19.4741,4.84549 -31.9612,17.80776 -46.6875,28.1875 -7.7888,-2.43788 -12.6021,-5.56698 -16.0937,-8.96875 24.4188,-34.89971 55.5845,-65.27255 110.8124,-79.59375 40.8039,-49.15569 92.2935,-87.12255 180.125,-86.90625 3.2111,-77.82371 41.864,-102.87853 71.25,-141.71875 -78.4914,27.50942 -105.271,56.28867 -136.9062,84.9375 -29.9702,1.05777 -54.5774,5.90656 -76.0625,13 0.3984,-0.49131 0.7852,-0.97832 1.1875,-1.46875 8.1183,-9.31805 15.328,-7.33485 22.625,-6.4375 -0.3981,-11.17532 -3.6202,-19.24727 -9.4688,-24.46875 1.3633,-10.35657 3.8808,-20.56902 17,-29.28125 4.7196,1.75602 10.5429,1.6808 18.5313,-1.96875 -13.6512,-20.29669 -2.5806,-49.25132 9.7813,-62.0625 1.9771,-2.50446 6.3897,-4.47318 13.25,-5.875 -1.0092,-13.6864 -1.2689,-27.97277 1.5,-44.875 -10.4686,11.59949 -21.5528,22.19789 -33.9063,30.8125 4.3727,6.57552 3.2696,9.87124 3.9063,14.1875 -7.2799,17.17013 -16.158,43.51946 -34.7813,44.875 -1.2087,5.49227 -1.6977,10.94352 2.7187,16.1875 -0.8614,14.13448 -9.3783,21.71403 -17.3124,29.78125 -8.153,-2.09244 -15.0816,0.74349 -21.0938,7.34375 6.4972,7.62742 4.9951,12.09505 2.6875,16.21875 -5.3265,12.25437 -10.981,24.0219 -17.4687,34.4375 -22.1691,11.45855 -41.9934,24.61048 -63.4688,36.5625 38.6381,46.20357 -13.5734,77.58942 -48.6875,91.21875 7.1365,-15.53266 12.6824,-32.05981 14.625,-50.90625 -12.1895,18.04823 -24.4548,32.49776 -36.8437,40.625 4.4571,-40.44394 7.0938,-79.94241 30.5624,-130.375 9.1795,8.4883 18.3695,19.75251 26.0938,36.40625 13.2813,-83.74514 -7.819,-184.99895 -28.75,-242.53125 z"
       id="path3934"
       style="fill:#292929;fill-opacity:1;stroke:none" />
    <path
       d="m 88.09375,504.125 c -11.960339,19.67379 -24.746801,34.03853 -37.75,47.125 5.775933,7.43209 8.579277,13.30777 8.40625,17.59375 1.409804,23.8903 -12.623269,63.13225 -44.3125,71.90625 4.960708,10.71338 10.834092,15.88242 17.1875,18.21875 5.591578,19.7431 -0.218221,32.19754 -7.5625,43.65625 -3.030505,0.46736 -6.128375,0.5624 -9.34375,0.28125 l 0.5625,2 c -7.7634187,2.16354 -15.43441026,7.2839 -23,15.5 8.23302694,5.4675 17.3342968,9.73131 17.46875,26.34375 -0.7092178,32.74162 -4.8484567,63.68103 -17.40625,90.15625 l 5.03125,0.65625 c -16.672046,10.65431 -32.424944,21.9145 -50.75,29.71875 l -64.71875,219.81255 c 34.068584,-4.458 64.650725,10.0369 102.75,-16.2813 2.134524,-21.2613 1.552222,-50.604 15.3125,-71.5 22.714177,8.9254 45.901631,20.6598 71.375,45.75 25.325859,2.4999 49.72755,0.5723 70.625,-17.7187 23.72924,-3.4306 81.8652,-4.2945 69.34375,43.1874 41.87995,2.9041 79.67144,13.0269 137,-11.4374 29.1557,8.932 55.19438,19.4289 114.3125,13.4062 -30.79328,-16.2065 -63.37151,-20.6979 -89.0625,-70.0625 -24.56973,11.5996 -46.9072,16.492 -67.6875,16.75 1.11132,-0.8242 2.29576,-1.648 3.59375,-2.5313 11.28883,-10.0942 20.49305,-24.1086 38.71875,-21.24995 -12.78418,-9.03049 -4.707,-26.91927 8.0625,-13.53125 6.39298,-5.57181 13.29811,-6.64564 20.40625,-5.8125 8.99425,-13.91274 24.63658,-21.51594 38.84375,-30.5 -16.46735,2.82556 -32.4762,5.11782 -44.84375,3.0625 -4.44703,8.90398 -9.58059,13.92837 -15.3125,15.34375 -3.09184,4.72664 -13.15757,9.18664 -21.6875,2.4375 -1.59424,8.09501 -2.02281,16.62717 -15.15625,20.375 -1.42371,14.84665 -15.26039,11.03305 -30.5,5.09375 -6.68885,9.8857 -13.81529,17.7929 -21.78125,22.25 -12.23651,-3.2342 -24.02158,-7.8093 -35.53125,-13.2188 -67.85755,12.6921 -105.09143,-25.32772 -148.96875,-52.3437 2.764983,-5.62052 6.942668,-10.42002 10.09375,-15.8125 54.98052,24.85945 112.47524,38.2717 174.78125,29.75 -27.80091,-15.79424 -56.14131,-31.07365 -61.34375,-68.21875 15.17764,-26.31954 53.33593,-39.53412 95.03125,-38.21875 17.90415,3.1024 40.77861,10.5478 66.34375,10.03125 39.76451,-13.42855 77.87545,-15.20968 122.625,-63.625 -77.40758,31.05166 -106.20382,16.48139 -116.1875,-22.15625 20.32987,-47.32309 40.00183,-52.13228 59.9375,-73.75 21.81776,4.14875 42.77475,13.49778 68,-2.84375 -21.35849,-1.02303 -33.88778,-6.50981 -33.125,-26.375 30.99033,-22.1771 38.05148,-60.17737 59.6875,-115.28125 -27.34192,41.56635 -55.53614,97.13028 -79.90625,90.59375 -12.28431,-3.51096 -22.13997,-14.32745 -25.1875,-36.03125 -20.12841,86.78858 -137.75998,228.91272 -127.53125,79.15625 -20.62193,32.81407 -24.91126,59.38376 -25.0625,94.53125 -9.83146,22.77174 -32.90743,39.18462 -56.09375,50.09375 4.69332,-9.21367 8.55356,-19.12809 11.03125,-30.15625 -12.1736,14.09718 -24.06458,25.16075 -35.40625,30.8125 7.86726,-33.89741 14.1038,-67.16367 39.125,-107.625 6.93904,8.13505 13.58974,18.60837 18.46875,33.53125 19.73181,-69.78043 12.06252,-157.90288 0.0937,-208.875 0.42354,25.39069 -1.09993,66.27491 -24.0625,101.125 0.86914,55.07637 -25.14303,98.15501 -60.90625,136.875 -12.35353,-15.17018 -10.07777,-26.78741 -11.5,-39.28125 -8.07837,21.63738 -14.75461,44.99706 -20.96875,68.90625 -14.32389,15.79795 -25.70503,34.18578 -33.90625,52.1875 -3.071632,-21.52736 -32.751012,-28.94794 1.53125,-70.28125 -25.276818,-1.2181 -45.396946,3.11143 -62.84375,10.09375 1.387157,-20.76251 7.116737,-42.8779 14.03125,-65.34375 1.252209,-6.22767 3.602057,-12.05484 16.90625,-14.15625 -0.03019,-0.99931 -0.09793,-1.98064 -0.1875,-2.9375 2.845696,-0.058 5.88165,0.25244 9.1875,1.03125 0.637247,-9.59646 -1.207703,-18.3649 24.28125,-36.125 15.47935,-14.15265 27.99634,-33.67991 53.28125,-30 -17.84361,-12.31077 -6.89008,-37.22048 11,-18.875 8.76836,-7.8145 18.29957,-9.41989 28.15625,-8.375 12.24319,-19.40574 33.80588,-30.18364 53.34375,-42.84375 -22.76244,4.16576 -44.93417,7.59449 -62.09375,4.9375 -6.02221,12.39946 -13.0213,19.45203 -20.9375,21.5 -4.20967,6.59341 -18.11436,12.90363 -30.03125,3.6875 -2.08353,11.23526 -2.52506,23.04597 -20.65625,28.4375 -1.74417,20.58333 -20.959595,15.52321 -42.15625,7.53125 -5.915392,8.95473 -12.098566,16.74285 -18.71875,22.84375 0.83342,-7.44174 3.180244,-14.86874 8.8125,-22.3125 9.095175,-1.48875 13.335078,-7.52452 16.90625,-14.1875 -17.822523,-17.67589 -3.809046,-52.3254 3.78125,-76.21875 4.425622,-3.84867 6.190841,-8.14524 16.40625,-11.03125 C 90.677332,545.68156 88.631261,525.12237 88.0937,504.125 z"
       id="path4744"
       style="fill:#292929;fill-opacity:1;stroke:none" />
  </g>
</svg>
