<?xml version="1.0" encoding="UTF-8" standalone="no"?>
<!-- Created with Inkscape (http://www.inkscape.org/) -->

<svg
   xmlns:dc="http://purl.org/dc/elements/1.1/"
   xmlns:cc="http://creativecommons.org/ns#"
   xmlns:rdf="http://www.w3.org/1999/02/22-rdf-syntax-ns#"
   xmlns:svg="http://www.w3.org/2000/svg"
   xmlns="http://www.w3.org/2000/svg"
   version="1.1"
   width="1920"
   height="1080"
   id="svg2">
  <defs
     id="defs4">
    <filter
       color-interpolation-filters="sRGB"
       id="filter4002">
      <feGaussianBlur
         stdDeviation="1.1306803"
         id="feGaussianBlur4004" />
    </filter>
    <filter
       color-interpolation-filters="sRGB"
       id="filter4026">
      <feGaussianBlur
         stdDeviation="0.69921413"
         id="feGaussianBlur4028" />
    </filter>
    <filter
       color-interpolation-filters="sRGB"
       id="filter4106">
      <feGaussianBlur
         stdDeviation="0.90116185"
         id="feGaussianBlur4108" />
    </filter>
    <filter
       x="-0.11075834"
       y="-0.035979878"
       width="1.2215167"
       height="1.0719599"
       color-interpolation-filters="sRGB"
       id="filter4130">
      <feGaussianBlur
         stdDeviation="0.45190817"
         id="feGaussianBlur4132" />
    </filter>
    <filter
       color-interpolation-filters="sRGB"
       id="filter4386">
      <feGaussianBlur
         stdDeviation="6.4296876"
         id="feGaussianBlur4388" />
    </filter>
    <filter
       color-interpolation-filters="sRGB"
       id="filter4414">
      <feGaussianBlur
         stdDeviation="6.5901486"
         id="feGaussianBlur4416" />
    </filter>
    <filter
       color-interpolation-filters="sRGB"
       id="filter4430">
      <feGaussianBlur
         stdDeviation="6.1438628"
         id="feGaussianBlur4432" />
    </filter>
    <filter
       color-interpolation-filters="sRGB"
       id="filter4446">
      <feGaussianBlur
         stdDeviation="6.399302"
         id="feGaussianBlur4448" />
    </filter>
    <filter
       color-interpolation-filters="sRGB"
       id="filter4465">
      <feGaussianBlur
         stdDeviation="6.6398305"
         id="feGaussianBlur4467" />
    </filter>
    <filter
       color-interpolation-filters="sRGB"
       id="filter4485">
      <feGaussianBlur
         stdDeviation="6.8573812"
         id="feGaussianBlur4487" />
    </filter>
    <filter
       color-interpolation-filters="sRGB"
       id="filter4501">
      <feGaussianBlur
         stdDeviation="7.0277588"
         id="feGaussianBlur4503" />
    </filter>
    <filter
       color-interpolation-filters="sRGB"
       id="filter4517">
      <feGaussianBlur
         stdDeviation="6.9008854"
         id="feGaussianBlur4519" />
    </filter>
    <filter
       color-interpolation-filters="sRGB"
       id="filter4529">
      <feGaussianBlur
         stdDeviation="6.4781189"
         id="feGaussianBlur4531" />
    </filter>
    <filter
       x="-0.065660752"
       y="-0.26668334"
       width="1.1313215"
       height="1.5333667"
       color-interpolation-filters="sRGB"
       id="filter4870">
      <feGaussianBlur
         id="feGaussianBlur4872"
         stdDeviation="20.42836" />
    </filter>
    <filter
       x="-0.24414144"
       y="-0.72225159"
       width="1.4882829"
       height="2.4445033"
       color-interpolation-filters="sRGB"
       id="filter4874">
      <feGaussianBlur
         id="feGaussianBlur4876"
         stdDeviation="20.42836" />
    </filter>
    <filter
       x="-0.087545656"
       y="-0.39395544"
       width="1.1750913"
       height="1.7879109"
       color-interpolation-filters="sRGB"
       id="filter4878">
      <feGaussianBlur
         id="feGaussianBlur4880"
         stdDeviation="20.42836" />
    </filter>
    <filter
       x="-0.24762912"
       y="-0.82543039"
       width="1.4952582"
       height="2.6508608"
       color-interpolation-filters="sRGB"
       id="filter4882">
      <feGaussianBlur
         id="feGaussianBlur4884"
         stdDeviation="20.42836" />
    </filter>
    <filter
       x="-0.24075052"
       y="-0.75365376"
       width="1.481501"
       height="2.5073075"
       color-interpolation-filters="sRGB"
       id="filter4886">
      <feGaussianBlur
         id="feGaussianBlur4888"
         stdDeviation="20.42836" />
    </filter>
    <filter
       x="-0.074716546"
       y="-0.30405"
       width="1.1494331"
       height="1.6081001"
       color-interpolation-filters="sRGB"
       id="filter4890">
      <feGaussianBlur
         id="feGaussianBlur4892"
         stdDeviation="20.42836" />
    </filter>
  </defs>
  <metadata
     id="metadata7">
    <rdf:RDF>
      <cc:Work
         rdf:about="">
        <dc:format>image/svg+xml</dc:format>
        <dc:type
           rdf:resource="http://purl.org/dc/dcmitype/StillImage" />
        <dc:title></dc:title>
      </cc:Work>
    </rdf:RDF>
  </metadata>
  <g
     id="layer3"
     style="display:inline">
    <rect
       width="1920"
       height="1080"
       x="0"
       y="0"
       id="rect3771"
       style="fill:#17fff3;fill-opacity:1;stroke:none" />
    <g
       transform="matrix(-0.56226594,0.07926882,0.07926882,0.56226594,255.86449,751.35886)"
       id="g4652"
       style="fill:#484848;fill-opacity:1">
      <path
         d="m 1525.6233,1082.7912 c 31.5652,-31.5077 70.0946,-58.9405 58.2847,-115.82793 25.2284,-1.00094 48.1405,4.46241 96.5325,-61.18442 38.2241,-39.63111 90.3723,-71.115 82.4855,-137.72697 31.0573,47.68826 97.1579,20.70904 50.2667,-27.52387 21.1216,-22.4634 25.9675,-47.3685 23.9158,-73.30828 51.7831,-30.77096 81.6152,-86.58813 116.207,-136.9745 -12.5257,59.44321 -23.0854,117.35795 -17.3143,162.57528 -32.9613,14.93594 -51.9187,32.82251 -57.8476,53.45399 -17.5977,10.58532 -35.1296,46.59444 -11.778,78.51265 -29.6305,4.68151 -60.7037,5.04679 -76.1221,52.25043 -54.1385,3.13598 -42.1573,53.91215 -22.6681,110.09806 -61.7243,38.44976 -103.5919,82.36936 -100.1734,138.76446 z"
         id="path4654"
         style="fill:#484848;fill-opacity:1;stroke:none" />
      <path
         d="m 1567.0421,651.22466 c -33.0504,-18.48055 -66.4212,-39.5804 -101.1337,-71.6489 10.7974,41.73834 18.4005,83.41216 19.4594,124.95394 21.7886,-0.0736 27.6745,7.40672 38.5815,12.5021 28.472,42.86339 75.6823,103.34896 50.495,148.29445 10.81,11.13186 22.6041,20.61936 41.3929,18.42055 31.2388,23.46908 35.7287,54.58139 42.2449,85.11461 -17.2098,15.59526 -21.1878,35.89999 -15.1282,59.77709 27.4405,-3.3668 35.4047,6.8384 41.393,18.4205 37.0762,56.9229 69.0902,113.7438 77.1656,170.0814 l 81.3047,-34.9946 c -39.7328,-45.1526 -65.3762,-103.8371 -85.2665,-168.0467 -9.1165,-32.8584 6.4083,-46.44688 19.5668,-61.88575 -26.3392,-16.07091 -49.8497,-20.88038 -70.7634,-15.34976 -21.7763,-18.88223 -41.4225,-40.18147 -41.542,-83.635 11.2179,-8.19869 19.8973,-21.74073 23.6361,-45.68388 -67.4888,0.58269 -117.354,-68.94796 -128.0637,-116.88793 -2.7622,-8.3598 -0.543,-21.50389 6.6576,-39.43212 z"
         id="path4656"
         style="fill:#484848;fill-opacity:1;stroke:none" />
      <path
         d="m 1654.0717,523.43541 c -18.0715,90.43633 -26.428,245.99097 12.413,367.67277 7.7113,-26.55755 18.8228,-45.39273 30.5598,-60.12197 46.4279,69.75669 59.3423,127.95719 75.1862,187.16779 -20.2986,-9.2821 -41.8491,-28.02245 -64.109,-52.12306 17.4548,67.12316 63.4868,109.20246 99.3689,160.17666 l 97.2228,-40.0571 c -21.4433,-74.9462 -41.5699,-151.61098 -69.1445,-218.55492 -1.7688,22.07807 2.9024,42.34969 -17.9526,69.78195 -65.2358,-66.05952 -113.5413,-140.36724 -115.2513,-237.37562 -42.4735,-59.99997 -47.5448,-131.8434 -48.2933,-176.5665 z"
         id="path4658"
         style="fill:#484848;fill-opacity:1;stroke:none" />
      <path
         d="m 1490.764,1037.9018 c 37.3459,-10.6583 31.6869,-26.9981 33.7827,-42.31334 -52.9367,-12.96515 -101.2733,-35.4826 -140.8163,-76.2593 28.5639,4.26382 57.228,9.19432 81.6247,-14.31222 3.8768,-27.16728 -15.9032,-57.8306 -46.2763,-80.12945 -14.4563,-7.7714 -34.875,-15.22924 -52.7608,-29.84211 -20.7846,-31.70406 -46.8739,-54.21344 -51.7065,-113.56638 37.724,65.20772 66.3146,70.89794 94.9419,48.9948 11.918,-44.96914 0.5968,-59.33644 -1.5288,-85.81275 -17.8214,-9.20828 -37.9171,-14.25407 -46.7429,-39.92709 15.7532,11.17438 27.7077,14.27686 38.2349,-0.26971 -9.6723,-33.03385 6.4867,-63.98237 21.812,-115.21049 -3.7256,44.78422 -14.6285,99.98969 6.3379,108.92289 10.6891,4.34929 23.7214,2.1502 37.9819,-11.58025 -34.0527,72.91181 -29.6264,239.49669 46.5515,127.33917 -3.6255,34.81784 -15.3872,56.09402 -34.865,81.16357 -10.7628,40.90859 24.6458,91.98246 40.2695,108.16412 24.4717,-13.64607 21.4176,-37.59479 23.4448,-59.64165 19.9226,33.22626 19.6533,76.05429 11.2569,110.764 14.1793,-13.59152 39.4185,-2.313 38.0804,-50.79882 54.2072,38.42754 51.4808,85.72687 73.8441,126.33851 l -76.4732,192.3294 c -21.7344,-22.1531 -51.5546,-28.8689 -63.9729,-68.8078 14.8149,-23.3817 42.8946,-55.4909 21.2133,-89.638 -22.2103,-5.9061 -37.5016,-9.3714 -54.2338,-25.9071 z"
         id="path4660"
         style="fill:#484848;fill-opacity:1;stroke:none" />
    </g>
    <g
       transform="translate(-93.338091,-5.6568518)"
       id="g4595"
       style="fill:#484848;fill-opacity:1">
      <path
         d="m 391.81763,1107.85 c 15.79287,-25.9577 21.46364,-51.4434 55.25171,-78.2403 3.90269,-17.3819 4.65913,-34.48822 -6.26213,-50.57122 -0.35416,-16.77989 4.01025,-57.26167 35.9286,-44.50179 5.59898,-28.84858 15.87697,-54.23989 3.78217,-96.16222 8.69893,-19.49263 18.21202,-36.68703 19.08309,-78.27566 -13.89311,20.00847 -19.79941,42.2717 -56.29351,55.8997 13.76063,41.71709 3.7329,72.09156 -13.28821,99.13149 3.17297,50.75389 -29.77518,73.13938 -52.58153,103.4899 4.59259,29.4185 -10.6163,57.2943 -22.42333,85.4353 z"
         id="path4587"
         style="fill:#484848;fill-opacity:1;stroke:none" />
      <path
         d="m 292.0383,731.83736 c 37.20912,42.8793 89.05149,123.55495 105.32811,200.48223 -12.21314,-11.85974 -23.89372,-18.55258 -34.6585,-22.8583 -3.59525,51.4581 7.21969,86.52789 16.77507,123.03011 8.03285,-11.1475 13.85503,-27.7363 18.42446,-47.40882 11.1031,41.22582 -0.70901,77.75632 -4.38227,115.95452 l -64.21222,8.1774 c -11.3517,-46.6258 -23.93115,-93.7701 -29.56564,-137.98211 7.66983,11.27289 11.3442,23.54059 30.85552,31.86551 14.78326,-55.20781 17.99701,-109.67244 -10.63052,-162.0919 4.45098,-45.03415 -14.71471,-85.0142 -27.93401,-109.16864 z"
         id="path4589"
         style="fill:#484848;fill-opacity:1;stroke:none" />
      <path
         d="m 272.30452,853.14367 c 4.47474,-13.71521 8.36218,-28.24639 9.7902,-46.19461 7.76541,14.47381 16.40824,28.10399 26.8488,40.00574 -6.11796,5.61088 -5.83214,9.22605 -7.56817,13.47132 3.10884,19.35692 5.5272,48.48968 24.19413,54.56055 -0.14871,5.90993 -0.99789,11.61392 -6.8254,15.85462 -2.67833,14.6433 4.10624,24.5125 10.17389,34.7434 8.84804,-0.083 15.20951,4.5727 19.68465,12.82229 -8.55111,6.1499 -8.14281,11.0649 -6.82541,15.8546 4.33421,25.51632 10.05908,49.69552 22.35972,67.55242 l -31.80302,11.2186 c -0.54843,-22.9082 -8.53813,-45.9625 -19.56632,-69.0766 -5.94076,-11.55382 -13.79845,-11.34482 -21.47204,-12.26542 3.21894,-11.3061 8.5568,-18.72879 15.84028,-22.58609 1.21514,-10.9137 1.20932,-21.9534 -9.98824,-34.1475 -5.25908,0.6044 -11.18865,-0.9429 -18.42357,-6.6786 19.04162,-17.28009 15.02857,-49.63084 5.63572,-65.81788 -1.38752,-3.05395 -5.40594,-6.15956 -12.05522,-9.31684 z"
         id="path4591"
         style="fill:#484848;fill-opacity:1;stroke:none" />
      <path
         d="m 418.67417,1036.4534 c 2.5165,-18.0726 -0.43366,-33.4718 11.8015,-56.29712 -1.99276,-10.51109 -5.65397,-20.12019 -15.50788,-26.38139 -4.19554,-9.1644 -11.44085,-32.51796 9.19414,-33.0943 -3.79144,-17.23576 -4.17966,-33.68143 -20.84051,-53.90514 0.14767,-12.81795 1.29201,-24.56321 -8.14266,-47.69402 -2.88767,14.34057 -0.83559,28.01986 -17.70174,44.23167 17.53009,19.71345 19.24426,38.84609 16.30877,57.80804 13.84871,27.21855 1.02482,47.41205 -4.31016,69.57794 9.54478,15.12032 7.80745,34.11092 8.00841,52.43662 z"
         id="path4593"
         style="fill:#484848;fill-opacity:1;stroke:none" />
    </g>
    <g
       transform="matrix(0.56782615,0,0,0.56782615,352.60291,420.74629)"
       id="g4634"
       style="fill:#484848;fill-opacity:1">
      <path
         d="m 1525.6233,1082.7912 c 31.5652,-31.5077 70.0946,-58.9405 58.2847,-115.82793 25.2284,-1.00094 48.1405,4.46241 96.5325,-61.18442 38.2241,-39.63111 90.3723,-71.115 82.4855,-137.72697 31.0573,47.68826 97.1579,20.70904 50.2667,-27.52387 21.1216,-22.4634 25.9675,-47.3685 23.9158,-73.30828 51.7831,-30.77096 81.6152,-86.58813 116.207,-136.9745 -12.5257,59.44321 -23.0854,117.35795 -17.3143,162.57528 -32.9613,14.93594 -51.9187,32.82251 -57.8476,53.45399 -17.5977,10.58532 -35.1296,46.59444 -11.778,78.51265 -29.6305,4.68151 -60.7037,5.04679 -76.1221,52.25043 -54.1385,3.13598 -42.1573,53.91215 -22.6681,110.09806 -61.7243,38.44976 -103.5919,82.36936 -100.1734,138.76446 z"
         id="path4636"
         style="fill:#484848;fill-opacity:1;stroke:none" />
      <path
         d="m 1517.7312,630.09143 c -33.0504,-18.48055 -66.4212,-39.5804 -101.1337,-71.6489 10.7974,41.73834 18.4005,83.41216 19.4594,124.95394 21.7886,-0.0736 27.6745,7.40672 38.5815,12.5021 28.472,42.86339 75.6823,103.34896 50.495,148.29445 10.81,11.13186 22.6041,20.61936 41.3929,18.42055 31.2388,23.46908 35.7287,54.58139 42.2449,85.11461 -17.2098,15.59526 -21.1878,35.89999 -15.1282,59.77712 27.4405,-3.3668 35.4047,6.8384 41.393,18.4205 37.0762,56.9229 69.0902,113.7438 77.1656,170.0814 l 81.3047,-34.9946 c -39.7328,-45.1526 -65.3762,-103.8371 -85.2665,-168.04673 -9.1165,-32.8584 6.4083,-46.44688 19.5668,-61.88575 -26.3392,-16.07091 -49.8497,-20.88038 -70.7634,-15.34976 -21.7763,-18.88223 -41.4225,-40.18147 -41.542,-83.635 11.2179,-8.19869 19.8973,-21.74073 23.6361,-45.68388 -67.4888,0.58269 -117.354,-68.94796 -128.0637,-116.88793 -2.7622,-8.3598 -0.543,-21.50389 6.6576,-39.43212 z"
         id="path4638"
         style="fill:#484848;fill-opacity:1;stroke:none" />
      <path
         d="m 1718.4509,575.55026 c -46.1817,79.82832 -104.0951,224.44199 -106.4278,352.1512 15.8386,-22.66954 32.4146,-36.93358 48.2632,-47.10852 21.542,80.97832 15.0635,140.24136 11.0344,201.40256 -16.2378,-15.3142 -30.6209,-39.9871 -43.9528,-69.9638 -5.0471,69.1717 25.0164,123.8141 42.6096,183.6169 l 104.9391,-6.6807 c 3.7848,-77.8616 9.3688,-156.9273 4.7755,-229.18207 -8.7715,20.33789 -10.8642,41.03527 -39.4301,60.30817 -40.5402,-83.52276 -62.3973,-169.41412 -32.8348,-261.82415 -20.9336,-70.46829 -2.643,-140.12924 11.0237,-182.71959 z"
         id="path4640"
         style="fill:#484848;fill-opacity:1;stroke:none" />
      <path
         d="m 1490.764,1037.9018 c 37.3459,-10.6583 31.6869,-26.9981 33.7827,-42.31334 -52.9367,-12.96515 -101.2733,-35.4826 -140.8163,-76.2593 28.5639,4.26382 57.228,9.19432 81.6247,-14.31222 3.8768,-27.16728 -15.9032,-57.8306 -46.2763,-80.12945 -14.4563,-7.7714 -34.875,-15.22924 -52.7608,-29.84211 -20.7846,-31.70406 -46.8739,-54.21344 -51.7065,-113.56638 37.724,65.20772 66.3146,70.89794 94.9419,48.9948 11.918,-44.96914 0.5968,-59.33644 -1.5288,-85.81275 -17.8214,-9.20828 -37.9171,-14.25407 -46.7429,-39.92709 15.7532,11.17438 27.7077,14.27686 38.2349,-0.26971 -9.6723,-33.03385 6.4867,-63.98237 21.812,-115.21049 -3.7256,44.78422 -14.6285,99.98969 6.3379,108.92289 10.6891,4.34929 23.7214,2.1502 37.9819,-11.58025 -34.0527,72.91181 -29.6264,239.49669 46.5515,127.33917 -3.6255,34.81784 -15.3872,56.09402 -34.865,81.16357 -10.7628,40.90859 24.6458,91.98246 40.2695,108.16412 24.4717,-13.64607 21.4176,-37.59479 23.4448,-59.64165 19.9226,33.22626 19.6533,76.05429 11.2569,110.764 14.1793,-13.59152 39.4185,-2.313 38.0804,-50.79882 54.2072,38.42754 51.4808,85.72687 73.8441,126.33851 l -76.4732,192.3294 c -21.7344,-22.1531 -51.5546,-28.8689 -63.9729,-68.8078 14.8149,-23.3817 42.8946,-55.4909 21.2133,-89.638 -22.2103,-5.9061 -37.5016,-9.3714 -54.2338,-25.9071 z"
         id="path4642"
         style="fill:#484848;fill-opacity:1;stroke:none" />
    </g>
    <g
       transform="matrix(-1,0,0,1,2143.2892,-14.142138)"
       id="g4644"
       style="fill:#484848;fill-opacity:1">
      <path
         d="m 1263.1667,1166.6657 c -4.94,-31.6749 -4.5645,-65.67 -42.6101,-82.8927 10.0989,-15.0789 22.9722,-26.0756 5.3244,-81.9777 -6.8398,-38.98186 -3.0522,-82.60317 -45.0858,-106.22148 40.85,2.14737 53.1609,-47.67191 5.2914,-40.8519 -4.1073,-21.77925 -16.5231,-35.13769 -32.4602,-44.92722 4.0474,-43.10752 -15.7476,-84.06677 -30.3728,-125.49185 29.2277,32.44108 58.4001,63.09297 87.1099,78.88304 -5.2777,25.4702 -2.9128,44.05468 6.5621,56.23295 -1.301,14.70379 12.1947,40.13225 40.6217,40.0797 -9.8243,19.19422 -22.7668,37.39925 -1.8734,66.33907 -21.0976,32.77669 13.4705,47.31257 54.3595,59.77723 -3.7952,52.13296 3.9934,95.04706 38.2004,116.93566 z"
         id="path4646"
         style="fill:#484848;fill-opacity:1;stroke:none" />
      <path
         d="m 1261.7503,1153.0466 c -21.0224,-24.555 -31.3355,-50.3455 -71.3967,-72.704 -7.0707,-17.5838 -10.7907,-35.4164 -2.0739,-54.1719 -2.498,-17.6798 -14.0043,-59.43985 -45.337,-40.58276 -10.813,-29.334 -25.9478,-54.23744 -20.4181,-100.32542 -12.4679,-18.97985 -25.3976,-35.40733 -33.4251,-78.92719 18.0101,18.63316 28.0196,40.99977 68.6698,49.0679 -7.3139,46.15731 8.4103,76.33599 30.9075,101.81733 5.3488,53.83524 43.7735,71.70524 72.9116,99.67334 0.2092,31.6756 20.9464,58.3445 38.157,85.8736 z"
         id="path4648"
         style="fill:#484848;fill-opacity:1;stroke:none" />
      <path
         d="m 1444.5126,807.05003 c -49.5155,19.45543 -127.5916,63.94603 -174.5049,120.76391 15.2911,-4.54674 27.8967,-5.03391 38.7056,-3.93627 -19.3539,44.2941 -43.56,68.72257 -67.3418,94.88743 -1.8315,-12.7446 0.5352,-29.04836 5.281,-47.36911 -27.118,29.41581 -33.1677,64.88041 -46.7002,98.19661 l 49.7749,34.6674 c 29.6687,-33.7923 60.582,-67.482 84.4549,-101.7516 -11.2633,6.0319 -19.6404,14.6244 -39.4577,13.0674 11.6907,-52.26503 32.6665,-98.89032 79.1971,-129.99389 15.8543,-39.33082 49.127,-64.21178 70.5911,-78.53188 z"
         id="path4650"
         style="fill:#484848;fill-opacity:1;stroke:none" />
    </g>
    <g
       transform="matrix(0.38207571,-0.47055023,0.47055023,0.38207571,1365.9545,684.31638)"
       id="g4624"
       style="fill:#484848;fill-opacity:1">
      <path
         d="m -29.484184,1072.1853 c -0.834457,-53.8201 13.369198,-97.8376 -14.200192,-169.08483 9.633714,-30.0526 23.826039,-56.86128 54.938158,-71.62978 C 26.849698,806.15696 56.503353,740.4049 -3.7004818,731.25854 13.630041,682.16859 20.711436,634.16164 76.799194,580.9763 c 4.201134,-37.5799 5.096631,-72.3797 41.079486,-136.68832 3.27024,43.02809 -7.68245,82.33456 35.83561,135.89408 C 95.266109,631.5593 83.331514,686.95354 85.071158,743.52872 34.687899,818.20905 64.932265,881.96423 72.538641,948.7869 39.129035,989.60354 37.350524,1045.8296 30.137766,1099.4085 z"
         id="path4626"
         style="fill:#484848;fill-opacity:1;stroke:none" />
      <path
         d="m 460.28935,587.34413 c -95.30877,32.11448 -246.88096,108.83433 -340.76295,211.73806 29.29625,-7.15812 53.14328,-6.90167 73.44971,-3.8205 -40.67659,81.82852 -88.66118,125.69471 -136.007003,172.87915 -2.268713,-24.23496 3.721389,-54.79832 14.391764,-88.94802 -53.94809,53.01135 -68.6802144,119.4099 -97.34077,181.05368 l 90.748092,70.1024 c 59.172677,-61.0367 120.685887,-121.7638 168.959777,-184.24284 -21.82988,10.33821 -38.44915,25.78058 -75.72204,20.99143 26.95099,-97.5941 70.90779,-183.67292 161.66753,-238.05953 33.60583,-72.78358 98.75183,-116.65805 140.61589,-141.69383 z"
         id="path4628"
         style="fill:#484848;fill-opacity:1;stroke:none" />
      <path
         d="m 381.59658,790.34605 c 5.4701,-24.96488 12.56941,-50.64923 26.49128,-79.34657 -24.84768,15.14177 -50.27873,28.20764 -76.90508,37.0204 4.31115,14.05974 0.63101,19.3255 -0.52605,27.36776 -22.11586,26.77865 -51.94791,69.10948 -85.90866,61.63478 -5.07524,9.16094 -8.89574,18.63576 -3.79889,30.34187 -9.04686,24.77085 -28.26506,33.75903 -46.71259,43.94281 -13.44122,-8.06489 -27.33531,-6.66112 -41.57277,1.92525 7.54427,17.06596 2.51083,24.20741 -3.79888,30.34183 -29.5138,35.08763 -59.952284,66.88532 -94.76287,83.12572 l 38.514029,45.6704 c 21.391051,-34.5005 54.279821,-62.5479 91.863511,-87.96037 19.44062,-12.31835 31.25588,-4.94925 43.80329,0.52932 5.22687,-20.15822 3.73297,-36.28573 -3.93187,-48.7125 7.93571,-17.7611 17.84942,-34.61915 45.89443,-43.1993 7.49096,5.64176 17.9367,8.59831 34.13416,6.32821 -13.58249,-43.47978 21.57266,-89.29541 50.44339,-105.59401 4.85946,-3.42005 13.784,-4.55857 26.77357,-3.4156 z"
         id="path4630"
         style="fill:#484848;fill-opacity:1;stroke:none" />
      <path
         d="M -6.4505979,939.03047 C 5.9202026,909.16654 24.242816,888.29095 26.032388,842.44767 38.506941,828.17973 52.720804,816.78653 73.390294,816.06349 88.021397,805.82896 120.04151,776.65673 89.038419,757.2626 c 21.255441,-22.92612 36.603551,-47.69876 80.197941,-63.64254 11.27473,-19.71206 20.06462,-38.67978 55.2292,-65.54753 -8.45545,24.4962 -23.86312,43.55034 -12.64516,83.44641 -44.46437,14.38448 -64.24863,42.07183 -76.77735,73.67015 C 89.468458,814.3406 90.93948,856.69194 79.201415,895.33719 51.055661,909.87003 36.67102,940.43711 19.92221,968.24953 z"
         id="path4632"
         style="fill:#484848;fill-opacity:1;stroke:none" />
    </g>
    <g
       transform="translate(-596.79813,-79.19596)"
       id="g4613"
       style="fill:#484848;fill-opacity:1">
      <path
         d="m 1263.1667,1166.6657 c -4.94,-31.6749 -4.5645,-65.67 -42.6101,-82.8927 10.0989,-15.0789 22.9722,-26.0756 5.3244,-81.9777 -6.8398,-38.98186 -3.0522,-82.60317 -45.0858,-106.22148 40.85,2.14737 53.1609,-47.67191 5.2914,-40.8519 -4.1073,-21.77925 -16.5231,-35.13769 -32.4602,-44.92722 4.0474,-43.10752 -15.7476,-84.06677 -30.3728,-125.49185 29.2277,32.44108 58.4001,63.09297 87.1099,78.88304 -5.2777,25.4702 -2.9128,44.05468 6.5621,56.23295 -1.301,14.70379 12.1947,40.13225 40.6217,40.0797 -9.8243,19.19422 -22.7668,37.39925 -1.8734,66.33907 -21.0976,32.77669 13.4705,47.31257 54.3595,59.77723 -3.7952,52.13296 3.9934,95.04706 38.2004,116.93566 z"
         id="path4551"
         style="fill:#484848;fill-opacity:1;stroke:none" />
      <path
         d="m 1261.7503,1153.0466 c -21.0224,-24.555 -31.3355,-50.3455 -71.3967,-72.704 -7.0707,-17.5838 -10.7907,-35.4164 -2.0739,-54.1719 -2.498,-17.6798 -14.0043,-59.43985 -45.337,-40.58276 -10.813,-29.334 -25.9478,-54.23744 -20.4181,-100.32542 -12.4679,-18.97985 -25.3976,-35.40733 -33.4251,-78.92719 18.0101,18.63316 28.0196,40.99977 68.6698,49.0679 -7.3139,46.15731 8.4103,76.33599 30.9075,101.81733 5.3488,53.83524 43.7735,71.70524 72.9116,99.67334 0.2092,31.6756 20.9464,58.3445 38.157,85.8736 z"
         id="path4567"
         style="fill:#484848;fill-opacity:1;stroke:none" />
      <path
         d="m 1444.5126,807.05003 c -49.5155,19.45543 -127.5916,63.94603 -174.5049,120.76391 15.2911,-4.54674 27.8967,-5.03391 38.7056,-3.93627 -19.3539,44.2941 -43.56,68.72257 -67.3418,94.88743 -1.8315,-12.7446 0.5352,-29.04836 5.281,-47.36911 -27.118,29.41581 -33.1677,64.88041 -46.7002,98.19661 l 49.7749,34.6674 c 29.6687,-33.7923 60.582,-67.482 84.4549,-101.7516 -11.2633,6.0319 -19.6404,14.6244 -39.4577,13.0674 11.6907,-52.26503 32.6665,-98.89032 79.1971,-129.99389 15.8543,-39.33082 49.127,-64.21178 70.5911,-78.53188 z"
         id="path4569"
         style="fill:#484848;fill-opacity:1;stroke:none" />
    </g>
    <path
       d="m 1835.6562,132.46875 c -164.0202,0 -297,20.25645 -297,45.25 0,6.39155 8.7197,12.4871 24.4063,18 -104.989,10.43107 -177.125,32.0181 -177.125,56.96875 0,35.14719 143.0768,63.625 319.5937,63.625 176.517,0 319.625,-28.47781 319.625,-63.625 0,-12.85358 -19.151,-24.8383 -52.0624,-34.84375 94.8077,-7.55821 159.5312,-22.69052 159.5312,-40.125 0,-24.99355 -132.9485,-45.25 -296.9688,-45.25 z"
       id="path4579"
       style="fill:#ddfffc;fill-opacity:0.70472442;stroke:none;filter:url(#filter4870)" />
    <path
       d="M 302.65625,338.9375 C 140.19814,338.9375 8.5,357.94354 8.5,381.375 c 0,15.87674 60.502176,29.69475 150.03125,36.96875 -30.41895,8.39844 -48.21875,18.55812 -48.21875,29.5 0,28.8988 124.10198,52.34375 277.1875,52.34375 153.08552,0 277.1875,-23.44495 277.1875,-52.34375 0,-17.70116 -46.61244,-33.34342 -117.875,-42.8125 31.55839,-6.76036 50,-14.89349 50,-23.65625 0,-23.43146 -131.69814,-42.4375 -294.15625,-42.4375 z"
       id="path4575"
       style="fill:#ddfffc;fill-opacity:0.70472442;stroke:none;filter:url(#filter4890)" />
    <path
       d="m 1841.8155,846.10252 c -2.2374,-15.1811 -1.9213,-31.4515 -20.0629,-39.8478 4.8944,-7.177 11.1003,-12.389 2.8774,-39.2175 -3.1175,-18.6863 -1.1296,-39.5506 -21.1545,-51.0242 19.5444,1.1917 25.637,-22.6051 2.6967,-19.5327 -1.8786,-10.4412 -7.768,-16.8851 -15.357,-21.6348 2.1101,-20.6173 -7.2005,-40.3021 -14.0348,-60.189 13.8599,15.6453 27.7004,30.434 41.3792,38.1071 -2.6284,12.1702 -1.571,21.0753 2.9153,26.9424 -0.6816,7.0328 5.6762,19.2584 19.2831,19.3473 -4.7795,9.1479 -11.0475,17.8099 -1.1629,31.7459 -10.2298,15.604 6.258,22.7003 25.7796,28.8306 -2.0257,24.9385 1.5302,45.5106 17.8158,56.1249 z"
       id="path4543"
       style="fill:#292929;fill-opacity:1;stroke:none" />
    <path
       d="m 1941.9695,688.09097 c -1.9514,-16.54864 -3.0523,-33.88791 -0.5917,-54.53807 -12.0825,14.62681 -24.967,28.09877 -39.4945,39.20502 5.6537,7.74402 4.5085,11.77324 5.5099,16.97529 -7.9184,21.21467 -17.2761,53.65697 -39.7951,56.29098 -1.1743,6.72655 -1.5086,13.37905 4.1274,19.50553 -0.2939,17.19154 -10.2194,26.82656 -19.4153,37.03406 -10.0012,-2.10402 -18.263,1.72271 -25.2053,10.04846 8.2866,8.9074 6.7075,14.38066 4.1274,19.50553 -10.7056,27.91153 -22.6824,53.99303 -40.6695,71.4205 l 33.4668,19.93039 c 5.8259,-25.81815 20.112,-50.11108 37.8525,-73.78136 9.3526,-11.73443 18.2037,-9.71253 27.103,-9.01158 -1.0767,-13.53516 -5.4351,-23.15391 -12.8071,-29.17695 1.1035,-12.63551 3.6183,-25.13628 19.0697,-36.40156 5.8183,1.87945 12.885,1.47432 22.3813,-3.37729 -17.6378,-23.8954 -5.7431,-59.61969 8.5716,-75.81697 2.2652,-3.14319 7.5215,-5.74721 15.7689,-7.81198 z"
       id="path4547"
       style="fill:#292929;fill-opacity:1;stroke:none" />
    <path
       d="m 1798.2933,583.32924 c -36.9116,29.5653 -91.4742,87.9114 -116.3313,148.5115 11.7839,-7.8895 22.3576,-11.6248 31.8235,-13.5411 -4.7595,42.7054 -18.8731,69.8236 -32.1692,98.3042 -4.9132,-10.3376 -7.2001,-24.803 -7.9986,-41.6078 -15.2718,32.1197 -11.0625,63.8232 -13.7725,95.6744 l 51.3937,16.3163 c 16.2841,-36.5074 33.6518,-73.2558 44.8894,-108.6412 -7.973,8.089 -12.8209,17.5915 -30.056,21.4917 -3.847,-47.4534 1.6752,-92.5655 32.9834,-131.2335 3.0962,-37.5694 24.7881,-67.4609 39.2376,-85.2745 z"
       id="path4553"
       style="fill:#292929;fill-opacity:1;stroke:none" />
    <path
       d="m 1666.1265,978.50488 c 37.3459,-10.6583 31.6869,-26.9981 33.7827,-42.3134 -52.9367,-12.9651 -101.2733,-35.4826 -140.8163,-76.2593 28.5639,4.2638 57.228,9.1943 81.6247,-14.3122 3.8768,-27.1673 -15.9032,-57.8306 -46.2763,-80.1295 -14.4563,-7.7714 -34.875,-15.2292 -52.7608,-29.8421 -20.7846,-31.704 -46.8739,-54.2134 -51.7065,-113.5664 37.724,65.2078 66.3146,70.898 94.9419,48.9949 11.918,-44.9692 0.5968,-59.3365 -1.5288,-85.8128 -17.8214,-9.2083 -37.9171,-14.2541 -46.7429,-39.9271 15.7532,11.1744 27.7077,14.2769 38.2349,-0.2697 -9.6723,-33.0339 6.4867,-63.9824 21.812,-115.2105 -3.7256,44.7842 -14.6285,99.9897 6.3379,108.9229 10.6891,4.3493 23.7214,2.1502 37.9819,-11.5803 -34.0527,72.9119 -29.6264,239.4967 46.5515,127.3392 -3.6255,34.8179 -15.3872,56.094 -34.865,81.1636 -10.7628,40.9086 24.6458,91.9825 40.2695,108.1641 24.4717,-13.6461 21.4176,-37.5948 23.4448,-59.6416 19.9226,33.2262 19.6533,76.0543 11.2569,110.764 14.1793,-13.5916 39.4185,-2.313 38.0804,-50.7989 54.2072,38.4276 51.4808,85.7269 73.8441,126.3385 l -76.4732,192.32942 c -21.7344,-22.1531 -51.5546,-28.8689 -63.9729,-68.8079 14.8149,-23.3816 42.8946,-55.4909 21.2133,-89.6378 -22.2103,-5.90612 -37.5016,-9.37142 -54.2338,-25.90712 z"
       id="path4555"
       style="fill:#292929;fill-opacity:1;stroke:none" />
    <path
       d="m 972.53983,643.09625 c 37.99267,-9.67696 71.57857,-7.04405 117.40567,-38.6057 22.9197,1.75247 44.3105,7.28251 60.0268,26.83341 20.5685,6.7769 72.1624,16.68756 68.4795,-27.51312 37.7077,3.99211 72.9178,0.90517 120.0701,31.66682 27.336,-3.36745 52.1441,-8.60774 103.7836,6.03106 -29.9348,9.58095 -59.6339,8.45616 -90.2363,48.33206 -46.2696,-32.73937 -87.5333,-31.844 -127.3251,-21.06056 -61.4194,-23.09109 -101.4866,9.10109 -147.5488,25.77126 -34.5602,-16.78141 -74.6987,-8.54964 -113.87892,-4.61515 z"
       id="path4545"
       style="fill:#292929;fill-opacity:1;stroke:none" />
    <path
       d="m 1143.4104,785.07465 c -52.8726,-22.89359 -146.79515,-48.3889 -226.21395,-40.61414 15.21139,8.19161 25.26001,17.44793 32.71863,26.54808 -48.69569,19.21564 -85.93941,19.47499 -124.18417,21.39126 8.33067,-11.18228 22.60293,-21.88941 40.24229,-32.32729 -43.2891,1.86317 -75.02672,24.46504 -110.86711,39.70108 l 11.72384,64.6378 c 48.59052,-3.27394 98.05817,-5.51833 142.56451,-13.58655 -13.25418,-3.97452 -26.24911,-3.77855 -40.27179,-20.11343 48.90268,-31.18876 100.62452,-50.9547 160.10445,-39.28288 42.2177,-18.07916 86.7667,-11.75928 114.1833,-6.35393 z"
       id="path4549"
       style="fill:#292929;fill-opacity:1;stroke:none" />
    <path
       d="m 596.46681,619.16577 c -8.19929,-24.20618 -15.37446,-49.86944 -18.26097,-81.63457 -13.46784,25.79336 -28.50674,50.10975 -46.7645,71.40015 10.94894,9.81749 10.51451,16.22708 13.67414,23.71263 -5.12209,34.35073 -8.82668,86.00463 -41.77261,97.12978 0.38096,10.46593 1.99864,20.55313 12.40582,27.94917 5.03559,25.88597 -6.78638,43.50322 -17.3312,61.74678 -15.67508,0.0294 -26.8512,8.40256 -34.61442,23.10506 15.26971,10.72373 14.64421,19.43835 12.40581,27.94912 -7.17026,45.28568 -16.8305,88.23069 -38.26481,120.10701 l 56.55902,19.2403 c 0.51598,-40.5905 14.2105,-81.58792 33.28625,-122.75154 10.29376,-20.58441 24.21706,-20.37055 37.79175,-22.15383 -5.92689,-19.96363 -15.52998,-33.0062 -28.50864,-39.69415 -2.36952,-19.30848 -2.57877,-38.86434 17.01416,-60.68768 9.32794,0.96615 19.80087,-1.89262 32.50276,-12.19665 -34.07398,-30.23144 -27.60856,-87.61745 -11.29194,-116.478 2.39713,-5.43735 9.45361,-11.01855 21.16938,-16.74358 z"
       id="path4557"
       style="fill:#292929;fill-opacity:1;stroke:none" />
    <path
       d="m 510.79763,834.19522 c -11.78466,-15.44062 -17.10259,-31.26139 -40.38373,-46.02609 -3.64929,-10.78791 -5.27994,-21.61203 0.58209,-32.57056 -0.90265,-10.69128 -6.39802,-36.13337 -25.83189,-25.87632 -5.49836,-17.96356 -13.73897,-33.41477 -8.86759,-60.87898 -6.84029,-11.80739 -14.04369,-22.09899 -17.39264,-48.47956 10.17704,11.78623 15.42821,25.54263 39.5445,31.75354 -5.94417,27.4457 2.47222,46.08166 15.11044,62.12775 1.39406,32.47906 23.84469,44.49566 40.38327,62.25756 -0.94237,19.01094 10.5999,35.71021 19.99731,52.80663 z"
       id="path4559"
       style="fill:#292929;fill-opacity:1;stroke:none" />
    <path
       d="m 579.54874,857.92859 c 35.9813,48.71699 56.7518,31.52004 80.2651,26.20899 -10.0022,-84.40082 -3.5384,-167.30475 34.3993,-247.34741 9.387,44.04818 17.8552,88.60683 65.52248,111.38824 41.79678,-9.18883 75.76751,-54.83927 91.73149,-111.38824 3.44758,-25.36139 3.17777,-59.25965 14.74256,-93.36955 34.94167,-47.68644 53.55467,-98.0943 137.59723,-137.59724 -74.61346,90.74079 -67.29506,135.6076 -19.65676,165.4443 72.19176,-7.17612 86.98636,-31.56438 124.49266,-49.14188 3.7066,-31.06168 0.091,-63.16945 32.7613,-90.09342 -7.7087,29.1158 -5.705,48.27106 21.2949,55.69412 42.9583,-32.18395 96.9914,-25.5019 180.1869,-31.12319 -67.4433,19.04005 -154.0303,33.29415 -155.616,68.79862 -0.5088,17.98895 9.8269,35.82023 37.6755,49.14187 -125.1017,-9.8767 -365.9772,87.65065 -160.5302,137.59724 -52.833,13.73796 -90.33606,8.1906 -137.59716,-6.55225 -65.62999,6.6435 -120.86678,86.27661 -135.95924,117.94049 33.30727,28.2811 66.61454,10.7292 99.9218,1.63806 -37.63587,47.25961 -100.33286,70.27802 -155.61596,76.98893 27.60142,13.27912 24.9261,56.30594 95.00766,27.84706 -26.4909,100.17527 -97.06146,122.04917 -144.14946,176.91087 l -322.69828,-6.5523 c 20.4734,-43.8527 13.9806,-91.0761 65.5225,-131.04507 42.2471,8.85544 104.492,32.31307 142.51138,-18.01869 -3.5156,-35.66618 -6.8134,-59.89313 8.1903,-93.36955 z"
       id="path4541"
       style="fill:#292929;fill-opacity:1;stroke:none" />
    <path
       d="m 1006.5801,906.55962 c 10.0685,-5.20199 21.5101,-8.88128 23.0267,-23.56683 6.1868,1.69854 11.3152,4.7844 28.0853,-7.39073 12.3062,-6.65697 27.3575,-10.26956 30.5725,-27.0083 3.8523,13.93844 21.9361,12.49019 14.2909,-2.79837 6.8435,-3.81516 9.9332,-9.47376 11.432,-15.91368 14.9081,-3.46805 26.4271,-14.69059 38.681,-24.23174 -7.6067,13.43222 -14.6198,26.64545 -16.701,38.04008 -9.1316,1.08128 -15.0988,3.95449 -18.1219,8.49482 -5.0762,1.20965 -12.0924,8.58141 -8.8929,18.10791 -7.536,-1.14589 -15.0894,-3.44809 -22.455,6.79739 -13.3525,-3.40573 -14.3574,9.8129 -13.9603,24.9193 -17.9064,4.56292 -31.4248,11.97819 -34.9358,25.89879 z"
       id="path4561"
       style="fill:#292929;fill-opacity:1;stroke:none" />
    <path
       d="m 823.24797,395.80391 c -33.12463,44.2788 -77.80056,126.30699 -88.18978,202.18656 11.02861,-12.38223 21.90406,-19.70749 32.05817,-24.64924 7.12013,49.73639 -0.91399,84.56781 -7.62351,120.70202 -8.58947,-10.26311 -15.41493,-25.96819 -21.24078,-44.7572 -7.88005,40.83225 6.17013,75.4876 12.43137,112.33687 l 62.95639,3.41744 c 7.7409,-46.09562 16.63804,-92.78138 18.99508,-136.12901 -6.6563,11.49198 -9.36105,23.66863 -27.72873,33.13147 -18.25327,-52.59035 -25.21474,-105.27438 -1.09937,-158.21618 -7.49862,-43.43536 8.30181,-83.62564 19.44116,-108.02273 z"
       id="path4563"
       style="fill:#292929;fill-opacity:1;stroke:none" />
    <path
       d="m 1155.4424,922.48285 c 17.3125,-18.80021 36.3945,-37.40013 62.8876,-55.16171 -29.0927,0.54621 -57.6423,-0.99448 -85.0794,-6.81066 -3.3668,14.31522 -9.2002,17.00679 -14.2546,23.36828 -32.6016,11.97274 -79.7087,33.48468 -105.2665,9.90505 -9.0022,5.35167 -17.0791,11.60722 -18.5806,24.28615 -20.30331,16.82912 -41.43162,14.89999 -62.49726,14.39197 -7.54046,-13.74234 -20.24666,-19.53627 -36.87116,-19.30072 -2.0907,18.54156 -10.03852,22.17047 -18.58063,24.28615 -43.17988,15.41753 -85.49936,27.52789 -123.7494,23.9989 l 10.22932,58.85964 c 35.86939,-19.0064 78.41371,-26.6424 123.68365,-29.6357 22.99962,-0.8345 29.48688,11.487 37.55956,22.5452 14.67859,-14.7721 21.52093,-29.4524 21.16822,-44.04867 15.80904,-11.33599 32.87086,-20.89484 61.4158,-14.16238 3.6239,8.64931 11.1536,16.46979 26.2857,22.67705 10.1957,-44.39614 63.6569,-66.23321 96.8069,-65.74971 5.9211,-0.50306 14.202,3.01412 24.8428,10.55116 z"
       id="path4565"
       style="fill:#292929;fill-opacity:1;stroke:none" />
    <path
       d="m 172.53406,204.60181 c 0,17.96411 -45.58788,32.52691 -101.823382,32.52691 -56.2355,0 -101.823379,-14.5628 -101.823379,-32.52691 0,-17.96412 45.587879,-32.52692 101.823379,-32.52692 56.235502,0 101.823382,14.5628 101.823382,32.52692 z"
       id="path4571"
       style="fill:#ddfffc;fill-opacity:0.70472442;stroke:none;filter:url(#filter4886)" />
    <path
       d="m 630.73927,258.34192 c 0,16.40202 -44.32155,29.69848 -98.99495,29.69848 -54.6734,0 -98.99495,-13.29646 -98.99495,-29.69848 0,-16.40202 44.32155,-29.69849 98.99495,-29.69849 54.6734,0 98.99495,13.29647 98.99495,29.69849 z"
       id="path4573"
       style="fill:#ddfffc;fill-opacity:0.70472442;stroke:none;filter:url(#filter4882)" />
    <path
       d="m 1357.645,2.3692651 c 0,34.3661369 -125.3666,62.2253949 -280.0143,62.2253949 -154.64758,0 -280.01424,-27.859258 -280.01424,-62.2253949 0,-34.3661371 125.36666,-62.2253951 280.01424,-62.2253951 154.6477,0 280.0143,27.859258 280.0143,62.2253951 z"
       id="path4583"
       style="fill:#ddfffc;fill-opacity:0.70472442;stroke:none;filter:url(#filter4878)" />
    <path
       d="m 1185.1109,214.5013 c 0,18.74516 -44.9547,33.94112 -100.4091,33.94112 -55.4545,0 -100.40917,-15.19596 -100.40917,-33.94112 0,-18.74517 44.95467,-33.94113 100.40917,-33.94113 55.4544,0 100.4091,15.19596 100.4091,33.94113 z"
       id="path4585"
       style="fill:#ddfffc;fill-opacity:0.70472442;stroke:none;filter:url(#filter4874)" />
    <path
       d="m 530.62582,685.49087 c 9.61199,-5.51032 20.63003,-9.592 21.48483,-24.00011 6.11508,1.39502 11.25572,4.19023 27.11573,-8.41667 11.73543,-7.02687 26.28202,-11.1974 28.70794,-27.68332 4.35732,13.44939 21.95802,11.2634 13.83871,-3.34283 6.52125,-4.01822 9.29756,-9.6768 10.48674,-16.03063 14.41285,-4.02324 25.18476,-15.47572 36.74613,-25.31733 -6.85651,13.44377 -13.1425,26.64835 -14.68916,37.86632 -8.87272,1.44562 -14.57831,4.50647 -17.33734,9.06999 -4.90631,1.39802 -11.4446,8.89735 -7.91317,18.06542 -7.40935,-0.79772 -14.88492,-2.72405 -21.64193,7.59696 -13.18664,-2.75677 -13.60422,10.19678 -12.57192,24.9343 -17.29466,5.2205 -30.18176,13.0397 -33.01705,26.78579 z"
       id="path4670"
       style="fill:#292929;fill-opacity:1;stroke:none" />
    <path
       d="m 1143.5699,1079.277 c -19.9068,-28.7148 -60.1254,-71.9082 -103.5217,-93.32246 5.2134,9.088 7.4267,17.07206 8.356,24.14666 -31.2329,-5.6879 -50.49985,-17.47457 -70.81268,-28.72819 7.87007,-3.09358 18.64853,-4.0407 31.07518,-3.77148 -22.89418,-12.89548 -46.47589,-11.41148 -69.81345,-15.03465 l -14.64927,37.0467 c 26.07643,13.86562 52.27509,28.54222 77.78222,38.63112 -5.55502,-6.2894 -12.3113,-10.3476 -14.30612,-23.2497 35.17172,-0.4131 68.13942,5.9598 95.04142,31.0092 27.5324,4.1998 48.4565,21.7136 60.8484,33.2728 z"
       id="path4672"
       style="fill:#292929;fill-opacity:1;stroke:none" />
    <path
       d="m 1773.6332,1048.6168 c -38.0752,-9.3466 -66.4679,-27.4795 -121.7572,-21.2057 -19.3965,-12.3352 -35.6659,-27.2836 -40.3288,-51.93106 -14.957,-15.6613 -55.8118,-48.6921 -73.3692,-7.9612 -31.3894,-21.2724 -63.9075,-35.1234 -91.0284,-84.4598 -25.7031,-9.8969 -50.0574,-16.9514 -88.7268,-54.1753 30.9209,5.6382 56.5942,20.6109 102.3648,-0.1651 25.4111,50.6658 62.2386,69.2999 102.422,78.5172 43.3192,49.2848 93.8235,39.7433 142.3102,46.7186 22.5921,31.0744 61.8803,42.7062 98.3002,57.67826 z"
       id="path4678"
       style="fill:#292929;fill-opacity:1;stroke:none" />
    <path
       d="m 1511.4643,931.48272 c -1.7367,-10.94248 -1.6385,-22.69181 -14.8035,-28.60876 3.4762,-5.22078 7.9151,-9.03328 1.764,-28.33708 -2.4001,-13.4662 -1.1316,-28.54547 -15.6807,-36.66921 14.12,0.70419 18.3285,-16.52521 1.7908,-14.12363 -1.4398,-7.52324 -5.7432,-12.12846 -11.2604,-15.49706 1.3588,-14.90208 -5.5205,-29.03951 -10.6137,-43.34269 10.1316,11.18471 20.2422,21.75114 30.1792,27.18159 -1.8002,8.8076 -0.9657,15.22835 2.3202,19.42853 -0.436,5.08292 4.2519,13.85868 14.0765,13.81406 -3.3776,6.64285 -7.8336,12.94661 -0.5859,22.92915 -7.261,11.34743 4.6995,16.33901 18.8426,20.60892 -1.2631,18.02113 1.4686,32.84528 13.3112,40.3784 z"
       id="path4680"
       style="fill:#292929;fill-opacity:1;stroke:none" />
    <path
       d="m -24.084442,1082.9503 c 24.11845426,-49.2896 57.370437,-82.7213 65.251169,-160.20337 22.6446,-22.85454 47.931969,-40.65438 83.028433,-39.69329 25.87174,-15.79265 83.2086,-61.83222 32.73171,-97.97042 38.43774,-36.5953 67.06196,-76.94383 142.60958,-99.34613 21.18756,-32.20534 38.08636,-63.41241 100.50697,-105.21477 -16.91676,40.60912 -45.03718,71.26263 -30.25056,140.0447 -76.85668,19.66821 -113.30543,64.48615 -137.87469,116.69743 -80.29971,44.57068 -82.28693,116.48169 -106.26201,180.71615 -49.224033,21.6457 -76.828823,71.9138 -108.147894,117.2646 z"
       id="path4682"
       style="fill:#292929;fill-opacity:1;stroke:none" />
    <path
       d="m 86.724848,944.54747 c 20.580552,-0.64654 42.220292,2.2784 56.204022,-20.61223 8.81389,7.62845 14.80647,16.70295 51.83404,9.87004 25.38835,-1.28011 52.89445,4.58021 71.27003,-20.34723 -4.59591,25.86916 26.1876,37.65222 25.62196,6.60017 14.20709,-0.89751 23.70295,-7.75625 31.2021,-17.14157 27.15806,5.98511 54.83033,-3.39692 82.39106,-9.44677 -22.9877,16.06771 -44.83064,32.2414 -57.16374,49.29446 -15.81836,-5.37626 -27.85136,-5.33712 -36.36261,-0.25978 -9.26984,-1.99066 -26.54464,4.60288 -28.75696,22.72723 -11.45868,-7.77884 -22.04058,-17.46669 -42.13817,-6.43514 -19.22601,-16.03728 -31.22229,4.84884 -42.39783,29.92773 -32.9312,-6.53756 -60.90082,-4.96319 -77.55558,15.11202 z"
       id="path4686"
       style="fill:#292929;fill-opacity:1;stroke:none" />
    <path
       d="m 315.52312,858.28067 c -24.75367,1.1202 -65.86519,8.9748 -95.09739,26.9547 7.42421,0.2981 13.05368,1.9814 17.65256,4.0925 -15.19936,16.6093 -29.5465,23.732 -43.968,31.6839 1.11155,-5.8932 4.60949,-12.7229 9.45959,-20.0835 -16.38145,8.8825 -24.38749,23.6031 -35.36813,36.2503 l 16.7193,22.7741 c 18.16464,-10.4274 36.86236,-20.6222 52.54429,-32.1327 -5.87266,0.9628 -10.85866,3.4888 -19.35896,-0.1812 13.02193,-21.2762 29.28717,-38.6688 54.47912,-45.3724 12.90963,-14.9485 31.32104,-20.9056 42.93762,-23.9857 z"
       id="path4688"
       style="fill:#292929;fill-opacity:1;stroke:none" />
    <path
       d="m 269.97781,582.78263 c -3.97684,-11.7405 -7.45695,-24.1878 -8.85697,-39.5946 -6.5322,12.5104 -13.8264,24.3044 -22.68182,34.6307 5.31048,4.7617 5.09977,7.8705 6.63226,11.5011 -2.48432,16.6609 -4.28113,41.7142 -20.26063,47.1101 0.18477,5.0762 0.96938,9.9687 6.01709,13.556 2.44238,12.5552 -3.29154,21.1 -8.40601,29.9485 -7.60276,0.014 -13.02342,4.0754 -16.78875,11.2065 7.40614,5.2012 7.10276,9.428 6.01709,13.5559 -3.47774,21.9645 -8.16317,42.7938 -18.55928,58.2546 l 27.43237,9.3319 c 0.25026,-19.6873 6.89241,-39.5719 16.14456,-59.5372 4.9927,-9.9839 11.74581,-9.8801 18.32983,-10.7451 -2.87467,-9.6828 -7.53238,-16.0087 -13.82731,-19.2525 -1.14927,-9.365 -1.25076,-18.8501 8.25224,-29.4349 4.52425,0.4686 9.60386,-0.918 15.76455,-5.9156 -16.52663,-14.6629 -13.39076,-42.4964 -5.47684,-56.4944 1.16266,-2.6372 4.58521,-5.3442 10.26762,-8.121 z"
       id="path4690"
       style="fill:#292929;fill-opacity:1;stroke:none" />
    <path
       d="m 61.551206,571.33194 c 31.311057,45.57932 72.640854,129.34334 79.959964,205.58034 -10.52002,-12.8172 -21.09105,-20.57525 -31.03752,-25.92281 -9.12113,49.40867 -2.49895,84.53589 2.74711,120.91134 8.99659,-9.90817 16.45018,-25.32494 23.0294,-43.86369 6.22608,41.11695 -9.21096,75.17715 -16.95393,111.74382 l -63.042999,0.87451 C 50.378529,894.28492 43.372339,847.27821 42.766259,803.87073 c 6.187213,11.75128 8.398424,24.02712 26.369334,34.22334 20.3604,-51.8109 29.44193,-104.17126 7.482339,-158.04298 9.245071,-43.09739 -4.920837,-83.89242 -15.066726,-108.71915 z"
       id="path4692"
       style="fill:#292929;fill-opacity:1;stroke:none" />
    <path
       d="m 63.776316,1044.8093 c 11.03483,-0.9923 22.40338,-3.9612 31.36047,7.3568 4.21203,-4.6475 6.823084,-9.8841 27.045044,-8.6411 13.64424,-0.9664 27.95531,-5.8844 39.39071,6.2359 -4.13628,-13.5189 11.54053,-21.8136 13.25666,-5.1907 7.64696,-0.444 13.16482,2.6023 17.78051,7.1281 14.11717,-4.9623 29.50775,-1.7497 44.62224,-0.3094 -13.323,-7.0884 -26.04144,-14.3075 -33.7373,-22.6146 -8.09981,3.8997 -14.52971,4.661 -19.40591,2.5021 -4.82199,1.666 -14.47773,-0.7332 -16.83739,-10.2703 -5.61496,4.8997 -10.63746,10.7621 -22.08942,6.1761 -9.22697,9.8158 -16.99227,-0.5606 -24.59161,-13.2298 -17.16486,5.6323 -32.206864,6.6093 -42.407734,-3.0312 z"
       id="path4694"
       style="fill:#292929;fill-opacity:1;stroke:none" />
  </g>
</svg>
