<?xml version="1.0" encoding="UTF-8" standalone="no"?>
<!-- Created with Inkscape (http://www.inkscape.org/) -->

<svg
   xmlns:dc="http://purl.org/dc/elements/1.1/"
   xmlns:cc="http://creativecommons.org/ns#"
   xmlns:rdf="http://www.w3.org/1999/02/22-rdf-syntax-ns#"
   xmlns:svg="http://www.w3.org/2000/svg"
   xmlns="http://www.w3.org/2000/svg"
   version="1.1"
   width="1920"
   height="1080"
   id="svg2">
  <defs
     id="defs4" />
  <metadata
     id="metadata7">
    <rdf:RDF>
      <cc:Work
         rdf:about="">
        <dc:format>image/svg+xml</dc:format>
        <dc:type
           rdf:resource="http://purl.org/dc/dcmitype/StillImage" />
        <dc:title></dc:title>
      </cc:Work>
    </rdf:RDF>
  </metadata>
  <g
     id="layer4"
     style="display:inline">
    <g
       id="g3095"
       style="display:inline">
      <path
         d="m 1176.6429,668.14286 c -5.5642,-64.00735 3.1843,-112.08173 30.8571,-189.92857 55.3163,-65.85983 134.1567,-168.18271 313.0125,-152.67332 81.6003,-7.77882 150.3153,35.73485 193.4161,55.53046 20.0958,8.22587 38.4142,18.23335 53.5714,34.64286 172.779,143.36139 105.5349,369.15907 70.8119,451.85442 -2.6097,23.80411 -11.291,47.84631 -24.943,64.26367 -4.0245,-45.66635 -13.1586,-41.59845 -19.6164,-77.37335 -16.6907,9.27276 -22.3776,33.7193 -39.1208,60.82248 -1.3549,-9.57629 -0.2091,-22.17071 1.8981,-32.06389 -6.8505,8.11915 -16.8273,17.57778 -24.351,22.33078 l -6.8904,-9.66823 c 6.6638,-78.919 36.381,-142.66288 29.763,-167.35728 -31.618,50.32971 -79.9628,99.29705 -130.9078,131.38676 47.3472,-60.89502 40.4528,-104.8957 58.1347,-147.02558 -12.0245,17.52665 -17.774,36.11574 -28.8696,49.29091 -3.4907,-17.46705 -3.5793,-42.89223 -4.7071,-54.64985 -9.2406,6.87899 -17.2263,21.12456 -24.5911,28.61055 2.242,-16.30011 7.7898,-33.39565 16.7952,-43.88464 -2.233,-21.43406 -5.8045,-46.34933 -9.7507,-61.84426 -9.822,15.11013 -20.4079,28.56367 -31.0718,41.43624 -20.9138,92.19848 -80.4755,125.71475 -106.4609,165.63396 -1.7114,-23.97033 -10.5421,-74.53694 -11.9721,-92.88306 -9.9471,24.20154 -11.5575,83.15234 -19.0565,116.47764 -14.0158,-17.15444 -17.3939,-43.33046 -25.5881,-63.90743 -19.1885,46.12543 -50.0798,100.64925 -79.2566,137.34144 7.5105,-35.38269 19.0197,-59.02237 32.7561,-87.53603 -14.5321,16.43567 -30.5624,37.40025 -49.7549,49.64299 30.4162,53.39833 -32.8073,68.74838 -65.0359,116.24457 10.843,-36.5322 19.2964,-65.44638 28.2465,-90.62071 -12.1708,6.02212 -24.3439,12.20324 -41.0396,20.72536 11.3569,-20.09132 30.9398,-36.81895 40.2968,-51.79476 -28.4635,17.87616 -60.312,33.31978 -90.7941,59.35295 11.8132,-28.61944 22.0759,-56.97235 49.8618,-88.44851 -31.3976,17.54745 -75.9164,36.55312 -97.3517,40.96429 l 31.0547,-51.22901 -13.4511,1.147 c 17.7657,-20.83174 27.9618,-17.32031 42.1052,-45.77514 l -4.8928,-9.85714 c -37.0773,5.78905 -73.1056,0.16109 -96.2143,-4.78572 19.3553,-24.53767 41.193,-42.97072 64.6071,-64.28571 -7.8533,-14.22619 -7.9903,-32.45238 -10.25,-46.67857 -9.4003,-1.634 -17.5744,-2.56549 -28.1428,-4.53572 11.0472,-3.82533 18.6835,-5.54049 26.8929,-8.89285 z"
         id="path3097"
         style="fill:#000000;stroke:none" />
      <path
         d="m 134.34375,-41.875 -166.1875,3 c 68.840444,40.8220496 137.6095,62.706415 192.25,92.1875 39.43826,30.887412 80.26176,59.64556 142.875,104.40625 C 171.26714,134.77365 74.016492,140.7744 -11.1875,126.625 l 0.3125,38.34375 c 8.355359,1.13813 18.1283,2.04617 31.90625,3.71875 81.18759,58.25071 201.98833,118.44163 318.53125,174.53125 -141.4069,-4.32305 -224.86489,-20.13477 -349.625,-46.25 l -0.53125,44.96875 c 174.58289,50.12288 371.55448,70.24377 539.15625,64.8125 17.92933,4.23756 30.75664,7.65639 47.03125,9.4375 43.71808,26.25287 119.92778,18.17733 169.0625,22.15625 -200.23745,71.20067 -388.3072,141.15736 -756.8125,103.84375 l -0.5625,99.59375 c 72.124891,-0.64196 117.74275,-8.75849 185.625,-24.28125 234.17601,13.96867 496.05784,-48.96529 743.5,-165.34375 91.47655,-10.68658 225.74645,-70.39095 342.96875,-11.59375 47.9613,-39.18676 96.4456,-68.78721 172.5,-95.625 -50.4029,-46.96646 -127.9468,-89.67061 -233.6562,-88.9375 -13.7691,-4.70922 -23.1526,-6.59815 -36.5,-7.90625 -98.1607,-41.71106 -136.3359,-43.00404 -237.9063,-56.5 C 833.12274,161.74698 731.30541,151.1577 640.96875,161.875 L 551.84375,131.5 C 505.02936,99.191953 480.6792,51.530655 453.90625,18.1875 464.89557,49.884747 479.27289,83.32049 511.6875,118.375 377.97401,82.119615 241.95801,30.381262 134.34375,-41.875 z m 257.91881,193.62224 c 29.68698,6.09588 62.03976,17.43124 94.04902,29.33395 -15.02273,-1.13633 -29.43296,-2.09765 -41.18658,-2.29994 -15.53336,-11.12515 -34.75148,-18.32543 -52.86244,-27.03401 z M 82.5625,176.375 c 94.85355,6.30784 235.09875,38.67886 346.5,55.53125 50.04897,28.045 145.51501,69.44624 210.6875,92.1875 -44.51375,8.33871 -68.66799,13.67035 -113.1875,16.5 C 387.04296,311.34287 216.74414,236.01766 82.5625,176.375 z m 558.30023,73.73163 c 8.05969,0.23794 29.59,-0.43741 43.1338,0.66032 36.13008,10.99941 66.80693,19.9356 119.9287,30.93343 -9.95567,2.2959 -31.41066,5.56528 -40.09375,7.90625 -42.50337,-14.88706 -94.74363,-29.22483 -122.96875,-39.5 z m 297.19793,79.50092 c 3.7091,1.16382 10.87284,3.71417 15.02684,6.27804 -10.40774,-0.22906 -18.65657,-0.0253 -27.15707,-3.3289 3.19689,-1.90224 7.58656,-2.79765 12.13023,-2.94914 z M 781.246,363.16361 c 10.4632,3.55387 25.1698,6.50154 38.70159,9.61704 -20.83726,-1.74381 -42.32372,-3.64992 -59.55422,-4.49204 5.61966,-2.37395 13.44101,-3.64704 20.85263,-5.125 z"
         id="path3099"
         style="fill:#000000;stroke:none;display:inline" />
      <path
         d="m 947.33196,439.90289 c 39.81369,-23.39615 52.47409,-36.80347 83.57644,-57.71068 -113.4037,40.68501 -241.02978,24.59163 -402.48717,18.68808 152.93501,-0.44713 228.9083,12.1446 320.50667,-7.2726 -29.28576,2.09033 -72.45074,-2.19421 -111.79926,-6.36523 81.6825,1.45174 162.28395,4.5011 226.62766,-26.16295 l 9.5459,5.3033 c -38.4264,20.11314 -69.3209,44.2297 -125.97024,73.52008 z"
         id="path3101"
         style="fill:#54677f;fill-opacity:1;stroke:none;display:inline" />
      <path
         d="m 744.29289,444.34315 12.71752,-0.3033 C 538.63699,550.63043 235.44169,592.25026 -7.4142132,550.8873 204.24242,575.50645 454.80825,563.93641 744.29289,444.34315 z"
         id="path3103"
         style="fill:#54677f;fill-opacity:1;stroke:none;display:inline" />
      <path
         d="m 314.27343,327.08814 c 75.08721,32.04909 146.97886,76.17001 286.70668,89.00966 l -7.07107,-5.65685 C 487.11067,402.98822 400.73988,358.93106 314.27343,327.08814 z"
         id="path3105"
         style="fill:#54677f;fill-opacity:1;stroke:none;display:inline" />
      <path
         d="M 826.85846,373.48941 C 448.11001,368.30438 419.53424,321.38965 100,196.5 347.13542,297.28223 425.29649,373.92324 837.875,382 L 825.75,365.375 C 726.12391,343.6551 534.03039,288.4574 374,187 c 98.8949,71.5586 283.66326,146.50251 452.85846,186.48941 z"
         id="path3107"
         style="fill:#54677f;fill-opacity:1;stroke:none;display:inline" />
      <path
         d="M 514.17754,123.34087 C 379.53797,90.441294 239.47561,27.331711 124.20815,-38.586579 223.30869,30.459328 344.65276,91.767474 536.09785,143.13986 z"
         id="path3109"
         style="fill:#54677f;fill-opacity:1;stroke:none;display:inline" />
      <path
         d="m 1157.75,286.5 c 61.2642,3.0249 104.496,23.05825 152,40 -45.3488,-11.00125 -86.9159,-20.96236 -152,-40 z"
         id="path3111"
         style="fill:#54677f;fill-opacity:1;stroke:none;display:inline" />
      <path
         d="m 848.99695,277.82843 -67.67804,19.9467 c 28.85005,10 60.84622,18.76256 90.44365,29.46967 C 697.79459,285.85984 542.64439,229.43026 422.05293,175.958 548.30965,228.27865 657.2306,263.28851 770.36181,293.89125 l 43.08667,-13.28554 c -54.3789,-11.66441 -115.11904,-28.1536 -150.83489,-42.56282 15.13016,0.67758 24.06291,0.57027 36.5223,-0.24963 -9.81137,-4.98344 -44.95158,-22.85184 -107.36813,-54.16852 108.81618,47.33572 207.89692,89.96323 257.22919,94.20369 z"
         id="path3113"
         style="fill:#54677f;fill-opacity:1;stroke:none;display:inline" />
      <path
         d="m 889.5,196.5 c 92.55906,4.67379 179.6823,19.59136 259,52.5 -83.9396,-9.50401 -169.26518,-37.05581 -259,-52.5 z"
         id="path3115"
         style="fill:#54677f;fill-opacity:1;stroke:none;display:inline" />
      <path
         d="m 1219.5,265.75 c 52.7545,5.70203 100.9276,20.23341 145,37 -49.3599,-11.0063 -97.2686,-24.13203 -145,-37 z"
         id="path3117"
         style="fill:#54677f;fill-opacity:1;stroke:none;display:inline" />
      <path
         d="m 952.61181,243.28906 c -33.59879,-16.42765 -65.37903,-23.34894 -121.8308,-40.62592 66.76169,11.03129 99.84654,22.76549 182.19389,56.44777 -41.76473,5.27551 -74.85655,2.86127 -124.09622,14.11373 l -13.85876,-6.25066 c 26.63397,-5.47356 70.2874,-12.8781 94.76561,-14.48995 -37.88431,-3.3421 -126.50896,-14.99232 -157.53117,-22.08032 48.50963,2.56999 69.18799,4.4773 140.35745,12.88535 z"
         id="path3119"
         style="fill:#54677f;fill-opacity:1;stroke:none;display:inline" />
      <path
         d="M 872.74134,1085.864 C 836.8728,920.18863 846.45752,808.55019 976.22157,916.88016 c 55.09123,-120.25824 74.91033,-41.90708 280.35023,17.03238 89.9598,25.80893 103.8328,84.37606 390.2799,153.15856 z"
         id="path3121"
         style="fill:#000000;stroke:none;display:inline" />
      <path
         d="m 1735.4042,751.70271 c 42.966,-58.84999 50.4367,-134.48127 47.3008,-192.46648 -4.2681,-78.92128 -42.6167,-141.74599 -103.2175,-182.44317 79.5307,34.97814 92.4242,64.09104 127.7396,125.82387 33.7064,58.92009 59.4316,177.03211 59.907,237.47783 2.1721,-44.17446 5.7716,-88.26519 3.4073,-133.17821 -2.2444,15.79222 -3.4781,22.0783 -7.2339,39.01135 -13.8016,-94.45076 -54.9111,-165.54348 -84.8414,-205.23671 12.9136,9.87909 28.1414,30.44685 46.2467,50.44782 -48.3373,-97.33488 -201.3263,-159.28538 -290.2911,-165.62195 49.2318,13.29157 96.2336,28.70559 131.945,51.17358 75.7392,47.65164 105.6714,119.27603 107.2478,182.87436 1.5112,60.96673 -1.8199,124.87788 -38.2103,192.13771 z"
         id="path3123"
         style="fill:#54677f;fill-opacity:1;stroke:none" />
      <path
         d="m 629.19114,165.81448 c -8.60932,1.09318 -16.22388,1.41335 -26.02906,2.37132 -16.28929,-9.60643 -31.23373,-18.55312 -49.35623,-30.21105 26.03069,5.7 51.98857,17.58114 75.38529,27.83973 z"
         id="path3125"
         style="fill:#54677f;fill-opacity:1;stroke:none" />
      <path
         d="m 353.06075,124.43097 c 38.97507,33.127 86.38934,30.8536 141.34382,59.2306 -23.61455,0.41846 -40.28151,-2.9588 -53.15791,-2.62629 16.21166,7.71207 34.3687,9.83659 112.95043,9.17439 -75.77845,-29.44458 -148.17256,-47.03194 -201.13634,-65.7787 z"
         id="path3127"
         style="fill:#54677f;fill-opacity:1;stroke:none" />
      <path
         d="m 822.01163,196.82363 c -41.52308,-6.26426 -70.49748,-12.36122 -118.79394,-7.77818 -19.61581,-5.33629 -44.25229,-10.7967 -62.9325,-7.07107 87.30808,47.26863 165.12385,54.65619 246.78027,72.83201 -81.51345,-22.03633 -147.9467,-33.68148 -199.75767,-60.45763 43.29195,-2.10103 90.50555,0.41042 134.70384,2.47487 z"
         id="path3132"
         style="fill:#54677f;fill-opacity:1;stroke:none" />
      <path
         d="m 828.28981,263.5239 c 39.06852,1.28058 73.96955,13.25702 104.248,36.68377 -31.53251,-9.91939 -67.52727,-29.07616 -104.248,-36.68377 z"
         id="path3134"
         style="fill:#54677f;fill-opacity:1;stroke:none" />
    </g>
  </g>
</svg>
