<?xml version="1.0" encoding="UTF-8" standalone="no"?>
<!-- Created with Inkscape (http://www.inkscape.org/) -->

<svg
   xmlns:dc="http://purl.org/dc/elements/1.1/"
   xmlns:cc="http://creativecommons.org/ns#"
   xmlns:rdf="http://www.w3.org/1999/02/22-rdf-syntax-ns#"
   xmlns:svg="http://www.w3.org/2000/svg"
   xmlns="http://www.w3.org/2000/svg"
   version="1.1"
   width="1920"
   height="1080"
   id="svg2">
  <defs
     id="defs4" />
  <metadata
     id="metadata7">
    <rdf:RDF>
      <cc:Work
         rdf:about="">
        <dc:format>image/svg+xml</dc:format>
        <dc:type
           rdf:resource="http://purl.org/dc/dcmitype/StillImage" />
        <dc:title></dc:title>
      </cc:Work>
    </rdf:RDF>
  </metadata>
  <g
     id="layer4"
     style="display:inline">
    <g
       id="layer5"
       style="display:inline">
      <path
         d="m 1177.1429,672.14286 c -5.5642,-64.00735 2.6843,-116.08173 30.3571,-193.92857 55.3163,-65.85983 134.1567,-168.18271 313.0125,-152.67332 81.6003,-7.77882 150.3153,35.73485 193.4161,55.53046 20.0958,8.22587 38.4142,18.23335 53.5714,34.64286 172.779,143.36139 99.5852,353.8913 65.8622,450.08665 -2.6097,23.80411 -3.8665,46.78565 -10.8009,68.85987 -8.9743,-33.29199 -33.6647,-49.73018 -40.1225,-85.50508 -8.559,22.00068 -16.0137,43.26524 -26.3928,66.47933 -1.3549,-9.57629 -2.3305,-19.34228 -2.3446,-29.58901 -6.8505,8.11915 -13.9989,14.74935 -21.5226,19.50235 l -6.8904,-9.66823 c 3.6338,-56.03852 19.742,-103.47663 29.4157,-142.3595 -5.8563,-7.43686 -4.7805,-16.60672 -5.6276,-25.29588 -31.618,50.32971 -76.2305,85.11507 -126.6452,114.55313 35.2207,-44.58131 37.7457,-89.00141 55.6044,-127.2422 -12.9084,17.1731 -22.6328,31.11054 -31.6071,44.28571 -2.0765,-20.29548 -3.8722,-38.06381 -5,-49.82143 -10.478,8.46998 -16.5495,14.29614 -24.7982,21.42857 3.6562,-17.00721 9.7898,-30.98664 19.5023,-40.59174 -1.5259,-21.96439 -2.7386,-43.93512 -7.5687,-57.30873 -7.3471,15.46368 -20.4686,30.3921 -33.6073,43.44144 -28.9138,77.94848 -72.1753,110.33823 -118.9107,160.00744 -0.2972,-22.90967 -1.8852,-43.23795 -4.1991,-62.1144 -2.8509,28.65129 -2.6381,52.7069 -9.0764,86.73931 -13.4855,-15.03312 -16.51,-41.03236 -24.7042,-61.60933 -19.1885,46.12543 -51.1405,96.40661 -80.6709,138.57887 5.3892,-34.32203 19.3733,-63.08823 33.1097,-91.60189 -13.6482,16.08212 -26.6733,35.45571 -46.2194,50.17332 16.0973,66.12625 -36.3428,68.21805 -68.5714,115.71424 10.843,-36.5322 21.2232,-70.28737 30.1733,-95.4617 -12.1708,6.02212 -29.2707,12.04423 -44.4664,18.06635 10.6801,-16.39678 29.0559,-28.22796 38.4129,-43.20377 -25.9635,17.37616 -63.6655,20.31458 -87.4102,58.26196 6.0025,-28.36944 20.3259,-66.97235 53.1118,-91.94851 -30.3976,13.54745 -90.1361,29.30312 -97.3214,25.71429 l 57.6785,-76.60715 -4.6428,-6.60714 c -37.8273,9.03905 -72.6056,3.16109 -95.7143,-1.78572 19.6053,-23.28767 39.943,-46.47072 62.8571,-69.28571 -7.8533,-14.22619 -7.7403,-28.45238 -10,-42.67857 -9.6503,-0.134 -20.3244,-2.31549 -30.8928,-4.28572 11.0472,-3.82533 21.4335,-7.54049 29.6429,-10.89285 z"
         id="path3020"
         style="fill:#000000;fill-opacity:1;stroke:none" />
      <path
         d="m -4.8125,-11.78125 c 121.87453,73.417516 233.32367,127.95204 359.71875,204.25 -107.2708,-10.1747 -206.45011,-12.29127 -307.0625,-11.8125 l -60.5625,-30.125 0.25,63.46875 c 24.123126,1.62043 52.270463,5.4882 73.4375,3.84375 96.39038,48.70267 192.79712,95.18414 289.1875,141.25 -122.66857,4.81863 -242.53951,1.94107 -359.875,-7.90625 l -1.59375,42.90625 c 175.0829,22.62898 347.42948,25.58914 510.53125,19.8125 30.3037,6.21767 62.79772,11.98704 99.75,16.875 40.71808,16.74096 89.80278,23.38395 135.6875,26.625 -274.00343,95.95404 -436.82191,128.74728 -747.8125,120.3125 l 0.4375,95.6875 c 72.124891,-5.18545 131.524,-16.26351 199.40625,-36.0625 251.09885,-2.03091 508.93948,-66.39679 722.65625,-169.6875 120.46795,-13.61017 229.62395,-87.26877 342.25005,-29.71875 47.9613,-42.20807 93.633,-71.58993 169.6874,-103.21875 -53.2313,-37.60277 -110.6545,-76.2916 -210,-74.25 -13.769,-4.84184 -27.9338,-8.4867 -43.0312,-9.34375 -97.8071,-39.08526 -196.92969,-56.40244 -298.5,-63.5 -84.32581,-14.08133 -165.98685,-13.96118 -244.65625,2.125 L 534.5625,163.59375 C 493.40496,135.13937 457.73987,98.641937 429.90625,57.53125 c 14.1713,29.390316 26.07742,57.14454 59.90625,93.25 C 358.92743,121.00317 236.30176,53.69588 128.6875,-11.78125 l -133.5,0 z M 149,221.5 c 107.22791,11.72108 209.34875,24.46358 322.5,35 50.04897,24.89218 103.54502,49.81082 164,69.5 C 594.79691,337.99484 549.51951,342.36585 505,348 377.58706,324.51792 271.94636,265.66859 149,221.5 z m 569.53125,60.71875 54.3125,7.84375 L 755,296 718.53125,282.21875 z M 941.5,329.0625 c 8.39368,6.46869 20.59035,11.5393 36.5,14.25 -24.28471,-0.11347 -46.80911,-2.6987 -68.65625,-8.25 11.5054,-1.74315 23.36994,-3.35048 32.15625,-6 z M 765.4375,365.125 801.15625,376.0625 746,372.90625 765.4375,365.125 z"
         id="path4207"
         style="fill:#000000;stroke:none;display:inline" />
      <path
         d="m 913.58196,463.40289 c 39.81369,-23.39615 82.74186,-47.68215 113.84424,-68.58936 -112.90373,48.43501 -237.6156,39.55914 -390.32299,30.40559 152.99852,-0.14068 317.78512,1.2004 427.09249,-53.74011 -74.66632,30.41665 -149.67055,29.93949 -225.56706,16.26345 81.46233,3.86795 159.86771,7.41063 228.39546,-24.04163 l 9.5459,5.3033 c -57.4264,45.36314 -107.33866,67.10838 -162.98804,94.39876 z"
         id="path4222"
         style="fill:#54677f;fill-opacity:1;stroke:none;display:inline" />
      <path
         d="m 742,457.5 9.88909,3.93934 C 547.63699,556.24744 228.19905,603.99291 -9,589.5 c 189.02922,2.69884 512.56561,-20.10343 751,-132 z"
         id="path4224"
         style="fill:#54677f;fill-opacity:1;stroke:none;display:inline" />
      <path
         d="m 311.12698,337.18433 c 75.08721,32.04909 149.47886,77.67001 289.20668,90.50966 l -7.07107,-5.65685 C 486.46422,414.58441 397.59343,369.02725 311.12698,337.18433 z"
         id="path4226"
         style="fill:#54677f;fill-opacity:1;stroke:none;display:inline" />
      <path
         d="M 814.23346,377.48941 C 482.66276,371.38963 410.03424,335.38965 115.5,217.5 338.63542,309.78223 488.34072,389.37325 833,386.5 L 824.5,373 C 724.87391,351.2801 531.03039,295.9574 371,194.5 c 98.8949,71.5586 274.03826,143.00251 443.23346,182.98941 z"
         id="path4228"
         style="fill:#54677f;fill-opacity:1;stroke:none;display:inline" />
      <path
         d="M 497.80317,157.22565 C 361.04228,125.38673 233.35429,56.26674 118.08683,-9.6515501 217.18737,59.394357 328.27839,125.65225 519.72348,177.02464 z"
         id="path4230"
         style="fill:#54677f;fill-opacity:1;stroke:none;display:inline" />
      <path
         d="m 1156,285 c 60.4022,5.61102 104.0547,24.38228 152,40 -45.492,-8.50368 -87.3989,-13.66116 -152,-40 z"
         id="path4232"
         style="fill:#54677f;fill-opacity:1;stroke:none;display:inline" />
      <path
         d="m 858.5,278 -93,23.5 c 28.85005,10 70.03861,20 106,30 C 686.75906,295.25413 484.59146,216.47226 373,159 496.00672,213.82065 634.99747,267.85437 753.37868,298.70711 L 777,290 c -53.6289,-10.41441 -101.52464,-15.47162 -164,-48 62.82518,16.98962 129.02258,32.19957 193,40 -103.65682,-23.7521 -142.00718,-40.3653 -214.5,-68.5 95.45742,31.00945 191.84882,69.94673 267,64.5 z"
         id="path4234"
         style="fill:#54677f;fill-opacity:1;stroke:none;display:inline" />
      <path
         d="m 889.5,196.5 c 90.53337,8.04993 179.037,20.66681 259,52.5 -85.338,-7.54625 -172.42927,-32.62608 -259,-52.5 z"
         id="path4236"
         style="fill:#54677f;fill-opacity:1;stroke:none;display:inline" />
      <path
         d="m 1224,266.5 c 51.5911,3.0593 100.0279,16.69447 145,37 -49.3599,-9.07124 -97.2686,-22.75382 -145,-37 z"
         id="path4238"
         style="fill:#54677f;fill-opacity:1;stroke:none;display:inline" />
      <path
         d="M 938,299.5 C 848.38677,256.88578 756.56464,234.0733 644,208 758.96794,234.46397 788.34286,238.971 943.5,244 850.4577,215.20681 772.75729,209.67246 673,204.5 c 100.92811,-1.03914 195.18691,3.90185 342,55.5 -51.95015,2.26903 -85.78012,7.12665 -119.5,12 L 885,265 c 20.9573,-4.87851 52.13256,-9.08019 77,-9 -65.85838,-3.55347 -105.82583,-9.26451 -157.5,-14 44.94536,17.83057 92.14859,28.88755 133.5,57.5 z"
         id="path4240"
         style="fill:#54677f;fill-opacity:1;stroke:none;display:inline" />
      <path
         d="M 869.74134,1086.364 C 833.8728,920.68863 840.59356,780.23648 977.22157,899.68777 c 60.41963,-126.58667 91.70933,-8.69387 285.00713,37.0532 91.073,21.55389 94.6759,82.04763 384.623,150.33013 z"
         id="path4296"
         style="fill:#000000;stroke:none;display:inline" />
      <path
         d="m 1731.8687,751.70271 c 42.966,-58.84999 52.558,-134.12772 49.4221,-192.11293 -4.2681,-78.92128 -41.2025,-142.09954 -101.8033,-182.79672 79.5307,34.97814 92.4242,64.09104 127.7396,125.82387 33.7064,58.92009 56.6032,179.50698 57.0786,239.9527 8.8881,-141.6058 -46.6463,-249.90073 -85.8396,-301.87844 9.0245,3.86868 21.8589,16.07858 35.7216,25.47295 -72.651,-85.54199 -177.3012,-125.31051 -279.766,-140.64708 49.2318,13.29157 96.2336,28.70559 131.945,51.17358 75.7392,47.65164 103.1965,125.28643 105.8336,183.22791 2.7727,60.92239 -3.9412,124.52433 -40.3316,191.78416 z"
         id="path4300"
         style="fill:#54677f;fill-opacity:1;stroke:none" />
    </g>
  </g>
</svg>
