<?xml version="1.0" encoding="UTF-8" standalone="no"?>
<!-- Created with Inkscape (http://www.inkscape.org/) -->

<svg
   xmlns:dc="http://purl.org/dc/elements/1.1/"
   xmlns:cc="http://creativecommons.org/ns#"
   xmlns:rdf="http://www.w3.org/1999/02/22-rdf-syntax-ns#"
   xmlns:svg="http://www.w3.org/2000/svg"
   xmlns="http://www.w3.org/2000/svg"
   version="1.1"
   width="1920"
   height="1080"
   id="svg2">
  <defs
     id="defs4" />
  <metadata
     id="metadata7">
    <rdf:RDF>
      <cc:Work
         rdf:about="">
        <dc:format>image/svg+xml</dc:format>
        <dc:type
           rdf:resource="http://purl.org/dc/dcmitype/StillImage" />
        <dc:title></dc:title>
      </cc:Work>
    </rdf:RDF>
  </metadata>
  <g
     id="layer4"
     style="display:inline">
    <g
       id="g3626"
       style="display:inline">
      <path
         d="m 1177.1429,672.14286 c -5.5642,-64.00735 2.6843,-116.08173 30.3571,-193.92857 55.3163,-65.85983 134.1567,-168.18271 313.0125,-152.67332 81.6003,-7.77882 150.3153,35.73485 193.4161,55.53046 20.0958,8.22587 38.4142,18.23335 53.5714,34.64286 172.779,143.36139 99.5852,353.8913 65.8622,450.08665 -2.6097,23.80411 -14.8267,46.07854 -26.7108,66.385 -0.1355,-39.65595 -5.0269,-61.04389 -17.8486,-88.33351 -11.3121,21.60738 -30.0769,50.49911 -36.6459,74.2575 -1.3549,-9.57629 -1.9769,-19.69583 -1.991,-29.94256 -6.8505,8.11915 -10.4634,12.62803 -17.9871,17.38103 l -6.8904,-9.66823 c 3.6338,-56.03852 24.3382,-116.55811 35.4261,-155.08742 -3.0279,-3.54777 -5.4876,-8.12144 -7.0418,-13.62862 -31.618,50.32971 -81.1803,114.81355 -131.595,144.25161 31.3317,-43.16709 52.2414,-102.43643 61.2613,-151.28383 -10.08,16.11244 -19.0973,26.51435 -32.3142,36.15399 -2.0765,-20.29548 -0.3367,-35.94249 -1.4645,-47.70011 -8.3567,12.35906 -19.0243,18.53878 -27.273,25.67121 10.7272,-17.71432 17.9215,-27.45111 19.1487,-37.40976 0.5954,-24.43927 -8.0419,-49.94553 -12.872,-63.31914 -40.1812,60.60265 -44.4186,115.98643 -140.1436,202.03467 -0.2972,-22.90967 -4.0066,-59.14786 -10.2095,-76.25654 -2.8509,28.65129 -9.0021,68.26325 -15.4404,102.29566 -13.4855,-15.03312 -16.51,-41.03236 -24.7042,-61.60933 -19.1885,46.12543 -49.3727,97.11372 -78.9031,139.28598 5.3892,-34.32203 17.6055,-63.79534 31.3419,-92.309 -12.8911,16.28861 -22.4652,41.296 -46.9265,53.70885 19.9864,54.81255 -31.7466,60.79343 -64.3288,105.81471 6.3408,-21.36337 15.3152,-49.20174 19.9411,-67.50518 -9.7504,5.436 -16.3201,9.48271 -29.2531,16.03068 2.7789,-10.72347 32.0951,-35.1338 35.2427,-43.98716 -12.1708,6.02212 -57.555,32.55033 -72.7507,38.57245 7.418,-17.1217 29.58,-61.89548 44.0698,-75.73069 -25.9635,17.37616 -67.2011,37.99225 -98.3704,55.78709 9.1845,-28.01589 23.8615,-50.70889 41.091,-84.17034 -14.4877,5.06217 -24.0216,8.08992 -34.7424,9.80439 l 41.415,-47.61577 -4.6428,-6.60714 c -37.8273,9.03905 -73.6663,-0.0209 -96.775,-4.9677 19.6053,-23.28767 41.0037,-43.28874 63.9178,-66.10373 -7.8533,-14.22619 -7.7403,-28.45238 -10,-42.67857 -9.6503,-0.134 -17.7031,1.2703 -30.3928,0.71428 11.0472,-7.00731 20.9335,-12.54049 29.1429,-15.89285 z"
         id="path3628"
         style="fill:#000000;fill-opacity:1;stroke:none" />
      <path
         d="m 331.64898,193.7084 c -88.79594,-5.24229 -108.61674,-8.80017 -193.34881,-5.32954 64.90249,-13.297 123.14112,-5.9436 193.34881,5.32954 z M -12.46875,263 c 22.551023,-7.81219 232.19605,-17.95825 275.4375,-18.15625 119.39038,28.70267 248.79712,73.18414 368.1875,111.25 -122.66857,4.81863 -524.53951,108.94107 -641.875,99.09375 l 7.40625,40.90625 c 175.0829,22.62898 412.42948,-55.41086 568.53125,-72.1875 34.55188,7.21014 51.65191,11.86418 85.4375,18.5 -263.00343,29.95404 -360.82191,57.74728 -661.8125,45.3125 l 1.4375,59.6875 c 474.69272,-3.8736 857.42464,-68.72782 1065.06255,-178.75 63.4679,24.38983 100.6239,37.73123 196.25,69.28125 47.9613,-42.20807 93.633,-71.58993 169.6874,-103.21875 C 1320.4897,252.54884 1201.9939,208.30767 1118.1079,200.42652 1029.3008,171.34126 976.232,152.68093 890.66169,131.58337 821.06646,82.509391 591.46145,3.3378093 468.29856,25.444013 c 62.79372,12.282746 123.85358,18.402739 206.3811,53.545374 -70.23653,-4.911225 -116.03255,-3.038013 -180.2974,9.747297 72.45036,1.166533 177.10534,5.345667 242.75242,18.395106 29.95967,12.16104 50.96595,23.64949 72.28442,34.91292 C 658.53403,103.26663 150.41951,69.281666 -9.378517,70.632964 l 3.240115,52.999996 c 99.602452,2.41752 131.649572,0.53783 295.044652,13.83579 -120.5375,-1.53431 -185.18842,1.37444 -298.625,23.0625 z M 371,234.5 c 62.22791,-0.27892 79.34875,0.46358 112.5,3 68.55259,19.59146 121.66929,49.1818 174.58579,76.37868 C 558.99336,291.85359 474.96874,261.02841 371,234.5 z"
         id="path3630"
         style="fill:#000000;stroke:none;display:inline" />
      <path
         d="m 770.27831,371.88631 c 48.65614,-8.47405 177.58358,-43.81633 201.34564,-56.28012 -122.5069,9.23387 -229.83447,-43.11254 -371.33502,-101.2583 144.78785,49.44742 292.4693,107.6522 413.68207,91.09846 -65.97136,3.31617 -149.28151,-8.27711 -223.12956,-45.24669 75.25377,29.38682 149.61519,41.92647 228.32596,38.80481 l 7.3122,8.11055 c -61.08586,25.29843 -187.57728,57.879 -256.20129,64.77129 z"
         id="path3632"
         style="fill:#54677f;fill-opacity:1;stroke:none;display:inline" />
      <path
         d="m 657.94104,443.90268 14.82299,1.90514 c -171.33353,38.63024 -545.11787,84.12352 -761.49061,35.56996 211.32731,42.9665 609.51318,-10.43343 746.66762,-37.4751 z"
         id="path3634"
         style="fill:#54677f;fill-opacity:1;stroke:none;display:inline" />
      <path
         d="M 682.9163,322.61566 C 577.67485,306.41175 490.81559,268.64402 367.75985,238.48403 478.55941,276.55825 655.22669,330.69839 712.02121,333.10482 642.74224,265.82459 319.41743,144.56718 143.18818,178.66713 344.66891,158.38869 620.01959,273.4519 682.9163,322.61566 z"
         id="path3638"
         style="fill:#54677f;fill-opacity:1;stroke:none;display:inline" />
      <path
         d="M 498.63381,155.17159 C 381.62136,124.29523 160.84778,107.99111 5.0308397,115.6549 180.84973,122.68991 348.16484,124.56616 520.77947,174.71819 z"
         id="path3640"
         style="fill:#54677f;fill-opacity:1;stroke:none;display:inline" />
      <path
         d="m 1141,295 c 60.4022,5.61102 104.0547,24.38228 152,40 -45.492,-8.50368 -87.3989,-13.66116 -152,-40 z"
         id="path3642"
         style="fill:#54677f;fill-opacity:1;stroke:none;display:inline" />
      <path
         d="m 1217,268.5 c 51.5911,3.0593 100.0279,16.69447 145,37 -49.3599,-9.07124 -97.2686,-22.75382 -145,-37 z"
         id="path3648"
         style="fill:#54677f;fill-opacity:1;stroke:none;display:inline" />
      <path
         d="M 871.09188,215.42893 C 776.87862,202.71491 664.20068,161.31594 558,131 c 57.70515,13.2829 93.13995,22.44845 135.1538,31.04619 C 748.854,163.1261 786.92292,165.30333 857.5,167 772.05674,145.80585 675.15114,127.43027 567.90812,114.77208 c 110.62353,7.4391 396.27849,44.20431 514.53408,122.67514 -122.81064,-50.78877 -177.83474,-61.02408 -195.12849,-61.98275 -57.7661,-2.34866 -116.68243,-4.61951 -178.7132,-7.63604 50.23824,15.83771 91.96435,29.28533 162.49137,47.6005 z"
         id="path3650"
         style="fill:#54677f;fill-opacity:1;stroke:none;display:inline" />
      <path
         d="M 869.74134,1086.364 C 833.8728,920.68863 855.4428,795.79283 979.34289,887.66695 c 61.12671,-130.1222 85.34541,-22.1289 282.88581,49.07402 88.044,31.7352 94.6759,82.04763 384.623,150.33013 z"
         id="path3652"
         style="fill:#000000;stroke:none;display:inline" />
      <path
         d="m 1731.8687,751.70271 c 42.966,-58.84999 52.558,-134.12772 49.4221,-192.11293 -4.2681,-78.92128 -41.2025,-142.09954 -101.8033,-182.79672 79.5307,34.97814 92.4242,64.09104 127.7396,125.82387 33.7064,58.92009 56.6032,179.50698 57.0786,239.9527 8.8881,-141.6058 -46.6463,-249.90073 -85.8396,-301.87844 9.0245,3.86868 21.8589,16.07858 35.7216,25.47295 -72.651,-85.54199 -177.3012,-125.31051 -279.766,-140.64708 49.2318,13.29157 96.2336,28.70559 131.945,51.17358 75.7392,47.65164 103.1965,125.28643 105.8336,183.22791 2.7727,60.92239 -3.9412,124.52433 -40.3316,191.78416 z"
         id="path3654"
         style="fill:#54677f;fill-opacity:1;stroke:none" />
    </g>
  </g>
</svg>
