<?xml version="1.0" encoding="UTF-8" standalone="no"?>
<!-- Created with Inkscape (http://www.inkscape.org/) -->

<svg
   xmlns:dc="http://purl.org/dc/elements/1.1/"
   xmlns:cc="http://creativecommons.org/ns#"
   xmlns:rdf="http://www.w3.org/1999/02/22-rdf-syntax-ns#"
   xmlns:svg="http://www.w3.org/2000/svg"
   xmlns="http://www.w3.org/2000/svg"
   version="1.1"
   width="1920"
   height="1080"
   id="svg2">
  <defs
     id="defs4" />
  <metadata
     id="metadata7">
    <rdf:RDF>
      <cc:Work
         rdf:about="">
        <dc:format>image/svg+xml</dc:format>
        <dc:type
           rdf:resource="http://purl.org/dc/dcmitype/StillImage" />
        <dc:title></dc:title>
      </cc:Work>
    </rdf:RDF>
  </metadata>
  <g
     id="layer4"
     style="display:inline">
    <g
       id="g3656"
       style="display:inline">
      <path
         d="m 1177.4965,675.67839 c -5.5642,-64.00735 2.3307,-119.61726 30.0035,-197.4641 55.3163,-65.85983 134.1567,-168.18271 313.0125,-152.67332 81.6003,-7.77882 150.3153,35.73485 193.4161,55.53046 20.0958,8.22587 38.4142,18.23335 53.5714,34.64286 172.779,143.36139 99.5852,353.8913 65.8622,450.08665 -9.9633,32.25386 -25.8371,41.95722 -46.56,59.0817 18.8853,-45.95925 16.2365,-60.10455 4.1219,-79.96955 -7.8181,23.7038 -24.7862,53.81493 -39.4743,72.84329 -1.3549,-9.57629 -1.2698,-19.34228 -1.2839,-29.58901 -6.8505,8.11915 -10.4634,12.62803 -17.9871,17.38103 l -6.8904,-9.66823 c 3.6338,-56.03852 23.8382,-114.05811 34.9261,-152.58742 -3.0279,-3.54777 -4.9876,-10.62144 -6.5418,-16.12862 -31.618,50.32971 -81.9836,119.22776 -132.3983,148.66582 31.3317,-43.16709 47.5698,-105.49709 56.5897,-154.34449 -6.6968,20.30198 -14.6553,29.75806 -28.7786,38.27531 0.436,-19.79298 5.1762,-34.60263 -0.025,-47.17498 -8.3567,12.35906 -21.5243,15.53878 -29.773,22.67121 10.7272,-17.71432 19.4215,-22.45111 20.6487,-32.40976 4.4476,-25.40232 -8.8778,-55.23656 -14.872,-68.31914 -40.1812,60.60265 -43.4186,117.48643 -139.1436,203.53467 -0.2972,-22.90967 -3.5066,-59.14786 -9.7095,-76.25654 -2.8509,28.65129 -9.5021,66.26325 -15.9404,100.29566 -13.4855,-15.03312 -18.01,-39.03236 -26.2042,-59.60933 -19.1885,46.12543 -42.8727,95.11372 -72.4031,137.28598 5.3892,-34.32203 12.6055,-51.79534 24.8419,-83.809 -13.7698,25.20282 -21.1116,35.50311 -42.5729,46.91596 19.9864,54.81255 -34.1002,53.58632 -66.6824,98.6076 6.3408,-21.36337 17.3152,-44.20174 21.9411,-62.50518 -7.2504,3.936 -12.3201,2.98271 -28.7531,7.53068 22.7789,-17.22347 31.2415,-20.54801 33.8891,-34.40137 -15.6708,11.02212 -64.4692,33.20718 -79.6649,39.2293 5.9829,-19.27445 25.5546,-63.07787 42.3376,-73.47333 -25.9635,17.37616 -55.858,36.72448 -87.0273,54.51932 9.1845,-28.01589 17.4829,-50.70889 34.7124,-84.17034 -12.9877,2.56217 -28.6932,0.73637 -39.414,2.45084 l 48.1221,-45.49445 -4.6428,-6.60714 c -35.3273,4.53905 -59.6663,6.4791 -91.275,4.5323 16.1053,-23.78767 38.0037,-50.28874 60.9178,-73.10373 -7.8533,-14.22619 -7.3867,-24.91685 -9.6464,-39.14304 -9.6503,-0.134 -18.1425,-0.54772 -30.8322,-3.60374 9.5472,-3.50731 21.3729,-8.22247 29.5823,-11.57483 z"
         id="path3658"
         style="fill:#000000;fill-opacity:1;stroke:none" />
      <path
         d="m 341.42715,187.00129 c -50.91399,12.5216 -108.14995,30.3466 -197.54119,34.49889 45.27294,-13.56094 90.65429,-34.72551 130.05373,-44.08009 20.64616,1.818 40.50588,6.57422 67.48746,9.5812 z M -9.46875,287 c 40.459572,-16.58417 60.396616,-29.25339 103.750656,-49.02952 144.530934,21.90496 289.508824,9.00017 399.686844,-33.12673 25.6568,8.05456 46.77382,13.95638 68.61469,21.22021 -14.94924,13.07004 -42.69194,34.02807 -67.1351,51.16885 33.32894,-8.89047 76.55245,-32.53636 92.79968,-40.86798 88.40482,33.24181 152.99577,53.69998 258.77829,75.58678 C 724.35774,316.77024 109.61674,476.03482 -7.71875,466.1875 l -1.59375,59.90625 c 64.82586,-6.44428 86.56012,-6.93396 175.96875,-19.6875 -83.00343,15.95404 -141.82191,33.74728 -180.8125,64.3125 l 1.144607,35.41542 c 90.057575,-48.29274 184.044653,-64.48487 309.575763,-95.8681 270.21172,-1.04446 547.33672,-27.49133 770.77968,-144.60982 63.4679,24.38983 88.6239,40.73123 184.25,72.28125 47.9613,-42.20807 93.633,-71.58993 169.6874,-103.21875 C 1320.4897,252.54884 1201.9939,208.30767 1118.1079,200.42652 1029.3008,171.34126 920.232,123.68093 834.66169,102.58337 767.48937,67.352227 577.89581,-3.906937 459.29856,23.444013 524.93213,30.047055 638.38924,44.623798 736.87205,88.868067 657.02076,75.740806 542.8623,85.303595 491.50358,106.49404 618.17501,99.637209 736.78844,95.48839 824.4191,140.04471 727.29889,100.58048 571.47495,118.65874 420.0594,128.82553 252.96641,120.37523 70.631705,105.95637 -9.378517,106.63296 l -0.759885,48 c 61.602452,-0.58248 91.325456,-5.9977 141.488302,0.76473 -51.98115,12.24386 -98.703138,40.15261 -142.06865,56.13356 z"
         id="path3660"
         style="fill:#000000;stroke:none;display:inline" />
      <path
         d="m 1050,359.5 9.8891,3.93934 C 806.71299,496.16543 428.42742,513.24892 163,498.5 c 221.08513,11.16734 642.17301,-9.241 887,-139 z"
         id="path3664"
         style="fill:#54677f;fill-opacity:1;stroke:none;display:inline" />
      <path
         d="m 84.09375,145.6875 c -27.344519,-0.0441 -55.012072,1.47777 -82.375,5.21875 123.9334,-9.99242 196.93953,11.388 348.35019,36.07598 -62.84601,19.59868 -116.17758,31.08343 -207.97579,38.87316 C 255.9348,220.38484 310.5633,204.34501 373.60234,184.9902 272.37669,170.55644 177.19837,148.26111 84.09375,145.6875 z"
         id="path3666"
         style="fill:#54677f;fill-opacity:1;stroke:none;display:inline" />
      <path
         d="M 867.99082,312.66098 C 540.74383,361.43371 360.98405,432.74261 -2.5000004,474.5 482.30189,418.84044 572.49632,358.30516 890,317.5 l -6.08579,-11.44975 C 777.40337,289.7491 669.52839,241.03433 493,198.5 c 153.16557,45.73034 249.46256,86.97979 374.99082,114.16098 z"
         id="path3668"
         style="fill:#54677f;fill-opacity:1;stroke:none;display:inline" />
      <path
         d="m 1146.5,299.5 c 60.4022,5.61102 113.5547,9.88228 161.5,25.5 -41.8241,-8.50368 -46.2016,0.83884 -161.5,-25.5 z"
         id="path3672"
         style="fill:#54677f;fill-opacity:1;stroke:none;display:inline" />
      <path
         d="M 1063.9866,286.67311 C 876.51522,269.42594 667.37674,211.63821 550.51342,165.82689 c 313.60035,90.7493 387.13364,94.82026 513.47318,120.84622 z"
         id="path3674"
         style="fill:#54677f;fill-opacity:1;stroke:none;display:inline" />
      <path
         d="m 942.5,190.5 c 100.5334,24.04993 149.037,46.66681 210,73.5 -66.338,-10.54625 -112.4293,-40.62608 -210,-73.5 z"
         id="path3676"
         style="fill:#54677f;fill-opacity:1;stroke:none;display:inline" />
      <path
         d="m 1211.5,272 c 51.5911,3.0593 112.5279,11.19447 157.5,31.5 -46.2484,-7.29326 -103.7507,-13.81503 -157.5,-31.5 z"
         id="path3678"
         style="fill:#54677f;fill-opacity:1;stroke:none;display:inline" />
      <path
         d="m 646.23697,159.58074 c 96.58313,21.51422 187.90044,25.42896 251.77029,22.21141 -75.6441,-35.75246 -188.15721,-56.56524 -298.43071,-57.53122 107.45568,-4.72178 189.08496,-1.08796 333.86827,60.09619 -19.68506,8.53077 -192.90612,13.73573 -287.20785,-24.77638 z"
         id="path3680"
         style="fill:#54677f;fill-opacity:1;stroke:none;display:inline" />
      <path
         d="M 869.74134,1086.364 C 833.3728,927.18863 851.4428,796.29283 975.34289,888.16695 c 53.62671,-134.1222 88.34541,-25.6289 286.88581,48.57402 87.6662,32.76454 94.6759,82.04763 384.623,150.33013 z"
         id="path3682"
         style="fill:#000000;stroke:none;display:inline" />
      <path
         d="m 1731.8687,751.70271 c 42.966,-58.84999 52.558,-134.12772 49.4221,-192.11293 -4.2681,-78.92128 -41.2025,-142.09954 -101.8033,-182.79672 79.5307,34.97814 92.4242,64.09104 127.7396,125.82387 33.7064,58.92009 56.6032,179.50698 57.0786,239.9527 8.8881,-141.6058 -46.6463,-249.90073 -85.8396,-301.87844 9.0245,3.86868 21.8589,16.07858 35.7216,25.47295 -72.651,-85.54199 -177.3012,-125.31051 -279.766,-140.64708 49.2318,13.29157 96.2336,28.70559 131.945,51.17358 75.7392,47.65164 103.1965,125.28643 105.8336,183.22791 2.7727,60.92239 -3.9412,124.52433 -40.3316,191.78416 z"
         id="path3684"
         style="fill:#54677f;fill-opacity:1;stroke:none" />
    </g>
  </g>
</svg>
