<?xml version="1.0" encoding="UTF-8" standalone="no"?>
<!-- Created with Inkscape (http://www.inkscape.org/) -->

<svg
   xmlns:dc="http://purl.org/dc/elements/1.1/"
   xmlns:cc="http://creativecommons.org/ns#"
   xmlns:rdf="http://www.w3.org/1999/02/22-rdf-syntax-ns#"
   xmlns:svg="http://www.w3.org/2000/svg"
   xmlns="http://www.w3.org/2000/svg"
   version="1.1"
   width="1920"
   height="1080"
   id="svg2">
  <defs
     id="defs4" />
  <metadata
     id="metadata7">
    <rdf:RDF>
      <cc:Work
         rdf:about="">
        <dc:format>image/svg+xml</dc:format>
        <dc:type
           rdf:resource="http://purl.org/dc/dcmitype/StillImage" />
        <dc:title></dc:title>
      </cc:Work>
    </rdf:RDF>
  </metadata>
  <g
     id="layer4"
     style="display:inline">
    <g
       id="g3237"
       style="display:inline">
      <path
         d="m 1183.1837,708.27117 c -19.0998,-73.8609 -3.3565,-152.21004 24.3163,-230.05688 55.3163,-65.85983 134.1567,-168.18271 313.0125,-152.67332 81.6003,-7.77882 150.3153,35.73485 193.4161,55.53046 20.0958,8.22587 38.4142,18.23335 53.5714,34.64286 173.4861,145.48271 101.9699,353.52303 52.3977,429.85442 -27.0166,36.16502 -51.8789,53.83159 -73.943,62.06697 -1.7654,4.01818 -1.8996,2.18202 -4.448,6.89583 -7.802,-6.52964 -10.5222,-11.36535 -14.5933,-16.65134 2.9185,-76.32514 20.8602,-119.8238 25.3913,-133.79617 -3.9132,-3.72534 -4.3252,-8.5198 -5.0012,-13.67893 -28.436,51.03682 -84.3267,117.86336 -122.1526,155.57134 40.6615,-69.16856 43.381,-143.43973 61.4181,-187.86531 -13.7012,21.9335 -25.2163,51.59887 -35.0745,66.01148 -1.7104,-24.22226 -2.8167,-47.86191 -3.4142,-61.91762 -7.1193,10.76807 -15.2211,28.17785 -25.134,41.46194 1.8758,-19.25722 8.7646,-37.04209 15.8255,-49.65241 -1.349,-25.67669 -3.8777,-55.29907 -9.1471,-68.85466 -6.4633,11.92814 -13.8192,25.44755 -22.4705,38.17368 -26.8961,88.80938 -84.6145,111.24938 -114.9712,153.09538 -2.7722,-38.6428 -3.0798,-56.66868 -2.2295,-97.28866 -5.5444,15.21094 -13.7669,25.4689 -19.0082,36.90133 -3.7305,18.95799 -2.0061,46.32378 -8.4552,86.67645 -9.3819,-10.88667 -12.0602,-18.57436 -15.8402,-32.69423 -22.9384,58.81046 -30.1574,57.28871 -66.3927,118.59359 7.3641,-39.85021 20.7268,-60.12591 31.049,-84.78082 -51.494,94.19322 -105.2054,111.75679 -135.5919,149.02055 -10.826,-34.61632 9.1156,-96.69268 20.3861,-112.83198 -25.1676,20.32778 -52.7943,53.86467 -82.0078,53.85643 6.4071,-27.16081 26.7518,-90.0573 37.3446,-116.52611 -13.141,5.54971 -48.43,21.28215 -66.8781,24.08203 14.33,-16.63352 27.6803,-29.79564 37.8614,-38.66747 -11.5855,-0.52129 -20.3989,-3.02881 -29.9348,-6.3671 4.6869,-2.4956 21.7144,-10.94442 26.3448,-15.515 -25.2992,4.95126 -77.4985,5.3285 -93.6305,-0.0186 20.9463,-25.24478 42.3001,-51.46856 63.9642,-72.78355 -2.6321,-4.66401 -3.8119,-7.18436 -5.1359,-11.55547 -3.2183,1.21588 -6.1284,3.13946 -13.0199,3.9799 4.4169,-4.87344 7.1819,-8.10636 12.1753,-12.23905 z"
         id="path3239"
         style="fill:#000000;stroke:none" />
      <path
         d="m -49.84375,-42.375 c 0.996011,17.229528 3.387044,51.3309102 3.053347,59.811799 C 10.744306,9.1270134 50.775219,-2.8092942 97.38543,-11.097402 126.82369,15.29001 143.06394,29.753478 181.99519,62.307066 52.481078,41.861961 45.223599,42.086323 -38.480393,24.936923 l -4.069201,155.890407 c 124.227549,77.32999 287.133564,192.46856 548.596774,206.20024 42.04938,15.81903 97.42095,23.5988 143.3009,14.22306 17.31249,1.29703 48.91178,7.84644 68.70157,8.99693 -207.81462,80.18594 -417.21101,140.13223 -736.837628,39.4841 l 0.144607,109.7506 c 68.554214,-0.53594 102.385639,1.79531 166.457741,-3.7371 198.72017,29.08999 330.65172,39.52972 753.93197,-129.39037 53.14328,3.69312 126.48656,-2.49741 184.22796,-23.59007 53.8302,4.2973 108.8039,10.66321 173.4007,37.79778 47.9613,-39.18676 96.4456,-68.78721 172.5,-95.625 -67.6529,-61.46646 -166.1197,-106.17121 -281.8217,-102.46323 -6.144,-2.83422 -13.3762,-4.80894 -19.4736,-5.61704 C 923.8357,183.33543 894.91224,122.40378 640.07598,89.914214 595.73647,52.302866 561.6792,-9.969345 534.90625,-43.3125 543.89557,-14.115253 558.35868,24.613383 586.77329,63.667893 462.22096,15.84144 398.94508,-1.5893008 290.13233,-44.31434 z M 155.38247,5.838312 C 238.51808,14.230613 526.99494,98.696013 631.57774,163.55822 563.0342,163.3361 345.7512,105.89166 300.41611,91.09317 256.7302,68.42208 188.44318,25.996639 155.38247,5.838312 z M -19.092569,63.722457 C 75.393027,86.48372 160.51172,96.96251 293.18051,143.31284 416.26612,230.02279 539.1589,274.74879 668.61396,305.144 627.60021,312.48271 590.05258,316.09684 550.53307,320.92649 318.91009,275.56989 124.98817,192.58825 -19.029956,122.85985 z M 706.21142,125.86217 c 28.69505,1.11785 141.67564,44.60957 170.81118,59.38047 -26.90212,-4.31338 -48.3115,-6.60894 -66.16726,-7.8033 -17.69304,-8.57843 -93.01491,-45.24874 -104.64392,-51.57717 z m -43.65355,105.17828 c 29.48952,2.53603 110.97334,10.99662 124.51714,12.09435 21.38008,8.49941 28.45653,10.72385 54.19442,20.48945 -26.9197,2.39583 -44.71746,2.10408 -62.32212,2.53448 -43.01594,-15.01574 -80.48234,-24.28245 -116.38944,-35.11828 z"
         id="path3241"
         style="fill:#000000;stroke:none;display:inline" />
      <path
         d="m 957.87486,396.98043 c 31.60269,-20.787 39.71326,-26.20294 59.13054,-37.77224 4.2662,-0.84084 7.2496,-0.46446 12.1798,-0.64124 -26.5854,15.46669 -37.7424,22.1335 -71.31034,38.41348 z"
         id="path3243"
         style="fill:#54677f;fill-opacity:1;stroke:none;display:inline" />
      <path
         d="m 723.29289,413.34315 12.71752,-0.3033 C 399.62828,558.97687 186.06466,527.7457 -37.414213,449.3873 163.55177,502.47979 345.17889,564.76656 723.29289,413.34315 z"
         id="path3245"
         style="fill:#54677f;fill-opacity:1;stroke:none;display:inline" />
      <path
         d="m 288.90769,295.47113 c 78.52119,31.10832 200.24052,70.48065 291.49095,94.28784 l -7.07107,-5.65685 C 482.92531,360.451 380.03935,325.11974 288.90769,295.47113 z"
         id="path3247"
         style="fill:#54677f;fill-opacity:1;stroke:none;display:inline" />
      <path
         d="M 816.06595,343.70299 C 720.9554,357.5857 636.96938,343.89996 539.04066,322.45497 376.83257,286.93371 210.56894,234.68224 82.46521,176.03376 c 97.75925,51.86888 262.37345,110.75074 455.54659,152.64855 50.19706,10.88737 96.34996,23.05369 153.68308,28.12669 -24.78025,8.41049 -64.0238,25.55672 -86.48011,30.43845 42.90855,-4.18501 92.78578,-27.55469 105.22757,-29.37512 45.45574,0.46966 72.32948,-4.10446 115.20144,-6.16027 1.46111,-2.25769 3.28408,-7.68113 3.74568,-10.77208 -82.0991,-26.29097 -215.78265,-57.84225 -316.3841,-83.59452 111.69654,36.49352 161.72595,42.04729 303.06059,86.35753 z"
         id="path3249"
         style="fill:#54677f;fill-opacity:1;stroke:none;display:inline" />
      <path
         d="M 587.94798,67.219916 C 459.23042,18.852382 314.77853,-23.718172 183.12934,-89.404229 279.10998,-21.03148 409.75976,21.003728 599.99177,85.299239 z"
         id="path3251"
         style="fill:#54677f;fill-opacity:1;stroke:none;display:inline" />
      <path
         d="m 1149.3003,282.23223 c 64.5142,10.0249 98.1957,20.07602 143.4497,39.26777 -46.3524,-12.19909 -96.9075,-24.70497 -143.4497,-39.26777 z"
         id="path3253"
         style="fill:#54677f;fill-opacity:1;stroke:none;display:inline" />
      <path
         d="m 869.24264,263.15381 c -23.76893,6.01936 -46.99437,10.17676 -84.92804,9.1967 34.06713,8.43488 104.38605,22.02561 133.19365,32.96967 -182.28872,-33.61471 -410.5049,-106.18223 -530.27029,-161.54416 128.02449,53.53512 278.06586,95.80754 391.19707,126.41028 24.50924,0.49794 52.22297,-0.65317 74.00914,-5.75521 -27.51182,-8.25392 -39.45831,-15.49514 -66.59577,-25.00333 -31.76889,-1.73739 -89.18685,-6.9824 -132.9437,-13.09502 19.63016,0.17758 108.37104,7.06291 125.83043,8.49301 -26.03319,-14.47976 -84.81464,-56.02342 -123.98855,-95.75431 81.55367,74.57539 166.80455,114.79167 214.49606,124.08237 z"
         id="path3255"
         style="fill:#54677f;fill-opacity:1;stroke:none;display:inline" />
      <path
         d="m 1151.25,248.25 c 63.0903,8.78171 159.9295,32.56346 222,60.25 -53.0188,-14.80336 -171.4224,-47.40714 -222,-60.25 z"
         id="path3259"
         style="fill:#54677f;fill-opacity:1;stroke:none;display:inline" />
      <path
         d="m 1008.8397,244.99097 c -22.40637,-12.46534 -56.30183,-24.8992 -94.79776,-40.16362 54.78682,14.11492 79.98169,25.68491 128.27176,50.88711 -44.42851,13.0232 -83.84014,0.13977 -140.35443,13.44952 l -37.03339,-2.98289 c 36.36405,-4.98613 115.98714,-12.86554 140.46532,-14.47739 -50.12172,-6.96342 -80.03137,-17.43166 -135.92274,-31.20164 53.69161,7.75197 92.95055,16.78797 139.37124,24.48891 z"
         id="path3261"
         style="fill:#54677f;fill-opacity:1;stroke:none;display:inline" />
      <path
         d="m 863.97357,1085.5104 c -32.92919,-162.20045 -8.91986,-241.85792 108.39444,-146.69521 56.98029,-125.53642 73.25559,-63.02945 283.20379,-6.90265 92.1161,24.626 104.0754,84.81536 386.2799,154.65856 z"
         id="path3263"
         style="fill:#000000;stroke:none;display:inline" />
      <path
         d="m 1741.4146,750.64205 c 42.966,-58.84999 44.0727,-132.7135 40.9368,-190.69871 -4.2681,-78.92128 -42.2631,-142.4531 -102.8639,-183.15028 79.5307,34.97814 92.3444,63.67426 125.6183,126.53098 31.9386,60.3343 58.371,179.15343 50.361,244.54889 6.7683,-46.64933 18.8531,-90.03295 15.0746,-140.95638 -2.2444,15.79222 -4.1852,44.35216 -7.2339,64.46719 -13.8016,-94.45076 -54.9111,-190.99932 -84.8414,-230.69255 12.9136,9.87909 28.1414,30.44685 46.2467,50.44782 -48.3373,-97.33488 -201.3263,-159.28538 -290.2911,-165.62195 49.2318,13.29157 96.2336,28.70559 131.945,51.17358 75.7392,47.65164 108.8534,121.0438 110.4298,184.64213 1.5112,60.96673 4.1905,114.62483 -35.3819,189.30928 z"
         id="path3265"
         style="fill:#54677f;fill-opacity:1;stroke:none" />
      <path
         d="M 162.26806,4.4010106 C 256.15248,10.341493 594.94967,119.68737 638.96522,165.8834 600.14788,169.83739 453.31187,139.88602 436.68547,137.96853 515.09504,158.1238 567.31675,172.72923 679.15851,174.77985 606.22777,115.86806 245.21271,-6.6668504 162.26806,4.4010106 z"
         id="path3269"
         style="fill:#54677f;fill-opacity:1;stroke:none" />
      <path
         d="m 912.72752,200.90942 c -26.12054,-15.26946 -63.23708,-15.36858 -103.47072,-20.4047 -16.43386,-7.33446 -87.80495,-36.53156 -113.16428,-56.58503 -8.63535,-1.55143 -21.6998,-2.5535 -31.69247,-3.71791 24.0525,19.08432 81.61504,54.8977 135.06817,70.89178 25.86517,-2.34583 57.46481,3.97108 113.2593,9.81586 z"
         id="path3271"
         style="fill:#54677f;fill-opacity:1;stroke:none" />
      <path
         d="m 854.31152,270.24141 c 26.37622,3.66855 75.61294,8.7267 84.78695,22.06461 -26.00994,-7.71316 -64.45232,-10.35754 -84.78695,-22.06461 z"
         id="path3273"
         style="fill:#54677f;fill-opacity:1;stroke:none" />
    </g>
  </g>
</svg>
