<?xml version="1.0" encoding="UTF-8" standalone="no"?>
<!-- Created with Inkscape (http://www.inkscape.org/) -->

<svg
   xmlns:dc="http://purl.org/dc/elements/1.1/"
   xmlns:cc="http://creativecommons.org/ns#"
   xmlns:rdf="http://www.w3.org/1999/02/22-rdf-syntax-ns#"
   xmlns:svg="http://www.w3.org/2000/svg"
   xmlns="http://www.w3.org/2000/svg"
   version="1.1"
   width="1920"
   height="1080"
   id="svg2">
  <defs
     id="defs4">
    <filter
       color-interpolation-filters="sRGB"
       id="filter4002">
      <feGaussianBlur
         id="feGaussianBlur4004"
         stdDeviation="1.1306803" />
    </filter>
    <filter
       color-interpolation-filters="sRGB"
       id="filter4026">
      <feGaussianBlur
         id="feGaussianBlur4028"
         stdDeviation="0.69921413" />
    </filter>
    <filter
       color-interpolation-filters="sRGB"
       id="filter4106">
      <feGaussianBlur
         id="feGaussianBlur4108"
         stdDeviation="0.90116185" />
    </filter>
    <filter
       x="-0.11075834"
       y="-0.035979878"
       width="1.2215167"
       height="1.0719599"
       color-interpolation-filters="sRGB"
       id="filter4130">
      <feGaussianBlur
         id="feGaussianBlur4132"
         stdDeviation="0.45190817" />
    </filter>
    <filter
       color-interpolation-filters="sRGB"
       id="filter4386">
      <feGaussianBlur
         id="feGaussianBlur4388"
         stdDeviation="6.4296876" />
    </filter>
    <filter
       color-interpolation-filters="sRGB"
       id="filter4414">
      <feGaussianBlur
         id="feGaussianBlur4416"
         stdDeviation="6.5901486" />
    </filter>
    <filter
       color-interpolation-filters="sRGB"
       id="filter4430">
      <feGaussianBlur
         id="feGaussianBlur4432"
         stdDeviation="6.1438628" />
    </filter>
    <filter
       color-interpolation-filters="sRGB"
       id="filter4446">
      <feGaussianBlur
         id="feGaussianBlur4448"
         stdDeviation="6.399302" />
    </filter>
    <filter
       color-interpolation-filters="sRGB"
       id="filter4465">
      <feGaussianBlur
         id="feGaussianBlur4467"
         stdDeviation="6.6398305" />
    </filter>
    <filter
       color-interpolation-filters="sRGB"
       id="filter4485">
      <feGaussianBlur
         id="feGaussianBlur4487"
         stdDeviation="6.8573812" />
    </filter>
    <filter
       color-interpolation-filters="sRGB"
       id="filter4501">
      <feGaussianBlur
         id="feGaussianBlur4503"
         stdDeviation="7.0277588" />
    </filter>
    <filter
       color-interpolation-filters="sRGB"
       id="filter4517">
      <feGaussianBlur
         id="feGaussianBlur4519"
         stdDeviation="6.9008854" />
    </filter>
    <filter
       color-interpolation-filters="sRGB"
       id="filter4529">
      <feGaussianBlur
         id="feGaussianBlur4531"
         stdDeviation="6.4781189" />
    </filter>
  </defs>
  <metadata
     id="metadata7">
    <rdf:RDF>
      <cc:Work
         rdf:about="">
        <dc:format>image/svg+xml</dc:format>
        <dc:type
           rdf:resource="http://purl.org/dc/dcmitype/StillImage" />
        <dc:title></dc:title>
      </cc:Work>
    </rdf:RDF>
  </metadata>
  <g
     id="layer4"
     style="display:inline">
    <g
       id="g3441"
       style="display:inline">
      <path
         d="m 1207.5,478.21429 c 55.3163,-65.85983 134.1567,-168.18271 313.0125,-152.67332 81.6003,-7.77882 150.3153,35.73485 193.4161,55.53046 20.0958,8.22587 38.4142,18.23335 53.5714,34.64286 173.4861,145.48271 100.7598,356.54816 59.2084,445.62219 -2.5935,21.90044 -14.7342,47.99692 -43.2973,68.21272 11.5821,-37.22271 19.6011,-57.1222 7.2512,-81.21797 -19.9901,30.50932 -27.5084,46.46949 -40.7556,71.54373 -1.4728,-7.55206 -2.2853,-18.80489 -2.4573,-26.87423 -4.46,5.35028 -8.6366,9.2459 -13.3063,12.36872 -2.5594,-2.57621 -5.3831,-4.89784 -6.9793,-8.23928 0.5251,-68.85249 28.8308,-133.44097 29.8003,-159.476 -1.274,-2.51303 -3.037,-4.51244 -4.496,-7.49955 -27.686,51.78682 -107.0308,126.52498 -138.771,143.38677 36.1615,-46.1499 58.0925,-107.25382 65.3189,-150.50262 -7.8843,17.73045 -13.678,25.01792 -26.6854,36.4833 -0.674,-20.20356 -0.986,-36.87186 -3.3817,-50.49908 -5.9731,8.1232 -12.211,14.52072 -27.2198,25.18376 10.755,-17.30923 14.4607,-24.3142 18.7431,-38.24587 0.72,-15.78855 -4.6158,-39.57652 -9.6401,-63.45791 -60.9951,92.9936 -32.0448,100.08886 -141.4172,203.92777 -1.728,-20.63797 -6.0758,-73.77595 -9.3715,-87.91392 -6.25,17.9676 -13.51,104.12362 -17.135,112.00665 -15.2934,-21.96234 -16.7815,-42.92743 -23.7152,-60.29442 -19.989,52.61672 -55.1815,98.71263 -80.3069,141.40609 4.8589,-43.66607 21.1012,-61.78061 28.8523,-83.68032 -18.6698,23.73141 -22.9679,34.35389 -41.3779,45.1915 9.4312,28.07111 0.084,56.12792 -58.396,83.71078 3.2737,-16.97544 5.9229,-28.1175 9.8261,-48.33014 -12.0251,5.39304 -18.8521,10.70493 -30.8366,16.82196 8.8706,-8.42396 28.1196,-37.70363 39.0197,-47.38381 -17.5053,10.95945 -53.8273,35.12559 -84.2642,60.46753 18.3919,-40.01157 27.372,-71.43715 50.4592,-94.12441 -26.175,16.13172 -88.5312,48.6469 -110.2208,53.87825 9.4558,-12.88527 44.6384,-61.86818 50.9888,-82.16229 -2.2928,-0.86669 -21.4935,6.72777 -30.2109,6.87517 17.2264,-18.36002 30.0869,-26.92301 45.1217,-41.25284 -2.8005,-3.14593 -6.3806,-10.77993 -7.0013,-15.08829 -19.1128,4.48786 -66.2742,3.329 -97.3923,-4.09797 21.3176,-25.53768 44.1537,-45.61132 64.6928,-65.17999 -4.0686,-5.90779 -7.6983,-24.61666 -7.551,-33.52388 -4.201,0.13859 -23.8726,4.86598 -31.3313,4.30049 9.0164,-5.37333 22.7325,-14.74517 28.8107,-19.5679 -6.3397,-98.27306 11.3068,-136.6289 29.4251,-200.27464 z"
         id="path3443"
         style="fill:#000000;stroke:none" />
      <path
         d="M 330.36548,120.09009 C 214.53565,103.5247 109.03845,98.345088 -10.083947,127.17334 l 0.02939,35.35583 c 22.578806,-4.51829 75.858513,-14.10399 93.168951,-11.84428 -23.015088,6.36704 -66.279028,15.2962 -93.151523,27.93071 l 1.4709537,122.34445 C 16.566209,282.52826 60.511904,245.10033 86.402102,235.35166 314.5604,281.31427 321.64944,223.42184 491.50174,207.27817 c 11.52316,1.79078 61.40771,15.84408 70.79622,20.71571 -10.65769,7.76178 -66.78422,51.67183 -74.89667,58.28718 11.44262,-2.48846 81.78331,-47.54674 91.42008,-52.03526 85.56063,30.95865 130.18385,46.2852 262.30129,67.25668 -42.99264,12.97119 -83.52112,31.87773 -120.81499,45.53858 -304.57598,30.91275 -288.43952,54.15758 -394.46419,92.93014 -52.97262,-4.31043 -272.299487,6.99936 -335.304267,25.58514 l 0.406671,75.44422 C 18.823704,535.28326 122.37486,507.39262 145.42746,511.50054 100.17499,523.9549 16.172433,557.71481 -9.592239,575.50115 l -0.02112,16.6189 C 86.587302,559.87086 213.91128,544.0857 295.42273,510.37132 770.5142,526.16756 789.09228,428.20683 1073.1525,370.97183 c 32.501,15.54923 108.139,38.87315 186.2225,69.59067 47.9613,-39.18676 98.2134,-69.49432 174.2678,-96.33211 C 1336.2019,269.45942 1278.7057,223.56235 1103.9118,194.30885 1045.0377,179.14529 999.46314,168.00171 962.69647,158.36725 921.47272,143.03516 880.46442,117.7747 830.1812,103.5882 686.33837,28.098706 574.83329,2.1191308 409.65688,22.692965 c 102.52545,6.311349 198.63319,8.805825 306.91963,63.545997 -65.63029,-6.924109 -193.30137,6.767415 -243.86023,19.022568 81.50622,-0.39292 251.84039,-3.76064 316.93798,17.55092 7.84324,4.08191 15.68648,8.92081 23.52972,13.93689 -35.08162,1.48612 -76.14429,6.12186 -109.41262,17.90686 C 610.08712,137.51099 561.56315,130.07559 484.08489,138.11455 431.14864,128.00094 378.61797,123.9181 330.36548,120.09009 z m -12.57411,66.28051 c -70.3345,22.48536 -101.25982,31.06844 -197.92825,34.42527 77.48798,-31.01363 122.12996,-34.83563 197.92825,-34.42527 z"
         id="path3445"
         style="fill:#000000;stroke:none;display:inline" />
      <path
         d="m 677.90328,421.66389 c -89.25087,21.7564 -106.25281,19.36803 -211.08771,24.47508 68.90853,-9.73894 126.97028,-14.16961 170.79474,-23.04894 z"
         id="path3447"
         style="fill:#54677f;fill-opacity:1;stroke:none;display:inline" />
      <path
         d="m 240.73542,485.65093 c 218.36833,-85.59506 214.78077,-99.9791 434.04829,-121.1682 -15.79487,5.96837 -32.04308,12.69991 -52.01386,20.9198 46.65011,-13.14596 83.14483,-26.96101 102.30942,-32.71522 -320.07047,25.0821 -291.53571,57.93421 -484.34385,132.96362 z"
         id="path3449"
         style="fill:#54677f;fill-opacity:1;stroke:none;display:inline" />
      <path
         d="M 478.90975,141.06543 C 252.56582,103.95126 181.97093,134.36571 93.20393,151.21334 210.86277,134.3703 283.76707,113.96487 443.0385,145.41605 c 8.77299,-2.53884 20.50899,-3.86074 35.87125,-4.35062 z"
         id="path3451"
         style="fill:#54677f;fill-opacity:1;stroke:none;display:inline" />
      <path
         d="m 1202.6878,289.88236 c 30.5829,4.31816 50.8817,15.29088 89.5164,32.36397 -44.8023,-15.40361 -80.3696,-21.57155 -89.5164,-32.36397 z"
         id="path3453"
         style="fill:#54677f;fill-opacity:1;stroke:none;display:inline" />
      <path
         d="M -27.94126,234.58641 C 54.296002,195.88094 179.7196,178.84371 235.75496,179.44657 210.31783,183.16644 144.99079,201.48278 98.249807,222.3763 198.84832,190.92209 225.02307,182.00187 317.88017,181.06972 l 23.60606,-2.16788 C 203.04572,160.02224 45.290741,194.80848 -27.94126,234.58641 z"
         id="path3455"
         style="fill:#54677f;fill-opacity:1;stroke:none;display:inline" />
      <path
         d="m 1083.4179,218.97829 c 63.4158,12.77717 214.6582,59.43406 279.3949,82.64518 -56.8265,-14.64989 -233.0649,-67.94427 -279.3949,-82.64518 z"
         id="path3457"
         style="fill:#54677f;fill-opacity:1;stroke:none;display:inline" />
      <path
         d="m 868.29159,1084.4497 c -44.56233,-164.39898 -10.48204,-286.40723 97.48972,-207.42376 4.37712,0.85035 8.58142,1.75945 13.76131,2.29051 49.29518,-88.03157 43.02818,-68.63409 170.17028,-3.16916 78.0631,40.19438 308.2222,177.18901 491.4317,209.36311 z"
         id="path3459"
         style="fill:#000000;stroke:none;display:inline" />
      <path
         d="m 1731.5151,749.58139 c 40.8447,-59.91065 51.8509,-130.23863 48.715,-188.22384 -4.2681,-78.92128 -40.4954,-145.63508 -100.7426,-184.56449 79.5307,34.97814 91.764,63.98492 125.6183,126.53098 32.6943,60.403 60.823,182.42179 44.361,247.04889 24.5334,-56.48028 28.1979,-111.89244 13.2965,-173.50842 2.2376,24.46908 10.7873,80.9375 0.1907,100.52963 -0.631,-92.51732 -55.2647,-200.54525 -85.195,-240.23848 12.9136,9.87909 28.8485,33.98238 46.9538,53.98335 -44.0467,-95.61866 -201.2728,-159.26397 -290.2911,-165.62195 49.2318,13.29157 96.2336,28.70559 131.945,51.17358 75.7392,47.65164 106.3785,123.51867 107.9549,187.117 1.5112,60.96673 -3.2341,111.0893 -42.8065,185.77375 z"
         id="path3461"
         style="fill:#54677f;fill-opacity:1;stroke:none" />
      <path
         d="m 812.37587,137.20561 c 20.86686,15.0411 43.73113,25.75579 77.71246,38.10965 -24.78178,-19.09055 -49.20438,-30.3699 -77.71246,-38.10965 z"
         id="path3463"
         style="fill:#54677f;fill-opacity:1;stroke:none" />
      <path
         d="m 694.66166,161.05198 c 27.05807,1.37253 171.42681,20.20172 210.84465,25.48289 143.57699,-30.45834 241.12819,62.14977 315.35409,128.19602 C 1087.8198,207.26871 1021.9533,179.62362 929.10446,190.4098 c 34.2032,6.27353 86.08344,17.76462 99.12124,29.73224 -39.29894,-12.72212 -285.90931,-47.8905 -333.56404,-59.09006 z"
         id="path3465"
         style="fill:#54677f;fill-opacity:1;stroke:none" />
      <path
         d="m 952.90116,277.93049 14.45077,-1.18535 c -61.44658,-19.66551 -239.05906,-50.75168 -331.43487,-61.76242 84.21682,17.86035 270.89498,49.8253 316.9841,62.94777 z"
         id="path3469"
         style="fill:#54677f;fill-opacity:1;stroke:none;display:inline" />
      <path
         d="M 355.99705,180.25687 C 459.1407,144.09983 540.16813,125.24346 688.72201,159.34698 537.20547,136.59831 473.04154,146.69814 355.99705,180.25687 z"
         id="path3471"
         style="fill:#54677f;fill-opacity:1;stroke:none" />
      <path
         d="m 843.40978,297.78404 14.45077,-1.18535 C 747.25088,273.3932 600.33534,223.08638 501.68661,205.35708 c 88.9346,24.34344 208.21593,77.0755 341.72317,92.42696 z"
         id="path3473"
         style="fill:#54677f;fill-opacity:1;stroke:none;display:inline" />
    </g>
  </g>
</svg>
