<?xml version="1.0" encoding="UTF-8" standalone="no"?>
<!-- Created with Inkscape (http://www.inkscape.org/) -->

<svg
   xmlns:dc="http://purl.org/dc/elements/1.1/"
   xmlns:cc="http://creativecommons.org/ns#"
   xmlns:rdf="http://www.w3.org/1999/02/22-rdf-syntax-ns#"
   xmlns:svg="http://www.w3.org/2000/svg"
   xmlns="http://www.w3.org/2000/svg"
   version="1.1"
   width="1920"
   height="1080"
   id="svg2">
  <defs
     id="defs4" />
  <metadata
     id="metadata7">
    <rdf:RDF>
      <cc:Work
         rdf:about="">
        <dc:format>image/svg+xml</dc:format>
        <dc:type
           rdf:resource="http://purl.org/dc/dcmitype/StillImage" />
        <dc:title></dc:title>
      </cc:Work>
    </rdf:RDF>
  </metadata>
  <g
     id="layer4"
     style="display:inline">
    <g
       id="g3596"
       style="display:inline">
      <path
         d="m 1177.1429,672.14286 c -5.5642,-64.00735 2.6843,-116.08173 30.3571,-193.92857 55.3163,-65.85983 134.1567,-168.18271 313.0125,-152.67332 81.6003,-7.77882 150.3153,35.73485 193.4161,55.53046 20.0958,8.22587 38.4142,18.23335 53.5714,34.64286 172.779,143.36139 99.5852,353.8913 65.8622,450.08665 -2.6097,23.80411 -17.6551,51.73539 -37.3174,72.74896 -0.1355,-39.65595 0.63,-66.70074 -7.242,-94.69747 -11.3121,21.60738 -30.0769,50.49911 -36.6459,74.2575 -1.3549,-9.57629 -1.9769,-19.69583 -1.991,-29.94256 -6.8505,8.11915 -10.4634,12.62803 -17.9871,17.38103 l -6.8904,-9.66823 c 3.6338,-56.03852 24.3382,-116.55811 35.4261,-155.08742 -3.0279,-3.54777 -5.4876,-8.12144 -7.0418,-13.62862 -31.618,50.32971 -76.9377,118.34908 -127.3524,147.78714 31.3317,-43.16709 47.2917,-115.87145 56.3116,-164.71885 -10.08,16.11244 -18.3902,36.41384 -31.6071,46.05348 -2.0765,-20.29548 4.613,-32.40696 3.4852,-44.16458 -8.3567,12.35906 -23.974,15.00325 -32.2227,22.13568 10.7272,-17.71432 22.1641,-38.05771 23.3913,-48.01636 -3.6472,-23.02506 -8.749,-40.04604 -17.1146,-52.71254 -27.4533,57.06712 -48.6612,118.81486 -144.3862,204.8631 -0.2972,-22.90967 -5.4209,-60.56208 -11.6238,-77.67076 -2.8509,28.65129 -7.5878,66.14193 -14.0261,100.17434 -13.4855,-15.03312 -15.8029,-40.32525 -23.9971,-60.90222 -19.1885,46.12543 -43.7159,104.18479 -73.2463,146.35705 5.3892,-34.32203 15.4842,-70.86641 29.2206,-99.38007 -12.8911,16.28861 -22.4652,41.296 -46.9265,53.70885 19.9864,54.81255 -31.7466,60.79343 -64.3288,105.81471 6.3408,-21.36337 16.7294,-44.9591 21.3553,-63.26254 -9.7504,5.436 -17.7343,5.24007 -30.6673,11.78804 2.7789,-10.72347 27.1454,-32.30537 30.293,-41.15873 -12.1708,6.02212 -59.6764,26.18637 -74.8721,32.20849 7.418,-17.1217 31.7014,-57.65284 46.1912,-71.48805 -25.9635,17.37616 -67.9083,34.45671 -99.0776,52.25155 9.1845,-28.01589 28.8113,-40.10229 46.0408,-73.56374 -19.4375,2.23375 -39.578,0.31175 -56.6627,2.73333 16.1805,-18.1744 38.4529,-33.91207 64.0424,-48.32288 l -4.6428,-6.60714 c -37.8273,9.03905 -73.6663,-0.0209 -96.775,-4.9677 19.6053,-23.28767 41.0037,-43.28874 63.9178,-66.10373 -7.8533,-14.22619 -7.7403,-28.45238 -10,-42.67857 -9.6503,-0.134 -21.2386,9.04847 -33.9283,8.49245 11.0472,-7.00731 24.469,-20.31866 32.6784,-23.67102 z"
         id="path3598"
         style="fill:#000000;fill-opacity:1;stroke:none" />
      <path
         d="M -18.138402,90.632964 C 124.46405,95.05048 260.51117,124.17079 370.90625,170.46875 c -78.2708,24.8253 -65.45011,13.70873 -141.0625,17.1875 -91.83702,-25.73013 -181.721307,-44.7245 -243.5625,-45.125 l 1.114213,49.46785 c 47.535115,0.61829 84.823995,5.72905 127.031687,17.00219 L -12.552481,211.00125 -13.46875,253 c 24.123126,1.62043 207.27046,0.4882 228.4375,-1.15625 127.39038,22.70267 227.79712,82.18414 326.1875,118.25 -122.66857,4.81863 -434.53951,94.94107 -551.875,85.09375 l -1.59375,42.90625 c 209.73113,19.09345 432.64268,-82.7601 654.43432,-95.60781 45.55188,13.21014 90.25851,22.77839 138.0441,32.41421 -276.88211,64.73222 -499.33158,67.25338 -800.32217,54.8186 l -0.5625,57.6875 c 471.69272,11.1264 755.42464,-16.72782 963.0625,-126.75 126.46795,-35.61017 185.62395,-31.26877 309.25005,17.28125 47.9613,-42.20807 93.633,-71.58993 169.6874,-103.21875 -105.6869,-74.82686 -182.044,-105.776 -260.1733,-122.29223 C 1061.3008,183.34126 1028.232,153.68093 926.66169,146.58337 810.2329,96.271649 598.1022,117.95045 540.4191,137.04471 387.53403,86.26663 146.41951,39.281666 -13.378517,40.632964 z M 348,230.5 c 33.22791,-3.27892 58.34875,-13.53642 80.5,-19 50.04897,21.89218 198.54502,120.81082 259,140.5 C 578.93562,340.78961 475.75102,271.30466 348,230.5 z m 266.00434,-58.30564 c 103.1995,-7.9122 196.63465,-9.74636 298.01813,34.15746 -38.67346,5.60196 -69.20815,13.91684 -100.11078,22.10907 -59.35327,-18.75551 -117.82163,-37.51102 -197.90735,-56.26653 z"
         id="path3600"
         style="fill:#000000;stroke:none;display:inline" />
      <path
         d="m 945.00422,412.55424 c 42.50142,-11.46134 86.94268,-19.30483 129.95088,-21.93384 -41.7815,-6.45707 -85.26457,-3.49843 -129.95088,21.93384 z"
         id="path3602"
         style="fill:#54677f;fill-opacity:1;stroke:none;display:inline" />
      <path
         d="m 787,436.5 9.88909,3.93934 C 499.63699,520.24744 246.19905,512.99291 5.9999999,493.5 158.28728,495.50019 434.82707,526.68556 787,436.5 z"
         id="path3604"
         style="fill:#54677f;fill-opacity:1;stroke:none;display:inline" />
      <path
         d="m 430.12698,316.18433 c 81.47615,35.96352 183.32575,81.23433 323.20668,109.50966 L 740.76259,415.53714 C 619.90472,394.02491 513.47903,344.91285 430.12698,316.18433 z"
         id="path3606"
         style="fill:#54677f;fill-opacity:1;stroke:none;display:inline" />
      <path
         d="M 704.73346,355.98941 C 540.8565,358.42661 347.01166,186.6073 15.5,151.5 412.43805,223.68239 532.7776,373.32549 721,362.5 L 712.5,349 C 629.33186,311.34401 573.79321,271.17929 438,208.5 553.79824,270.69237 618.46586,317.21401 704.73346,355.98941 z"
         id="path3608"
         style="fill:#54677f;fill-opacity:1;stroke:none;display:inline" />
      <path
         d="M 534.80317,145.22565 C 383.48031,92.848294 137.29097,46.387101 -2.9131704,48.34845 165.66314,61.009598 350.80608,99.250111 508.22348,146.52464 z"
         id="path3610"
         style="fill:#54677f;fill-opacity:1;stroke:none;display:inline" />
      <path
         d="m 1157,291.5 c 60.4022,5.61102 103.0547,17.88228 151,33.5 -45.492,-8.50368 -86.3989,-7.16116 -151,-33.5 z"
         id="path3612"
         style="fill:#54677f;fill-opacity:1;stroke:none;display:inline" />
      <path
         d="M 906.92998,345.80509 C 814.15984,334.25347 625.76104,251.77079 546,205 c 83.15988,32.8048 268.82226,119.81162 360.92998,140.80509 z"
         id="path3614"
         style="fill:#54677f;fill-opacity:1;stroke:none;display:inline" />
      <path
         d="m 1180.5,259.5 c 51.5911,3.0593 143.5279,23.69447 188.5,44 -49.3599,-9.07124 -140.7686,-29.75382 -188.5,-44 z"
         id="path3618"
         style="fill:#54677f;fill-opacity:1;stroke:none;display:inline" />
      <path
         d="M 815,246 C 758.88677,226.88578 704.56464,206.5733 613,177.5 677.27884,192.52625 756.60183,216.49858 811.58098,235.10541 845.71368,228.21667 867.94114,215.82647 933.5,210 834.26329,163.02552 718.28345,154.52748 612,167.5 c 124.58011,-24.42696 262.21915,-6.39495 393,58.5 -28.16353,-6.81906 -37.78243,-7.31919 -50.5,-10.5 -28.95574,3.15885 -92.40907,8.8369 -139.5,30.5 z"
         id="path3620"
         style="fill:#54677f;fill-opacity:1;stroke:none;display:inline" />
      <path
         d="M 869.74134,1086.364 C 833.8728,920.68863 849.4428,794.79283 979.34289,887.66695 c 73.12671,-117.1222 89.34541,-27.1289 282.88581,49.07402 87.082,34.28692 94.6759,82.04763 384.623,150.33013 z"
         id="path3622"
         style="fill:#000000;stroke:none;display:inline" />
      <path
         d="m 1731.8687,751.70271 c 42.966,-58.84999 52.558,-134.12772 49.4221,-192.11293 -4.2681,-78.92128 -41.2025,-142.09954 -101.8033,-182.79672 79.5307,34.97814 92.4242,64.09104 127.7396,125.82387 33.7064,58.92009 56.6032,179.50698 57.0786,239.9527 8.8881,-141.6058 -46.6463,-249.90073 -85.8396,-301.87844 9.0245,3.86868 21.8589,16.07858 35.7216,25.47295 -72.651,-85.54199 -177.3012,-125.31051 -279.766,-140.64708 49.2318,13.29157 96.2336,28.70559 131.945,51.17358 75.7392,47.65164 103.1965,125.28643 105.8336,183.22791 2.7727,60.92239 -3.9412,124.52433 -40.3316,191.78416 z"
         id="path3624"
         style="fill:#54677f;fill-opacity:1;stroke:none" />
    </g>
  </g>
</svg>
