<?xml version="1.0" encoding="UTF-8" standalone="no"?>
<!-- Created with Inkscape (http://www.inkscape.org/) -->

<svg
   xmlns:dc="http://purl.org/dc/elements/1.1/"
   xmlns:cc="http://creativecommons.org/ns#"
   xmlns:rdf="http://www.w3.org/1999/02/22-rdf-syntax-ns#"
   xmlns:svg="http://www.w3.org/2000/svg"
   xmlns="http://www.w3.org/2000/svg"
   version="1.1"
   width="1920"
   height="1080"
   id="svg2">
  <defs
     id="defs4">
    <filter
       color-interpolation-filters="sRGB"
       id="filter4386">
      <feGaussianBlur
         id="feGaussianBlur4388"
         stdDeviation="6.4296876" />
    </filter>
    <filter
       color-interpolation-filters="sRGB"
       id="filter4414">
      <feGaussianBlur
         id="feGaussianBlur4416"
         stdDeviation="6.5901486" />
    </filter>
    <filter
       color-interpolation-filters="sRGB"
       id="filter4430">
      <feGaussianBlur
         id="feGaussianBlur4432"
         stdDeviation="6.1438628" />
    </filter>
    <filter
       color-interpolation-filters="sRGB"
       id="filter4446">
      <feGaussianBlur
         id="feGaussianBlur4448"
         stdDeviation="6.399302" />
    </filter>
    <filter
       color-interpolation-filters="sRGB"
       id="filter4465">
      <feGaussianBlur
         id="feGaussianBlur4467"
         stdDeviation="6.6398305" />
    </filter>
    <filter
       color-interpolation-filters="sRGB"
       id="filter4485">
      <feGaussianBlur
         id="feGaussianBlur4487"
         stdDeviation="6.8573812" />
    </filter>
    <filter
       color-interpolation-filters="sRGB"
       id="filter4501">
      <feGaussianBlur
         id="feGaussianBlur4503"
         stdDeviation="7.0277588" />
    </filter>
    <filter
       color-interpolation-filters="sRGB"
       id="filter4517">
      <feGaussianBlur
         id="feGaussianBlur4519"
         stdDeviation="6.9008854" />
    </filter>
    <filter
       color-interpolation-filters="sRGB"
       id="filter4529">
      <feGaussianBlur
         id="feGaussianBlur4531"
         stdDeviation="6.4781189" />
    </filter>
  </defs>
  <metadata
     id="metadata7">
    <rdf:RDF>
      <cc:Work
         rdf:about="">
        <dc:format>image/svg+xml</dc:format>
        <dc:type
           rdf:resource="http://purl.org/dc/dcmitype/StillImage" />
        <dc:title></dc:title>
      </cc:Work>
    </rdf:RDF>
  </metadata>
  <g
     id="layer24"
     style="display:inline">
    <g
       id="g4469"
       style="display:inline">
      <path
         d="m 1337.0163,489.29015 c 13.6985,0.53123 25.9334,-7.28825 107.3414,17.30423 -41.1371,-22.89087 -126.9559,-42.19333 -161.715,-34.76653 23.7753,4.16866 49.9801,12.42157 54.3736,17.4623 z m 194.2962,72.8661 c 17.1416,15.62489 21.357,24.66135 29.1803,38.97439 -11.6475,-9.80711 -37.7738,-26.87601 -62.6519,-31.20661 94.1384,66.36696 14.3762,31.89797 -25.9616,48.22612 -33.1268,13.40925 -149.5169,68.78411 -170.6035,112.60721 -7.9919,16.60915 25.901,60.84365 50.1011,62.01653 41.015,1.98784 164.5439,-2.54963 203.6261,30 71.4486,59.50596 127.378,13.86569 146.9848,30.10051 27.5799,22.83672 28.2627,35.71209 69.8634,7.13724 17.7777,-12.21124 13.6459,-52.72475 -28.8358,-77.62928 -27.2228,-18.59782 49.5915,-47.20007 -211.7029,-220.22611 z m -280.3667,-11.22301 c 35.4659,35.33207 27.998,48.62558 37.8284,43.50826 8.3717,-18.56618 -7.9917,-18.52238 -37.8284,-43.50826 z"
         id="path4471"
         style="fill:#3bfffa;fill-opacity:0.88235294;stroke:none;filter:url(#filter4501)" />
    </g>
  </g>
</svg>
