<?xml version="1.0" encoding="UTF-8" standalone="no"?>
<!-- Created with Inkscape (http://www.inkscape.org/) -->

<svg
   xmlns:dc="http://purl.org/dc/elements/1.1/"
   xmlns:cc="http://creativecommons.org/ns#"
   xmlns:rdf="http://www.w3.org/1999/02/22-rdf-syntax-ns#"
   xmlns:svg="http://www.w3.org/2000/svg"
   xmlns="http://www.w3.org/2000/svg"
   version="1.1"
   width="1920"
   height="1080"
   id="svg2">
  <defs
     id="defs4" />
  <metadata
     id="metadata7">
    <rdf:RDF>
      <cc:Work
         rdf:about="">
        <dc:format>image/svg+xml</dc:format>
        <dc:type
           rdf:resource="http://purl.org/dc/dcmitype/StillImage" />
        <dc:title></dc:title>
      </cc:Work>
    </rdf:RDF>
  </metadata>
  <g
     id="layer4"
     style="display:inline">
    <g
       id="g3331"
       style="display:inline">
      <path
         d="m 1207.5,478.21429 c 55.3163,-65.85983 134.1567,-168.18271 313.0125,-152.67332 81.6003,-7.77882 150.3153,35.73485 193.4161,55.53046 20.0958,8.22587 38.4142,18.23335 53.5714,34.64286 173.4861,145.48271 100.7598,356.54816 59.2084,445.62219 0.4065,15.40044 12.2658,48.49692 -4.2973,73.71272 -6.9179,-28.72271 -22.3989,-62.6222 -31.7488,-86.71797 -6.5394,6.64882 -10.1353,10.25818 -13.8979,14.47859 -0.085,-2.44373 0.2971,-4.63445 -0.1052,-6.0058 -9.5212,16.55587 -18.7712,49.77024 -26.3989,59.5354 -1.4728,-7.55206 -0.9444,-16.77455 -1.1164,-24.84389 -4.46,5.35028 -11.1972,10.38498 -15.8669,13.5078 -2.5594,-2.57621 -4.517,-4.53172 -6.1132,-7.87316 0,-51.58903 25.9469,-132.29973 30.0984,-156.92054 -3.9257,-4.45757 -5.0093,-9.24467 -5.3192,-15.32538 -27.686,51.78682 -106.0057,111.54535 -137.2459,125.65714 38.4722,-42.98569 56.1961,-90.80712 63.4225,-134.05592 -7.1343,19.73045 -16.5316,31.07122 -28.539,38.7866 -0.674,-20.20356 -2.236,-33.37186 -4.6317,-46.99908 -5.9731,8.1232 -11.961,13.52072 -26.9698,24.18376 23.8253,-38.34483 20.3945,-51.74722 12.603,-101.20378 -63.9951,89.4936 -64.0448,113.33886 -159.1672,205.42777 0.272,-13.63797 -0.5758,-27.27595 -1.6215,-40.91392 -2,15.7176 -3.01,58.12362 -6.635,66.00665 -15.2934,-21.96234 -19.0315,-47.67743 -25.9652,-65.04442 -19.989,52.61672 -59.6815,98.21263 -83.0569,141.40609 2.1089,-47.91607 23.8512,-68.03061 31.6023,-89.93032 -18.6698,23.73141 -28.9679,39.60389 -45.6279,45.1915 20.4312,44.07111 2.3341,64.37792 -55.646,93.96078 l 8.1119,-12.91913 c 7.372,-10.78124 -0.4582,-36.32141 16.4642,-61.66101 -12.0251,5.39304 -38.8521,14.45493 -47.0866,15.57196 4.6206,-6.42396 21.8696,-20.70363 32.7697,-30.38381 -17.5053,10.95945 -67.5773,24.37559 -94.7642,48.46753 26.8919,-42.51157 45.122,-69.93715 69.2092,-87.37441 -25.175,14.13172 -94.2812,26.1469 -105.9708,23.62825 20.5799,-19.26888 51.7784,-57.91642 62.5764,-74.79516 -1.6641,-1.97163 -1.8638,-3.19553 -3.0568,-6.03499 -19.1128,4.48786 -65.9206,5.0361 -97.0387,-2.39087 20.4337,-25.89123 41.9162,-47.40421 62.4553,-69.0942 -4.0686,-5.90779 -9.5089,-35.99839 -9.3616,-44.90561 -4.201,0.13859 -25.7011,2.61078 -33.1598,2.04529 9.0164,-5.37333 28.9072,-14.73261 31.2731,-17.08046 -6.3397,-98.27306 12.4961,-128.5704 30.6144,-192.21614 z"
         id="path3333"
         style="fill:#000000;stroke:none" />
      <path
         d="m 412.83886,13.500577 c 89.79753,9.139776 209.9469,27.190601 277.5747,68.849297 C 660.90302,80.24143 512.17329,90.690997 488.72737,91.941153 309.56285,49.030375 217.45598,52.698805 105.15197,87.563178 88.043376,86.714148 -1.708614,99.090341 -11.144607,102.77815 l 0.603554,123.20524 c 27.632388,-19.93179 26.36488,-26.3285 92.926651,-39.08757 227.446882,61.39763 197.750382,19.64429 400.866142,9.35418 10.02316,2.04078 23.75086,5.54077 32.78581,7.58398 -12.77901,8.11533 -28.60045,17.7307 -36.7129,24.34605 11.44262,-2.48846 39.3569,-15.72693 48.99367,-20.21545 84.14642,25.30179 221.69909,76.80906 348.51323,98.8412 -42.99264,12.97119 -88.11731,23.03889 -125.41118,36.69974 -382.57598,20.91275 -291.68752,28.30403 -501.21219,90.57659 -52.37151,-3.55097 -206.893638,0.91779 -261.668967,14.97423 l 1.8474298,91.06371 C 45.587302,520.37086 123.91128,504.5857 177.92273,498.87132 c 608.02755,41.95919 560.20761,-66.70738 890.22977,-124.64949 34.751,14.04923 113.139,35.62315 191.2225,66.34067 47.9613,-39.18676 98.2134,-69.49432 174.2678,-96.33211 C 1336.2019,269.45942 1276.2057,227.06235 1101.4118,197.80885 944.99414,160.79691 867.18812,97.298703 765.83449,85.910534 639.7714,20.987401 555.95615,3.5060505 412.83886,13.500577 z m 93.11678,84.231025 c 31.33238,0.484484 186.52063,2.120375 232.43338,10.231608 l 12.92311,8.98714 c -28.3641,0.42543 -88.9458,12.41044 -119.73925,25.2561 C 591.62875,130.7181 535.9289,102.35377 505.95564,97.731602 z M 284.12589,167.48582 c -23.54977,6.3646 -55.75442,8.82491 -68.75847,11.05332 -12.59122,-1.19059 -39.34803,0.14358 -72.36574,0.0717 19.30182,-9.08803 117.4783,-12.91258 141.12421,-11.12502 z M 682.02476,153.0113 c 23.71291,-5.07446 88.02881,-10.91911 118.25856,-3.94299 14.25804,8.07664 38.72889,20.50436 60.74756,33.79841 -23.82926,-3.44467 -70.63493,-9.06395 -94.97763,-10.55882 -29.41565,-7.97626 -51.8798,-10.38664 -84.02849,-19.2966 z M 560.34375,415.4375 c -13.38026,4.61446 -27.22629,11.00417 -35.99632,15.3652 -29.15923,0.99482 -62.47558,4.4217 -92.02697,2.96783 34.22811,-8.38607 67.10398,-15.18011 128.02329,-18.33303 z m 77.29691,-0.10295 c -8.12327,4.81365 -41.18255,6.3975 -54.63089,8.81865 10.89489,-3.81628 46.53705,-14.39036 54.63089,-8.81865 z"
         id="path3335"
         style="fill:#000000;stroke:none;display:inline" />
      <path
         d="m 673.63417,412.84737 16.78688,0.65231 c -67.52488,27.2309 -175.61151,37.6356 -332.60548,27.88929 162.39321,-2.89924 236.35239,-7.54114 315.8186,-28.54158 z"
         id="path3337"
         style="fill:#54677f;fill-opacity:1;stroke:none;display:inline" />
      <path
         d="m 251.34203,441.1032 c 163.41124,-39.76666 129.49779,-73.50765 450.31174,-81.92377 -18.78025,7.91049 -55.7738,23.53375 -79.23011,32.91548 47.88754,-15.26728 107.53265,-39.13347 127.7579,-44.0038 -75.97329,6.81476 -186.6864,10.11597 -244.54709,16.5986 -85.83625,9.61698 -146.22433,39.02713 -254.29244,76.41349 z"
         id="path3339"
         style="fill:#54677f;fill-opacity:1;stroke:none;display:inline" />
      <path
         d="M 626.28391,146.8804 C 492.08264,87.81867 284.92347,30.80943 108.78667,89.786937 241.57117,60.459548 386.11805,72.648965 545.61798,129.15691 c 14.35142,1.77182 33.42625,3.23545 80.66593,17.72349 z"
         id="path3341"
         style="fill:#54677f;fill-opacity:1;stroke:none;display:inline" />
      <path
         d="m 1204.4556,290.58947 c 33.0577,5.37882 59.7204,18.1193 98.3551,35.19239 -44.8023,-15.40361 -92.0368,-22.98576 -98.3551,-35.19239 z"
         id="path3343"
         style="fill:#54677f;fill-opacity:1;stroke:none;display:inline" />
      <path
         d="M 121.33337,91.556345 C 247.68963,89.613394 303.34518,109.09871 340.07982,113.24266 275.41616,111.19128 53.819831,119.55562 -80.186422,196.21709 19.694177,140.19392 292.20904,94.31327 442.635,134.2004 l 14.10606,-5.16788 C 402.12101,118.15354 258.08272,83.210776 121.33337,91.556345 z"
         id="path3345"
         style="fill:#54677f;fill-opacity:1;stroke:none;display:inline" />
      <path
         d="m 1074.9326,217.91763 c 63.4158,12.77717 220.3151,62.26249 285.0518,85.47361 -56.8265,-14.64989 -238.7218,-70.7727 -285.0518,-85.47361 z"
         id="path3352"
         style="fill:#54677f;fill-opacity:1;stroke:none;display:inline" />
      <path
         d="m 868.29159,1084.4497 c -43.2284,-169.48065 -1.53381,-262.38723 107.9226,-190.2264 53.66651,-104.42066 45.64641,-77.57045 176.32711,-19.49022 84.0735,37.36595 306.1009,183.19942 488.6033,210.77732 z"
         id="path3354"
         style="fill:#000000;stroke:none;display:inline" />
      <path
         d="m 1731.5151,749.58139 c 40.8447,-59.91065 51.8509,-130.23863 48.715,-188.22384 -4.2681,-78.92128 -40.4954,-145.63508 -100.7426,-184.56449 79.5307,34.97814 91.764,63.98492 125.6183,126.53098 32.6943,60.403 60.823,182.42179 44.361,247.04889 24.5334,-56.48028 28.1979,-111.89244 13.2965,-173.50842 2.2376,24.46908 10.7873,80.9375 0.1907,100.52963 -0.631,-92.51732 -55.2647,-200.54525 -85.195,-240.23848 12.9136,9.87909 28.8485,33.98238 46.9538,53.98335 -44.0467,-95.61866 -201.2728,-159.26397 -290.2911,-165.62195 49.2318,13.29157 96.2336,28.70559 131.945,51.17358 75.7392,47.65164 106.3785,123.51867 107.9549,187.117 1.5112,60.96673 -3.2341,111.0893 -42.8065,185.77375 z"
         id="path3356"
         style="fill:#54677f;fill-opacity:1;stroke:none" />
      <path
         d="m 777.02053,113.51753 c 65.76814,32.71877 123.98775,59.69692 190.14244,86.90003 -65.79398,-37.47533 -121.32927,-60.0684 -190.14244,-86.90003 z"
         id="path3358"
         style="fill:#54677f;fill-opacity:1;stroke:none" />
      <path
         d="m 702.08628,166.68371 c 27.05807,1.37253 193.5329,33.72528 212.45125,33.36677 174.64997,-3.3097 224.30977,40.54298 324.30807,128.95859 -124.7204,-104.99932 -200.5589,-115.75074 -277.33429,-121.7249 23.7032,9.52353 76.52579,21.45396 91.06359,30.67158 -39.2989,-12.72212 -302.83389,-60.07248 -350.48862,-71.27204 z"
         id="path3360"
         style="fill:#54677f;fill-opacity:1;stroke:none" />
      <path
         d="m 1022.2214,358.18518 c 16.1832,-1.36956 31.8487,3.13822 41.9717,9.58567 -17.5686,-1.97029 -24.4359,-3.49431 -41.9717,-9.58567 z"
         id="path3362"
         style="fill:#54677f;fill-opacity:1;stroke:none" />
      <path
         d="m 938.40547,287.47643 14.45077,-1.18535 C 890.50714,268.25011 765.11648,240.7454 676.22214,223.468 c 82.20024,21.89351 215.43435,52.20567 262.18333,64.00843 z"
         id="path3378"
         style="fill:#54677f;fill-opacity:1;stroke:none;display:inline" />
      <path
         d="m 363.45289,156.51854 c 68.99189,-18.36073 146.71319,-35.08417 229.45615,-14.14213 -75.22833,-12.25614 -152.39914,1.7111 -229.45615,14.14213 z"
         id="path3380"
         style="fill:#54677f;fill-opacity:1;stroke:none" />
    </g>
  </g>
</svg>
