<?xml version="1.0" encoding="UTF-8" standalone="no"?>
<!-- Created with Inkscape (http://www.inkscape.org/) -->

<svg
   xmlns:dc="http://purl.org/dc/elements/1.1/"
   xmlns:cc="http://creativecommons.org/ns#"
   xmlns:rdf="http://www.w3.org/1999/02/22-rdf-syntax-ns#"
   xmlns:svg="http://www.w3.org/2000/svg"
   xmlns="http://www.w3.org/2000/svg"
   version="1.1"
   width="1920"
   height="1080"
   id="svg2">
  <defs
     id="defs4" />
  <metadata
     id="metadata7">
    <rdf:RDF>
      <cc:Work
         rdf:about="">
        <dc:format>image/svg+xml</dc:format>
        <dc:type
           rdf:resource="http://purl.org/dc/dcmitype/StillImage" />
        <dc:title></dc:title>
      </cc:Work>
    </rdf:RDF>
  </metadata>
  <g
     id="layer4"
     style="display:inline">
    <g
       id="g3291"
       style="display:inline">
      <path
         d="m 1207.5,478.21429 c 55.3163,-65.85983 134.1567,-168.18271 313.0125,-152.67332 81.6003,-7.77882 150.3153,35.73485 193.4161,55.53046 20.0958,8.22587 38.4142,18.23335 53.5714,34.64286 173.4861,145.48271 101.0631,355.60882 51.4909,431.94021 -10.2412,23.27595 -30.3677,64.57447 -50.8298,77.1447 -0.6235,-11.69238 4.5744,-47.59555 -0.081,-57.02406 -3.2769,14.50002 -14.6101,45.01444 -21.6985,52.22328 -1.8068,-2.10831 -2.6514,-3.13576 -3.7524,-4.53832 1.5918,-6.87191 0.9917,-11.38669 0.2041,-20.32181 -3.71,4.72528 -6.3615,7.10834 -9.2634,10.93827 -3.5594,-3.70121 -4.8099,-5.60495 -6.4061,-8.94639 -0.082,-75.12546 19.063,-112.60214 23.6413,-126.54617 -5.1632,-6.22534 -5.3252,-18.7698 -4.7512,-27.67893 -25.936,46.78682 -105.5767,118.61336 -127.1526,131.82134 27.6615,-61.66856 63.381,-129.68973 71.6681,-173.11531 -13.7012,25.6835 -29.9663,36.84887 -42.3245,47.76148 2.2896,-15.97226 2.7617,-21.6548 3.4142,-35.96051 -9.8693,12.01807 -15.5495,16.97074 -27.9624,28.75483 3.6258,-18.00722 8.6359,-25.92077 14.9468,-42.03109 -2.599,-25.17669 -3.3526,-36.01354 -8.622,-49.56913 -34.3852,90.52527 -100.1643,144.20907 -133.5955,186.4103 -1.5222,-23.60726 -2.5494,-84.54177 -2.7776,-115.64399 -26.6646,31.71139 -22.3349,101.25367 -30.8044,140.85469 -9.9676,-7.01535 -12.1762,-18.20304 -14.2491,-30.24448 -22.6759,52.33558 -40.1857,85.23109 -61.8624,121.9597 4.9624,-40.22673 17.2623,-66.4773 26.6274,-93.18031 -45.244,91.44322 -100.698,104.67405 -147.3952,154.88451 -13.326,-43.36632 9.2725,-99.93748 24.043,-116.82678 -25.1676,22.57778 -52.9334,42.98815 -85.3059,49.83867 5.8876,-24.9586 33.8039,-82.71464 44.5159,-108.83458 l -2.8622,-5.40752 c -13.891,6.54971 -42.0979,14.7607 -65.546,18.56058 15.83,-16.13352 31.6803,-28.79564 43.1114,-37.66747 -8.3355,-1.52129 -19.6489,-5.77881 -25.9348,-9.6171 4.6869,-2.4956 12.9999,-4.72475 22.1303,-10.04533 -34.7992,7.70126 -79.034,3.35883 -97.916,-2.7383 20.9463,-25.24478 43.3001,-43.71856 64.9642,-65.03355 -1.3102,-3.15947 -6.0174,-22.63996 -6.2276,-26.15255 -2.0797,-0.21496 -12.2995,1.79124 -14.6317,1.57925 1.6399,-2.47168 11.7023,-6.71853 12.5682,-8.56638 -17.6479,-95.21668 6.991,-151.75368 28.6269,-216.48175 z"
         id="path3294"
         style="fill:#000000;stroke:none" />
      <path
         d="m 518.59375,-41.75 c 6.51445,31.318567 73.93894,78.803326 102,113.96875 C 564.05666,62.626316 453.75698,18.259968 357.8125,-6.09375 L -9.9338204,-7.5214466 -9.53125,80.53125 C 62.333022,94.671193 91.40349,89.740347 196.1875,114.3125 354.08682,196.60824 386.82191,201.61583 536.8125,246.375 333.24323,224.34326 174.21981,160.66254 -11.9375,101.59375 l -1.125,41.28125 c 337.52801,148.51078 543.70916,190.66403 852.59375,180.46875 22.6814,4.75638 41.86347,9.38317 56.65625,13.3125 C 840.36464,350.0343 801.92003,331.55362 727.5,354 609.55317,347.68825 553.35372,329.3917 478.9375,322.15625 393.22744,313.8227 316.74963,314.12592 233.84375,301.5 139.63951,287.15344 68.509398,257.95635 -12.75,251.03125 l 0.9375,19.71875 c 385.83545,129.32712 260.80869,73.01074 626.78125,129.5625 -31.43661,6.29644 -81.96375,18.36876 -109.40625,26.09375 101.3568,5.22895 130.69237,-9.87435 158.96875,-18.9375 l 24.78125,1.6875 c -200.27909,61.06462 -355.45181,92.28785 -702.25,5.625 l -0.21875,98.3125 c 55.554214,1.46406 96.70118,2.3878 153.1875,0.5625 141.2435,19.34735 284.45817,87.40168 772.09375,-98.125 64.72476,-2.99406 96.7824,-5.19103 162.125,-21.6875 48.2948,8.0954 121.1244,19.37707 185.125,46.71875 47.9613,-39.18676 96.4456,-68.78721 172.5,-95.625 -67.6529,-61.46646 -163.6105,-105.95798 -274.3125,-104.25 C 961.25234,191.69914 875.49676,95.346319 668.8125,78.21875 614.42705,30.536334 549.3667,-12.906845 518.59375,-41.75 z m -388.125,64.5 C 275.7177,21.802176 498.52401,98.177749 611.78125,161.8125 481.47185,144.60793 380.42269,104.90833 184.59375,66.125 150.66089,49.646298 124.51537,38.128312 95.34375,24.6875 c 11.08173,-1.245854 22.81577,-1.857176 35.125,-1.9375 z M 67,27.0625 C 79.467698,35.065135 94.944321,43.194546 110.1875,56.65625 69.372389,53.068135 31.116642,52.618511 3.28125,48.3125 26.21552,39.365151 47.259848,32.52218 67,27.0625 z M 627.625,91.75 c 5.12788,0.461214 10.2099,0.876563 15.5625,1.5625 4.98118,4.375001 7.99384,8.75 11.6875,13.125 -9.30602,-4.52468 -18.63213,-9.015891 -27.25,-14.6875 z m 77.84375,15.46875 c 34.20436,3.69868 144.27833,44.12483 215.75,84.40625 -34.51823,-6.25272 -48.61299,-8.02439 -66.46875,-9.21875 -10.1867,-5.05594 -38.26296,-13.34961 -55.97001,-16.47185 -35.98621,-21.52744 -80.52641,-47.13474 -93.31124,-58.71565 z"
         id="path3296"
         style="fill:#000000;stroke:none;display:inline" />
      <path
         d="m 694.93011,410.78671 12.72102,-0.0548 c -304.24708,114.09618 -522.64196,65.55451 -776.956884,-5.59599 227.273004,45.63282 418.975874,124.9758 764.235864,5.65081 z"
         id="path3298"
         style="fill:#54677f;fill-opacity:1;stroke:none;display:inline" />
      <path
         d="m 87.027653,273.62996 c 181.014087,60.78664 253.952067,41.38076 614.015207,88.26914 -18.78025,7.91049 -55.5238,25.80672 -78.98011,35.18845 41.15855,-12.18501 81.75329,-29.98667 101.19508,-39.0571 C 213.80256,289.40906 402.30149,342.19113 87.027653,273.62996 z m 760.509017,48.21043 c 0.67461,-1.98272 1.22521,-2.67499 1.45077,-4.18535 -80.0991,-24.29097 -231.03265,-53.71725 -331.8841,-84.46952 81.45024,31.14351 170.18435,45.85211 330.43333,88.65487 z"
         id="path3300"
         style="fill:#54677f;fill-opacity:1;stroke:none;display:inline" />
      <path
         d="M 656.56945,111.13167 C 459.36509,27.519496 383.54302,11.419252 251.3159,-37.490498 310.77791,-0.96595999 618.69089,106.21128 661.24856,130.16763 681.51199,143.13821 764.58573,188.37194 815.83418,212.04825 752.10007,170.9111 695.43761,139.71743 656.56945,111.13167 z"
         id="path3302"
         style="fill:#54677f;fill-opacity:1;stroke:none;display:inline" />
      <path
         d="m 1190.9897,290.73224 c 33.0577,5.37882 66.4112,18.41219 105.0459,35.48528 -37.5523,-12.52861 -74.8518,-22.24312 -105.0459,-35.48528 z"
         id="path3304"
         style="fill:#54677f;fill-opacity:1;stroke:none;display:inline" />
      <path
         d="M 598.41012,192.7029 C 485.74232,164.85686 351.80533,140.33123 290.27118,111.00952 323.88644,122.16349 528.6739,172.95981 598.41012,192.7029 z"
         id="path3306"
         style="fill:#54677f;fill-opacity:1;stroke:none;display:inline" />
      <path
         d="m 1162.6213,247.2448 c 60.8364,11.08052 146.819,35.31107 211.7981,60.57842 -53.6809,-13.61595 -161.9715,-46.09572 -211.7981,-60.57842 z"
         id="path3308"
         style="fill:#54677f;fill-opacity:1;stroke:none;display:inline" />
      <path
         d="m 1036.3207,248.77651 c -21.6564,-12.21534 -48.79755,-21.4954 -81.65439,-40.30271 53.26169,21.26137 83.73169,33.18491 106.52179,46.88711 -35.6647,3.94302 -64.11446,3.12426 -135.35232,-1.29378 35.44248,-3.81455 63.31252,-1.63026 89.91202,-3.24211 -32.70446,-10.1454 -58.31385,-16.55298 -89.80268,-28.03742 42.54212,9.50197 65.45486,16.28797 110.37558,25.98891 z"
         id="path3310"
         style="fill:#54677f;fill-opacity:1;stroke:none;display:inline" />
      <path
         d="m 860.79159,1084.4497 c -26.7284,-154.98065 -1.84143,-213.88113 111.50839,-150.29137 52.94472,-131.19022 78.23782,-72.97919 243.67382,-23.10544 91.2928,27.52189 138.7445,101.27121 418.4533,175.16461 z"
         id="path3312"
         style="fill:#000000;stroke:none;display:inline" />
      <path
         d="m 1735.7577,751.34916 c 40.8447,-59.91065 47.6083,-132.0064 44.4724,-189.99161 -4.2681,-78.92128 -40.4954,-145.63508 -100.7426,-184.56449 79.5307,34.97814 91.764,63.98492 125.6183,126.53098 32.6943,60.403 60.823,182.42179 44.361,247.04889 24.5334,-56.48028 28.1979,-111.89244 13.2965,-173.50842 2.2376,24.46908 10.7873,80.9375 0.1907,100.52963 -0.631,-92.51732 -55.2647,-200.54525 -85.195,-240.23848 12.9136,9.87909 28.8485,33.98238 46.9538,53.98335 -44.0467,-95.61866 -201.2728,-159.26397 -290.2911,-165.62195 49.2318,13.29157 96.2336,28.70559 131.945,51.17358 75.7392,47.65164 106.3785,123.51867 107.9549,187.117 1.5112,60.96673 1.0085,112.85707 -38.5639,187.54152 z"
         id="path3314"
         style="fill:#54677f;fill-opacity:1;stroke:none" />
      <path
         d="M 181.35994,13.239845 C 285.85096,24.837182 573.38291,119.68737 617.04491,163.40853 577.87402,164.53409 455.78675,135.28983 312.23468,100.84543 411.5039,135.49638 584.99442,180.50741 657.2382,172.30498 586.78233,109.5041 272.08277,-1.3635496 181.35994,13.239845 z"
         id="path3316"
         style="fill:#54677f;fill-opacity:1;stroke:none" />
      <path
         d="m 955.93337,204.57363 c -39.43425,-16.14078 -91.04648,-16.9899 -141.35119,-24.29378 29.3096,15.97594 67.08032,31.17285 110.90313,42.19621 -10.80154,-6.56078 -55.9513,-20.54074 -77.34678,-29.46828 30.84036,4.76484 72.39953,8.79735 107.79484,11.56585 z"
         id="path3318"
         style="fill:#54677f;fill-opacity:1;stroke:none" />
      <path
         d="m 861.50807,255.00716 c 35.09669,-0.9994 93.27627,5.16958 136.58099,8.23063 l -8.41341,6.27274 c -24.22844,-0.90169 -78.476,-9.77953 -128.16758,-14.50337 z"
         id="path3320"
         style="fill:#54677f;fill-opacity:1;stroke:none" />
      <path
         d="m 763.67533,225.46145 c 6.44904,9.58237 22.16711,12.86179 40.30508,14.49569 -12.4593,-5.0093 -18.58558,-11.17006 -40.30508,-14.49569 z"
         id="path3322"
         style="fill:#54677f;fill-opacity:1;stroke:none" />
      <path
         d="M 578.5,259 562,253.75 c -139.8726,-5.02293 -251.90491,-50.0176 -374.75,-82 121.50489,40.47875 245.29232,88.01758 391.25,87.25 z"
         id="path3327"
         style="fill:#54677f;fill-opacity:1;stroke:none" />
      <path
         d="m 850.73645,257.39207 c 38.35025,2.86514 85.87032,12.61391 128.95148,17.9695 l -8.73454,5.81727 c -24.14641,-2.1866 -78.8462,-13.93169 -120.21694,-23.78677 z"
         id="path3329"
         style="fill:#54677f;fill-opacity:1;stroke:none" />
      <path
         d="m 1129.75,273 c 44.8364,8.51179 77.1431,30.69237 107.5,55 -33.9265,-18.81005 -68.326,-37.50183 -107.5,-55 z"
         id="path3331"
         style="fill:#54677f;fill-opacity:1;stroke:none" />
    </g>
  </g>
</svg>
