<?xml version="1.0" encoding="UTF-8" standalone="no"?>
<!-- Created with Inkscape (http://www.inkscape.org/) -->

<svg
   xmlns:dc="http://purl.org/dc/elements/1.1/"
   xmlns:cc="http://creativecommons.org/ns#"
   xmlns:rdf="http://www.w3.org/1999/02/22-rdf-syntax-ns#"
   xmlns:svg="http://www.w3.org/2000/svg"
   xmlns="http://www.w3.org/2000/svg"
   version="1.1"
   width="1920"
   height="1080"
   id="svg2">
  <defs
     id="defs4" />
  <metadata
     id="metadata7">
    <rdf:RDF>
      <cc:Work
         rdf:about="">
        <dc:format>image/svg+xml</dc:format>
        <dc:type
           rdf:resource="http://purl.org/dc/dcmitype/StillImage" />
        <dc:title></dc:title>
      </cc:Work>
    </rdf:RDF>
  </metadata>
  <g
     id="layer4"
     style="display:inline">
    <g
       id="g3495"
       style="display:inline">
      <path
         d="m 1207.5,478.21429 c 55.3163,-65.85983 134.1567,-168.18271 313.0125,-152.67332 81.6003,-7.77882 150.3153,35.73485 193.4161,55.53046 20.0958,8.22587 38.4142,18.23335 53.5714,34.64286 173.4861,145.48271 100.7598,356.54816 59.2084,445.62219 0.4065,15.40044 12.2658,48.49692 -4.2973,73.71272 -11.7929,-29.97271 -39.5239,-63.2472 -47.3738,-93.84297 -1.5092,14.85357 -13.6227,60.85327 -24.777,75.13319 -1.4728,-7.55206 -2.1818,-16.95133 -2.3538,-25.02067 -4.46,5.35028 -8.8991,11.7992 -13.5688,14.92202 -2.5594,-2.57621 -5.5777,-5.76916 -7.1739,-9.1106 -1.4156,-50.17482 22.5327,-126.73387 28.1717,-136.78881 -6.0471,-8.16988 -7.8555,-19.83046 -8.3422,-32.27513 -27.686,51.78682 -101.8844,100.50461 -131.8746,110.3664 42.0433,-40.1447 58.8352,-83.72869 60.7583,-129.27559 -7.1343,19.73045 -13.4709,25.96767 -29.4783,42.93305 -0.674,-20.20356 -1.2612,-36.8541 -3.6569,-50.48132 -5.9731,8.1232 -10.8396,14.21006 -25.8484,24.8731 16.4007,-25.61691 18.4321,-53.68961 12.5852,-90.7718 -54.702,95.63924 -120.5773,150.80006 -162.0439,187.12477 -0.278,10.43189 -0.6501,29.57732 -4.2763,38.93863 -15.2934,-21.96234 -18.135,-36.07603 -22.0635,-58.39277 -20.9259,51.33558 -55.7035,98.15755 -80.5695,140.78997 2.4624,-48.97673 21.0834,-68.79837 28.8345,-90.69808 -19.5537,27.44372 -26.9804,38.09132 -43.994,45.91637 9.6227,41.88697 -4.6711,59.38528 -62.1512,93.71814 l 9.3619,-18.66913 c 7.372,-10.78124 -0.9582,-34.44641 12.7142,-54.41101 -12.0251,6.39304 -25.9771,8.45493 -39.7116,14.07196 3.6206,-6.29896 13.2446,-14.07863 24.1447,-23.75881 -15.5053,8.83445 -58.4597,19.92369 -87.5216,38.14063 21.7669,-31.26157 57.5044,-73.23525 66.7166,-81.79751 -24.925,16.25672 -86.1562,15.5219 -97.8458,13.00325 5.4152,-6.51659 11.5433,-11.12051 18.015,-16.81085 -1.2911,-1.4074 -2.1997,-2.9473 -2.4591,-3.91519 15.4765,-16.48707 34.4037,-32.01531 43.1455,-45.56912 -2.8131,-3.12068 -5.5531,-7.57421 -7.8068,-12.53499 -19.1128,4.48786 -64.2956,7.9111 -95.4137,0.48413 20.4337,-25.89123 40.1662,-50.40421 61.8303,-71.7192 -4.0686,-5.90779 -9.7589,-35.24839 -9.6116,-44.15561 -4.201,0.13859 -21.2011,2.23578 -28.6598,1.67029 6.7664,-5.12333 25.6572,-13.10761 26.5231,-14.95546 -9.3397,-97.77306 12.7461,-130.3204 30.8644,-193.96614 z"
         id="path3497"
         style="fill:#000000;stroke:none" />
      <path
         d="m 464.5625,-11.0625 -42.53125,0.875 C 478.2509,4.8561293 629.39774,54.691583 658.59375,79.875 629.08321,77.766556 542.93243,75.841755 517.71875,76.03125 239.32747,-19.009675 103.09696,28.133593 -10.4375,76.96875 l 0.25,103.40625 c 67.583922,-10.38585 146.21948,-6.88306 212.78125,-5.5 54.40484,18.61636 114.19454,17.18184 166.59375,20.875 198.6591,40.44818 332.08144,90.35771 548.65625,119.1875 -80.82286,18.62805 -71.50031,17.02849 -152.28125,31.75 -107.94683,4.18825 -175.45694,2.84452 -248.8125,1.9375 -86.10765,-1.0647 -232.001,39.9958 -314.21875,48.75 C 110.96787,407.12429 36.255718,413.76825 -12.875,433.5 l 3.96875,79.75 c 49.190252,-4.19284 90.74468,-12.55338 142.28125,-16.5 142.76432,1.43314 352.42566,83.04508 796.44244,-88.13972 38.7748,-16.42616 98.41446,-21.06902 136.21376,-26.61028 37.876,8.34669 117.2429,29.00968 193.3438,58.5625 47.9613,-39.18676 96.4456,-68.78721 172.5,-95.625 -92.4911,-67.34635 -121.3746,-103.02591 -327.2812,-131.21875 -12.2529,-4.20383 -21.5352,-6.32268 -34.2188,-8.46875 C 940.60916,160.22 893.92509,99.623889 724.46875,82.375 587.14091,4.39969 494.25702,4.2806552 464.5625,-11.0625 z m 1.91734,139.10566 c -8.48937,-0.0114 -19.9362,0.5897 -27.50617,0.36585 C 353.47584,108.47456 293.2424,90.797735 206.20453,83.895815 268.46801,73.597372 423.91485,114.5937 466.47984,128.04316 z M 546.4375,87.125 c 37.46934,4.929965 150.81796,13.34314 162.625,19.21875 -28.49577,1.83064 -66.4644,-0.40371 -101.53125,4.75 C 597.70373,106.74872 558.24266,90.720723 546.4375,87.125 z m -461.625,28.25 c 29.83165,1.72726 63.74486,2.1014 88.5625,5.5 -16.31998,1.20022 -38.2856,1.28491 -59.0625,1.59375 -12.73224,-1.6327 -20.200195,-4.60295 -29.5,-7.09375 z m -28.78401,1.97947 c 5.325235,3.3646 8.91122,5.56969 12.90717,8.0481 -14.216224,2.68441 -24.216049,2.95945 -35.358757,3.88756 6.678871,-3.81755 13.462402,-7.65604 22.451587,-11.93566 z M 642.25,129.5 c 22.65225,4.47148 81.48808,3.04625 111.1875,10.90625 12.84382,9.49085 43.32508,24.39345 65.34375,37.6875 -15.72717,-1.15679 -73.78779,-6.28542 -94.09375,-8.4375 C 687.59376,152.74107 677.22818,147.07096 642.25,129.5 z m -44.40625,278.4375 c -28.93661,7.79644 -58.1825,19.49376 -81.625,30.21875 -76.53538,4.00002 -152.10069,8.28046 -257.3125,2.9375 75.2403,-13.51259 178.13936,-32.83176 338.9375,-33.15625 z m 63.13144,0.67954 c -4.81069,11.04817 -21.47413,8.69978 -32.71058,11.11674 10.89489,-3.70558 18.61674,-7.41116 32.71058,-11.11674 z"
         id="path3499"
         style="fill:#000000;stroke:none;display:inline" />
      <path
         d="m 685.973,410.53671 16.78688,0.65231 C 552.10829,482.33519 229.61667,453.60041 -79.323521,418.6745 123.72833,433.56972 454.47884,482.00576 685.973,410.53673 z"
         id="path3501"
         style="fill:#54677f;fill-opacity:1;stroke:none;display:inline" />
      <path
         d="m 187.06244,405.26957 c 165.60447,-8.63646 187.77724,-54.65621 528.22306,-42.70626 -18.78025,7.91049 -63.30197,25.80672 -86.75828,35.18845 41.15855,-12.18501 96.42055,-33.54733 115.86234,-42.61776 -387.8959,-11.06201 -331.05419,22.12516 -557.32712,50.13557 z m 723.09303,-106.29314 16.95077,0.81465 C 847.00714,275.50011 629.86648,222.7454 524.72214,199.468 c 93.45024,29.64351 225.18435,56.70567 385.43333,99.50843 z"
         id="path3503"
         style="fill:#54677f;fill-opacity:1;stroke:none;display:inline" />
      <path
         d="M 632.173,127.7738 C 322.28378,-14.572548 119.98045,14.540764 -3.996864,82.715869 282.24544,-48.844889 580.83279,115.56373 698.72936,174.44038 c 55.17737,6.32326 96.04239,9.83646 131.34579,13.82196 9.09734,4.47452 24.51511,10.446 49.32311,20.85411 C 857.68299,196.3773 843.87488,190.22022 829.27218,182.84768 819.64163,183.29624 725.85375,172.61519 718.506,172.0896 673.77748,154.26116 651.01036,136.99066 632.173,127.7738 z"
         id="path3505"
         style="fill:#54677f;fill-opacity:1;stroke:none;display:inline" />
      <path
         d="m 1202.1576,292.00369 c 33.0577,5.37882 63.7862,17.41219 102.4209,34.48528 -44.8023,-15.40361 -78.6018,-18.74312 -102.4209,-34.48528 z"
         id="path3507"
         style="fill:#54677f;fill-opacity:1;stroke:none;display:inline" />
      <path
         d="M 97.877524,81.40685 C 258.19152,79.667899 281.8238,68.238157 488.88984,132.18263 c -92.79222,-3.50086 -124.75216,5.7353 -196.01501,10.13413 77.63877,0.97173 155.33458,-11.94343 241.29443,0.85791 C 437.0921,89.292623 286.77332,60.701631 97.877524,81.40685 z"
         id="path3509"
         style="fill:#54677f;fill-opacity:1;stroke:none;display:inline" />
      <path
         d="m 1115.5913,232.05977 c 58.8684,8.421 190.1734,49.16481 257.8281,74.51345 -53.6809,-13.61595 -208.0015,-60.03075 -257.8281,-74.51345 z"
         id="path3511"
         style="fill:#54677f;fill-opacity:1;stroke:none;display:inline" />
      <path
         d="m 868.29159,1084.4497 c -42.7284,-158.98065 6.74436,-224.50245 108.50839,-177.27665 48.37362,-104.88513 36.06062,-89.5202 175.74132,-32.43997 85.1664,34.80308 306.1009,183.19942 488.6033,210.77732 z"
         id="path3513"
         style="fill:#000000;stroke:none;display:inline" />
      <path
         d="m 1731.5151,749.58139 c 40.8447,-59.91065 51.8509,-130.23863 48.715,-188.22384 -4.2681,-78.92128 -40.4954,-145.63508 -100.7426,-184.56449 79.5307,34.97814 91.764,63.98492 125.6183,126.53098 32.6943,60.403 60.823,182.42179 44.361,247.04889 24.5334,-56.48028 28.1979,-111.89244 13.2965,-173.50842 2.2376,24.46908 10.7873,80.9375 0.1907,100.52963 -0.631,-92.51732 -55.2647,-200.54525 -85.195,-240.23848 12.9136,9.87909 28.8485,33.98238 46.9538,53.98335 -44.0467,-95.61866 -201.2728,-159.26397 -290.2911,-165.62195 49.2318,13.29157 96.2336,28.70559 131.945,51.17358 75.7392,47.65164 106.3785,123.51867 107.9549,187.117 1.5112,60.96673 -3.2341,111.0893 -42.8065,185.77375 z"
         id="path3515"
         style="fill:#54677f;fill-opacity:1;stroke:none" />
      <path
         d="m 801.76926,121.29571 c 38.80099,22.95008 94.25223,45.5207 136.71478,73.31843 -43.38401,-13.1864 -129.98875,-61.8968 -159.61543,-78.40751 23.52798,18.6382 143.61172,91.31913 212.33599,98.70662 -52.22369,-27.97859 -99.66626,-54.86165 -189.43534,-93.61754 z"
         id="path3517"
         style="fill:#54677f;fill-opacity:1;stroke:none" />
      <path
         d="m 854.11424,214.23664 c 213.04266,-0.12976 287.33236,23.52965 392.86306,127.14679 -136.3876,-119.14145 -246.8744,-111.15454 -317.63935,-118.89647 23.7032,9.52353 90.66795,18.27198 105.20575,27.4896 -28.6053,-0.81657 -152.05881,-28.75977 -180.42946,-35.73992 z"
         id="path3519"
         style="fill:#54677f;fill-opacity:1;stroke:none" />
      <path
         d="m 968.76142,361.98636 c 41.93498,-3.75123 66.60498,4.01258 100.04828,10.25305 -18.1222,3.59706 -64.2987,-6.24008 -100.04828,-10.25305 z"
         id="path3521"
         style="fill:#54677f;fill-opacity:1;stroke:none" />
    </g>
  </g>
</svg>
