<?xml version="1.0" encoding="UTF-8" standalone="no"?>
<!-- Created with Inkscape (http://www.inkscape.org/) -->

<svg
   xmlns:dc="http://purl.org/dc/elements/1.1/"
   xmlns:cc="http://creativecommons.org/ns#"
   xmlns:rdf="http://www.w3.org/1999/02/22-rdf-syntax-ns#"
   xmlns:svg="http://www.w3.org/2000/svg"
   xmlns="http://www.w3.org/2000/svg"
   version="1.1"
   width="1920"
   height="1080"
   id="svg2">
  <defs
     id="defs4" />
  <metadata
     id="metadata7">
    <rdf:RDF>
      <cc:Work
         rdf:about="">
        <dc:format>image/svg+xml</dc:format>
        <dc:type
           rdf:resource="http://purl.org/dc/dcmitype/StillImage" />
        <dc:title></dc:title>
      </cc:Work>
    </rdf:RDF>
  </metadata>
  <g
     id="layer4"
     style="display:inline">
    <g
       id="g3145"
       style="display:inline">
      <path
         d="m 1179.6481,692.71482 c -5.5642,-64.00735 0.1791,-136.65369 27.8519,-214.50053 55.3163,-65.85983 134.1567,-168.18271 313.0125,-152.67332 81.6003,-7.77882 150.3153,35.73485 193.4161,55.53046 20.0958,8.22587 38.4142,18.23335 53.5714,34.64286 173.4861,145.48271 108.0054,353.70932 56.3119,441.35442 -29.7666,42.41502 -53.6289,51.77829 -73.193,55.51367 9.3225,-24.96404 12.7305,-28.96027 22.5955,-63.87238 -6.6279,16.63328 -16.3927,45.63646 -31.7077,65.82151 -7.802,-6.52964 -10.5222,-11.36535 -14.5933,-16.65134 12.5351,-110.87269 35.2612,-135.77379 27.8148,-161.88241 -28.436,51.03682 -98.1604,127.31051 -139.2363,154.51849 49.4027,-60.28626 52.5114,-128.68428 71.4307,-171.34449 -14.0548,21.04962 -22.0344,43.99747 -33.13,58.76363 -1.7104,-24.22226 -2.1096,-47.1548 -2.7071,-61.21051 -8.5335,9.17708 -16.8121,23.75844 -26.725,37.04253 0.992,-18.55011 7.5272,-38.10276 17.063,-50.18274 -1.3491,-24.43926 -5.8223,-54.94552 -11.2685,-67.44045 -8.5846,14.22624 -13.8191,22.7959 -22.4704,35.52203 -21.189,90.03426 -85.352,129.5254 -109.9964,164.39652 -5.4238,-36.52148 -11.0724,-80.54736 -11.9721,-121.16734 -4.8206,32.33327 -11.9111,53.10031 -21.885,146.70646 -14.7229,-15.74022 -14.5654,-35.02195 -21.3454,-54.89182 -14.2387,48.42353 -49.5495,87.56778 -78.0192,136.28078 7.8641,-42.10021 20.4339,-60.2598 32.7561,-85.41471 -14.0017,19.61765 -28.4411,44.29455 -48.3407,60.9567 0.1874,49.33247 -45.3584,46.12096 -73.1676,94.32426 20.9846,-64.07229 23.7691,-74.62456 27.1502,-87.21866 -23.337,19.82071 -26.7245,22.00608 -58.0904,48.21603 15.879,-30.91755 10.7622,-58.74012 38.5481,-90.21628 -26.8015,17.901 -68.6686,54.05401 -93.2859,58.11163 7.6571,-26.91081 33.0373,-76.49359 42.8194,-103.84628 -8.5448,2.89806 -32.6592,13.56463 -47.3395,14.33418 13.1407,-16.70674 31.332,-32.03307 41.5131,-40.9049 -1.0825,-2.88005 -1.2789,-5.19303 -1.7992,-7.1171 -8.9249,1.39348 -26.3281,-2.37856 -32.4811,-7.30269 -24.0063,5.08514 -50.9599,2.56073 -67.0919,-2.78633 20.9463,-25.24478 38.718,-45.97592 62.1321,-67.29091 -3.2571,-8.03901 -3.9244,-14.77472 -5.1234,-23.52083 -6.2183,0.84088 -12.8015,3.79847 -23.193,2.88891 8.0419,-6.12344 13.5569,-9.60636 20.1753,-13.48905 z"
         id="path3147"
         style="fill:#000000;stroke:none" />
      <path
         d="m -31.84375,-38.875 c 58.940949,25.2657 87.653656,31.8424539 159.22918,50.277598 38.93826,33.387412 52.0841,47.685404 111.51535,91.738992 C 106.88667,80.196485 70.016492,82.2744 -13.6875,65.125 l -0.78125,63.0625 C 67.71884,188.43821 185.48833,258.41038 317.53125,315 191.62435,300.67695 81.69761,251.08398 -17.0625,210.96875 l -0.03125,50.46875 c 159.58289,76.62288 364.71073,148.40002 570.3125,135.96875 36.47832,13.44035 50.81435,19.92723 110.33644,14.9657 13.31249,0.79703 53.58335,6.66446 73.37314,7.81495 -227.17858,87.63569 -416.0039,143.46497 -753.216308,72.04476 l -3.855393,105.7506 c 66.054214,-1.53594 116.906454,-2.71331 179.978551,-13.24572 219.27652,25.03974 422.91875,-3.42486 758.86091,-152.30332 48.10038,3.15022 113.32231,-3.99741 159.30331,-22.54718 64.598,-0.65981 114.9179,1.23123 181.3756,30.67646 47.9613,-39.18676 96.4456,-68.78721 172.5,-95.625 -54.9029,-54.96646 -153.3844,-97.76436 -256.0938,-95.78125 -8.519,-2.95922 -20.215,-5.59815 -27.8124,-5.90625 C 1063.7119,213.36737 1051.324,211.01433 993.87495,201.31126 919.8022,174.29292 790.73917,122.72141 656.46139,124.33211 L 592.57598,95.914214 C 548.23647,58.302866 522.6792,7.530655 495.90625,-25.8125 506.89557,5.884747 523.85868,43.613383 551.77329,79.667893 414.72096,31.34144 318.44508,9.4106992 200.63233,-36.81434 z M 214.38247,38.338312 C 250.06945,48.434192 528.71924,138.92758 591.57774,170.55822 535.5342,168.3361 421.2512,142.39166 381.41611,135.09317 337.7302,112.42208 247.44318,58.496639 214.38247,38.338312 z M -37.083947,98.81434 c 95.546256,14.62954 268.749107,46.40211 401.771447,89.21691 8.25707,5.20808 20.50015,12.49856 35.62882,20.03754 -4.59034,0.0902 -5.78012,-0.0507 -11.60785,0.39119 69.67668,34.52314 208.62526,87.1487 270.54153,105.63377 -41.01375,7.33871 -59.58651,12.15994 -99.10602,16.98959 C 362.06809,293.60023 85.294393,169.02807 -37.083947,98.81434 z M 720,154.5 c 24.45241,2.17851 86.52131,19.50727 110,26.5 -21.59882,-1.8385 -38.76556,-2.3663 -54.5,-2.5 -10.97552,-5.75 -47.76007,-20.5 -55.5,-24 z m -78.125,81.84375 c 19.05969,0.23794 96.8312,5.33977 110.375,6.4375 21.38008,8.49941 41.89156,15.67359 68.51333,23.67142 -4.68873,2.28498 -7.69914,5.14398 2.29242,8.37725 -9.5128,4.27392 -28.59248,4.54469 -44.462,4.76383 -44.25337,-17.13706 -103.99363,-33.47483 -136.71875,-43.25 z m 162.75,117.5625 c 10.4632,3.55387 33.53071,9.5095 51.1875,14.375 -23.08726,0.50619 -67.55075,-4.53288 -80.28125,-7.125 8.61966,-2.12395 20.93213,-3.64704 29.09375,-7.25 z"
         id="path3149"
         style="fill:#000000;stroke:none;display:inline" />
      <path
         d="m 948.62486,422.73043 c 37.58145,-25.49971 53.21674,-35.3767 85.81904,-55.03391 -13.427,2.36234 -56.3062,9.07906 -95.51226,8.38047 48.72955,-12.25178 81.73156,-11.35514 107.32376,-17.1188 l 10.4298,3.35876 c -33.5854,19.71669 -55.4924,35.6335 -108.06034,60.41348 z"
         id="path3151"
         style="fill:#54677f;fill-opacity:1;stroke:none;display:inline" />
      <path
         d="m 741.29289,420.84315 12.71752,-0.3033 C 456.65173,557.07006 226.64234,551.96724 -19.914213,499.8873 199.52059,539.44291 433.94429,557.04406 741.29289,420.84315 z"
         id="path3153"
         style="fill:#54677f;fill-opacity:1;stroke:none;display:inline" />
      <path
         d="m 324.99095,315.23459 c 78.36313,32.21477 151.4476,59.1848 243.40769,78.02438 l -7.07107,-5.65685 C 468.75506,367.56809 415.71753,345.55833 324.99095,315.23459 z"
         id="path3155"
         style="fill:#54677f;fill-opacity:1;stroke:none;display:inline" />
      <path
         d="M 867.3294,369.65578 C 485.3065,355.93309 333.85476,278.4137 102.00684,179.11523 c 156.75352,76.97499 328.48987,157.78618 639.28728,186.60062 -24.78025,4.66049 -88.5238,17.30672 -104.48011,21.93845 29.40855,-3.93501 120.27106,-17.9689 132.71285,-19.78933 31.78955,2.2175 65.03881,3.86485 99.87669,4.88199 1.46111,-2.25769 2.0252,-4.66489 1.4868,-7.25584 -78.76643,-25.60898 -271.78279,-67.103 -471.76472,-154.77182 150.16014,71.5586 328.70705,118.24247 468.20377,158.93648 z"
         id="path3157"
         style="fill:#54677f;fill-opacity:1;stroke:none;display:inline" />
      <path
         d="M 553.95229,84.273217 C 425.23473,35.905683 266.87599,3.8204106 143.4768,-63.865647 249.07734,1.6802605 387.26546,43.644368 565.99608,102.35254 z"
         id="path3159"
         style="fill:#54677f;fill-opacity:1;stroke:none;display:inline" />
      <path
         d="m 1156.75,284.75 c 64.0142,8.7749 107.996,24.30825 153,41.75 -45.8524,-10.69909 -90.4578,-21.1872 -153,-41.75 z"
         id="path3161"
         style="fill:#54677f;fill-opacity:1;stroke:none;display:inline" />
      <path
         d="m 854.99695,273.57843 c -15.01893,5.01936 -33.74437,8.92676 -55.42804,11.9467 34.06713,8.43488 71.88605,18.77561 100.69365,29.71967 C 727.29459,271.10984 530.89439,223.43026 419.80293,161.708 c 121.00672,58.32065 245.5052,89.30018 358.63641,119.90292 24.50924,0.49794 45.97297,-3.40317 66.25914,-9.00521 -27.51182,-8.25392 -64.20831,-23.49514 -91.34577,-33.00333 -33.01889,-1.23739 -55.2206,-1.69687 -80.23912,-7.80949 19.63016,0.17758 53.06291,1.57027 70.5223,3.00037 -33.81137,-12.35844 -89.70158,-53.10184 -133.11813,-91.41852 83.53836,74.25244 205.18472,117.78154 244.47919,130.20369 z"
         id="path3163"
         style="fill:#54677f;fill-opacity:1;stroke:none;display:inline" />
      <path
         d="m 975.19596,204.57107 c 86.45554,13.11618 96.91404,17.9878 167.64284,41.59314 -82.5254,-13.39309 -112.9098,-24.38119 -167.64284,-41.59314 z"
         id="path3165"
         style="fill:#54677f;fill-opacity:1;stroke:none;display:inline" />
      <path
         d="m 1187.75,257.5 c 60.0132,10.51503 123.9189,27.087 179.75,47.5 -50.0234,-11.79953 -132.1035,-34.83956 -179.75,-47.5 z"
         id="path3167"
         style="fill:#54677f;fill-opacity:1;stroke:none;display:inline" />
      <path
         d="m 985.66816,242.46584 c -48.09448,-21.20062 -68.36126,-30.48803 -107.99628,-44.73468 58.62997,12.97583 80.55707,24.87425 155.30302,58.37975 -47.95191,7.22005 -93.34919,5.77028 -145.5334,17.42439 l -24.26562,-5.85421 c 32.86405,-5.48613 108.50796,-14.40843 132.98617,-16.02028 -53.12175,-6.21342 -131.33218,-24.87405 -170.5667,-33.8585 51.69161,5.75197 88.90335,16.25548 160.07281,24.66353 z"
         id="path3169"
         style="fill:#54677f;fill-opacity:1;stroke:none;display:inline" />
      <path
         d="M 870.97357,1085.5104 C 834.04438,922.30995 851.05371,833.65248 975.86801,930.31519 c 58.98029,-128.03642 70.75559,-52.52945 280.70379,3.59735 92.1161,24.626 103.0754,82.81536 385.2799,152.65856 z"
         id="path3171"
         style="fill:#000000;stroke:none;display:inline" />
      <path
         d="m 1741.4146,750.64205 c 42.966,-58.84999 44.0727,-132.7135 40.9368,-190.69871 -4.2681,-78.92128 -42.2631,-142.4531 -102.8639,-183.15028 79.5307,34.97814 92.4242,64.09104 127.7396,125.82387 33.7064,58.92009 59.4316,177.03211 59.907,237.47783 2.1721,-44.17446 5.7716,-88.26519 3.4073,-133.17821 -2.2444,15.79222 -3.4781,22.0783 -7.2339,39.01135 -13.8016,-94.45076 -54.9111,-165.54348 -84.8414,-205.23671 12.9136,9.87909 28.1414,30.44685 46.2467,50.44782 -48.3373,-97.33488 -201.3263,-159.28538 -290.2911,-165.62195 49.2318,13.29157 96.2336,28.70559 131.945,51.17358 75.7392,47.65164 108.8534,121.0438 110.4298,184.64213 1.5112,60.96673 4.1905,114.62483 -35.3819,189.30928 z"
         id="path3173"
         style="fill:#54677f;fill-opacity:1;stroke:none" />
      <path
         d="m 648.28302,129.04493 c -10.37708,-0.14426 -17.10776,-8.7e-4 -26.73616,-0.10356 -9.92533,-8.19222 -14.0864,-12.89626 -29.02692,-25.2613 25.14681,10.29619 32.36636,15.10627 55.76308,25.36486 z"
         id="path3175"
         style="fill:#54677f;fill-opacity:1;stroke:none" />
      <path
         d="M 231.03867,33.063961 C 285.40663,62.825562 546.07031,142.74446 597.59874,171.50472 562.67049,173.33739 428.03727,150.16419 411.41087,148.2467 489.82044,168.40197 531.69074,179.61831 647.06804,182.02249 573.43565,139.60067 289.47746,47.978215 231.03867,33.063961 z"
         id="path3177"
         style="fill:#54677f;fill-opacity:1;stroke:none" />
      <path
         d="m 875.42763,195.95967 c -45.03564,-12.61781 -74.02045,-14.30792 -106.47592,-15.1014 -19.94864,-8.90311 -78.00334,-42.41177 -116.79215,-36.57933 37.31076,17.84688 85.0167,40.01292 99.2254,47.16817 26.04195,-5.35103 72.84438,-0.80189 124.04267,4.51256 z"
         id="path3179"
         style="fill:#54677f;fill-opacity:1;stroke:none" />
      <path
         d="m 855.54375,270.93075 c 42.49754,7.35789 57.38071,12.28736 79.55472,25.37527 -26.00994,-5.96316 -54.72009,-14.9182 -79.55472,-25.37527 z"
         id="path3181"
         style="fill:#54677f;fill-opacity:1;stroke:none" />
      <path
         d="m 663.08939,154.75078 c 60.73654,41.99067 105.87003,62.59841 188.62073,79.5495 -78.0306,-22.4382 -119.35293,-41.59985 -188.62073,-79.5495 z"
         id="path3183"
         style="fill:#54677f;fill-opacity:1;stroke:none" />
    </g>
  </g>
</svg>
