<?xml version="1.0" encoding="UTF-8" standalone="no"?>
<!-- Created with Inkscape (http://www.inkscape.org/) -->

<svg
   xmlns:dc="http://purl.org/dc/elements/1.1/"
   xmlns:cc="http://creativecommons.org/ns#"
   xmlns:rdf="http://www.w3.org/1999/02/22-rdf-syntax-ns#"
   xmlns:svg="http://www.w3.org/2000/svg"
   xmlns="http://www.w3.org/2000/svg"
   version="1.1"
   width="1920"
   height="1080"
   id="svg2">
  <defs
     id="defs4">
    <filter
       color-interpolation-filters="sRGB"
       id="filter4386">
      <feGaussianBlur
         id="feGaussianBlur4388"
         stdDeviation="6.4296876" />
    </filter>
    <filter
       color-interpolation-filters="sRGB"
       id="filter4414">
      <feGaussianBlur
         id="feGaussianBlur4416"
         stdDeviation="6.5901486" />
    </filter>
    <filter
       color-interpolation-filters="sRGB"
       id="filter4430">
      <feGaussianBlur
         id="feGaussianBlur4432"
         stdDeviation="6.1438628" />
    </filter>
    <filter
       color-interpolation-filters="sRGB"
       id="filter4446">
      <feGaussianBlur
         id="feGaussianBlur4448"
         stdDeviation="6.399302" />
    </filter>
    <filter
       color-interpolation-filters="sRGB"
       id="filter4465">
      <feGaussianBlur
         id="feGaussianBlur4467"
         stdDeviation="6.6398305" />
    </filter>
    <filter
       color-interpolation-filters="sRGB"
       id="filter4485">
      <feGaussianBlur
         id="feGaussianBlur4487"
         stdDeviation="6.8573812" />
    </filter>
    <filter
       color-interpolation-filters="sRGB"
       id="filter4501">
      <feGaussianBlur
         id="feGaussianBlur4503"
         stdDeviation="7.0277588" />
    </filter>
    <filter
       color-interpolation-filters="sRGB"
       id="filter4517">
      <feGaussianBlur
         id="feGaussianBlur4519"
         stdDeviation="6.9008854" />
    </filter>
    <filter
       color-interpolation-filters="sRGB"
       id="filter4529">
      <feGaussianBlur
         id="feGaussianBlur4531"
         stdDeviation="6.4781189" />
    </filter>
  </defs>
  <metadata
     id="metadata7">
    <rdf:RDF>
      <cc:Work
         rdf:about="">
        <dc:format>image/svg+xml</dc:format>
        <dc:type
           rdf:resource="http://purl.org/dc/dcmitype/StillImage" />
        <dc:title></dc:title>
      </cc:Work>
    </rdf:RDF>
  </metadata>
  <g
     id="layer24"
     style="display:inline">
    <g
       id="g4453"
       style="display:inline">
      <path
         d="m 1273.5822,477.91364 c 17.7552,8.2762 22.0674,9.68032 28.1582,13.98496 -2.5458,1.53466 -2.6364,2.92219 -0.017,5.86643 54.0036,18.56245 83.0192,-0.5413 165.1343,31.82935 -24.1666,-21.47666 -137.6569,-44.96541 -193.2757,-51.68074 z m 233.7303,69.74261 c 18.6416,20.62489 45.857,43.16135 45.1803,54.97439 -11.6475,-9.80711 -36.7738,-26.87601 -56.1519,-30.20661 101.1384,73.86696 16.3762,36.89797 -23.9616,53.22612 -33.1268,13.40925 -128.5169,67.78411 -149.6035,111.60721 -7.9919,16.60915 19.401,53.34365 43.6011,54.51653 41.015,1.98784 144.4685,-5.86289 192.6261,10.5 29.4486,10.00596 118.378,34.86569 130.4848,45.10051 27.3453,23.11713 46.7627,41.71209 88.3634,13.13724 17.7777,-12.21124 15.1459,-50.22475 -32.8358,-73.12928 -33.7228,-16.09782 26.0915,-49.70007 -237.7029,-239.72611 z m -236.5677,21.66177 c 15.1366,13.58853 26.2302,44.02938 37.8284,33.60876 11.0233,-9.90412 -20.3661,-21.52758 -37.8284,-33.60876 z"
         id="path4455"
         style="fill:#3bfffa;fill-opacity:0.88235294;stroke:none;filter:url(#filter4485)" />
    </g>
  </g>
</svg>
