<?xml version="1.0" encoding="UTF-8" standalone="no"?>
<!-- Created with Inkscape (http://www.inkscape.org/) -->

<svg
   xmlns:dc="http://purl.org/dc/elements/1.1/"
   xmlns:cc="http://creativecommons.org/ns#"
   xmlns:rdf="http://www.w3.org/1999/02/22-rdf-syntax-ns#"
   xmlns:svg="http://www.w3.org/2000/svg"
   xmlns="http://www.w3.org/2000/svg"
   version="1.1"
   width="1920"
   height="1080"
   id="svg2">
  <defs
     id="defs4" />
  <metadata
     id="metadata7">
    <rdf:RDF>
      <cc:Work
         rdf:about="">
        <dc:format>image/svg+xml</dc:format>
        <dc:type
           rdf:resource="http://purl.org/dc/dcmitype/StillImage" />
        <dc:title></dc:title>
      </cc:Work>
    </rdf:RDF>
  </metadata>
  <g
     id="layer4"
     style="display:inline">
    <g
       id="g3566"
       style="display:inline">
      <path
         d="m 1177.1429,672.14286 c -5.5642,-64.00735 2.6843,-116.08173 30.3571,-193.92857 55.3163,-65.85983 134.1567,-168.18271 313.0125,-152.67332 81.6003,-7.77882 150.3153,35.73485 193.4161,55.53046 20.0958,8.22587 38.4142,18.23335 53.5714,34.64286 172.779,143.36139 99.5852,353.8913 65.8622,450.08665 -2.6097,23.80411 -14.1196,51.02829 -30.9534,70.62764 -0.1355,-31.87777 0.6299,-52.55861 -8.6563,-84.09087 -11.3121,21.60738 -25.8342,47.67068 -41.5956,65.77222 -1.3549,-9.57629 -1.9769,-19.69583 -1.991,-29.94256 -6.8505,8.11915 -10.4634,12.62803 -17.9871,17.38103 l -6.8904,-9.66823 c 3.6338,-56.03852 24.3382,-116.55811 35.4261,-155.08742 -3.0279,-3.54777 -5.4876,-8.12144 -7.0418,-13.62862 -31.618,50.32971 -81.8874,111.27802 -132.3021,140.71608 31.3317,-43.16709 52.9485,-98.9009 61.9684,-147.7483 -10.08,16.11244 -23.3399,24.39303 -36.5568,34.03267 2.1661,-21.00259 3.9059,-33.82117 2.7781,-45.57879 -8.3567,12.35906 -16.1959,15.00325 -24.4446,22.13568 10.7272,-17.71432 15.0931,-23.91558 16.3203,-33.87423 0.5954,-24.43927 -8.0419,-49.94553 -12.872,-63.31914 -40.1812,60.60265 -34.5191,112.4509 -130.2441,198.49914 -0.2972,-22.90967 -13.9061,-55.61233 -20.109,-72.72101 -2.8509,28.65129 -1.2239,62.6064 -7.6622,96.63881 -13.4855,-15.03312 -24.2882,-35.37551 -32.4824,-55.95248 -19.1885,46.12543 -43.7158,96.40661 -73.2462,138.57887 5.3892,-34.32203 11.9486,-63.08823 25.685,-91.60189 -12.8911,16.28861 -22.4652,41.296 -46.9265,53.70885 19.9864,54.81255 -31.7466,60.79343 -64.3288,105.81471 6.3408,-21.36337 15.3152,-49.20174 19.9411,-67.50518 -9.7504,5.436 -11.3704,11.60403 -24.3034,18.152 2.7789,-10.72347 27.1454,-37.25512 30.293,-46.10848 -12.1708,6.02212 -49.7768,36.79297 -64.9725,42.81509 7.418,-17.1217 21.8018,-66.13812 36.2916,-79.97333 -28.0848,24.44723 -55.8874,50.01306 -93.4207,72.75765 12.3952,-36.38661 26.7483,-64.92819 51.8778,-89.61399 -12.3663,1.52664 -55.3144,22.01885 -72.3992,23.73332 12.8407,-25.77141 25.7558,-48.71441 63.3353,-73.07161 l -4.6428,-6.60714 c -37.8273,9.03905 -67.3023,3.51463 -90.411,-1.43217 19.6053,-23.28767 34.6397,-46.82427 57.5538,-69.63926 -7.8533,-14.22619 -7.7403,-28.45238 -10,-42.67857 -7.4003,0.616 -15.3318,2.76294 -28.2715,4.95692 10.5472,-9.00731 18.8122,-14.03313 27.0216,-20.13549 z"
         id="path3568"
         style="fill:#000000;fill-opacity:1;stroke:none" />
      <path
         d="M -76.138402,-7.367036 C 59.46405,67.05048 194.51117,122.17079 341.90625,184.46875 c -98.78482,-7.85071 -121.63542,1.58519 -208.0625,7.1875 l -147.5625,-49.125 1.114213,49.46785 48.031688,16.00219 -47.979632,2.99996 L -13.46875,253 c 24.123126,1.62043 117.88568,-7.80469 139.05272,-9.44914 117.99663,29.41249 248.71569,84.33875 352.62253,130.75 -122.66857,4.81863 -376.58976,53.73396 -493.92525,43.88664 l -1.59375,42.90625 c 187.10372,9.90106 430.15056,-44.23928 593.25233,-50.01592 73.12001,30.19458 120.49037,35.85851 171.44434,43.49999 -267.98261,91.75303 -466.54983,68.57571 -767.54042,56.14093 l -0.5625,57.6875 c 471.69272,11.1264 672.42464,-1.72782 880.0625,-111.75 119.46795,-37.61017 279.62395,-76.26877 392.25005,-18.71875 47.9613,-42.20807 93.633,-71.58993 169.6874,-103.21875 -105.6869,-74.82686 -184.044,-98.776 -267.1733,-113.29223 -97.8071,-39.08526 -131.8759,-50.74559 -233.44621,-57.84315 -82.9116,-15.49554 -160.33,-19.61803 -233.34254,-14.84556 L 534.5625,163.59375 C 493.40496,135.13937 479.66018,129.75464 428.49204,102.07898 475.89736,142.783 499.11718,160.63773 500.4191,167.04471 369.53403,137.26663 168.41951,52.281666 22.621483,-10.367036 z M 251,230.5 c 59.72791,-3.27892 118.84875,-8.53642 181,-0.5 50.04897,24.89218 195.04502,102.31082 255.5,122 -40.22822,5.0555 -63.98049,6.36585 -113.5,9 C 461.87421,311.49669 378.00916,270.6327 251,230.5 z m 435.00434,-30.30564 c 82.1995,-4.9122 160.63465,5.25364 224.01813,19.15746 l -104.11078,3.10907 z"
         id="path3570"
         style="fill:#000000;stroke:none;display:inline" />
      <path
         d="m 838.62864,387.74246 c 74.69216,-13.98068 146.38705,-28.1293 228.39546,-24.04163 l 9.5459,5.3033 c -84.44086,-1.90699 -138.7911,8.72867 -237.94136,18.73833 z"
         id="path3572"
         style="fill:#54677f;fill-opacity:1;stroke:none;display:inline" />
      <path
         d="m 756,455.5 9.88909,3.93934 C 517.77879,564.56243 202.42716,533.86728 -21.5,515 165.05678,517.69884 465.74734,567.39657 756,455.5 z"
         id="path3574"
         style="fill:#54677f;fill-opacity:1;stroke:none;display:inline" />
      <path
         d="m 702.28371,351.66098 22.39827,-1.24677 c -87.8347,-26.76106 -264.99041,-124.33649 -423.21751,-189 147.6345,68.6659 328.37992,168.04893 400.81924,190.24677 z"
         id="path3578"
         style="fill:#54677f;fill-opacity:1;stroke:none;display:inline" />
      <path
         d="M 504.16713,172.782 C 391.44787,150.84257 167.59336,59.095167 42.426403,0.95505162 154.25487,69.293852 345.28449,142.95124 515.51637,184.42414 z"
         id="path3580"
         style="fill:#54677f;fill-opacity:1;stroke:none;display:inline" />
      <path
         d="m 1150.5,290 c 60.4022,5.61102 112.5547,14.88228 157.5,35 -49.992,-7.50368 -99.3989,-17.66116 -157.5,-35 z"
         id="path3582"
         style="fill:#54677f;fill-opacity:1;stroke:none;display:inline" />
      <path
         d="M 941.2671,323.94721 C 753.4585,310.87449 607.08633,257.75323 489.23287,214.55279 c 200.12093,57.81 308.25939,88.29472 452.03423,109.39442 z"
         id="path3584"
         style="fill:#54677f;fill-opacity:1;stroke:none;display:inline" />
      <path
         d="m 912.59738,187.08023 c 89.97012,12.90242 143.66802,25.75613 224.30522,61.33954 -88.8093,-25.12033 -134.9273,-38.34311 -224.30522,-61.33954 z"
         id="path3586"
         style="fill:#54677f;fill-opacity:1;stroke:none;display:inline" />
      <path
         d="m 1224,266.5 c 51.5911,3.0593 90.5279,17.69447 135.5,38 -49.3599,-9.07124 -87.7686,-23.75382 -135.5,-38 z"
         id="path3588"
         style="fill:#54677f;fill-opacity:1;stroke:none;display:inline" />
      <path
         d="m 961,266 c -71.11323,-20.61422 -96.43536,-26.1767 -166,-38 49.46794,-0.036 97.34286,-5.529 140.5,-6 -93.0423,-28.79319 -147.74271,-27.32754 -253.5,-27.5 103.92811,-10.03914 181.68691,-8.59815 329.5,45 -24.33358,-3.38749 -47.9089,-8.73042 -60.25,-11.5 -43.35838,0.44653 -71.57583,1.73549 -115.75,2 50.94536,9.33057 77.64859,13.88755 125.5,36 z"
         id="path3590"
         style="fill:#54677f;fill-opacity:1;stroke:none;display:inline" />
      <path
         d="M 869.74134,1086.364 C 833.8728,920.68863 857.4428,797.29283 977.34289,895.16695 c 69.12671,-116.6222 87.34541,-29.6289 284.88581,41.57402 88.044,31.7352 94.6759,82.04763 384.623,150.33013 z"
         id="path3592"
         style="fill:#000000;stroke:none;display:inline" />
      <path
         d="m 1731.8687,751.70271 c 42.966,-58.84999 52.558,-134.12772 49.4221,-192.11293 -4.2681,-78.92128 -41.2025,-142.09954 -101.8033,-182.79672 79.5307,34.97814 92.4242,64.09104 127.7396,125.82387 33.7064,58.92009 56.6032,179.50698 57.0786,239.9527 8.8881,-141.6058 -46.6463,-249.90073 -85.8396,-301.87844 9.0245,3.86868 21.8589,16.07858 35.7216,25.47295 -72.651,-85.54199 -177.3012,-125.31051 -279.766,-140.64708 49.2318,13.29157 96.2336,28.70559 131.945,51.17358 75.7392,47.65164 103.1965,125.28643 105.8336,183.22791 2.7727,60.92239 -3.9412,124.52433 -40.3316,191.78416 z"
         id="path3594"
         style="fill:#54677f;fill-opacity:1;stroke:none" />
      <path
         d="M 4.9999997,157.53553 C 108.21559,196.60496 287.57083,252.82846 401.53107,299.64244 c 107.50887,44.16381 115.7313,46.67907 152.48728,65.12398 3.96507,-0.14658 9.22276,-0.69124 13.66973,-0.92759 C 520.02664,340.71286 519.97319,342.31439 405.87072,294.7796 305.85284,253.11242 138.10052,196.08213 4.9999997,157.53553 z"
         id="path3688"
         style="fill:#54677f;fill-opacity:1;stroke:none" />
    </g>
  </g>
</svg>
