<?xml version="1.0" encoding="UTF-8" standalone="no"?>
<!-- Created with Inkscape (http://www.inkscape.org/) -->

<svg
   xmlns:dc="http://purl.org/dc/elements/1.1/"
   xmlns:cc="http://creativecommons.org/ns#"
   xmlns:rdf="http://www.w3.org/1999/02/22-rdf-syntax-ns#"
   xmlns:svg="http://www.w3.org/2000/svg"
   xmlns="http://www.w3.org/2000/svg"
   version="1.1"
   width="1920"
   height="1080"
   id="svg2">
  <defs
     id="defs4">
    <filter
       color-interpolation-filters="sRGB"
       id="filter4002">
      <feGaussianBlur
         id="feGaussianBlur4004"
         stdDeviation="1.1306803" />
    </filter>
    <filter
       color-interpolation-filters="sRGB"
       id="filter4026">
      <feGaussianBlur
         id="feGaussianBlur4028"
         stdDeviation="0.69921413" />
    </filter>
    <filter
       color-interpolation-filters="sRGB"
       id="filter4106">
      <feGaussianBlur
         id="feGaussianBlur4108"
         stdDeviation="0.90116185" />
    </filter>
    <filter
       x="-0.11075834"
       y="-0.035979878"
       width="1.2215167"
       height="1.0719599"
       color-interpolation-filters="sRGB"
       id="filter4130">
      <feGaussianBlur
         id="feGaussianBlur4132"
         stdDeviation="0.45190817" />
    </filter>
  </defs>
  <metadata
     id="metadata7">
    <rdf:RDF>
      <cc:Work
         rdf:about="">
        <dc:format>image/svg+xml</dc:format>
        <dc:type
           rdf:resource="http://purl.org/dc/dcmitype/StillImage" />
        <dc:title></dc:title>
      </cc:Work>
    </rdf:RDF>
  </metadata>
  <g
     id="layer1"
     style="display:inline">
    <path
       d="M 1497.75,1048.4375 1425,934.25 l -30.7981,5.61653 c 21.4677,40.36114 53.7498,71.57557 103.5481,108.57097 z"
       id="path4193"
       style="fill:#e9ebee;fill-opacity:1;stroke:none" />
    <path
       d="M 1749.4063,932.59375 1736.25,929.75 l -97.25,82 2.625,70.5625 9.25,0 c 6.8364,-18.6701 15.1812,-36.1012 31.25,-47.1875 -0.043,-12.2427 8.6725,-21.2141 19,-29.25 0.6414,-8.93115 13.1967,-24.44409 14.375,-35.625 10.5192,-8.44188 20.8087,-15.67756 33.9063,-37.65625 z"
       id="path4195"
       style="fill:#e9ebee;fill-opacity:1;stroke:none" />
    <path
       d="m 1711.9055,834.45717 -14.3189,2.47487 6.5407,39.42121 10.9602,-3.35876 c -4.7383,-11.53862 -3.7539,-25.62068 -4.5962,-38.89087"
       id="path4197"
       style="fill:#e9ebee;fill-opacity:1;stroke:none" />
    <path
       d="m 1318.0625,588.5625 4.0337,293.55146 c -0.2726,29.36622 -2.8332,54.80928 -11.5102,84.0758 6.9292,35.01534 17.4572,55.15494 18.3942,79.59084 16.2666,5.8374 143.6618,6.1541 163.5315,-0.069 -35.8387,-30.4493 -85.5034,-70.92723 -98.3773,-105.85299 1.242,-1.16497 2.4508,-0.65862 4.5218,-0.57706 28.374,38.43272 63.7958,74.70755 100.75,110.49995 l 49.8438,32.7188 99.1875,-1.0938 c 0.3551,-14.6922 4.2824,-22.0641 6.5313,-32.5312 3.7219,-17.3238 27.4767,-6.1577 23.6874,-31.7188 -8.4512,0.7093 -7.5717,-4.4103 -12.9687,-4.875 -3.338,-0.2871 -3.3653,-3.7907 0.031,-3.3124 12.6157,1.7767 26.4632,-0.967 34.25,-7.0938 l 5.9374,-10.09375 c -6.802,4.37141 -6.5129,-0.69529 -5.5937,-3.71875 2.4669,-8.11388 6.4353,-8.54501 5.75,-23.59375 17.313,-7.70339 30.7145,-26.47884 43.3125,-31.90625 l 3.4375,-5.34375 c -9.3743,-9.99109 -18.428,-20.67844 -26.5313,-32.09375 L 1823.875,798.75 1751,591.5 z m 436.1875,129.0625 10.25,43.875 -20,33 -1.9688,-30.0625 c -13.313,20.08935 -23.5588,42.24759 -28.1562,63.6875 L 1742.5,828 c 0.158,21.2791 -10.433,41.74693 -20.375,41.75 -7.9481,0.003 -11.3771,-10.1202 -8.625,-37.09375 -3.0657,17.25269 -2.3259,33.89766 3.5938,48.46875 -1.9058,-3.15546 -3.7402,-6.3667 -5.4688,-9.625 -8.9347,8.61655 -8.8699,-18.40049 -8.9062,-28.625 0.5795,-6.87346 3.614,-5.99748 6.2812,7.71875 5.31,-29.83431 14.9821,-58.89343 31.125,-86.84375 -3.4785,-9.24748 -2.4663,-19.0563 -2.375,-28.75 z m -208.9688,68.4375 c 32.8654,-0.13716 62.6452,7.2956 87.9688,25.59375 -15.3254,34.70348 -30.8432,34.03122 -52.75,25.46875 -16.7694,-6.55447 -37.5193,-23.38216 -41.8438,-50.9375 2.2183,-0.0753 4.4341,-0.11586 6.625,-0.125 z"
       id="path4174"
       style="fill:#929196;fill-opacity:1;stroke:none" />
    <path
       d="m 1325.7143,877.14286 c 12.5267,15.03743 21.5498,28.48549 37.9976,45.74933 13.4547,14.12218 18.9703,14.34017 38.2445,14.60233 l 2.079,3.3876 -6.9511,-0.0306 c 15.0288,39.60737 64.3307,78.65098 120.6936,123.11658 -48.324,-36.3057 -96.0705,-66.39311 -124.7421,-123.1645 -18.5962,-0.84353 -22.442,-3.8341 -32.3773,-14.89265 -11.2625,-12.53567 -33.728,-34.99104 -39.9442,-43.41092 z"
       id="path2988"
       style="fill:#000000;stroke:none" />
    <path
       d="m 1385.799,882.13837 c 7.8576,-5.17634 8.7582,-1.60172 11.4421,0.4977 2.7828,2.17682 0.6255,4.13038 -0.7625,6.06547 -2.0846,2.90626 -6.5823,2.26682 -11.1582,-1.737 -2.1561,-1.88658 -4.2115,1.41991 -2.4507,2.64271 6.2503,4.34051 12.9205,6.22735 17.1511,0.88895 3.8902,-4.90882 2.8603,-7.26664 -0.4211,-10.35774 -4.6524,-4.38257 -7.5211,-6.71896 -15.7604,-1.20989 -11.9151,7.96685 -20.3203,-2.53213 -25.9822,-7.85715 -1.6914,-1.59076 -4.3226,1.36756 -2.6785,2.67857 5.9971,4.78208 15.2321,18.52569 30.6204,8.38838 z"
       id="path2990"
       style="fill:#000000;stroke:none" />
    <path
       d="m 1749.5842,932.26519 c -12.1719,14.01705 -27.3842,32.30204 -37.2494,37.50191 -0.6484,6.28844 -4.457,17.19291 -6.566,21.2132 -1.7368,3.31095 -8.5944,4.90778 -5.6821,14.6472 -6.4378,3.8462 -12.6725,7.7178 -21.7182,11.238 l 7.7023,1.1364 c -4.119,5.3454 -5.3567,11.3221 -5.682,16.2887 -20.3276,11.2977 -22.7617,30.2971 -32.9563,48.361 l 6.061,0.1263 c 6.7063,-17.0213 12.9669,-35.796 31.1884,-47.3508 -0.6493,-9.7776 6.0732,-19.2572 8.7126,-20.7083 4.8166,-2.4052 8.134,-4.6895 9.4702,-10.6065 2.7578,-12.21285 12.8698,-19.80948 14.1421,-32.7037 15.6476,-11.22718 28.0626,-25.08921 32.5774,-39.14341 z"
       id="path2992"
       style="fill:#000000;stroke:none" />
    <path
       d="m 1669.3104,1014.9459 c -0.3691,1.9928 -5.6818,2.1114 -12.0798,2.7441 -6.5026,0.6431 -12.8863,1.6593 -13.6259,0.051 -0.6845,-1.489 4.6915,-4.4325 12.2583,-5.1549 7.5669,-0.7225 13.7777,0.5766 13.4474,2.3601 z"
       id="path2994"
       style="fill:#000000;stroke:none" />
    <path
       d="m 1745.7961,804.4809 c -2.6383,-18.94357 0.5389,-39.52372 3.1567,-58.84139 -50.092,82.30808 -58.6971,131.95118 4.1669,181.57492 -37.0646,-46.21698 -60.9044,-71.6162 -11.8693,-159.35156 -0.4484,15.32119 1.7389,22.50871 4.5457,36.61803 z"
       id="path3765"
       style="fill:#000000;stroke:none" />
    <path
       d="m 1519.0848,721.58651 c 40.4503,12.3165 128.6012,43.10633 162.7188,62.68126 -28.5556,-25.80235 -115.608,-55.18161 -162.7188,-62.68126 z"
       id="path3767"
       style="fill:#000000;stroke:none" />
    <path
       d="m 1595.5359,779.10081 c 21.6554,3.6954 47.2693,7.70139 65.0286,14.01586 -5.5758,-0.25824 -11.1969,-1.64782 -14.5209,-1.26268 5.1777,3.12056 7.2516,5.53003 10.354,10.10152 -14.0765,-13.40802 -41.8609,-15.75984 -60.8617,-22.8547 z"
       id="path3769"
       style="fill:#000000;stroke:none" />
    <path
       d="m 1560.5071,824.89316 c -9.4829,-9.53517 -19.4302,-19.0858 -18.7618,-34.30186 1.3301,-0.58373 3.0367,-1.03108 5.5432,-1.18873 l 1.26,3.43094 3.8034,-3.5049 c 1.3686,-0.16033 2.4163,2.8e-4 3.5662,0.0586 l 0.9795,5.49719 3.9794,-4.76759 c 1.5921,0.0598 3.2752,0.21058 5.1051,0.50815 l 0.9822,4.375 5.5357,-2.67857 4.1964,2.58928 7.9465,-0.80357 2.6785,2.85715 2.8572,-1.60715 1.6071,3.92857 5.7143,-1.07142 2.7679,3.83928 3.125,-2.41071 5.1785,0.53571 3.3929,4.10714 11.6071,1.60715 -1.0714,2.67857 4.1071,-0.53572 2.3215,2.85715 0.8036,8.92857 c -4.2901,6.99581 -9.0515,13.5984 -17.6786,19.64286 l 4.4642,0.89286 -0.4464,-3.92858 2.3215,-1.96428 3.3928,0.80357 -0.5357,-3.75 c 3.5455,-3.92097 5.7487,-7.31218 8.3928,-11.16071 l 1.9643,0.35714 0,-4.64286 c 1.7761,-1.08187 3.2877,-2.08125 5.8929,-3.66072 -3.7724,-2.40329 -6.527,-4.23529 -10.5357,-6.875 l 0,-3.92857 c 4.0554,0.22539 10.3213,1.45555 16.9643,2.85715 -24.7315,-13.68834 -77.7913,-26.09776 -121.25,-25.71429 l 8.8739,7.5731 -0.379,5.54305 4.5085,0.69693 -1.2193,4.17812 3.0879,2.15371 2.6706,4.64325 -2.2747,2.71184 7.4999,0.17857 2.8572,4.91071 -3.0357,3.75 5.4464,-0.71428 2.9465,3.66071 -3.4822,1.96429 5.625,0.0893 1.9643,2.23214 -1.7858,2.32142 z"
       id="path3771"
       style="fill:#000000;fill-opacity:1;stroke:none" />
    <path
       d="m 1724.3304,795.13698 c 14.5771,-6.25275 27.7611,-10.18368 41.4162,-14.89975 -14.0729,7.19332 -22.4009,11.39931 -43.9416,22.4759 z"
       id="path3773"
       style="fill:#000000;stroke:none" />
    <path
       d="m 1718.9008,810.163 c 31.2241,0.39877 45.5411,-0.88388 68.6904,-1.13642 -22.0119,2.58904 -41.3529,6.63973 -70.4581,5.55584 z"
       id="path3775"
       style="fill:#000000;stroke:none" />
    <path
       d="m 1716.3502,820.03724 c 26.4587,1.80772 52.1419,3.92566 75.2564,7.07107 -22.2862,2.1415 -49.873,6.44426 -77.4787,4.59619 z"
       id="path3777"
       style="fill:#000000;stroke:none" />
  </g>
</svg>
