<?xml version="1.0" encoding="UTF-8" standalone="no"?>
<!-- Created with Inkscape (http://www.inkscape.org/) -->

<svg
   xmlns:dc="http://purl.org/dc/elements/1.1/"
   xmlns:cc="http://creativecommons.org/ns#"
   xmlns:rdf="http://www.w3.org/1999/02/22-rdf-syntax-ns#"
   xmlns:svg="http://www.w3.org/2000/svg"
   xmlns="http://www.w3.org/2000/svg"
   version="1.1"
   width="1920"
   height="1080"
   id="svg2">
  <defs
     id="defs4" />
  <metadata
     id="metadata7">
    <rdf:RDF>
      <cc:Work
         rdf:about="">
        <dc:format>image/svg+xml</dc:format>
        <dc:type
           rdf:resource="http://purl.org/dc/dcmitype/StillImage" />
        <dc:title></dc:title>
      </cc:Work>
    </rdf:RDF>
  </metadata>
  <g
     id="layer4"
     style="display:inline">
    <g
       id="g3193"
       style="display:inline">
      <path
         d="m 1207.5,478.21429 c 55.3163,-65.85983 134.1567,-168.18271 313.0125,-152.67332 81.6003,-7.77882 150.3153,35.73485 193.4161,55.53046 20.0958,8.22587 38.4142,18.23335 53.5714,34.64286 173.4861,145.48271 96.3131,352.10882 46.7409,428.44021 -17.7184,26.62898 -33.24,62.76585 -66.6447,77.88466 -1.8068,-2.10831 -3.1593,-3.76229 -4.2603,-5.16485 2.564,-7.31385 3.9142,-19.37502 4.364,-28.31014 -1.9422,5.60917 -6.4555,17.39477 -10.2413,23.69957 -5.6807,-5.64575 -9.3454,-12.05469 -11.2952,-16.63357 2.9185,-73.32514 16.6102,-95.3238 21.1413,-109.29617 -4.6632,-5.47534 -4.8252,-13.7698 -5.2512,-20.17893 -21.436,46.53682 -62.5767,99.36336 -94.9026,146.32134 25.6615,-65.66856 27.881,-151.93973 43.9181,-197.86531 -12.2012,27.9335 -23.2163,59.09887 -33.0745,73.51148 -3.9604,-20.72226 -4.4883,-43.6548 -5.0858,-57.71051 -8.3693,12.51807 -17.2995,24.97074 -27.2124,38.25483 1.1258,-21.75722 10.6359,-38.17077 17.6968,-50.78109 -2.599,-25.17669 -7.8526,-48.01354 -13.122,-61.56913 -6.7133,14.92814 -21.4656,37.7907 -32.3669,51.51683 -26.6461,63.05938 -72.7003,88.16359 -103.057,130.00959 -1.5222,-23.60726 -3.6227,-39.26918 -2.4366,-68.60363 -5.5444,15.21094 -14.4385,30.54428 -22.6975,42.8125 0.5195,15.95799 -3.3775,25.2956 -7.5766,48.89827 -6.2176,-6.01535 -8.3959,-8.83172 -11.2188,-18.62316 -21.4384,54.81046 -31.7788,60.96028 -61.2463,106.91161 6.0963,-35.53219 28.1337,-67.84342 33.6881,-91.2661 -46.994,91.69322 -94.448,108.92405 -147.6452,154.88451 -13.076,-39.61632 14.7725,-93.68748 26.043,-109.82678 -25.1676,20.32778 -56.6834,48.73815 -84.3059,52.08867 5.8876,-24.9586 27.5539,-76.71464 38.0159,-105.58458 -2.1014,-1.27278 -7.4819,-7.1256 -8.1122,-9.90752 -13.891,6.54971 -42.0979,18.2607 -64.046,20.81058 16.08,-18.38352 29.1803,-28.54564 40.6114,-37.41747 -8.3355,-0.77129 -12.3989,-3.27881 -20.1848,-7.1171 4.6869,-2.4956 20.9999,-9.47475 25.6303,-15.29533 -31.7992,7.20126 -87.284,3.35883 -105.166,-1.4883 20.9463,-25.24478 41.5501,-48.46856 63.2142,-69.78355 -31.8933,-97.66907 -2.4504,-183.69998 20.0858,-251.12143 z"
         id="path3195"
         style="fill:#000000;stroke:none" />
      <path
         d="m 535.90625,-48.8125 c 6.51445,31.318567 47.08539,85.16424 75.5,124.21875 C 504.85392,29.579797 459.47145,14.965235 373.0625,-12.40625 l -383,3.46875 0.1875,33.65625 C 31.167699,14.287644 43.346897,7.0724332 89.25,6.5625 118.68826,32.949911 109.1,23.383912 148.03125,55.9375 63.064869,45.038337 68.555102,49.506633 -10.90625,34.125 L -11,67.15625 C 78.485592,90.917513 113.05424,87.169277 245.6875,125.8125 391.77311,218.02245 482.16994,250.26104 638.625,289.15625 394.75065,321.57173 199.32455,229.97681 -16.53125,117.875 l 0.96875,76.9375 c 289.46868,148.24629 377.70531,155.28357 621.03125,200 -27.43661,5.79644 -72.71375,9.11876 -99.90625,14.84375 84.8568,13.97895 124.94237,3.75065 153.21875,-5.3125 17.31249,1.29703 24.02179,2.72543 43.28125,5.40625 -201.81462,70.68594 -393.21713,119.61688 -715.34375,15.96875 l 0.125,105.75 c 55.554214,1.46406 99.521647,3.46991 154.59375,0.9375 136.29376,25.71131 299.66829,71.35451 758.3125,-111.34375 63.21435,3.42536 118.758,-5.03662 182.1562,-22.59375 49.9412,5.71152 113.4682,14.75207 177.4688,42.09375 47.9613,-39.18676 96.4456,-68.78721 172.5,-95.625 -67.6529,-61.46646 -166.1105,-107.95798 -281.8125,-104.25 C 953.75234,191.69914 860.7584,101.87205 654.78125,81.5625 600.3958,33.880084 566.6792,-19.969345 535.90625,-48.8125 z M 127.125,7.5625 c 99.97899,0.5387891 380.82004,79.338176 499.5,155.65625 C 556.58146,160.49663 299.97969,89.968223 251.4375,77.4375 207.25159,51.76641 155.56071,27.752077 122.5,7.59375 c 1.49447,-0.0312 3.03803,-0.039802 4.625,-0.03125 z m 555.34375,101.90625 c 30.20436,1.19868 161.02833,46.87483 219,78.90625 -26.01823,-3.25272 -73.86299,-9.77439 -91.71875,-10.96875 -29.09692,-9.68609 -114.11554,-53.07658 -127.28125,-67.9375 z m 144.75,226.46875 c 9.07304,2.17716 19.35007,4.92312 31.78125,8.9375 -4.93923,-0.67158 -67.60364,-2.08637 -74.875,-1.75 7.78585,-1.64996 30.03855,-5.18961 43.09375,-7.1875 z M 732.25,348.5 c -3.23368,1.91871 -6.65912,3.81344 -11.75,5.5 -5.64963,-0.21685 -7.96073,-1.61304 -10.4375,-3.59375 7.71222,-1.76282 13.90805,-1.56173 22.1875,-1.90625 z"
         id="path3197"
         style="fill:#000000;stroke:none;display:inline" />
      <path
         d="m 951.3734,391.86713 c 21.9487,-18.05507 33.57858,-23.69663 52.8669,-31.39452 4.3001,-0.64546 7.2632,-0.13345 12.1964,-0.0853 -17.4195,6.92969 -36.35068,17.99487 -65.0633,31.47978 z"
         id="path3200"
         style="fill:#54677f;fill-opacity:1;stroke:none;display:inline" />
      <path
         d="m 706.68011,412.53671 12.72102,-0.0548 C 374.0529,546.85766 162.9216,499.99749 -58.262861,417.13897 140.72206,473.41462 323.43551,551.8778 706.68011,412.53673 z"
         id="path3202"
         style="fill:#54677f;fill-opacity:1;stroke:none;display:inline" />
      <path
         d="M 504.72874,321.28771 C 340.29953,292.23626 215.47149,273.52108 81.11775,216.3726 c 110.33866,54.92181 234.60322,76.45948 422.58213,111.14245 59.85878,11.04422 137.09996,27.55369 194.43308,32.62669 -24.78025,8.41049 -43.0238,18.30672 -67.48011,26.18845 39.65855,-6.18501 68.75329,-21.98667 93.19508,-29.0571 C 690.97477,353.71123 538.63019,327.383 504.72874,321.28771 z m 339.89803,16.79532 c 0.67461,-1.98272 1.22521,-2.67499 1.45077,-4.18535 -80.0991,-24.29097 -231.03265,-53.71725 -331.8841,-84.46952 81.45024,31.14351 170.18435,45.85211 330.43333,88.65487 z"
         id="path3206"
         style="fill:#54677f;fill-opacity:1;stroke:none;display:inline" />
      <path
         d="M 634.29559,92.74689 C 437.09123,9.1347207 363.74403,-9.4403977 235.406,-68.249643 329.95957,4.0821715 532.65498,44.053976 663.80622,125.07411 z"
         id="path3208"
         style="fill:#54677f;fill-opacity:1;stroke:none;display:inline" />
      <path
         d="m 1147.8861,280.46447 c 64.0477,8.15895 103.7298,21.70635 148.0459,45.98528 -43.1686,-15.91231 -98.3412,-33.00373 -148.0459,-45.98528 z"
         id="path3210"
         style="fill:#54677f;fill-opacity:1;stroke:none;display:inline" />
      <path
         d="m 833.94417,260.93109 c -21.01182,-8.75392 -29.45831,-10.49514 -46.84577,-17.75333 -31.26889,-1.73739 -82.43685,-7.7324 -135.6937,-19.59502 19.63016,0.17758 114.12104,11.06291 131.58043,12.49301 -24.28319,-16.22976 -34.06464,-22.02342 -74.23855,-55.00431 61.1437,45.68981 112.80322,63.04529 158.24606,77.58237 z m -11.11057,7.6066 c 47.8313,9.13074 83.23931,14.44375 117.75308,23.01472 -6.65678,1.47077 -12.67151,2.91858 -17.03714,4.09325 -16.7745,-6.35971 -44.49966,-9.64839 -100.71594,-27.10797 z M 610.07738,215.33031 C 492.86837,187.48427 370.13643,145.63453 317.84835,116.31282 c 30.97373,15.11627 221.5387,80.70558 292.22903,99.01749 z"
         id="path3212"
         style="fill:#54677f;fill-opacity:1;stroke:none;display:inline" />
      <path
         d="m 1151.25,248.25 c 61.9523,8.40239 161.7962,33.42139 225.5355,61.66421 C 1323.7667,294.0914 1201.8276,260.2294 1151.25,248.25 z"
         id="path3214"
         style="fill:#54677f;fill-opacity:1;stroke:none;display:inline" />
      <path
         d="m 1002.3397,243.24097 c -17.15637,-13.46534 -25.80183,-17.1492 -60.04776,-36.16362 50.78682,21.61492 81.98166,35.43491 101.77176,48.63711 -45.66471,12.19302 -101.6426,7.83137 -165.10229,5.53465 36.36405,-4.98613 80.70161,-10.93356 105.17979,-12.54541 -44.37172,-6.96342 -63.53137,-14.43166 -115.17274,-29.45164 52.44161,9.50197 86.95055,16.28797 133.37124,23.98891 z"
         id="path3216"
         style="fill:#54677f;fill-opacity:1;stroke:none;display:inline" />
      <path
         d="m 859.02382,1084.4497 c -27.71646,-141.15856 -2.29701,-228.02826 95.78708,-154.64286 4.18309,0.19774 14.80816,2.31579 19.32487,4.41215 50.96983,-116.34403 92.70103,-59.14036 245.02003,-18.92346 92.1917,24.34144 120.6924,95.42197 415.2713,170.92197 z"
         id="path3218"
         style="fill:#000000;stroke:none;display:inline" />
      <path
         d="m 1741.4146,750.64205 c 42.966,-58.84999 44.0727,-132.7135 40.9368,-190.69871 -4.2681,-78.92128 -42.2631,-142.4531 -102.8639,-183.15028 79.5307,34.97814 92.3444,63.67426 125.6183,126.53098 31.9386,60.3343 52.371,181.65343 44.361,247.04889 20.6522,-58.42086 23.4773,-119.02573 12.2358,-178.81172 0.2304,22.86329 2.5323,83.59659 -1.2235,108.66136 -8.1448,-106.47157 -52.0827,-199.83815 -82.013,-239.53138 12.9136,9.87909 28.1414,30.44685 46.2467,50.44782 -48.3373,-97.33488 -201.3263,-159.28538 -290.2911,-165.62195 49.2318,13.29157 96.2336,28.70559 131.945,51.17358 75.7392,47.65164 108.8534,121.0438 110.4298,184.64213 1.5112,60.96673 4.1905,114.62483 -35.3819,189.30928 z"
         id="path3220"
         style="fill:#54677f;fill-opacity:1;stroke:none" />
      <path
         d="m 194.79497,12.886292 c 104.49102,11.597337 389.90165,104.679758 433.9172,150.875788 -38.81734,3.95399 -207.92721,-36.25043 -224.55361,-38.16792 94.31947,26.51923 192.50312,55.2668 264.7469,47.06437 C 598.44959,109.85765 285.5178,-1.717103 194.79497,12.886292 z"
         id="path3222"
         style="fill:#54677f;fill-opacity:1;stroke:none" />
      <path
         d="M 936.85494,203.94495 C 901.66333,186.38996 847.74044,186.04084 804.5068,180.50472 762.35542,164.01835 753.4204,156.0717 696.31731,127.8231 c 20.83151,18.51975 128.07208,73.97362 169.34819,88.57453 -10.80154,-6.56078 -40.50155,-23.78338 -55.53307,-28.46828 33.66879,1.58286 76.12441,7.9438 126.72251,16.0156 z"
         id="path3224"
         style="fill:#54677f;fill-opacity:1;stroke:none" />
      <path
         d="m 849.63443,266.41927 c 29.18525,0.48879 65.29182,3.06868 117.07837,12.46043 -23.45504,13.15029 -48.33743,-4.34681 -117.07837,-12.46043 z"
         id="path3226"
         style="fill:#54677f;fill-opacity:1;stroke:none" />
    </g>
  </g>
</svg>
