<?xml version="1.0" encoding="UTF-8" standalone="no"?>
<!-- Created with Inkscape (http://www.inkscape.org/) -->

<svg
   xmlns:dc="http://purl.org/dc/elements/1.1/"
   xmlns:cc="http://creativecommons.org/ns#"
   xmlns:rdf="http://www.w3.org/1999/02/22-rdf-syntax-ns#"
   xmlns:svg="http://www.w3.org/2000/svg"
   xmlns="http://www.w3.org/2000/svg"
   version="1.1"
   width="1920"
   height="1080"
   id="svg2">
  <defs
     id="defs4" />
  <metadata
     id="metadata7">
    <rdf:RDF>
      <cc:Work
         rdf:about="">
        <dc:format>image/svg+xml</dc:format>
        <dc:type
           rdf:resource="http://purl.org/dc/dcmitype/StillImage" />
        <dc:title></dc:title>
      </cc:Work>
    </rdf:RDF>
  </metadata>
  <g
     id="layer4"
     style="display:inline">
    <g
       id="g3396"
       style="display:inline">
      <path
         d="m 1207.5,478.21429 c 55.3163,-65.85983 134.1567,-168.18271 313.0125,-152.67332 81.6003,-7.77882 150.3153,35.73485 193.4161,55.53046 20.0958,8.22587 38.4142,18.23335 53.5714,34.64286 173.4861,145.48271 106.0631,357.60882 52.4909,442.44021 -10.7663,23.00818 -4.1961,51.36736 -22.3298,69.6447 -3.0555,-23.44238 -18.572,-52.56306 -24.4774,-74.32 -3.2769,14.50002 -13.3601,48.04997 -23.1002,61.09245 -1.4728,-7.55206 -1.005,-15.18356 -1.927,-22.6279 -3.71,4.72528 -9.9169,11.00999 -14.5866,14.13281 -3.5594,-3.70121 -4.8099,-5.60495 -6.4061,-8.94639 4.418,-72.62546 21.6488,-120.36991 26.2271,-134.31394 -5.1632,-6.22534 -7.3252,-21.24467 -6.7512,-30.1538 -28.936,46.28682 -116.6625,107.58823 -140.7133,115.13936 44.9856,-39.3947 77.4166,-103.47222 79.3397,-149.01912 -13.7012,25.6835 -26.4308,44.9806 -40.2032,59.42874 -0.1853,-20.2149 -1.8345,-33.67561 -4.364,-49.04198 -5.9802,8.12898 -12.0139,15.91008 -21.2448,23.80508 5.3935,-16.23945 10.4036,-24.50656 16.361,-38.49556 -2.599,-25.17669 -2.6456,-38.48841 -5.7936,-52.75111 -52.4165,96.18213 -125.638,153.76758 -164.3546,189.59229 -0.278,10.43189 0.057,20.59203 -3.5692,29.95334 -10.0926,-8.39035 -15.8049,-34.16383 -17.8778,-46.20527 -20.9259,51.33558 -48.5607,98.10609 -70.4874,138.3347 3.7124,-47.22673 16.7623,-67.7273 28.8774,-96.68031 -17.925,32.50438 -30.2378,49.08396 -56.7085,70.44454 -1.2516,31.52606 -27.0025,39.11752 -62.6867,65.93997 -5.3354,-6.48278 -0.5454,-2.73569 -3.3712,-9.14831 7.7255,-18.55942 16.4266,-38.37319 19.712,-51.22383 -12.9272,9.08146 -55.9595,47.51811 -66.2636,56.47647 -0.9254,-27.28144 34.672,-89.23244 44.4658,-100.43111 -29.1676,23.32778 -76.4334,46.98815 -108.8059,53.83867 23.8508,-27.53068 51.7426,-77.76255 64.1537,-104.4921 -14.141,5.29971 -28.5247,11.79103 -51.9728,15.59091 15.83,-16.13352 34.6071,-34.32597 46.0382,-43.1978 -2.2624,-4.12021 -3.6783,-6.60269 -5.7463,-8.9464 -4.8838,-0.94558 -10.2675,-2.88711 -13.1885,-4.6707 -16.3628,1.98786 -54.5426,5.14334 -83.6607,-2.28363 19.1963,-26.24478 41.2609,-46.51145 62.925,-67.82644 -4.0686,-5.90779 -9.2285,-29.94508 -9.0812,-38.8523 -4.201,0.13859 -16.6049,1.70545 -24.0636,1.13996 6.7664,-5.12333 21.5913,-11.51663 22.4572,-13.36448 -9.3397,-97.77306 12.5693,-133.85593 30.6876,-197.50167 z"
         id="path3398"
         style="fill:#000000;stroke:none" />
      <path
         d="m 505.3125,-29.3125 -23.28125,0.375 C 507.0009,0.60612928 599.64774,44.191583 634.09375,74.875 608.58321,71.266556 551.93243,64.591755 529.21875,62.28125 463.80546,33.297324 358.25871,11.567432 298.40625,-3.625 L -9.9375,-7.53125 l 0.75,104.6875 c 48.176195,5.30111 81.486147,3.19314 143.84375,12.5625 19.30639,10.5244 30.85603,15.54163 44.375,23.53125 C 80.467341,114.75378 27.864028,110.44939 -9.09375,108.65625 L -9.1875,148.875 C 295.81359,204.64469 580.20477,299.65716 896,316.75 c 8.00894,2.45828 21.52308,5.77686 32.25,8.46875 -77.82286,19.12805 -96.90656,9.24724 -178.1875,26.46875 C 630.61567,349.37575 552.60556,336.03202 479.25,335.125 393.14235,334.0603 275.84536,349.92302 200.09375,344.5 104.9167,337.68632 38.259398,334.45635 -10.75,338.03125 L -9.8125,357.75 c 444.68469,69.50731 244.2003,19.50643 619.28125,46.5625 -31.43661,6.29644 -77.71375,23.86876 -104.65625,33.59375 96.1068,-6.77105 130.69237,-19.87435 160.71875,-28.1875 l 10.5625,0.0625 c -152.54938,43.76744 -309.46656,68.89914 -682.78125,10.625 l -2.21875,90.90625 c 53.432893,0.0498 89.263679,-5.89345 145.75,-7.71875 108.7435,6.84735 303.70817,93.87043 799.34375,-96.40625 54.4717,-5.11538 81.9093,-8.52374 130.2813,-18.65625 46.5268,8.80251 128.9056,24.68957 192.9062,52.03125 47.9613,-39.18676 96.4456,-68.78721 172.5,-95.625 C 1362.4543,282.41038 1253.4012,231.89741 1143.4062,234.3125 956.59616,183.82414 895.15301,94.752569 692.46875,80.125 582.89091,10.14969 539.25702,-0.71934477 505.3125,-29.3125 z M 163.84375,49.59375 C 296.90566,48.587142 454.85003,99.487545 576.4375,156.15625 443.65323,136.83036 240.42338,62.847119 93.03125,66.84375 88.09839,64.115048 82.23412,62.097062 76.4375,59.15625 c 27.30502,-6.327151 56.69966,-9.330206 87.40625,-9.5625 z M 585.4974,84.53033 c 9.38821,-0.07546 21.82217,2.171095 27.19714,4.941942 -12.82365,1.616748 -20.47651,0.561972 -27.19714,-4.941942 z m 76.4401,10.90717 c 5.09028,0.02248 7.09848,3.569824 10,6.09375 -8.97977,0.0995 -13.61368,-1.859527 -16.28125,-4.75 2.52962,-0.944345 4.58449,-1.351243 6.28125,-1.34375 z m 79.90625,15.71875 c 27.70436,6.44868 46.04978,12.21766 78.375,26.71875 C 786.0562,126.30156 768.58291,123.37682 750.6875,118.90625 z M 659.5,122.5 c 19.47027,5.17859 36.1719,9.07934 63.75,18 16.116,10.79972 34.21968,22.45129 55,35.25 L 762,174.5 c -37.09374,-16.91518 -69.9967,-34.42904 -102.5,-52 z"
         id="path3400"
         style="fill:#000000;stroke:none;display:inline" />
      <path
         d="m 685.973,410.53671 16.78688,0.65231 C 430.93171,500.46155 180.71716,465.99208 -79.323521,413.01765 155.16586,443.14438 385.36621,501.62091 685.973,410.53673 z"
         id="path3402"
         style="fill:#54677f;fill-opacity:1;stroke:none;display:inline" />
      <path
         d="m 99.027653,341.62996 c 323.253687,42.4787 203.468177,-17.00704 612.015207,19.51914 -18.78025,7.91049 -55.5238,25.80672 -78.98011,35.18845 41.15855,-12.18501 85.64238,-31.04733 105.08417,-40.11776 C 302.03277,315.77301 417.06077,374.8787 99.027653,341.62996 z M 894.91283,314.06222 c 0.67461,-1.98272 1.22521,-2.67499 1.45077,-4.18535 -80.0991,-24.29097 -236.23976,-55.04568 -336.3841,-83.32308 81.45024,31.14351 174.68435,44.70567 334.93333,87.50843 z"
         id="path3404"
         style="fill:#54677f;fill-opacity:1;stroke:none;display:inline" />
      <path
         d="M 656.923,125.2738 C 496.67677,42.966796 336.63964,3.2736688 219.14253,-13.095314 486.62208,36.491845 656.06279,144.68637 746.22936,183.94038 c 21.96907,0.50891 38.04922,1.77018 48.59579,3.32196 9.09734,4.47452 59.01511,30.946 83.82311,41.35411 -21.71527,-12.73915 -51.52338,-30.39623 -94.37608,-50.26877 -9.63055,0.44856 -20.29711,-1.1415 -27.64486,-1.66709 C 711.8988,158.85215 675.76036,134.49066 656.923,125.2738 z"
         id="path3406"
         style="fill:#54677f;fill-opacity:1;stroke:none;display:inline" />
      <path
         d="m 1198.1147,291.35724 c 33.0577,5.37882 63.7862,17.41219 102.4209,34.48528 -44.8023,-15.40361 -78.6018,-18.74312 -102.4209,-34.48528 z"
         id="path3408"
         style="fill:#54677f;fill-opacity:1;stroke:none;display:inline" />
      <path
         d="M 140.375,46.25 C 276.21483,37.11929 466.84063,97.847341 587.53125,159.40625 397.99918,133.07111 247.6757,118.88866 167.1875,96.75 240.37888,126.56254 453.44243,145.66153 631.75,171.8125 532.30888,109.34897 290.07231,11.624462 140.375,46.25 z"
         id="path3410"
         style="fill:#54677f;fill-opacity:1;stroke:none;display:inline" />
      <path
         d="m 1159.6213,245.9948 c 58.8684,11.36167 142.3934,36.6933 210.0481,61.57842 -53.6809,-13.61595 -160.2215,-47.09572 -210.0481,-61.57842 z"
         id="path3412"
         style="fill:#54677f;fill-opacity:1;stroke:none;display:inline" />
      <path
         d="m 866.29159,1084.9497 c -40.2284,-155.48065 11.15857,-213.88113 108.00839,-160.79137 52.44472,-139.19022 78.16902,-74.92832 241.17382,-17.60544 86.7928,30.52189 142.2445,104.77121 418.9533,179.66461 z"
         id="path3416"
         style="fill:#000000;stroke:none;display:inline" />
      <path
         d="m 1731.5151,749.58139 c 40.8447,-59.91065 51.8509,-130.23863 48.715,-188.22384 -4.2681,-78.92128 -40.4954,-145.63508 -100.7426,-184.56449 79.5307,34.97814 91.764,63.98492 125.6183,126.53098 32.6943,60.403 60.823,182.42179 44.361,247.04889 24.5334,-56.48028 28.1979,-111.89244 13.2965,-173.50842 2.2376,24.46908 10.7873,80.9375 0.1907,100.52963 -0.631,-92.51732 -55.2647,-200.54525 -85.195,-240.23848 12.9136,9.87909 28.8485,33.98238 46.9538,53.98335 -44.0467,-95.61866 -201.2728,-159.26397 -290.2911,-165.62195 49.2318,13.29157 96.2336,28.70559 131.945,51.17358 75.7392,47.65164 106.3785,123.51867 107.9549,187.117 1.5112,60.96673 -3.2341,111.0893 -42.8065,185.77375 z"
         id="path3418"
         style="fill:#54677f;fill-opacity:1;stroke:none" />
      <path
         d="m 1019.7081,232.8527 c -9.8334,-5.45585 -76.5456,-37.08379 -83.18884,-41.80699 -21.94901,-0.29992 -31.24777,0.0207 -44.78522,-1.18157 -40.38401,-14.9364 -100.23875,-45.1468 -125.36543,-57.90751 20.89916,16.88974 181.89197,93.23289 255.33599,106.45662 -23.43215,-7.59995 -81.8844,-27.82795 -103.0738,-36.39505 8.86595,-0.007 13.7219,-1.27276 32.62195,0.24646 9.07064,5.11047 66.42195,30.39081 68.45535,30.58804 z"
         id="path3420"
         style="fill:#54677f;fill-opacity:1;stroke:none" />
      <path
         d="m 873.25162,242.58159 c 127.07058,-12.13834 284.04438,-2.91146 367.34478,89.30344 -116.1401,-91.00369 -216.284,-80.38701 -277.12532,-86.22123 19.93214,8.55207 33.365,7.85883 48.69022,15.69796 -28.55892,1.82215 -110.01664,-14.44334 -138.90968,-18.78017 z"
         id="path3426"
         style="fill:#54677f;fill-opacity:1;stroke:none" />
    </g>
  </g>
</svg>
