<?xml version="1.0" encoding="UTF-8" standalone="no"?>
<!-- Created with Inkscape (http://www.inkscape.org/) -->

<svg
   xmlns:dc="http://purl.org/dc/elements/1.1/"
   xmlns:cc="http://creativecommons.org/ns#"
   xmlns:rdf="http://www.w3.org/1999/02/22-rdf-syntax-ns#"
   xmlns:svg="http://www.w3.org/2000/svg"
   xmlns="http://www.w3.org/2000/svg"
   version="1.1"
   width="1920"
   height="1080"
   id="svg2">
  <defs
     id="defs4">
    <filter
       color-interpolation-filters="sRGB"
       id="filter4002">
      <feGaussianBlur
         stdDeviation="1.1306803"
         id="feGaussianBlur4004" />
    </filter>
    <filter
       color-interpolation-filters="sRGB"
       id="filter4026">
      <feGaussianBlur
         stdDeviation="0.69921413"
         id="feGaussianBlur4028" />
    </filter>
    <filter
       color-interpolation-filters="sRGB"
       id="filter4106">
      <feGaussianBlur
         stdDeviation="0.90116185"
         id="feGaussianBlur4108" />
    </filter>
    <filter
       x="-0.11075834"
       y="-0.035979878"
       width="1.2215167"
       height="1.0719599"
       color-interpolation-filters="sRGB"
       id="filter4130">
      <feGaussianBlur
         stdDeviation="0.45190817"
         id="feGaussianBlur4132" />
    </filter>
    <filter
       color-interpolation-filters="sRGB"
       id="filter4386">
      <feGaussianBlur
         stdDeviation="6.4296876"
         id="feGaussianBlur4388" />
    </filter>
    <filter
       color-interpolation-filters="sRGB"
       id="filter4414">
      <feGaussianBlur
         stdDeviation="6.5901486"
         id="feGaussianBlur4416" />
    </filter>
    <filter
       color-interpolation-filters="sRGB"
       id="filter4430">
      <feGaussianBlur
         stdDeviation="6.1438628"
         id="feGaussianBlur4432" />
    </filter>
    <filter
       color-interpolation-filters="sRGB"
       id="filter4446">
      <feGaussianBlur
         stdDeviation="6.399302"
         id="feGaussianBlur4448" />
    </filter>
    <filter
       color-interpolation-filters="sRGB"
       id="filter4465">
      <feGaussianBlur
         stdDeviation="6.6398305"
         id="feGaussianBlur4467" />
    </filter>
    <filter
       color-interpolation-filters="sRGB"
       id="filter4485">
      <feGaussianBlur
         stdDeviation="6.8573812"
         id="feGaussianBlur4487" />
    </filter>
    <filter
       color-interpolation-filters="sRGB"
       id="filter4501">
      <feGaussianBlur
         stdDeviation="7.0277588"
         id="feGaussianBlur4503" />
    </filter>
    <filter
       color-interpolation-filters="sRGB"
       id="filter4517">
      <feGaussianBlur
         stdDeviation="6.9008854"
         id="feGaussianBlur4519" />
    </filter>
    <filter
       color-interpolation-filters="sRGB"
       id="filter4529">
      <feGaussianBlur
         stdDeviation="6.4781189"
         id="feGaussianBlur4531" />
    </filter>
    <filter
       x="-0.065660752"
       y="-0.26668334"
       width="1.1313215"
       height="1.5333667"
       color-interpolation-filters="sRGB"
       id="filter4870">
      <feGaussianBlur
         id="feGaussianBlur4872"
         stdDeviation="20.42836" />
    </filter>
    <filter
       x="-0.24414144"
       y="-0.72225159"
       width="1.4882829"
       height="2.4445033"
       color-interpolation-filters="sRGB"
       id="filter4874">
      <feGaussianBlur
         id="feGaussianBlur4876"
         stdDeviation="20.42836" />
    </filter>
    <filter
       x="-0.087545656"
       y="-0.39395544"
       width="1.1750913"
       height="1.7879109"
       color-interpolation-filters="sRGB"
       id="filter4878">
      <feGaussianBlur
         id="feGaussianBlur4880"
         stdDeviation="20.42836" />
    </filter>
    <filter
       x="-0.24762912"
       y="-0.82543039"
       width="1.4952582"
       height="2.6508608"
       color-interpolation-filters="sRGB"
       id="filter4882">
      <feGaussianBlur
         id="feGaussianBlur4884"
         stdDeviation="20.42836" />
    </filter>
    <filter
       x="-0.24075052"
       y="-0.75365376"
       width="1.481501"
       height="2.5073075"
       color-interpolation-filters="sRGB"
       id="filter4886">
      <feGaussianBlur
         id="feGaussianBlur4888"
         stdDeviation="20.42836" />
    </filter>
    <filter
       x="-0.074716546"
       y="-0.30405"
       width="1.1494331"
       height="1.6081001"
       color-interpolation-filters="sRGB"
       id="filter4890">
      <feGaussianBlur
         id="feGaussianBlur4892"
         stdDeviation="20.42836" />
    </filter>
  </defs>
  <metadata
     id="metadata7">
    <rdf:RDF>
      <cc:Work
         rdf:about="">
        <dc:format>image/svg+xml</dc:format>
        <dc:type
           rdf:resource="http://purl.org/dc/dcmitype/StillImage" />
        <dc:title></dc:title>
      </cc:Work>
    </rdf:RDF>
  </metadata>
  <g
     id="g4002"
     style="display:inline">
    <rect
       width="158.39192"
       height="108.54089"
       x="1504.7233"
       y="759.6806"
       id="rect4004"
       style="fill:#e9ebee;fill-opacity:1;stroke:none;display:inline" />
    <path
       d="m 1624.3405,811.78574 c 0,17.38777 -14.0956,31.48336 -31.4834,31.48336 -17.3877,0 -31.4833,-14.09559 -31.4833,-31.48336 0,-17.38778 14.0956,-31.48335 31.4833,-31.48335 17.3878,0 31.4834,14.09557 31.4834,31.48335 z"
       id="path4008"
       style="fill:#8b68d6;fill-opacity:1;stroke:none" />
    <path
       d="m 1569.7372,804.25613 c -2.419,18.60775 3.5469,30.30883 16.621,35.56098 13.9519,5.60488 29.7284,-2.88791 34.6632,-18.73448 0.2575,-0.71057 -0.097,-1.62505 -0.733,-1.88843 -0.6356,-0.26339 -1.4256,0.17658 -1.6315,0.90855 -4.4809,14.38894 -18.3576,21.9287 -31.0262,16.83937 -11.8662,-4.76701 -16.841,-18.29766 -14.6124,-32.08642 0.6281,-1.94261 -2.7504,-2.72538 -3.2811,-0.59957 z"
       id="path4010"
       style="font-size:medium;font-style:normal;font-variant:normal;font-weight:normal;font-stretch:normal;text-indent:0;text-align:start;text-decoration:none;line-height:normal;letter-spacing:normal;word-spacing:normal;text-transform:none;direction:ltr;block-progression:tb;writing-mode:lr-tb;text-anchor:start;baseline-shift:baseline;color:#000000;fill:#e7a7f7;fill-opacity:1;stroke:none;stroke-width:2.46340752;marker:none;visibility:visible;display:inline;overflow:visible;filter:url(#filter4002);enable-background:accumulate;font-family:Sans;-inkscape-font-specification:Sans" />
    <path
       d="m 1583.4538,801.57428 c -0.97,2.72525 -0.9593,4.27122 -1.2928,7.25598 -1.9259,17.2381 5.7941,25.73099 15.2648,27.6216 l 0.021,0.002 c 9.6714,1.24375 18.7374,-10.41935 19.97,-23.81654 -0.1677,-2.41409 -3.1753,-1.98678 -3.3705,-0.32461 -2.0734,12.01514 -7.7804,21.70577 -16.3496,20.60374 -8.5693,-1.10202 -13.1859,-11.87413 -12.3119,-23.13166 0.2054,-2.64606 0.4169,-4.91876 1.2742,-7.32706 0.7583,-2.81667 -2.3459,-3.33736 -3.2052,-0.88345 z"
       id="path4012"
       style="font-size:medium;font-style:normal;font-variant:normal;font-weight:normal;font-stretch:normal;text-indent:0;text-align:start;text-decoration:none;line-height:normal;letter-spacing:normal;word-spacing:normal;text-transform:none;direction:ltr;block-progression:tb;writing-mode:lr-tb;text-anchor:start;baseline-shift:baseline;color:#000000;fill:#e7a7f7;fill-opacity:1;stroke:none;stroke-width:3.08737087;marker:none;visibility:visible;display:inline;overflow:visible;filter:url(#filter4106);enable-background:accumulate;font-family:Sans;-inkscape-font-specification:Sans" />
    <path
       d="m 1622.5575,868.87811 c 0,8.36838 -2.1482,15.15229 -4.7982,15.15229 -2.65,0 -4.7982,-6.78391 -4.7982,-15.15229 0,-8.36838 2.1482,-15.15229 4.7982,-15.15229 2.65,0 4.7982,6.78391 4.7982,15.15229 z"
       transform="matrix(1.3094374,0.17144889,-0.1003315,0.80988993,-428.92992,-168.3703)"
       id="path4014"
       style="fill:#000000;fill-opacity:1;stroke:none;filter:url(#filter4130)" />
    <path
       d="m 1566.4941,828.72455 35.229,-15.15229 -30.9359,20.70813 z"
       id="path4016"
       style="fill:#dbecf4;fill-opacity:1;stroke:none;filter:url(#filter4026)" />
    <path
       d="m 1711.9536,828.1367 c -5.0228,16.1715 -2.8353,34.07767 4.886,39.99456 7.7213,5.91688 18.0524,-2.39615 23.0752,-18.56764 5.0228,-16.1715 2.8353,-34.07767 -4.886,-39.99455 -7.7213,-5.91688 -18.0524,2.39613 -23.0752,18.56763 z"
       id="path4020"
       style="fill:#8b68d6;fill-opacity:1;stroke:none" />
    <path
       d="m 1569.7372,804.25613 c -2.419,18.60775 3.5469,30.30883 16.621,35.56098 13.9519,5.60488 29.7284,-2.88791 34.6632,-18.73448 0.2575,-0.71057 -0.097,-1.62505 -0.733,-1.88843 -0.6356,-0.26339 -1.4256,0.17658 -1.6315,0.90855 -4.4809,14.38894 -19.3354,23.03784 -32.004,17.94851 -11.8662,-4.76701 -15.8632,-19.4068 -13.6346,-33.19556 0.6281,-1.94261 -2.7504,-2.72538 -3.2811,-0.59957 z"
       transform="matrix(-0.52460588,-0.28135514,-0.14371832,1.0270129,2677.4364,448.43809)"
       id="path4022"
       style="font-size:medium;font-style:normal;font-variant:normal;font-weight:normal;font-stretch:normal;text-indent:0;text-align:start;text-decoration:none;line-height:normal;letter-spacing:normal;word-spacing:normal;text-transform:none;direction:ltr;block-progression:tb;writing-mode:lr-tb;text-anchor:start;baseline-shift:baseline;color:#000000;fill:#e7a7f7;fill-opacity:1;stroke:none;stroke-width:2.46340752;marker:none;visibility:visible;display:inline;overflow:visible;filter:url(#filter4002);enable-background:accumulate;font-family:Sans;-inkscape-font-specification:Sans" />
    <path
       d="m 1622.5575,868.87811 c 0,8.36838 -2.1482,15.15229 -4.7982,15.15229 -2.65,0 -4.7982,-6.78391 -4.7982,-15.15229 0,-8.36838 2.1482,-15.15229 4.7982,-15.15229 2.65,0 4.7982,6.78391 4.7982,15.15229 z"
       transform="matrix(-1.1354958,-0.20476215,-0.10174689,0.91555399,3650.8434,377.23298)"
       id="path4024"
       style="fill:#000000;fill-opacity:1;stroke:none;filter:url(#filter4130)" />
    <path
       d="m 1566.4941,828.72455 22.6493,1.92997 -21.6714,4.36727 z"
       transform="matrix(0.73844419,-0.26421921,0.20230036,0.96446265,382.70713,465.81642)"
       id="path4026"
       style="fill:#dbecf4;fill-opacity:1;stroke:none;filter:url(#filter4026)" />
    <rect
       width="63.146111"
       height="142.69949"
       x="1608.0757"
       y="945.82831"
       transform="matrix(0.98987757,-0.14192394,0.14192394,0.98987757,0,0)"
       id="rect4028"
       style="fill:#e9ebee;fill-opacity:1;stroke:none;display:inline" />
    <path
       d="m 1622.5575,868.87811 c 0,8.36838 -2.1482,15.15229 -4.7982,15.15229 -2.65,0 -4.7982,-6.78391 -4.7982,-15.15229 0,-8.36838 2.1482,-15.15229 4.7982,-15.15229 2.65,0 4.7982,6.78391 4.7982,15.15229 z"
       transform="matrix(0.55667508,0.07288728,-0.04265347,0.34430476,738.74311,395.61543)"
       id="path4811"
       style="fill:#a20a44;fill-opacity:1;stroke:none;filter:url(#filter4130)" />
    <path
       d="m 1622.5575,868.87811 c 0,8.36838 -2.1482,15.15229 -4.7982,15.15229 -2.65,0 -4.7982,-6.78391 -4.7982,-15.15229 0,-8.36838 2.1482,-15.15229 4.7982,-15.15229 2.65,0 4.7982,6.78391 4.7982,15.15229 z"
       transform="matrix(-0.5261272,-0.09487568,-0.04714399,0.42421809,2617.5884,626.37413)"
       id="path4813"
       style="fill:#a20a44;fill-opacity:1;stroke:none;filter:url(#filter4130)" />
  </g>
</svg>
