<?xml version="1.0" encoding="UTF-8" standalone="no"?>
<!-- Created with Inkscape (http://www.inkscape.org/) -->

<svg
   xmlns:dc="http://purl.org/dc/elements/1.1/"
   xmlns:cc="http://creativecommons.org/ns#"
   xmlns:rdf="http://www.w3.org/1999/02/22-rdf-syntax-ns#"
   xmlns:svg="http://www.w3.org/2000/svg"
   xmlns="http://www.w3.org/2000/svg"
   version="1.1"
   width="1920"
   height="1080"
   id="svg2">
  <defs
     id="defs4">
    <filter
       color-interpolation-filters="sRGB"
       id="filter4446">
      <feGaussianBlur
         stdDeviation="6.399302"
         id="feGaussianBlur4448" />
    </filter>
    <filter
       color-interpolation-filters="sRGB"
       id="filter4465">
      <feGaussianBlur
         stdDeviation="6.6398305"
         id="feGaussianBlur4467" />
    </filter>
    <filter
       color-interpolation-filters="sRGB"
       id="filter4485">
      <feGaussianBlur
         stdDeviation="6.8573812"
         id="feGaussianBlur4487" />
    </filter>
    <filter
       color-interpolation-filters="sRGB"
       id="filter4501">
      <feGaussianBlur
         stdDeviation="7.0277588"
         id="feGaussianBlur4503" />
    </filter>
    <filter
       color-interpolation-filters="sRGB"
       id="filter4517">
      <feGaussianBlur
         stdDeviation="6.9008854"
         id="feGaussianBlur4519" />
    </filter>
    <filter
       color-interpolation-filters="sRGB"
       id="filter4529">
      <feGaussianBlur
         stdDeviation="6.4781189"
         id="feGaussianBlur4531" />
    </filter>
  </defs>
  <metadata
     id="metadata7">
    <rdf:RDF>
      <cc:Work
         rdf:about="">
        <dc:format>image/svg+xml</dc:format>
        <dc:type
           rdf:resource="http://purl.org/dc/dcmitype/StillImage" />
        <dc:title></dc:title>
      </cc:Work>
    </rdf:RDF>
  </metadata>
  <g
     id="g4815"
     style="display:inline">
    <g
       id="g4833"
       style="display:inline">
      <path
         d="m 1307.1875,498.9375 c -6.0381,-0.0481 -11.7146,0.14694 -16.9375,0.5625 6.6465,4.71664 12.5663,9.10937 20.3125,12.9375 29.7851,0.88478 118.5512,9.18142 170.4375,29.53125 -24.1666,-21.47666 -115.4437,-42.56592 -173.8125,-43.03125 z m 201.125,51.71875 c 18.6416,20.62489 36.857,37.66135 44.1803,51.97439 -11.6475,-9.80711 -34.2738,-24.37601 -53.1519,-31.20661 97.1384,80.36696 14.8762,49.89797 -21.4616,62.22612 -33.8432,11.48184 -115.0169,66.28411 -136.1035,110.10721 -7.9919,16.60915 29.901,50.34365 54.1011,51.51653 41.015,1.98784 115.4685,-14.86289 163.6261,1.5 29.4486,10.00596 101.878,29.86569 113.9848,40.10051 27.3453,23.11713 75.2627,59.21209 109.3634,25.63724 15.3686,-15.13171 15.1459,-50.72475 -32.8358,-73.62928 -33.7228,-16.09782 17.0915,-45.20007 -241.7029,-238.22611 z m -224.507,31.07598 c 13.7223,10.053 33.6661,37.91982 42.7677,28.19455 8.4222,-8.99923 -26.3661,-18.58824 -42.7677,-28.19455 z"
         id="path4835"
         style="fill:#e900f4;fill-opacity:0.88235294;stroke:none;filter:url(#filter4465)" />
    </g>
  </g>
</svg>
