<?xml version="1.0" encoding="UTF-8" standalone="no"?>
<!-- Created with Inkscape (http://www.inkscape.org/) -->

<svg
   xmlns:dc="http://purl.org/dc/elements/1.1/"
   xmlns:cc="http://creativecommons.org/ns#"
   xmlns:rdf="http://www.w3.org/1999/02/22-rdf-syntax-ns#"
   xmlns:svg="http://www.w3.org/2000/svg"
   xmlns="http://www.w3.org/2000/svg"
   xmlns:xlink="http://www.w3.org/1999/xlink"
   version="1.1"
   width="1920"
   height="1080"
   id="svg2">
  <defs
     id="defs4">
    <linearGradient
       id="linearGradient4060">
      <stop
         id="stop4062"
         style="stop-color:#325262;stop-opacity:1"
         offset="0" />
      <stop
         id="stop4064"
         style="stop-color:#387683;stop-opacity:1"
         offset="1" />
    </linearGradient>
    <linearGradient
       id="linearGradient4183">
      <stop
         id="stop4185"
         style="stop-color:#054e77;stop-opacity:1"
         offset="0" />
      <stop
         id="stop4187"
         style="stop-color:#1c787d;stop-opacity:1"
         offset="1" />
    </linearGradient>
    <linearGradient
       id="linearGradient4173">
      <stop
         id="stop4175"
         style="stop-color:#256178;stop-opacity:1"
         offset="0" />
      <stop
         id="stop4177"
         style="stop-color:#367b7e;stop-opacity:1"
         offset="1" />
    </linearGradient>
    <linearGradient
       id="linearGradient4163">
      <stop
         id="stop4165"
         style="stop-color:#316178;stop-opacity:1"
         offset="0" />
      <stop
         id="stop4167"
         style="stop-color:#417d7d;stop-opacity:1"
         offset="1" />
    </linearGradient>
    <linearGradient
       id="linearGradient4155">
      <stop
         id="stop4157"
         style="stop-color:#206779;stop-opacity:1"
         offset="0" />
      <stop
         id="stop4159"
         style="stop-color:#307e7d;stop-opacity:1"
         offset="1" />
    </linearGradient>
    <filter
       x="-0.12000485"
       y="-0.12000485"
       width="1.2400097"
       height="1.2400097"
       color-interpolation-filters="sRGB"
       id="filter4092">
      <feGaussianBlur
         stdDeviation="0.61609634"
         id="feGaussianBlur4094" />
    </filter>
    <filter
       x="-0.14825192"
       y="-0.099283658"
       width="1.2965038"
       height="1.1985673"
       color-interpolation-filters="sRGB"
       id="filter4132">
      <feGaussianBlur
         stdDeviation="0.75569112"
         id="feGaussianBlur4134" />
    </filter>
    <linearGradient
       x1="445.5"
       y1="1080"
       x2="376.65625"
       y2="0"
       id="linearGradient4161"
       xlink:href="#linearGradient4155"
       gradientUnits="userSpaceOnUse"
       gradientTransform="translate(141.42136,-8.4852815)" />
    <linearGradient
       x1="128.23045"
       y1="1077.1716"
       x2="171.1127"
       y2="7.1054274e-014"
       id="linearGradient4169"
       xlink:href="#linearGradient4163"
       gradientUnits="userSpaceOnUse"
       gradientTransform="translate(141.42136,-8.4852815)" />
    <linearGradient
       x1="1920"
       y1="1080"
       x2="399.3082"
       y2="0"
       id="linearGradient4189"
       xlink:href="#linearGradient4183"
       gradientUnits="userSpaceOnUse" />
    <linearGradient
       x1="120.62237"
       y1="638.76538"
       x2="-206.47551"
       y2="638.76538"
       id="linearGradient4066"
       xlink:href="#linearGradient4060"
       gradientUnits="userSpaceOnUse"
       gradientTransform="translate(141.42136,-8.4852815)" />
    <linearGradient
       x1="314.00507"
       y1="1080"
       x2="272.66104"
       y2="0"
       id="linearGradient4109"
       xlink:href="#linearGradient4173"
       gradientUnits="userSpaceOnUse"
       gradientTransform="translate(141.42136,-8.4852815)" />
  </defs>
  <metadata
     id="metadata7">
    <rdf:RDF>
      <cc:Work
         rdf:about="">
        <dc:format>image/svg+xml</dc:format>
        <dc:type
           rdf:resource="http://purl.org/dc/dcmitype/StillImage" />
        <dc:title></dc:title>
      </cc:Work>
    </rdf:RDF>
  </metadata>
  <path
     d="m 882.50001,734.5 c 5.9807,35.58801 -9.74883,48.90109 -11.58579,67.31802 -1.46235,14.66126 23.92289,63.37482 44.58579,56.68198 63.95869,-20.71662 105.07079,-1.2688 154.13599,-22.17157 23.2201,-9.89221 57.2406,-24.27442 68.9184,-39.39117 10.2182,-13.22741 6.5754,-26.22189 6.1956,-55.43726 l -9.25,-50 z"
     id="path4281"
     style="fill:#5a83ba;fill-opacity:1;stroke:#091125;stroke-width:2;stroke-linecap:butt;stroke-linejoin:miter;stroke-miterlimit:4;stroke-opacity:1;stroke-dasharray:none" />
  <path
     d="m 1134.7188,692.65625 -251.12505,42.6875 c 2.74332,17.38103 0.37782,29.59165 -3,39.5625 -3.44686,10.17467 -7.79464,18.04835 -8.6875,27 -0.3318,3.32657 0.90676,9.08253 3.375,15.53125 2.46824,6.44872 6.13964,13.66667 10.46875,20.1875 3.62303,5.45728 7.70178,10.42112 11.9375,14.09375 0.48628,-24.79776 -0.37393,-53.61783 21.5625,-87.78125 l 155.5625,-28.3125 c 20.8091,17.92344 41.5925,35.83613 48.5313,73.125 6.131,-4.07853 11.1884,-8.27206 14.4062,-12.4375 4.9771,-6.44284 6.56,-12.67986 6.875,-21.125 0.3148,-8.43826 -0.6834,-19.02751 -0.875,-33.65625 l 0,-0.0312 -9.0312,-48.84375 z"
     id="path4287"
     style="fill:#204073;fill-opacity:1;stroke:none" />
  <path
     d="m 1004.7188,293.9375 c 5.6523,11.88447 5.6389,27.57391 -10.0313,41.28125 -3.74118,17.78107 -12.46953,34.68591 -29.8125,50.1875 -0.0207,5.32152 1.496,16.03923 2.59375,21.5 7.54671,0.31108 12.62752,-0.57574 23.32675,-1.31526 0.46577,0.58463 0.14498,-0.36929 0.61075,0.25276 5.36068,7.7137 17.65925,30.31218 15.74995,40.5 -5.9223,38.45494 -6.6675,66.88059 -0.6562,96.15625 9.6103,46.80311 27.5496,133.57434 35,175 l -22.5,14 c 24.8333,8.16667 55.8467,29.7235 74.5,24.5 12.3604,-11.46753 23.8064,-25.6571 34.2812,-42.78125 -2.9937,21.97521 17.5096,14.21254 18.2188,52.78125 10.5673,-0.68929 54.4336,2.38128 55,-43.5 0.552,-44.71599 0.1955,-87.84219 -3,-126 -2.7095,-32.35459 -7.3189,-63.58257 -24,-93.5 -18.8541,-33.81471 -63.2612,-51.62843 -102,-73 -1.9693,-15.54768 25.9753,-43.14508 17.5,-58 -30.3033,-25.10703 -54.0774,-58.2753 -84.7812,-78.0625 z m -202.50005,55.5 C 790.99158,359.2664 780.15173,369.11356 769.5,379 c -5.25506,26.42172 -5.48633,47.81966 -7,70.5 2.05479,35.53884 18.02611,38.60574 31.5,47.5 l 0.5,46.5 c -29.17782,52.69517 -28.87507,82.85522 -36.5,123 -7.4923,39.4465 -19.05144,57.4174 -16,100.5 l 47.5,61 c 16.9144,-17.94659 19.68006,-36.66217 20.5,-56 0.9941,-23.44524 5.15514,-52.47516 35,-58.5 27.98762,-5.64991 36.66586,45.58792 48.75,52.75 C 904.26941,767.14268 944.58333,742.08333 970,730 949.73888,705.57336 925.08729,675.88054 910.75,658.5625 912.88701,615.88774 913.80617,573.44748 888.5,536 884.35303,516.43727 875.49396,494.08213 865,473.25 c -2.6356,-14.09625 -0.84708,-26.5194 2.9375,-39.3125 1.61324,-0.8632 2.03228,-0.95648 3.6875,-1.8125 6.33395,-3.87313 15.53405,-6.88843 25.65625,-12 -0.12519,-1.00489 -0.56115,-6.8831 -0.6875,-7.78125 -9.22185,-2.37849 -19.30474,-7.0112 -31.65625,-13.4375 -14.62157,-7.60737 -25.62885,-18.64402 -34.15625,-31.8125 -12.66592,-1.09593 -25.30865,-5.07498 -28.5625,-17.65625 z"
     id="path4182"
     style="fill:#7ca5ce;fill-opacity:1;stroke:#091125;stroke-width:2;stroke-linecap:butt;stroke-linejoin:miter;stroke-miterlimit:4;stroke-opacity:1;stroke-dasharray:none" />
  <path
     d="m 1006.9062,296.71875 c 4.2955,11.6805 3.0255,26.2846 -11.31245,39 -3.78532,17.73272 -12.5673,34.63421 -29.71875,50.09375 -0.0166,4.92868 1.03547,15.31569 1.94102,20.26133 9.59553,0.0379 15.627,-0.56603 22.46523,-1.32388 0.48004,0.60255 1.47268,-0.12078 1.9375,0.5 l 0,0.0312 c 0.0627,0.0849 0.12465,0.16532 0.1875,0.25 -0.45573,-12.69685 9.85365,-8.43765 15.09375,-11.03125 7.6654,-3.79395 7.4221,-19.08031 20,-14 7.6899,-22.0321 21.3304,-13.31486 33.6875,-5.8125 10.5823,6.42479 20.476,8.0186 25.1563,17.46875 0.2588,-0.57591 0.5103,-1.15026 0.75,-1.71875 0.022,-0.0531 0.04,-0.10322 0.062,-0.15625 0.241,-0.57538 0.4699,-1.15258 0.6876,-1.71875 0.017,-0.0435 0.046,-0.0815 0.062,-0.125 0.096,-0.25069 0.1595,-0.50135 0.25,-0.75 0.1291,-0.35439 0.2572,-0.71256 0.375,-1.0625 0.2007,-0.59546 0.3974,-1.16888 0.5626,-1.75 1.347,-4.74297 1.4473,-8.90399 -0.4376,-12.28125 -0.9302,-0.77272 -1.8629,-1.55712 -2.7812,-2.34375 -0.8883,-0.7611 -1.7785,-1.53946 -2.6562,-2.3125 -0.033,-0.0292 -0.061,-0.0646 -0.094,-0.0937 -1.7596,-1.55127 -3.4972,-3.12626 -5.2188,-4.71875 -0.06,-0.0551 -0.1279,-0.10106 -0.1874,-0.15625 -1.0226,-0.94728 -2.0206,-1.91577 -3.0313,-2.875 -0.7485,-0.7099 -1.5074,-1.40947 -2.25,-2.125 -1.7455,-1.68182 -3.4701,-3.3878 -5.1875,-5.09375 -1.5811,-1.57209 -3.1567,-3.13405 -4.7188,-4.71875 -0.1344,-0.13627 -0.2718,-0.26992 -0.4062,-0.40625 -0.4289,-0.43573 -0.8535,-0.87624 -1.2812,-1.3125 -1.2641,-1.2876 -2.5256,-2.58556 -3.7813,-3.875 -16.3774,-16.81791 -32.1536,-33.60748 -50.1563,-45.84375 z m -205.0937,54.4375 c -10.74933,9.4328 -21.17944,18.85459 -31.40625,28.34375 -4.51792,22.86097 -5.25196,41.98641 -6.375,61.53125 -0.16043,2.79212 -0.34347,5.5845 -0.53125,8.40625 6.7e-4,0.0115 -6.7e-4,0.0197 0,0.0312 -0.002,0.0313 0.002,0.0623 0,0.0937 0.0522,0.88594 0.11818,1.74897 0.1875,2.59375 0.0553,0.67408 0.12162,1.32015 0.1875,1.96875 0.0362,0.3566 0.0544,0.71344 0.0937,1.0625 0.0343,0.30419 0.0884,0.60772 0.125,0.90625 0.10395,0.84823 0.22142,1.69633 0.34375,2.5 0.0843,0.55179 0.18848,1.09358 0.28125,1.625 0.0594,0.34116 0.0934,0.69831 0.15625,1.03125 0.008,0.0408 0.0235,0.0843 0.0312,0.125 0.0325,0.17046 0.0604,0.33167 0.0937,0.5 0.102,0.51363 0.20244,1.00587 0.3125,1.5 0.0273,0.12306 0.0659,0.25313 0.0937,0.375 0.12037,0.52523 0.24567,1.05895 0.375,1.5625 0.16044,0.62468 0.32627,1.22002 0.5,1.8125 0.13957,0.47689 0.28963,0.94948 0.4375,1.40625 0.0716,0.22086 0.14523,0.43998 0.21875,0.65625 0.27287,0.80268 0.54587,1.57057 0.84375,2.3125 0.0745,0.18545 0.14279,0.38069 0.21875,0.5625 0.0264,0.0632 0.0672,0.12476 0.0937,0.1875 0.22776,0.53746 0.47823,1.0561 0.71875,1.5625 0.11602,0.24469 0.22485,0.48103 0.34375,0.71875 0.10405,0.20793 0.20631,0.42228 0.3125,0.625 0.0978,0.18662 0.18164,0.3802 0.28125,0.5625 0.098,0.17951 0.21281,0.35583 0.3125,0.53125 0.19738,0.34667 0.38997,0.70007 0.59375,1.03125 0.0398,0.0646 0.085,0.12344 0.125,0.1875 0.25138,0.40253 0.5208,0.80691 0.78125,1.1875 -1.23323,-16.01212 26.5793,-56.79975 50.59375,-37.15625 4.30546,10.70501 9.81844,20.01766 16,28.59375 -14.24767,-33.54013 21.21532,-71.01664 29.125,-36.9375 l 0.1875,-0.0937 c 1.6108,-0.8619 2.06644,-0.99701 3.59375,-1.78125 0.006,-0.005 0.0251,0.005 0.0312,0 7.14008,-4.01994 15.72828,-6.67206 25.28125,-11.5937 -0.0681,-0.54581 -0.6196,-6.08474 -0.6875,-6.59375 -9.17612,-2.45844 -19.12856,-7.02216 -31.21875,-13.3125 -14.63597,-7.61486 -25.68503,-18.64855 -34.25,-31.75 -6.25162,-0.57593 -12.51484,-1.83012 -17.71875,-4.5625 -4.90226,-2.57399 -8.75876,-6.59589 -10.6875,-12.3125 z"
     id="path4239"
     style="fill:#173859;fill-opacity:1;stroke:none" />
  <path
     d="m 802.91976,392.6922 c -10.64255,-11.1445 -20.09837,-23.98434 -16.97057,-54.80077 -7.64329,15.84735 -12.40168,33.90859 -20.50609,50.91169 -0.7658,-30.7376 -1.78341,-60.87716 -7.77818,-79.19596 -15.27512,8.81652 -25.21675,12.70698 -35.0698,17.30634 18.44003,-18.76654 33.32282,-55.16663 46.02996,-87.30992 -15.8383,9.55945 -30.23324,20.21676 -50.41905,25.56676 20.90258,-17.9271 68.79208,-37.39703 49.79398,-112.67035 -8.31194,-32.93315 34.44989,-44.18347 52,-42.5 10.15356,-6.78453 13.82593,-22.550238 20.61969,-34.694565 8.47431,9.247964 6.54843,17.550457 8.38031,26.194565 23.5,-8.077097 47,-8.77625 70.5,-7.499998 6.05677,-10.940478 15.73885,-15.51129 27.5,-19.000001 l 3,-34 c 19.0795,5.629706 16.04848,24.265598 20.5,38.500001 20.98013,-10.036864 32.66019,-25.963779 80.06069,-19.267768 -19.5046,12.233916 -40.6479,24.832007 -52.06069,35.267768 4.18949,7.448758 15.27279,10.396708 28.24999,11.249998 16.5737,-20.770738 37.6716,-27.417949 60.75,-34.249999 -47.3832,46.440949 -24.5425,89.440169 -62.5,109.999999 6.8782,1.28789 14.0949,1.56047 21.9142,0.0251 -6.3739,6.80899 -16.8281,14.49318 -27.9142,18.47487 19.9917,19.78548 45.796,36.67071 61.6213,74.88909 -16.028,-18.6912 -35.3729,-40.61492 -61.6213,-51.88909 19.6038,25.98744 30.1698,54.75387 39.5,83.5 -10.8069,-13.28317 -20.3239,-22.17901 -26.4393,-24.17157 1.908,22.31035 14.131,38.17386 22.9393,56.17157 -9.5515,-5.92727 -19.3293,-11.77911 -25,-19 -2.7463,9.93287 -6.589,21.23621 -12,34.5 -1.2206,-15.07843 -2.7989,-29.20305 -6,-39 -6.1909,-14.06721 -11.6195,-27.06725 -14.49999,-36.5 -7.96381,19.98838 -13.34457,41.52659 -18,63.5 0.28761,-21.50322 -0.82849,-42.15734 2.5,-65.5 -20.97513,-16.27271 -34.68517,-37.89865 -43,-63.5 -1.32535,20.05423 0.34995,39.60834 3,59 -13.38161,-15.97989 -22.61815,-33.68688 -28,-53 -29.18461,30.29857 -33.5942,65.78261 -34.5,102 -10.43183,-18.85568 -9.75189,-42.71165 -7,-67.5 -22.1355,21.51077 -45.96581,48.18824 -53.25,62.5 -2.8724,-9.20622 21.76675,-44.01368 36.75,-67.5 -13.643,10.8305 -25.80832,19.44016 -48.5,35.5 -2.77484,23.03992 -2.22447,42.62523 -1,57 -4.41998,-4.63237 -5.25611,-7.72881 -6.5,-11 -0.20391,15.84042 1.1368,37.87903 2.91975,61.69224 z"
     id="path4341"
     style="fill:#4374a3;fill-opacity:1;stroke:#091125;stroke-width:2;stroke-linecap:butt;stroke-linejoin:miter;stroke-miterlimit:4;stroke-opacity:1;stroke-dasharray:none" />
  <path
     d="m 795,497.40625 0.5,46.09375 0,0.25 -0.125,0.25 c -18.15335,32.78496 -24.83018,56.74371 -29.15625,79.90625 5.9821,-10.48082 9.66572,-21.75252 23.28125,-29.6875 5.11402,7.78389 1.16074,41.96 1.75,62.9375 5.03928,26.31509 27.50783,39.95182 41.9375,59.4375 3.38846,-1.79015 7.23246,-3.17577 11.625,-4.0625 5.13966,-1.03755 9.62554,-0.50377 13.53125,1.1875 -30.88601,-39.29601 -9.63775,-58.5084 -32.75,-97.09375 -7.49263,-12.50876 -17.74479,-42.77807 -25.96875,-61.59375 -4.0869,-30.84427 17.99425,-47.04482 28.03125,-51.90625 -9.07742,-2.12338 -19.36249,-3.99873 -32.65625,-5.71875 z"
     id="path4229"
     style="fill:#173859;fill-opacity:1;stroke:none" />
  <path
     d="m 1072.0938,431.15625 c -2.157,14.52392 -16.357,27.79222 -31.6563,40.28125 25.2286,-4.89289 52.8462,-6.57238 52.7813,13.15625 l -0.1876,62.875 c -0.068,20.62188 18.3442,38.88488 26.4063,67.03125 5.1158,17.86047 7.2828,38.43038 8.0625,55.5 5.3923,-35.04668 17.3695,-52.0901 21.5,-68 0.4236,-28.0198 -4.4365,-41.56349 -4,-65 17.9748,4.09737 33.5071,13.0643 47.75,24.625 -3.449,-19.89461 -9.1172,-39.27929 -19.625,-58.125 -18.5141,-33.20485 -62.3483,-51.06334 -101.0312,-72.34375 z"
     id="path4253"
     style="fill:#173859;fill-opacity:1;stroke:none" />
  <path
     d="m 1058.8708,667.48341 c -0.6158,-13.76745 -1.9844,-27.20325 -3.4239,-40.92539 15.9741,-21.81801 28.6333,-38.08504 36.0531,-43.05802 2.4569,10.3278 -18.5322,69.87684 -32.6292,83.98341 z"
     id="path4216"
     style="fill:#173859;fill-opacity:1;stroke:none" />
  <path
     d="m 888.50001,535.75 c -36.23147,-20.6852 -36.0297,-31.05364 -94.75,-38.50001"
     id="path4184"
     style="fill:none;stroke:#091125;stroke-width:2;stroke-linecap:butt;stroke-linejoin:miter;stroke-miterlimit:4;stroke-opacity:1;stroke-dasharray:none" />
  <path
     d="m 1002.4571,506.29288 c 21.6078,-26.49677 67.2288,-49.31961 69.7929,-76.54289"
     id="path4186"
     style="fill:none;stroke:#091125;stroke-width:2;stroke-linecap:butt;stroke-linejoin:miter;stroke-miterlimit:4;stroke-opacity:1;stroke-dasharray:none" />
  <path
     d="m 862.85962,534.11356 c -2.1411,9.38843 -3.86188,20.45983 -0.0599,28.41425 31.23351,33.9811 34.0978,62.12154 47.93241,96.18299"
     id="path4188"
     style="fill:none;stroke:#091125;stroke-width:2;stroke-linecap:butt;stroke-linejoin:miter;stroke-miterlimit:4;stroke-opacity:1;stroke-dasharray:none" />
  <path
     d="m 793.75001,514.49999 65,59.50001"
     id="path4190"
     style="fill:none;stroke:#091125;stroke-width:2;stroke-linecap:butt;stroke-linejoin:miter;stroke-miterlimit:4;stroke-opacity:1;stroke-dasharray:none" />
  <path
     d="m 818.00001,367.49999 c -13.1035,67.96557 15.46124,99.47142 44,131.00001"
     id="path4192"
     style="fill:none;stroke:#091125;stroke-width:2;stroke-linecap:butt;stroke-linejoin:miter;stroke-miterlimit:4;stroke-opacity:1;stroke-dasharray:none" />
  <path
     d="m 1029.5,367.99999 c -3.206,23.24043 -6.5501,46.49238 -20.8122,70.65415"
     id="path4194"
     style="fill:none;stroke:#091125;stroke-width:2;stroke-linecap:butt;stroke-linejoin:miter;stroke-miterlimit:4;stroke-opacity:1;stroke-dasharray:none" />
  <path
     d="m 989.75001,373.74999 1.25,31.5"
     id="path4196"
     style="fill:none;stroke:#091125;stroke-width:2;stroke-linecap:butt;stroke-linejoin:miter;stroke-miterlimit:4;stroke-opacity:1;stroke-dasharray:none" />
  <path
     d="m 990.75001,391.24999 -15.25,-6.25"
     id="path4198"
     style="fill:none;stroke:#091125;stroke-width:2;stroke-linecap:butt;stroke-linejoin:miter;stroke-miterlimit:4;stroke-opacity:1;stroke-dasharray:none" />
  <path
     d="m 870.44846,433.7044 0,-19.79899"
     id="path4200"
     style="fill:none;stroke:#091125;stroke-width:2;stroke-linecap:butt;stroke-linejoin:miter;stroke-miterlimit:4;stroke-opacity:1;stroke-dasharray:none" />
  <path
     d="m 1069,442.99999 c 14.3317,4.09434 24.282,26.4672 24.2322,41.59619 l -0.2071,62.86829 c -0.068,20.62188 18.3431,38.88739 26.4053,67.03372 9.0803,31.7012 8.8605,71.91417 8.0514,99.9276"
     id="path4202"
     style="fill:none;stroke:#091125;stroke-width:2;stroke-linecap:butt;stroke-linejoin:miter;stroke-miterlimit:4;stroke-opacity:1;stroke-dasharray:none" />
  <path
     d="m 1063.4886,492.04071 c 7.4507,-9.38618 12.9559,-18.38324 24.7487,-28.63783"
     id="path4204"
     style="fill:none;stroke:#091125;stroke-width:2;stroke-linecap:butt;stroke-linejoin:miter;stroke-miterlimit:4;stroke-opacity:1;stroke-dasharray:none" />
  <path
     d="m 1058.5389,701.69787 c 4.6818,-66.31708 -17.1203,-115.76383 -2.8285,-205.06097"
     id="path4206"
     style="fill:none;stroke:#091125;stroke-width:2;stroke-linecap:butt;stroke-linejoin:miter;stroke-miterlimit:4;stroke-opacity:1;stroke-dasharray:none" />
  <path
     d="m 1061.5,535.5 c -1.4361,9.5552 -4.5969,19.1104 -10.7393,28.6656"
     id="path4208"
     style="fill:none;stroke:#091125;stroke-width:2;stroke-linecap:butt;stroke-linejoin:miter;stroke-miterlimit:4;stroke-opacity:1;stroke-dasharray:none" />
  <path
     d="m 794.50001,544.5 c 8.66179,15.00481 21.93845,56.84171 31.09553,72.12923 23.65109,39.48493 0.75401,58.67834 34.90447,99.87077"
     id="path4212"
     style="fill:none;stroke:#091125;stroke-width:2;stroke-linecap:butt;stroke-linejoin:miter;stroke-miterlimit:4;stroke-opacity:1;stroke-dasharray:none" />
  <path
     d="m 745.00001,721.25 c 19.67786,28.81094 37.59433,55.89467 62.5,74.25"
     id="path4214"
     style="fill:none;stroke:#091125;stroke-width:2;stroke-linecap:butt;stroke-linejoin:miter;stroke-miterlimit:4;stroke-opacity:1;stroke-dasharray:none" />
  <path
     d="m 910.0625,651.6875 c -17.5969,3.44573 -31.00832,5.083 -30.5625,10.5625 1.61819,13.30242 28.09513,22.68666 48.96875,19.25 -6.04428,-7.2888 -14.02223,-16.90379 -18.5,-22.3125 l -0.21875,-0.28125 0,-0.40625 c 0.11368,-2.27016 0.20969,-4.54598 0.3125,-6.8125 z"
     id="path4218"
     style="fill:#173859;fill-opacity:1;stroke:none" />
  <path
     d="m 870.80201,798.92506 c 48.15264,52.27552 88.47899,21.94503 131.52189,21.9203 37.2804,-0.0214 75.4487,1.65989 143.1891,-51.6188"
     id="path4283"
     style="fill:none;stroke:#091125;stroke-width:2;stroke-linecap:butt;stroke-linejoin:miter;stroke-miterlimit:4;stroke-opacity:1;stroke-dasharray:none" />
  <path
     d="m 1009.0414,798.5715 -6.0104,30.75914"
     id="path4285"
     style="fill:none;stroke:#091125;stroke-width:2;stroke-linecap:butt;stroke-linejoin:miter;stroke-miterlimit:4;stroke-opacity:1;stroke-dasharray:none" />
  <path
     d="m 950.875,42.46875 -2.875,32.625 -0.0625,0.65625 -0.65625,0.21875 c -11.6763,3.463541 -21.01104,7.851346 -26.90625,18.5 l -0.3125,0.5625 L 919.4375,95 c -23.44421,-1.273222 -46.80203,-0.578752 -70.125,7.4375 l -1.0625,0.375 -0.21875,-1.09375 c -0.94414,-4.455106 -0.93437,-8.713954 -1.71875,-12.90625 -0.71419,-3.817116 -2.16268,-7.622995 -5.5,-11.65625 -3.00909,5.668899 -5.50191,12.03433 -8.34375,17.9375 -3.06414,6.36494 -6.57826,12.18988 -11.90625,15.75 L 820.25,111.03125 819.90625,111 c -8.48745,-0.81415 -23.50795,1.53564 -35.125,8.125 -5.80852,3.29468 -10.75213,7.64567 -13.75,13.09375 -2.99787,5.44808 -4.08739,12.00832 -2.0625,20.03125 4.5009,17.83325 5.27478,32.60275 3.53125,45 64.1547,-119.715516 199.53513,-61.12797 245.7812,2.9375 l 0.375,-0.125 c 9.7743,-3.51054 18.9727,-9.99619 25.3126,-16.125 -6.7576,0.93972 -13.1111,0.66318 -19.1563,-0.46875 l -2.7813,-0.5 2.5,-1.34375 c 9.3241,-5.05043 14.824,-11.40046 18.6876,-18.90625 3.8635,-7.50579 6.0511,-16.18218 8.5312,-25.75 4.7604,-18.36487 10.8766,-39.99348 32.4375,-62.375 -21.6034,6.475721 -41.1492,13.347441 -56.6563,32.78125 l -0.3124,0.40625 -0.5313,-0.0312 c -6.5452,-0.43037 -12.6331,-1.39428 -17.6875,-3.21875 -5.0544,-1.82447 -9.12318,-4.52759 -11.375,-8.53125 l -0.375,-0.6875 0.5625,-0.5625 c 11.0744,-10.126334 30.9485,-22.087536 49.7187,-33.8125 -44.5496,-5.548465 -55.84739,9.543744 -76.5937,19.46875 l -1.0625,0.5 -0.34375,-1.09375 c -2.28216,-7.297562 -2.62022,-15.534128 -4.75,-22.5 -2.02606,-6.626639 -5.62226,-11.9819 -13.90625,-14.84375 z"
     id="path4347"
     style="fill:#0f2e51;fill-opacity:1;stroke:none" />
  <path
     d="m 771.75001,193.99999 c 15.91448,-34.06097 32.58969,-66.86075 77.19235,-92.59289"
     id="path4343"
     style="fill:none;stroke:#091125;stroke-width:2;stroke-linecap:butt;stroke-linejoin:miter;stroke-miterlimit:4;stroke-opacity:1;stroke-dasharray:none" />
  <path
     d="M 919.36382,93.732478 C 962.98923,108.985 998.79915,137.57575 1018.9408,201.24304"
     id="path4345"
     style="fill:none;stroke:#091125;stroke-width:2;stroke-linecap:butt;stroke-linejoin:miter;stroke-miterlimit:4;stroke-opacity:1;stroke-dasharray:none" />
  <path
     d="m 817.41545,241.7249 c -0.55666,13.88688 -2.05139,31.58929 -15.90991,51.26525"
     id="path4360"
     style="fill:none;stroke:#091125;stroke-width:2;stroke-linecap:butt;stroke-linejoin:miter;stroke-miterlimit:4;stroke-opacity:1;stroke-dasharray:none" />
  <path
     d="m 854.8921,251.44762 c 5.46747,-7.81653 6.27153,-10.19617 7.77818,-13.6118"
     id="path4362"
     style="fill:none;stroke:#091125;stroke-width:2;stroke-linecap:butt;stroke-linejoin:miter;stroke-miterlimit:4;stroke-opacity:1;stroke-dasharray:none" />
  <path
     d="m 803.98042,215.2084 c -3.44728,8.48528 -5.2493,16.97056 -6.71752,25.45584"
     id="path4365"
     style="fill:none;stroke:#6797cb;stroke-width:4;stroke-linecap:round;stroke-linejoin:miter;stroke-miterlimit:4;stroke-opacity:1;stroke-dasharray:none" />
  <path
     d="m 816.70834,213.08708 c -3.91602,7.60039 -5.41108,14.23239 -6.01041,20.5061"
     id="path4367"
     style="fill:none;stroke:#6797cb;stroke-width:4;stroke-linecap:round;stroke-linejoin:miter;stroke-miterlimit:4;stroke-opacity:1;stroke-dasharray:none" />
  <path
     d="m 882.46927,192.58098 c -3.03823,10.70503 -3.04422,19.13588 -3.53553,27.93072"
     id="path4369"
     style="fill:none;stroke:#6797cb;stroke-width:4;stroke-linecap:round;stroke-linejoin:miter;stroke-miterlimit:4;stroke-opacity:1;stroke-dasharray:none" />
  <path
     d="m 894.13653,191.52032 c -1.29434,6.24611 -1.80581,12.49222 -1.76776,18.73833"
     id="path4371"
     style="fill:none;stroke:#6797cb;stroke-width:4;stroke-linecap:round;stroke-linejoin:miter;stroke-miterlimit:4;stroke-opacity:1;stroke-dasharray:none" />
  <path
     d="m 903.32892,190.45966 c 3.58506,6.59966 6.54031,13.19933 8.13173,19.79899"
     id="path4373"
     style="fill:none;stroke:#6797cb;stroke-width:4;stroke-linecap:round;stroke-linejoin:miter;stroke-miterlimit:4;stroke-opacity:1;stroke-dasharray:none" />
  <path
     d="m 936.20939,179.85306 c 6.14117,8.39018 11.82713,16.72664 14.84924,24.74874"
     id="path4375"
     style="fill:none;stroke:#6797cb;stroke-width:4;stroke-linecap:round;stroke-linejoin:miter;stroke-miterlimit:4;stroke-opacity:1;stroke-dasharray:none" />
  <path
     d="m 948.93731,178.7924 c 6.54417,7.58687 12.98275,15.2582 16.26345,25.45584"
     id="path4377"
     style="fill:none;stroke:#6797cb;stroke-width:4;stroke-linecap:round;stroke-linejoin:miter;stroke-miterlimit:4;stroke-opacity:1;stroke-dasharray:none" />
</svg>
