<?xml version="1.0" encoding="UTF-8" standalone="no"?>
<!-- Created with Inkscape (http://www.inkscape.org/) -->

<svg
   xmlns:dc="http://purl.org/dc/elements/1.1/"
   xmlns:cc="http://creativecommons.org/ns#"
   xmlns:rdf="http://www.w3.org/1999/02/22-rdf-syntax-ns#"
   xmlns:svg="http://www.w3.org/2000/svg"
   xmlns="http://www.w3.org/2000/svg"
   version="1.1"
   width="1920"
   height="1080"
   id="svg2">
  <defs
     id="defs4" />
  <metadata
     id="metadata7">
    <rdf:RDF>
      <cc:Work
         rdf:about="">
        <dc:format>image/svg+xml</dc:format>
        <dc:type
           rdf:resource="http://purl.org/dc/dcmitype/StillImage" />
        <dc:title></dc:title>
      </cc:Work>
    </rdf:RDF>
  </metadata>
  <path
     d="m 834.63854,302.43507 c 13.88095,-29.60596 35.36584,-56.67728 63.38707,-81.56982 12.33628,21.61373 28.67851,43.89511 44.95179,66.165 -5.6053,-20.17632 -12.64195,-40.06637 -15.15229,-60.86169 15.11089,16.41361 28.13479,35.73849 46.46702,45.7094 -12.49555,-15.10381 -20.25746,-30.92251 -29.72553,-47.23731 11.85066,9.33369 30.7814,19.71877 44.1202,31.83248 8.39308,24.85439 9.44512,50.52445 12.1219,76.01398 6.0725,-12.62688 12.1229,-24.84344 18.4352,-41.92133 7.1087,14.01736 16.46,27.28718 25.5064,40.65865 1.0253,-16.21208 -7.0157,-44.1798 -6.3135,-69.19546 11.5792,6.4164 26.3466,14.0169 41.4162,16.16245 -8.8089,-43.62613 -25.4484,-61.62523 -41.4162,-81.82236 9.4961,3.39367 19.5859,7.21914 36.3655,15.9099 -16.3901,-37.86919 -50.5784,-43.58598 -76.26651,-88.64088 16.45981,-1.41304 36.03981,-2.90684 50.76011,-14.39467 -36.9417,2.35039 -81.97919,8.59857 -123.99617,-7.57615 14.01782,-9.492245 36.52519,-16.372318 59.09393,-23.233509 -51.08711,-5.010118 -61.62638,7.792402 -87.0972,15.029736 -14.10515,4.007868 -35.17684,11.941303 -61.39523,15.779913 -15.38463,-30.840791 -52.91444,0.58213 -67.42768,14.14214 -19.84768,18.54408 -25.7776,27.18361 -67.42768,31.8198 11.08403,8.87266 22.13223,9.66759 37.1231,11.8693 -12.82503,19.44527 -0.16763,70.72677 -12.6269,88.64088 12.33503,-11.26586 24.59441,-22.34261 35.60787,-30.30457 16.53137,42.93422 -24.89127,24.84457 -59.599,34.59772 15.46471,11.53518 44.82255,3.72311 55.55839,19.95051 -23.27327,19.75727 -44.55602,41.14316 -45.96194,78.7919 13.66362,-10.26988 25.24967,-20.53977 50.50763,-30.80965 -2.44141,7.00562 -5.2466,14.05166 -13.63706,21.71828 16.08956,3.79452 35.40054,0.36166 52.02286,5.05076 2.03638,-3.86673 2.87637,-6.82798 4.61835,-9.67108 2.98464,3.93046 5.85162,7.3775 10.8289,10.29781 -7.23446,-52.22368 3.10102,-95.05593 34.55529,-132.70417 -9.54339,33.8868 -12.21759,54.69189 -15.40482,79.80204 z"
     id="path3083"
     style="fill:#4374a3;fill-opacity:1;stroke:#091125;stroke-width:2;stroke-linecap:butt;stroke-linejoin:miter;stroke-miterlimit:4;stroke-opacity:1;stroke-dasharray:none" />
  <path
     d="M 1121.5,707 1108.125,680.625 886.9375,711.84375 883.5,744.5 c 1.79449,24.01942 3.66088,49.11568 6.5,71.5 6.55233,51.66017 126.603,23.28138 161.5,10 44.7403,-17.0276 90.0793,-2.33191 74,-54 -7.4416,-23.91222 -4.2919,-44.95852 -4,-65 z"
     id="path4193"
     style="fill:#5a83ba;fill-opacity:1;stroke:#0a162b;stroke-width:2;stroke-linecap:butt;stroke-linejoin:miter;stroke-miterlimit:4;stroke-opacity:1;stroke-dasharray:none" />
  <path
     d="m 1120.4688,708.15625 -18.875,2.96875 -25.4381,4.51472 17.3952,23.61028 c 13.1734,17.8801 23.3742,36.63852 33.9179,55.25 0.8365,-5.44831 0.04,-12.65178 -2.9376,-22.21875 -7.3681,-23.67676 -4.4528,-44.51783 -4.0624,-64.125 z m -226.68755,35.6875 -9.21875,1.46875 c 1.77405,23.74598 3.63855,48.49487 6.4375,70.5625 1.58868,12.52556 9.90139,20.08442 22.40625,24.40625 3.76527,1.30132 7.91889,2.2835 12.34375,3 -10.75145,-14.74155 -12.06434,-39.12082 -10.96875,-61.59375 l 1.86393,-38.23344 z"
     id="path4207"
     style="fill:#204073;fill-opacity:1;stroke:none" />
  <path
     d="m 988.46875,354.125 c -4.98591,10.90047 -12.5273,21.35535 -23.59375,31.25 -0.0282,7.22529 -0.0164,14.46579 2.71875,22.03125 6.41847,-0.58394 13.06438,-1.16255 19.90625,-1.6875 6.03455,4.10454 11.40365,13.48401 16.7812,22.84375 3.4335,33.206 6.4273,73.74478 11.7813,103.75 -0.4396,52.76335 -1.1554,101.2375 3.5937,159.46875 10.4991,4.95694 20.2118,9.77896 33.9063,15.375 l 47.4332,15.52329 c 21.5189,7.82825 55.4805,22.24192 66.0668,21.88296 11.9034,-1.28983 28.3967,-18.96238 39,-30.625 17.7155,-19.47703 42.9171,-37.25017 41.9063,-48.3125 0.3344,-16.96261 -70.3044,-161.42942 -75.8126,-165.28125 -4.3893,-7.08261 -43.7954,-28.62275 -82.375,-59.8125 -1.9644,-22.56193 -1.5869,-40.46581 -4.7812,-58.375 -10.3313,-33.31011 -37.0461,-26.88601 -53.4062,-17.5 -29.5513,16.9537 -34.80483,4.10676 -43.12505,-10.53125 z m -150.8125,22.4375 -45.875,44.15625 c -29.43908,33.10322 -9.60618,44.43837 -5.28125,68.90625 -1.55815,24.48707 -68.50422,47.36739 -69.125,144.9375 -0.2853,28.13354 0.17246,42.43308 3.5625,69.625 5.65476,16.90476 34.03735,103.88162 52.625,103.84375 10.28735,-0.0209 26.8631,-13.75892 40.375,-22.6875 10.36705,-1.019 21.87589,-0.90294 28.21875,-5.875 11.70197,-9.87226 23.26574,-19.63879 35,-33.75 l 4.625,14.625 c 19.66175,3.37718 48.7377,-31.00439 63.03125,-46.125 L 935.03125,701.75 c 0.20981,-23.80953 3.7081,-51.15922 2.125,-74.96875 C 928.37096,607.25529 920.45215,593.12911 911,576.9375 c -4.92568,-26.79645 -23.06896,-60.24518 -32.25,-73.375 1.31695,-21.97125 4.81422,-43.97625 -13.55804,-67.05804 10.2813,-4.95605 21.05748,-10.33694 32.84375,-15.79464 -0.31285,-2.91262 -1.13605,-6.19162 -1.44196,-8.36607 -9.2244,-2.37626 -19.30474,-7.0112 -31.65625,-13.4375 -10.95848,-5.70153 -19.90395,-13.33531 -27.28125,-22.34375 z"
     id="path3095"
     style="fill:#7ca5ce;fill-opacity:1;stroke:#091125;stroke-width:2;stroke-linecap:butt;stroke-linejoin:miter;stroke-miterlimit:4;stroke-opacity:1;stroke-dasharray:none" />
  <path
     d="m 988.53125,356.15625 c -4.98061,10.31481 -12.24949,20.24125 -22.65625,29.625 -0.0241,6.84236 0.0729,13.58801 2.4375,20.5625 6.17752,-0.55991 12.55541,-1.12094 19.125,-1.625 l 0.34375,-0.0312 0.28125,0.21875 c 2.03752,1.38587 3.98692,3.27687 5.84375,5.53125 l 8.06255,5.28125 12.5,-0.53125 c 10.6505,25.93288 27.5278,-13.08444 39.0937,0.15625 21.5436,6.10811 25.8367,19.34816 36.9687,29.28125 0.089,9.88655 -5.9601,23.2481 -14.9374,37.84375 10.3291,6.59294 17.7284,17.56511 25.1874,27.625 5.0363,25.56431 11.6172,48.75712 18.4688,62.8125 21.1879,43.46479 -4.5377,41.46026 -4.5312,91.90625 0,12.80713 -16.62,24.45294 -24.9853,31.78798 l 12.4389,25.13972 c 30.1265,-46.10319 32.4755,-58.46442 41.3901,-84.2402 14.1777,-40.99312 6.1113,-57.32297 2.2187,-84.90625 -4.4882,-31.80785 13.3485,-3.9846 23.8438,4.75 11.3955,9.48386 25.2029,14.39584 43.625,25.21875 -0.6377,-1.35619 -1.2662,-2.70877 -1.9062,-4.0625 -9.1488,-19.34968 -18.4904,-38.2884 -25.875,-52.625 -3.6925,-7.1683 -6.8968,-13.19877 -9.3438,-17.53125 -1.2235,-2.16624 -2.2607,-3.91049 -3.0625,-5.15625 -0.4009,-0.62288 -0.7306,-1.11577 -1,-1.46875 -0.2694,-0.35298 -0.4948,-0.5805 -0.4687,-0.5625 l -0.1876,-0.125 -0.094,-0.15625 c -0.864,-1.39408 -4.1411,-4.17088 -9.0313,-7.65625 -4.89,-3.48537 -11.4179,-7.82038 -19.0312,-12.90625 -15.2266,-10.17174 -34.762,-23.37123 -54.0938,-39 l -0.3437,-0.28125 -0.031,-0.40625 c -1.9692,-22.6185 -1.6095,-40.49888 -4.7812,-58.28125 -5.093,-16.33023 -13.9504,-22.63566 -23.5938,-23.96875 -9.6629,-1.33582 -20.2509,2.53116 -28.3124,7.15625 -7.4464,4.27192 -13.4067,6.67362 -18.3438,7.65625 -4.9371,0.98263 -8.8909,0.50035 -12.125,-1.0625 -5.98484,-2.89208 -9.34062,-9.27016 -13.09375,-15.96875 z M 837.59375,378 l -45.0625,43.375 -0.0625,0.0625 c -14.55142,16.38594 -16.76571,27.04467 -15,36.78125 1.76825,9.75055 7.82779,18.75287 10.03125,31.21875 l 0,0.125 0,0.125 c -0.41773,6.56482 -5.0845,12.72314 -11.625,19.875 -6.5405,7.15186 -15.04099,15.31742 -23.5,25.75 -16.91802,20.86516 -33.69106,50.69314 -34,99.25 -0.23322,22.99787 0.0741,36.78836 2.03125,55.875 17.45591,-42.77563 39.29835,-78.91215 61.75,-92.21875 6.4625,88.99277 28.07482,128.78559 75.46875,166.46875 6.24288,-5.74973 12.4661,-12.03696 18.75,-19.59375 l 0.6875,-0.8125 C 872.2457,698.42923 844.96013,680.73483 816.625,655.5 c -6.42594,-2.03949 -8.50892,-28.85249 -10.40625,-59.40625 -1.23853,-19.94472 14.08007,-53.35681 21.90625,-62.0625 -8.91334,0.066 -15.92972,0.0329 -21.5625,-1.375 -17.77644,-4.44316 1.67512,-61.34502 15.28125,-76.125 3.75407,8.87344 8.605,16.37668 14.46875,22.71875 -5.09597,-22.83034 2.44286,-37.16075 29.34375,-40.5 -0.40999,-0.54443 -0.81554,-1.07917 -1.25,-1.625 l -0.78125,-0.96875 1.125,-0.5625 c 10.04804,-4.84361 20.65469,-10.09519 32.15625,-15.4375 -0.31691,-2.41468 -0.85669,-4.98858 -1.1875,-7.03125 -9.18889,-2.45407 -19.14387,-7.04512 -31.25,-13.34375 -10.74454,-5.59022 -19.5552,-13.04223 -26.875,-21.78125 z"
     id="path3124"
     style="fill:#173859;fill-opacity:1;stroke:none" />
  <path
     d="m 960.46875,78.3125 c -31.22923,0.506458 -41.82479,10.134867 -62.90625,16.125 -14.02328,3.984606 -35.19374,11.92516 -61.53125,15.78125 l -0.6875,0.125 L 835,109.6875 c -3.74339,-7.50418 -8.66787,-11.035967 -14.28125,-12.15625 -5.61338,-1.120283 -12.01867,0.262335 -18.46875,3.0625 -12.90016,5.60033 -25.86976,16.78173 -33.09375,23.53125 -19.37327,18.10083 -26.16268,26.98474 -65.53125,31.71875 10.20449,7.29981 20.56615,8.176 34.6875,10.25 l 1.5625,0.21875 -0.875,1.3125 c -6.10681,9.25913 -6.28525,26.8552 -6.28125,44.34375 0.003,14.82125 0.11124,29.50019 -3.84375,39.40625 10.9641,-9.97128 21.81486,-19.64402 31.6875,-26.78125 l 1.0625,-0.75 0.46875,1.21875 c 3.79075,9.8451 4.65403,16.65737 3.0625,21.5 31.47474,-38.5701 22.32988,-104.65183 117.6875,-111.90625 26.03231,-1.98043 53.86077,9.89645 78.0625,3.1875 19.12168,-5.30072 48.30885,12.56072 71.53125,27.4375 -11.7638,-10.30112 -24.0285,-22.29678 -34.78125,-41.15625 l -0.75,-1.34375 1.53125,-0.125 c 15.346,-1.31742 33.1622,-2.83465 47.1875,-12.125 -36.2003,2.49123 -79.73184,7.82866 -120.6875,-7.9375 l -1.78125,-0.6875 1.59375,-1.0625 c 13.12941,-8.890654 33.33898,-15.410302 54.09375,-21.75 -4.09393,-0.311634 -8.28058,-0.67006 -11.84375,-0.75 -2.27457,-0.05103 -4.4493,-0.06501 -6.53125,-0.03125 z"
     id="path3855"
     style="fill:#0f2e51;fill-opacity:1;stroke:none;display:inline" />
  <path
     d="m 798.21429,284.46428 c -0.42628,21.64852 -0.80794,44.24673 6.42857,60.71429"
     id="path3085"
     style="fill:none;stroke:#091125;stroke-width:2;stroke-linecap:butt;stroke-linejoin:miter;stroke-miterlimit:4;stroke-opacity:1;stroke-dasharray:none" />
  <path
     d="m 929.59288,103.18249 c 15.91617,6.08315 28.90161,16.38729 43.6891,33.84011"
     id="path3087"
     style="fill:none;stroke:#091125;stroke-width:2;stroke-linecap:butt;stroke-linejoin:miter;stroke-miterlimit:4;stroke-opacity:1;stroke-dasharray:none" />
  <path
     d="m 965.70583,204.19774 c 16.89333,23.3054 36.16847,44.70536 48.73987,71.46829 -8.6726,-7.71748 -19.47093,-13.98036 -27.02158,-20.45558"
     id="path3089"
     style="fill:none;stroke:#091125;stroke-width:2;stroke-linecap:butt;stroke-linejoin:miter;stroke-miterlimit:4;stroke-opacity:1;stroke-dasharray:none" />
  <path
     d="m 1038.9286,262.30874 c -10.1299,-6.02691 -17.6844,-10.62307 -24.8215,-14.98731"
     id="path3091"
     style="fill:none;stroke:#091125;stroke-width:2;stroke-linecap:butt;stroke-linejoin:miter;stroke-miterlimit:4;stroke-opacity:1;stroke-dasharray:none" />
  <path
     d="m 761.14994,225.41095 c 0.21617,-26.51687 9.14224,-81.99263 75.1301,-116.29381"
     id="path3093"
     style="fill:none;stroke:#091125;stroke-width:2;stroke-linecap:butt;stroke-linejoin:miter;stroke-miterlimit:4;stroke-opacity:1;stroke-dasharray:none" />
  <path
     d="M 865.45346,436.91055 848.52814,413.8044"
     id="path3097"
     style="fill:none;stroke:#091125;stroke-width:2;stroke-linecap:butt;stroke-linejoin:miter;stroke-miterlimit:4;stroke-opacity:1;stroke-dasharray:none" />
  <path
     d="m 857.14286,425 10.71428,-15.53572"
     id="path3099"
     style="fill:none;stroke:#091125;stroke-width:2;stroke-linecap:butt;stroke-linejoin:miter;stroke-miterlimit:4;stroke-opacity:1;stroke-dasharray:none" />
  <path
     d="M 977.15363,407.13209 986.42857,396.25"
     id="path3101"
     style="fill:none;stroke:#091125;stroke-width:2;stroke-linecap:butt;stroke-linejoin:miter;stroke-miterlimit:4;stroke-opacity:1;stroke-dasharray:none" />
  <path
     d="m 987.7037,406.26794 14.2606,9.44634 12.5,-0.53571 6.25,-26.60714"
     id="path3103"
     style="fill:none;stroke:#091125;stroke-width:2;stroke-linecap:butt;stroke-linejoin:miter;stroke-miterlimit:4;stroke-opacity:1;stroke-dasharray:none" />
  <path
     d="M 1016.0714,532.32143 C 1045.6199,480.052 1056.8601,426.67298 1055,372.5"
     id="path3105"
     style="fill:none;stroke:#091125;stroke-width:2;stroke-linecap:butt;stroke-linejoin:miter;stroke-miterlimit:4;stroke-opacity:1;stroke-dasharray:none" />
  <path
     d="m 816.78572,440 c 7.87515,35.95446 30.67285,54.89723 62.32142,63.75"
     id="path3107"
     style="fill:none;stroke:#091125;stroke-width:2;stroke-linecap:butt;stroke-linejoin:miter;stroke-miterlimit:4;stroke-opacity:1;stroke-dasharray:none" />
  <path
     d="m 1054.3904,602.62999 c 12.181,-29.34561 24.9848,-39.36971 39.8266,-56.29859 -11.6068,25.60138 -8.9352,49.17723 -7.798,74.55427 -16.2721,5.82184 -31.7691,25.80312 -42.6655,40.03115 5.6645,-20.0339 11.4491,-38.99522 10.6369,-58.28683 z"
     id="path3185"
     style="fill:#173859;fill-opacity:1;stroke:none" />
  <path
     d="m 1049.5485,519.1128 c -3.1932,13.15727 -5.2052,31.63022 -7.0711,50.76017 -3.1941,-9.34862 -6.8578,-18.22763 -16.6675,-20.96067 z"
     id="path3183"
     style="fill:#173859;fill-opacity:1;stroke:none" />
  <path
     d="m 1015.4558,562.04428 c 26.9513,-34.20662 79.7935,-94.32335 74.4988,-121.47084"
     id="path3109"
     style="fill:none;stroke:#091125;stroke-width:2;stroke-linecap:butt;stroke-linejoin:miter;stroke-miterlimit:4;stroke-opacity:1;stroke-dasharray:none" />
  <path
     d="m 786.15122,512.04173 c 8.14623,21.64257 18.77357,22.26719 45.7094,21.97082 26.77263,-0.29457 54.18248,26.01148 79.54952,43.18402"
     id="path3111"
     style="fill:none;stroke:#091125;stroke-width:2;stroke-linecap:butt;stroke-linejoin:miter;stroke-miterlimit:4;stroke-opacity:1;stroke-dasharray:none" />
  <path
     d="m 802.06112,530.98209 c 4.73022,42.94678 3.40862,120.97473 14.55313,124.51182 28.82498,25.67109 56.60078,43.50908 60.70324,91.15575"
     id="path3113"
     style="fill:none;stroke:#091125;stroke-width:2;stroke-linecap:butt;stroke-linejoin:miter;stroke-miterlimit:4;stroke-opacity:1;stroke-dasharray:none" />
  <path
     d="m 862.67027,615.07729 c 14.48692,11.62759 30.92415,15.69773 40.4061,46.71956 -22.82801,9.34109 -24.82726,-25.378 -40.4061,-46.71956 z"
     id="path3187"
     style="fill:#173859;fill-opacity:1;stroke:none" />
  <path
     d="m 862.67027,615.32983 c 24.15948,25.5009 48.82405,58.00636 72.98353,87.12565"
     id="path3115"
     style="fill:none;stroke:#091125;stroke-width:2;stroke-linecap:butt;stroke-linejoin:miter;stroke-miterlimit:4;stroke-opacity:1;stroke-dasharray:none" />
  <path
     d="m 1034.2857,697.85714 c 7.3998,-37.48113 21.3362,-65.97441 20.1047,-95.22715 12.181,-29.34561 24.9848,-39.36971 39.8266,-56.29859"
     id="path3117"
     style="fill:none;stroke:#091125;stroke-width:2;stroke-linecap:butt;stroke-linejoin:miter;stroke-miterlimit:4;stroke-opacity:1;stroke-dasharray:none" />
  <path
     d="m 726.29968,690.58619 c 22.58264,36.44967 53.85804,109.28794 67.68022,108.59141"
     id="path3119"
     style="fill:none;stroke:#091125;stroke-width:2;stroke-linecap:butt;stroke-linejoin:miter;stroke-miterlimit:4;stroke-opacity:1;stroke-dasharray:none" />
  <path
     d="m 1181.8785,536.53793 c 6.4781,62.79782 25.0008,108.42304 23.2335,179.30208"
     id="path3132"
     style="fill:none;stroke:#091125;stroke-width:2;stroke-linecap:butt;stroke-linejoin:miter;stroke-miterlimit:4;stroke-opacity:1;stroke-dasharray:none" />
  <path
     d="m 1090.5336,443.75184 c 4.7244,47.90436 16.2603,103.60119 28.7154,129.15159 21.1879,43.46477 -4.5519,41.47789 -4.5457,91.92388 0,13.15467 -15.074,21.98596 -23.6726,29.74366"
     id="path3100"
     style="fill:none;stroke:#091125;stroke-width:2;stroke-linecap:butt;stroke-linejoin:miter;stroke-miterlimit:4;stroke-opacity:1;stroke-dasharray:none" />
  <path
     d="m 864.28571,543.57144 c 22.7761,36.13781 26.90438,75.43222 30.71428,108.21428"
     id="path3179"
     style="fill:none;stroke:#091125;stroke-width:2;stroke-linecap:butt;stroke-linejoin:miter;stroke-miterlimit:4;stroke-opacity:1;stroke-dasharray:none" />
  <path
     d="m 1042.8571,548.21429 c -1.0491,23.86447 -3.4434,39.17605 11.3853,54.03317"
     id="path3181"
     style="fill:none;stroke:#091125;stroke-width:2;stroke-linecap:butt;stroke-linejoin:miter;stroke-miterlimit:4;stroke-opacity:1;stroke-dasharray:none" />
  <path
     d="m 1002.6632,173.55348 c 5.5618,5.46897 7.9157,10.18033 11.0714,16.78572"
     id="path3847"
     style="fill:none;stroke:#6797cb;stroke-width:4;stroke-linecap:round;stroke-linejoin:miter;stroke-miterlimit:4;stroke-opacity:1;stroke-dasharray:none;display:inline" />
  <path
     d="m 987.7092,170.10833 c 4.9412,6.50279 9.16728,13.18437 11.42857,20.35714"
     id="path3845"
     style="fill:none;stroke:#6797cb;stroke-width:4;stroke-linecap:round;stroke-linejoin:miter;stroke-miterlimit:4;stroke-opacity:1;stroke-dasharray:none;display:inline" />
  <path
     d="m 949.64285,172.92214 c 5.62191,8.39943 11.87708,16.67221 14.28572,25.71429"
     id="path3843"
     style="fill:none;stroke:#6797cb;stroke-width:4;stroke-linecap:round;stroke-linejoin:miter;stroke-miterlimit:4;stroke-opacity:1;stroke-dasharray:none;display:inline" />
  <path
     d="m 867.03825,192.69127 c -5.03892,7.86363 -7.56752,15.30887 -8.57143,22.5"
     id="path3849"
     style="fill:none;stroke:#6797cb;stroke-width:4;stroke-linecap:round;stroke-linejoin:miter;stroke-miterlimit:4;stroke-opacity:1;stroke-dasharray:none;display:inline" />
  <path
     d="m 822.85714,197.50001 c -2.21941,9.34809 -3.37219,17.27402 -3.57143,23.92857"
     id="path3851"
     style="fill:none;stroke:#6797cb;stroke-width:4;stroke-linecap:round;stroke-linejoin:miter;stroke-miterlimit:4;stroke-opacity:1;stroke-dasharray:none;display:inline" />
  <path
     d="m 810.71428,206.07143 c -2.45848,6.20432 -3.84737,12.76516 -4.28571,19.64286"
     id="path3853"
     style="fill:none;stroke:#6797cb;stroke-width:4;stroke-linecap:round;stroke-linejoin:miter;stroke-miterlimit:4;stroke-opacity:1;stroke-dasharray:none;display:inline" />
  <path
     d="m 889.18679,808.47099 c 84.18705,13.33256 161.76651,-3.32301 233.69881,-45.60838"
     id="path4195"
     style="fill:none;stroke:#0a162b;stroke-width:2;stroke-linecap:butt;stroke-linejoin:miter;stroke-miterlimit:4;stroke-opacity:1;stroke-dasharray:none" />
  <path
     d="m 1017.8802,804.93546 -0.3535,10.6066"
     id="path4205"
     style="fill:none;stroke:#0a162b;stroke-width:2;stroke-linecap:butt;stroke-linejoin:miter;stroke-miterlimit:4;stroke-opacity:1;stroke-dasharray:none" />
</svg>
