<?xml version="1.0" encoding="UTF-8" standalone="no"?>
<!-- Created with Inkscape (http://www.inkscape.org/) -->

<svg
   xmlns:dc="http://purl.org/dc/elements/1.1/"
   xmlns:cc="http://creativecommons.org/ns#"
   xmlns:rdf="http://www.w3.org/1999/02/22-rdf-syntax-ns#"
   xmlns:svg="http://www.w3.org/2000/svg"
   xmlns="http://www.w3.org/2000/svg"
   version="1.1"
   width="1920"
   height="1080"
   id="svg2">
  <defs
     id="defs4" />
  <metadata
     id="metadata7">
    <rdf:RDF>
      <cc:Work
         rdf:about="">
        <dc:format>image/svg+xml</dc:format>
        <dc:type
           rdf:resource="http://purl.org/dc/dcmitype/StillImage" />
        <dc:title></dc:title>
      </cc:Work>
    </rdf:RDF>
  </metadata>
  <g
     id="g4164"
     style="display:inline">
    <path
       d="m 962.91727,749.90381 -24.11953,-22.45585 c -11.87013,-1.80207 -35.60483,24.81968 -39.52348,36.61173 14.06187,16.4472 31.06153,28.34992 44.54909,33.5976 3.1492,5.59917 8.78769,9.27917 16.42767,6.57106 10.20137,10.93653 29.10548,-8.24266 43.13348,-18.03122 5.6262,5.5679 14.3661,10.688 21.1184,10.77448 8.2143,0.10519 33.1189,-17.82331 44.289,-30.21992 14.5502,-10.61381 17.2508,-16.03828 25.5092,-28.45889 4.2232,-6.35169 -0.7707,-25.87601 -6.1066,-30.08452 -15.4378,-12.17596 -22.7301,1.30071 -33.0018,14.37437 z"
       id="path4166"
       style="fill:#fafbef;fill-opacity:1;stroke:#0a162b;stroke-width:2;stroke-linecap:butt;stroke-linejoin:miter;stroke-miterlimit:4;stroke-opacity:1;stroke-dasharray:none" />
    <path
       d="m 1073.5312,750.59375 c -1.3846,0.78154 -2.551,1.63193 -3.5312,2.46875 1.2406,-0.38496 2.4124,-1.14118 3.5312,-2.46875 z M 1070,753.0625 c -7.6828,2.38395 -17.8629,-9.18928 -32.5,16.1875 -2.5729,4.46078 -7.418,13.58099 -15.9062,11.28125 -4.1248,-1.72216 -6.6547,-3.15684 -9.7188,-7.0625 -2.463,4.30012 -4.7038,8.39036 -7.9375,11.875 l 0.1563,0.15625 c 5.476,5.41929 14.1796,10.38855 20.4374,10.46875 1.6836,0.0216 4.7401,-0.98362 8.3438,-2.8125 3.6037,-1.82888 7.7969,-4.44759 12.0938,-7.4375 8.5935,-5.97982 17.5956,-13.52316 23.0937,-19.625 l 0.062,-0.0937 0.062,-0.0625 c 1.3232,-0.96523 2.5589,-1.92414 3.75,-2.875 -6.4551,1.14778 -8.1846,-4.66653 -1.9375,-10 z M 990.25,776.5 c -9.52101,6.98641 -20.90971,15.54311 -30.25,3.75 -3.55869,3.7345 -10.02621,10.55332 -18.6875,2.96875 1.08537,3.61689 2.17914,8.30576 2.78125,13.46875 0.0298,0.0116 0.064,0.0197 0.0937,0.0312 l 0.34375,0.125 0.15625,0.3125 c 1.49548,2.65891 3.56971,4.82743 6.09375,6 2.52404,1.17257 5.51247,1.40552 9.125,0.125 l 0.625,-0.21875 0.4375,0.46875 c 2.34582,2.51487 5.02599,3.25992 8.21875,2.875 3.19276,-0.38492 6.8726,-1.99306 10.6875,-4.28125 7.44403,-4.46496 15.4341,-11.44119 22.40625,-16.375 -4.56548,-1.22924 -9.28387,-1.96051 -12.03125,-9.25 z"
       id="path4168"
       style="fill:#7b94ae;fill-opacity:1;stroke:none" />
    <path
       d="m 920.25001,749.5 c 8.08244,10.01319 21.66404,24.59899 24,48.5"
       id="path4170"
       style="fill:none;stroke:#0a162b;stroke-width:2;stroke-linecap:butt;stroke-linejoin:miter;stroke-miterlimit:4;stroke-opacity:1;stroke-dasharray:none" />
    <path
       d="m 959.36713,779.47962 c 9.54468,8.89766 4.94122,11.24053 1.06066,24.57196 5.19204,-15.21146 16.62293,-17.07856 30.58237,-27.40039"
       id="path4172"
       style="fill:none;stroke:#0a162b;stroke-width:2;stroke-linecap:butt;stroke-linejoin:miter;stroke-miterlimit:4;stroke-opacity:1;stroke-dasharray:none" />
    <path
       d="m 1003.406,785.89535 c 3.5269,-3.60309 5.8672,-7.89274 8.4638,-12.42614 3.0641,3.90566 5.598,5.34891 9.7227,7.07107"
       id="path4174"
       style="fill:none;stroke:#0a162b;stroke-width:2;stroke-linecap:butt;stroke-linejoin:miter;stroke-miterlimit:4;stroke-opacity:1;stroke-dasharray:none" />
    <path
       d="m 1078.25,706 c -15.8113,19.21452 3.896,34.05344 -4.4415,44.1106 -8.3277,10.04533 -19.2386,-10.29519 -36.5585,19.3894"
       id="path4176"
       style="fill:none;stroke:#0a162b;stroke-width:2;stroke-linecap:butt;stroke-linejoin:miter;stroke-miterlimit:4;stroke-opacity:1;stroke-dasharray:none" />
    <path
       d="m 1073.25,751.10355 c -11.1111,5.93223 -8.3937,15.21658 1.5,11.14645"
       id="path4178"
       style="fill:none;stroke:#0a162b;stroke-width:2;stroke-linecap:butt;stroke-linejoin:miter;stroke-miterlimit:4;stroke-opacity:1;stroke-dasharray:none" />
    <path
       d="m 924.50001,733.75 c 5.39437,4.04458 10.18865,9.28936 14.25,16"
       id="path4180"
       style="fill:none;stroke:#0a162b;stroke-width:2;stroke-linecap:butt;stroke-linejoin:miter;stroke-miterlimit:4;stroke-opacity:1;stroke-dasharray:none" />
  </g>
</svg>
