<?xml version="1.0" encoding="UTF-8" standalone="no"?>
<!-- Created with Inkscape (http://www.inkscape.org/) -->

<svg
   xmlns:dc="http://purl.org/dc/elements/1.1/"
   xmlns:cc="http://creativecommons.org/ns#"
   xmlns:rdf="http://www.w3.org/1999/02/22-rdf-syntax-ns#"
   xmlns:svg="http://www.w3.org/2000/svg"
   xmlns="http://www.w3.org/2000/svg"
   xmlns:xlink="http://www.w3.org/1999/xlink"
   version="1.1"
   width="1920"
   height="1080"
   id="svg2">
  <defs
     id="defs4">
    <linearGradient
       id="linearGradient4060">
      <stop
         id="stop4062"
         style="stop-color:#325262;stop-opacity:1"
         offset="0" />
      <stop
         id="stop4064"
         style="stop-color:#387683;stop-opacity:1"
         offset="1" />
    </linearGradient>
    <linearGradient
       id="linearGradient4183">
      <stop
         id="stop4185"
         style="stop-color:#054e77;stop-opacity:1"
         offset="0" />
      <stop
         id="stop4187"
         style="stop-color:#1c787d;stop-opacity:1"
         offset="1" />
    </linearGradient>
    <linearGradient
       id="linearGradient4173">
      <stop
         id="stop4175"
         style="stop-color:#256178;stop-opacity:1"
         offset="0" />
      <stop
         id="stop4177"
         style="stop-color:#367b7e;stop-opacity:1"
         offset="1" />
    </linearGradient>
    <linearGradient
       id="linearGradient4163">
      <stop
         id="stop4165"
         style="stop-color:#316178;stop-opacity:1"
         offset="0" />
      <stop
         id="stop4167"
         style="stop-color:#417d7d;stop-opacity:1"
         offset="1" />
    </linearGradient>
    <linearGradient
       id="linearGradient4155">
      <stop
         id="stop4157"
         style="stop-color:#206779;stop-opacity:1"
         offset="0" />
      <stop
         id="stop4159"
         style="stop-color:#307e7d;stop-opacity:1"
         offset="1" />
    </linearGradient>
    <linearGradient
       x1="445.5"
       y1="1080"
       x2="376.65625"
       y2="0"
       id="linearGradient4161"
       xlink:href="#linearGradient4155"
       gradientUnits="userSpaceOnUse"
       gradientTransform="translate(141.42136,-8.4852815)" />
    <linearGradient
       x1="128.23045"
       y1="1077.1716"
       x2="171.1127"
       y2="7.1054274e-014"
       id="linearGradient4169"
       xlink:href="#linearGradient4163"
       gradientUnits="userSpaceOnUse"
       gradientTransform="translate(141.42136,-8.4852815)" />
    <linearGradient
       x1="1920"
       y1="1080"
       x2="399.3082"
       y2="0"
       id="linearGradient4189"
       xlink:href="#linearGradient4183"
       gradientUnits="userSpaceOnUse" />
    <linearGradient
       x1="120.62237"
       y1="638.76538"
       x2="-206.47551"
       y2="638.76538"
       id="linearGradient4066"
       xlink:href="#linearGradient4060"
       gradientUnits="userSpaceOnUse"
       gradientTransform="translate(141.42136,-8.4852815)" />
    <linearGradient
       x1="314.00507"
       y1="1080"
       x2="272.66104"
       y2="0"
       id="linearGradient4109"
       xlink:href="#linearGradient4173"
       gradientUnits="userSpaceOnUse"
       gradientTransform="translate(141.42136,-8.4852815)" />
  </defs>
  <metadata
     id="metadata7">
    <rdf:RDF>
      <cc:Work
         rdf:about="">
        <dc:format>image/svg+xml</dc:format>
        <dc:type
           rdf:resource="http://purl.org/dc/dcmitype/StillImage" />
        <dc:title></dc:title>
      </cc:Work>
    </rdf:RDF>
  </metadata>
  <path
     d="m 877.50001,714 c 10.8077,47.14616 15.30938,89.2475 32.5,141.5 66.25166,46.36867 151.18759,33.23511 229.99999,-42 -3.8938,-59.92838 -14.0421,-99.53 -23,-143 z"
     id="path4094"
     style="fill:#5a83ba;fill-opacity:1;stroke:#091125;stroke-width:2;stroke-linecap:butt;stroke-linejoin:miter;stroke-miterlimit:4;stroke-opacity:1;stroke-dasharray:none" />
  <path
     d="m 1116.2188,671.65625 -237.5313,43.125 c 10.63334,46.7032 15.20922,88.46719 32.15625,140.09375 8.42974,5.87369 17.14576,10.78654 26.125,14.71875 -7.36941,-13.99993 -13.50014,-34.55255 -13.5,-54.0625 15.6093,-15.80529 47.66093,-35.7232 77.78125,-55.15625 l 55.5312,-23.6875 c 34.9452,24.22286 67.387,53.87964 82.125,75.46875 -3.9264,-58.59546 -13.8461,-97.73388 -22.6874,-140.5 z"
     id="path4102"
     style="fill:#204073;fill-opacity:1;stroke:none" />
  <path
     d="m 1004.3125,293.09375 c 6.0564,11.97742 6.417,28.09243 -9.625,42.125 -3.74118,17.78107 -12.46953,34.68591 -29.8125,50.1875 -0.0221,5.66706 -0.0134,11.35308 1.3125,17.1875 l 1.37316,5.03277 c 9.41318,-0.25349 16.30793,-1.61118 28.9974,-2.12392 0.31184,0.48466 1.04925,-0.52768 1.34819,-0.0338 1.43958,-0.0766 2.90555,-0.15398 4.31255,-0.21875 5.2959,14.05658 5.9407,14.63211 7.125,35.03125 4.3263,28.77161 1.2078,62.54098 3.1562,91.71875 4.7828,71.62239 16.9942,120.59219 39.5,143 l 0,38.5 46,-9.5 c 3.2969,6.58503 2.2618,13.49651 2.9062,24.65625 1.6223,28.08854 19.4492,41.76959 41.6563,51.0625 8.6855,16.35932 10.4921,56.44468 30.4375,22.28125 11.439,-19.5933 24.9954,-32.01793 9,-51.5 l 2.5,-117.5 c 0.5211,-24.48967 -26.3173,-43.28905 -44,-48 -56.4906,-15.05003 -33.0607,-53.51423 -32.2812,-81.375 0.6588,-23.55339 -19.4157,-44.0498 -28.4376,-53.0625 17.3106,-38.64938 49.8419,-132.51782 30.0626,-143.96875 -9.812,-5.68044 -63.7292,-8.70173 -105.5313,-13.5 z M 802.5,350.46875 c -3.89609,68.46607 -7.70667,136.95614 -7,203.03125 0.17733,16.5804 1.52309,30.56409 6,45.5 -13.64549,32.44528 -40.16351,56.35381 -37.5,115.5 3.11163,69.09715 -3.76651,160.81862 27.5,178.5 26.55638,15.01778 47.93996,27.10015 46.5,-8.5 24.29395,0.34054 56.02633,-63.49779 80,-104.5 l 24,-33 7,-11.5 c -5.4859,-54.50313 -11.11214,-135.64175 -41,-195 3.86244,-6.27647 3.40827,-14.46886 -0.15625,-22.3125 -14.59504,-29.33703 -8.0274,-56.25382 -21.10631,-90.76808 L 897.5,419.96875 c -0.31394,-2.93457 -0.5983,-5.43605 -0.90625,-7.625 -9.22185,-2.37849 -19.30474,-7.0112 -31.65625,-13.4375 -14.62157,-7.60737 -25.62885,-18.64402 -34.15625,-31.8125 -12.31899,-1.06591 -24.62148,-4.84374 -28.28125,-16.625 z"
     id="path3178"
     style="fill:#7ca5ce;fill-opacity:1;stroke:#091125;stroke-width:2;stroke-linecap:butt;stroke-linejoin:miter;stroke-miterlimit:4;stroke-opacity:1;stroke-dasharray:none" />
  <path
     d="m 1005.9375,294.3125 c 5.3962,12.03774 5.0045,27.79495 -10.34375,41.40625 -3.78532,17.73272 -12.5673,34.63421 -29.71875,50.09375 -0.8022,5.54666 0.42563,15.78707 1.86336,20.90241 5.36037,0.15236 22.51294,-1.66618 30.69909,-2.27741 1.24834,-0.0661 2.53125,-0.1314 3.75005,-0.1875 l 0.5937,-0.0312 c 0.2817,-3.82232 1.1449,-7.75945 3.5938,-13.125 4.4737,-9.80232 14.8827,-15.17336 21.4062,4.0625 6.7603,19.93384 3.7747,40.94436 1.6563,62.71875 11.3697,-35.77103 17.4356,-70.5033 8.9375,-102.21875 -2.7322,-10.19667 11.8728,-11.29542 25.625,-11.40625 8.8366,-0.0712 17.2347,-0.50004 31.5,0.25 17.3155,0.91042 1.4353,49.25622 -7.0312,82.28125 3.4118,-8.853 6.9326,-18.5801 10.25,-28.5625 0.8231,-2.47685 1.6441,-4.96994 2.4374,-7.46875 0.01,-0.019 -0.01,-0.0435 0,-0.0625 0.7992,-2.51782 1.5847,-5.0418 2.3438,-7.5625 0.3785,-1.25695 0.7582,-2.49594 1.125,-3.75 0.3692,-1.2645 0.7377,-2.52255 1.0938,-3.78125 0.047,-0.16671 0.078,-0.3334 0.125,-0.5 0.6587,-2.33585 1.2995,-4.66467 1.9062,-6.96875 3.9021,-14.82688 6.6548,-28.79784 7.1875,-39.6875 0.1326,-2.71051 0.126,-5.23826 -0.031,-7.53125 -7e-4,-0.0105 8e-4,-0.0207 0,-0.0312 -0.039,-0.56469 -0.099,-1.12021 -0.1562,-1.65625 0,-0.0105 0,-0.0208 0,-0.0312 -0.057,-0.53496 -0.1118,-1.05746 -0.1875,-1.5625 0,-0.0105 0,-0.0207 0,-0.0312 -0.076,-0.50383 -0.1868,-0.96482 -0.2813,-1.4375 0,-0.0102 0,-0.0211 0,-0.0312 -0.095,-0.4717 -0.1991,-0.93571 -0.3124,-1.375 0,-0.0101 0,-0.0212 0,-0.0312 -0.1137,-0.43799 -0.2434,-0.84699 -0.375,-1.25 0,-0.01 0,-0.0217 0,-0.0312 -0.132,-0.40192 -0.2875,-0.78921 -0.4376,-1.15625 0,-0.009 0,-0.0224 0,-0.0312 -0.3042,-0.74051 -0.6522,-1.40181 -1.0312,-2 0,-0.007 0,-0.0241 0,-0.0312 -0.7695,-1.20779 -1.6989,-2.12341 -2.7812,-2.75 -0.3309,-0.19155 -0.746,-0.39903 -1.2188,-0.59375 -0.2749,-0.11266 -0.6172,-0.23078 -0.9375,-0.34375 -0.2106,-0.0741 -0.4582,-0.14452 -0.6875,-0.21875 -0.2384,-0.0765 -0.5232,-0.1735 -0.7812,-0.25 -0.3716,-0.11033 -0.8086,-0.23378 -1.2188,-0.34375 -1.3431,-0.3566 -2.9024,-0.71407 -4.625,-1.0625 -0.1349,-0.0272 -0.3005,-0.0666 -0.4375,-0.0937 -1.2259,-0.24272 -2.553,-0.48735 -3.9375,-0.71875 -0.1851,-0.0314 -0.3747,-0.0625 -0.5625,-0.0937 -0.3233,-0.0528 -0.7001,-0.10383 -1.0313,-0.15625 -1.3903,-0.22331 -2.8263,-0.44338 -4.3437,-0.65625 -0.078,-0.011 -0.1713,-0.0203 -0.25,-0.0312 -0.1775,-0.0248 -0.3833,-0.0377 -0.5625,-0.0625 -1.8196,-0.25051 -3.7382,-0.50759 -5.7188,-0.75 -0.4125,-0.051 -0.8622,-0.10552 -1.2812,-0.15625 -0.1192,-0.0143 -0.2553,-0.017 -0.375,-0.0312 -5.4035,-0.64261 -11.2996,-1.2897 -17.5312,-1.90625 -3.1849,-0.3151 -6.4601,-0.6213 -9.7813,-0.9375 -15.735,-1.49808 -32.6618,-2.99994 -48.125,-4.75 z m -202.65625,60.375 c -1.88809,33.22482 -3.75902,66.4491 -5.0625,99.375 -0.0123,0.31146 -0.019,0.62609 -0.0312,0.9375 -0.48208,12.27325 -0.88546,24.47892 -1.1875,36.65625 -0.005,0.1872 0.005,0.37533 0,0.5625 -0.0337,1.37608 -0.0628,2.75036 -0.0937,4.125 -0.13559,6.01532 -0.26342,12.01432 -0.34375,18 -0.01,0.72896 -0.0223,1.45901 -0.0312,2.1875 -10e-4,0.11426 0.001,0.2295 0,0.34375 -0.0484,4.01664 -0.0731,8.02952 -0.0937,12.03125 -3.8e-4,0.0728 3.7e-4,0.14594 0,0.21875 -0.0204,4.05312 -0.0413,8.08829 -0.0312,12.125 0.0101,4.09236 0.0502,8.1757 0.0937,12.25 0.0221,2.06654 0.0625,4.10356 0.125,6.09375 0.0625,1.99019 0.13964,3.94697 0.25,5.875 0.66214,11.56819 2.26116,22.1318 5.59375,33.25 l 0.0937,0.34375 -0.15625,0.3125 c -12.89711,30.66584 -36.806,53.28251 -37.5625,104.46875 -0.0252,1.70621 -0.0275,3.44769 0,5.21875 0.0275,1.77106 0.0734,3.56762 0.15625,5.40625 0.19478,4.32519 0.34037,8.74226 0.46875,13.21875 0.38513,13.42947 0.53953,27.43445 0.75,41.375 0.28063,18.58741 0.68287,37.05663 1.96875,53.90625 0.17148,2.24696 0.35787,4.47144 0.5625,6.65625 0.10584,1.12737 0.22836,2.23465 0.34375,3.34375 0.16545,1.59443 0.34501,3.16399 0.53125,4.71875 0.0249,0.20762 0.0372,0.41811 0.0625,0.625 0.11576,0.94819 0.21972,1.91145 0.34375,2.84375 0.0167,0.12484 0.0457,0.25045 0.0625,0.375 0.0471,0.35028 0.10789,0.6833 0.15625,1.03125 0.11476,0.82433 0.22204,1.65775 0.34375,2.46875 0.0887,0.59167 0.18873,1.19695 0.28125,1.78125 0.26474,1.67187 0.5465,3.29772 0.84375,4.90625 2.05936,-44.84006 0.87795,-87.58235 16.96875,-121.78125 7.24147,-15.39081 19.83494,-43.80977 32.25,-42.03125 12.54941,1.79777 0.66603,36.63539 35,54.4375 12.40138,6.43009 22.77813,9.87233 33.1875,14.1875 -44.33507,-22.00381 -35.63587,-108.596 -73.59375,-147.875 -4.08957,-4.2319 -6.52685,-11.00936 -6.4375,-17.09375 0.29071,-19.79541 24.20784,-47.08404 31.40625,-53.8125 7.43683,16.36089 12.40416,23.50374 18.09375,33.3125 -4.7195,-17.69907 0.63698,-23.67456 12.125,-32.1875 8.07353,-5.98271 19.02328,-11.76969 36.6875,0.625 0.0304,-0.0532 0.064,-0.10272 0.0937,-0.15625 -22.54813,-25.34827 -69.03157,-24.23289 -96.0625,-43.75 -3.40535,-12.44434 4.2921,-25.39118 8.0625,-31.34375 3.55733,-5.61618 12.90849,-30.26491 27,-8 3.35651,-6.60691 8.09168,-14.48734 14.75,-20.75 6.05179,-5.69217 11.92815,-17.30621 23.03125,-12.8125 1.23748,1.04149 1.38956,2.84148 1.4218,4.26539 4.47391,-2.8744 5.87251,-4.08321 10.79159,-7.42478 -0.24812,-2.28741 -0.59477,-4.64079 -0.83839,-6.43436 -9.16838,-2.46029 -19.10959,-7.02855 -31.1875,-13.3125 -14.63597,-7.61486 -25.68503,-18.64855 -34.25,-31.75 -6.0758,-0.55954 -12.16439,-1.77133 -17.28125,-4.34375 -4.03216,-2.0271 -7.41284,-4.96894 -9.65625,-9 z m 86.3125,402.03125 c 1.0202,0.49228 2.05751,0.95035 3.125,1.375 0.003,-0.01 -0.003,-0.0214 0,-0.0312 -1.04317,-0.45621 -2.08366,-0.9094 -3.125,-1.34375 z"
     id="path3209"
     style="fill:#173859;fill-opacity:1;stroke:none" />
  <path
     d="m 1029.5,458 c 17.9225,-56.69059 22.0737,-110.53195 -21.627,-154.47289"
     id="path3180"
     style="fill:none;stroke:#091125;stroke-width:2;stroke-linecap:butt;stroke-linejoin:miter;stroke-miterlimit:4;stroke-opacity:1;stroke-dasharray:none" />
  <path
     d="m 784.18143,401.53104 c -0.59963,-24.37381 -2.00369,-48.61356 2.82842,-73.89266 5.49073,23.85664 6.39107,48.53299 37.12311,67.88225 -5.90565,-47.46906 -16.09461,-95.95796 -3.18198,-138.94648 15.03284,-10.25244 25.24983,-31.34052 36.76955,-49.49748 -10.293,38.37951 -22.85113,74.4939 -40.65864,105.35891 20.8345,-22.29902 37.00301,-49.26402 51.26524,-78.1353 -3.03774,19.637 -2.19631,37.51075 -14.84924,61.51829 34.51805,-23.49577 45.68086,-54.77662 64.70027,-83.4386 7.31667,10.39519 13.29942,25.45907 18.73833,42.42641 2.47253,-14.45562 2.81285,-28.20051 2.47488,-41.7193 26.26927,39.57519 36.15756,81.81705 21.92031,127.98633 9.64009,-17.64462 18.03064,-34.78942 22.98097,-50.55814 2.22719,13.23101 8.14585,32.2629 16.97055,55.86144 6.6582,-19.5928 12.8412,-39.23311 10.2531,-59.75053 10.3075,10.86819 24.4627,21.18671 41.3657,31.1127 -13.217,-22.61073 -25.9361,-45.13845 -33.5876,-66.82159 5.0486,-22.48102 1.7984,-32.51387 1.7678,-47.37615 9.9513,11.31371 19.6968,22.62741 31.4663,33.94112 -2.7735,-32.17222 -11.7851,-62.56213 -34.2947,-89.09545 16.5535,0.009 33.215,0.50348 51.6188,8.83883 -18.9886,-23.94628 -46.6552,-26.1975 -72.83203,-32.17336 C 970.08289,90.48132 909.87835,60.484277 883.88348,99.242886 852.22395,95.340273 829.2943,104.8235 811.75859,122.57741 c -40.35533,-29.327293 -29.88495,5.52528 -32.52691,36.06245 -29.85992,38.6148 -51.44145,65.69228 -64.70027,89.449 18.1047,-13.38742 39.27633,-29.16023 49.49747,-36.41599 -6.17216,33.09814 -17.59315,72.49488 -28.28427,111.01576 9.07454,-9.44344 18.14907,-20.62802 27.22361,-35.70889 1.00214,40.35124 -4.73537,83.1095 21.21321,114.5513 z"
     id="path4059"
     style="fill:#4374a3;fill-opacity:1;stroke:#091125;stroke-width:2;stroke-linecap:butt;stroke-linejoin:miter;stroke-miterlimit:4;stroke-opacity:1;stroke-dasharray:none" />
  <path
     d="m 941.50001,746.5 c -31.36327,-69.67884 -42.31879,-85.59846 -55.35167,-131.26035 1.8823,3.23488 2.60918,5.72413 6.3972,13.27267 12.41709,24.74404 14.03416,-14.79006 21.38998,-12.9047 5.62985,1.44298 3.46702,64.2717 11.56449,96.14238"
     id="path3232"
     style="fill:#173859;fill-opacity:1;stroke:none" />
  <path
     d="m 866.81067,626.17678 c 14.78856,0.23495 14.92794,1.49665 8.23223,10.18934 -4.55566,5.91437 -9.65017,10.83253 -16.29289,1.88388 -5.60766,-7.55427 -8.22692,-12.332 8.06066,-12.07322 z"
     id="path3228"
     style="fill:#173859;fill-opacity:1;stroke:none" />
  <path
     d="m 1060.3709,610.27542 c -12.8157,0.13692 -30.7955,-14.81206 -34.7459,-9.52542 -5.1616,6.90746 21.0658,27.84509 31.5965,50.12 2.6792,-15.24769 3.5118,-29.24182 3.1494,-40.59458 z"
     id="path3237"
     style="fill:#173859;fill-opacity:1;stroke:none" />
  <path
     d="m 1079.1562,451.40625 c -17.491,18.32751 -41.6655,40.00082 -66.3124,61.90625 0,0.19728 0.029,0.3967 0.031,0.59375 18.9687,-8.05407 27.0102,4.02161 34.375,17.34375 1.677,-14.87268 0.6556,-35.03285 5.5,-39.5 4.1228,-3.80176 12.473,-3.02024 19,2.75 9.9416,8.78893 5.4566,25.37772 2.875,46.875 2.8075,-7.75786 5.6215,-15.57539 7.6875,-23.78125 1.1586,-4.60232 12.3426,-10.22014 12.125,9.21875 -0.3535,31.59282 10.4472,53.56912 13.3437,66.59375 3.8116,25.21289 8.4709,48.78798 9.6876,86.09375 -5.1662,13.57329 -10.2091,19.17361 -16.9688,28.34375 1.485,5.67596 0.8968,11.92936 1.4062,20.75 0.7996,13.84323 5.5537,24.02567 12.8438,31.96875 4.9278,5.36919 11.0602,9.66908 17.9062,13.34375 -25.1607,-19.54047 -23.8317,-55.63685 -7.375,-73.09375 8.7156,-9.24499 26.8655,-32.00286 33.6563,-35.1875 9.0317,-1.13871 16.3763,3.70405 23.6875,8.59375 l 0.875,-41.25 c 0.2527,-11.87434 -6.1541,-22.43259 -14.875,-30.65625 -8.7209,-8.22366 -19.7318,-14.04106 -28.375,-16.34375 -14.2416,-3.7942 -23.5649,-9.10024 -29.4688,-15.4375 -5.9036,-6.33726 -8.341,-13.69476 -8.9062,-21.34375 -1.1305,-15.29799 4.9615,-31.89924 5.3438,-45.5625 0.6402,-22.88779 -19.0085,-43.1693 -28.0626,-52.21875 z"
     id="path3220"
     style="fill:#173859;fill-opacity:1;stroke:none" />
  <path
     d="m 1001,382 0.5,-31"
     id="path3182"
     style="fill:none;stroke:#091125;stroke-width:2;stroke-linecap:butt;stroke-linejoin:miter;stroke-miterlimit:4;stroke-opacity:1;stroke-dasharray:none" />
  <path
     d="M 998,404.25 979.5,382"
     id="path3184"
     style="fill:none;stroke:#091125;stroke-width:2;stroke-linecap:butt;stroke-linejoin:miter;stroke-miterlimit:4;stroke-opacity:1;stroke-dasharray:none" />
  <path
     d="M 851.76022,390.40629 853.5,408.5"
     id="path3186"
     style="fill:none;stroke:#091125;stroke-width:2;stroke-linecap:butt;stroke-linejoin:miter;stroke-miterlimit:4;stroke-opacity:1;stroke-dasharray:none" />
  <path
     d="m 832.5,404.5 c 7.63924,65.18888 34.24074,79.00763 70.5,106"
     id="path3188"
     style="fill:none;stroke:#091125;stroke-width:2;stroke-linecap:butt;stroke-linejoin:miter;stroke-miterlimit:4;stroke-opacity:1;stroke-dasharray:none" />
  <path
     d="m 1052,675.5 c 22.1156,-88.33333 -6.1387,-105.16667 -9.5,-188.5"
     id="path3190"
     style="fill:none;stroke:#091125;stroke-width:2;stroke-linecap:butt;stroke-linejoin:miter;stroke-miterlimit:4;stroke-opacity:1;stroke-dasharray:none" />
  <path
     d="m 1011.5,514.5 c 25.7391,-22.86953 51.1041,-45.55204 69,-64.5"
     id="path3192"
     style="fill:none;stroke:#000000;stroke-width:1px;stroke-linecap:butt;stroke-linejoin:miter;stroke-opacity:1" />
  <path
     d="m 1074.5,541.5 c 5.4303,-14.78487 10.7828,-29.6086 11,-47"
     id="path3194"
     style="fill:none;stroke:#091125;stroke-width:2;stroke-linecap:butt;stroke-linejoin:miter;stroke-miterlimit:4;stroke-opacity:1;stroke-dasharray:none" />
  <path
     d="m 1103,547 c 2.818,50.88418 12.6178,75.87332 14.4645,132.5 -5.2984,13.92077 -10.4391,19.3969 -17.4645,29"
     id="path3196"
     style="fill:none;stroke:#091125;stroke-width:2;stroke-linecap:butt;stroke-linejoin:miter;stroke-miterlimit:4;stroke-opacity:1;stroke-dasharray:none" />
  <path
     d="M 941.50001,746.5 C 910.13674,676.82116 899.18122,660.90154 886.14834,615.23965 876.05794,579.88705 842.72778,581.3587 852.37869,512.70711"
     id="path3191"
     style="fill:none;stroke:#091125;stroke-width:2;stroke-linecap:butt;stroke-linejoin:miter;stroke-miterlimit:4;stroke-opacity:1;stroke-dasharray:none" />
  <path
     d="m 908.00001,540 c -27.47022,-31.89862 -91.84066,-22.77665 -111.5,-61.50001"
     id="path3193"
     style="fill:none;stroke:#091125;stroke-width:2;stroke-linecap:butt;stroke-linejoin:miter;stroke-miterlimit:4;stroke-opacity:1;stroke-dasharray:none" />
  <path
     d="m 1153.5,764.5 c 5.555,-7.18555 10.3591,-14.87173 14.5,-23"
     id="path3195"
     style="fill:none;stroke:#091125;stroke-width:2;stroke-linecap:butt;stroke-linejoin:miter;stroke-miterlimit:4;stroke-opacity:1;stroke-dasharray:none" />
  <path
     d="m 797.00001,859 c -13.80162,-23.98279 -21.24418,-50.08527 -31.5,-75.25"
     id="path3197"
     style="fill:none;stroke:#091125;stroke-width:2;stroke-linecap:butt;stroke-linejoin:miter;stroke-miterlimit:4;stroke-opacity:1;stroke-dasharray:none" />
  <path
     d="m 801.50554,597.75317 c 56.06109,31.68796 37.5064,140.51302 92.27744,160.8668"
     id="path3199"
     style="fill:none;stroke:#091125;stroke-width:2;stroke-linecap:butt;stroke-linejoin:miter;stroke-miterlimit:4;stroke-opacity:1;stroke-dasharray:none" />
  <path
     d="m 919.125,82.03125 c -0.95117,-0.0043 -1.90643,0.01546 -2.84375,0.0625 -2.49951,0.125447 -4.9701,0.425186 -7.34375,0.9375 -9.4946,2.049256 -17.85273,7.289454 -24.21875,16.78125 l -0.34375,0.5 -0.625,-0.0625 c -31.40612,-3.871375 -53.92665,5.46075 -71.28125,23.03125 l -0.59375,0.625 -0.71875,-0.53125 c -10.02927,-7.28854 -16.8699,-10.4951 -21.21875,-10.84375 -2.17442,-0.17432 -3.67984,0.30451 -4.875,1.28125 -1.19516,0.97674 -2.09659,2.55543 -2.75,4.65625 -1.30683,4.20165 -1.5421,10.44483 -1.5625,17.53125 -0.0204,7.08642 0.13554,15.01167 -0.53125,22.71875 l -0.0312,0.3125 -0.15625,0.21875 c -28.10999,36.35179 -48.59554,62.31531 -61.9375,84.96875 16.96263,-12.55761 35.95704,-26.71158 45.34375,-33.375 l 2.0312,-1.40625 L 765,211.84375 c -0.004,0.0199 0.004,0.0426 0,0.0625 16.84999,-20.44766 32.60853,-35.93068 61.3125,-53.875 30.46447,-19.0449 93.71932,-43.40822 134.59375,0.75 21.49338,23.22011 28.79457,48.68348 57.90625,89.53125 4.2597,-20.64259 1.2799,-30.32683 1.25,-44.78125 l 0,-2.65625 1.75,2 c 9.3434,10.62263 18.6227,21.19904 29.4063,31.78125 -3.0504,-30.95044 -12.0806,-60.08192 -33.75,-85.625 l -1.4063,-1.65625 2.1563,0 c 15.2912,0.008 30.8625,0.50644 47.7812,7.1875 -18.562,-20.34189 -44.2754,-22.84411 -69.1875,-28.53125 l -0.375,-0.0937 -0.21875,-0.28125 C 982.88572,108.54512 961.20672,92.491618 939.78125,85.5938 932.75102,83.330453 925.78319,82.061394 919.125,82.0313 z"
     id="path4082"
     style="fill:#0f2e51;fill-opacity:1;stroke:none" />
  <path
     d="m 764.00001,211.99999 c 10.70139,-29.91667 26.63204,-59.83333 48,-89.75"
     id="path4061"
     style="fill:none;stroke:#091125;stroke-width:2;stroke-linecap:butt;stroke-linejoin:miter;stroke-miterlimit:4;stroke-opacity:1;stroke-dasharray:none" />
  <path
     d="M 884.00001,99.176768 C 928.60737,99.892321 967.56329,124.1403 1021.25,203.99999"
     id="path4063"
     style="fill:none;stroke:#091125;stroke-width:2;stroke-linecap:butt;stroke-linejoin:miter;stroke-miterlimit:4;stroke-opacity:1;stroke-dasharray:none" />
  <path
     d="m 825.01684,230.41119 c -1.65963,9.3232 -4.11008,20.5847 -4.41941,28.1075"
     id="path4065"
     style="fill:none;stroke:#091125;stroke-width:2;stroke-linecap:butt;stroke-linejoin:miter;stroke-miterlimit:4;stroke-opacity:1;stroke-dasharray:none" />
  <path
     d="m 765.61988,271.24661 c -0.81772,7.37054 -1.86411,11.7143 -2.74005,17.94284"
     id="path4067"
     style="fill:none;stroke:#091125;stroke-width:2;stroke-linecap:butt;stroke-linejoin:miter;stroke-miterlimit:4;stroke-opacity:1;stroke-dasharray:none" />
  <path
     d="m 800.25001,223.49999 c -5.7445,8.76426 -9.03618,18.57973 -11.5,28.75"
     id="path4069"
     style="fill:none;stroke:#6797cb;stroke-width:4;stroke-linecap:round;stroke-linejoin:miter;stroke-miterlimit:4;stroke-opacity:1;stroke-dasharray:none" />
  <path
     d="m 818.00001,208.99999 c -4.16094,8.5 -7.13295,17 -8,25.5"
     id="path4071"
     style="fill:none;stroke:#6797cb;stroke-width:4;stroke-linecap:round;stroke-linejoin:miter;stroke-miterlimit:4;stroke-opacity:1;stroke-dasharray:none" />
  <path
     d="m 873.75001,179.99999 c -5.34438,9.25 -9.72734,18.5 -12.25,27.75"
     id="path4073"
     style="fill:none;stroke:#6797cb;stroke-width:4;stroke-linecap:round;stroke-linejoin:miter;stroke-miterlimit:4;stroke-opacity:1;stroke-dasharray:none" />
  <path
     d="m 890.00001,181.99999 c -3.36204,9.13907 -5.74346,18.08203 -6.75,26.75"
     id="path4075"
     style="fill:none;stroke:#6797cb;stroke-width:4;stroke-linecap:round;stroke-linejoin:miter;stroke-miterlimit:4;stroke-opacity:1;stroke-dasharray:none" />
  <path
     d="m 929.75001,172.49999 c 6.57175,9.34915 11.75665,18.92945 15.5,28.75"
     id="path4077"
     style="fill:none;stroke:#6797cb;stroke-width:4;stroke-linecap:round;stroke-linejoin:miter;stroke-miterlimit:4;stroke-opacity:1;stroke-dasharray:none" />
  <path
     d="m 942.25001,171.74999 c 4.91958,6.58139 8.99336,13.72665 12.5,21.25"
     id="path4080"
     style="fill:none;stroke:#6797cb;stroke-width:4;stroke-linecap:round;stroke-linejoin:miter;stroke-miterlimit:4;stroke-opacity:1;stroke-dasharray:none" />
  <path
     d="M 903.50001,833.5 C 993.31856,889.60787 1096.8312,825.85978 1137.5,784"
     id="path4096"
     style="fill:none;stroke:#0a162b;stroke-width:2;stroke-linecap:butt;stroke-linejoin:miter;stroke-miterlimit:4;stroke-opacity:1;stroke-dasharray:none" />
  <path
     d="m 1011.5163,802.10703 c 7.3727,17.77669 12.9938,37.77788 13.5563,61.43251"
     id="path4098"
     style="fill:none;stroke:#0a162b;stroke-width:2;stroke-linecap:butt;stroke-linejoin:miter;stroke-miterlimit:4;stroke-opacity:1;stroke-dasharray:none" />
  <path
     d="m 991.01016,804.93546 c 1.95823,21.56061 4.70068,32.29201 30.59494,30.40559"
     id="path4100"
     style="fill:none;stroke:#0a162b;stroke-width:2;stroke-linecap:butt;stroke-linejoin:miter;stroke-miterlimit:4;stroke-opacity:1;stroke-dasharray:none" />
</svg>
