<?xml version="1.0" encoding="UTF-8" standalone="no"?>
<!-- Created with Inkscape (http://www.inkscape.org/) -->

<svg
   xmlns:dc="http://purl.org/dc/elements/1.1/"
   xmlns:cc="http://creativecommons.org/ns#"
   xmlns:rdf="http://www.w3.org/1999/02/22-rdf-syntax-ns#"
   xmlns:svg="http://www.w3.org/2000/svg"
   xmlns="http://www.w3.org/2000/svg"
   version="1.1"
   width="1920"
   height="1080"
   id="svg2">
  <defs
     id="defs4">
    <filter
       x="-0.1204878"
       y="-0.11951613"
       width="1.2409756"
       height="1.2390323"
       color-interpolation-filters="sRGB"
       id="filter3964">
      <feGaussianBlur
         id="feGaussianBlur3966"
         stdDeviation="1.5594231" />
    </filter>
    <filter
       color-interpolation-filters="sRGB"
       id="filter4024">
      <feGaussianBlur
         id="feGaussianBlur4026"
         stdDeviation="0.62376923" />
    </filter>
    <filter
       color-interpolation-filters="sRGB"
       id="filter4044">
      <feGaussianBlur
         id="feGaussianBlur4046"
         stdDeviation="0.62376923" />
    </filter>
    <filter
       color-interpolation-filters="sRGB"
       id="filter4195">
      <feGaussianBlur
         id="feGaussianBlur4197"
         stdDeviation="1.4979688" />
    </filter>
  </defs>
  <metadata
     id="metadata7">
    <rdf:RDF>
      <cc:Work
         rdf:about="">
        <dc:format>image/svg+xml</dc:format>
        <dc:type
           rdf:resource="http://purl.org/dc/dcmitype/StillImage" />
        <dc:title></dc:title>
      </cc:Work>
    </rdf:RDF>
  </metadata>
  <g
     id="layer15"
     style="display:inline">
    <g
       id="layer16"
       style="display:inline">
      <path
         d="m 861.15503,357.74094 174.75637,0 0,54.54823 -174.75637,0 z"
         id="rect4199"
         style="fill:#e4ded3;fill-opacity:1;stroke:none;display:inline" />
      <path
         d="m 990.70712,379.08041 c 0,8.64733 -6.95351,15.65737 -15.53109,15.65737 -8.57759,0 -15.5311,-7.01004 -15.5311,-15.65737 0,-8.64732 6.95351,-15.65736 15.5311,-15.65736 8.57758,0 15.53109,7.01004 15.53109,15.65736 z"
         transform="matrix(1.0547047,0,0,1.0547047,-46.780701,-23.515392)"
         id="path3147"
         style="fill:#bb624a;fill-opacity:1;stroke:none;display:inline" />
      <path
         d="m 975.1875,361.5 c -9.6314,0 -17.46875,7.90955 -17.46875,17.59375 0,9.6842 7.83735,17.59375 17.46875,17.59375 9.6314,0 17.46875,-7.90955 17.46875,-17.59375 0,-9.6842 -7.83735,-17.59375 -17.46875,-17.59375 z m 0,3.84375 c 7.52378,0 13.59375,6.13956 13.59375,13.75 0,7.61044 -6.06997,13.71875 -13.59375,13.71875 -7.52378,0 -13.59375,-6.10831 -13.59375,-13.71875 0,-7.61044 6.06997,-13.75 13.59375,-13.75 z"
         transform="matrix(0.66229502,0,0,0.66229502,335.88781,125.23943)"
         id="path3152"
         style="font-size:medium;font-style:normal;font-variant:normal;font-weight:normal;font-stretch:normal;text-indent:0;text-align:start;text-decoration:none;line-height:normal;letter-spacing:normal;word-spacing:normal;text-transform:none;direction:ltr;block-progression:tb;writing-mode:lr-tb;text-anchor:start;baseline-shift:baseline;color:#000000;fill:#de9675;fill-opacity:1;stroke:none;stroke-width:3.86836672;marker:none;visibility:visible;display:inline;overflow:visible;filter:url(#filter4044);enable-background:accumulate;font-family:Sans;-inkscape-font-specification:Sans" />
      <path
         d="m 990.70712,379.08041 c 0,8.64733 -6.95351,15.65737 -15.53109,15.65737 -8.57759,0 -15.5311,-7.01004 -15.5311,-15.65737 0,-8.64732 6.95351,-15.65736 15.5311,-15.65736 8.57758,0 15.53109,7.01004 15.53109,15.65736 z"
         transform="matrix(0.31806771,0,0,0.31806771,671.06495,256.73941)"
         id="path3154"
         style="fill:#eac3a3;fill-opacity:1;stroke:none;display:inline;filter:url(#filter3964)" />
      <path
         d="m 975.1875,361.90625 c -9.41044,0 -17.0625,7.7207 -17.0625,17.1875 0,9.4668 7.65206,17.1875 17.0625,17.1875 9.41044,0 17.0625,-7.7207 17.0625,-17.1875 0,-9.4668 -7.65206,-17.1875 -17.0625,-17.1875 z m 0,3.03125 c 7.74473,0 14,6.3284 14,14.15625 0,7.82785 -6.25527,14.125 -14,14.125 -7.74473,0 -14,-6.29715 -14,-14.125 0,-7.82785 6.25527,-14.15625 14,-14.15625 z"
         transform="matrix(0.88976391,0,0,0.88976391,114.0656,39.010429)"
         id="path3150"
         style="font-size:medium;font-style:normal;font-variant:normal;font-weight:normal;font-stretch:normal;text-indent:0;text-align:start;text-decoration:none;line-height:normal;letter-spacing:normal;word-spacing:normal;text-transform:none;direction:ltr;block-progression:tb;writing-mode:lr-tb;text-anchor:start;baseline-shift:baseline;color:#000000;fill:#ebbc91;fill-opacity:1;stroke:none;stroke-width:3.05728006;marker:none;visibility:visible;display:inline;overflow:visible;filter:url(#filter4024);enable-background:accumulate;font-family:Sans;-inkscape-font-specification:Sans" />
      <path
         d="m 990.70712,379.08041 c 0,8.64733 -6.95351,15.65737 -15.53109,15.65737 -8.57759,0 -15.5311,-7.01004 -15.5311,-15.65737 0,-8.64732 6.95351,-15.65736 15.5311,-15.65736 8.57758,0 15.53109,7.01004 15.53109,15.65736 z"
         transform="matrix(-0.8780366,-0.31930206,-0.31930206,0.8780366,1876.1639,355.55998)"
         id="path4064"
         style="fill:#bb624a;fill-opacity:1;stroke:none;display:inline" />
      <path
         d="m 975.1875,361.5 c -9.6314,0 -17.46875,7.90955 -17.46875,17.59375 0,9.6842 7.83735,17.59375 17.46875,17.59375 9.6314,0 17.46875,-7.90955 17.46875,-17.59375 0,-9.6842 -7.83735,-17.59375 -17.46875,-17.59375 z m 0,3.84375 c 7.52378,0 13.59375,6.13956 13.59375,13.75 0,7.61044 -6.06997,13.71875 -13.59375,13.71875 -7.52378,0 -13.59375,-6.10831 -13.59375,-13.71875 0,-7.61044 6.06997,-13.75 13.59375,-13.75 z"
         transform="matrix(-0.53367274,-0.19407254,-0.19407254,0.53367274,1492.2511,363.80237)"
         id="path4068"
         style="font-size:medium;font-style:normal;font-variant:normal;font-weight:normal;font-stretch:normal;text-indent:0;text-align:start;text-decoration:none;line-height:normal;letter-spacing:normal;word-spacing:normal;text-transform:none;direction:ltr;block-progression:tb;writing-mode:lr-tb;text-anchor:start;baseline-shift:baseline;color:#000000;fill:#de9675;fill-opacity:1;stroke:none;stroke-width:3.86836672;marker:none;visibility:visible;display:inline;overflow:visible;filter:url(#filter4044);enable-background:accumulate;font-family:Sans;-inkscape-font-specification:Sans" />
      <path
         d="m 990.70712,379.08041 c 0,8.64733 -6.95351,15.65737 -15.53109,15.65737 -8.57759,0 -15.5311,-7.01004 -15.5311,-15.65737 0,-8.64732 6.95351,-15.65736 15.5311,-15.65736 8.57758,0 15.53109,7.01004 15.53109,15.65736 z"
         transform="matrix(-0.26478985,-0.09629205,-0.09629205,0.26478985,1192.4663,369.94253)"
         id="path4070"
         style="fill:#eac3a3;fill-opacity:1;stroke:none;display:inline;filter:url(#filter3964)" />
      <path
         d="m 975.1875,361.90625 c -9.41044,0 -17.0625,7.7207 -17.0625,17.1875 0,9.4668 7.65206,17.1875 17.0625,17.1875 9.41044,0 17.0625,-7.7207 17.0625,-17.1875 0,-9.4668 -7.65206,-17.1875 -17.0625,-17.1875 z m 0,3.03125 c 7.74473,0 14,6.3284 14,14.15625 0,7.82785 -6.25527,14.125 -14,14.125 -7.74473,0 -14,-6.29715 -14,-14.125 0,-7.82785 6.25527,-14.15625 14,-14.15625 z"
         transform="matrix(-0.74072422,-0.26936777,-0.26936777,0.74072422,1723.0631,359.007)"
         id="path4066"
         style="font-size:medium;font-style:normal;font-variant:normal;font-weight:normal;font-stretch:normal;text-indent:0;text-align:start;text-decoration:none;line-height:normal;letter-spacing:normal;word-spacing:normal;text-transform:none;direction:ltr;block-progression:tb;writing-mode:lr-tb;text-anchor:start;baseline-shift:baseline;color:#000000;fill:#ebbc91;fill-opacity:1;stroke:none;stroke-width:3.05728006;marker:none;visibility:visible;display:inline;overflow:visible;filter:url(#filter4024);enable-background:accumulate;font-family:Sans;-inkscape-font-specification:Sans" />
      <path
         d="m 853.5625,300 0,163.21875 205.375,0 0,-163.21875 -205.375,0 z m 126.75,70.3125 c 8.47186,-0.0253 17.03474,4.44806 25.5625,8 -3.3375,9.16863 -6.98417,22.06871 -23.875,21.46875 -13.63229,-0.48422 -26.35082,-9.54304 -18.9375,-21.34375 5.70312,-5.99583 11.45346,-8.10768 17.25,-8.125 z m -87.125,0.46875 c 9.27456,0.0657 17.72454,2.25596 22.6875,13.625 2.59897,12.06835 -10.72335,15.7552 -22.21875,12.03125 -14.24317,-4.61407 -13.37226,-16.45052 -13.375,-25.09375 4.30244,-0.19752 8.69054,-0.59236 12.90625,-0.5625 z"
         id="rect4143"
         style="fill:#c6b9a4;fill-opacity:1;stroke:none;display:inline" />
      <path
         d="m 921.51786,401.60714 c 0.86091,0.77789 -2.48097,7.4534 -3.75,7.14286 -0.89134,-0.62108 2.68137,-7.43357 3.75,-7.14286 z"
         id="path3028"
         style="fill:#b3a695;fill-opacity:1;stroke:none;display:inline" />
      <path
         d="m 853.5625,300 0,79.1875 27.09375,1.96875 c -0.47326,-3.36263 -0.37404,-6.78576 -0.375,-9.8125 4.30244,-0.19752 8.69054,-0.59236 12.90625,-0.5625 9.07661,0.0643 17.34223,2.19142 22.34375,12.9375 l 45.5,3.3125 c -0.47029,-2.60596 0.0933,-5.50883 2.03125,-8.59375 5.70312,-5.99583 11.45346,-8.10768 17.25,-8.125 8.47186,-0.0253 17.03474,4.44806 25.5625,8 -1.3339,3.66451 -2.7414,7.89976 -5,11.65625 l 58.0625,4.25 0,-94.21875 -205.375,0 z"
         id="path4171"
         style="fill:#91877b;fill-opacity:1;stroke:none;display:inline;filter:url(#filter4195)" />
      <path
         d="m 915.41833,384.29435 c -1.73176,-15.67151 -21.45395,-16.75095 -35.80778,-15.9455 -0.64858,3.2598 -0.62678,6.56056 0.3737,10.19681 0.35115,-3.96159 0.69844,-5.44651 1.4716,-6.76438 15.40955,-0.62115 26.47861,-0.23738 33.96248,12.51307 z"
         id="path4072"
         style="fill:#000000;stroke:none;display:inline" />
      <path
         d="m 958.80864,384.95405 c 5.66895,-21.25114 35.32388,-15.87257 49.31646,-10.57904 -0.5696,3.70856 -2.268,8.22469 -4.7323,11.69642 0.665,-3.87336 0.5819,-5.03617 0.537,-7.17176 -16.18684,-6.15791 -33.2478,-9.94146 -45.12116,6.05438 z"
         id="path3141"
         style="fill:#000000;stroke:none;display:inline" />
    </g>
  </g>
</svg>
