<?xml version="1.0" encoding="UTF-8" standalone="no"?>
<!-- Created with Inkscape (http://www.inkscape.org/) -->

<svg
   xmlns:dc="http://purl.org/dc/elements/1.1/"
   xmlns:cc="http://creativecommons.org/ns#"
   xmlns:rdf="http://www.w3.org/1999/02/22-rdf-syntax-ns#"
   xmlns:svg="http://www.w3.org/2000/svg"
   xmlns="http://www.w3.org/2000/svg"
   version="1.1"
   width="1920"
   height="1080"
   id="svg2">
  <defs
     id="defs4" />
  <metadata
     id="metadata7">
    <rdf:RDF>
      <cc:Work
         rdf:about="">
        <dc:format>image/svg+xml</dc:format>
        <dc:type
           rdf:resource="http://purl.org/dc/dcmitype/StillImage" />
        <dc:title></dc:title>
      </cc:Work>
    </rdf:RDF>
  </metadata>
  <g
     id="layer7"
     style="display:inline">
    <g
       id="g4298"
       style="display:inline">
      <path
         d="m 1202.7101,695.45675 73.9965,51.25403 -123.3771,13.19523 -23.3266,-46.60863 z"
         id="path4320"
         style="fill:#191918;fill-opacity:1;stroke:#000000;stroke-width:1px;stroke-linecap:butt;stroke-linejoin:miter;stroke-opacity:1;display:inline" />
      <path
         d="m 1273.3999,732.09473 c -20.58,-1.45229 -9.3016,-1.46959 -39.3885,-17.78488 -12.9155,2.51951 -18.8863,1.61968 -26.0693,-1.08041 -26.5665,2.69073 -50.2862,6.93503 -80.6152,7.57241 -8.283,-0.0417 -15.0313,8.62894 -22.1158,4.30686 l 12.5849,-75.25741 c 23.4904,-17.84927 40.1037,-1.97018 68.1944,16.36379 l 51.507,26.94007 z"
         id="path4316"
         style="fill:#191918;fill-opacity:1;stroke:#000000;stroke-width:1px;stroke-linecap:butt;stroke-linejoin:miter;stroke-opacity:1" />
      <path
         d="m 1330.9485,709.88709 c -27.4179,10.66858 -64.6462,11.18599 -92.7582,-22.825 l -65.3511,-45.05819 c -50.2515,31.05217 -28.5116,18.81501 -83.5698,49.79314 3.992,6.44365 7.8721,17.36097 24.9154,25.26547 l 58.3306,-45.50323 c 16.7341,3.24639 36.5878,12.95103 51.283,19.40817 33.3747,49.76466 73.2995,47.95271 107.1501,18.91964 z"
         id="path4314"
         style="fill:#191918;fill-opacity:1;stroke:#000000;stroke-width:1px;stroke-linecap:butt;stroke-linejoin:miter;stroke-opacity:1" />
      <path
         d="m 1232.1805,654.91546 c -11.2467,-13.11404 -12.5733,-30.36196 -38.3348,-23.92236 -14.0719,-9.53582 -28.6772,-25.0948 -43.2323,-34.86216 l -99.9187,47.97684 c 28.5773,21.13229 69.4011,51.50144 94.217,17.11508 10.8796,3.76508 18.511,2.91698 24.1539,-0.28365 2.6282,2.00188 3.8404,2.87055 10.9173,1.14552 14.4152,11.16911 20.3444,16.23639 30.6706,9.81074 4.0808,5.71699 8.4247,7.6879 13.4885,4.25229 5.3153,2.23051 9.757,5.72822 14.8695,8.4522 29.8631,26.44459 61.3858,24.54654 112.091,-19.68973 -54.485,0.5035 -71.8519,6.63981 -118.922,-9.99477 z"
         id="path4312"
         style="fill:#191918;fill-opacity:1;stroke:#000000;stroke-width:1px;stroke-linecap:butt;stroke-linejoin:miter;stroke-opacity:1" />
      <path
         d="m 1250.4051,646.18493 c -14.8885,5.95517 -37.2145,-10.92882 -62.0772,-27.54459 -22.1821,9.71398 -40.1535,3.91647 -65.7816,-0.24978 l -46.0911,9.63643 c -32.6687,42.46346 -61.7418,-4.03772 -84.2536,-17.65963 l 45.7405,-29.65926 119.1926,7.8542 c 26.3856,3.82463 52.3813,22.72812 79.0002,28.51422 25.7323,5.59333 43.5517,-11.83669 48.9813,-9.50935 0.1253,2.26075 -15.27,30.84163 -34.7111,38.61776 z"
         id="path4310"
         style="fill:#191918;fill-opacity:1;stroke:#000000;stroke-width:1px;stroke-linecap:butt;stroke-linejoin:miter;stroke-opacity:1" />
      <path
         d="m 1114.8118,560.50616 c 20.238,-22.32697 37.5897,-12.51335 52.8651,2.21676 26.9996,26.03591 43.464,10.62519 51.5388,19.7686 -3.8546,9.75498 -31.7809,21.52338 -53.031,2.70367 -17.6453,8.74079 -34.5415,14.23401 -47.4159,2.29066 l -55.9941,3.10693 -32.3584,-63.60867 53.698,-21.09808 z"
         id="path4302"
         style="fill:#191918;fill-opacity:1;stroke:#000000;stroke-width:1px;stroke-linecap:butt;stroke-linejoin:miter;stroke-opacity:1" />
      <path
         d="m 1086.5867,551.15132 c 54.6414,14.30866 13.792,41.33755 -8.119,38.76611 l -12.2567,0.93436 -23.1627,-46.64738 30.6748,-8.34238 z"
         id="path4308"
         style="fill:#191918;fill-opacity:1;stroke:#000000;stroke-width:1px;stroke-linecap:butt;stroke-linejoin:miter;stroke-opacity:1" />
      <path
         d="m 1084.2516,545.18006 c 5.3796,6.81097 26.6011,26.8839 -0.453,38.96781 6.6619,-7.57442 -3.7539,-19.89078 -7.4432,-30.68511 z"
         id="path4306"
         style="fill:#191918;fill-opacity:1;stroke:#000000;stroke-width:1px;stroke-linecap:butt;stroke-linejoin:miter;stroke-opacity:1" />
      <path
         d="m 1060.5213,565.49208 c 9.6295,-2.82054 16.7627,-1.93947 22.3154,5.3907 l 35.8893,-3.04177 c 4.1845,0.44523 15.1412,1.02408 17.0599,2.97998 -1.4449,2.64893 -7.1964,5.6788 -16.0711,9.95904 l -53.5578,5.3464 z"
         id="path4304"
         style="fill:#191918;fill-opacity:1;stroke:#000000;stroke-width:1px;stroke-linecap:butt;stroke-linejoin:miter;stroke-opacity:1" />
    </g>
  </g>
</svg>
