<?xml version="1.0" encoding="UTF-8" standalone="no"?>
<!-- Created with Inkscape (http://www.inkscape.org/) -->

<svg
   xmlns:dc="http://purl.org/dc/elements/1.1/"
   xmlns:cc="http://creativecommons.org/ns#"
   xmlns:rdf="http://www.w3.org/1999/02/22-rdf-syntax-ns#"
   xmlns:svg="http://www.w3.org/2000/svg"
   xmlns="http://www.w3.org/2000/svg"
   version="1.1"
   width="1920"
   height="1080"
   id="svg2">
  <defs
     id="defs4" />
  <metadata
     id="metadata7">
    <rdf:RDF>
      <cc:Work
         rdf:about="">
        <dc:format>image/svg+xml</dc:format>
        <dc:type
           rdf:resource="http://purl.org/dc/dcmitype/StillImage" />
        <dc:title></dc:title>
      </cc:Work>
    </rdf:RDF>
  </metadata>
  <g
     id="layer7"
     style="display:inline">
    <g
       id="g4172"
       style="display:inline">
      <path
         d="m 1207.723,680.76392 c -29.1709,-13.36894 -38.0712,-8.19046 -52.5362,-10.40181 -20.2482,-6.81182 -5.0169,-33.25511 -39.6382,-40.34627 -78.2687,1.78646 -0.8758,62.63695 -35.0546,67.51573 -13.9928,-7.86075 -32.2238,-9.63494 -51.2795,-15.03687 -11.522,-7.6277 -15.2123,-30.74205 -23.4203,-46.76464 -15.64819,-16.37829 -44.96074,-23.34432 -55.31599,-25.83444 12.2906,26.71585 20.51709,79.43223 57.05379,90.05324 11.1249,-5.15668 24.5492,0.0832 41.3603,2.19272 5.6257,6.16749 7.9534,10.66701 18.9989,7.1617 10.5445,8.86996 51.0426,-14.39585 66.1734,-16.36403 28.987,19.916 64.4749,-7.36957 73.6584,-12.17531 z"
         id="path4184"
         style="fill:#191918;fill-opacity:1;stroke:#000000;stroke-width:1px;stroke-linecap:butt;stroke-linejoin:miter;stroke-opacity:1" />
      <path
         d="m 1154.2743,658.67109 c 24.5199,38.08052 104.0536,31.21985 127.8171,33.40709 -50.9101,-17.68987 -65.7409,-22.99851 -100.7139,-42.924 -41.4686,-23.62627 -15.2791,-29.55027 -30.4667,-44.07515 -6.5195,-6.23497 -25.0343,-3.5765 -32.7418,-4.34837 -6.7813,-3.10372 -30.7813,2.27564 -36.4765,-4.77286 l -48.6725,22.20824 c -8.5645,-7.32585 -10.5195,-33.59966 -19.4944,-27.63302 -15.72859,-7.38147 -30.21533,-9.55666 -38.93979,-24.42654 3.65947,35.59395 10.65133,89.75688 51.54449,87.98643 l 93.5122,-29.86999 c 11.0528,5.16491 16.1775,10.49239 34.6318,34.44817 z"
         id="path4182"
         style="fill:#191918;fill-opacity:1;stroke:#000000;stroke-width:1px;stroke-linecap:butt;stroke-linejoin:miter;stroke-opacity:1" />
      <path
         d="m 1271.6742,636.56615 c -2.3789,6.19079 -33.1941,10.21418 -56.0453,8.2885 -19.4641,-1.64028 -37.7905,-8.45157 -51.7355,-30.22591 -2.1255,-1.3765 -11.5967,-12.68743 -14.3389,-14.37612 -12.9922,-0.55015 -24.9461,2.17638 -49.0406,-8.91152 l -46.8176,-5.03493 c -82.54296,45.61908 -55.71116,-4.24199 -65.33925,-10.91322 l 50.86605,-9.35145 102.9685,7.74682 c 21.0528,11.86743 43.6884,35.79173 67.7968,50.3246 23.1339,13.9454 56.0602,9.01287 61.6858,12.45323 z"
         id="path4180"
         style="fill:#191918;fill-opacity:1;stroke:#000000;stroke-width:1px;stroke-linecap:butt;stroke-linejoin:miter;stroke-opacity:1" />
      <path
         d="m 1132.3908,553.757 c 19.2111,-12.32403 33.2542,1.45595 46.7458,17.65641 25.4397,30.54752 45.3268,20.02954 51.9061,29.92538 -4.5092,8.18821 -38.1468,12.833 -60.0985,-11.40629 -16.5561,6.00993 -27.1987,10.94327 -43.6698,-2.72 l -57.5121,-3.27483 -22.5833,-67.69879 22.3634,12.52574 c 20.6663,6.77921 37.2458,9.23048 62.8484,24.99238 z"
         id="path4174"
         style="fill:#191918;fill-opacity:1;stroke:#000000;stroke-width:1px;stroke-linecap:butt;stroke-linejoin:miter;stroke-opacity:1" />
      <path
         d="m 1098.415,552.91857 c 18.451,22.78319 -6.9368,44.41904 -18.4416,36.63271 l -12.2376,-1.15691 -14.9196,-49.89883 18.8949,-12.89657 c 9.077,7.70101 16.3488,14.53325 26.7039,27.3196 z"
         id="path4178"
         style="fill:#191918;fill-opacity:1;stroke:#000000;stroke-width:1px;stroke-linecap:butt;stroke-linejoin:miter;stroke-opacity:1" />
      <path
         d="m 1064.0857,562.06849 c 9.2102,-0.14165 18.5614,1.96279 25.8285,5.89813 l 32.2528,6.20179 c 4.0219,1.23763 17.5542,2.97586 19.0631,5.26273 -1.9741,2.50267 -8.4375,4.69448 -19.7548,4.91762 l -50.8061,-0.57382 z"
         id="path4176"
         style="fill:#191918;fill-opacity:1;stroke:#000000;stroke-width:1px;stroke-linecap:butt;stroke-linejoin:miter;stroke-opacity:1" />
    </g>
  </g>
</svg>
