<?xml version="1.0" encoding="UTF-8" standalone="no"?>
<!-- Created with Inkscape (http://www.inkscape.org/) -->

<svg
   xmlns:dc="http://purl.org/dc/elements/1.1/"
   xmlns:cc="http://creativecommons.org/ns#"
   xmlns:rdf="http://www.w3.org/1999/02/22-rdf-syntax-ns#"
   xmlns:svg="http://www.w3.org/2000/svg"
   xmlns="http://www.w3.org/2000/svg"
   version="1.1"
   width="1920"
   height="1080"
   id="svg2">
  <defs
     id="defs4" />
  <metadata
     id="metadata7">
    <rdf:RDF>
      <cc:Work
         rdf:about="">
        <dc:format>image/svg+xml</dc:format>
        <dc:type
           rdf:resource="http://purl.org/dc/dcmitype/StillImage" />
        <dc:title></dc:title>
      </cc:Work>
    </rdf:RDF>
  </metadata>
  <g
     id="layer7"
     style="display:inline">
    <g
       id="g4047"
       style="display:inline">
      <path
         d="m 1090.4761,837.66643 c -11.4043,32.837 -29.1294,16.53202 -45.0963,13.84507 -19.88,28.45939 -23.2149,27.22664 -52.8287,19.04214 l -9.88875,11.03369 40.57025,234.24047 161.6977,-157.05657 -0.036,-16.77305 c -39.3529,-13.77899 -40.993,-17.78123 -41.4274,-54.05334 -17.3557,-8.58811 -40.2832,-12.46109 -30.5387,-43.84662 z m -36.2871,52.9903 c 11.8371,2.90089 6.5292,15.36238 13.7125,22.85052 l 2.3118,42.01182 22.0763,-36.73337 c 9.0839,1.06224 9.7396,-12.22182 22.6562,-5.18653 -13.0056,32.96441 13.3404,36.51442 33.5836,44.42495 -13.0749,17.68498 -36.256,12.58879 -51.139,31.89225 l -10.6978,-20.93607 -25.3614,16.56812 -11.0473,-31.27632 -17.8364,10.08324 c -3.3624,-24.34431 -19.2016,-37.42656 -24.609,-58.7207 17.21,1.27315 35.8596,25.17901 45.1233,-15.22444 0.4184,0.0732 0.8453,0.15298 1.2272,0.24652 z m -18.3033,97.91036 -5.5432,45.27591 -7.6994,-37.8002 z m 41.8463,16.02201 8.4965,16.3381 -24.2694,23.508 z"
         id="path4049"
         style="fill:#191918;fill-opacity:1;stroke:#000000;stroke-width:1px;stroke-linecap:butt;stroke-linejoin:miter;stroke-opacity:1" />
      <path
         d="m 1175.5094,715.96777 57.0076,65.05874 -118.4627,-32.62791 -13.0259,-24.86866 z"
         id="path4067"
         style="fill:#191918;fill-opacity:1;stroke:#000000;stroke-width:1px;stroke-linecap:butt;stroke-linejoin:miter;stroke-opacity:1" />
      <path
         d="m 1232.6312,773.24114 c -15.3693,7.06447 -52.4445,-47.71055 -75.8646,-70.42492 -4.7666,15.50684 -63.1729,21.62341 -97.683,34.69868 l -48.736,-2.08436 81.3511,-21.67082 c 25.1658,-8.16676 44.595,-12.54704 75.5001,-24.50212 l 28.6604,24.03817 z"
         id="path4065"
         style="fill:#191918;fill-opacity:1;stroke:#000000;stroke-width:1px;stroke-linecap:butt;stroke-linejoin:miter;stroke-opacity:1" />
      <path
         d="m 1284.165,725.70789 c -29.0557,5.81982 -67.4055,21.39743 -86.1133,-15.67545 l -40.7158,-51.1203 c -29.4445,11.91345 -68.7985,9.87411 -102.1402,18.83676 -7.3717,1.9816 -9.4203,12.46276 -14.5089,15.58338 -21.0206,7.48009 -38.5605,15.79589 -64.18418,20.64048 31.80048,-0.68447 63.41588,8.83277 110.38778,9.06093 l 75.7657,-39.53748 c 11.5367,7.53441 24.1364,23.51521 28.1848,31.25182 19.36,49.35908 55.0544,33.81809 93.3241,10.95986 z"
         id="path4063"
         style="fill:#191918;fill-opacity:1;stroke:#000000;stroke-width:1px;stroke-linecap:butt;stroke-linejoin:miter;stroke-opacity:1" />
      <path
         d="m 1131.9891,653.85222 c 5.3251,13.11706 7.7029,28.26399 34.4639,26.61743 m 0,0 30.3361,28.62321 c 10.5835,17.47553 35.1879,24.72475 65.6991,17.50097 6.848,6.31823 26.8893,-1.23607 43.3348,-6.31602 -52.2047,-13.39552 -88.6604,-20.91219 -117.1229,-48.10082 -8.5521,-16.47035 2.6806,-33.90344 -28.7633,-31.96943 -15.2506,-12.21315 -28.7554,-21.56661 -40.8471,-34.21627 l -82.3693,15.90247 c -5.6264,-7.07175 -13.6725,5.68972 -18.0419,7.01145 -16.2879,-6.04809 -32.78096,-40.22154 -42.71162,-54.31449 13.77408,34.36026 4.51179,109.04511 61.82042,79.35321 l 94.2018,-0.0917"
         id="path4061"
         style="fill:#191918;fill-opacity:1;stroke:#000000;stroke-width:1px;stroke-linecap:butt;stroke-linejoin:miter;stroke-opacity:1" />
      <path
         d="m 1273.9759,654.83309 c -0.9089,3.85949 -34.6674,18.8705 -57.9977,17.93768 -14.9493,-0.59772 -30.2218,-15.67761 -47.5327,-36.75568 -2.1178,-1.38824 -3.8562,-2.31061 -6.5889,-4.01444 -24.109,2.27275 -34.286,-7.84198 -57.3173,-19.83013 l -46.7891,-5.29392 c -47.1297,21.02266 -67.30915,-0.17077 -76.97403,-6.93258 l 62.61333,-13.41187 102.924,8.31648 c 20.9869,11.98375 43.4897,36.03294 67.5174,50.69899 23.0564,14.07322 54.5385,5.81405 60.145,9.28547 z"
         id="path4059"
         style="fill:#191918;fill-opacity:1;stroke:#000000;stroke-width:1px;stroke-linecap:butt;stroke-linejoin:miter;stroke-opacity:1" />
      <path
         d="m 1115.3372,568.44824 c 23.7056,-18.60415 40.6707,-6.47506 53.2504,10.61487 22.2349,30.20694 43.3475,19.19487 49.7689,29.56639 -5.4407,8.9675 -37.495,14.70483 -55.2761,-7.42151 -18.8643,5.64777 -37.6995,8.44009 -48.3813,-5.49888 l -55.7187,-6.35715 -21.1965,-68.14571 56.482,-11.76387 z"
         id="path4051"
         style="fill:#191918;fill-opacity:1;stroke:#000000;stroke-width:1px;stroke-linecap:butt;stroke-linejoin:miter;stroke-opacity:1" />
      <path
         d="m 1092.6149,555.61565 c 51.4555,23.29694 5.5807,40.77052 -15.5855,34.54967 l -12.2391,-1.14084 -14.9852,-49.87919 31.641,-3.06313 z"
         id="path4057"
         style="fill:#191918;fill-opacity:1;stroke:#000000;stroke-width:1px;stroke-linecap:butt;stroke-linejoin:miter;stroke-opacity:1" />
      <path
         d="m 1086.6697,547.08045 c 4.2887,7.82695 23.1807,33.31832 -7.002,38.33625 15.0776,-4.7995 -0.1018,-20.2313 -2.175,-31.49995 z"
         id="path4055"
         style="fill:#191918;fill-opacity:1;stroke:#000000;stroke-width:1px;stroke-linecap:butt;stroke-linejoin:miter;stroke-opacity:1" />
      <path
         d="m 1059.8063,563.82877 c 10.0892,-1.18177 20.0552,0.94537 22.3191,9.45125 l 32.915,1.72968 c 4.0499,1.14283 17.6193,2.56281 19.1815,4.81361 -1.8697,2.36814 -8.2602,5.26823 -17.7284,7.9945 l -54.6031,-2.70066 z"
         id="path4053"
         style="fill:#191918;fill-opacity:1;stroke:#000000;stroke-width:1px;stroke-linecap:butt;stroke-linejoin:miter;stroke-opacity:1" />
      <path
         d="m 1099.3954,849.93676 c 17.9567,0.76126 26.6793,-0.26208 30.4094,14.87923 7.2307,4.98371 20.1103,10.17916 24.914,8.11572 -0.4169,-5.26451 -1.3426,-10.64358 -0.6834,-15.66576 11.0421,-8.39703 25.0711,-14.00727 37.9854,-20.65742 l -1.8563,-40.36154 -113.8367,-1.68294 z"
         id="path4069"
         style="fill:#191918;fill-opacity:1;stroke:#000000;stroke-width:1px;stroke-linecap:butt;stroke-linejoin:miter;stroke-opacity:1" />
    </g>
  </g>
</svg>
