<?xml version="1.0" encoding="UTF-8" standalone="no"?>
<!-- Created with Inkscape (http://www.inkscape.org/) -->

<svg
   xmlns:dc="http://purl.org/dc/elements/1.1/"
   xmlns:cc="http://creativecommons.org/ns#"
   xmlns:rdf="http://www.w3.org/1999/02/22-rdf-syntax-ns#"
   xmlns:svg="http://www.w3.org/2000/svg"
   xmlns="http://www.w3.org/2000/svg"
   version="1.1"
   width="1920"
   height="1080"
   id="svg2">
  <defs
     id="defs4" />
  <metadata
     id="metadata7">
    <rdf:RDF>
      <cc:Work
         rdf:about="">
        <dc:format>image/svg+xml</dc:format>
        <dc:type
           rdf:resource="http://purl.org/dc/dcmitype/StillImage" />
        <dc:title></dc:title>
      </cc:Work>
    </rdf:RDF>
  </metadata>
  <g
     id="layer5"
     style="display:inline">
    <path
       d="m 812.85713,868.57143 c -3.06433,43.2788 -3.956,85.76755 -1.78572,127.14286 -20.5479,27.08531 -5.97976,59.45191 -5.35713,88.21431 l 34.99999,-0.1786 c 7.94809,-20.793 18.75543,-42.7745 20.35715,-67.6786 l 35.35714,-95.71426 z"
       id="path3093"
       style="fill:#615f5e;fill-opacity:1;stroke:#000000;stroke-width:1px;stroke-linecap:butt;stroke-linejoin:miter;stroke-opacity:1" />
    <path
       d="m 812.84375,868.5625 c -0.45255,6.39151 -0.83259,12.76899 -1.1875,19.125 11.26805,37.8556 36.49813,37.56731 64.40625,30 l 3.15625,-8 -66.375,-41.125 z"
       id="path3095"
       style="fill:#514b44;fill-opacity:1;stroke:#000000;stroke-width:1px;stroke-linecap:butt;stroke-linejoin:miter;stroke-opacity:1" />
    <path
       d="m 968.57142,928.57143 c 10.15145,57.26381 23.40402,88.30977 29.33358,111.23477 5.8134,22.4761 6.0836,34.2989 28.933,44.0141 l 73.162,1.5368 c -4.159,-23.4319 -14.0974,-42.3687 -35.3572,-52.5 -12.7441,-6.5269 3.2471,-30.0337 -5.3571,-112.8571 z"
       id="path3133"
       style="fill:#615f5e;fill-opacity:1;stroke:#000000;stroke-width:1px;stroke-linecap:butt;stroke-linejoin:miter;stroke-opacity:1" />
    <path
       d="m 858.62965,557.24607 c -21.35983,36.69089 -29.20764,47.45493 -19.69797,107.07616 -18.859,44.19675 -62.66737,91.09509 -63.55295,132.56458 -1.70851,80.00518 74.30351,121.87244 142.09358,138.62548 69.36921,17.1433 195.12999,11.73657 204.45009,-74.98587 12.0355,-111.99007 -82.0883,-136.63719 -136.13608,-197.80607 7.86597,-18.13256 14.28978,-31.54074 21.21578,-44.03355 l -62.33432,-96.39638 z"
       id="path3069"
       style="fill:#262528;fill-opacity:1;stroke:#000000;stroke-width:1px;stroke-linecap:butt;stroke-linejoin:miter;stroke-opacity:1" />
    <path
       d="m 914.44058,551.69023 c -37.71922,95.44004 -36.24037,127.36733 -25.50636,207.83888 4.10917,30.80597 12.12812,24.68013 15.65737,148.49242"
       id="path3085"
       style="fill:none;stroke:#000000;stroke-width:1px;stroke-linecap:butt;stroke-linejoin:miter;stroke-opacity:1" />
    <path
       d="m 924.28957,554.21561 c -39.68571,94.45679 -37.74103,122.33866 -28.28428,204.30334 3.43546,29.77623 13.16611,27.02931 17.24657,151.20907"
       id="path3087"
       style="fill:none;stroke:#000000;stroke-width:1px;stroke-linecap:butt;stroke-linejoin:miter;stroke-opacity:1" />
    <path
       d="m 861.96427,1013.75 c -5.38956,7.7067 -12.41612,14.4313 -20.17857,20.7143"
       id="path3097"
       style="fill:none;stroke:#000000;stroke-width:1px;stroke-linecap:butt;stroke-linejoin:miter;stroke-opacity:1;display:inline" />
    <path
       d="m 814.82142,1019.1071 c -4.93085,-5.1801 -3.80679,-14.7639 -3.75,-23.57138"
       id="path3099"
       style="fill:none;stroke:#000000;stroke-width:1px;stroke-linecap:butt;stroke-linejoin:miter;stroke-opacity:1;display:inline" />
    <path
       d="m 1059.2812,920 -90.7187,8.5625 c 0.60991,3.44048 1.24496,6.77612 1.875,10.03125 19.71673,22.0743 45.3496,37.6228 89.7813,-8.625 -0.2761,-3.23475 -0.5806,-6.53285 -0.9376,-9.96875 z"
       id="path3135"
       style="fill:#514b44;fill-opacity:1;stroke:#000000;stroke-width:1px;stroke-linecap:butt;stroke-linejoin:miter;stroke-opacity:1;display:inline" />
    <path
       d="m 1064.9375,730.25 c 66.9843,84.72911 66.1605,222.3999 -155.65625,179.03125 -61.80628,-12.0841 -145.79259,-67.66781 -130.3125,-133.09375 -2.1362,7.02216 -3.44921,13.91922 -3.59375,20.6875 -1.70851,80.00518 74.30368,121.87196 142.09375,138.625 69.36921,17.1433 195.14865,11.75369 204.46875,-74.96875 6.9356,-64.53529 -21.4137,-100.05182 -57,-130.28125 z"
       id="path3071"
       style="fill:#6d6e6b;fill-opacity:1;stroke:#000000;stroke-width:1px;stroke-linecap:butt;stroke-linejoin:miter;stroke-opacity:1;display:inline" />
    <path
       d="m 838.93168,664.0697 c 0.20954,7.81171 1.16456,12.26875 2.0203,17.17259"
       id="path3077"
       style="fill:none;stroke:#000000;stroke-width:1px;stroke-linecap:butt;stroke-linejoin:miter;stroke-opacity:1;display:inline" />
    <path
       d="m 839.56302,674.92884 c -9.59935,22.32633 0.0141,37.20873 1.89404,55.30585"
       id="path3079"
       style="fill:none;stroke:#000000;stroke-width:1px;stroke-linecap:butt;stroke-linejoin:miter;stroke-opacity:1;display:inline" />
    <path
       d="m 1006.7857,619.28572 c -17.30381,26.10597 -29.98352,55.58914 -41.60714,86.42857"
       id="path3081"
       style="fill:none;stroke:#000000;stroke-width:1px;stroke-linecap:butt;stroke-linejoin:miter;stroke-opacity:1;display:inline" />
    <path
       d="m 985.89285,662.5 c -0.15935,25.24157 -5.61541,46.85292 -12.85715,66.42858"
       id="path3083"
       style="fill:none;stroke:#000000;stroke-width:1px;stroke-linecap:butt;stroke-linejoin:miter;stroke-opacity:1;display:inline" />
    <path
       d="m 906.42856,908.75 c -3.99811,9.24281 1.70788,12.19444 2.32143,23.92857"
       id="path3089"
       style="fill:none;stroke:#000000;stroke-width:1px;stroke-linecap:butt;stroke-linejoin:miter;stroke-opacity:1;display:inline" />
    <path
       d="m 915.71427,910.71429 c -6.37092,8.05971 1.13981,11.89197 2.14286,23.92857"
       id="path3091"
       style="fill:none;stroke:#000000;stroke-width:1px;stroke-linecap:butt;stroke-linejoin:miter;stroke-opacity:1;display:inline" />
  </g>
</svg>
