<?xml version="1.0" encoding="UTF-8" standalone="no"?>
<!-- Created with Inkscape (http://www.inkscape.org/) -->

<svg
   xmlns:dc="http://purl.org/dc/elements/1.1/"
   xmlns:cc="http://creativecommons.org/ns#"
   xmlns:rdf="http://www.w3.org/1999/02/22-rdf-syntax-ns#"
   xmlns:svg="http://www.w3.org/2000/svg"
   xmlns="http://www.w3.org/2000/svg"
   version="1.1"
   width="1920"
   height="1080"
   id="svg2">
  <defs
     id="defs4" />
  <metadata
     id="metadata7">
    <rdf:RDF>
      <cc:Work
         rdf:about="">
        <dc:format>image/svg+xml</dc:format>
        <dc:type
           rdf:resource="http://purl.org/dc/dcmitype/StillImage" />
        <dc:title></dc:title>
      </cc:Work>
    </rdf:RDF>
  </metadata>
  <g
     id="layer7"
     style="display:inline">
    <g
       id="g4071"
       style="display:inline">
      <path
         d="m 1234.2791,715.89617 c -20.4804,-14.9223 -39.4923,-2.59265 -56.5927,-5.53856 -12.7344,-6.98167 -18.9391,-22.95911 -29.8986,-34.67374 -29.4601,11.87476 -10.3114,53.03372 -43.6648,61.95257 -56.0307,-33.37332 -74.869,-32.72926 -93.2406,-30.37955 53.5531,13.31824 30.6536,15.27546 95.1933,52.76802 11.5268,7.54956 40.6055,-7.95311 55.3937,-11.71118 49.7526,-8.37061 61.9171,-27.42729 72.8097,-32.41756 z"
         id="path4087"
         style="fill:#191918;fill-opacity:1;stroke:#000000;stroke-width:1px;stroke-linecap:butt;stroke-linejoin:miter;stroke-opacity:1" />
      <path
         d="m 990.46927,758.97415 c -9.06754,33.55753 -27.89504,18.53904 -44.01138,16.98129 -17.83001,29.78663 -21.24325,28.79138 -51.35921,22.70913 l -9.08856,11.70162 56.93806,230.80851 150.25582,-168.03599 -1.2152,-16.729 c -40.2242,-10.97822 -42.1417,-14.85525 -45.125,-51.00707 -17.9165,-7.34667 -41.0596,-9.59814 -33.5458,-41.5911 z m -32.47184,55.41033 c 12.01177,2.06152 7.59306,14.86532 15.28508,21.82992 l 5.25971,41.74534 19.4391,-38.19453 c 9.13618,0.42096 8.85618,-12.87632 22.23558,-6.76654 -10.6559,33.79719 15.8745,35.48617 36.6238,41.95393 -11.7993,18.56045 -35.2813,15.1066 -48.7703,35.40865 l -12.14327,-20.13216 -24.1339,18.31015 -13.21883,-30.42225 -17.08333,11.31227 c -5.06558,-24.04768 -21.78534,-35.984 -28.6765,-56.84527 17.25701,0.0601 37.54107,22.59561 43.94133,-18.35915 0.4225,0.0437 0.85396,0.0932 1.24152,0.15963 z m -11.37445,98.9549 -2.34641,45.55361 -10.33784,-37.16539 z m 42.86915,13.04041 9.6241,15.70028 -22.55657,25.15608 z"
         id="path4073"
         style="fill:#191918;fill-opacity:1;stroke:#000000;stroke-width:1px;stroke-linecap:butt;stroke-linejoin:miter;stroke-opacity:1" />
      <path
         d="m 1162.1266,687.75334 c 25.141,39.76251 104.0662,29.7992 148.237,27.79146 -52.1871,-13.46409 -88.3374,-22.27759 -123.7771,-41.36035 -41.4336,-22.31021 -16.4173,-31.56257 -32.7427,-44.79577 -7.0079,-5.68051 -25.2431,-1.51572 -32.9879,-1.65421 -7.0126,-2.53834 -30.4917,4.78711 -36.7447,-1.77165 l -41.8368,27.43728 c -12.7951,-1.69563 -17.2452,0.56749 -23.0008,3.62899 -16.28,-6.06948 -30.96041,-39.02713 -40.87255,-53.13311 5.30613,37.6742 -15.75314,126.56281 42.97785,96.40491 l 108.6975,-45.48793 c 7.4292,12.15174 3.7871,30.80178 32.0502,32.94038 z"
         id="path4085"
         style="fill:#191918;fill-opacity:1;stroke:#000000;stroke-width:1px;stroke-linecap:butt;stroke-linejoin:miter;stroke-opacity:1" />
      <path
         d="m 1269.1274,647.82438 c -1.0996,4.51804 -35.8429,14.19555 -58.7695,13.6966 -19.5286,-0.42501 -32.0629,-6.58346 -47.3368,-27.44715 -2.2071,-1.24147 -13.379,-11.16886 -16.2209,-12.68351 -13.0013,0.25997 -24.1666,1.91723 -48.9048,-7.64872 l -47.0403,-2.10971 c -28.5255,62.3456 -55.66396,-0.44821 -65.892,-6.82322 l 50.185,-12.50084 103.2511,1.31969 c 21.751,10.53339 45.8324,33.00168 70.7991,46.00505 23.9574,12.47774 54.1001,5.10847 59.9291,8.19181 z"
         id="path4083"
         style="fill:#191918;fill-opacity:1;stroke:#000000;stroke-width:1px;stroke-linecap:butt;stroke-linejoin:miter;stroke-opacity:1" />
      <path
         d="m 1117.0722,567.35422 c 23.73,-18.573 40.6792,-6.42163 53.2364,10.68481 22.1952,30.23612 43.3223,19.2518 49.73,29.63174 -5.7722,9.43247 -42.5319,15.94292 -58.0947,-9.43865 -18.8717,5.62298 -34.8821,10.3351 -45.5456,-3.6179 l -55.7103,-6.43034 -21.107,-68.17349 37.1224,-8.18966 z"
         id="path4075"
         style="fill:#191918;fill-opacity:1;stroke:#000000;stroke-width:1px;stroke-linecap:butt;stroke-linejoin:miter;stroke-opacity:1" />
      <path
         d="m 1092.9526,555.55245 c 53.7854,23.02728 6.2842,40.66965 -15.6309,34.52916 l -12.2376,-1.15691 -14.9196,-49.89883 31.6449,-3.02157 z"
         id="path4081"
         style="fill:#191918;fill-opacity:1;stroke:#000000;stroke-width:1px;stroke-linecap:butt;stroke-linejoin:miter;stroke-opacity:1" />
      <path
         d="m 1087.0186,547.00945 c 4.1757,7.73781 17.6682,28.30066 -7.0524,38.32701 11.6979,-5.90835 -0.4785,-20.36593 -2.1336,-31.50278 z"
         id="path4079"
         style="fill:#191918;fill-opacity:1;stroke:#000000;stroke-width:1px;stroke-linecap:butt;stroke-linejoin:miter;stroke-opacity:1" />
      <path
         d="m 1062.1332,564.22246 c 10.0908,-1.16851 20.054,0.97172 22.3067,9.48056 l 32.9127,1.77292 c 4.0484,1.14815 17.6159,2.58595 19.1751,4.8388 -1.8728,2.36569 -8.2671,5.25738 -17.7388,7.97121 l -54.5996,-2.77239 z"
         id="path4077"
         style="fill:#191918;fill-opacity:1;stroke:#000000;stroke-width:1px;stroke-linecap:butt;stroke-linejoin:miter;stroke-opacity:1" />
    </g>
  </g>
</svg>
