<?xml version="1.0" encoding="UTF-8" standalone="no"?>
<!-- Created with Inkscape (http://www.inkscape.org/) -->

<svg
   xmlns:dc="http://purl.org/dc/elements/1.1/"
   xmlns:cc="http://creativecommons.org/ns#"
   xmlns:rdf="http://www.w3.org/1999/02/22-rdf-syntax-ns#"
   xmlns:svg="http://www.w3.org/2000/svg"
   xmlns="http://www.w3.org/2000/svg"
   version="1.1"
   width="1920"
   height="1080"
   id="svg2">
  <defs
     id="defs4" />
  <metadata
     id="metadata7">
    <rdf:RDF>
      <cc:Work
         rdf:about="">
        <dc:format>image/svg+xml</dc:format>
        <dc:type
           rdf:resource="http://purl.org/dc/dcmitype/StillImage" />
        <dc:title></dc:title>
      </cc:Work>
    </rdf:RDF>
  </metadata>
  <g
     id="layer7"
     style="display:inline">
    <g
       id="g4142"
       style="display:inline">
      <path
         d="m 1218.8673,692.09755 c -29.1709,-13.36894 -38.248,-9.25112 -52.713,-11.46247 -14.0271,-8.04917 -17.5506,-27.86105 -23.0524,-41.51937 -30.6657,8.27778 -17.2848,64.87071 -51.4636,69.74949 -51.6523,-39.81538 -72.2451,-30.7786 -90.7658,-30.63595 51.5833,19.60795 31.4582,4.02869 91.0677,48.94838 10.5445,8.86996 37.6076,-20.05271 52.7384,-22.02089 28.987,19.916 65.0052,-8.25345 74.1887,-13.05919 z"
         id="path4156"
         style="fill:#191918;fill-opacity:1;stroke:#000000;stroke-width:1px;stroke-linecap:butt;stroke-linejoin:miter;stroke-opacity:1" />
      <path
         d="m 1159.3705,664.8834 c 24.749,42.56283 94.6305,27.48914 129.3171,32.90709 -50.9101,-17.68987 -67.2409,-22.49851 -102.2139,-42.424 -41.4686,-23.62627 -15.2791,-29.55027 -30.4667,-44.07515 -6.5195,-6.23497 -25.0343,-3.5765 -32.7418,-4.34837 -6.7813,-3.10372 -30.7813,2.27564 -36.4765,-4.77286 l -48.6725,22.20824 c -8.5645,-7.32585 -10.5195,-33.59966 -19.4944,-27.63302 -15.7286,-7.38147 -30.21534,-9.55666 -38.9398,-24.42654 2.20509,37.98208 -16.45758,143.48666 44.5445,118.23643 l 106.0122,-55.86999 c 11.0528,5.16491 10.6775,6.24239 29.1318,30.19817 z"
         id="path4154"
         style="fill:#191918;fill-opacity:1;stroke:#000000;stroke-width:1px;stroke-linecap:butt;stroke-linejoin:miter;stroke-opacity:1" />
      <path
         d="m 1272.8133,640.46668 c -1.3324,4.45496 -33.3486,9.31319 -56.2186,7.62642 -19.4802,-1.43678 -37.5121,-6.99927 -51.6839,-28.62669 -2.1398,-1.35421 -12.7819,-11.84739 -15.5416,-13.50733 -12.9973,-0.41435 -24.2334,0.66189 -48.4425,-10.1736 l -46.8677,-4.54539 c -82.06171,46.4792 -55.75244,-3.65956 -65.44972,-10.2298 l 50.76562,-9.88252 103.0438,6.67034 c 21.1757,11.64677 44.06,35.33321 68.319,49.61334 23.2784,13.70288 56.4144,9.67385 62.0756,13.05523 z"
         id="path4152"
         style="fill:#191918;fill-opacity:1;stroke:#000000;stroke-width:1px;stroke-linecap:butt;stroke-linejoin:miter;stroke-opacity:1" />
      <path
         d="m 1129.7355,555.40261 c 20.967,-16.62682 34.6021,1.53092 47.8786,18.01146 24.9391,30.95754 45.0094,19.43625 51.49,29.397 -5.6606,9.49986 -37.9967,11.97643 -59.6161,-9.10671 -18.8041,5.84505 -34.7578,10.74558 -45.5851,-3.08075 l -55.7822,-5.77316 -21.9092,-67.91994 22.2378,12.74743 c 20.5979,6.98432 35.8415,9.70904 61.2862,25.72467 z"
         id="path4144"
         style="fill:#191918;fill-opacity:1;stroke:#000000;stroke-width:1px;stroke-linecap:butt;stroke-linejoin:miter;stroke-opacity:1" />
      <path
         d="m 1095.7633,553.4489 c 20.8401,20.62048 -6.9368,44.41904 -18.4416,36.63271 l -12.2376,-1.15691 -14.9196,-49.89883 30.6449,-8.14657 z"
         id="path4150"
         style="fill:#191918;fill-opacity:1;stroke:#000000;stroke-width:1px;stroke-linecap:butt;stroke-linejoin:miter;stroke-opacity:1" />
      <path
         d="m 1064.0348,562.94213 c 9.2048,-0.3458 15.4845,1.99499 22.837,5.76825 l 32.3824,5.48523 c 4.0484,1.14815 17.6159,2.58595 19.1751,4.8388 -1.871,2.36594 -5.6801,4.34124 -17.4888,6.72121 l -54.8496,-1.52239 z"
         id="path4146"
         style="fill:#191918;fill-opacity:1;stroke:#000000;stroke-width:1px;stroke-linecap:butt;stroke-linejoin:miter;stroke-opacity:1" />
    </g>
  </g>
</svg>
