<?xml version="1.0" encoding="UTF-8" standalone="no"?>
<!-- Created with Inkscape (http://www.inkscape.org/) -->

<svg
   xmlns:dc="http://purl.org/dc/elements/1.1/"
   xmlns:cc="http://creativecommons.org/ns#"
   xmlns:rdf="http://www.w3.org/1999/02/22-rdf-syntax-ns#"
   xmlns:svg="http://www.w3.org/2000/svg"
   xmlns="http://www.w3.org/2000/svg"
   version="1.1"
   width="1920"
   height="1080"
   id="svg2">
  <defs
     id="defs4" />
  <metadata
     id="metadata7">
    <rdf:RDF>
      <cc:Work
         rdf:about="">
        <dc:format>image/svg+xml</dc:format>
        <dc:type
           rdf:resource="http://purl.org/dc/dcmitype/StillImage" />
        <dc:title></dc:title>
      </cc:Work>
    </rdf:RDF>
  </metadata>
  <g
     id="layer7"
     style="display:inline">
    <g
       id="g4158"
       style="display:inline">
      <path
         d="m 1214.6173,686.59755 c -29.1709,-13.36894 -38.248,-9.25112 -52.713,-11.46247 -20.2482,-6.81182 -6.4311,-35.55321 -41.0524,-42.64437 -78.2687,1.78646 0.7152,65.99571 -33.4636,70.87449 -43.2697,-24.30762 -83.7678,26.96698 -107.0158,18.36405 58.0818,22.59376 64.8179,-37.11011 107.3177,-0.0516 10.5445,8.86996 37.6076,-20.05271 52.7384,-22.02089 28.987,19.916 65.0052,-8.25345 74.1887,-13.05919 z"
         id="path4170"
         style="fill:#191918;fill-opacity:1;stroke:#000000;stroke-width:1px;stroke-linecap:butt;stroke-linejoin:miter;stroke-opacity:1" />
      <path
         d="m 1158.8705,662.3834 c 26.0114,42.05787 96.6623,26.6764 129.3171,32.90709 -50.9101,-17.68987 -67.2409,-22.49851 -102.2139,-42.424 -41.4686,-23.62627 -15.2791,-29.55027 -30.4667,-44.07515 -6.5195,-6.23497 -25.0343,-3.5765 -32.7418,-4.34837 -6.7813,-3.10372 -30.7813,2.27564 -36.4765,-4.77286 l -48.6725,22.20824 c -8.5645,-7.32585 -10.5195,-33.59966 -19.4944,-27.63302 -15.7286,-7.38147 -30.21534,-9.55666 -38.9398,-24.42654 2.20509,37.98208 -18.45758,151.98666 42.5445,126.73643 l 102.5122,-68.61999 c 11.0528,5.16491 16.1775,10.49239 34.6318,34.44817 z"
         id="path4168"
         style="fill:#191918;fill-opacity:1;stroke:#000000;stroke-width:1px;stroke-linecap:butt;stroke-linejoin:miter;stroke-opacity:1" />
      <path
         d="m 1272.9849,638.70003 c -1.3789,4.44079 -33.4441,8.96418 -56.2953,7.0385 -19.4641,-1.64028 -37.7905,-8.45157 -51.7355,-30.22591 -2.1255,-1.3765 -11.5967,-12.68743 -14.3389,-14.37612 -12.9922,-0.55015 -24.9461,2.17638 -49.0406,-8.91152 l -46.8176,-5.03493 c -82.543,45.61908 -55.7112,-4.24199 -65.33929,-10.91322 l 50.86609,-9.35145 102.9685,7.74682 c 21.0528,11.86743 43.6884,35.79173 67.7968,50.3246 23.1339,13.9454 56.3102,10.26287 61.9358,13.70323 z"
         id="path4166"
         style="fill:#191918;fill-opacity:1;stroke:#000000;stroke-width:1px;stroke-linecap:butt;stroke-linejoin:miter;stroke-opacity:1" />
      <path
         d="m 1132.2962,554.04385 c 19.3326,-12.13245 33.238,1.78645 46.5679,18.12022 25.1348,30.7989 45.1255,20.47914 51.6061,30.43989 -4.5904,8.14298 -38.2725,12.45316 -59.9822,-12.00315 -16.615,5.84505 -27.3061,10.67235 -43.6406,-3.15398 l -57.4767,-3.84638 -21.9092,-67.91994 22.2378,12.74743 c 20.5979,6.98432 37.1522,9.60028 62.5969,25.61591 z"
         id="path4160"
         style="fill:#191918;fill-opacity:1;stroke:#000000;stroke-width:1px;stroke-linecap:butt;stroke-linejoin:miter;stroke-opacity:1" />
      <path
         d="m 1095.7633,553.4489 c 20.8401,20.62048 -6.9368,44.41904 -18.4416,36.63271 l -12.2376,-1.15691 -14.9196,-49.89883 30.6449,-8.14657 z"
         id="path4164"
         style="fill:#191918;fill-opacity:1;stroke:#000000;stroke-width:1px;stroke-linecap:butt;stroke-linejoin:miter;stroke-opacity:1" />
      <path
         d="m 1062.6715,562.24527 c 9.2102,-0.14165 18.5614,1.96279 25.8285,5.89813 l 32.2528,6.20179 c 4.0219,1.23763 17.5542,2.97586 19.0631,5.26273 -1.9741,2.50267 -8.4375,4.69448 -19.7548,4.91762 l -50.8061,-0.57382 z"
         id="path4162"
         style="fill:#191918;fill-opacity:1;stroke:#000000;stroke-width:1px;stroke-linecap:butt;stroke-linejoin:miter;stroke-opacity:1" />
    </g>
  </g>
</svg>
