<?xml version="1.0" encoding="UTF-8" standalone="no"?>
<!-- Created with Inkscape (http://www.inkscape.org/) -->

<svg
   xmlns:dc="http://purl.org/dc/elements/1.1/"
   xmlns:cc="http://creativecommons.org/ns#"
   xmlns:rdf="http://www.w3.org/1999/02/22-rdf-syntax-ns#"
   xmlns:svg="http://www.w3.org/2000/svg"
   xmlns="http://www.w3.org/2000/svg"
   version="1.1"
   width="1920"
   height="1080"
   id="svg2">
  <defs
     id="defs4" />
  <metadata
     id="metadata7">
    <rdf:RDF>
      <cc:Work
         rdf:about="">
        <dc:format>image/svg+xml</dc:format>
        <dc:type
           rdf:resource="http://purl.org/dc/dcmitype/StillImage" />
        <dc:title></dc:title>
      </cc:Work>
    </rdf:RDF>
  </metadata>
  <g
     id="layer2"
     style="display:inline">
    <path
       d="M 992.9375,150.15625 C 974.51734,150.5947 862.32841,220.03561 849.65625,235 c -12.34416,14.57705 -31.29008,61.97205 -41.8125,91.78125 -29.98494,6.69762 -23.28452,40.66051 -17.0625,74.28125 0.39997,7.56932 10.38199,22.96788 13.875,35.375 2.79044,10.36044 6.08184,17.26042 10.53125,36.96875 5.0069,15.62615 17.08559,30.20474 25.875,48.1875 -6.61856,10.27626 -8.7623,19.43361 -8.8125,31.40625 -0.0223,5.3225 18.89869,37.73015 24.90625,37.71875 6.32474,1.077 28.10697,-29.18578 42.84375,-47.5 22.30602,20.89639 26.24977,79.00444 33.74107,76.95982 42.2535,-11.53233 64.0962,-12.26629 70.51343,-59.45089 16.195,-4.42343 36.6532,-9.08584 57.183,-12.50893 2.8738,5.61003 5.6189,12.74856 7.8929,19.55804 12.6272,-9.78436 23.1887,-18.34276 34.1384,-27.12054 4.82,-5.151 6.4519,-9.57222 8,-15.34375 23.523,-35.26078 64.7012,-81.31776 63.4374,-113.875 -5.3089,-18.19801 -29.2653,-25.06632 -48.375,-27.875 12.6622,-19.16693 14.8692,-42.19052 17.5938,-61.21875 C 1130.3191,284.8974 1119.9288,226.58092 1111.1562,221 1084.8029,204.23435 1010.1148,149.74738 992.9375,150.15625 z m -73.5,76.78125 c 18.85316,-0.97538 81.0785,42.97467 98.7813,54.03125 19.6551,12.27606 40.243,58.32131 49.25,82.3125 -5.77,27.01015 -23.073,51.28632 -42.1563,75.03125 -65.71869,10.34145 -76.08329,-14.04823 -99.5,-1.03125 -3.14205,-1.8428 -5.92486,-2.60792 -8.59375,-3.03125 -7.5527,-18.0946 -35.66109,-15.35068 -61.375,-29.65625 l 0.5,-10.5 -4.53125,-2.25 4.9375,-4.5625 c 0.55751,-9.03894 1.66598,-17.86257 2.875,-26.25 -5.88345,-14.42122 -5.80468,-27.87055 -8.0625,-41.6875 -2.06374,13.81561 -2.23126,30.95439 -0.5,45.71875 -8.70934,-18.42974 -44.66795,-94.6839 65.90625,-137.625 0.70679,-0.27448 1.54155,-0.45203 2.46875,-0.5 z"
       id="path3017"
       style="fill:#262528;fill-opacity:1;stroke:#000000;stroke-width:1px;stroke-linecap:butt;stroke-linejoin:miter;stroke-opacity:1" />
    <path
       d="m 883,244.3125 c -18.05025,9.67756 -39.07616,23.25494 -55.4375,37.90625 -5.35404,23.50642 -8.5254,48.96533 -9.59375,76.28125 3.17148,10.90615 6.78033,21.96321 11.375,33.34375 6.10778,3.46814 12.39586,7.03404 20.84375,11.90625 l 7.21875,1.6875 c -0.52521,-0.27739 -1.03908,-0.55255 -1.5625,-0.84375 l 0.5,-10.5 -4.53125,-2.25 4.9375,-4.5625 c 0.55751,-9.03894 1.66598,-17.86257 2.875,-26.25 -5.88345,-14.42122 -5.80468,-27.87055 -8.0625,-41.6875 -2.06374,13.81561 -2.23126,30.95439 -0.5,45.71875 -7.65658,-16.202 -36.36013,-77.09009 31.9375,-120.75 z"
       id="path3053"
       style="fill:#101011;fill-opacity:1;stroke:none" />
    <path
       d="m 787.09375,346.125 c -0.0629,0.2298 -0.1285,0.45477 -0.1875,0.6875 -1.32303,20.43829 3.89946,63.81215 19.46875,86.34375 33.5351,13.92372 13.92913,40.1968 49.59375,51.625 7.09728,2.27422 7.7883,17.35069 4.5,22.15625 -2.39947,3.50661 -2.87369,9.77095 -1.09375,13.34375 3.483,3.33427 13.04642,11.14928 15.5625,11.625 3.59681,0.68006 8.28178,-4.94827 8.1875,-7.78125 -0.10145,-3.04827 -3.05422,-18.45587 -15.5625,-17.5625 10.10487,-6.02807 18.32869,7.27756 18.6875,17.375 0.23844,6.71014 -6.50959,11.11098 -11.3125,11.25 -3.09365,0.0896 -7.24325,-4.3809 -10.75,-6.5 -0.78193,12.29303 10.40735,25.74808 -3.71875,31.125 -6.54697,2.49202 -7.85194,5.37378 -10.875,10.59375 0,-6.24903 0.64355,-13.69242 -0.84375,-17 -1.38849,-3.08784 -2.04336,-5.66338 -5.4375,-7.09375 -5.77372,-2.43317 -6.78412,-12.33896 0.25,-14.71875 0.90281,-33.482 -8.75011,-43.92585 -11.625,-46.6875 -3.59576,-3.45413 -12.64985,-7.16264 -13.375,-18.5 -0.31616,-4.94313 -4.34488,-13.12899 -6.78125,-18.375 1.90611,16.25478 6.23176,32.13549 14.28125,47.46875 4.92092,8.19342 10.39474,16.67158 15,26.09375 -6.61856,10.27626 -8.7623,19.43361 -8.8125,31.40625 -0.0223,5.3225 18.89869,37.73015 24.90625,37.71875 6.32474,1.077 28.10697,-29.18578 42.84375,-47.5 22.30602,20.89639 26.2587,79.01337 33.75,76.96875 42.12908,-11.49837 63.94855,-12.28909 70.4375,-59.0625 -7.76779,1.97898 -15.51342,6.1582 -23.28125,9.40625 15.49142,-14.46661 61.50475,-22.59263 90.65625,-25.625 -7.9282,-16.91029 -27.2398,1.53571 -33.8437,-11.90625 -1.2921,-2.63005 2.7491,-6.56342 10.6874,-9.1875 12.6398,-4.17815 16.1096,3.81711 36.7188,-10.5625 -28.8114,11.32919 -37.2367,2.27384 -49.3125,4.75 -27.9885,5.73903 -14.2289,20.0258 -17.9687,22.8125 -7.3987,5.51299 -41.90554,-15.01268 -50.06255,24.0625 -0.1132,7.33705 5.05077,14.5878 14.90625,17 -4.34888,2.43957 -8.56111,4.91887 -11.96875,7.59375 -14.62702,-2.35529 -25.92589,0.30112 -26.78125,16.15625 -2.41336,-17.48729 -16.00721,-19.96136 -15.90625,-29.71875 0.0625,-6.03575 7.01939,-13.07627 10.6875,-20.90625 -7.84798,-0.0314 -13.13053,0.22888 -15.875,-2.5 -4.50756,-4.48195 -8.92937,-10.60709 -7.71875,-15.0625 4.15865,-15.30495 16.00148,-13.43697 22.71875,-6 -6.59823,-1.71163 -15.55295,-6.33738 -18.65625,6.25 -0.92696,3.75987 2.49903,8.24139 5.8125,11.40625 3.32622,3.17704 15.52867,2.33605 21.0625,1.09375 -0.006,-9.9609 -0.76094,-26.09188 2.5,-28.21875 3.51644,-2.29353 24.49131,6.13395 31.71875,0.71875 13.44397,-10.07296 16.56582,-25.3331 46.31255,-15.90625 4.4822,1.42043 31.4906,-15.5588 34.6562,-20 -0.2098,-3.87819 -2.3224,-9.3939 0.9062,-13.9375 5.7558,-8.10013 12.1739,-17.32143 24.625,-10.6875 -12.8517,-1.45225 -16.2817,5.48769 -21.6874,12.21875 -4.162,5.18237 2.0206,16.81361 8.8437,17.15625 9.3957,0.47182 19.0246,-13.61528 25.4375,-25 1.193,10.24176 -5.1118,34.87925 -26.875,32.3125 -17.9986,-2.12275 -20.68,3.58462 -24.1562,7.09375 8.005,-2.93578 14.6881,-6.55483 25.8437,1.65625 27.668,4.06453 54.781,-39.70878 89.9375,-64.40625 8.0267,-15.89581 8.6891,-22.14862 10.6875,-31.59375 -5.4476,11.41117 -23.3003,32.38651 -44.4687,18.40625 -25.0411,-16.53786 -43.494,0.78524 -61.5938,19.5625 -17.273,17.91947 -19.4603,30.78039 -47.3125,24.09375 -21.88496,-5.25404 -34.42924,3.06379 -45.90625,17.9375 -9.07863,11.76551 -21.02751,23.08318 -42.0625,10.1875 -10.83818,-6.64444 -17.18116,-5.34777 -28.65625,7.6875 -14.0442,-35.93222 -25.01385,-19.68702 -42.84375,-34.125 -9.47431,-7.67193 -16.16457,-22.06183 -20.1875,-37.125 C 839.06394,428.04423 830.0964,417.04492 818.1875,411.8125 788.71731,398.86417 790.96949,371.88492 787.09375,346.125 z"
       id="path3018"
       style="fill:#e6e6e4;fill-opacity:1;stroke:#000000;stroke-width:1px;stroke-linecap:butt;stroke-linejoin:miter;stroke-opacity:1" />
    <path
       d="m 1025.0217,438.21131 c 36.2433,-2.97002 45.9292,-38.58102 79.075,-82.74322"
       id="path2990"
       style="fill:none;stroke:#000000;stroke-width:1px;stroke-linecap:butt;stroke-linejoin:miter;stroke-opacity:1" />
    <path
       d="m 1047.0993,430.80368 c 8.0551,-4.02753 21.468,-22.61843 34.4107,-27.25663 15.5843,-5.58491 30.4379,7.43606 67.2015,2.10742"
       id="path2992"
       style="fill:none;stroke:#000000;stroke-width:1px;stroke-linecap:butt;stroke-linejoin:miter;stroke-opacity:1" />
    <path
       d="m 1113.1881,405.59691 c 4.6835,-7.17418 9.288,-14.50645 13.6371,-22.34963"
       id="path2994"
       style="fill:none;stroke:#000000;stroke-width:1px;stroke-linecap:butt;stroke-linejoin:miter;stroke-opacity:1" />
    <path
       d="m 808.03571,326.60715 c 7.25078,20.8598 11.9085,43.03279 21.33929,65.89286"
       id="path2996"
       style="fill:none;stroke:#000000;stroke-width:1px;stroke-linecap:butt;stroke-linejoin:miter;stroke-opacity:1" />
    <path
       d="m 851.32396,404.43366 c -15.3862,-16.88643 -23.54859,-37.08156 -31.50254,-56.75508 -1.84693,-14.54078 5.5245,-60.31599 8.25112,-65.65313 3.79136,-4.24546 32.94133,-26.75922 55.05332,-37.67414"
       id="path3000"
       style="fill:none;stroke:#000000;stroke-width:1px;stroke-linecap:butt;stroke-linejoin:miter;stroke-opacity:1" />
    <path
       d="m 1141.5986,386.53028 c -4.251,7.00735 -8.5021,13.71014 -12.7531,19.06663 -3.4986,-1.09814 -6.6166,-2.3594 -8.4601,-4.16688 0.989,-5.76927 3.8565,-11.80691 6.4398,-17.80394"
       id="path3002"
       style="fill:#e6e6e4;fill-opacity:1;stroke:#000000;stroke-width:1px;stroke-linecap:butt;stroke-linejoin:miter;stroke-opacity:1" />
    <path
       d="m 917.23214,434.28572 c -8.15491,20.57692 -14.95255,71.88239 -22.23699,105.53521 l 8.08122,2.27284 c 7.26066,-34.7214 12.61045,-82.77832 22.34962,-104.80332 -2.16781,-1.24307 -4.39382,-2.46119 -8.19385,-3.00473 z"
       id="path3006"
       style="fill:#e6e6e4;fill-opacity:1;stroke:#000000;stroke-width:1px;stroke-linecap:butt;stroke-linejoin:miter;stroke-opacity:1" />
    <path
       d="m 1123.0312,501.78125 c -9.0179,12.64362 -21.0886,24.66716 -24.8124,38.40625 -4.7619,3.03572 -12.0307,3.05181 -13.4063,8.96875 3.9358,1.10946 5.7692,0.2481 8.75,-0.75 l 0.094,0.0625 c 3.2851,-2.61457 6.6292,-5.26059 9.8126,-7.8125 4.8199,-5.151 6.4519,-9.57222 8,-15.34375 1.3323,-1.99724 2.7214,-4.03165 4.1562,-6.09375 l 7.4062,-17.4375 z"
       id="path3021"
       style="fill:#e6e6e4;fill-opacity:1;stroke:#000000;stroke-width:1px;stroke-linecap:butt;stroke-linejoin:miter;stroke-opacity:1" />
  </g>
</svg>
