<?xml version="1.0" encoding="UTF-8" standalone="no"?>
<!-- Created with Inkscape (http://www.inkscape.org/) -->

<svg
   xmlns:dc="http://purl.org/dc/elements/1.1/"
   xmlns:cc="http://creativecommons.org/ns#"
   xmlns:rdf="http://www.w3.org/1999/02/22-rdf-syntax-ns#"
   xmlns:svg="http://www.w3.org/2000/svg"
   xmlns="http://www.w3.org/2000/svg"
   version="1.1"
   width="1920"
   height="1080"
   id="svg2">
  <defs
     id="defs4">
    <filter
       x="-0.1204878"
       y="-0.11951613"
       width="1.2409756"
       height="1.2390323"
       color-interpolation-filters="sRGB"
       id="filter3964">
      <feGaussianBlur
         id="feGaussianBlur3966"
         stdDeviation="1.5594231" />
    </filter>
    <filter
       color-interpolation-filters="sRGB"
       id="filter4024">
      <feGaussianBlur
         id="feGaussianBlur4026"
         stdDeviation="0.62376923" />
    </filter>
    <filter
       color-interpolation-filters="sRGB"
       id="filter4044">
      <feGaussianBlur
         id="feGaussianBlur4046"
         stdDeviation="0.62376923" />
    </filter>
    <filter
       color-interpolation-filters="sRGB"
       id="filter4195">
      <feGaussianBlur
         id="feGaussianBlur4197"
         stdDeviation="1.4979688" />
    </filter>
  </defs>
  <metadata
     id="metadata7">
    <rdf:RDF>
      <cc:Work
         rdf:about="">
        <dc:format>image/svg+xml</dc:format>
        <dc:type
           rdf:resource="http://purl.org/dc/dcmitype/StillImage" />
        <dc:title></dc:title>
      </cc:Work>
    </rdf:RDF>
  </metadata>
  <g
     id="layer6"
     style="display:inline">
    <path
       d="m 1212.5,748.92858 c -10.7143,-4.81167 -21.4286,-4.81051 -32.1429,-2.5 -11.0028,-41.19487 -27.5364,-63.74033 -31.7857,-96.78572 -9.2354,-15.33424 -18.1877,-30.76283 -23.2143,-47.5 l -8.5714,-9.28571 c -35.5063,13.97621 -59.5106,25.72621 -80.3692,36.86736 2.5564,17.18151 3.8339,30.52635 8.0812,52.78047 2.285,5.97674 5.6389,11.95347 9.3439,17.93021 l 30.0521,10.85914 3.0304,22.22335 3.7881,2.77792 c -1.2111,10.97595 -1.4765,21.00616 -1.2627,30.55712 4.8963,25.52109 20.8636,46.82465 35.3553,68.69037 0.3392,10.43372 1.4655,20.86744 5.1163,31.30116 6.9818,3.03112 14.6007,5.95606 24.4191,8.51442 0.1239,-8.17507 0.018,-14.04952 -0.3344,-17.4628 4.6915,-4.68757 10.2561,-6.93508 14.4755,-8.78969 5.0143,20.44905 8.7583,40.79368 15.1649,56.13743 4.4615,0.0117 8.923,-3.42241 13.3845,-5.55584 l 85.1054,184.85793 430.0067,3.6686 -50,-81.0714 c -2.5162,-21.94985 -8.3347,-45.00047 -13.5714,-67.85718 l 67.8571,-115.71429 c -74.387,-64.7504 -144.5234,-134.52425 -228.5714,-187.85714 l -46.4285,-17.14286 -62.8572,0 C 1333.8022,646.69408 1296.0529,675.9399 1275,707.85715 l 5,16.78571 -6.7857,3.57143 -5.7143,-4.46428 c -22.3518,5.04236 -34.3631,11.33496 -47.1429,16.24999 l 1.0715,4.28572 -8.9286,4.64286"
       id="path3149"
       style="fill:#262525;fill-opacity:1;stroke:#000000;stroke-width:1px;stroke-linecap:butt;stroke-linejoin:miter;stroke-opacity:1" />
    <path
       d="m 1092.2147,602.86881 -48.7271,25.84555 -1.0102,12.12183 5.0508,8.83883 28.2842,-2.27284 18.9404,-15.40483 7.0711,-18.68782 z"
       id="path3143"
       style="fill:none;stroke:#000000;stroke-width:1px;stroke-linecap:butt;stroke-linejoin:miter;stroke-opacity:1" />
    <path
       d="m 1101.9643,613.75001 10.8928,10.35714 -6.25,21.60714 -21.4285,16.25 -25,2.85714 -12.6786,-15.17857"
       id="path3145"
       style="fill:none;stroke:#000000;stroke-width:1px;stroke-linecap:butt;stroke-linejoin:miter;stroke-opacity:1" />
    <path
       d="m 1283.75,813.48215 -16.5179,7.41071 9.2857,19.64286 -9.9107,19.82143 -31.5178,16.42857 -0.8036,-1.69643 -1.875,2.5 2.4107,6.875 31.5179,-14.82143 14.6428,-29.28571 -1.1607,-8.39286 10.0893,-5.53572 z"
       id="path3226"
       style="fill:#09090a;fill-opacity:1;stroke:none" />
    <path
       d="m 1212.5,887.23215 -9.0179,-25.17858 -14.4643,4.01786 -4.5535,-19.28571 c -4.9023,1.09177 -9.9463,2.75019 -15.0865,4.79354 l -1.0101,-2.52538 c -4.4475,1.06627 -9.274,4.0278 -14.3947,8.46002 0.6557,6.19531 0.3308,12.06375 0,17.93021 -10.4199,-3.34228 -18.869,-6.42178 -24.2437,-9.09137 -2.1045,-7.91246 -4.8407,-19.31368 -4.6719,-30.80965 10.4661,-0.24473 19.8203,-1.80971 24.9426,-8.40023 -20.5931,-23.36377 -38.1749,-46.90801 -47.5,-76.78571 l -0.9287,-14.18782 c -2.2887,-0.83779 -5.0776,-0.006 -10.0843,-0.12069 2.9627,-2.94782 6.8601,-5.63336 10.842,-7.51859 l 4.0103,4.3271 3.3928,16.69643 4.8215,14.55357 c 10.9508,5.93224 19.0646,16.62742 27.4107,27.14285 l 5.5357,1.25 -2.1429,-10 25.4465,39.01786 10,-5 9.2824,0.58994 8.3337,5.17704 18.309,-5.55584 18.0565,2.77792 -15.5311,6.69226 -13.8896,-1.01016 c -8.1398,1.05182 -12.8923,4.18811 -18.0565,7.07107 l 8.5848,17.02563 38.75,-12.67857 4.0179,2.41071 -11.25,15.17857 1.3393,9.46429 -3.9286,-0.26786 -3.3928,-6.78571 -10.9822,3.75 4.8214,16.16071 6.6072,6.51786 -9.375,14.46428 -10.1786,3.92857 -0.3572,8.30357 -4.8214,-10.53571 c -4.1808,2.5574 -8.1315,5.63247 -13.2142,6.16071 l -1.0715,-3.48214 29.6429,-14.64285"
       id="path3213"
       style="fill:#09090a;fill-opacity:1;stroke:none" />
    <path
       d="m 1117.9863,594.62171 8.0812,54.2957 -81.3172,33.08249"
       id="path3151"
       style="fill:none;stroke:#000000;stroke-width:1px;stroke-linecap:butt;stroke-linejoin:miter;stroke-opacity:1" />
    <path
       d="m 1125.8928,648.57143 10.1786,15.71429 -8.0357,11.42857 -66.7857,27.41072"
       id="path3153"
       style="fill:none;stroke:#000000;stroke-width:1px;stroke-linecap:butt;stroke-linejoin:miter;stroke-opacity:1" />
    <path
       d="m 1135.8929,664.01786 5.0684,-0.25254 12.4315,8.95658 -5,7.09953 -18.5714,8.21429 -10.3571,-9.10714"
       id="path3155"
       style="fill:none;stroke:#000000;stroke-width:1px;stroke-linecap:butt;stroke-linejoin:miter;stroke-opacity:1" />
    <path
       d="m 1084.0178,711.33929 -0.625,-17.23214"
       id="path3157"
       style="fill:none;stroke:#000000;stroke-width:1px;stroke-linecap:butt;stroke-linejoin:miter;stroke-opacity:1" />
    <path
       d="m 1090.9993,735.92536 11.3221,-7.5325 1.0714,21.96429 c 9.452,27.98116 24.6739,53.83657 46.9184,77.10472 -7.8041,7.29734 -16.518,7.77128 -25.2538,8.08122"
       id="path3159"
       style="fill:none;stroke:#000000;stroke-width:1px;stroke-linecap:butt;stroke-linejoin:miter;stroke-opacity:1" />
    <path
       d="m 1089.8214,743.92858 3.0357,17.67857 c 5.45,9.92937 7.5156,20.98686 16.7857,29.64285 l -0.7142,20.35715"
       id="path3161"
       style="fill:none;stroke:#000000;stroke-width:1px;stroke-linecap:butt;stroke-linejoin:miter;stroke-opacity:1" />
    <path
       d="m 1158.75,686.60715 -14.4643,21.25 -29.2857,13.75 4.8214,5.35714 21.4286,-9.10714 13.5714,5.89285 11.25,8.21429 23.2143,40.17857"
       id="path3163"
       style="fill:none;stroke:#000000;stroke-width:1px;stroke-linecap:butt;stroke-linejoin:miter;stroke-opacity:1" />
    <path
       d="m 1119.6428,726.51786 2.5893,11.33929 5.0893,15.35714 c 12.8015,23.3556 27.9083,45.78905 43.0357,68.21428 l 10.2092,-5.42027 5.8623,-15.65115 -12.8572,-19.64286 -19.2857,-10.35714 c -9.906,-12.80911 -16.1074,-26.85309 -21.7857,-41.07143"
       id="path3165"
       style="fill:none;stroke:#000000;stroke-width:1px;stroke-linecap:butt;stroke-linejoin:miter;stroke-opacity:1" />
    <path
       d="m 1121.6071,736.42858 -18.5714,10.71428"
       id="path3167"
       style="fill:none;stroke:#000000;stroke-width:1px;stroke-linecap:butt;stroke-linejoin:miter;stroke-opacity:1" />
    <path
       d="m 1126.9643,752.85715 -18.75,10.35714"
       id="path3169"
       style="fill:none;stroke:#000000;stroke-width:1px;stroke-linecap:butt;stroke-linejoin:miter;stroke-opacity:1" />
    <path
       d="m 1360.7727,745.78745 c 67.2654,122.67487 133.3002,205.31392 238.8038,338.25315"
       id="path3171"
       style="fill:none;stroke:#000000;stroke-width:1px;stroke-linecap:butt;stroke-linejoin:miter;stroke-opacity:1" />
    <path
       d="m 1437.9521,686.04051 c 71.5918,108.24389 137.2493,218.62411 224.5064,321.22849"
       id="path3173"
       style="fill:none;stroke:#000000;stroke-width:1px;stroke-linecap:butt;stroke-linejoin:miter;stroke-opacity:1" />
    <path
       d="m 1377.343,619.87552 c 32.3307,9.6951 66.2999,23.48666 100.5102,37.88072 28.3346,38.64046 56.6693,77.37941 85.0039,115.10091 28.7752,56.66301 53.7613,110.2948 86.7857,170.35714"
       id="path3175"
       style="fill:none;stroke:#000000;stroke-width:1px;stroke-linecap:butt;stroke-linejoin:miter;stroke-opacity:1" />
    <path
       d="m 1257.8924,759.02403 -18.9403,8.5863 24.7487,54.80077 20.2031,-9.09137 z"
       id="path3177"
       style="fill:none;stroke:#000000;stroke-width:1px;stroke-linecap:butt;stroke-linejoin:miter;stroke-opacity:1" />
    <path
       d="m 1283.6513,812.30958 112.7773,241.97612 17.1428,-15.7143 C 1366.4881,934.88093 1312.1725,825.76632 1272.3214,727.5"
       id="path3179"
       style="fill:none;stroke:#000000;stroke-width:1px;stroke-linecap:butt;stroke-linejoin:miter;stroke-opacity:1" />
    <path
       d="m 1401.3341,642.60395 -110.9905,110.86424 c 31.3192,56.92297 61.7813,121.7616 85.2316,185.11046 16.3014,21.07827 29.4325,54.83751 43.9416,83.08505"
       id="path3183"
       style="fill:none;stroke:#000000;stroke-width:1px;stroke-linecap:butt;stroke-linejoin:miter;stroke-opacity:1" />
    <path
       d="m 1280,724.64286 2.1428,0 10.5358,26.25"
       id="path3187"
       style="fill:none;stroke:#000000;stroke-width:1px;stroke-linecap:butt;stroke-linejoin:miter;stroke-opacity:1" />
    <path
       d="M 1285.1875,732.26913 C 1296.9499,716.58987 1316.3073,703.88176 1331.9643,690"
       id="path3189"
       style="fill:none;stroke:#000000;stroke-width:1px;stroke-linecap:butt;stroke-linejoin:miter;stroke-opacity:1" />
    <path
       d="m 1266.7857,860.71429 c -11.5724,-13.00485 -18.6446,-28.00981 -26.0714,-42.85714 l -42.8572,8.92857 -17.4567,-10.62949"
       id="path3191"
       style="fill:none;stroke:#000000;stroke-width:1px;stroke-linecap:butt;stroke-linejoin:miter;stroke-opacity:1" />
    <path
       d="M 1183.5714,901.96429 1212.5,887.14286 1203.5714,862.5 l 20.5357,-7.14285 11.25,21.42857 31.25,-16.42858 10,-19.82142 -9.4643,-19.82143"
       id="path3193"
       style="fill:none;stroke:#000000;stroke-width:1px;stroke-linecap:butt;stroke-linejoin:miter;stroke-opacity:1" />
    <path
       d="m 1234.6428,836.78572 -38.9285,12.32143 -8.75,-16.78572 10.8712,-5.44008"
       id="path3195"
       style="fill:none;stroke:#000000;stroke-width:1px;stroke-linecap:butt;stroke-linejoin:miter;stroke-opacity:1" />
    <path
       d="m 1229.7059,736.3871 3.8655,9.14862 7.3214,-4.82143 0.5358,13.75 -10.8929,3.57143 -2.1429,-5.35714 -15.5121,-3.82397 8.7094,-4.54092 -1.1364,-4.35629 z"
       id="path3197"
       style="fill:#09090a;fill-opacity:1;stroke:#000000;stroke-width:1px;stroke-linecap:butt;stroke-linejoin:miter;stroke-opacity:1" />
    <path
       d="m 1278.5281,719.05485 c 26.391,-5.57627 47.7624,-35.83208 70.7576,-55.84056"
       id="path3199"
       style="fill:none;stroke:#000000;stroke-width:1px;stroke-linecap:butt;stroke-linejoin:miter;stroke-opacity:1" />
    <path
       d="m 1275.3571,707.98713 c 26.8221,-20.54798 45.0963,-38.48434 65.7143,-55.48712"
       id="path3201"
       style="fill:none;stroke:#000000;stroke-width:1px;stroke-linecap:butt;stroke-linejoin:miter;stroke-opacity:1" />
    <path
       d="m 1225.8928,910.17857 c 25.9788,54.86473 51.1092,112.27443 75.1837,172.85193"
       id="path3203"
       style="fill:none;stroke:#000000;stroke-width:1px;stroke-linecap:butt;stroke-linejoin:miter;stroke-opacity:1" />
    <path
       d="m 1160.7143,691.78572 5.625,40.53572"
       id="path3205"
       style="fill:none;stroke:#000000;stroke-width:1px;stroke-linecap:butt;stroke-linejoin:miter;stroke-opacity:1" />
    <path
       d="m 1162.0536,696.69643 5,35.89286 11.25,19.64286 1.5746,-5.30933 c -5.9901,-18.60914 -11.5983,-34.92407 -17.8246,-50.22639 z"
       id="path3207"
       style="fill:#101211;fill-opacity:1;stroke:none" />
    <path
       d="m 1062.933,703.0237 19.8242,-8.01808 0.6314,15.53109 z"
       id="path3209"
       style="fill:#09090a;fill-opacity:1;stroke:none" />
    <path
       d="m 1161.5755,695.15335 5.3085,37.07007 11.017,19.0982 2.2728,-4.48255 c -5.161,-17.19129 -11.2503,-33.98973 -18.5983,-51.68572 z"
       id="path3103"
       style="fill:#09090a;fill-opacity:1;stroke:none" />
    <path
       d="m 1260.625,725.80357 c -11.3471,3.92857 -20.3907,7.85715 -28.6607,11.78572 l 2.7678,4.91071 c 11.7705,-7.01871 23.8252,-11.90674 36.0715,-15.35714 l -3.3929,-2.85714 z"
       id="path3105"
       style="fill:#4b4b4b;fill-opacity:1;stroke:none" />
    <path
       d="m 1273.7653,729.60139 c 1.6347,-1.07838 3.7507,-1.99636 6.0976,-2.83734 5.295,7.84542 8.1828,16.12853 12.2577,24.19578 l -2.3662,2.36607 5.4242,10.24553 -4.2858,2.32143 -5.6935,-8.68145 z"
       id="path3107"
       style="fill:#4b4b4b;fill-opacity:1;stroke:none" />
    <path
       d="m 1331.6336,852.46314 4.0406,8.20749 -3.283,1.6415 41.3487,89.19826 c 1.674,-20.03833 -21.6671,-69.04337 -28.9743,-86.67288 -5.4837,0.81964 -8.0143,-8.62174 -10.8592,-13.38452 z"
       id="path3109"
       style="fill:#4a4a4b;fill-opacity:1;stroke:none" />
    <path
       d="m 1056.5803,528.08802 c 8.063,28.93957 17.4309,54.49527 34.5107,82.82239 4.1454,24.04892 -16.725,30.81626 -36.4917,33.46131 -12.2963,-12.64757 -21.3273,-28.16344 -31.0622,-42.93149 -3.396,-0.61546 -5.4981,0.25133 -7.8504,0.87492 -13.0391,27.83081 -22.55419,29.73054 -35.20739,58.59782 -11.18581,2.32237 -24.81207,-26.07097 -21.33947,-44.82552 l 1.03873,-86.44459 z"
       id="path3123"
       style="fill:#2b2b2a;fill-opacity:1;stroke:none" />
    <path
       d="m 993.10621,613.94087 c 7.92709,-8.74633 14.05849,-18.59916 39.52219,-13.00571 -12.6415,0.51001 -23.4042,0.51812 -39.52219,13.00571 z"
       id="path3125"
       style="fill:none;stroke:#000000;stroke-width:1px;stroke-linecap:butt;stroke-linejoin:miter;stroke-opacity:1" />
    <path
       d="m 1056.5938,528.09375 -96.4063,1.5625 -1.0625,86.4375 c -3.4726,18.75455 10.15794,47.13487 21.34375,44.8125 12.6532,-28.86728 22.17965,-30.76294 35.21875,-58.59375 2.3523,-0.62359 4.4478,-1.49046 7.8437,-0.875 2.4701,3.74715 4.9308,7.52813 7.375,11.3125 3.2805,4.16089 6.6957,8.47583 11.3126,13.4375 -2.2897,-9.5533 6.2563,-3.65533 9.6562,-13.03125 4.7808,8.33665 -6.2276,10.27957 1.9688,16.84375 5.4621,4.37466 19.4201,-0.30843 12.75,-6.9375 -8.3588,-8.30705 4.5125,-12.02526 5.9687,-23.9375 3.4771,6.32253 0.1432,9.12739 0.031,13.65625 -0.1152,4.64168 6.4215,6.7144 9.5312,4.15625 3.7197,-3.06004 3.8148,-8.85828 -0.9375,-12.625 -2.502,-1.98317 -3.1295,-11.20629 -2.9063,-17 -9.4641,-19.5124 -15.9138,-38.49619 -21.6874,-59.21875 z M 1030.9062,612.75 c 1.7987,2.78476 3.5919,5.56311 5.4376,8.3125 -1.8408,-2.7492 -3.6403,-5.52991 -5.4376,-8.3125 z m 5.4376,8.3125 c 0.925,1.37802 1.8659,2.73349 2.8124,4.09375 -0.9413,-1.35721 -1.8921,-2.71915 -2.8124,-4.09375 z m 5.6562,8.125 c 0.9607,1.31821 1.9433,2.61674 2.9375,3.90625 -0.989,-1.28668 -1.9819,-2.59097 -2.9375,-3.90625 z m 6.75,8.65625 c 0.8195,0.97695 1.6517,1.95444 2.5,2.90625 -0.8515,-0.95666 -1.678,-1.92397 -2.5,-2.90625 z"
       id="path3137"
       style="fill:#c6b9a4;fill-opacity:1;stroke:none" />
    <path
       d="m 993.57142,583.21429 c 39.73978,-23.58002 71.88548,-9.09799 68.21428,-43.03572 l -72.32142,6.42858 z"
       id="path3914"
       style="fill:#91877c;fill-opacity:1;stroke:none" />
    <path
       d="m 1056.5803,528.08802 c 8.063,28.93957 17.4309,54.49527 34.5107,82.82239 4.1454,24.04892 -16.725,30.81626 -36.4917,33.46131 -12.2963,-12.64757 -21.3273,-28.16344 -31.0622,-42.93149 -3.396,-0.61546 -5.4981,0.25133 -7.8504,0.87492 -13.0391,27.83081 -22.55419,29.73054 -35.20739,58.59782 -11.18581,2.32237 -24.81207,-26.07097 -21.33947,-44.82552 l 1.03873,-86.44459 z"
       id="path3916"
       style="fill:none;stroke:#000000" />
  </g>
</svg>
