<?xml version="1.0" encoding="UTF-8" standalone="no"?>
<!-- Created with Inkscape (http://www.inkscape.org/) -->

<svg
   xmlns:dc="http://purl.org/dc/elements/1.1/"
   xmlns:cc="http://creativecommons.org/ns#"
   xmlns:rdf="http://www.w3.org/1999/02/22-rdf-syntax-ns#"
   xmlns:svg="http://www.w3.org/2000/svg"
   xmlns="http://www.w3.org/2000/svg"
   version="1.1"
   width="1920"
   height="1080"
   id="svg2">
  <defs
     id="defs4" />
  <metadata
     id="metadata7">
    <rdf:RDF>
      <cc:Work
         rdf:about="">
        <dc:format>image/svg+xml</dc:format>
        <dc:type
           rdf:resource="http://purl.org/dc/dcmitype/StillImage" />
        <dc:title></dc:title>
      </cc:Work>
    </rdf:RDF>
  </metadata>
  <g
     id="layer7"
     style="display:inline">
    <g
       id="g4214"
       style="display:inline">
      <path
         d="m 1185.9604,875.79612 c 2.1697,34.69322 -20.4788,26.50376 -36.2437,30.19519 -7.339,33.93067 -10.8913,34.08233 -41.3673,37.97646 l -4.8573,13.99778 127.931,200.37005 88.4509,-207.3388 -6.515,-15.45614 c -41.6207,2.49754 -44.6797,-0.56021 -59.0962,-33.84713 -19.3262,-1.21468 -41.9694,4.07246 -45.1093,-28.64063 z m -12.9929,62.89608 c 12.0387,-1.89841 11.9583,11.64621 21.4771,15.77704 l 18.366,37.85542 6.1675,-42.41067 c 8.7889,-2.53037 4.2606,-15.03601 18.8923,-13.5382 0.7422,35.4295 26.4138,28.52348 48.1414,27.99744 -5.2259,21.36364 -28.5756,25.62058 -34.8438,49.17557 l -17.9568,-15.17616 -16.9893,25.08116 -22.2747,-24.57841 -12.5548,16.19221 c -12.5079,-21.15428 -32.1719,-27.10004 -45.3876,-44.65074 16.3653,-5.47583 42.8036,9.36692 35.7357,-31.4779 0.4143,-0.0942 0.8387,-0.1855 1.227,-0.2468 z m 20.9518,97.378 12.3821,43.9011 -21.7075,-31.8891 z m 44.7869,-1.3923 14.1497,11.7861 -13.3006,31.0599 z"
         id="path4216"
         style="fill:#191918;fill-opacity:1;stroke:#000000;stroke-width:1px;stroke-linecap:butt;stroke-linejoin:miter;stroke-opacity:1" />
      <path
         d="m 1196.955,706.29406 60.8112,61.51829 -120.2081,-25.45585 -14.4957,-24.04163 z"
         id="path3225-6"
         style="fill:#191918;fill-opacity:1;stroke:#000000;stroke-width:1px;stroke-linecap:butt;stroke-linejoin:miter;stroke-opacity:1;display:inline" />
      <path
         d="m 1263.7073,763.07482 c -15.8697,8.57709 -40.283,-22.98578 -60.7665,-44.1832 -18.0356,1.60348 -19.9893,-3.32757 -27.9867,-6.81602 l -62.5989,28.9847 c -32.1519,3.10974 -24.1108,-12.10906 -63.4245,-8.9873 l 44.0835,-16.86922 c 24.3333,-10.3877 71.5422,-12.74039 101.2524,-27.41516 l 27.448,18.87487 z"
         id="path4232"
         style="fill:#191918;fill-opacity:1;stroke:#000000;stroke-width:1px;stroke-linecap:butt;stroke-linejoin:miter;stroke-opacity:1" />
      <path
         d="m 1303.8344,720.06552 c -28.1772,8.46153 -59.4207,11.97321 -84.7482,-24.15926 l -50.6105,-46.20789 c -52.5548,26.9709 -29.9134,16.49561 -87.2539,43.01166 3.4686,6.73982 6.471,17.93037 22.834,27.16106 l 61.7542,-40.73602 c 16.4242,4.56274 35.4461,15.81068 49.5832,23.41243 29.3246,52.25374 52.3956,43.77629 88.4412,17.51802 z"
         id="path4230"
         style="fill:#191918;fill-opacity:1;stroke:#000000;stroke-width:1px;stroke-linecap:butt;stroke-linejoin:miter;stroke-opacity:1" />
      <path
         d="m 1335.7692,693.66294 c -54.2106,-3.24185 -95.0378,-7.41165 -126.9166,-30.50006 -5.3314,-13.27347 -1.1551,-32.07297 -32.0483,-25.90313 -16.7625,-10.03783 -34.5146,-19.7986 -48.2064,-30.69626 l -82.0491,35.54944 c -6.545,19.75748 -49.37058,-27.30401 -60.50583,-48.05024 15.88143,32.33326 44.69083,129.09928 76.82263,81.41302 l 88.6115,-11.92252 c 23.1704,11.72942 26.0463,16.08564 35.0962,10.92723 l 32.9569,23.72601 c 17.0123,22.2239 47.7341,27.21842 116.239,-4.54349"
         id="path4228"
         style="fill:#191918;fill-opacity:1;stroke:#000000;stroke-width:1px;stroke-linecap:butt;stroke-linejoin:miter;stroke-opacity:1" />
      <path
         d="m 1283.5154,631.5176 c -0.3895,3.9459 -27.0041,25.43495 -50.2523,27.60203 -15.966,1.48829 -34.7292,-11.50401 -56.0932,-32.42806 -23.5951,5.44757 -39.536,-5.29203 -63.9528,-14.12242 l -47.078,0.95313 c -38.729,34.29716 -44.3877,13.33044 -66.96384,-4.171 l 50.03384,-14.09095 103.1183,-5.39608 c 22.3898,9.09695 47.4953,30.87112 73.6405,41.30463 24.4576,9.76012 52.4945,-0.85327 57.5475,0.34875 z"
         id="path4226"
         style="fill:#191918;fill-opacity:1;stroke:#000000;stroke-width:1px;stroke-linecap:butt;stroke-linejoin:miter;stroke-opacity:1" />
      <path
         d="m 1117.2942,564.35921 c 21.9443,-20.65237 38.4634,-9.49413 52.5231,6.40055 24.8507,28.0943 43.4118,15.58348 50.7364,25.33824 -4.6158,9.41871 -34.3141,17.39004 -54.0053,-3.05498 -18.2827,7.31449 -35.5612,11.45102 -47.4483,-1.47533 l -56.0643,-1.34165 -27.214,-65.97362 55.2015,-16.7749 z"
         id="path4218"
         style="fill:#191918;fill-opacity:1;stroke:#000000;stroke-width:1px;stroke-linecap:butt;stroke-linejoin:miter;stroke-opacity:1" />
      <path
         d="m 1089.6968,552.29426 c 53.3351,18.59518 10.4717,42.30079 -11.1665,38.00049 l -12.2922,-0.0402 -19.392,-48.33674 31.2396,-5.88447 z"
         id="path4224"
         style="fill:#191918;fill-opacity:1;stroke:#000000;stroke-width:1px;stroke-linecap:butt;stroke-linejoin:miter;stroke-opacity:1" />
      <path
         d="m 1087.8425,546.15668 c 4.8227,7.21599 24.3861,28.90802 -3.5407,38.80927 7.2413,-7.02248 -2.1653,-20.12577 -4.9873,-31.17859 z"
         id="path4222"
         style="fill:#191918;fill-opacity:1;stroke:#000000;stroke-width:1px;stroke-linecap:butt;stroke-linejoin:miter;stroke-opacity:1" />
      <path
         d="m 1062.4003,564.50959 c 9.8229,-2.0483 16.8637,-0.60455 21.818,7.14275 l 36.0174,-0.18717 c 4.136,0.77555 13.7788,2.12304 15.5364,4.22489 -1.6502,2.52606 -6.3904,5.18854 -15.5765,8.75179 l -53.813,1.08392 z"
         id="path4220"
         style="fill:#191918;fill-opacity:1;stroke:#000000;stroke-width:1px;stroke-linecap:butt;stroke-linejoin:miter;stroke-opacity:1" />
      <path
         d="m 1182.2373,875.69375 c -17.3567,-1.10222 -20.7427,-6.29793 -23.688,4.5962 -7.3487,4.80803 -20.5266,5.9793 -27.4005,5.03814 1.074,-6.66715 1.5987,-11.31524 1.0607,-16.35185 -10.8365,-8.66067 -22.4281,-11.42536 -35.1785,-18.38477 l 0.3535,-12.02082 94.0452,14.14214 z"
         id="path4021-9"
         style="fill:#191918;fill-opacity:1;stroke:#000000;stroke-width:1px;stroke-linecap:butt;stroke-linejoin:miter;stroke-opacity:1;display:inline" />
    </g>
  </g>
</svg>
