<?xml version="1.0" encoding="UTF-8" standalone="no"?>
<!-- Created with Inkscape (http://www.inkscape.org/) -->

<svg
   xmlns:dc="http://purl.org/dc/elements/1.1/"
   xmlns:cc="http://creativecommons.org/ns#"
   xmlns:rdf="http://www.w3.org/1999/02/22-rdf-syntax-ns#"
   xmlns:svg="http://www.w3.org/2000/svg"
   xmlns="http://www.w3.org/2000/svg"
   version="1.1"
   width="1920"
   height="1080"
   id="svg2">
  <defs
     id="defs4" />
  <metadata
     id="metadata7">
    <rdf:RDF>
      <cc:Work
         rdf:about="">
        <dc:format>image/svg+xml</dc:format>
        <dc:type
           rdf:resource="http://purl.org/dc/dcmitype/StillImage" />
        <dc:title></dc:title>
      </cc:Work>
    </rdf:RDF>
  </metadata>
  <g
     id="layer7"
     style="display:inline">
    <g
       id="g4274"
       style="display:inline">
      <path
         d="m 1229.39,885.68083 c 13.103,32.1969 -10.9743,31.64484 -24.7434,40.16366 3.8464,34.50152 0.5272,35.77635 -27.1228,49.17128 l -0.1477,14.81586 185.0703,149.20947 17.8317,-224.71088 -11.0972,-12.57738 c -38.6594,15.61945 -42.5328,13.6948 -66.7974,-13.26962 -18.7073,5.00195 -38.4886,17.22344 -51.8808,-12.78743 z m 7.7093,63.75972 c 10.8077,-5.6327 15.044,7.23264 25.3827,8.11772 l 29.4632,30.03766 -7.657,-42.16721 c 7.526,-5.19706 -0.7484,-15.61008 13.5987,-18.8489 11.9841,33.34934 34.1209,18.62899 54.5503,11.21231 1.8481,21.91573 -18.931,33.3856 -17.3731,57.71053 l -21.8543,-8.669 -8.1194,29.18524 -28.9412,-16.20711 -6.7459,19.34701 c -18.5924,-16.0709 -39.1261,-15.4463 -57.2422,-27.87582 13.7702,-10.4015 43.5585,-4.74907 23.8535,-41.21783 0.3627,-0.22121 0.7361,-0.4429 1.0847,-0.62463 z m 50.8662,85.63935 25.7157,37.6739 -30.7313,-23.318 z m 42.0127,-15.5799 17.166,6.6675 -2.7189,33.6783 z"
         id="path4276"
         style="fill:#191918;fill-opacity:1;stroke:#000000;stroke-width:1px;stroke-linecap:butt;stroke-linejoin:miter;stroke-opacity:1" />
      <path
         d="m 1203.5688,700.46814 63.6917,58.53083 -120.2299,-6.57959 -16.6929,-36.40019 z"
         id="path4296"
         style="fill:#191918;fill-opacity:1;stroke:#000000;stroke-width:1px;stroke-linecap:butt;stroke-linejoin:miter;stroke-opacity:1;display:inline" />
      <path
         d="m 1272.9676,753.98194 c -20.5243,-2.09716 -23.7095,-20.07767 -53.2698,-37.32875 -12.9882,2.11311 -19.9491,-0.24368 -27.0439,-3.16777 l -68.2078,9.14956 c -8.2777,-0.30151 -15.2946,8.15317 -22.2401,3.61098 l 14.9395,-74.82559 c 24.0388,-17.1036 40.1458,-0.71117 67.6476,18.49498 l 43.5245,29.73426 z"
         id="path4292"
         style="fill:#191918;fill-opacity:1;stroke:#000000;stroke-width:1px;stroke-linecap:butt;stroke-linejoin:miter;stroke-opacity:1" />
      <path
         d="m 1328.3098,718.11315 c -27.739,9.80324 -64.9652,9.15255 -91.9965,-25.72357 l -63.9055,-47.08606 c -51.2008,29.46052 -29.0878,17.91135 -85.0906,47.14708 3.7879,6.5657 7.3236,17.59937 24.1105,26.03462 l 59.7293,-43.65102 c 16.6241,3.76974 36.1636,14.0924 50.649,21.00735 31.7971,50.78712 71.7591,50.22849 106.5038,22.2716 z"
         id="path4290"
         style="fill:#191918;fill-opacity:1;stroke:#000000;stroke-width:1px;stroke-linecap:butt;stroke-linejoin:miter;stroke-opacity:1" />
      <path
         d="m 1218.384,655.06596 c -5.9619,-13.00249 -3.4421,-25.73066 -31.8788,-20.33621 -17.2247,-9.2223 -20.6745,-25.7454 -34.8732,-35.97383 l -101.3746,44.81881 c -15.4296,11.66671 -24.3251,-1.85432 -34.7408,-20.59292 5.6004,28.31316 26.8754,86.93956 52.6389,53.13471 30.406,-4.91784 65.7346,-8.19484 91.2181,-14.75353 2.5641,2.08334 5.2171,4.09688 12.3446,2.5947 14.0577,11.61581 16.4322,15.0799 26.9549,8.98135 6.7482,7.9643 9.9393,11.60722 17.8811,9.5909 5.2427,2.39615 8.0405,4.12632 13.065,7.00934 20.903,22.80458 60.3608,31.42306 114.0607,-10.28311 -54.9912,-1.07554 -96.1656,-1.70257 -125.2959,-24.19021 z"
         id="path4288"
         style="fill:#191918;fill-opacity:1;stroke:#000000;stroke-width:1px;stroke-linecap:butt;stroke-linejoin:miter;stroke-opacity:1" />
      <path
         d="m 1242.0371,653.27904 c -15.654,3.47599 -35.066,-10.57464 -58.0968,-29.64865 -23.0601,7.39181 -40.4642,-1.48426 -65.5311,-8.25255 l -46.8355,4.86675 c -35.4126,39.04292 -43.8866,12.2835 -67.9626,-3.88842 l 49.5719,-12.90163 102.6868,-14.20687 c 25.8553,6.50602 49.4352,26.42844 75.3218,34.90949 25.0243,8.19853 49.2415,-9.09287 54.4042,-6.22186 0.5171,2.45464 -21.0263,30.3404 -43.5587,35.34374 z"
         id="path4286"
         style="fill:#191918;fill-opacity:1;stroke:#000000;stroke-width:1px;stroke-linecap:butt;stroke-linejoin:miter;stroke-opacity:1" />
      <path
         d="m 1116.6921,562.76737 c 20.9285,-21.68111 37.9638,-11.32801 52.7696,3.87404 26.1696,26.87007 43.1093,11.98341 50.8933,21.37563 -4.1587,9.62926 -32.4405,20.51582 -53.0897,1.03877 -17.9108,8.18296 -34.971,13.14345 -47.4644,0.80211 l -56.0641,1.34888 -30.347,-64.59244 54.3334,-19.4032 z"
         id="path4278"
         style="fill:#191918;fill-opacity:1;stroke:#000000;stroke-width:1px;stroke-linecap:butt;stroke-linejoin:miter;stroke-opacity:1" />
      <path
         d="m 1089.0478,551.78994 c 54.1656,16.0157 12.4885,41.74986 -9.3311,38.49234 l -12.28,0.54941 -21.688,-47.35103 30.9214,-7.37602 z"
         id="path4284"
         style="fill:#191918;fill-opacity:1;stroke:#000000;stroke-width:1px;stroke-linecap:butt;stroke-linejoin:miter;stroke-opacity:1" />
      <path
         d="m 1086.9012,545.74837 c 5.1633,6.97637 25.7446,27.70513 -1.6752,38.93442 6.8962,-7.36171 -3.1281,-19.99875 -6.477,-30.9035 z"
         id="path4282"
         style="fill:#191918;fill-opacity:1;stroke:#000000;stroke-width:1px;stroke-linecap:butt;stroke-linejoin:miter;stroke-opacity:1" />
      <path
         d="m 1062.3686,565.30043 c 9.7133,-2.51708 16.8153,-1.41268 22.1354,6.08808 l 35.967,-1.91444 c 4.1685,0.57628 13.8648,1.45973 15.7212,3.47486 -1.5272,2.6023 -6.1342,5.48907 -15.1388,9.48881 l -53.6991,3.66368 z"
         id="path4280"
         style="fill:#191918;fill-opacity:1;stroke:#000000;stroke-width:1px;stroke-linecap:butt;stroke-linejoin:miter;stroke-opacity:1" />
      <path
         d="m 1231.0769,849.3013 c -17.0632,3.3642 -51.1631,17.32976 -51.2304,28.61482 -6.6165,0.26822 -20.6879,-5.30472 -20.7696,-14.01037 4.9361,-0.5639 8.3543,-0.96526 11.2839,-2.85657 -0.7812,-3.33771 -1.3383,-7.67767 -2.1193,-9.72444 -9.1525,-3.66351 -19.9831,-3.37079 -24.5415,-5.78478 l -4.1404,-10.4755 94.5399,-10.32916 z"
         id="path4294"
         style="fill:#191918;fill-opacity:1;stroke:#000000;stroke-width:1px;stroke-linecap:butt;stroke-linejoin:miter;stroke-opacity:1;display:inline" />
    </g>
  </g>
</svg>
