<?xml version="1.0" encoding="UTF-8" standalone="no"?>
<!-- Created with Inkscape (http://www.inkscape.org/) -->

<svg
   xmlns:dc="http://purl.org/dc/elements/1.1/"
   xmlns:cc="http://creativecommons.org/ns#"
   xmlns:rdf="http://www.w3.org/1999/02/22-rdf-syntax-ns#"
   xmlns:svg="http://www.w3.org/2000/svg"
   xmlns="http://www.w3.org/2000/svg"
   version="1.1"
   width="1920"
   height="1080"
   id="svg2">
  <defs
     id="defs4" />
  <metadata
     id="metadata7">
    <rdf:RDF>
      <cc:Work
         rdf:about="">
        <dc:format>image/svg+xml</dc:format>
        <dc:type
           rdf:resource="http://purl.org/dc/dcmitype/StillImage" />
        <dc:title></dc:title>
      </cc:Work>
    </rdf:RDF>
  </metadata>
  <g
     id="layer7"
     style="display:inline">
    <g
       id="g4095"
       style="display:inline">
      <path
         d="m 995.42962,668.67873 c -15.61664,31.05559 -31.04771,12.56473 -46.52369,7.80485 -23.4442,25.60317 -26.58832,23.94328 -54.87135,11.94183 l -11.2517,9.63998 9.46735,237.53922 180.91707,-134.46903 2.1663,-16.6326 c -37.2033,-18.8261 -38.3039,-23.00904 -33.9725,-59.02422 -16.078,-10.79227 -38.2986,-17.64171 -24.5181,-47.47633 z m -42.92981,47.76778 c 11.35386,4.42981 4.45589,16.08658 10.59397,24.45297 l -3.22365,41.95171 26.70765,-33.5172 c 8.86592,2.24562 11.25977,-10.83741 23.14112,-2.16726 -17.22075,30.97168 8.4312,37.94975 27.4607,48.4494 -15.2835,15.81539 -37.59496,7.72002 -54.88331,24.90255 l -7.85673,-22.15932 -27.31708,13.09519 -6.8456,-32.45594 -19.00576,7.65436 c -0.13728,-24.57503 -14.12193,-39.62348 -16.68703,-61.44322 16.89398,3.52157 32.24363,29.66884 46.73151,-9.16874 0.40514,0.12758 0.81783,0.26264 1.18422,0.40549 z m -30.99881,94.66004 -11.43922,44.15633 -2.6702,-38.48386 z m 39.38064,21.37707 6.27804,17.31209 -27.14552,20.11838 z"
         id="path4097"
         style="fill:#191918;fill-opacity:1;stroke:#000000;stroke-width:1px;stroke-linecap:butt;stroke-linejoin:miter;stroke-opacity:1" />
      <path
         d="m 1228.4455,705.8199 c -30.5567,-9.79578 -39.0781,-4.62514 -53.7036,-5.09617 -14.8867,-6.31942 -20.7471,-25.56992 -27.838,-38.47489 -29.4601,11.87476 -9.4275,66.46875 -42.7809,75.3876 -56.0307,-33.37332 -75.3993,-21.94588 -93.7709,-19.59617 53.5531,13.31824 31.7142,0.24944 96.2539,37.742 11.5268,7.54956 34.9487,-24.39334 49.7369,-28.15141 31.1547,16.31807 63.5576,-15.94462 72.1026,-21.81096 z"
         id="path4111"
         style="fill:#191918;fill-opacity:1;stroke:#000000;stroke-width:1px;stroke-linecap:butt;stroke-linejoin:miter;stroke-opacity:1" />
      <path
         d="m 1158.5774,674.72342 c 21.1518,43.97051 85.659,31.96411 129.9408,32.32884 -51.3479,-16.37586 -70.1957,-18.20717 -104.507,-39.25157 -40.1141,-24.60363 -14.6174,-32.43538 -30.1732,-46.5652 -6.6776,-6.06539 -25.118,-2.93205 -32.8428,-3.50561 -6.8588,-2.92844 -30.7126,3.06584 -36.5871,-3.83399 l -48.0857,23.45158 c -12.6796,-2.41206 -18.1337,-0.93298 -24.0523,1.80022 -15.91305,-6.97487 -26.59668,-37.70029 -35.70035,-52.34107 3.18034,37.91287 -12.76514,143.86217 47.56795,117.05278 l 104.5416,-58.57561 c 9.042,9.50729 9.2583,15.88135 29.8981,29.43963 z"
         id="path4109"
         style="fill:#191918;fill-opacity:1;stroke:#000000;stroke-width:1px;stroke-linecap:butt;stroke-linejoin:miter;stroke-opacity:1" />
      <path
         d="m 1268.6424,644.114 c -1.1486,4.50585 -35.9948,13.806 -58.9146,13.05845 -19.5228,-0.63677 -31.9896,-6.93079 -47.0364,-27.95889 -2.1935,-1.26533 -13.257,-11.3133 -16.0824,-12.85868 -13.0033,0.11896 -24.1859,1.65504 -48.8189,-8.17863 l -47.0147,-2.61972 c -24.1897,46.58435 -55.54675,-1.38811 -65.81411,-7.5374 l 50.31761,-11.95587 103.2307,2.43935 c 21.6355,10.76865 45.4718,33.49678 70.296,46.77014 23.8207,12.73682 54.0416,5.69487 59.8368,8.84125 z"
         id="path4107"
         style="fill:#191918;fill-opacity:1;stroke:#000000;stroke-width:1px;stroke-linecap:butt;stroke-linejoin:miter;stroke-opacity:1" />
      <path
         d="m 1122.2606,561.84715 c 20.967,-16.62682 37.077,-0.41362 50.3535,16.06692 24.9391,30.95754 45.0094,19.43625 51.49,29.397 -5.6606,9.49986 -37.9967,11.97643 -59.6161,-9.10671 -18.8041,5.84505 -34.7578,10.74558 -45.5851,-3.08075 l -55.7822,-5.77316 -21.9092,-67.91994 22.2378,12.74743 c 18.6114,10.95742 32.6594,13.06799 58.8113,27.66921 z"
         id="path4099"
         style="fill:#191918;fill-opacity:1;stroke:#000000;stroke-width:1px;stroke-linecap:butt;stroke-linejoin:miter;stroke-opacity:1" />
      <path
         d="m 1092.9526,555.55245 c 53.7854,23.02728 6.2842,40.66965 -15.6309,34.52916 l -12.2376,-1.15691 -14.9196,-49.89883 31.6449,-3.02157 z"
         id="path4105"
         style="fill:#191918;fill-opacity:1;stroke:#000000;stroke-width:1px;stroke-linecap:butt;stroke-linejoin:miter;stroke-opacity:1" />
      <path
         d="m 1087.0186,547.00945 c 4.1757,7.73781 17.6682,28.30066 -7.0524,38.32701 11.6979,-5.90835 -0.4785,-20.36593 -2.1336,-31.50278 z"
         id="path4103"
         style="fill:#191918;fill-opacity:1;stroke:#000000;stroke-width:1px;stroke-linecap:butt;stroke-linejoin:miter;stroke-opacity:1" />
      <path
         d="m 1061.8832,564.22246 c 10.0908,-1.16851 20.054,0.97172 22.3067,9.48056 l 32.9127,1.77292 c 4.0484,1.14815 17.6159,2.58595 19.1751,4.8388 -1.8728,2.36569 -8.2671,5.25738 -17.7388,7.97121 l -54.5996,-2.77239 z"
         id="path4101"
         style="fill:#191918;fill-opacity:1;stroke:#000000;stroke-width:1px;stroke-linecap:butt;stroke-linejoin:miter;stroke-opacity:1" />
    </g>
  </g>
</svg>
