<?xml version="1.0" encoding="UTF-8" standalone="no"?>
<!-- Created with Inkscape (http://www.inkscape.org/) -->

<svg
   xmlns:dc="http://purl.org/dc/elements/1.1/"
   xmlns:cc="http://creativecommons.org/ns#"
   xmlns:rdf="http://www.w3.org/1999/02/22-rdf-syntax-ns#"
   xmlns:svg="http://www.w3.org/2000/svg"
   xmlns="http://www.w3.org/2000/svg"
   version="1.1"
   width="1920"
   height="1080"
   id="svg2">
  <defs
     id="defs4" />
  <metadata
     id="metadata7">
    <rdf:RDF>
      <cc:Work
         rdf:about="">
        <dc:format>image/svg+xml</dc:format>
        <dc:type
           rdf:resource="http://purl.org/dc/dcmitype/StillImage" />
        <dc:title></dc:title>
      </cc:Work>
    </rdf:RDF>
  </metadata>
  <g
     id="layer7"
     style="display:inline">
    <g
       id="g4113"
       style="display:inline">
      <path
         d="m 1221.1173,700.34755 c -29.1709,-13.36894 -38.248,-9.25112 -52.713,-11.46247 -14.0271,-8.04917 -17.5506,-27.86105 -23.0524,-41.51937 -30.6657,8.27778 -17.2848,64.87071 -51.4636,69.74949 -51.6523,-39.81538 -72.2451,-30.7786 -90.7658,-30.63595 51.5833,19.60795 31.4582,4.02869 91.0677,48.94838 10.5445,8.86996 37.6076,-20.05271 52.7384,-22.02089 28.987,19.916 65.0052,-8.25345 74.1887,-13.05919 z"
         id="path4129"
         style="fill:#191918;fill-opacity:1;stroke:#000000;stroke-width:1px;stroke-linecap:butt;stroke-linejoin:miter;stroke-opacity:1" />
      <path
         d="m 1156.8705,665.8834 c 20.0149,44.4995 84.8093,34.15463 129.0671,35.65709 -50.9101,-17.68987 -69.7046,-20.00489 -103.4639,-41.924 -39.4686,-25.62627 -13.7791,-32.80027 -28.9667,-47.32515 -6.5195,-6.23497 -25.0343,-3.5765 -32.7418,-4.34837 -6.7813,-3.10372 -30.7813,2.27564 -36.4765,-4.77286 l -48.6725,22.20824 c -8.5645,-7.32585 -18.828,-8.14382 -27.8029,-2.17718 -15.72856,-7.38147 -21.90684,-35.0125 -30.6313,-49.88238 2.20509,37.98208 -16.45758,143.48666 44.5445,118.23643 l 106.0122,-55.86999 c 8.7947,9.73649 8.8472,16.11401 29.1318,30.19817 z"
         id="path4127"
         style="fill:#191918;fill-opacity:1;stroke:#000000;stroke-width:1px;stroke-linecap:butt;stroke-linejoin:miter;stroke-opacity:1" />
      <path
         d="m 1269.3032,641.3875 c -1.3,4.46452 -36.4401,12.58352 -59.3217,11.06298 -19.4902,-1.29519 -31.7375,-8.0063 -46.0661,-29.53017 -2.1496,-1.33863 -12.8677,-11.7542 -15.6394,-13.39404 -12.9999,-0.3199 -24.2279,0.83796 -48.5151,-9.82133 l -46.8995,-4.2047 c -81.72177,47.07427 -55.77752,-3.25434 -65.52229,-9.75395 l 50.69239,-10.25114 103.0896,5.9214 c 21.2598,11.49259 44.3156,35.01211 68.6777,49.11559 23.3774,13.53337 53.8187,7.51521 59.5044,10.85536 z"
         id="path4125"
         style="fill:#191918;fill-opacity:1;stroke:#000000;stroke-width:1px;stroke-linecap:butt;stroke-linejoin:miter;stroke-opacity:1" />
      <path
         d="m 1123.7606,558.84715 c 20.967,-16.62682 37.077,-0.41362 50.3535,16.06692 24.9391,30.95754 45.0094,19.43625 51.49,29.397 -5.6606,9.49986 -37.9967,11.97643 -59.6161,-9.10671 -18.8041,5.84505 -34.7578,10.74558 -45.5851,-3.08075 l -55.7822,-5.77316 -21.9092,-67.91994 22.2378,12.74743 c 18.6114,10.95742 32.6594,13.06799 58.8113,27.66921 z"
         id="path4117"
         style="fill:#191918;fill-opacity:1;stroke:#000000;stroke-width:1px;stroke-linecap:butt;stroke-linejoin:miter;stroke-opacity:1" />
      <path
         d="m 1094.7026,553.80245 c 21.6919,27.08955 -5.8704,44.06612 -17.3809,36.27916 l -12.2376,-1.15691 -14.9196,-49.89883 30.6449,-8.14657 z"
         id="path4123"
         style="fill:#191918;fill-opacity:1;stroke:#000000;stroke-width:1px;stroke-linecap:butt;stroke-linejoin:miter;stroke-opacity:1" />
      <path
         d="m 1085.2686,549.38445 c 2.1844,10.63368 12.5685,30.90884 -5.3024,35.95201 11.6979,-5.90835 -0.4785,-20.36593 -2.1336,-31.50278 z"
         id="path4121"
         style="fill:#191918;fill-opacity:1;stroke:#000000;stroke-width:1px;stroke-linecap:butt;stroke-linejoin:miter;stroke-opacity:1" />
      <path
         d="m 1061.3832,563.47246 c 10.0908,-1.16851 20.054,0.97172 22.3067,9.48056 l 32.9127,1.77292 c 4.0484,1.14815 17.6159,2.58595 19.1751,4.8388 -1.8728,2.36569 -8.2671,5.25738 -17.7388,7.97121 l -54.5996,-2.77239 z"
         id="path4119"
         style="fill:#191918;fill-opacity:1;stroke:#000000;stroke-width:1px;stroke-linecap:butt;stroke-linejoin:miter;stroke-opacity:1" />
    </g>
  </g>
</svg>
