<?xml version="1.0" encoding="UTF-8" standalone="no"?>
<!-- Created with Inkscape (http://www.inkscape.org/) -->

<svg
   xmlns:dc="http://purl.org/dc/elements/1.1/"
   xmlns:cc="http://creativecommons.org/ns#"
   xmlns:rdf="http://www.w3.org/1999/02/22-rdf-syntax-ns#"
   xmlns:svg="http://www.w3.org/2000/svg"
   xmlns="http://www.w3.org/2000/svg"
   version="1.1"
   width="1920"
   height="1080"
   id="svg2">
  <defs
     id="defs4" />
  <metadata
     id="metadata7">
    <rdf:RDF>
      <cc:Work
         rdf:about="">
        <dc:format>image/svg+xml</dc:format>
        <dc:type
           rdf:resource="http://purl.org/dc/dcmitype/StillImage" />
        <dc:title></dc:title>
      </cc:Work>
    </rdf:RDF>
  </metadata>
  <g
     id="layer3"
     style="display:inline">
    <path
       d="m 944.49262,363.29677 c 13.48747,-4.42463 25.82384,-9.98718 45.20433,-8.58629 -16.9629,1.28311 -31.01641,4.9907 -45.20433,8.58629 z"
       id="path3127"
       style="fill:#000000;stroke:none" />
    <path
       d="m 884.28571,352.5 c 7.52809,0.0851 18.60471,3.08176 29.64286,6.07143 -9.52469,-4.72045 -19.15386,-7.47788 -29.64286,-6.07143 z"
       id="path3129"
       style="fill:#000000;stroke:none" />
    <path
       d="m 889.10714,362.14286 c 9.97816,0.56317 19.57242,4.12394 27.67857,8.92857 -8.65491,-3.13308 -18.08039,-6.26261 -27.67857,-8.92857 z"
       id="path3131"
       style="fill:#000000;stroke:none" />
    <path
       d="m 953.03571,371.60715 c 7.71647,-2.86435 17.10962,-5.16981 29.10714,-6.60715 -13.39052,-0.432 -22.36654,2.28921 -29.10714,6.60715 z"
       id="path3139"
       style="fill:#000000;stroke:none" />
    <path
       d="m 886.96429,424.19642 -6.60715,-17.23214 c 5.14453,2.11519 9.88495,2.94399 13.125,2.67858 -11.55501,-15.2714 -18.07014,-28.30943 -17.67857,-40.80358 l 6.60714,8.57144 c -2.0438,-10.90672 -4.91895,-25.82574 -5.80356,-36.9643 2.23462,1.72247 4.16594,5.42832 6.87499,9.28573 0.29627,-5.95926 0.26661,-11.92206 0.26786,-19.37501 2.24571,11.2662 5.31816,21.70566 8.75,31.78572 -0.36262,-7.37573 -1.16739,-15.93051 -0.89286,-21.60715 3.07368,3.81357 7.25756,6.41248 11.11925,10.83421 4.44475,8.88831 11.66624,18.97262 20.13075,28.80865 -1.05019,-7.1776 -1.90973,-13.50779 -2.32142,-19.91071 6.16991,6.25717 14.87422,12.54956 27.85714,21.16071 1.58244,-16.10575 4.61308,-30.85381 10,-43.39286 1.7525,7.32962 3.48192,14.91319 5,24.82143 4.33913,-6.74537 7.86322,-16.0523 10.53571,-28.03571 1.85891,7.51225 2.78244,15.54415 6.60715,21.96428 3.62839,-7.49266 8.0874,-10.28036 10.89285,-39.10714 0.75057,18.80668 1.15487,36.66617 0.80358,60.98215 9.44175,-10.56029 11.35205,-18.44335 17.41075,-27.94643 0.1878,40.54334 -9.1253,44.30133 -26.96433,61.07142 5.33081,-0.28925 10.41153,-0.45346 18.01593,-1.87949 -4.52843,8.20641 -8.02304,17.64004 -3.31891,30.32837 3.86121,-6.76949 5.66351,-14.40569 12.25641,-20.01455 l -13.49712,27.54518 99.88062,-3.65625 -61.6193,-260.11428 -172.231,51.51778 -66.16499,138.3909 z"
       id="path3026"
       style="fill:#eff0ed;fill-opacity:1;stroke:#000000;stroke-width:1px;stroke-linecap:butt;stroke-linejoin:miter;stroke-opacity:1;display:inline" />
    <path
       d="m 1005.7143,385.17857 c 7.6625,-6.63834 13.7886,-12.62547 18.9286,-16.78572 9.7272,-16.10074 13.5192,-30.60672 18.2142,-46.24999 2.8249,9.72728 5.1496,18.74272 7.5001,33.21428 3.7851,-4.81264 5.0431,-11.50707 6.9642,-16.78571"
       id="path3032"
       style="fill:none;stroke:#000000;stroke-width:1px;stroke-linecap:butt;stroke-linejoin:miter;stroke-opacity:1;display:inline" />
    <path
       d="m 1008.9286,421.78571 -7.8572,28.75001 c 11.6368,-14.26832 26.0924,-31.74153 32.1429,-52.14286 -0.702,10.19088 -2.1552,19.63046 -4.2857,28.39285 17.198,-23.32609 26.6033,-39.18475 24.9999,-77.67857"
       id="path3034"
       style="fill:none;stroke:#000000;stroke-width:1px;stroke-linecap:butt;stroke-linejoin:miter;stroke-opacity:1;display:inline" />
    <path
       d="m 859.51355,360.64512 c 0.43164,3.98147 8.42266,15.82051 12.37436,19.82424 -0.004,-5.74384 -0.77827,-11.26338 -0.12626,-15.53109 3.72958,2.32917 6.92295,7.87559 10.35406,11.99556"
       id="path3030"
       style="fill:none;stroke:#000000;stroke-width:1px;stroke-linecap:butt;stroke-linejoin:miter;stroke-opacity:1;display:inline" />
    <path
       d="m 831.86062,281.47442 1.76776,39.39595 c 83.13052,-80.38173 164.5771,-28.7184 201.02032,-5.3033 0.1231,-1.87141 0.01,-3.62373 0.7577,-5.80838 5.0738,-0.52929 14.4788,-0.33672 21.7182,-0.50508 L 935.90633,195.10638 831.86062,281.47442"
       id="path4151"
       style="fill:#bfbec1;fill-opacity:1;stroke:none" />
  </g>
</svg>
