<?xml version="1.0" encoding="UTF-8" standalone="no"?>
<!-- Created with Inkscape (http://www.inkscape.org/) -->

<svg
   xmlns:dc="http://purl.org/dc/elements/1.1/"
   xmlns:cc="http://creativecommons.org/ns#"
   xmlns:rdf="http://www.w3.org/1999/02/22-rdf-syntax-ns#"
   xmlns:svg="http://www.w3.org/2000/svg"
   xmlns="http://www.w3.org/2000/svg"
   version="1.1"
   width="1920"
   height="1080"
   id="svg2">
  <defs
     id="defs4">
    <filter
       x="-0.1204878"
       y="-0.11951613"
       width="1.2409756"
       height="1.2390323"
       color-interpolation-filters="sRGB"
       id="filter3964">
      <feGaussianBlur
         id="feGaussianBlur3966"
         stdDeviation="1.5594231" />
    </filter>
    <filter
       color-interpolation-filters="sRGB"
       id="filter4024">
      <feGaussianBlur
         id="feGaussianBlur4026"
         stdDeviation="0.62376923" />
    </filter>
    <filter
       color-interpolation-filters="sRGB"
       id="filter4044">
      <feGaussianBlur
         id="feGaussianBlur4046"
         stdDeviation="0.62376923" />
    </filter>
    <filter
       color-interpolation-filters="sRGB"
       id="filter4195">
      <feGaussianBlur
         id="feGaussianBlur4197"
         stdDeviation="1.4979688" />
    </filter>
  </defs>
  <metadata
     id="metadata7">
    <rdf:RDF>
      <cc:Work
         rdf:about="">
        <dc:format>image/svg+xml</dc:format>
        <dc:type
           rdf:resource="http://purl.org/dc/dcmitype/StillImage" />
        <dc:title></dc:title>
      </cc:Work>
    </rdf:RDF>
  </metadata>
  <g
     id="layer15"
     style="display:inline">
    <g
       id="g4336"
       style="display:inline">
      <path
         d="m 861.15503,357.74094 174.75637,0 0,54.54823 -174.75637,0 z"
         id="path4338"
         style="fill:#e4ded3;fill-opacity:1;stroke:none;display:inline" />
      <path
         d="m 990.70712,379.08041 c 0,8.64733 -6.95351,15.65737 -15.53109,15.65737 -8.57759,0 -15.5311,-7.01004 -15.5311,-15.65737 0,-8.64732 6.95351,-15.65736 15.5311,-15.65736 8.57758,0 15.53109,7.01004 15.53109,15.65736 z"
         transform="matrix(1.0547047,0,0,1.0547047,-46.780701,-23.515392)"
         id="path3337"
         style="fill:#bb624a;fill-opacity:1;stroke:none;display:inline" />
      <path
         d="m 853.5625,300 0,163.21875 205.375,0 0,-163.21875 z m 127.38135,75.74207 c 8.47186,-0.0253 16.40339,-0.98151 24.93115,2.57043 -3.3375,9.16863 -6.98417,20.46157 -23.875,19.86161 -12.10532,-0.42998 -22.95441,-7.2641 -20.69788,-15.88257 0.35221,-1.24482 2.00143,-1.01437 2.83181,-2.33618 7.93526,-3.49583 11.01338,-4.19597 16.80992,-4.21329 z m -88.29206,-3.88939 c 9.27456,0.86927 16.11739,4.04167 23.22321,12.55357 1.34897,10.99692 -11.25906,14.32663 -22.75446,10.60268 -14.24317,-4.61407 -12.83655,-15.02195 -12.83929,-23.66518 4.30244,-0.19752 8.17312,0.11552 12.37054,0.50893 z"
         id="path4356"
         style="fill:#c6b9a4;fill-opacity:1;stroke:none;display:inline" />
      <path
         d="m 921.51786,401.60714 c 0.86091,0.77789 -2.48097,7.4534 -3.75,7.14286 -0.89134,-0.62108 2.68137,-7.43357 3.75,-7.14286 z"
         id="path4358"
         style="fill:#b3a695;fill-opacity:1;stroke:none;display:inline" />
      <path
         d="m 990.70712,379.08041 c 0,8.64733 -6.95351,15.65737 -15.53109,15.65737 -8.57759,0 -15.5311,-7.01004 -15.5311,-15.65737 0,-8.64732 6.95351,-15.65736 15.5311,-15.65736 8.57758,0 15.53109,7.01004 15.53109,15.65736 z"
         transform="matrix(-0.8780366,-0.31930206,-0.31930206,0.8780366,1876.1639,355.55998)"
         id="path3349"
         style="fill:#bb624a;fill-opacity:1;stroke:none;display:inline" />
      <path
         d="m 990.70712,379.08041 c 0,8.64733 -6.95351,15.65737 -15.53109,15.65737 -8.57759,0 -15.5311,-7.01004 -15.5311,-15.65737 0,-8.64732 6.95351,-15.65736 15.5311,-15.65736 8.57758,0 15.53109,7.01004 15.53109,15.65736 z"
         transform="matrix(-0.26478985,-0.09629205,-0.09629205,0.26478985,1192.4663,369.94253)"
         id="path3353"
         style="fill:#eac3a3;fill-opacity:1;stroke:none;display:inline;filter:url(#filter3964)" />
      <path
         d="m 975.1875,361.5 c -9.6314,0 -17.46875,7.90955 -17.46875,17.59375 0,9.6842 7.83735,17.59375 17.46875,17.59375 9.6314,0 17.46875,-7.90955 17.46875,-17.59375 0,-9.6842 -7.83735,-17.59375 -17.46875,-17.59375 z m 0,3.84375 c 7.52378,0 13.59375,6.13956 13.59375,13.75 0,7.61044 -6.06997,13.71875 -13.59375,13.71875 -7.52378,0 -13.59375,-6.10831 -13.59375,-13.71875 0,-7.61044 6.06997,-13.75 13.59375,-13.75 z"
         transform="matrix(-0.53367274,-0.19407254,-0.19407254,0.53367274,1492.2511,363.80237)"
         id="path3351"
         style="font-size:medium;font-style:normal;font-variant:normal;font-weight:normal;font-stretch:normal;text-indent:0;text-align:start;text-decoration:none;line-height:normal;letter-spacing:normal;word-spacing:normal;text-transform:none;direction:ltr;block-progression:tb;writing-mode:lr-tb;text-anchor:start;baseline-shift:baseline;color:#000000;fill:#de9675;fill-opacity:1;stroke:none;stroke-width:3.86836672;marker:none;visibility:visible;display:inline;overflow:visible;filter:url(#filter4044);enable-background:accumulate;font-family:Sans;-inkscape-font-specification:Sans" />
      <path
         d="m 975.1875,361.90625 c -9.41044,0 -17.0625,7.7207 -17.0625,17.1875 0,9.4668 7.65206,17.1875 17.0625,17.1875 9.41044,0 17.0625,-7.7207 17.0625,-17.1875 0,-9.4668 -7.65206,-17.1875 -17.0625,-17.1875 z m 0,3.03125 c 7.74473,0 14,6.3284 14,14.15625 0,7.82785 -6.25527,14.125 -14,14.125 -7.74473,0 -14,-6.29715 -14,-14.125 0,-7.82785 6.25527,-14.15625 14,-14.15625 z"
         transform="matrix(-0.74072422,-0.26936777,-0.26936777,0.74072422,1723.0631,359.007)"
         id="path3355"
         style="font-size:medium;font-style:normal;font-variant:normal;font-weight:normal;font-stretch:normal;text-indent:0;text-align:start;text-decoration:none;line-height:normal;letter-spacing:normal;word-spacing:normal;text-transform:none;direction:ltr;block-progression:tb;writing-mode:lr-tb;text-anchor:start;baseline-shift:baseline;color:#000000;fill:#ebbc91;fill-opacity:1;stroke:none;stroke-width:3.05728006;marker:none;visibility:visible;display:inline;overflow:visible;filter:url(#filter4024);enable-background:accumulate;font-family:Sans;-inkscape-font-specification:Sans" />
      <path
         d="m 990.70712,379.08041 c 0,8.64733 -6.95351,15.65737 -15.53109,15.65737 -8.57759,0 -15.5311,-7.01004 -15.5311,-15.65737 0,-8.64732 6.95351,-15.65736 15.5311,-15.65736 8.57758,0 15.53109,7.01004 15.53109,15.65736 z"
         transform="matrix(0.31806771,0,0,0.31806771,671.06495,256.73941)"
         id="path3341"
         style="fill:#eac3a3;fill-opacity:1;stroke:none;display:inline;filter:url(#filter3964)" />
      <path
         d="m 975.1875,361.5 c -9.6314,0 -17.46875,7.90955 -17.46875,17.59375 0,9.6842 7.83735,17.59375 17.46875,17.59375 9.6314,0 17.46875,-7.90955 17.46875,-17.59375 0,-9.6842 -7.83735,-17.59375 -17.46875,-17.59375 z m 0,3.84375 c 7.52378,0 13.59375,6.13956 13.59375,13.75 0,7.61044 -6.06997,13.71875 -13.59375,13.71875 -7.52378,0 -13.59375,-6.10831 -13.59375,-13.71875 0,-7.61044 6.06997,-13.75 13.59375,-13.75 z"
         transform="matrix(0.66229502,0,0,0.66229502,335.88781,125.23943)"
         id="path3339"
         style="font-size:medium;font-style:normal;font-variant:normal;font-weight:normal;font-stretch:normal;text-indent:0;text-align:start;text-decoration:none;line-height:normal;letter-spacing:normal;word-spacing:normal;text-transform:none;direction:ltr;block-progression:tb;writing-mode:lr-tb;text-anchor:start;baseline-shift:baseline;color:#000000;fill:#de9675;fill-opacity:1;stroke:none;stroke-width:3.86836672;marker:none;visibility:visible;display:inline;overflow:visible;filter:url(#filter4044);enable-background:accumulate;font-family:Sans;-inkscape-font-specification:Sans" />
      <path
         d="m 975.1875,361.90625 c -9.41044,0 -17.0625,7.7207 -17.0625,17.1875 0,9.4668 7.65206,17.1875 17.0625,17.1875 9.41044,0 17.0625,-7.7207 17.0625,-17.1875 0,-9.4668 -7.65206,-17.1875 -17.0625,-17.1875 z m 0,3.03125 c 7.74473,0 14,6.3284 14,14.15625 0,7.82785 -6.25527,14.125 -14,14.125 -7.74473,0 -14,-6.29715 -14,-14.125 0,-7.82785 6.25527,-14.15625 14,-14.15625 z"
         transform="matrix(0.88976391,0,0,0.88976391,114.0656,39.010429)"
         id="path3343"
         style="font-size:medium;font-style:normal;font-variant:normal;font-weight:normal;font-stretch:normal;text-indent:0;text-align:start;text-decoration:none;line-height:normal;letter-spacing:normal;word-spacing:normal;text-transform:none;direction:ltr;block-progression:tb;writing-mode:lr-tb;text-anchor:start;baseline-shift:baseline;color:#000000;fill:#ebbc91;fill-opacity:1;stroke:none;stroke-width:3.05728006;marker:none;visibility:visible;display:inline;overflow:visible;filter:url(#filter4024);enable-background:accumulate;font-family:Sans;-inkscape-font-specification:Sans" />
      <path
         d="m 853.5625,300 0,79.1875 27.09375,1.96875 c -0.47326,-3.36263 -0.37404,-6.78576 -0.375,-9.8125 4.30244,-0.19752 8.27023,0.21798 12.45982,0.6875 8.5409,0.95716 14.57437,2.45928 22.79018,11.6875 l 45.5,3.3125 c -0.47029,-2.60596 -0.26384,-3.00883 1.67411,-6.09375 8.38169,-3.76369 14.3106,-5.33982 20.10714,-5.35714 8.47186,-0.0253 14.53474,-0.8198 23.0625,2.73214 -1.3339,3.66451 -2.7414,7.89976 -5,11.65625 l 58.0625,4.25 0,-94.21875 z"
         id="path4360"
         style="fill:#91877b;fill-opacity:1;stroke:none;display:inline;filter:url(#filter4195)" />
      <path
         d="m 958.80864,384.95405 c 2.29894,-14.49516 25.46085,-10.56127 49.31646,-10.57904 -0.5696,3.70856 -2.268,8.22469 -4.7323,11.69642 0.665,-3.87336 0.5819,-5.03617 0.537,-7.17176 -11.4675,-0.6768 -40.15374,-4.048 -45.12116,6.05438 z"
         id="path4364"
         style="fill:#000000;stroke:none;display:inline" />
      <path
         d="m 915.41833,384.29435 c -0.27935,-12.80474 -19.51608,-13.38737 -35.45064,-13.89193 -0.64858,3.2598 -0.62678,6.56056 0.3737,10.19681 0.35115,-3.96159 0.69844,-5.44651 1.4716,-6.76438 24.84418,0.57753 28.35874,4.48916 33.60534,10.4595 z"
         id="path4362"
         style="fill:#000000;stroke:none;display:inline" />
    </g>
  </g>
</svg>
