<?xml version="1.0" encoding="UTF-8" standalone="no"?>
<!-- Created with Inkscape (http://www.inkscape.org/) -->

<svg
   xmlns:dc="http://purl.org/dc/elements/1.1/"
   xmlns:cc="http://creativecommons.org/ns#"
   xmlns:rdf="http://www.w3.org/1999/02/22-rdf-syntax-ns#"
   xmlns:svg="http://www.w3.org/2000/svg"
   xmlns="http://www.w3.org/2000/svg"
   version="1.1"
   width="1920"
   height="1080"
   id="svg2">
  <defs
     id="defs4">
    <filter
       x="-0.1204878"
       y="-0.11951613"
       width="1.2409756"
       height="1.2390323"
       color-interpolation-filters="sRGB"
       id="filter3964">
      <feGaussianBlur
         id="feGaussianBlur3966"
         stdDeviation="1.5594231" />
    </filter>
    <filter
       color-interpolation-filters="sRGB"
       id="filter4024">
      <feGaussianBlur
         id="feGaussianBlur4026"
         stdDeviation="0.62376923" />
    </filter>
    <filter
       color-interpolation-filters="sRGB"
       id="filter4044">
      <feGaussianBlur
         id="feGaussianBlur4046"
         stdDeviation="0.62376923" />
    </filter>
    <filter
       color-interpolation-filters="sRGB"
       id="filter4195">
      <feGaussianBlur
         id="feGaussianBlur4197"
         stdDeviation="1.4979688" />
    </filter>
  </defs>
  <metadata
     id="metadata7">
    <rdf:RDF>
      <cc:Work
         rdf:about="">
        <dc:format>image/svg+xml</dc:format>
        <dc:type
           rdf:resource="http://purl.org/dc/dcmitype/StillImage" />
        <dc:title></dc:title>
      </cc:Work>
    </rdf:RDF>
  </metadata>
  <g
     id="layer11"
     style="display:inline">
    <g
       id="layer12"
       style="display:inline">
      <path
         d="m 900.46725,533.53171 -3.64971,1.75804 -6.11557,-3.97651 -31.8193,52.04094 20.94457,17.0844 32.33556,-53.74602 -5.41683,-4.49291 1.1613,-3.40611 -7.44002,-5.26183 z m -9.20119,17.43167 3.95786,2.4223 -19.14879,32.80002 -4.59086,-3.51144 19.78179,-31.71088 z"
         id="path3008"
         style="fill:#e6e6e4;fill-opacity:1;stroke:#000000;stroke-width:1px;stroke-linecap:butt;stroke-linejoin:miter;stroke-opacity:1;display:inline" />
      <path
         d="m 898.75,524.55357 c -2.6896,4.95922 -4.95381,15.96882 -4.46429,19.82144 l 5.98214,1.78571 c 0.84938,-1.69643 0.96292,-2.94643 1.07143,-4.64286 -0.43513,-2.23228 1.00163,-8.48318 2.85714,-10.44643 0.4774,-1.46745 1.10767,-3.33893 0.98214,-5.08928 -2.08333,-0.90779 -4.5238,-1.64204 -6.42856,-1.42858 z"
         id="path3013"
         style="fill:#e6e6e4;fill-opacity:1;stroke:#000000;stroke-width:1px;stroke-linecap:butt;stroke-linejoin:miter;stroke-opacity:1;display:inline" />
    </g>
  </g>
</svg>
