<?xml version="1.0" encoding="UTF-8" standalone="no"?>
<!-- Created with Inkscape (http://www.inkscape.org/) -->

<svg
   xmlns:dc="http://purl.org/dc/elements/1.1/"
   xmlns:cc="http://creativecommons.org/ns#"
   xmlns:rdf="http://www.w3.org/1999/02/22-rdf-syntax-ns#"
   xmlns:svg="http://www.w3.org/2000/svg"
   xmlns="http://www.w3.org/2000/svg"
   version="1.1"
   width="1920"
   height="1080"
   id="svg2">
  <defs
     id="defs4" />
  <metadata
     id="metadata7">
    <rdf:RDF>
      <cc:Work
         rdf:about="">
        <dc:format>image/svg+xml</dc:format>
        <dc:type
           rdf:resource="http://purl.org/dc/dcmitype/StillImage" />
        <dc:title></dc:title>
      </cc:Work>
    </rdf:RDF>
  </metadata>
  <g
     id="layer11"
     style="display:inline">
    <g
       id="layer13"
       style="display:inline">
      <path
         d="m 897.3125,533.03125 -3.03125,2.6875 -6.96875,-2.15625 -16.40625,58.75 24.8125,10.71875 16.4375,-60.53125 -6.4375,-2.84375 0.1875,-3.59375 -8.59375,-3.03125 z m -4.09375,19.28125 4.46875,1.25 -9.46875,36.78125 -5.375,-2.125 10.375,-35.90625 z"
         id="path4211"
         style="fill:#e6e6e4;fill-opacity:1;stroke:#000000;stroke-width:1px;stroke-linecap:butt;stroke-linejoin:miter;stroke-opacity:1;display:inline" />
      <path
         d="m 898.75,524.55357 c -2.6896,4.95922 -4.95381,15.96882 -4.46429,19.82144 l 5.98214,1.78571 c 0.84938,-1.69643 0.96292,-2.94643 1.07143,-4.64286 -0.43513,-2.23228 1.00163,-8.48318 2.85714,-10.44643 0.4774,-1.46745 1.10767,-3.33893 0.98214,-5.08928 -2.08333,-0.90779 -4.5238,-1.64204 -6.42856,-1.42858 z"
         id="path4213"
         style="fill:#e6e6e4;fill-opacity:1;stroke:#000000;stroke-width:1px;stroke-linecap:butt;stroke-linejoin:miter;stroke-opacity:1;display:inline" />
    </g>
  </g>
</svg>
