<?xml version="1.0" encoding="UTF-8" standalone="no"?>
<!-- Created with Inkscape (http://www.inkscape.org/) -->

<svg
   xmlns:dc="http://purl.org/dc/elements/1.1/"
   xmlns:cc="http://creativecommons.org/ns#"
   xmlns:rdf="http://www.w3.org/1999/02/22-rdf-syntax-ns#"
   xmlns:svg="http://www.w3.org/2000/svg"
   xmlns="http://www.w3.org/2000/svg"
   version="1.1"
   width="1920"
   height="1080"
   id="svg2">
  <defs
     id="defs4" />
  <metadata
     id="metadata7">
    <rdf:RDF>
      <cc:Work
         rdf:about="">
        <dc:format>image/svg+xml</dc:format>
        <dc:type
           rdf:resource="http://purl.org/dc/dcmitype/StillImage" />
        <dc:title></dc:title>
      </cc:Work>
    </rdf:RDF>
  </metadata>
  <g
     id="layer7"
     style="display:inline">
    <g
       id="g3997"
       style="display:inline">
      <path
         d="m 1107.1197,844.53405 c -10.6097,33.10227 -28.7226,17.22915 -44.7496,14.92773 -19.1884,28.93017 -22.5521,27.77814 -52.3545,20.30962 l -9.62,11.26878 46.2029,233.19482 157.8662,-160.90737 -0.4404,-16.7673 c -39.6735,-12.82671 -41.4095,-16.78827 -42.7178,-53.03938 -17.5577,-8.16739 -40.5718,-11.48677 -31.5864,-43.098 z m -34.9997,53.84932 c 11.9036,2.61481 6.8975,15.20059 14.2592,22.51346 l 3.3235,41.94391 21.1847,-37.25467 c 9.1068,0.84304 9.4422,-12.45297 22.5246,-5.73097 -12.2075,33.26823 14.2164,36.18236 34.6444,43.60279 -12.645,17.99491 -35.9421,13.45879 -50.3557,33.11528 l -11.1992,-20.67221 -24.9548,17.17444 -11.7977,-31.00103 -17.5883,10.51012 c -3.948,-24.25622 -20.0978,-36.953 -26.0168,-58.11065 17.2357,0.85807 36.4559,24.30759 44.7433,-16.30735 0.4201,0.0631 0.8488,0.13256 1.2328,0.21687 z m -15.9386,98.32298 -4.4506,45.39635 -8.608,-37.6037 z m 42.2202,15.00895 8.8877,16.1287 -23.6958,24.086 z"
         id="path3999"
         style="fill:#191918;fill-opacity:1;stroke:#000000;stroke-width:1px;stroke-linecap:butt;stroke-linejoin:miter;stroke-opacity:1" />
      <path
         d="m 1112.279,854.43293 c 17.9698,0.32834 26.6653,-0.90489 30.7591,14.14214 7.3487,4.80803 20.3498,9.69161 25.1024,7.51301 -0.5437,-5.25293 -1.5987,-10.60813 -1.0607,-15.64474 10.8365,-8.66067 24.7262,-14.60734 37.4766,-21.56675 l -2.8284,-40.30509 -113.8442,1.06066 z"
         id="path4021"
         style="fill:#191918;fill-opacity:1;stroke:#000000;stroke-width:1px;stroke-linecap:butt;stroke-linejoin:miter;stroke-opacity:1" />
      <path
         d="m 1179.0541,715.0644 58.5587,63.66615 -119.2145,-29.76386 -13.6214,-24.54755 z"
         id="path4017"
         style="fill:#191918;fill-opacity:1;stroke:#000000;stroke-width:1px;stroke-linecap:butt;stroke-linejoin:miter;stroke-opacity:1" />
      <path
         d="m 1237.5394,770.94468 c -15.1946,7.43277 -53.579,-46.43294 -77.5396,-68.57637 -4.3916,15.6172 -62.6335,23.13941 -96.8185,37.04247 l -48.7721,-0.90937 80.8053,-23.62484 c 24.9617,-8.77081 44.2797,-13.618 74.8877,-26.31432 l 29.2314,23.34056 z"
         id="path4015"
         style="fill:#191918;fill-opacity:1;stroke:#000000;stroke-width:1px;stroke-linecap:butt;stroke-linejoin:miter;stroke-opacity:1" />
      <path
         d="m 1287.9128,722.18343 c -28.907,6.51828 -66.8703,23.01548 -86.466,-13.59583 l -41.9358,-50.12434 c -29.1489,12.61952 -68.5406,11.52908 -101.6567,21.29256 -7.3218,2.15866 -9.1172,12.68614 -14.1291,15.92847 -20.8343,7.98445 -38.1687,16.72049 -63.66821,22.18113 31.77471,-1.45057 63.61031,7.30208 110.57411,6.39829 L 1165.422,682.912 c 11.7149,7.25422 24.6961,22.92676 28.9297,30.56358 20.5438,48.87823 55.8533,32.48163 93.5611,8.70785 z"
         id="path4013"
         style="fill:#191918;fill-opacity:1;stroke:#000000;stroke-width:1px;stroke-linecap:butt;stroke-linejoin:miter;stroke-opacity:1" />
      <path
         d="m 1134.0496,654.01559 c 5.6396,12.98494 8.3817,28.07017 35.0953,25.77923 m 0,0 31.017,27.88389 c 11.0015,17.21543 35.7735,23.86966 66.1018,15.91275 6.9982,6.15138 26.8517,-1.88366 43.17,-7.35842 -52.5124,-12.13366 -86.8712,-18.07411 -115.9806,-44.56899 -8.9465,-16.25949 -0.4045,-34.65376 -31.7927,-31.96261 -15.5405,-11.84211 -29.2667,-20.86743 -41.6598,-33.22204 l -81.9621,17.88269 c -7.6143,-1.00451 -10.9013,6.3393 -14.0917,8.47848 -16.4289,-5.65385 -37.5167,-40.45425 -47.78407,-54.30381 14.2843,34.06091 7.30037,110.41506 66.24407,79.02988 l 91.6428,-3.55105"
         id="path4011"
         style="fill:#191918;fill-opacity:1;stroke:#000000;stroke-width:1px;stroke-linecap:butt;stroke-linejoin:miter;stroke-opacity:1" />
      <path
         d="m 1276.0188,651.57474 c -0.8156,3.88027 -34.2026,19.70038 -57.5486,19.33003 -16.0333,-0.25435 -31.5069,-15.56094 -50.4722,-38.68125 -24.0472,2.85305 -39.0811,-7.78638 -62.3946,-19.21607 l -46.9031,-4.16491 c -40.1576,21.42924 -52.7,-1.09204 -77.11874,-5.07573 l 62.27194,-14.91676 103.0945,5.83391 c 21.2696,11.47455 44.3454,34.97451 68.7195,49.05731 23.3888,13.51355 54.6628,4.49815 60.3513,7.83347 z"
         id="path4009"
         style="fill:#191918;fill-opacity:1;stroke:#000000;stroke-width:1px;stroke-linecap:butt;stroke-linejoin:miter;stroke-opacity:1" />
      <path
         d="m 1115.3446,569.03767 c 23.2504,-19.16998 40.5028,-7.45322 53.4907,9.32862 22.9563,29.66238 43.7974,18.14476 50.4669,28.35853 -5.223,9.096 -37.1298,15.60407 -55.4389,-6.08737 -18.7227,6.1007 -37.4852,9.34608 -48.4997,-4.33145 l -55.8558,-5.01265 -22.8324,-67.61516 56.1821,-13.12149 z"
         id="path4001"
         style="fill:#191918;fill-opacity:1;stroke:#000000;stroke-width:1px;stroke-linecap:butt;stroke-linejoin:miter;stroke-opacity:1" />
      <path
         d="m 1089.9881,555.39791 c 52.002,22.05026 7.6773,42.89608 -13.6326,37.18707 l -12.2631,-0.84558 -16.1828,-49.50361 31.558,-3.82469 z"
         id="path4007"
         style="fill:#191918;fill-opacity:1;stroke:#000000;stroke-width:1px;stroke-linecap:butt;stroke-linejoin:miter;stroke-opacity:1" />
      <path
         d="m 1085.0931,547.68554 c 4.476,7.72133 23.9768,32.75006 -6.0762,38.49384 14.5432,-6.93624 -0.5607,-20.24095 -2.9334,-31.43839 z"
         id="path4005"
         style="fill:#191918;fill-opacity:1;stroke:#000000;stroke-width:1px;stroke-linecap:butt;stroke-linejoin:miter;stroke-opacity:1" />
      <path
         d="m 1060.3913,564.32683 c 10.0578,-1.42455 20.0722,0.46182 22.5404,8.91068 l 32.9471,0.93603 c 4.0762,1.04491 17.6759,2.1375 19.2919,4.35 -1.8121,2.4125 -8.1308,5.46574 -17.5306,8.41938 l -54.6523,-1.38412 z"
         id="path4003"
         style="fill:#191918;fill-opacity:1;stroke:#000000;stroke-width:1px;stroke-linecap:butt;stroke-linejoin:miter;stroke-opacity:1" />
    </g>
  </g>
</svg>
