<?xml version="1.0" encoding="UTF-8" standalone="no"?>
<!-- Created with Inkscape (http://www.inkscape.org/) -->

<svg
   xmlns:dc="http://purl.org/dc/elements/1.1/"
   xmlns:cc="http://creativecommons.org/ns#"
   xmlns:rdf="http://www.w3.org/1999/02/22-rdf-syntax-ns#"
   xmlns:svg="http://www.w3.org/2000/svg"
   xmlns="http://www.w3.org/2000/svg"
   version="1.1"
   width="1920"
   height="1080"
   id="svg2">
  <defs
     id="defs4">
    <filter
       x="-0.1204878"
       y="-0.11951613"
       width="1.2409756"
       height="1.2390323"
       color-interpolation-filters="sRGB"
       id="filter3964">
      <feGaussianBlur
         id="feGaussianBlur3966"
         stdDeviation="1.5594231" />
    </filter>
    <filter
       color-interpolation-filters="sRGB"
       id="filter4024">
      <feGaussianBlur
         id="feGaussianBlur4026"
         stdDeviation="0.62376923" />
    </filter>
    <filter
       color-interpolation-filters="sRGB"
       id="filter4044">
      <feGaussianBlur
         id="feGaussianBlur4046"
         stdDeviation="0.62376923" />
    </filter>
    <filter
       color-interpolation-filters="sRGB"
       id="filter4195">
      <feGaussianBlur
         id="feGaussianBlur4197"
         stdDeviation="1.4979688" />
    </filter>
  </defs>
  <metadata
     id="metadata7">
    <rdf:RDF>
      <cc:Work
         rdf:about="">
        <dc:format>image/svg+xml</dc:format>
        <dc:type
           rdf:resource="http://purl.org/dc/dcmitype/StillImage" />
        <dc:title></dc:title>
      </cc:Work>
    </rdf:RDF>
  </metadata>
  <g
     id="layer15"
     style="display:inline">
    <g
       id="g3167"
       style="display:inline">
      <path
         d="m 853.5625,300 0,163.21875 205.375,0 0,-163.21875 z"
         id="path3188"
         style="fill:#c6b9a4;fill-opacity:1;stroke:none;display:inline" />
      <path
         d="m 921.51786,401.60714 c 0.86091,0.77789 -2.48097,7.4534 -3.75,7.14286 -0.89134,-0.62108 2.68137,-7.43357 3.75,-7.14286 z"
         id="path3190"
         style="fill:#b3a695;fill-opacity:1;stroke:none;display:inline" />
      <path
         d="m 853.5625,300 0,83.9375 c 70.33539,-1.68428 138.03615,8.47764 204.625,17.28125 L 1058.9375,300 z"
         id="path3192"
         style="fill:#91877b;fill-opacity:1;stroke:none;display:inline;filter:url(#filter4195)" />
      <path
         d="m 916.58716,382.11086 c -13.23955,4.0586 -27.95948,4.62112 -38.38579,-5.3033 l 1.75513,6.98268 1.14906,-1.94454 1.22481,4.67195 1.79301,-2.538 0.77025,4.28051 1.89404,-2.4875 1.51523,4.28052 1.89403,-2.76529 1.25006,3.283 1.52786,-2.14658 1.67938,2.27285 1.72989,-2.50013 2.31072,3.25774 1.60362,-2.90419 3.09359,3.16935 1.57836,-3.42189 2.52538,1.51523 1.13643,-2.77792 2.58851,1.06067 0.94702,-1.3132 3.40926,1.89403 z"
         id="path3978"
         style="fill:#000000;stroke:none" />
      <path
         d="m 978.21429,388.75 -1.69554,3.6652 -0.35803,-3.57592 -3.22416,2.7894 0.0992,-3.59297 -3.04649,2.78222 0.10006,-3.31793 -3.13039,2.60454 0.005,-3.58668 -2.87151,2.24021 0.99651,-3.04379 -4.92238,1.87949 0.36881,-3.57591 -1.78572,-4.0625 c 17.64881,7.59966 33.24406,7.89139 50.08935,1.91964 l -0.4464,6.25 -2.0536,-1.78572 -0.9822,2.05358 -2.5892,-1.25 -1.7858,2.67857 -0.8035,-1.60715 -1.87508,1.78572 -2.14285,-1.25 -2.5,2.94643 -2.58929,-2.23215 -1.42857,1.42858 -1.60714,-1.25 -1.51876,2.95988 -2.23124,-2.8706 -1.60715,2.05357 -0.53571,-1.78571 -2.54061,2.7037 z"
         id="path3980"
         style="fill:#000000;stroke:none" />
    </g>
  </g>
</svg>
