<?xml version="1.0" encoding="UTF-8" standalone="no"?>
<!-- Created with Inkscape (http://www.inkscape.org/) -->

<svg
   xmlns:dc="http://purl.org/dc/elements/1.1/"
   xmlns:cc="http://creativecommons.org/ns#"
   xmlns:rdf="http://www.w3.org/1999/02/22-rdf-syntax-ns#"
   xmlns:svg="http://www.w3.org/2000/svg"
   xmlns="http://www.w3.org/2000/svg"
   version="1.1"
   width="1920"
   height="1080"
   id="svg2">
  <defs
     id="defs4" />
  <metadata
     id="metadata7">
    <rdf:RDF>
      <cc:Work
         rdf:about="">
        <dc:format>image/svg+xml</dc:format>
        <dc:type
           rdf:resource="http://purl.org/dc/dcmitype/StillImage" />
        <dc:title></dc:title>
      </cc:Work>
    </rdf:RDF>
  </metadata>
  <g
     id="layer7"
     style="display:inline">
    <g
       id="layer8"
       style="display:inline">
      <path
         d="m 1132.8438,860.5625 c -2.9873,34.63239 -24.175,23.18187 -40.3126,24.5 -12.2788,32.47126 -15.8144,32.09563 -46.5312,31.4375 l -6.875,13.125 L 1136,1146.7188 1254.1562,954.75 1250,938.5 c -41.5321,-3.68842 -44.105,-7.1651 -53.4375,-42.21875 -18.9338,-4.06093 -42.11,-2.18239 -40.375,-35 z m -22.1563,60.28125 c 12.1871,-0.0962 10.1034,13.28743 18.9063,18.78125 l 12.5624,40.15625 12.375,-41.03125 c 9.0665,-1.20207 6.4385,-14.24008 20.6876,-10.59375 -4.5084,35.14931 21.9024,32.11781 43.4687,34.8125 -8.3294,20.35522 -32.052,21.11036 -41.7365,43.47865 l -15.5135,-17.66615 -20.5135,22.29115 -18.3928,-27.60365 -14.8124,14.15625 c -9.2402,-22.77211 -27.808,-31.56203 -38.2813,-50.875 16.9954,-2.99406 40.9465,15.59728 40,-25.84375 0.4236,-0.0319 0.8569,-0.0594 1.25,-0.0625 z M 1117,1020.25 l 5.75,45.25 -16.75,-34.75 z m 44.5,5.25 12.25,13.75 L 1156,1068 z"
         id="path4140"
         style="fill:#191918;fill-opacity:1;stroke:#000000;stroke-width:1px;stroke-linecap:butt;stroke-linejoin:miter;stroke-opacity:1" />
      <path
         d="m 1186.1716,710.89026 60.8112,61.51829 -120.2081,-25.45585 -14.4957,-24.04163 z"
         id="path3225"
         style="fill:#191918;fill-opacity:1;stroke:#000000;stroke-width:1px;stroke-linecap:butt;stroke-linejoin:miter;stroke-opacity:1" />
      <path
         d="m 1246.6293,764.63037 c -16.1166,8.10374 -39.5852,-24.16769 -59.4325,-45.96194 -18.0752,1.06911 -19.5804,-5.65943 -27.4711,-9.38299 l -73.6097,33.07107 -63.6396,-2.12132 79.9031,-26.51651 c 24.63,-9.66313 43.7612,-15.20215 73.8926,-28.99137 l 30.0521,22.27386 z"
         id="path3223"
         style="fill:#191918;fill-opacity:1;stroke:#000000;stroke-width:1px;stroke-linecap:butt;stroke-linejoin:miter;stroke-opacity:1" />
      <path
         d="m 1286.0054,722.30016 c -28.4153,7.62406 -53.4413,18.17801 -77.6886,-18.68808 l -43.7119,-48.58326 c -53.3299,25.404 -103.4739,51.20625 -161.5739,76.01398 31.7019,-2.59272 48.2049,-5.18545 95.1058,-7.77817 l 62.9325,-38.89088 c 16.282,5.04674 28.51,15.16093 42.416,23.17767 17.9084,52.18902 45.6302,39.92126 82.5201,14.74874 z"
         id="path3221"
         style="fill:#191918;fill-opacity:1;stroke:#000000;stroke-width:1px;stroke-linecap:butt;stroke-linejoin:miter;stroke-opacity:1" />
      <path
         d="m 1139,651.5 c 6.1031,12.77365 9.3861,27.75047 36,24.5 m 0,0 32,26.75 c 15.5873,22.79371 46.8068,28.01961 116.25,4.25 -53.8108,-7.32757 -94.2063,-14.56948 -124.25,-40 -4.3135,-13.63827 1.271,-32.06859 -30,-28.25 -15.9565,-11.27537 -32.9205,-22.34923 -45.75,-34.25 l -84.5,29.25 c 1.8468,35.75466 -43.99115,-31.64241 -60.24999,-52 15.52558,33.50244 18.74439,117.72613 73.99999,86.5 L 1139,651.5"
         id="path3219"
         style="fill:#191918;fill-opacity:1;stroke:#000000;stroke-width:1px;stroke-linecap:butt;stroke-linejoin:miter;stroke-opacity:1" />
      <path
         d="m 1277.5651,642.83123 c -0.6755,3.9071 -28.7832,23.40265 -52.1274,23.87241 -16.0321,0.32262 -33.8002,-14.00048 -53.585,-36.42355 -23.929,3.7163 -39.0461,-8.15474 -62.7557,-18.73833 l -47.0226,-2.47488 c -39.3607,22.86004 -52.7052,0.80455 -77.25142,-2.2981 l 61.69502,-17.14734 103.2376,2.12132 c 21.6686,10.70195 45.1233,34.24514 70.4399,46.55337 23.6827,11.51384 52.4174,2.9686 57.3696,4.5351 z"
         id="path3217"
         style="fill:#191918;fill-opacity:1;stroke:#000000;stroke-width:1px;stroke-linecap:butt;stroke-linejoin:miter;stroke-opacity:1" />
      <path
         d="m 1117.25,567.25 c 22.5458,-19.994 38.7275,-8.35184 52.3107,7.9519 24.0085,28.81733 42.9317,16.86121 49.9644,26.82843 -4.8924,9.27801 -34.8136,16.36708 -53.8912,-4.65165 -18.4911,6.7703 -35.8845,10.39375 -47.3839,-2.87868 l -56,-3 -25.25,-66.75 55.6737,-15.13414 z"
         id="path3198"
         style="fill:#191918;fill-opacity:1;stroke:#000000;stroke-width:1px;stroke-linecap:butt;stroke-linejoin:miter;stroke-opacity:1" />
      <path
         d="m 1091.4193,554.53127 c 52.7616,20.16522 9.2155,42.59212 -12.286,37.65343 l -12.2856,-0.40387 -17.9532,-48.88939 31.4,-4.95751 z"
         id="path3215"
         style="fill:#191918;fill-opacity:1;stroke:#000000;stroke-width:1px;stroke-linecap:butt;stroke-linejoin:miter;stroke-opacity:1" />
      <path
         d="m 1086.25,546.99999 c 4.6071,7.35554 23.5201,29.61695 -4.6875,38.68751 7.4459,-6.80514 -1.5688,-20.18103 -4.0625,-31.31251 z"
         id="path3202"
         style="fill:#191918;fill-opacity:1;stroke:#000000;stroke-width:1px;stroke-linecap:butt;stroke-linejoin:miter;stroke-opacity:1" />
      <path
         d="m 1062.1628,564.51915 c 9.8792,-1.75674 16.8742,-0.10529 21.5971,7.78522 l 36.0072,0.87867 c 4.1112,0.89759 13.7099,2.52982 15.4045,4.68275 -1.7242,2.47613 -6.5411,4.99718 -15.8286,8.28706 l -53.8215,-0.50888 z"
         id="path3200"
         style="fill:#191918;fill-opacity:1;stroke:#000000;stroke-width:1px;stroke-linecap:butt;stroke-linejoin:miter;stroke-opacity:1" />
      <path
         d="m 1099.5,844.75 c 24.578,28.22688 56.7674,26.80943 94,5.75 l 6.5,-50 -102.5,0.25 z"
         id="path3227"
         style="fill:#191918;fill-opacity:1;stroke:#000000;stroke-width:1px;stroke-linecap:butt;stroke-linejoin:miter;stroke-opacity:1" />
    </g>
  </g>
</svg>
