<?xml version="1.0" encoding="UTF-8" standalone="no"?>
<!-- Created with Inkscape (http://www.inkscape.org/) -->

<svg
   xmlns:dc="http://purl.org/dc/elements/1.1/"
   xmlns:cc="http://creativecommons.org/ns#"
   xmlns:rdf="http://www.w3.org/1999/02/22-rdf-syntax-ns#"
   xmlns:svg="http://www.w3.org/2000/svg"
   xmlns="http://www.w3.org/2000/svg"
   version="1.1"
   width="1920"
   height="1080"
   id="svg2">
  <defs
     id="defs4" />
  <metadata
     id="metadata7">
    <rdf:RDF>
      <cc:Work
         rdf:about="">
        <dc:format>image/svg+xml</dc:format>
        <dc:type
           rdf:resource="http://purl.org/dc/dcmitype/StillImage" />
        <dc:title></dc:title>
      </cc:Work>
    </rdf:RDF>
  </metadata>
  <g
     id="layer4"
     style="display:inline">
    <path
       d="m 816.42857,519.10715 -20.3392,-16.0408 C 746.40099,487.78674 717.05379,487.50455 683.21428,487.5 671.54212,493.25764 658.99375,499.59941 650,503.57143 L 625,505 C 490.56361,619.11541 392.82293,699.45668 255.71428,840.71429 c -6.74227,10 -11.6764,18.92857 -14.64285,28.92857 1.99319,11.27891 6.22442,26.9387 13.92857,43.92857 6.20924,-7.64502 19.4948,-12.25733 32.14286,-17.14286 l 31.42857,5 c -8.722,27.36835 -16.70096,55.03391 -20.71429,84.28572 -14.04089,12.60498 -28.43844,25.11481 -28.57143,41.42861 L 246.42857,1025 l -24.28571,40 2.14285,20.7143 472.51794,3.8239 -13.94651,-50.9668 c 7.85714,-23.78 15.46175,-52.29785 23.31889,-71.85068 10.88517,-2.59923 35.69923,1.25252 57.03825,1.67214 l 7.14286,18.75 9.46429,4.46428 L 813.21428,955 c 14.11187,-137.07843 34.78517,-225.44647 56.07143,-361.60714 -9.09884,-15.00406 -40.65702,-62.9762 -52.85714,-74.28571 z"
       id="path3060"
       style="fill:#262525;fill-opacity:1;stroke:#000000;stroke-width:1px;stroke-linecap:butt;stroke-linejoin:miter;stroke-opacity:1;display:inline" />
    <path
       d="m 751.04841,633.89138 -77.5292,54.2957 -8.5863,-10.35406 -1.76777,4.29315 1.13642,23.48605 5.17704,10.10152 -18.56156,8.71257 1.38896,12.87944 -19.5717,10.73287 c 1.97577,9.95134 12.17819,5.38945 11.62014,-2.0067 l 13.75994,-4.30675 -4.67196,12.75317 3.66181,5.30331 8.46002,-4.41942 6.81853,5.3033 3.66181,-4.67196 -9.97526,-18.30901 1.38896,-12.50064 10.85914,-7.57614 7.82868,10.48033 0.88389,-11.23795 -1.38896,-11.49048 46.59328,-40.15357 -17.17259,11.49049 7.19734,-16.79379 -10e-6,-5.93464 z"
       id="path3134"
       style="fill:#0e0f0e;fill-opacity:1;stroke:#000000;stroke-width:1px;stroke-linecap:butt;stroke-linejoin:miter;stroke-opacity:1;display:inline" />
    <path
       d="m 661.14484,796.02087 56.44227,-24.24366 -5.42957,-12.2481 3.40926,-9.97526 45.45687,-29.04188 -7.70241,-13.76333 -47.22464,29.67323 -1.01015,-13.00572 -4.92449,-3.28299 18.18274,-14.77348 1.6415,4.41941 30.43085,-23.2335 20.32932,-7.82869 4.16688,-11.86929 -4.04061,-6.43972 21.33947,-0.63135 -11.61676,6.69226 0.50508,3.40927 4.16688,-0.50508 -4.67196,12.50064 2.39912,0.12627 6.69226,-8.9651 22.22335,-6.9448 -7.19733,-4.67196 14.14213,2.77792 8.83884,-8.08122 -10.85914,-3.40926 -4.16688,-8.83884 -8.71257,-1.51523 -1.26269,-3.15672 10.10153,1.38896 1.76776,-2.52539 7.44988,0.88389 3.6618,12.12183 9.72272,-1.01015 2.46099,19.23189 -14.64286,25 -16.60714,1.96428 -13.21429,15.17857 -23.21428,7.5 2.85714,12.67857 -5.89286,18.75 -42.5,42.32143 -8.92857,2.85715 -13.03571,15.53571 -17.14286,-0.53571 L 680,801.25 661.78571,799.64286 z"
       id="path3142"
       style="fill:#0e0f0e;fill-opacity:1;stroke:#000000;stroke-width:1px;stroke-linecap:butt;stroke-linejoin:miter;stroke-opacity:1;display:inline" />
    <path
       d="m 649.64285,503.57143 c 92.09422,8.03046 123.10021,1.09159 166.42857,15"
       id="path3062"
       style="fill:none;stroke:#000000;stroke-width:1px;stroke-linecap:butt;stroke-linejoin:miter;stroke-opacity:1;display:inline" />
    <path
       d="m 625.03188,504.97067 c 3.66465,46.69709 8.84167,92.63799 14.39468,138.3909 l -14.64721,-10e-6 -32.57742,-51.13897 c 9.71993,-28.88008 20.26475,-57.89763 32.82995,-87.25192 z"
       id="path3064"
       style="fill:none;stroke:#000000;stroke-width:1px;stroke-linecap:butt;stroke-linejoin:miter;stroke-opacity:1;display:inline" />
    <path
       d="M 241.17392,869.3832 C 362.14338,774.15306 480.00106,684.6746 592.07566,592.47513"
       id="path3066"
       style="fill:none;stroke:#000000;stroke-width:1px;stroke-linecap:butt;stroke-linejoin:miter;stroke-opacity:1;display:inline" />
    <path
       d="m 833.57142,546.78572 -13.21428,-5.17857 -14.10714,16.60714 4.10714,21.07143 20.17857,13.39285 29.64286,-0.35714 -1.07143,-6.60714 -23.57143,2.85714 -18.75,-13.92857 L 813.75,561.25 825.53571,549.82143 z"
       id="path3068"
       style="fill:none;stroke:#000000;stroke-width:1px;stroke-linecap:butt;stroke-linejoin:miter;stroke-opacity:1;display:inline" />
    <path
       d="m 806.42857,558.57143 -8.21429,9.46429 5,23.39285 19.46429,13.92858 40.71428,-0.17858 -43.03571,-63.39285 z"
       id="path3070"
       style="fill:none;stroke:#000000;stroke-width:1px;stroke-linecap:butt;stroke-linejoin:miter;stroke-opacity:1;display:inline" />
    <path
       d="m 820.17857,541.60715 -46.96429,18.57142 48.03572,66.60715 42.5,-19.46429 z"
       id="path3072"
       style="fill:none;stroke:#000000;stroke-width:1px;stroke-linecap:butt;stroke-linejoin:miter;stroke-opacity:1;display:inline" />
    <path
       d="m 773.125,560.17857 -9.19643,12.41072 0.35714,10.71428 39.28571,55.98215 8.92858,0.89285 8.75,-13.57142"
       id="path3074"
       style="fill:none;stroke:#000000;stroke-width:1px;stroke-linecap:butt;stroke-linejoin:miter;stroke-opacity:1;display:inline" />
    <path
       d="M 345.35714,917.85714 312.5,952.5 l 2.5,76.7857 -37.5,56.0714"
       id="path3076"
       style="fill:none;stroke:#000000;stroke-width:1px;stroke-linecap:butt;stroke-linejoin:miter;stroke-opacity:1;display:inline" />
    <path
       d="M 639.64285,643.39286 C 580.46211,712.04853 525.38288,784.17471 458.21428,846.07143 L 410,901.78572 l 23.35544,32.49978 -0.25254,9.09137 9.75424,60.19453 -0.66287,43.0936 -4.54568,36.3655"
       id="path3078"
       style="fill:none;stroke:#000000;stroke-width:1px;stroke-linecap:butt;stroke-linejoin:miter;stroke-opacity:1;display:inline" />
    <path
       d="m 315.17857,1029.2857 29.28571,-7.1428"
       id="path3082"
       style="fill:none;stroke:#000000;stroke-width:1px;stroke-linecap:butt;stroke-linejoin:miter;stroke-opacity:1;display:inline" />
    <path
       d="m 433.39285,934.28572 2.32143,-5.71429 c 9.5324,8.21398 18.37982,18.82541 26.96429,30.35714 3.22383,12.05786 2.41032,16.04103 3.50683,23.84425 l -15.15229,27.02158 c -5.4769,12.5797 -1.25906,18.9549 5.05076,23.9911 l 3.283,15.6574 -8.5863,2.0203 -8.727,-4.9453"
       id="path3084"
       style="fill:none;stroke:#000000;stroke-width:1px;stroke-linecap:butt;stroke-linejoin:miter;stroke-opacity:1;display:inline" />
    <path
       d="m 457.34656,845.89715 130.81476,2.27284 c 16.88303,-31.36294 40.80455,-64.04504 67.93275,-96.7221"
       id="path3086"
       style="fill:none;stroke:#000000;stroke-width:1px;stroke-linecap:butt;stroke-linejoin:miter;stroke-opacity:1;display:inline" />
    <path
       d="m 777.31238,600.93516 -31.56727,19.1929 7.32361,12.87944 -14.89975,10.35407 8.83883,11.36421 13.63706,-8.33376 11.61676,13.8896 c 16.03843,-1.93833 31.37189,0.3386 46.46701,4.04061 l 8.33376,-7.82868 -10.10152,-3.53554 -4.54569,-8.83883 -8.5863,-1.76777 c -6.07378,-12.14638 -17.67767,-27.61083 -26.5165,-41.41625 z"
       id="path3088"
       style="fill:none;stroke:#000000;stroke-width:1px;stroke-linecap:butt;stroke-linejoin:miter;stroke-opacity:1;display:inline" />
    <path
       d="m 749.02811,625.6839 -10.35407,-1.26269 c -13.58803,5.37182 -27.46738,11.62237 -37.1231,22.98097 l -18.43529,1.51522 c -5.09208,2.83913 -11.52659,9.03435 -17.9302,15.15229 l -0.25254,13.63706 8.33376,10.35407 c 22.80111,-22.83971 48.03405,-42.68642 79.54951,-54.80078 z"
       id="path3092"
       style="fill:none;stroke:#000000;stroke-width:1px;stroke-linecap:butt;stroke-linejoin:miter;stroke-opacity:1;display:inline" />
    <path
       d="m 683.36819,648.9174 c 6.33528,-5.71876 14.58403,-13.55037 38.00699,-24.36993 7.55756,-1.12294 10.04091,-1.11827 14.89975,-1.64149 l 2.52538,1.64149"
       id="path3094"
       style="fill:none;stroke:#000000;stroke-width:1px;stroke-linecap:butt;stroke-linejoin:miter;stroke-opacity:1;display:inline" />
    <path
       d="m 747.13407,654.47324 -71.41979,49.81248 -0.89286,14.10714 L 664.10714,704.46429 662.67857,682.5 c -5.8746,5.22659 -11.53351,10.66887 -16.69643,16.60714 l 2.85714,9.01786"
       id="path3096"
       style="fill:none;stroke:#000000;stroke-width:1px;stroke-linecap:butt;stroke-linejoin:miter;stroke-opacity:1;display:inline" />
    <path
       d="m 664.64285,705.71429 c -20.76613,1.925 -34.42101,9.8672 -49.28571,16.78571 l 17.14286,27.32143 33.75,-11.42857 1.42857,-12.85714 10.89285,-7.85715 9.64286,12.85715 1.96429,13.21428 12.5,21.96429 L 660.35714,795 643.75,767.67857 l 21.60714,-12.5 14.82143,11.42857 L 691.07142,760"
       id="path3098"
       style="fill:none;stroke:#000000;stroke-width:1px;stroke-linecap:butt;stroke-linejoin:miter;stroke-opacity:1;display:inline" />
    <path
       d="m 772.49999,659.82143 c -18.9354,5.19021 -33.60646,14.76414 -45.89285,25.17857 -3.7571,7.07023 -6.71792,13.94139 -8.57143,20.53572 L 700,720.17857 683.75,711.25"
       id="path3100"
       style="fill:none;stroke:#000000;stroke-width:1px;stroke-linecap:butt;stroke-linejoin:miter;stroke-opacity:1;display:inline" />
    <path
       d="M 730.97163,665.07984 719.35488,650.05383"
       id="path3102"
       style="fill:none;stroke:#000000;stroke-width:1px;stroke-linecap:butt;stroke-linejoin:miter;stroke-opacity:1;display:inline" />
    <path
       d="m 666.25,738.03572 10.53571,21.78571"
       id="path3104"
       style="fill:none;stroke:#000000;stroke-width:1px;stroke-linecap:butt;stroke-linejoin:miter;stroke-opacity:1;display:inline" />
    <path
       d="m 647.67857,774.10714 -58.21429,77.14286 -6.78571,41.78572 33.92857,66.07142 9.10714,6.96429 c 7.62964,2.64244 22.57249,2.47212 36.07143,2.85714 17.7556,-14.63564 33.29788,-28.30294 58.21429,-46.07143 13.52244,-24.21946 39.0248,-51.20352 64.64285,-78.21428"
       id="path3106"
       style="fill:none;stroke:#000000;stroke-width:1px;stroke-linecap:butt;stroke-linejoin:miter;stroke-opacity:1;display:inline" />
    <path
       d="M 616.78571,958.21429 623.57142,922.5 729.28571,784.64286 l 22.85714,-22.85714 -0.89285,-8.57143 11.25,-6.25 -1.60715,-26.60715 0.63589,-22.82614 16.28871,-8.96511 35.10281,-0.50507"
       id="path3108"
       style="fill:none;stroke:#000000;stroke-width:1px;stroke-linecap:butt;stroke-linejoin:miter;stroke-opacity:1;display:inline" />
    <path
       d="m 697.14285,794.46429 39.46429,-17.14286"
       id="path3110"
       style="fill:none;stroke:#000000;stroke-width:1px;stroke-linecap:butt;stroke-linejoin:miter;stroke-opacity:1;display:inline" />
    <path
       d="m 586.07143,873.57143 34.64285,66.25"
       id="path3112"
       style="fill:none;stroke:#000000;stroke-width:1px;stroke-linecap:butt;stroke-linejoin:miter;stroke-opacity:1;display:inline" />
    <path
       d="M 613.57143,819.82143 650.53571,887.5"
       id="path3114"
       style="fill:none;stroke:#000000;stroke-width:1px;stroke-linecap:butt;stroke-linejoin:miter;stroke-opacity:1;display:inline" />
    <path
       d="m 720,923.21429 c -12.77084,26.35437 -25.19661,52.6841 -31.42858,78.57141 l 3.57143,8.5714"
       id="path3116"
       style="fill:none;stroke:#000000;stroke-width:1px;stroke-linecap:butt;stroke-linejoin:miter;stroke-opacity:1;display:inline" />
    <path
       d="m 763.125,968.03571 5.625,0.80358 8.125,14.46428 -6.07143,3.83929"
       id="path3118"
       style="fill:none;stroke:#000000;stroke-width:1px;stroke-linecap:butt;stroke-linejoin:miter;stroke-opacity:1;display:inline" />
    <path
       d="m 707.10678,966.35784 c 44.06008,-10.5533 71.89869,-46.34 104.80332,-74.24621"
       id="path3120"
       style="fill:none;stroke:#000000;stroke-width:1px;stroke-linecap:butt;stroke-linejoin:miter;stroke-opacity:1;display:inline" />
    <path
       d="m 541.44176,578.45926 -14.14213,26.26397 C 449.39525,668.70372 366.86309,740.78281 285.36809,811.04688 363.5791,731.03913 447.80503,653.10155 541.44176,578.45926 z"
       id="path3122"
       style="fill:#606061;fill-opacity:1;stroke:none;display:inline" />
    <path
       d="m 683.24192,488.42942 12.2481,-0.50508 -18.81409,17.04633 -23.99112,-1.76777 z"
       id="path3124"
       style="fill:#6b696a;fill-opacity:1;stroke:none;display:inline" />
    <path
       d="m 779.33268,499.9199 13.13199,12.2481 12.2481,2.52539 -9.59645,-10.2278 z"
       id="path3126"
       style="fill:#6c6c6c;fill-opacity:1;stroke:none;display:inline" />
    <path
       d="m 708.21429,632.67857 c 3.82178,-2.37182 8.53295,-4.79091 13.66071,-7.23214 l 13.74551,-0.52488 c -5.85454,2.34582 -10.16522,4.30566 -14.01337,6.14988 z"
       id="path3128"
       style="fill:#3a3c3a;fill-opacity:1;stroke:none;display:inline" />
    <path
       d="m 586.16071,875.51405 -2.71555,17.54333 c 9.62053,18.4474 19.19639,36.93948 28.58101,55.62279 -6.46144,-22.15167 -14.16775,-44.05436 -21.78141,-65.97559 z"
       id="path3130"
       style="fill:#2f2f2f;fill-opacity:1;stroke:none;display:inline" />
    <path
       d="m 664.41964,678.12501 -1.20536,3.34821 0.80358,13.08035 c 2.00478,6.445 4.49284,11.65348 7.92476,15.00635 0.59828,-3.28084 0.84187,-5.35307 0.85587,-7.87323 -1.43225,-2.80201 -4.22308,-7.38302 -5.33547,-8.89399 l 0.037,-11.18556 z"
       id="path3132"
       style="fill:#2e2e2d;fill-opacity:1;stroke:none;display:inline" />
    <path
       d="m 654.70511,754.41521 -9.97526,11.93243 13.44766,-7.82868 z"
       id="path3138"
       style="fill:#2f2f2f;fill-opacity:1;stroke:none;display:inline" />
    <path
       d="m 615.68797,722.27973 c 14.57819,-5.50417 29.0235,-11.58418 44.57298,-12.87944"
       id="path3136"
       style="fill:none;stroke:#000000;stroke-width:1px;stroke-linecap:butt;stroke-linejoin:miter;stroke-opacity:1;display:inline" />
    <path
       d="m 643.27776,767.86287 3.72494,6.25031 c -19.87102,26.33321 -38.38352,50.51342 -57.32616,75.95085 2.43149,-12.85551 34.71472,-57.97075 53.60122,-82.20116 z"
       id="path3140"
       style="fill:#4c4d4c;fill-opacity:1;stroke:none;display:inline" />
    <path
       d="M 785.35714,844.28572 732.14285,905.71429 710,965.35714 c 45.05385,-13.13597 70.23841,-48.23273 103.92857,-73.92857 l 0,-22.85714 z"
       id="path3144"
       style="fill:#090a07;fill-opacity:1;stroke:#000000;stroke-width:1px;stroke-linecap:butt;stroke-linejoin:miter;stroke-opacity:1;display:inline" />
    <path
       d="m 787.67857,849.82143 -10,10.71429 -0.71429,7.85714 11.78572,1.25 11.07142,-5.89286 z"
       id="path3146"
       style="fill:#252525;fill-opacity:1;stroke:#000000;stroke-width:1px;stroke-linecap:butt;stroke-linejoin:miter;stroke-opacity:1;display:inline" />
    <path
       d="m 807.32142,870 -9.64285,9.10714 3.39285,1.96429 1.25,5.35714 11.25,-1.07143 -0.35714,-12.5 z"
       id="path3148"
       style="fill:#272826;fill-opacity:1;stroke:#000000;stroke-width:1px;stroke-linecap:butt;stroke-linejoin:miter;stroke-opacity:1;display:inline" />
    <path
       d="m 835.39614,501.68768 -19.19289,58.58884 c -4.47484,12.86704 3.65806,21.80707 19.69797,28.28427 4.984,0.76051 9.8722,1.04206 14.52094,0.12627 l 27.79211,-54.75848 z"
       id="path3048"
       style="fill:#c6b9a4;fill-opacity:1;stroke:none;display:inline" />
    <path
       d="M 835.40625,501.6875 834,506 l 29.9375,23.21875 -27.53125,43.0625 c -3.21967,2.95344 -8.01443,1.6146 -13.875,-5.1875 1.12196,-4.18977 5.03979,-8.60143 2.5,-19.0625 -1.70158,5.58595 -2.32435,9.38744 -6.1875,10.46875 2.28064,-5.14275 3.66934,-9.64972 6.0625,-15.03125 1.18131,-4.18731 4.064,-15.53765 5.5,-26.53125 l -14.1875,43.34375 c -4.47484,12.86704 3.64759,21.80405 19.6875,28.28125 4.984,0.76051 9.88251,1.04079 14.53125,0.125 l 27.78125,-54.75 -42.8125,-32.25 z"
       id="path3058"
       style="fill:#2b2b2a;fill-opacity:1;stroke:none;display:inline" />
    <path
       d="m 835.39614,501.68768 -19.19289,58.58884 c -4.47484,12.86704 3.65806,21.80707 19.69797,28.28427 4.984,0.76051 9.8722,1.04206 14.52094,0.12627 l 27.79211,-54.75848 z"
       id="path3065"
       style="fill:none;stroke:#000000;stroke-width:1px;stroke-linecap:butt;stroke-linejoin:miter;stroke-opacity:1;display:inline" />
  </g>
</svg>
